<svg xmlns="http://www.w3.org/2000/svg" xmlns:xlink="http://www.w3.org/1999/xlink" viewBox="0 0 300 200" enable-background="new 0 0 300 200"><defs><path id="a" d="M67.1 20H233v165.9H67.1z"/></defs><clipPath id="b"><use xlink:href="#a" overflow="visible"/></clipPath><path clip-path="url(#b)" fill="#A6A8AB" d="M150 185.9c45.6 0 82.9-37.1 82.9-82.9 0-45.6-37.1-82.9-82.9-82.9-45.6 0-82.9 37.3-82.9 82.9s37.3 82.9 82.9 82.9"/><defs><path id="c" d="M68.1 102.9c0 45.3 36.8 82.1 82.1 82.1s82.1-36.8 82.1-82.1-36.8-82.1-82.1-82.1c-45.5 0-82.1 36.8-82.1 82.1"/></defs><clipPath id="d"><use xlink:href="#c" overflow="visible"/></clipPath><linearGradient id="e" gradientUnits="userSpaceOnUse" x1="-1126.213" y1="166.194" x2="-1125.1" y2="166.194" gradientTransform="matrix(0 150.18 150.18 0 -24808.785 169152.719)"><stop offset="0" stop-color="#E2E8EC"/><stop offset=".074" stop-color="#F1F4F3"/><stop offset=".164" stop-color="#FCFCF7"/><stop offset=".268" stop-color="#FFFFF9"/><stop offset=".517" stop-color="#959C9F"/><stop offset=".667" stop-color="#B0B1B3"/><stop offset=".681" stop-color="#B4B6B9"/><stop offset=".753" stop-color="#C3CCD0"/><stop offset=".798" stop-color="#C9D4D9"/><stop offset=".834" stop-color="#D4DCDF"/><stop offset=".905" stop-color="#E4E7E9"/><stop offset=".96" stop-color="#EAEBEC"/><stop offset="1" stop-color="#EAEBEC"/></linearGradient><path clip-path="url(#d)" fill="url(#e)" d="M68.1 20.8h164v164h-164z"/><defs><path id="f" d="M77.2 102.9c0 40.3 32.5 72.8 72.8 72.8s72.8-32.5 72.8-72.8-32.5-72.8-72.8-72.8-72.8 32.6-72.8 72.8"/></defs><clipPath id="g"><use xlink:href="#f" overflow="visible"/></clipPath><linearGradient id="h" gradientUnits="userSpaceOnUse" x1="-1116.457" y1="161.858" x2="-1115.345" y2="161.858" gradientTransform="matrix(100.347 84.201 84.201 -100.347 98498.953 110305.305)"><stop offset="0" stop-color="#DDDEE0"/><stop offset="1" stop-color="#808386"/></linearGradient><path clip-path="url(#g)" fill="url(#h)" d="M5.5 115.7l157.3 131.8L294.5 90.4l-157-132z"/><defs><path id="i" d="M67.1 20H233v165.9H67.1z"/></defs><clipPath id="j"><use xlink:href="#i" overflow="visible"/></clipPath><path clip-path="url(#j)" fill="none" stroke="#fff" stroke-width=".384" d="M223.1 102.9c0 40.5-32.5 73.1-73.1 73.1-40.3 0-73.1-32.8-73.1-73.1s32.8-73.1 73.1-73.1c40.5.1 73.1 32.9 73.1 73.1z"/><defs><path id="k" d="M78.8 102.9c0 39.5 32 71.5 71.5 71.5s71.5-32 71.5-71.5-32-71.5-71.5-71.5c-39.8.1-71.5 32.1-71.5 71.5"/></defs><clipPath id="l"><use xlink:href="#k" overflow="visible"/></clipPath><radialGradient id="m" cx="-1105.924" cy="151.889" r="1.112" gradientTransform="matrix(79.862 0 0 -79.862 88462.109 12215.949)" gradientUnits="userSpaceOnUse"><stop offset="0" stop-color="#fff"/><stop offset=".781" stop-color="#fff"/><stop offset=".847" stop-color="#FBFBFB"/><stop offset=".913" stop-color="#EFF0F1"/><stop offset=".98" stop-color="#DBDDDF"/><stop offset="1" stop-color="#D3D6D8"/></radialGradient><path clip-path="url(#l)" fill="url(#m)" d="M78.8 31.5h142.7v142.7H78.8z"/><defs><path id="n" d="M119.1 58.4l-6.4 10.4h42.7l6.4-10.4h-42.7zm24.8 41.6h-28.8l6.7-10.4h17.9l6.7-10.4H106l-6.7 10.4h9.6l-13.1 20.8h53.9l20.5-32.5 7.5 11.7h-6.4l-6.7 10.4h19.5l6.7 10.4h12.5l-33.1-52.3-26.3 41.9z"/></defs><clipPath id="o"><use xlink:href="#n" overflow="visible"/></clipPath><radialGradient id="p" cx="-1100.652" cy="151.267" r="1.111" gradientTransform="matrix(64.289 0 0 -64.289 70909.813 9782.209)" gradientUnits="userSpaceOnUse"><stop offset="0" stop-color="#ED3424"/><stop offset="1" stop-color="#B12516"/></radialGradient><path clip-path="url(#o)" fill="url(#p)" d="M95.9 58.1h107.5v52.3H95.9z"/><path fill="#00539A" d="M204.7 116.3v.2h.8v1.9h.2v-1.9h1.1v-.2zM209.2 116.3l-.8 1.3-.8-1.3h-.5v2.1h.5v-1.6.3l.8 1 .8-1v-.3 1.6h.3v-2.1z"/><defs><path id="q" d="M67.1 20H233v165.9H67.1z"/></defs><clipPath id="r"><use xlink:href="#q" overflow="visible"/></clipPath><path clip-path="url(#r)" fill="#00539A" d="M110.5 133.1c0 1.3-.5 2.4-1.3 3.5-.8.8-2.1 1.3-3.5 1.3h-5.6c-1.3 0-2.4-.5-3.5-1.3-.8-.8-1.3-1.9-1.3-3.5V131h3.5l.5 2.1c.3.8.8 1.3 1.9 1.3h3.7c.5 0 .8-.3 1.1-.5.3-.3.5-.8.5-1.3v-2.4c0-1.3-.5-1.9-1.6-1.9h-4.8c-1.3 0-2.4-.5-3.5-1.3-.8-1.1-1.3-2.1-1.3-3.5v-3.2c0-1.3.5-2.4 1.3-3.5 1.1-.8 2.1-1.3 3.5-1.3h5.6c1.3 0 2.4.5 3.5 1.3.8.8 1.3 2.1 1.3 3.5v2.1H107l-.5-1.9c-.3-.8-.8-1.3-1.9-1.3h-3.7c-.5 0-.8.3-1.1.5-.3.3-.5.8-.5 1.3v1.9c0 1.1.5 1.9 1.6 1.9h4.8c1.3 0 2.4.5 3.5 1.3 1.1 1.1 1.3 2.1 1.3 3.5v3.5z"/><defs><path id="s" d="M67.1 20H233v165.9H67.1z"/></defs><clipPath id="t"><use xlink:href="#s" overflow="visible"/></clipPath><path clip-path="url(#t)" fill="#00539A" d="M124.4 119.2h-5.3v6.9h5.3l1.1-.5c.3-.3.5-.8.5-1.3v-3.2c0-.5-.3-1.1-.5-1.3l-1.1-.6zm5.6 5.9c0 1.3-.5 2.4-1.3 3.5-1.1.8-2.1 1.3-3.5 1.3h-6.1v8.3h-4v-22.4h10.1c1.3 0 2.4.5 3.5 1.3s1.3 2.1 1.3 3.2v4.8z"/><defs><path id="u" d="M67.1 20H233v165.9H67.1z"/></defs><clipPath id="v"><use xlink:href="#u" overflow="visible"/></clipPath><path clip-path="url(#v)" fill="#00539A" d="M162.8 119.2h-5.1v6.4h5.1l1.1-.5c.3-.3.5-.8.5-1.3v-2.7c0-.5-.3-1.1-.5-1.3l-1.1-.6zm2.4 18.7l-3.7-8.8h-3.7v8.8h-4v-22.4h9.9c1.3 0 2.4.5 3.5 1.3.8.8 1.3 2.1 1.3 3.2v4c0 1.1-.3 1.9-.8 2.7-.5.8-1.3 1.3-2.1 1.9l4 9.3h-4.4z"/><defs><path id="w" d="M67.1 20H233v165.9H67.1z"/></defs><clipPath id="x"><use xlink:href="#w" overflow="visible"/></clipPath><path clip-path="url(#x)" fill="#00539A" d="M186.3 119.2h-5.6v18.7h-4v-18.7h-5.9v-3.7h15.5z"/><defs><path id="y" d="M67.1 20H233v165.9H67.1z"/></defs><clipPath id="z"><use xlink:href="#y" overflow="visible"/></clipPath><path clip-path="url(#z)" fill="#00539A" d="M204.1 133.1c0 1.3-.5 2.4-1.3 3.5-1.1.8-2.1 1.3-3.5 1.3h-5.6c-1.3 0-2.4-.5-3.5-1.3-.8-.8-1.3-1.9-1.3-3.5V131h3.5l.5 2.1c.3.8.8 1.3 1.9 1.3h3.7c.5 0 .8-.3 1.1-.5.3-.3.5-.8.5-1.3v-2.4c0-1.3-.5-1.9-1.6-1.9h-4.8c-1.3 0-2.4-.5-3.5-1.3-.8-1.1-1.3-2.1-1.3-3.5v-3.2c0-1.3.5-2.4 1.3-3.5.8-.8 2.1-1.3 3.5-1.3h5.6c1.3 0 2.4.5 3.5 1.3.8.8 1.3 2.1 1.3 3.5v2.1h-3.5l-.5-1.9c-.3-.8-.8-1.3-1.9-1.3h-3.7c-.5 0-.8.3-1.1.5s-.3.8-.3 1.3v1.9c0 1.1.5 1.9 1.6 1.9h4.8c1.3 0 2.4.5 3.5 1.3 1.1 1.1 1.3 2.1 1.3 3.5v3.5h-.2z"/><defs><path id="A" d="M67.1 20H233v165.9H67.1z"/></defs><clipPath id="B"><use xlink:href="#A" overflow="visible"/></clipPath><path clip-path="url(#B)" fill="#00539A" d="M148.9 133.1c0 1.3-.5 2.4-1.3 3.5-1.1.8-2.1 1.3-3.5 1.3h-5.3c-1.3 0-2.4-.5-3.5-1.3-.8-.8-1.3-2.1-1.3-3.5v-12.8c0-1.3.5-2.4 1.3-3.2s2.1-1.3 3.5-1.3h5.3c1.3 0 2.4.5 3.5 1.3s1.3 2.1 1.3 3.5v12.5zm-5.6-13.9h-3.7l-1.1.5c-.3.3-.5.8-.5 1.3v11.5c0 .5.3 1.1.5 1.3l1.1.5h3.7l1.1-.5c.3-.3.5-.8.5-1.3V121c0-.5-.3-1.1-.5-1.3l-1.1-.5z"/></svg>