<svg xmlns="http://www.w3.org/2000/svg" viewBox="0 0 60 18.3" enable-background="new 0 0 60 18.3"><path fill="#E41E2B" d="M26.1 18.8c-1.4-1-3.2-1.5-4.8-1.4-1.6.1-2.3 1.3-2.3 1.3-.7-1.3-2.2-2-4.4-2-3.6 0-7.1 1.7-9.9 1.7C2 18.4 0 16.7.1 13.7.2 8.4 4.7 3.6 8 1.5 9.9.3 11.5-.1 12.6 0c.8.1 1.7 1 1.1 2.3-.8 1.9-2 1.7-2 .8 0-.6.4-1 .7-1.2.2-.1.5-.2.7-.2.2-.1.3-1.2-1.1-.8-1.4.3-3 1.7-4.6 3.4-1.6 1.7-4 5-4.6 8.5-.3 1.6-.1 4.5 3.7 4.5 3.2 0 7.9-2.1 12.3-2.1 1.7 0 3.2.5 4.3 1.2 1.1.7 2.5 1.7 3 2.4m1-9.6h.7s-3.3 4.8-5.2 4.6c-1-.1-.7-1.4-.7-1.4s-1.5 1.7-2.8 1.4c-1.2-.3-.4-2.3-.4-2.3-.1.1-2.8 3-4.6 2.3-1.9-.7-.9-3.2-.6-4 .3-.6.7-1.2.7-1.2s-.3.1-.5.1-.5.1-.5.1-.9 1.5-1.5 2.2c-.6.7-2.9 3.3-4.3 2.8s-1.1-2.5-.3-4c1.3-2.5 4.3-5.6 6.1-5.2 1.8.4.3 3.4.3 3.4s.4 0 1.2-.6c1.3-.9 2.9-3.2 4.7-2.9.9.1 1.6 1 .6 2.7-.3.5-.9 1-1.4.5-.3-.3 0-.8.3-1.2.4-.5 1-.4 1-.4s.3-.7-.5-.7c-.6 0-2.2 1.4-3.1 2.9-.8 1.3-2 3.6-.8 4.1 1.1.5 3.3-2.1 4.3-3.4 1-1.3 3.2-4.4 5.1-4.5.7 0 1 .6 1 .6l.2-.3H28s-3.6 6-3.8 6.4c-.2.4-.5 1.1.3.7.9-.5 2.6-2.7 2.6-2.7m-14.7-.6s-.5-.1-1-.4c-.5-.3-.7-.7-.7-.8h-.1s-.1.2-.8 1.1c-.7 1-1.7 3-.7 3.4.6.2 1.6-.8 2.2-1.5.5-.6 1.1-1.6 1.1-1.8.1.1 0 0 0 0m.8-3.1c-.5-.4-1.8.5-1.8 1.4 0 .9 1.1 1.2 1.3 1.2 0 0 .1 0 .2-.1 0-.1.2-.4.4-.8.1-.5.3-1.4-.1-1.7m9.6 4.9c.8-1 2.9-4.7 2.9-4.7s0-.3-.3-.3-.8.1-1.7 1.3c-1 1.2-1.7 2.2-2.3 3.2-.6 1.1-.9 1.9-.5 2.1.1.1.2.1.4 0s.5-.3.9-.7c.1-.2.3-.5.6-.9m8.5-5.7h-1.8l-1 1.6h1.8l1-1.6zm23.6 12.4c-.1 0-.3.1-.4.2-.1.1-.2.2-.2.4 0 .1.1.3.2.4.1.1.2.2.4.2.1 0 .3-.1.4-.2.1-.1.2-.2.2-.4 0-.1-.1-.3-.2-.4-.1-.1-.2-.2-.4-.2m.6.6c0 .2-.1.3-.2.4-.1.1-.3.2-.4.2-.2 0-.3-.1-.4-.2-.1-.1-.2-.3-.2-.4 0-.2.1-.3.2-.4.1-.1.3-.2.4-.2.2 0 .3.1.4.2.2 0 .2.2.2.4m-.4-.2v-.1h-.2v.2h.2v-.1m-.4-.2h.4c.1 0 .1.1.1.2s0 .1-.1.1H55c.1 0 .1 0 .1.1v.1H55v-.1c0-.1 0-.1-.1-.2h-.2v.5h-.1v-.7zm3.1-15.5c-1.3.9-3.2 1.6-4.9 1.5-.4.5-.9 1-1.4 1.6 3.1.6 5.8-1.3 7.2-2.9C59.6.9 60 0 60 0s-.9.9-2.2 1.8m-5.2 13.9c-.3.4-.5 1.2.3.7 1-.6 2.5-2.8 2.5-2.8h.6s-.9 1.4-2 2.6c-1 1.1-2.3 2.2-3.2 2.1-1-.1-.7-1.5-.7-1.5s-1.5 1.6-2.5 1.5c-1.4-.2-1-1.9-1-1.9s-1.6 2-2.6 1.9c-1.7-.1-1.3-2.1-.8-3.6.3-.8.5-1.4.5-1.4s-.2 0-.5.1h-.5s-.7 1.2-1.3 2c-.6.7-2.9 3.3-4.3 2.8-1.3-.5-.9-2.5-.1-4 1.1-2.3 4.2-5.6 6-5.2 1.8.4 0 3.8 0 3.8h.4c.4-.1.7-.2.7-.2S46 8.7 48 6.2c2.1-2.5 6.2-6.9 7.8-5.9.4.3.2 1.2-.3 2.3-.2.1-.5.1-.7.2.4-.6.6-1.2.7-1.6.2-1.3-2.8 1.5-5 4.4-2.2 3-3.5 5.7-3.5 5.7s.4-.3 1.1-.8c.7-.6 1.7-1.5 2.8-2.6.7-.7 1.6-1.7 2.4-2.7.2 0 .5 0 .7-.1-.9 1.2-1.8 2.3-2.6 3.1-.9.9-1.8 1.8-2.6 2.5-1.3 1.1-2.3 1.7-2.3 1.7s-1.9 3.9-.9 4.1c.6.1 1.8-1.7 1.8-1.7s1.6-2.4 2.5-3.5c1.3-1.5 2.4-2.3 3.5-2.4.7 0 1 .7 1 .7l.3-.5h1.9c-.2.2-3.7 6.2-4 6.6m-10.7-2.3s-.4-.2-.9-.6c-.4-.4-.6-.8-.7-.8h-.1s-.1.1-.8 1.1c-.7 1-1.7 3-.8 3.4.6.2 1.6-.8 2.1-1.5.8-.7 1.3-1.5 1.2-1.6.1 0 .1 0 0 0m1-1.7c.2-.5.4-1.4-.1-1.7-.5-.4-1.8.5-1.8 1.4 0 .9.9 1.3 1.1 1.4.1 0 .2 0 .2-.1.1 0 .4-.5.6-1m10.9-1.3c0-.1.1-.1.1-.1s0-.3-.3-.3-.7 0-1.7 1.2-1.7 2.2-2.2 3.2c-.6 1.1-.8 1.9-.5 2.1.1.1.2.1.4 0s.5-.3.9-.7c.2-.2.4-.5.6-.9.6-.9 2.3-3.9 2.7-4.5m4-8.6c-1.3.9-3.2 1.6-4.9 1.5-.4.5-.9 1-1.4 1.6 3.1.6 5.8-1.3 7.2-2.9C59.6.9 60 0 60 0s-.9.9-2.2 1.8M49.2 4c-1.5-.7-2.5-1.7-3.6-2.2-1.1-.5-1.7-.8-2.6-.7-.1 0-.4.1-.4.1s.4 1.5-1.3 4c-1.8 2.5-3.4 2.5-3.8 1.8-.5-.7.1-2.2 1.2-3.6 1.1-1.4 3-2.6 3-2.6s-.6-.4-2.1.5c-1.4.8-3.9 2.8-6.2 6.1-2.3 3.3-2.8 5.1-3.1 6.5-.3 1.4 0 2.9 1.6 2.9s3.4-2.4 3.9-3.2c1-1.6 1.6-3.9.3-3.6-.6.2-1.2.9-1.5 1.6-.4.7-.6 1.4-.6 1.4s-.5.2-1.3.7c-.7.5-1.2 1.1-1.2 1.1s0-1.1.9-3c1-1.8 2.6-2.7 3.6-2.7.8-.1 2 .7 1 3.3-.9 2.7-3.7 5.9-6.6 5.9-2.7 0-4.4-3.4-.7-9.3 4.1-6.6 9-8.6 10.5-8.9 1.6-.2 2.1.5 2.1.5s1.3-.6 3-.5c1.9.1 3.4 1.5 5.4 2.4-.6.5-1 1-1.5 1.5m-7.1-2.6s-1.1.4-2.4 1.9c-1.3 1.4-2.1 3.1-1.5 3.5.2.2.6.2 1.6-.6.7-.6 1.4-1.5 1.9-2.7.6-1.4.4-2.1.4-2.1"/></svg>