<svg xmlns="http://www.w3.org/2000/svg" xmlns:xlink="http://www.w3.org/1999/xlink" viewBox="0 0 300 200" enable-background="new 0 0 300 200"><defs><path id="a" d="M92.1 25.4h106v148h-106z"/></defs><clipPath id="b"><use xlink:href="#a" overflow="visible"/></clipPath><path clip-path="url(#b)" fill="#fff" d="M174 30.9l-38.6-.2c-6.5 0-11.8 5.3-11.8 11.8v115.9c0 6.5 5.3 11.8 11.8 11.8l38.6.2c6.5 0 11.8-5.3 11.8-11.8V42.8c-.1-6.5-5.3-11.9-11.8-11.9"/><defs><path id="c" d="M92.1 25.4h106v148h-106z"/></defs><clipPath id="d"><use xlink:href="#c" overflow="visible"/></clipPath><path clip-path="url(#d)" fill="#ED174C" d="M181.1 97.7V43c0-3.9-3.2-7.1-7.1-7.1h-13c1 1 2.2 1.4 3 2.4 1.4 2.2.2 4.9-.6 7.1l.4.2c.2 1.4-.6 3-2 3.9-.4 1.8-2.6 3-2.8 5.1 1.2.8 2.8 1.4 3.9 3 2.6 1.4 4.9 3.7 6.3 6.3 1 3.7 1.2 7.1 1.6 11-.2 2.2.6 4.5 1 6.7 2 3.2 3 7.1 3.7 10.8 0 1.6 2 .8 2.6 2.2 1.4.2 2 2 2.8 3h.2z"/><defs><path id="e" d="M92.1 25.4h106v148h-106z"/></defs><clipPath id="f"><use xlink:href="#e" overflow="visible"/></clipPath><path clip-path="url(#f)" fill="#006BB6" d="M169.9 166.1l-34.5-.2c-3.9 0-7.1-3.2-7.1-7.1v-116c0-3.9 3.2-7.1 7.1-7.1h20.7l-.2.2c-.2.4-1.2.4-1.6 1-1.2.6-.6 2-1.4 2.8.2.6.4 1.4 0 2-.2.4.2.8-.2 1.2-.6-.4-.8.4-1.2.6 0 1.2-.2 3.2 1.2 3.9l-.2 1.8c-.4 1.2-.6 2.4-1.6 3.5-1.6.2-3.2.2-4.7.8-1-.4-1.8.4-2.6.2-1.4.2-2.4 1.4-3.7 1.8-.4.6-1 .8-1 1.4-1 1.6-2.2 3-2.8 4.9-.6 1-1 2.2-1.6 3.2 0 1.4-1.2 2.4-1.4 3.7-.6 1.2-1.2 2.6-1.6 4.1-.8.8-.6 2-1 3-.2.6-1 1.4-.8 2.2l-.4 1.2c.2 1.4.6 3.2 2 4.5l3.7.4c.6 1.6-1.2 2.4-1.8 3.7-.2.2-.4 0-.4.4 1 1-.6 1.8-.2 2.8-.2 1.4-.8 3.2-.4 4.9-.4.8.4 1.4.6 2.4.8.8.8 2 1.4 2.8.4 1 1.2 1.6 1.6 2.6-.4.4.4.6.6 1.2.8 1.2.6 2.8 1.4 4.3.8.4 1.8 0 2.8.2.4.8 1 1.4 1.2 2.2.8.4.6 1.2 1 1.8.6 1 1.4 2 1.8 3 .6.6.8 1.2 1.2 1.8 3.2 4.5 6.5 8.1 10.4 11.8.8.4 1.6 1.2 2.2 1.8 2 1.8 4.3 3.5 6.7 5.1 0 1.6 2 2.8.8 4.5.2.6.2 1.4.6 1.8-.4.6.4.6.6 1.2.8 2 2 4.3 1.6 6.7 1 1.2 1 3.5.6 5.1.4 1.8-.4 3.7-.2 5.5-.4 1.8.6 3 .8 4.4z"/><defs><path id="g" d="M92.1 25.4h106v148h-106z"/></defs><clipPath id="h"><use xlink:href="#g" overflow="visible"/></clipPath><path clip-path="url(#h)" fill="#ED174C" d="M180.9 106.6c-1.6 3.2-4.9 5.3-8.5 5.3-5.3 0-9.5-4.3-9.5-9.5 0-3.7 2-6.7 4.9-8.3l.6-.4c.8-.2 1.6-.4 2-1-3.5-5.9-5.5-12.6-6.5-19.3-.2-.6 0-1-.4-1.6-.2 0-.4-.2-.6 0-1.2.4-2.4 1.2-3.5 2.2-1.2 2.8-2.2 5.9-3.2 8.9.4.8 1.4.8 1.6 1.6 1.2 3.7 2.6 7.1 3.5 10.8 0 .8.2 1.4-.2 2-.8.4 0 1 0 1.6 1 2.8 1.4 5.7 2 8.7 0 1 .4 2 .4 3 .2 2.2.8 4.3 1.4 6.3 4.1 5.3 4.1 12.4 5.5 18.3 1.4 2.2 3 4.5 2.4 7.1 0 1.2-.4 2.2-.6 3.2.4 2.2.4 4.1 1.2 6.3.2.4 0 1 .2 1.4.2 2 .8 3.9 1.6 5.7.8 2.6-.2 5.3-1.8 6.9v.2h1.2c3.9 0 7.1-3.2 7.1-7.1l-.8-52.3z"/><defs><path id="i" d="M92.1 25.4h106v148h-106z"/></defs><clipPath id="j"><use xlink:href="#i" overflow="visible"/></clipPath><path clip-path="url(#j)" fill="#fff" d="M137.2 149.4v.2l.2 9.2h-3.6v-16.5h4l3.1 9.2-.4-9.2h3.6v16.5h-3.8z"/><defs><path id="k" d="M92.1 25.4h106v148h-106z"/></defs><clipPath id="l"><use xlink:href="#k" overflow="visible"/></clipPath><path clip-path="url(#l)" fill="#fff" d="M144.9 158.8v-16.4h5.1c2.8 0 5.3 1 5.3 4.3 0 1.4-.6 2.6-1.8 3.5 1.8 1 2 1.8 2 3.9 0 3.2-1.8 4.7-5.1 4.7h-5.5zm3.9-3.1c2 0 2.8 0 2.8-2 0-1.8-1-1.8-2.8-2v4zm0-6.9c1.6-.2 2.4 0 2.4-2 0-1.6-1-1.6-2.4-1.6v3.6z"/><defs><path id="m" d="M92.1 25.4h106v148h-106z"/></defs><clipPath id="n"><use xlink:href="#m" overflow="visible"/></clipPath><path clip-path="url(#n)" fill="#fff" d="M155.1 158.8l3.7-16.4h4.7l3.7 16.4h-3.9l-.6-3.2h-3l-.6 3.2h-4zm5.9-13.4l-1.2 7.3h2.2l-1-7.3z"/><defs><path id="o" d="M83.8 25.4h106v148h-106z"/></defs><clipPath id="p"><use xlink:href="#o" overflow="visible"/></clipPath><g clip-path="url(#p)"><text transform="translate(49.247 196.045)" font-family="'ArialMT'" font-size="14.98">Local Franchises</text></g><defs><path id="q" d="M83.8 25.4h106v148h-106z"/></defs><clipPath id="r"><use xlink:href="#q" overflow="visible"/></clipPath><path clip-path="url(#r)" fill="none" stroke="#010101" stroke-width=".615" d="M161.4 191.7h121.2v-22.2"/></svg>