<svg xmlns="http://www.w3.org/2000/svg" xmlns:xlink="http://www.w3.org/1999/xlink" viewBox="0 0 138.8 56.7" enable-background="new 0 0 138.8 56.7"><defs><path id="a" d="M-177-2.2h147.9V60H-177z"/></defs><clipPath id="b"><use xlink:href="#a" overflow="visible"/></clipPath><path clip-path="url(#b)" fill="none" stroke="#000" stroke-width=".099" d="M-228.9-33h378v292.3h-378z"/><path clip-path="url(#b)" fill="none" stroke="#fff" stroke-width=".397" d="M-243-39.2h406.1v304.6H-243z"/><path clip-path="url(#b)" fill="#D1D3D4" d="M92.8 21.9c-18.7 0-33.7 5.6-33.7 12.6s15.1 12.6 33.7 12.6 33.7-5.7 33.7-12.6c0-6.9-15.1-12.6-33.7-12.6m33.5 11.7v.2-.2"/><defs><path id="c" d="M-177-2.2h147.9V60H-177z"/></defs><clipPath id="d"><use xlink:href="#c" overflow="visible"/></clipPath><g clip-path="url(#d)"><defs><path id="e" d="M59.6 34.6c0 6.7 14.8 12.1 33.2 12.1 18.3 0 33.2-5.4 33.2-12.1 0-6.7-14.8-12.1-33.2-12.1-18.4 0-33.2 5.4-33.2 12.1"/></defs><clipPath id="f"><use xlink:href="#e" overflow="visible"/></clipPath><g clip-path="url(#f)"><defs><path id="g" d="M59.6 22.5h66.3v24.2H59.6z"/></defs><clipPath id="h"><use xlink:href="#g" overflow="visible"/></clipPath><radialGradient id="i" cx="-442.101" cy="387.548" r="1.112" gradientTransform="matrix(130.777 0 0 -127.521 57909.098 49581.652)" gradientUnits="userSpaceOnUse"><stop offset="0"/><stop offset=".35" stop-color="#000017"/><stop offset=".7" stop-color="#003"/><stop offset=".768" stop-color="#001A52"/><stop offset=".857" stop-color="#003775"/><stop offset=".904" stop-color="#004282"/><stop offset=".955" stop-color="#1CA6DF"/><stop offset="1" stop-color="#1CA6DF"/></radialGradient><path clip-path="url(#h)" fill="url(#i)" d="M59.6 22.5h66.3v24.2H59.6z"/></g></g><defs><path id="j" d="M-177-2.2h147.9V60H-177z"/></defs><clipPath id="k"><use xlink:href="#j" overflow="visible"/></clipPath><g clip-path="url(#k)"><defs><path id="l" d="M62.1 34.6c0 .5.1.9.3 1.3-.1-.3-.1-.6-.1-.9 0-5.5 13.7-10 30.7-10 15.6 0 28.4 3.8 30.4 8.7-1.3-5.2-14.5-9.3-30.6-9.3-17 .1-30.7 4.6-30.7 10.2"/></defs><clipPath id="m"><use xlink:href="#l" overflow="visible"/></clipPath><g clip-path="url(#m)"><defs><path id="n" d="M62.1 24.5h61.2v11.4H62.1z"/></defs><clipPath id="o"><use xlink:href="#n" overflow="visible"/></clipPath><linearGradient id="p" gradientUnits="userSpaceOnUse" x1="-450.754" y1="377.183" x2="-449.642" y2="377.183" gradientTransform="matrix(0 -23.089 -23.089 0 8801.392 -10359.849)"><stop offset="0" stop-color="#00053D"/><stop offset=".209" stop-color="#000941"/><stop offset=".433" stop-color="#00134E"/><stop offset=".664" stop-color="#002564"/><stop offset=".809" stop-color="#003475"/><stop offset="1" stop-color="#006DA9"/></linearGradient><path clip-path="url(#o)" fill="url(#p)" d="M62.1 24.5h61.2v11.4H62.1z"/></g></g><defs><path id="q" d="M-177-2.2h147.9V60H-177z"/></defs><clipPath id="r"><use xlink:href="#q" overflow="visible"/></clipPath><g clip-path="url(#r)"><defs><path id="s" d="M124.6 34.6c0 6.1-14.2 11.1-31.8 11.1-15.6 0-28.6-3.9-31.3-9.1 2 5.4 15.4 9.5 31.5 9.5 17.6 0 31.8-4.9 31.8-11 0-.6-.1-1.2-.4-1.8.1.4.2.8.2 1.3"/></defs><clipPath id="t"><use xlink:href="#s" overflow="visible"/></clipPath><g clip-path="url(#t)"><defs><path id="u" d="M61.5 33.3h63.3v12.8H61.5z"/></defs><clipPath id="v"><use xlink:href="#u" overflow="visible"/></clipPath><linearGradient id="w" gradientUnits="userSpaceOnUse" x1="-450.755" y1="377.18" x2="-449.643" y2="377.18" gradientTransform="matrix(0 -23.086 -23.086 0 8800.847 -10358.8)"><stop offset="0" stop-color="#00053D"/><stop offset=".209" stop-color="#000941"/><stop offset=".433" stop-color="#00134E"/><stop offset=".664" stop-color="#002564"/><stop offset=".809" stop-color="#003475"/><stop offset="1" stop-color="#006DA9"/></linearGradient><path clip-path="url(#v)" fill="url(#w)" d="M61.5 33.3h63.3v12.8H61.5z"/></g></g><defs><path id="x" d="M-177-2.2h147.9V60H-177z"/></defs><clipPath id="y"><use xlink:href="#x" overflow="visible"/></clipPath><g clip-path="url(#y)"><defs><path id="z" d="M98.7 35.6c-.7.7-.8 1.7-.3 2.1.2.2.4.2.6.2-.3-.4-.4-1.1-.1-1.7-.1-.2-.1-.4 0-.6 0 .1-.1 0-.2 0"/></defs><clipPath id="A"><use xlink:href="#z" overflow="visible"/></clipPath><g clip-path="url(#A)"><defs><path id="B" d="M97.9 35.6h1V38h-1z"/></defs><clipPath id="C"><use xlink:href="#B" overflow="visible"/></clipPath><linearGradient id="D" gradientUnits="userSpaceOnUse" x1="-453.657" y1="371.976" x2="-452.545" y2="371.976" gradientTransform="matrix(0 -15.986 -15.986 0 6045.031 -7209.301)"><stop offset="0" stop-color="#00053D"/><stop offset=".209" stop-color="#000941"/><stop offset=".433" stop-color="#00134E"/><stop offset=".664" stop-color="#002564"/><stop offset=".809" stop-color="#003475"/><stop offset="1" stop-color="#006DA9"/></linearGradient><path clip-path="url(#C)" fill="url(#D)" d="M97.9 35.6h1V38h-1z"/></g></g><defs><path id="E" d="M-177-2.2h147.9V60H-177z"/></defs><clipPath id="F"><use xlink:href="#E" overflow="visible"/></clipPath><g clip-path="url(#F)"><defs><path id="G" d="M106 37.2c0 .1 0 .3.1.5 0-.1.1-.1.1-.2v-.1c-.1 0-.1-.1-.2-.2z"/></defs><clipPath id="H"><use xlink:href="#G" overflow="visible"/></clipPath><g clip-path="url(#H)"><defs><path id="I" d="M106 37.2h.2v.5h-.2z"/></defs><clipPath id="J"><use xlink:href="#I" overflow="visible"/></clipPath><linearGradient id="K" gradientUnits="userSpaceOnUse" x1="-453.487" y1="372.226" x2="-452.375" y2="372.226" gradientTransform="matrix(0 -16.279 -16.279 0 6165.418 -7338.918)"><stop offset="0" stop-color="#00053D"/><stop offset=".209" stop-color="#000941"/><stop offset=".433" stop-color="#00134E"/><stop offset=".664" stop-color="#002564"/><stop offset=".809" stop-color="#003475"/><stop offset="1" stop-color="#006DA9"/></linearGradient><path clip-path="url(#J)" fill="url(#K)" d="M106 37.2h.2v.5h-.2z"/></g></g><defs><path id="L" d="M-177-2.2h147.9V60H-177z"/></defs><clipPath id="M"><use xlink:href="#L" overflow="visible"/></clipPath><g clip-path="url(#M)"><defs><path id="N" d="M107.3 35.6c0 .1.1.1.2 0 0 0 0-.1.1-.1 0 0 0-.1-.1-.1l-.6-.6c.2.2.4.5.4.8"/></defs><clipPath id="O"><use xlink:href="#N" overflow="visible"/></clipPath><g clip-path="url(#O)"><defs><path id="P" d="M106.9 34.8h.7v.9h-.7z"/></defs><clipPath id="Q"><use xlink:href="#P" overflow="visible"/></clipPath><linearGradient id="R" gradientUnits="userSpaceOnUse" x1="-454.386" y1="370.611" x2="-453.274" y2="370.611" gradientTransform="matrix(0 -14.841 -14.841 0 5607.596 -6701.241)"><stop offset="0" stop-color="#00053D"/><stop offset=".209" stop-color="#000941"/><stop offset=".433" stop-color="#00134E"/><stop offset=".664" stop-color="#002564"/><stop offset=".809" stop-color="#003475"/><stop offset="1" stop-color="#006DA9"/></linearGradient><path clip-path="url(#Q)" fill="url(#R)" d="M106.9 34.8h.7v.9h-.7z"/></g></g><defs><path id="S" d="M-177-2.2h147.9V60H-177z"/></defs><clipPath id="T"><use xlink:href="#S" overflow="visible"/></clipPath><g clip-path="url(#T)"><defs><path id="U" d="M97.3 35.4c0 .1.1.1.1 0l.1-.1c-.1-.4-.4-.8-.5-1 .2.3.3.7.3 1.1"/></defs><clipPath id="V"><use xlink:href="#U" overflow="visible"/></clipPath><g clip-path="url(#V)"><defs><path id="W" d="M97 34.3h.5v1.2H97z"/></defs><clipPath id="X"><use xlink:href="#W" overflow="visible"/></clipPath><linearGradient id="Y" gradientUnits="userSpaceOnUse" x1="-454.041" y1="371.293" x2="-452.929" y2="371.293" gradientTransform="matrix(0 -15.361 -15.361 0 5800.737 -6931.852)"><stop offset="0" stop-color="#00053D"/><stop offset=".209" stop-color="#000941"/><stop offset=".433" stop-color="#00134E"/><stop offset=".664" stop-color="#002564"/><stop offset=".809" stop-color="#003475"/><stop offset="1" stop-color="#006DA9"/></linearGradient><path clip-path="url(#X)" fill="url(#Y)" d="M97 34.3h.5v1.2H97z"/></g></g><defs><path id="Z" d="M-177-2.2h147.9V60H-177z"/></defs><clipPath id="aa"><use xlink:href="#Z" overflow="visible"/></clipPath><g clip-path="url(#aa)"><defs><path id="ab" d="M103.6 36.8c-.7.8-1 1.6-1 2.5 0 .3.1.6.4.8.1 0 .2.1.3.1v-.3c0-.8.2-1.7.9-2.5.8-1 1.7-1.5 2.2-1.2 0-.2-.1-.4-.4-.5-.1-.1-.2-.1-.4-.1-.6-.1-1.3.4-2 1.2"/></defs><clipPath id="ac"><use xlink:href="#ab" overflow="visible"/></clipPath><g clip-path="url(#ac)"><defs><path id="ad" d="M102.6 35.5h3.7v4.6h-3.7z"/></defs><clipPath id="ae"><use xlink:href="#ad" overflow="visible"/></clipPath><linearGradient id="af" gradientUnits="userSpaceOnUse" x1="-453.541" y1="372.141" x2="-452.429" y2="372.141" gradientTransform="matrix(0 -16.185 -16.185 0 6127.466 -7297.327)"><stop offset="0" stop-color="#00053D"/><stop offset=".209" stop-color="#000941"/><stop offset=".433" stop-color="#00134E"/><stop offset=".664" stop-color="#002564"/><stop offset=".809" stop-color="#003475"/><stop offset="1" stop-color="#006DA9"/></linearGradient><path clip-path="url(#ae)" fill="url(#af)" d="M102.6 35.5h3.7v4.6h-3.7z"/></g></g><defs><path id="ag" d="M-177-2.2h147.9V60H-177z"/></defs><clipPath id="ah"><use xlink:href="#ag" overflow="visible"/></clipPath><g clip-path="url(#ah)"><defs><path id="ai" d="M90.4 34.9c0 .1 0 .2-.1.2-.9.3-1.8.9-2.4 1.7-.7 1-.9 2.1-.4 2.8.1.2.2.3.4.3-.3-.8-.1-1.8.5-2.7.6-.8 1.3-1.2 2.1-1.5.1 0 .1-.1.1-.2-.1-.1-.2-.5-.2-.6z"/></defs><clipPath id="aj"><use xlink:href="#ai" overflow="visible"/></clipPath><g clip-path="url(#aj)"><defs><path id="ak" d="M87 34.9h3.6v5H87z"/></defs><clipPath id="al"><use xlink:href="#ak" overflow="visible"/></clipPath><linearGradient id="am" gradientUnits="userSpaceOnUse" x1="-453.547" y1="372.235" x2="-452.434" y2="372.235" gradientTransform="matrix(0 -16.175 -16.175 0 6109.748 -7293.088)"><stop offset="0" stop-color="#00053D"/><stop offset=".209" stop-color="#000941"/><stop offset=".433" stop-color="#00134E"/><stop offset=".664" stop-color="#002564"/><stop offset=".809" stop-color="#003475"/><stop offset="1" stop-color="#006DA9"/></linearGradient><path clip-path="url(#al)" fill="url(#am)" d="M87 34.9h3.6v5H87z"/></g></g><defs><path id="an" d="M-177-2.2h147.9V60H-177z"/></defs><clipPath id="ao"><use xlink:href="#an" overflow="visible"/></clipPath><g clip-path="url(#ao)"><defs><path id="ap" d="M97 37.6c-.8 1.3-1.6 2.5-2.5 3.8 0 .1-.1.1-.2.1h-1.6c-.1 0-.1 0-.1-.1 0 .2.1.6.1.6 0 .1.1.1.1.1h1.9c.1 0 .1 0 .2-.1.8-1.2 1.6-2.5 2.3-3.7.2.6.3.9.6 1.2.3.3.6.4 1.1.4.4 0 .8-.2 1.3-.3.2-.1.3-.2.4-.2 0-.2 0-.4.1-.7 0 0 0-.2-.1-.1-.2.2-.5.3-.8.5-.4.2-.6.2-1 .2-.5 0-.9-.2-1.3-.7-.3-.3-.4-.7-.5-1 .1 0 .1 0 0 0 .1 0 0 0 0 0"/></defs><clipPath id="aq"><use xlink:href="#ap" overflow="visible"/></clipPath><g clip-path="url(#aq)"><defs><path id="ar" d="M92.6 37.6h8v4.6h-8z"/></defs><clipPath id="as"><use xlink:href="#ar" overflow="visible"/></clipPath><linearGradient id="at" gradientUnits="userSpaceOnUse" x1="-453.611" y1="372.065" x2="-452.499" y2="372.065" gradientTransform="matrix(0 -16.065 -16.065 0 6073.741 -7243.971)"><stop offset="0" stop-color="#00053D"/><stop offset=".209" stop-color="#000941"/><stop offset=".433" stop-color="#00134E"/><stop offset=".664" stop-color="#002564"/><stop offset=".809" stop-color="#003475"/><stop offset="1" stop-color="#006DA9"/></linearGradient><path clip-path="url(#as)" fill="url(#at)" d="M92.6 37.6h8v4.6h-8z"/></g></g><defs><path id="au" d="M-177-2.2h147.9V60H-177z"/></defs><clipPath id="av"><use xlink:href="#au" overflow="visible"/></clipPath><g clip-path="url(#av)"><defs><path id="aw" d="M100.7 40m10.8-1.7c-.8 1-1.7 1.9-2.5 2.6-1.3 1-2.6 1.3-3.3.6-.2-.2-.4-.6-.4-.9 0-.2-.1-.2-.2-.1-.8.8-2.1 1.6-3.4 1-.6-.3-1-.9-1.1-1.5.1.5.2 1.1.4 1.5.1.3.5.6.6.7 1.1.5 2.7-.1 3.7-1 0 .2.1.4.1.4.1.2.2.4.3.5.7.8 2.1.4 3.7-.7.8-.7 1.5-1.3 2.2-2.2V39c0-.3 0-.6-.1-.7 0-.1 0 0 0 0"/></defs><clipPath id="ax"><use xlink:href="#aw" overflow="visible"/></clipPath><g clip-path="url(#ax)"><defs><path id="ay" d="M100.7 38.2h11v4.6h-11z"/></defs><clipPath id="az"><use xlink:href="#ay" overflow="visible"/></clipPath><linearGradient id="aA" gradientUnits="userSpaceOnUse" x1="-453.538" y1="372.135" x2="-452.426" y2="372.135" gradientTransform="matrix(0 -16.19 -16.19 0 6130.905 -7299.49)"><stop offset="0" stop-color="#00053D"/><stop offset=".209" stop-color="#000941"/><stop offset=".433" stop-color="#00134E"/><stop offset=".664" stop-color="#002564"/><stop offset=".809" stop-color="#003475"/><stop offset="1" stop-color="#006DA9"/></linearGradient><path clip-path="url(#az)" fill="url(#aA)" d="M100.7 38.2h11v4.6h-11z"/></g></g><defs><path id="aB" d="M-177-2.2h147.9V60H-177z"/></defs><clipPath id="aC"><use xlink:href="#aB" overflow="visible"/></clipPath><g clip-path="url(#aC)"><defs><path id="aD" d="M101 35.6c-.1.5-.3.9-.8 1.1-.4.2-.8.2-1.1-.1-.1-.1-.2-.2-.2-.3.1.4.2.6.2.8.3.4.8.6 1.4.3.4-.2.8-.7.7-1.4 0-.4-.1-.8-.3-1.1.1.1.2.4.1.7"/></defs><clipPath id="aE"><use xlink:href="#aD" overflow="visible"/></clipPath><g clip-path="url(#aE)"><defs><path id="aF" d="M98.9 34.8h2.4v2.8h-2.4z"/></defs><clipPath id="aG"><use xlink:href="#aF" overflow="visible"/></clipPath><linearGradient id="aH" gradientUnits="userSpaceOnUse" x1="-453.532" y1="372.183" x2="-452.42" y2="372.183" gradientTransform="matrix(0 -16.2 -16.2 0 6129.453 -7304.093)"><stop offset="0" stop-color="#00053D"/><stop offset=".209" stop-color="#000941"/><stop offset=".433" stop-color="#00134E"/><stop offset=".664" stop-color="#002564"/><stop offset=".809" stop-color="#003475"/><stop offset="1" stop-color="#006DA9"/></linearGradient><path clip-path="url(#aG)" fill="url(#aH)" d="M98.9 34.8h2.4v2.8h-2.4z"/></g></g><defs><path id="aI" d="M-177-2.2h147.9V60H-177z"/></defs><clipPath id="aJ"><use xlink:href="#aI" overflow="visible"/></clipPath><g clip-path="url(#aJ)"><defs><path id="aK" d="M112.6 31c-.3.4-5.2 8-5.5 8.7-.1.2-.1.4 0 .6.1.1.3.2.4.2 0-.1.1-.2.1-.3.3-.8 4.9-7.8 5.2-8.2v-.1c-.1-.2-.2-.9-.2-.9 0-.1 0-.1 0 0m0-.1"/></defs><clipPath id="aL"><use xlink:href="#aK" overflow="visible"/></clipPath><g clip-path="url(#aL)"><defs><path id="aM" d="M107 30.9h5.8v9.6H107z"/></defs><clipPath id="aN"><use xlink:href="#aM" overflow="visible"/></clipPath><linearGradient id="aO" gradientUnits="userSpaceOnUse" x1="-453.542" y1="372.105" x2="-452.43" y2="372.105" gradientTransform="matrix(0 -16.182 -16.182 0 6131.425 -7296.272)"><stop offset="0" stop-color="#00053D"/><stop offset=".209" stop-color="#000941"/><stop offset=".433" stop-color="#00134E"/><stop offset=".664" stop-color="#002564"/><stop offset=".809" stop-color="#003475"/><stop offset="1" stop-color="#006DA9"/></linearGradient><path clip-path="url(#aN)" fill="url(#aO)" d="M107 30.9h5.8v9.6H107z"/></g></g><defs><path id="aP" d="M-177-2.2h147.9V60H-177z"/></defs><clipPath id="aQ"><use xlink:href="#aP" overflow="visible"/></clipPath><g clip-path="url(#aQ)"><defs><path id="aR" d="M92.1 34.5c.3.4.5 1.1.5 1.7 0 .1.1.1.1.1l.2-.2c-.1-.3-.2-.7-.4-1 0-.1-.2-.5-.4-.6"/></defs><clipPath id="aS"><use xlink:href="#aR" overflow="visible"/></clipPath><g clip-path="url(#aS)"><defs><path id="aT" d="M92.1 34.4h.8v1.9h-.8z"/></defs><clipPath id="aU"><use xlink:href="#aT" overflow="visible"/></clipPath><linearGradient id="aV" gradientUnits="userSpaceOnUse" x1="-453.764" y1="371.819" x2="-452.651" y2="371.819" gradientTransform="matrix(0 -15.808 -15.808 0 5970.124 -7130.05)"><stop offset="0" stop-color="#00053D"/><stop offset=".209" stop-color="#000941"/><stop offset=".433" stop-color="#00134E"/><stop offset=".664" stop-color="#002564"/><stop offset=".809" stop-color="#003475"/><stop offset="1" stop-color="#006DA9"/></linearGradient><path clip-path="url(#aU)" fill="url(#aV)" d="M92.1 34.4h.8v1.9h-.8z"/></g></g><defs><path id="aW" d="M-177-2.2h147.9V60H-177z"/></defs><clipPath id="aX"><use xlink:href="#aW" overflow="visible"/></clipPath><g clip-path="url(#aX)"><defs><path id="aY" d="M94.6 35.9c-1.1.8-2 2.1-2.4 2.6-.3.3-.5.8-1.2 1.6-1.1 1.2-2.6 1.9-4 1.4-.8-.3-1.3-.9-1.5-1.6 0-.1-.1-.2-.2-.1-.2.3-.7.7-1.1 1 0 0-.1.1-.2.1s-.4-.4-.4-.6c.1.5.1.6.2.8.2.3.3.4.3.4h.2c.3-.2.9-.6 1.1-.9.1-.1.2 0 .2.1.1.3.3.6.4.9.2.3.6.6 1.1.8.6.2 1.3.2 2.2-.1.7-.3 1.5-.8 2.1-1.5.7-.8 1-1.2 1.2-1.6.5-.6 1.2-1.6 2.1-2.4.3-.3.7-.5 1-.4.1-.4.1-.6-.1-.7h-.2c-.1-.2-.5 0-.8.2"/></defs><clipPath id="aZ"><use xlink:href="#aY" overflow="visible"/></clipPath><g clip-path="url(#aZ)"><defs><path id="ba" d="M83.5 35.5h12.4v6.9H83.5z"/></defs><clipPath id="bb"><use xlink:href="#ba" overflow="visible"/></clipPath><linearGradient id="bc" gradientUnits="userSpaceOnUse" x1="-453.606" y1="372.116" x2="-452.494" y2="372.116" gradientTransform="matrix(0 -16.073 -16.073 0 6070.913 -7247.892)"><stop offset="0" stop-color="#00053D"/><stop offset=".209" stop-color="#000941"/><stop offset=".433" stop-color="#00134E"/><stop offset=".664" stop-color="#002564"/><stop offset=".809" stop-color="#003475"/><stop offset="1" stop-color="#006DA9"/></linearGradient><path clip-path="url(#bb)" fill="url(#bc)" d="M83.5 35.5h12.4v6.9H83.5z"/></g></g><defs><path id="bd" d="M-177-2.2h147.9V60H-177z"/></defs><clipPath id="be"><use xlink:href="#bd" overflow="visible"/></clipPath><g clip-path="url(#be)"><defs><path id="bf" d="M76.9 34.9c-.6.3-1.3.8-1.7 1.5-.3.6-.3 1.3.1 2 0 .1.1.1.1.2-.1-.6 0-1.2.2-1.6.4-.7.9-1.1 1.3-1.4.2-.1.3-.3.2-.6 0-.1-.1-.3-.1-.4.1.1 0 .3-.1.3"/></defs><clipPath id="bg"><use xlink:href="#bf" overflow="visible"/></clipPath><g clip-path="url(#bg)"><defs><path id="bh" d="M74.9 34.6h2.4v4h-2.4z"/></defs><clipPath id="bi"><use xlink:href="#bh" overflow="visible"/></clipPath><linearGradient id="bj" gradientUnits="userSpaceOnUse" x1="-453.543" y1="372.315" x2="-452.431" y2="372.315" gradientTransform="matrix(0 -16.181 -16.181 0 6100.419 -7295.534)"><stop offset="0" stop-color="#00053D"/><stop offset=".209" stop-color="#000941"/><stop offset=".433" stop-color="#00134E"/><stop offset=".664" stop-color="#002564"/><stop offset=".809" stop-color="#003475"/><stop offset="1" stop-color="#006DA9"/></linearGradient><path clip-path="url(#bi)" fill="url(#bj)" d="M74.9 34.6h2.4v4h-2.4z"/></g></g><defs><path id="bk" d="M-177-2.2h147.9V60H-177z"/></defs><clipPath id="bl"><use xlink:href="#bk" overflow="visible"/></clipPath><g clip-path="url(#bl)"><defs><path id="bm" d="M81.4 27.8c-1.7.6-2.5 2-2.1 2.9.1.2.2.3.3.4-.1-.8.5-2.2 2.2-2.8 2.2-.7 4.6-.3 6.6.2.3-.2.5-.3.7-.4.1-.1 0-.1-.1-.1-1.6-.3-3.2-.6-4.7-.6-1-.1-1.9 0-2.9.4"/></defs><clipPath id="bn"><use xlink:href="#bm" overflow="visible"/></clipPath><g clip-path="url(#bn)"><defs><path id="bo" d="M78.9 27.3h10.3v3.8H78.9z"/></defs><clipPath id="bp"><use xlink:href="#bo" overflow="visible"/></clipPath><linearGradient id="bq" gradientUnits="userSpaceOnUse" x1="-453.546" y1="372.265" x2="-452.433" y2="372.265" gradientTransform="matrix(0 -16.177 -16.177 0 6106.127 -7293.782)"><stop offset="0" stop-color="#00053D"/><stop offset=".209" stop-color="#000941"/><stop offset=".433" stop-color="#00134E"/><stop offset=".664" stop-color="#002564"/><stop offset=".809" stop-color="#003475"/><stop offset="1" stop-color="#006DA9"/></linearGradient><path clip-path="url(#bp)" fill="url(#bq)" d="M78.9 27.3h10.3v3.8H78.9z"/></g></g><defs><path id="br" d="M-177-2.2h147.9V60H-177z"/></defs><clipPath id="bs"><use xlink:href="#br" overflow="visible"/></clipPath><g clip-path="url(#bs)"><defs><path id="bt" d="M88.7 32.9c-.8 0-2 .2-2.8.3-.2 0-.2.1-.3.1-1.3 2.2-2.7 4.5-4.3 6.1-1.7 1.7-3 2.1-4.5 2.1-1.7 0-3.2-.9-3.6-2.6.2.9.8 2.1 1.5 2.6s1.4.7 2.2.7c1.7 0 3.2-.7 4.8-2.3 1.5-1.6 2.9-3.8 4.2-5.9 0-.1.1-.1.3-.1.8-.1 1.6-.2 2.3-.2h.5c.3.3.6.5.8.6.1 0 .2 0 .3.1.1 0 .2-.1.2-.1.1-.1.1-.2.1-.3 0-.2-.1-.5-.1-.6 0 .1 0 .2-.1.3-.1.1-.1.1-.3.1-.1 0-.2 0-.3-.1-.2-.1-.6-.4-.8-.6-.1-.1-.1-.1-.2-.1l.1-.1"/></defs><clipPath id="bu"><use xlink:href="#bt" overflow="visible"/></clipPath><g clip-path="url(#bu)"><defs><path id="bv" d="M73.2 32.9h17.2v9.3H73.2z"/></defs><clipPath id="bw"><use xlink:href="#bv" overflow="visible"/></clipPath><linearGradient id="bx" gradientUnits="userSpaceOnUse" x1="-453.543" y1="372.278" x2="-452.431" y2="372.278" gradientTransform="matrix(0 -16.181 -16.181 0 6105.635 -7295.629)"><stop offset="0" stop-color="#00053D"/><stop offset=".209" stop-color="#000941"/><stop offset=".433" stop-color="#00134E"/><stop offset=".664" stop-color="#002564"/><stop offset=".809" stop-color="#003475"/><stop offset="1" stop-color="#006DA9"/></linearGradient><path clip-path="url(#bw)" fill="url(#bx)" d="M73.2 32.9h17.2v9.3H73.2z"/></g></g><defs><path id="by" d="M-177-2.2h147.9V60H-177z"/></defs><clipPath id="bz"><use xlink:href="#by" overflow="visible"/></clipPath><g clip-path="url(#bz)"><defs><path id="bA" d="M81.5 34.2c-.2.1-.4.1-.6-.1 0-.1-.1-.1-.1-.2 0 .3.1.7.2.8.1.2.4.2.6.1.5-.4 1-.6 1.5-.7.1-.2.3-.4.4-.6v-.1h-.1c-.6.1-1.3.3-1.9.8"/></defs><clipPath id="bB"><use xlink:href="#bA" overflow="visible"/></clipPath><g clip-path="url(#bB)"><defs><path id="bC" d="M80.9 33.5h2.7V35h-2.7z"/></defs><clipPath id="bD"><use xlink:href="#bC" overflow="visible"/></clipPath><linearGradient id="bE" gradientUnits="userSpaceOnUse" x1="-453.546" y1="372.27" x2="-452.434" y2="372.27" gradientTransform="matrix(0 -16.176 -16.176 0 6103.973 -7293.293)"><stop offset="0" stop-color="#00053D"/><stop offset=".209" stop-color="#000941"/><stop offset=".433" stop-color="#00134E"/><stop offset=".664" stop-color="#002564"/><stop offset=".809" stop-color="#003475"/><stop offset="1" stop-color="#006DA9"/></linearGradient><path clip-path="url(#bD)" fill="url(#bE)" d="M80.9 33.5h2.7V35h-2.7z"/></g></g><defs><path id="bF" d="M-177-2.2h147.9V60H-177z"/></defs><clipPath id="bG"><use xlink:href="#bF" overflow="visible"/></clipPath><g clip-path="url(#bG)"><defs><path id="bH" d="M102.6 27.3"/></defs><clipPath id="bI"><use xlink:href="#bH" overflow="visible"/></clipPath><g clip-path="url(#bI)"><clipPath><use xlink:href="#SVGID_140_" overflow="visible"/></clipPath><linearGradient gradientUnits="userSpaceOnUse" x1="-453.324" y1="372.542" x2="-452.212" y2="372.542" gradientTransform="matrix(0 -16.572 -16.572 0 6276.326 -7468.96)"><stop offset="0" stop-color="#00053D"/><stop offset=".209" stop-color="#000941"/><stop offset=".433" stop-color="#00134E"/><stop offset=".664" stop-color="#002564"/><stop offset=".809" stop-color="#003475"/><stop offset="1" stop-color="#006DA9"/></linearGradient></g></g><defs><path id="bJ" d="M-177-2.2h147.9V60H-177z"/></defs><clipPath id="bK"><use xlink:href="#bJ" overflow="visible"/></clipPath><g clip-path="url(#bK)"><defs><path id="bL" d="M102.6 27.6c0 .5-.4.9-1.3 1.4-1 .6-2.1.7-3.3.8-2.8 0-5.3-1.1-8-1.6 0 .1 0 .3-.1.3-1.5 1.1-2.8 2.2-3.7 3.7v.1h.7c.8-1.3 1.7-2 3-3 .1-.1.2-.1.2-.4 2.7.6 4.7 1.6 8.2 1.6 1 0 2.5-.3 3.3-.8.9-.5 1.1-.9 1.2-1.4v-.4c0-.1-.1-.3-.1-.5-.1.1-.1.1-.1.2"/></defs><clipPath id="bM"><use xlink:href="#bL" overflow="visible"/></clipPath><g clip-path="url(#bM)"><defs><path id="bN" d="M86.2 27.4h16.5v4.9H86.2z"/></defs><clipPath id="bO"><use xlink:href="#bN" overflow="visible"/></clipPath><linearGradient id="bP" gradientUnits="userSpaceOnUse" x1="-453.544" y1="372.198" x2="-452.432" y2="372.198" gradientTransform="matrix(0 -16.18 -16.18 0 6116.651 -7295.195)"><stop offset="0" stop-color="#00053D"/><stop offset=".209" stop-color="#000941"/><stop offset=".433" stop-color="#00134E"/><stop offset=".664" stop-color="#002564"/><stop offset=".809" stop-color="#003475"/><stop offset="1" stop-color="#006DA9"/></linearGradient><path clip-path="url(#bO)" fill="url(#bP)" d="M86.2 27.4h16.5v4.9H86.2z"/></g></g><defs><path id="bQ" d="M-177-2.2h147.9V60H-177z"/></defs><clipPath id="bR"><use xlink:href="#bQ" overflow="visible"/></clipPath><g clip-path="url(#bR)"><defs><path id="bS" d="M89.8 30.9l-.1.1c-.3.3-.3.6-.3.9 0 .1.1.1.1.1h.2c0-.2.1-.3.2-.4.1-.1.2-.1.4-.1.1-.2.1-.4 0-.6-.1 0-.1-.1-.2-.1-.2 0-.3 0-.3.1"/></defs><clipPath id="bT"><use xlink:href="#bS" overflow="visible"/></clipPath><g clip-path="url(#bT)"><defs><path id="bU" d="M89.3 30.8h1V32h-1z"/></defs><clipPath id="bV"><use xlink:href="#bU" overflow="visible"/></clipPath><linearGradient id="bW" gradientUnits="userSpaceOnUse" x1="-454.099" y1="371.236" x2="-452.987" y2="371.236" gradientTransform="matrix(0 -15.27 -15.27 0 5758.412 -6891.345)"><stop offset="0" stop-color="#00053D"/><stop offset=".209" stop-color="#000941"/><stop offset=".433" stop-color="#00134E"/><stop offset=".664" stop-color="#002564"/><stop offset=".809" stop-color="#003475"/><stop offset="1" stop-color="#006DA9"/></linearGradient><path clip-path="url(#bV)" fill="url(#bW)" d="M89.3 30.8h1V32h-1z"/></g></g><defs><path id="bX" d="M-177-2.2h147.9V60H-177z"/></defs><clipPath id="bY"><use xlink:href="#bX" overflow="visible"/></clipPath><g clip-path="url(#bY)"><defs><path id="bZ" d="M90.8 31.8c-.3.5-.7.7-1.1.9 0 0-.1 0-.1.1s.3.3.5.4h.1c.2-.1.5-.3.7-.7.1-.3.2-.5.1-1 0-.3-.1-.6-.2-.8.3.3.2.7 0 1.1"/></defs><clipPath id="ca"><use xlink:href="#bZ" overflow="visible"/></clipPath><g clip-path="url(#ca)"><defs><path id="cb" d="M89.7 30.6h1.5v2.5h-1.5z"/></defs><clipPath id="cc"><use xlink:href="#cb" overflow="visible"/></clipPath><linearGradient id="cd" gradientUnits="userSpaceOnUse" x1="-453.544" y1="372.222" x2="-452.432" y2="372.222" gradientTransform="matrix(0 -16.18 -16.18 0 6112.864 -7295.074)"><stop offset="0" stop-color="#00053D"/><stop offset=".209" stop-color="#000941"/><stop offset=".433" stop-color="#00134E"/><stop offset=".664" stop-color="#002564"/><stop offset=".809" stop-color="#003475"/><stop offset="1" stop-color="#006DA9"/></linearGradient><path clip-path="url(#cc)" fill="url(#cd)" d="M89.7 30.6h1.5v2.5h-1.5z"/></g></g><defs><path id="ce" d="M-177-2.2h147.9V60H-177z"/></defs><clipPath id="cf"><use xlink:href="#ce" overflow="visible"/></clipPath><g clip-path="url(#cf)"><defs><path id="cg" d="M83.4 30.1c-.7 1.7-2.1 3.1-3.8 3.1-1 0-1.8-.5-2.2-1.3.3.6.8 1.1 1.3 1.4.4.2.8.4 1.3.3 1.8-.1 3.1-1.5 3.6-2.8.1-.3 0-.7 0-.9 0-.1-.1-.3-.1-.5 0 .3 0 .4-.1.7"/></defs><clipPath id="ch"><use xlink:href="#cg" overflow="visible"/></clipPath><g clip-path="url(#ch)"><defs><path id="ci" d="M77.4 29.5h6.3v4.2h-6.3z"/></defs><clipPath id="cj"><use xlink:href="#ci" overflow="visible"/></clipPath><linearGradient id="ck" gradientUnits="userSpaceOnUse" x1="-453.546" y1="372.278" x2="-452.434" y2="372.278" gradientTransform="matrix(0 -16.175 -16.175 0 6102.339 -7293.185)"><stop offset="0" stop-color="#00053D"/><stop offset=".209" stop-color="#000941"/><stop offset=".433" stop-color="#00134E"/><stop offset=".664" stop-color="#002564"/><stop offset=".809" stop-color="#003475"/><stop offset="1" stop-color="#006DA9"/></linearGradient><path clip-path="url(#cj)" fill="url(#ck)" d="M77.4 29.5h6.3v4.2h-6.3z"/></g></g><defs><path id="cl" d="M-177-2.2h147.9V60H-177z"/></defs><clipPath id="cm"><use xlink:href="#cl" overflow="visible"/></clipPath><path clip-path="url(#cm)" fill="#58595B" d="M92.8 21.9c-18.7 0-33.7 5.6-33.7 12.6s15.1 12.6 33.7 12.6 33.7-5.7 33.7-12.6c0-6.9-15.1-12.6-33.7-12.6M59.3 34.7c0-1.5.6-2.9 2-4.3 4.8-4.9 17.5-8.2 31.4-8.2 18.4-.1 33.5 5.4 33.5 12.3 0 1.5-.7 2.9-2.1 4.3-4.8 4.9-17.4 8.2-31.3 8.2-18.4.1-33.5-5.4-33.5-12.3m67-1.1v.2-.2"/><defs><path id="cn" d="M-177-2.2h147.9V60H-177z"/></defs><clipPath id="co"><use xlink:href="#cn" overflow="visible"/></clipPath><g clip-path="url(#co)"><defs><path id="cp" d="M59.2 34.6c0 .3 0 .7.1 1-.1-.3-.1-.6-.1-.8 0-1.5.7-3 2-4.4 4.8-4.9 17.5-8.2 31.5-8.2 1.9 0 3.8 0 5.7.2-1.8-.1-3.7-.2-5.6-.2-18.6-.1-33.6 5.4-33.6 12.4"/></defs><clipPath id="cq"><use xlink:href="#cp" overflow="visible"/></clipPath><g clip-path="url(#cq)"><defs><path id="cr" d="M95.79 12.246l6.005 22.41-39.988 10.713-6.004-22.41z"/></defs><clipPath id="cs"><use xlink:href="#cr" overflow="visible"/></clipPath><linearGradient id="ct" gradientUnits="userSpaceOnUse" x1="-452.187" y1="380.715" x2="-451.075" y2="380.715" gradientTransform="matrix(-6.998 -26.118 -26.118 6.998 6864.227 -14421.149)"><stop offset="0" stop-color="#B1B3B6"/><stop offset=".35" stop-color="#DCDDDE"/><stop offset=".65" stop-color="#DCDDDE"/><stop offset="1" stop-color="#B1B3B6"/></linearGradient><path clip-path="url(#cs)" fill="url(#ct)" d="M58.9 56.8L47.5 14.5 98.7.8 110 43.1z"/></g></g><defs><path id="cu" d="M-177-2.2h147.9V60H-177z"/></defs><clipPath id="cv"><use xlink:href="#cu" overflow="visible"/></clipPath><g clip-path="url(#cv)"><defs><path id="cw" d="M126.3 34.4c0 1.5-.7 3-2.1 4.4-4.8 4.9-17.5 8.2-31.4 8.3-2 0-3.9 0-5.8-.2 1.9.1 3.8.2 5.7.2 18.5 0 33.6-5.7 33.6-12.5 0-.3 0-.5-.1-.8.1.2.1.4.1.6"/></defs><clipPath id="cx"><use xlink:href="#cw" overflow="visible"/></clipPath><g clip-path="url(#cx)"><defs><path id="cy" d="M123.768 23.966l5.952 22.216-39.988 10.714L83.78 34.68z"/></defs><clipPath id="cz"><use xlink:href="#cy" overflow="visible"/></clipPath><linearGradient id="cA" gradientUnits="userSpaceOnUse" x1="-452.187" y1="380.586" x2="-451.074" y2="380.586" gradientTransform="matrix(-6.966 -25.997 -25.997 6.966 6849.961 -14368.998)"><stop offset="0" stop-color="#B1B3B6"/><stop offset=".35" stop-color="#DCDDDE"/><stop offset=".65" stop-color="#DCDDDE"/><stop offset="1" stop-color="#B1B3B6"/></linearGradient><path clip-path="url(#cz)" fill="url(#cA)" d="M86.8 68.4L75.5 26.2l51.1-13.7 11.3 42.2z"/></g></g><defs><path id="cB" d="M-177-2.2h147.9V60H-177z"/></defs><clipPath id="cC"><use xlink:href="#cB" overflow="visible"/></clipPath><g clip-path="url(#cC)"><defs><path id="cD" d="M62.1 34.6c0-5.6 13.7-10.1 30.7-10.1 16.9 0 30.7 4.5 30.7 10.1s-13.7 10.1-30.7 10.1-30.7-4.5-30.7-10.1m-1.1 0c0 6.1 14.2 11.1 31.8 11.1s31.8-5 31.8-11.1-14.2-11.1-31.8-11.1S61 28.5 61 34.6"/></defs><clipPath id="cE"><use xlink:href="#cD" overflow="visible"/></clipPath><g clip-path="url(#cE)"><defs><path id="cF" d="M61 23.5h63.6v22.1H61z"/></defs><clipPath id="cG"><use xlink:href="#cF" overflow="visible"/></clipPath><linearGradient id="cH" gradientUnits="userSpaceOnUse" x1="-437.707" y1="400.423" x2="-436.594" y2="400.423" gradientTransform="matrix(0 23.205 23.205 0 -9199.048 10178.632)"><stop offset="0" stop-color="#fff"/><stop offset=".512" stop-color="#FDFDFD"/><stop offset=".691" stop-color="#F8F8F8"/><stop offset=".8" stop-color="#D1D3D4"/><stop offset="1" stop-color="#BCBEC0"/></linearGradient><path clip-path="url(#cG)" fill="url(#cH)" d="M61 23.5h63.6v22.1H61z"/></g></g><defs><path id="cI" d="M-177-2.2h147.9V60H-177z"/></defs><clipPath id="cJ"><use xlink:href="#cI" overflow="visible"/></clipPath><g clip-path="url(#cJ)"><defs><path id="cK" d="M102.9 40.1c-.3-.1-.4-.5-.4-.8 0-.8.4-1.6 1-2.5.8-1 1.7-1.5 2.3-1.2.6.3.4 1 .1 1.5v.1c0 .1.1.1.2.1v.1c-.2.4-.4.7-.7 1.1-.2.4-.5.6-.8.9-.4.3-.9.7-1.4.7 0 .1-.1 0-.3 0m7.9-9.3c-.1 0-.2 0-.3.1-.2.4-2.6 3.9-3 4.6-.1.1-.2.1-.2 0 0-.4-.4-.9-1-1.1-.4-.2-.8-.2-1.3-.1-.8.1-1.5.5-2.1 1-.9.7-1.7 1.6-2.7 2.3-.6.4-1.3.7-1.8.2-.5-.4-.4-1.4.3-2.1.1-.1.2 0 .1.1-.1.3 0 .7.3.9.3.3.8.3 1.1.1.4-.2.7-.7.8-1.1.1-.8-.5-1.4-1.2-1.5-.6 0-1.2.2-1.7.6-.3.2-.4.4-.7.7-.1.1-.1.1-.1 0 0-1-.4-1.5-1.2-1.5-.6 0-1.3.3-1.8.7-.6.5-1.1 1.1-1.6 1.6-.1.1-.1.1-.1-.1 0-.6-.2-1.3-.5-1.7-.1-.2-.3-.2-.5-.1-.1 0-.4.2-.6.4-.1.1-.2.2-.1.4.3 1 .2 2-.2 3-.4.8-1.1 1.6-1.9 1.9-.5.2-1.1.1-1.4-.4-.5-.7-.3-1.8.4-2.8.6-.8 1.5-1.4 2.4-1.7.1 0 .1-.1.1-.2-.1-.1-.1-.3-.2-.4-.1-.2-.3-.3-.6-.2-.7.1-1.2.3-1.8.6-1.5.8-2.3 2.4-2.6 3.2-.2.4-.3.7-.5.9-.2.3-.5.6-1.1 1.1 0 0-.1.1 0 .2s.3.5.4.6c.1 0 .2 0 .2-.1.4-.3.9-.7 1.1-1 .1-.1.2-.1.2.1.2.8.8 1.4 1.5 1.6 1.4.5 2.9-.2 4-1.4.7-.8.9-1.2 1.2-1.6.5-.6 1.3-1.8 2.4-2.6.4-.3.9-.5 1.1-.4.2.1.2.4-.1.9-1.1 2-2.7 4.3-3 4.9-.1.1 0 .2.1.2h1.6c.1 0 .1 0 .2-.1.8-1.3 1.6-2.5 2.5-3.8 0-.1.1 0 .1 0 0 .3.1.7.3 1 .3.5.8.7 1.3.7.4 0 .6-.1 1-.2.3-.1.6-.3.8-.5.1-.1.1.1.1.1-.2 1 0 2.3 1.1 2.8 1.2.6 2.6-.2 3.4-1 .1-.1.2-.1.2.1 0 .3.2.6.4.9.7.7 2 .4 3.3-.6.8-.7 1.7-1.6 2.5-2.6 0 0 .1-.1 0-.2l-.4-.4h-.2c-.8.8-1.6 1.7-2.6 2.4-.4.3-.9.5-1.2.1-.1-.1-.1-.3 0-.6.3-.8 5.2-8.3 5.5-8.7 0-.1 0-.1-.1-.1-.4-.1-1.1-.1-1.6-.1"/></defs><clipPath id="cL"><use xlink:href="#cK" overflow="visible"/></clipPath><g clip-path="url(#cL)"><defs><path id="cM" d="M83.5 30.8h29.1v11.3H83.5z"/></defs><clipPath id="cN"><use xlink:href="#cM" overflow="visible"/></clipPath><linearGradient id="cO" gradientUnits="userSpaceOnUse" x1="-431.077" y1="412.251" x2="-429.965" y2="412.251" gradientTransform="matrix(0 11.508 11.508 0 -4645.967 4990.553)"><stop offset="0" stop-color="#fff"/><stop offset=".398" stop-color="#FDFDFD"/><stop offset=".581" stop-color="#F5F5F6"/><stop offset=".691" stop-color="#ECECED"/><stop offset=".8" stop-color="#E6E7E8"/><stop offset="1" stop-color="#D1D3D4"/></linearGradient><path clip-path="url(#cN)" fill="url(#cO)" d="M83.5 30.8h29.1v11.3H83.5z"/></g></g><defs><path id="cP" d="M-177-2.2h147.9V60H-177z"/></defs><clipPath id="cQ"><use xlink:href="#cP" overflow="visible"/></clipPath><g clip-path="url(#cQ)"><defs><path id="cR" d="M89.4 31.9c0-.3.1-.7.4-1 .2-.1.4-.2.5-.1.1.1.1.4-.1.7-.2.2-.4.4-.7.5-.1 0-.1 0-.1-.1m-6.3-5.6c-3 .3-5.9 2-5.9 4.6 0 1.3.9 2.4 2.4 2.3 1.7-.1 3.1-1.4 3.8-3.1.3-.7-.2-.9-.5-.5-.4.7-1.1 1.2-1.7 1.5-.8.4-1.7.3-1.9-.4-.4-.9.4-2.3 2.1-2.9 2.5-.9 5.1-.3 7.6.2 0 0 .2.1.1.1-.5.2-.9.4-1.6 1-.5.4-1.1 1-1.6 1.6-.5.6-.9 1.1-1.3 1.7l-.1.1c-1.1.2-2.3.3-3.3 1-.2.1-.3.4-.2.6.1.2.4.2.6.1.6-.5 1.3-.7 2-.7h.1v.1c-1.1 1.6-1.4 1.9-2.2 2.9-.4.5-.9.9-1.3 1.3-1.9 1.8-4 1.7-4.7.6-.4-.7-.4-1.4-.1-2 .4-.7 1.1-1.2 1.7-1.5.2-.1.3-.4.1-.7-.1-.2-.5-.2-.7-.2-.8.1-1.7.7-2.3 1.5-.6.8-.9 1.8-.8 2.9.2 2 1.8 3.1 3.6 3.1 1.5 0 2.8-.5 4.5-2.1 1.5-1.6 3-3.9 4.3-6.1 0-.1.1-.1.3-.1.8-.1 2.1-.2 2.8-.3.2 0 .2 0 .3.1.2.3.5.5.8.6.1.1.2.1.3.1.1 0 .2-.1.3-.1.1-.1.1-.2.1-.3 0-.1-.6-.4-.6-.5 0-.1.1-.1.1-.1.4-.1.8-.4 1.1-.9.2-.5.3-1.1-.2-1.5-.4-.3-1-.3-1.5.2-.5.4-.6 1-.6 1.6 0 .1 0 .1-.1.1-.7.1-1.4.1-2.2.1-.1 0-.1 0 0-.1.9-1.6 2.2-2.7 3.7-3.7.1-.1.1-.2.1-.3 2.7.6 5.2 1.7 8 1.6 1.1 0 2.2-.2 3.3-.8.9-.5 1.3-1 1.3-1.4 0-.3-.2-.5-.5-.5-2.8.6-5.5.6-8.2.3-3.2-.4-6.2-1.2-9.3-1.2-1 .1-1.5.1-2 .1"/></defs><clipPath id="cS"><use xlink:href="#cR" overflow="visible"/></clipPath><g clip-path="url(#cS)"><defs><path id="cT" d="M73 26.3h29.6v15.3H73z"/></defs><clipPath id="cU"><use xlink:href="#cT" overflow="visible"/></clipPath><linearGradient id="cV" gradientUnits="userSpaceOnUse" x1="-434.757" y1="405.651" x2="-433.645" y2="405.651" gradientTransform="matrix(0 15.96 15.96 0 -6386.534 6963.941)"><stop offset="0" stop-color="#fff"/><stop offset=".398" stop-color="#FDFDFD"/><stop offset=".581" stop-color="#F5F5F6"/><stop offset=".691" stop-color="#ECECED"/><stop offset=".8" stop-color="#E6E7E8"/><stop offset="1" stop-color="#D1D3D4"/></linearGradient><path clip-path="url(#cU)" fill="url(#cV)" d="M73 26.3h29.6v15.3H73z"/></g></g><defs><path id="cW" d="M-175.8-2.2h147.9V60h-147.9z"/></defs><clipPath id="cX"><use xlink:href="#cW" overflow="visible"/></clipPath><path clip-path="url(#cX)" fill="#AF1F24" d="M13 35.9c4.5 0 8.1-3.6 8.1-8.1s-3.6-8.1-8.1-8.1-8.1 3.6-8.1 8.1 3.6 8.1 8.1 8.1m0 7.7c8.7 0 15.7-7 15.7-15.7s-7-15.7-15.7-15.7-15.7 7-15.7 15.7S4.4 43.6 13 43.6M-10.6 28C-10.6 14.9 0 4.4 13 4.4 26 4.4 36.6 15 36.6 28 36.6 41 26 51.5 13 51.5 0 51.5-10.6 41-10.6 28"/><path clip-path="url(#cX)" fill-rule="evenodd" clip-rule="evenodd" fill="#AF1F24" d="M27.9 49.3v-.7h.5c.2 0 .5.1.5.3 0 .4-.3.4-.6.4h-.4m0 .3h.4l.6 1h.4l-.7-1c.3 0 .6-.2.6-.6 0-.5-.3-.7-.8-.7h-.9v2.4h.4v-1.1zm-1.2-.2c0-1 .7-1.7 1.7-1.7.9 0 1.7.7 1.7 1.7s-.7 1.7-1.7 1.7-1.7-.7-1.7-1.7m1.6 2.1c1.1 0 2.1-.9 2.1-2 0-1.2-.9-2-2.1-2-1.1 0-2.1.9-2.1 2 .1 1.1 1 2 2.1 2"/><defs><path id="cY" d="M-177-2.2h147.9V60H-177z"/></defs><clipPath><use xlink:href="#cY" overflow="visible"/></clipPath><defs><path id="cZ" d="M-177-2.2h147.9V60H-177z"/></defs><clipPath><use xlink:href="#cZ" overflow="visible"/></clipPath><defs><path id="da" d="M206.2 113.8h52.2v72.9h-52.2z"/></defs><clipPath id="db"><use xlink:href="#da" overflow="visible"/></clipPath><path clip-path="url(#db)" fill="#E41E2B" d="M-7.8 78.1c-3.9-2.7-8.7-4-13-3.8-4.4.2-6.3 3.4-6.3 3.4-2-3.4-5.9-5.5-11.9-5.5-9.7.1-19.4 4.6-27 4.6-7.3 0-12.7-4.6-12.5-12.8.3-14.2 12.4-27.1 21.5-33 5.2-3.3 9.6-4.3 12.4-4 2.1.2 4.6 2.6 3 6.2-2.3 5.2-5.5 4.8-5.4 2.3.1-1.6 1.1-2.6 1.9-3.2.5-.4 1.4-.5 1.9-.5.5-.4.8-3.2-2.9-2.3-3.7.9-8.2 4.6-12.5 9.3-4.3 4.7-10.9 13.7-12.6 23.1-.8 4.4-.3 12.3 10.1 12.2 8.7-.1 21.7-5.8 33.5-5.7 4.6 0 8.6 1.3 11.7 3.2 3.1 1.9 6.8 4.7 8.1 6.5m2.8-26h1.8s-9 13-14.1 12.4c-2.8-.3-2-3.8-2-3.8s-4 4.7-7.6 3.7c-3.3-.8-1.2-6.4-1.2-6.4-.4.2-7.6 8.2-12.6 6.3-5.3-2-2.5-8.8-1.5-10.8.8-1.7 1.8-3.4 1.8-3.4s-.8.2-1.3.3c-.5.1-1.3.3-1.3.3s-2.5 4.1-4 6.1-8 9-11.8 7.6c-3.8-1.4-2.9-6.7-.7-11C-56 46.5-47.8 38-42.8 39.3c5 1.3.9 9.4.9 9.4s1 .1 3.4-1.5c3.5-2.4 8-8.7 12.9-7.9 2.3.3 4.5 2.7 1.5 7.2-.9 1.4-2.5 2.7-3.7 1.5-.8-.8-.1-2.2.7-3.2 1.1-1.4 2.7-1.2 2.7-1.2s.8-1.9-1.3-1.8c-1.7 0-5.9 3.9-8.3 7.9-2.2 3.6-5.5 9.8-2.2 11.2 3.1 1.2 8.9-5.7 11.6-9.3 2.7-3.6 8.8-11.9 14-12.2 1.8-.1 2.8 1.5 2.8 1.5l.6-.9H-2s-9.7 16.2-10.5 17.5c-.6 1-1.4 3.1.8 1.9C-9.6 58-5 52.1-5 52.1m-40-1.6c-.1 0-1.4-.4-2.7-1.2-1.3-.8-1.9-2-1.9-2.1 0-.1-.1 0-.1.1-.1.1-.3.4-2.2 3.1-1.8 2.7-4.6 8.2-2 9.2 1.6.6 4.4-2.3 5.9-4.2 1.4-1.8 3-4.5 3.1-4.6.1-.2 0-.3-.1-.3m2-8.6c-1.4-1-4.8 1.4-4.8 3.8 0 2.5 3.1 3.2 3.5 3.2 0 0 .4.1.5-.2.1-.2.5-1 1-2.2.5-1.2 1.1-3.7-.2-4.6m26.3 13.5c2.1-2.9 7.8-12.9 7.8-12.9s-.1-.7-.8-.7c-.8 0-2.1.2-4.8 3.5-2.6 3.3-4.7 5.9-6.2 8.7-1.6 3-2.3 5.1-1.4 5.7.3.2.7.2 1 .1.6-.2 1.4-.8 2.5-2 .7-.7 1.2-1.5 1.9-2.4M6.5 39.9H1.6l-2.8 4.5h4.9l2.8-4.5zm64.3 33.8c-.4 0-.7.1-1 .4-.3.3-.4.6-.4 1s.1.7.4 1c.3.3.6.4 1 .4s.7-.1 1-.4c.3-.3.4-.6.4-1s-.1-.7-.4-1c-.2-.3-.6-.4-1-.4m1.7 1.4c0 .5-.2.9-.5 1.2-.3.3-.7.5-1.2.5s-.9-.2-1.2-.5c-.3-.3-.5-.7-.5-1.2s.2-.9.5-1.2c.3-.3.7-.5 1.2-.5s.9.2 1.2.5c.4.3.5.7.5 1.2m-1.2-.4c0-.1 0-.2-.1-.3-.1 0-.2-.1-.4-.1h-.3v.7h.6c.1 0 .2-.1.2-.3m-1.1-.5h.6c.2 0 .4 0 .5.1.2.1.3.2.3.5 0 .2-.1.3-.2.4-.1 0-.2.1-.3.1.1 0 .3.1.3.2.1.1.1.2.1.3V76.1h-.3v-.2c0-.2-.1-.4-.2-.4s-.2-.1-.4-.1h-.3v.6H70v-1.8zm8.6-42.4c-3.6 2.3-8.6 4.4-13.5 4-1.2 1.3-2.5 2.7-3.8 4.3 8.4 1.6 15.7-3.5 19.6-7.9 2.4-2.8 3.6-5.2 3.6-5.2s-2.3 2.5-5.9 4.8m-14.4 38c-.7 1.1-1.5 3.2.8 1.9 2.8-1.6 6.8-7.6 6.8-7.6h1.8s-2.4 3.7-5.5 7.2c-2.8 3.1-6.3 6-8.7 5.7-2.8-.3-1.9-4.1-1.9-4.1s-4.1 4.3-6.9 4c-3.8-.4-2.6-5.1-2.6-5.1s-4.3 5.3-7.2 5.1c-4.6-.3-3.4-5.9-2.2-9.8.7-2.1 1.3-3.7 1.3-3.7s-.5.1-1.4.3c-.5.1-1.4.1-1.4.1s-1.9 3.4-3.4 5.4c-1.5 2-8 9-11.8 7.6-3.5-1.3-2.4-6.7-.3-11 3-6.3 11.4-15.3 16.3-14.1 5 1.2.1 10.4.1 10.4l.1.1c.1 0 .4.1 1-.1 1-.2 1.8-.6 1.8-.6S46.1 51 51.6 44c5.6-6.9 16.8-18.9 21.1-16 1.1.7.6 3.2-.9 6.1-.6.2-1.3.4-2 .5 1-1.8 1.6-3.2 1.8-4.3.7-3.6-7.7 4-13.7 12.1-6 8.1-9.6 15.5-9.6 15.5s1.2-.7 3.1-2.2c2-1.6 4.7-4.1 7.6-7.1 2-2 4.3-4.6 6.5-7.5.6 0 1.3-.1 1.9-.2-2.4 3.3-5 6.2-7.1 8.4-2.4 2.4-5 5-7.2 6.9-3.6 3-6.3 4.7-6.3 4.7s-5.2 10.5-2.4 11.2c1.7.4 5-4.7 5-4.7s4.3-6.6 6.9-9.5c3.5-4 6.6-6.4 9.6-6.4 1.8 0 2.8 1.9 2.8 1.9l.8-1.3h5.2c.1.2-9.5 16.5-10.3 17.7m-28.9-6.4c-.1 0-1.2-.5-2.4-1.5s-1.7-2.1-1.8-2.2c0-.1-.1 0-.1.1-.1.1-.3.3-2.1 3-1.9 2.6-4.7 8.2-2.1 9.2 1.6.6 4.4-2.3 5.8-4.2 1.4-1.8 2.7-4 2.7-4.2.1-.1.1-.2 0-.2m2.6-4.6c.5-1.2 1.1-3.7-.2-4.6-1.3-1-4.8 1.4-4.8 3.8 0 2.5 2.4 3.6 3 3.8.3.1.5.1.6-.2.1-.2.9-1.5 1.4-2.8m29.6-3.4c.1-.2.2-.3.2-.3s-.1-.7-.8-.7c-.8 0-1.9.1-4.7 3.3-2.8 3.1-4.6 5.9-6 8.6-1.6 3-2.3 5.2-1.4 5.8.3.2.7.2 1 .1.6-.2 1.4-.7 2.5-2 .5-.6 1.1-1.4 1.8-2.4 1.7-2.7 6.4-10.8 7.4-12.4m11.1-23.6c-3.6 2.3-8.6 4.4-13.5 4-1.2 1.3-2.5 2.7-3.8 4.3 8.4 1.6 15.7-3.5 19.6-7.9 2.4-2.8 3.6-5.2 3.6-5.2s-2.3 2.5-5.9 4.8m-23.5 6.1c-4-2-6.8-4.5-9.8-6-2.9-1.5-4.7-2.1-7-1.8-.4.1-1 .2-1 .2s1.2 4.1-3.6 10.9c-4.8 6.9-9.2 6.9-10.4 5-1.3-2 .4-6.1 3.2-9.8 2.9-3.8 8.1-7 8.1-7s-1.6-1-5.7 1.3c-3.9 2.2-10.7 7.5-17 16.5-6.3 9-7.5 13.9-8.4 17.8-.9 3.9-.1 8 4.2 8s9.3-6.6 10.7-8.8c2.6-4.2 4.3-10.8.8-9.9-1.8.4-3.2 2.4-4.1 4.3-.9 1.9-1.3 3.8-1.3 3.8s-1.5.5-3.5 2-3.3 2.9-3.3 2.9 0-3.1 2.5-8.1 7-7.3 9.6-7.5c2.3-.2 5.3 1.8 2.8 9C19.4 68 11.9 76.8 4 76.9c-7.3.1-12.1-9.2-1.9-25.5 11.2-18 24.4-23.5 28.7-24.1 4.3-.6 5.7 1.3 5.7 1.3s3.6-1.7 8.1-1.4c5.2.4 9.3 4.1 14.6 6.6-1.4 1.4-2.7 2.8-3.9 4.1m-19.5-7s-3.1 1.2-6.6 5.1c-3.6 3.9-5.6 8.3-4.1 9.5.6.4 1.9.5 4.4-1.7 1.9-1.7 3.9-4 5.2-7.2 1.6-3.9 1.1-5.7 1.1-5.7"/><defs><path id="dc" d="M206.2 113.8h52.2v72.9h-52.2z"/></defs><clipPath id="dd"><use xlink:href="#dc" overflow="visible"/></clipPath><path clip-path="url(#dd)" fill="#AF1F24" d="M160.3 69.4c6.2 0 11.2-5 11.2-11.2 0-6.2-5-11.2-11.2-11.2-6.2 0-11.2 5-11.2 11.2 0 6.2 5 11.2 11.2 11.2m0 10.6c11.9 0 21.5-9.6 21.5-21.5S172.2 37 160.3 37s-21.5 9.6-21.5 21.5c0 11.8 9.6 21.5 21.5 21.5m-32.4-21.5c0-17.9 14.5-32.4 32.4-32.4s32.4 14.5 32.4 32.4-14.5 32.4-32.4 32.4c-17.9-.1-32.4-14.6-32.4-32.4"/><defs><path id="de" d="M8.4 133h119.4v34.4H8.4z"/></defs><clipPath id="df"><use xlink:href="#de" overflow="visible"/></clipPath><path clip-path="url(#df)" fill="#fff" d="M133.4-3.7h-23c-.6 1.1-13.6 23.7-5 46 .5 1.1 1 2.3 1.6 3.5 0 0 20.3-9.9 25.6-43.1.7-3.7.8-6.4.8-6.4"/><path clip-path="url(#df)" fill="none" stroke="#fff" stroke-width="2.894" d="M133.4-3.7h-23c-.6 1.1-13.6 23.7-5 46 .5 1.1 1 2.3 1.6 3.5 0 0 20.3-9.9 25.6-43.1.7-3.7.8-6.4.8-6.4z"/><path clip-path="url(#df)" fill="#006BB6" d="M123.5-1.9h2c1.3 0 2.3.6 2.1 1.3-.1.5-.6.9-1.2 1.2.5.2 1 .5.8 1.2-.2.8-1.7 1.4-3.2 1.4h-1.8l1.3-5.1zm1.9 3.5c.1-.4-.3-.6-.6-.6h-.2l-.3 1.2h.2c.3 0 .8-.1.9-.6m.4-2c.1-.4-.4-.5-.6-.5h-.1l-.3 1.1h.1c.3-.1.8-.2.9-.6"/><path clip-path="url(#df)" fill="#006BB6" d="M115.5-1.9l-.3.8c-.4 1.1-1 2.2-1 2.2s-.1-1.5.1-2.9h-1.8c-.5 1.5-1.4 2.9-1.4 2.9s0-1.1.1-2.2l.1-.8h-1.8c-.4 2.1.3 5.1.3 5.1h1.6c.5-.9 1.2-2.2 1.5-2.7v.2c0 .4 0 1.6.1 2.6h1.6s2.1-2.9 2.8-5.1l-1.9-.1zM127.1 3.2h1.9c.1-.4.3-.7.4-1.1h1.4c0 .3 0 .7-.1 1.1h1.9l.1-.8c0-2.4-.9-4.3-.9-4.3h-1.4c-2.9 3.1-3.3 5.1-3.3 5.1m2.7-2c.3-.6.6-1.1.7-1.2 0 .2.1.7.1 1.3h-.8z"/><path clip-path="url(#df)" fill="#ED174C" d="M122 3.9c.1 0 .2.1.2.1.3.2.9.7.9 1 0 .1-.1.2-.2.3V6c0 .3-.2.5-.2.5s.2.4.1.6c0 .1-.3 1-.5 1.6-.1.2-.2.6-.7.5-.2 0-.4-.1-.4-.1-.1.1-.1.4-.1.4s-.1.2.3.4c.1 0 .4.2.4.2l.1-.1.8.3v.1s.4.1.7.2c.5.3.9.7 1.1 1.2.2.6.3 1.3.3 1.6 0 0 1.3 1.2 1.3 5.5 0 .5-3.1 1.5-3.5 1.5.2 2.1-1.1 4.9-1.8 6.2-.6 1-1.2 1.9-1.8 2.8l-.1-.1c-1.4 2-2.8 3.8-3.3 4.1-.2.2-.3.2-.5.3-.3.5-.8 1-1.1 1.2-.2.2-2.7 2.1-4.5 3.4 0 .1.1.2 0 .2-.2.2-.5.4-.7.5-.1.1-.1.2-.2.3-.7.6-1 .6-1.1.8-.2.8.4 1.5.4 2s-.3.7-.4.7c0 0-.9.1-1.3.1-.2 0-.5-.1-.6-.3.4 1 .9 2 1.4 3.1 0 0 19.8-9.7 25.5-41.9H122zM122.9 14.4c-.3 1.6-.2 1.7-.7 3.1l.2 1.4 1.7-1.1v-.2c-.5-.5-1.1-2.4-1-3.2h-.2z"/><path clip-path="url(#df)" fill="#006BB6" d="M107 3.9c-3.5 8.6-7.3 23.4-1.8 38.1 0-.3.1-.8.2-1.1.1-.4-.1-1.1 0-1.3 1.2-1.6 2-1.6 2.1-1.7.2-.1.5-.5.7-.7.1-.1.1-.1.2 0 .6-.6 1.2-1.3 1.6-1.8.6-.8.8-1.5 1.3-2 .7-.6.9-.6 2-1 0-.2.4-1.4 1-2.4.4-.6 1.9-3.6 1.9-3.7 0 0-.1-.1-.2-.1s-3.6 4.9-4.1 5.4c-.2.2-.4.3-.8.5 0 0-.1.4-.5.6-.2.1-.6.2-.9.2l-.4.3c0 .1-.4.7-.5 1-.1.2-.3.4-.4.6-.1.1-.4.5-.9.5-.4.1-.8-.1-.9-.4-.1-.4-.2-.9.3-1.7.3-.4 1.1-.9 1.4-1.2 0 0 .1-.4.1-.5 0-.2.2-.7.5-1 .4-.3.7-.3.9-.3 0 0 0-.2.1-.8.2-1.1 1.3-3 1.5-3.7l-.2-.1c.4-.8 1.1-2.5 1.6-3.2 2-3.4 4-4.4 4-4.4s0-.2-.1-.6c0-.3-.2-1.6-.2-1.6s-.5-.2-.7-.8c-.2-.6 0-1.6 0-1.6.1-.4 0-.8 0-.8l-.5-.1c-.7.6-4 1.7-4 1.7-.8.8-2.7 1.6-3.5 2.2.9.4 1.5 1.3 1.6 2.3v.3c0 1-.5 1.9-1.3 2.4-.5.3-1.1.5-1.7.5-1.6 0-3-1.3-3-3 0-1.5 1.1-2.7 2.5-2.9.2-.1.4-.1.5-.2.2-.1.5-.5.8-.8 1-.8 1.9-2.5 3.8-2.6.1 0 2.5-1.5 2.5-1.5.7-.8 1.1-1 1.6-1.1.6-.2 1.6-.3 1.6-.3v-.1l.8-.1v.1l1.1-.3c.1-.1.2-.6.3-.9.3-.9-1.1-1.3-1.5-2.1 0 0 .4.1.4 0-.2-.2-.4-.6-.4-.6.9.3 1.5-1.2 2.6-1.9.1-.1.2-.1.3-.2H107zM121.2-1.9l-.6 2.4v.1l-1.3-2.5h-1.5l-1.3 5.1h1.7l.6-2.5 1.3 2.5h1.5l1.2-5.1h-1.6z"/><path clip-path="url(#df)" fill="#fff" d="M84-6.9L69.3-7c-2.5 0-4.5 2-4.5 4.5v44.2c0 2.5 2 4.5 4.5 4.5H84c2.5 0 4.5-2 4.5-4.5V-2.4c0-2.5-2-4.5-4.5-4.5"/><path clip-path="url(#df)" fill="#ED174C" d="M86.7 18.5V-2.3C86.7-3.8 85.5-5 84-5h-5c.4.4.8.5 1.2 1 .6.9.1 1.8-.2 2.7l.1.1c0 .6-.2 1.1-.8 1.5-.2.7-1 1.2-1.1 2 .5.3 1.1.6 1.5 1.1 1 .5 1.8 1.4 2.4 2.4.4 1.4.5 2.7.6 4.2-.1.9.2 1.7.4 2.5.8 1.2 1.1 2.7 1.4 4.1 0 .6.8.3 1 .8.6.1.8.8 1 1.1h.2z"/><path clip-path="url(#df)" fill="#006BB6" d="M82.5 44.6H69.3c-1.5 0-2.7-1.2-2.7-2.7V-2.4c0-1.5 1.2-2.7 2.7-2.7h7.9v.1c-.1.2-.5.1-.7.4-.5.2-.3.8-.6 1.1.1.2.2.6 0 .8 0 .2.1.3-.1.5-.2-.1-.3.1-.5.3 0 .5-.1 1.2.5 1.4l-.1.7c-.2.5-.2 1-.6 1.3-.6.1-1.3.1-1.8.3-.4-.2-.7.2-1 .1-.5.1-.9.5-1.4.7-.1.2-.4.3-.4.6-.4.6-.9 1.2-1.1 1.8-.3.4-.4.8-.6 1.2 0 .5-.5.9-.5 1.4-.3.5-.5 1-.6 1.5-.3.3-.3.8-.4 1.1-.1.3-.4.5-.3.8l-.2.5c.1.6.2 1.3.7 1.7l1.4.1c.2.6-.5 1-.7 1.4 0 .1-.2 0-.2.1.4.4-.2.7-.1 1.1-.1.6-.3 1.3-.2 1.8-.2.3.1.6.2.9.3.3.3.8.6 1.1.2.4.4.6.6 1-.2.2.2.3.2.5.3.4.3 1.1.5 1.6.3.2.7 0 1.1.1.2.3.4.5.4.8.3.2.2.5.4.7.2.4.5.8.7 1.1.2.2.3.4.5.7 1.2 1.7 2.5 3.1 3.9 4.5.3.2.6.5.9.7.8.7 1.7 1.3 2.6 1.9 0 .6.8 1.1.3 1.7 0 .3.1.6.3.7-.1.3.2.3.3.5.3.8.8 1.6.6 2.5.4.5.4 1.3.2 2 .1.7-.2 1.4-.1 2.1.1.8.5 1.2.6 1.8z"/><path clip-path="url(#df)" fill="#ED174C" d="M86.6 21.9c-.6 1.2-1.8 2-3.3 2-2 0-3.6-1.6-3.6-3.7 0-1.4.8-2.5 1.9-3.2l.2-.2c.3-.1.6-.1.8-.4-1.3-2.2-2.1-4.8-2.5-7.4-.1-.2 0-.4-.2-.6h-.3c-.5.1-1 .5-1.3.9-.5 1.1-.9 2.2-1.3 3.4.2.3.5.3.7.7.5 1.4 1 2.7 1.3 4.1 0 .3.1.5-.1.8-.3.1 0 .4 0 .6.4 1.1.5 2.1.8 3.3 0 .4.2.8.2 1.1.1.9.3 1.6.5 2.4 1.6 2 1.6 4.7 2.1 7 .5.8 1.2 1.7.9 2.7 0 .4-.2.8-.3 1.2.1.8.2 1.6.4 2.4.1.2 0 .4.1.5.1.8.3 1.5.6 2.1.3 1-.1 2-.7 2.6v.1h.5c1.5 0 2.7-1.2 2.7-2.7l-.1-19.7z"/><path clip-path="url(#df)" fill="#fff" d="M70 38.3l.1 3.5h-1.4v-6.3h1.5l1.2 3.5-.2-3.5h1.4v6.3h-1.5zM73 41.8v-6.3h1.9c1.1 0 2 .4 2 1.6 0 .6-.2 1-.7 1.3.7.4.8.7.8 1.5 0 1.3-.7 1.8-1.9 1.8l-2.1.1zm1.5-1.1c.7 0 1 0 1-.8 0-.7-.4-.7-1-.7v1.5zm0-2.7c.6 0 .9 0 .9-.7 0-.6-.4-.6-.9-.6V38zM76.8 41.8l1.4-6.3H80l1.4 6.3h-1.5l-.2-1.2h-1.2l-.2 1.2h-1.5zm2.3-5.1l-.4 2.8h.9l-.5-2.8z"/><defs><path id="dg" d="M8.4 133h119.4v34.4H8.4z"/></defs><clipPath><use xlink:href="#dg" overflow="visible"/></clipPath><defs><path id="dh" d="M8.4 133h119.4v34.4H8.4z"/></defs><clipPath id="di"><use xlink:href="#dh" overflow="visible"/></clipPath><g clip-path="url(#di)"><text transform="translate(39.651 55.994)" font-family="'Univers-Condensed'" font-size="5.707">Local Franchises</text></g><path clip-path="url(#di)" fill="#fff" d="M-6 38.3c-2.8 0-5.1-2.3-5.1-5.1V9.9c0-2.8 2.3-5.1 5.1-5.1h52.2c2.8 0 5.1 2.3 5.1 5.1v23.3c0 2.8-2.3 5.1-5.1 5.1H-6z"/><path clip-path="url(#di)" fill="#ED174C" d="M48.6 7.5c-.6-.6-1.5-1-2.4-1H31.6l8.4 14 .8.1.4.6v.6l.5.1.5.7v.6l.5.1.5.6v1.3s1.2 1.1 2.2 1.5c.7.3.8 1.5 1.2 2.1.6.9 1.3 1.3 1.2 1.8-.4 1.4-1.8 3.7-3.1 3.8h-5.2v2.2H46c1.9 0 3.4-1.5 3.4-3.4V9.9c.2-.9-.2-1.8-.8-2.4"/><path clip-path="url(#di)" fill="#004684" d="M26.6 6.5H-6c-.9 0-1.8.4-2.4 1-.6.6-1 1.5-1 2.4v23.3c0 .9.4 1.8 1 2.4.6.6 1.5 1 2.4 1h21.2c-.5-.9-1.1-1.9-1.3-2.2h-2.5c0-6.3 2.1-9.7 4.7-10.4.4-.1.2-1.8-.3-2.3h-1.5c-.3-.1-.1-.4-.1-.4l1.2-2.6-.2-.7h-4.4c-.1 0 3.6-2.5 3.6-2.5.2-6.6 7-7.2 11.1-4.4 2.4 1.6 2.6 4.8 2.4 7.1 0 .1-.6 0-.6 0s-.4 2.4.7 2.4h4.8c1.9-.1 3.8 1.2 3.8 1.2l.5-1.7L26.6 6.5zM-2.3 31.8c-1.3 0-2.3-1-2.3-2.3 0-1.3 1-2.3 2.3-2.3 1.3 0 2.3 1 2.3 2.3 0 1.2-1.1 2.3-2.3 2.3"/><path clip-path="url(#di)" fill="#ED174C" d="M49.1 38.8h-.5v1.4h-.4v-1.4h-.5v-.3h1.4v.3zm2.4 1.4h-.4v-1.4l-.5 1.4h-.3l-.5-1.4v1.4h-.4v-1.8h.6l.4 1.1.4-1.1h.6v1.8z"/><path clip-path="url(#di)" fill="none" stroke="#010101" stroke-width=".476" d="M82.3 54.3h46.2v-8.4M36.9 54.3H-9.5v-8.4"/><defs><path id="dj" d="M206.2-3.3h70.1V61h-70.1z"/></defs><clipPath id="dk"><use xlink:href="#dj" overflow="visible"/></clipPath><path clip-path="url(#dk)" fill="none" stroke="#000" stroke-width=".101" d="M-8.7-34.8h386.1v298.6H-8.7z"/><path clip-path="url(#dk)" fill="none" stroke="#fff" stroke-width=".405" d="M-23.1-41h414.8v311.1H-23.1z"/><defs><path id="dl" d="M201.4-3.3h70.1V61h-70.1z"/></defs><clipPath id="dm"><use xlink:href="#dl" overflow="visible"/></clipPath><path clip-path="url(#dm)" fill="#E41E2B" d="M111.2 39.9c-2.9-2-6.4-2.9-9.7-2.8-3.3.1-4.7 2.6-4.7 2.6-1.5-2.6-4.4-4.1-8.9-4.1-7.2 0-14.3 3.4-20 3.4-5.5 0-9.4-3.4-9.3-9.5.2-10.7 9.2-20.3 16-24.6 3.9-2.5 7.1-3.2 9.2-3 1.5.2 3.4 2 2.2 4.6-1.7 3.9-4.1 3.5-4 1.7 0-1.2.8-2 1.4-2.4.4-.3 1.1-.3 1.4-.3.3-.3.6-2.4-2.2-1.7-2.8.7-6.1 3.4-9.3 6.9-3.2 3.5-8.1 10.2-9.4 17.2-.6 3.2-.2 9.2 7.5 9.1 6.5-.1 16.1-4.3 25-4.3 3.4 0 6.4 1 8.7 2.4 2.4 1.3 5.1 3.4 6.1 4.8m2.1-19.4h1.3s-6.7 9.7-10.5 9.2c-2.1-.2-1.5-2.9-1.5-2.9s-3 3.5-5.7 2.8c-2.5-.6-.9-4.7-.9-4.7-.3.1-5.6 6.1-9.4 4.7-3.9-1.5-1.9-6.6-1.1-8.1.6-1.3 1.3-2.5 1.3-2.5s-.6.2-1 .3c-.4.1-.9.2-.9.2s-1.9 3-3 4.5-6 6.7-8.8 5.7c-2.8-1-2.1-5-.5-8.2C75.2 16.4 81.3 10.1 85 11c3.7 1 .6 7 .6 7s.7.1 2.5-1.1c2.6-1.8 6-6.5 9.6-5.9 1.7.3 3.3 2 1.1 5.4-.7 1.1-1.9 2-2.8 1.1-.6-.6-.1-1.7.5-2.4.8-1 2-.9 2-.9s.6-1.4-.9-1.4c-1.2 0-4.4 2.9-6.2 5.9C90 21.4 87.5 26 90 27c2.3.9 6.6-4.2 8.6-6.9s6.6-8.8 10.4-9.1c1.3-.1 2.1 1.1 2.1 1.1l.4-.7h3.8s-7.2 12.1-7.8 13c-.4.7-1 2.3.6 1.4 1.8-.9 5.2-5.3 5.2-5.3m-29.8-1.2c-.1 0-1-.3-2-.9-.9-.6-1.4-1.5-1.4-1.6 0-.1-.1 0-.1 0s-.2.3-1.6 2.3c-1.4 2-3.4 6.1-1.5 6.8 1.2.4 3.3-1.7 4.4-3.1 1-1.3 2.2-3.3 2.3-3.5h-.1m1.5-6.4c-1-.8-3.6 1-3.6 2.8 0 1.9 2.3 2.4 2.6 2.4 0 0 .3.1.4-.2.1-.1.4-.7.7-1.6.4-.9.9-2.7-.1-3.4m19.6 10c1.6-2.1 5.8-9.6 5.8-9.6s-.1-.5-.6-.5c-.6 0-1.6.2-3.5 2.6-2 2.5-3.5 4.4-4.6 6.4-1.2 2.2-1.7 3.8-1 4.2.2.1.5.1.7.1.5-.1 1.1-.6 1.9-1.5.3-.4.8-1 1.3-1.7m17.2-11.5h-3.6l-2.1 3.3h3.6l2.1-3.3zm47.9 25.1c-.3 0-.5.1-.8.3-.2.2-.3.5-.3.8 0 .3.1.6.3.8.2.2.5.3.8.3.3 0 .5-.1.8-.3.2-.2.3-.5.3-.8 0-.3-.1-.5-.3-.8-.2-.2-.5-.3-.8-.3m1.3 1.1c0 .3-.1.6-.4.9-.2.2-.5.4-.9.4-.3 0-.6-.1-.9-.4-.2-.2-.4-.5-.4-.9 0-.3.1-.6.4-.9.2-.2.5-.4.9-.4.3 0 .6.1.9.4.3.3.4.6.4.9m-.9-.3c0-.1 0-.2-.1-.2s-.2-.1-.3-.1h-.2v.5h.4c.1 0 .2-.1.2-.2m-.9-.4h.9c.1.1.2.2.2.3 0 .1 0 .2-.1.3 0 0-.1.1-.2.1.1 0 .2.1.2.1 0 .1.1.1.1.2V38.2h-.2v-.1c0-.2 0-.3-.1-.3h-.5v.5h-.2v-1.4zm6.4-31.5c-2.7 1.7-6.4 3.3-10 3-.9.9-1.9 2-2.9 3.2 6.2 1.2 11.7-2.6 14.6-5.9 1.8-2 2.7-3.9 2.7-3.9s-1.7 1.9-4.4 3.6M165 33.7c-.5.8-1.1 2.4.6 1.4 2.1-1.2 5-5.7 5-5.7h1.3s-1.8 2.8-4.1 5.3c-2.1 2.3-4.7 4.5-6.5 4.2-2.1-.2-1.5-3-1.5-3s-3 3.2-5.1 3c-2.8-.3-2-3.8-2-3.8s-3.2 3.9-5.4 3.8c-3.4-.2-2.6-4.4-1.6-7.3.5-1.6 1-2.8 1-2.8s-.3.1-1.1.2c-.4.1-1.1.1-1.1.1s-1.4 2.5-2.6 4c-1.1 1.5-6 6.7-8.8 5.7-2.6-1-1.8-5-.2-8.2 2.2-4.7 8.5-11.4 12.1-10.5 3.8.9.1 7.8.1 7.8h.7c.7-.1 1.4-.4 1.4-.4s3.8-7.9 7.9-13.1c4.2-5.2 12.5-14.1 15.7-11.9.8.5.4 2.4-.6 4.6-.5.2-1 .3-1.5.4.7-1.3 1.2-2.4 1.3-3.2.5-2.7-5.7 3-10.2 9-4.5 6.1-7.1 11.5-7.1 11.5s.9-.5 2.3-1.6c1.5-1.2 3.5-3 5.7-5.3 1.5-1.5 3.2-3.4 4.8-5.6.5 0 1-.1 1.4-.1-1.8 2.4-3.7 4.6-5.3 6.3-1.8 1.8-3.7 3.7-5.4 5.1-2.7 2.2-4.7 3.5-4.7 3.5s-3.9 7.9-1.8 8.4c1.2.3 3.7-3.5 3.7-3.5s3.2-4.9 5.1-7.1c2.6-3 4.9-4.7 7.2-4.8 1.3 0 2.1 1.4 2.1 1.4l.6-1h3.8c.5.1-6.7 12.3-7.2 13.2m-21.6-4.8c-.1 0-.9-.4-1.8-1.1-.9-.7-1.3-1.5-1.3-1.6 0-.1-.1 0-.1 0 0 .1-.2.2-1.6 2.2-1.4 2-3.5 6.2-1.6 6.9 1.2.4 3.2-1.7 4.3-3.1 1-1.3 2-3 2-3.1.2-.2.2-.2.1-.2m2-3.4c.4-.9.8-2.7-.1-3.5-1-.8-3.6 1-3.6 2.8 0 1.9 1.8 2.7 2.2 2.8.2.1.3.1.5-.1 0-.1.6-1.1 1-2m22-2.6c.1-.1.1-.3.1-.3s-.1-.5-.6-.5c-.6 0-1.4.1-3.5 2.4s-3.4 4.4-4.5 6.4c-1.2 2.2-1.7 3.9-1 4.3.2.1.5.1.7.1.5-.1 1-.6 1.8-1.5.4-.4.8-1.1 1.3-1.8 1.5-1.8 5-7.9 5.7-9.1m8.2-17.5c-2.7 1.7-6.4 3.3-10 3-.9.9-1.9 2-2.9 3.2 6.2 1.2 11.7-2.6 14.6-5.9 1.8-2 2.7-3.9 2.7-3.9s-1.7 1.9-4.4 3.6m-17.4 4.5c-2.9-1.5-5.1-3.3-7.3-4.5-2.1-1.1-3.5-1.6-5.2-1.3-.3 0-.7.2-.7.2s.9 3-2.6 8.1c-3.6 5.2-6.8 5.1-7.8 3.7-1-1.5.3-4.6 2.4-7.3 2.2-2.8 6-5.2 6-5.2s-1.2-.7-4.2 1c-2.9 1.7-8 5.6-12.7 12.3-4.7 6.7-5.6 10.3-6.3 13.2-.7 2.9-.1 6 3.1 6s6.9-4.9 8-6.6c2-3.2 3.2-8 .6-7.3-1.3.3-2.4 1.8-3 3.2-.7 1.4-1 2.8-1 2.8s-1.1.4-2.6 1.5-2.5 2.2-2.5 2.2 0-2.3 1.8-6 5.2-5.4 7.1-5.6c1.7-.1 4 1.3 2.1 6.7s-7.5 11.9-13.4 12c-5.4.1-9-6.9-1.4-19C127 6.6 136.8 2.5 140 2c3.2-.5 4.2.9 4.2.9s2.7-1.2 6.1-1c3.9.3 6.9 3 10.9 4.9-1.2 1.1-2.2 2.1-3 3.1m-14.5-5.2s-2.3.9-4.9 3.8c-2.7 2.9-4.2 6.2-3 7.1.4.3 1.4.4 3.3-1.3 1.4-1.3 2.9-3 3.9-5.4 1-2.9.7-4.2.7-4.2"/><defs><path id="dn" d="M206.2-3.3h70.1V61h-70.1z"/></defs><clipPath><use xlink:href="#dn" overflow="visible"/></clipPath><defs><path id="do" d="M206.2-3.3h70.1V61h-70.1z"/></defs><clipPath><use xlink:href="#do" overflow="visible"/></clipPath><defs><path id="dp" d="M206.2-3.3h70.1V61h-70.1z"/></defs><clipPath><use xlink:href="#dp" overflow="visible"/></clipPath><defs><path id="dq" d="M206.2-3.3h70.1V61h-70.1z"/></defs><clipPath><use xlink:href="#dq" overflow="visible"/></clipPath><defs><path id="dr" d="M206.2-3.3h70.1V61h-70.1z"/></defs><clipPath><use xlink:href="#dr" overflow="visible"/></clipPath><defs><path id="ds" d="M206.2-3.3h70.1V61h-70.1z"/></defs><clipPath><use xlink:href="#ds" overflow="visible"/></clipPath><defs><path id="dt" d="M206.2-3.3h70.1V61h-70.1z"/></defs><clipPath><use xlink:href="#dt" overflow="visible"/></clipPath><defs><path id="du" d="M206.2-3.3h70.1V61h-70.1z"/></defs><clipPath><use xlink:href="#du" overflow="visible"/></clipPath><defs><path id="dv" d="M206.2-3.3h70.1V61h-70.1z"/></defs><clipPath><use xlink:href="#dv" overflow="visible"/></clipPath><defs><path id="dw" d="M206.2-3.3h70.1V61h-70.1z"/></defs><clipPath><use xlink:href="#dw" overflow="visible"/></clipPath><defs><path id="dx" d="M206.2-3.3h70.1V61h-70.1z"/></defs><clipPath><use xlink:href="#dx" overflow="visible"/></clipPath><defs><path id="dy" d="M206.2-3.3h70.1V61h-70.1z"/></defs><clipPath><use xlink:href="#dy" overflow="visible"/></clipPath><defs><path id="dz" d="M206.2-3.3h70.1V61h-70.1z"/></defs><clipPath><use xlink:href="#dz" overflow="visible"/></clipPath><defs><path id="dA" d="M206.2-3.3h70.1V61h-70.1z"/></defs><clipPath><use xlink:href="#dA" overflow="visible"/></clipPath><defs><path id="dB" d="M206.2-3.3h70.1V61h-70.1z"/></defs><clipPath><use xlink:href="#dB" overflow="visible"/></clipPath><defs><path id="dC" d="M206.2-3.3h70.1V61h-70.1z"/></defs><clipPath><use xlink:href="#dC" overflow="visible"/></clipPath><defs><path id="dD" d="M206.2-3.3h70.1V61h-70.1z"/></defs><clipPath><use xlink:href="#dD" overflow="visible"/></clipPath><defs><path id="dE" d="M206.2-3.3h70.1V61h-70.1z"/></defs><clipPath><use xlink:href="#dE" overflow="visible"/></clipPath><defs><path id="dF" d="M-139.5 109.3H-57v82h-82.5z"/></defs><clipPath id="dG"><use xlink:href="#dF" overflow="visible"/></clipPath><path clip-path="url(#dG)" fill="none" stroke="#000" stroke-width=".162" d="M-598.5-280.8H18.9v477.4h-617.4z"/><path clip-path="url(#dG)" fill="none" stroke="#fff" stroke-width=".647" d="M-621.5-290.8H41.8v497.5h-663.3z"/><defs><path id="dH" d="M-139.5 109.3H-57v82h-82.5z"/></defs><clipPath><use xlink:href="#dH" overflow="visible"/></clipPath><path fill="#005DA6" d="M114.2 40H23c-11 0-12.1-7.4-12.1-10.6 0-4.2 2.6-11.5 12.4-11.7h91c9.3.2 11.2 9.3 11.2 11.7 0 1.7-.7 5.3-3.3 7.8-2 1.9-4.7 2.9-8 2.8"/><path fill="none" stroke="#fff" stroke-width="2.002" stroke-miterlimit="10" d="M114.2 40H23c-11 0-12.1-7.4-12.1-10.6 0-4.2 2.6-11.5 12.4-11.7h91c9.3.2 11.2 9.3 11.2 11.7 0 1.7-.7 5.3-3.3 7.8-2 1.9-4.7 2.9-8 2.8z"/><path fill="#fff" d="M114.7 32.1c1.3 0 2.4-1.1 2.4-2.4 0-1.3-1.1-2.4-2.4-2.4-1.4 0-2.5 1.1-2.5 2.4.1 1.3 1.1 2.4 2.5 2.4"/><path fill="#fff" d="M36.9 27.3L34 33.7c-.5 1-.3 1.3.8 1.3h11.9c.4 0 .6.3 1.4-1.3l2.9-6.5h-5.2l-2.2 4.6c-.6 1.5-1.7 1.8-2.9 1.8-1.7 0-1.7-.7-1.1-1.8l2.2-4.6h-4.9zM56.2 27.2h5.2l-3.6 7.9h-5.3zM107 27.2h5.3l-3.7 7.9h-5.2zM71.9 27.2l-3.6 7.9h5.2l2-4.5c1-2 3.7-1.7 3 0l-2.1 4.5h4.8l3-6.4c.5-1.3-.8-1.5-1.9-1.5H79c-.7.1-1.3.4-1.5.6-.4-.3-.4-.6-1.1-.6h-4.5zM91.9 27.2h8.8c1.3.1 1.5.4 1.3 1.1l-1.7 3.6H93l-.9 1.8h7.4l-.6 1.3H87.6c-1 .1-1.1-.3-.7-1.3l2.5-5.6c.5-.8 1.8-.8 2.5-.9"/><path fill="#005DA6" d="M96.1 30.8h-2.5l.5-1c.5-1.1 1.3-.7 1.6-.7.5 0 1.3.1 1 .6-.3.6-.6 1.1-.6 1.1"/><path fill="#fff" d="M22.1 26.5l2-1.7h3.2l-4.7 10.3h5.7L33 24.8h82.1l.6-1.2H23.9c-1.6 0-2.2.8-2.6 1.2l-2.3 2c-.4.4-.6 1-.6 1.7 0 1.3 1.1 2.4 2.4 2.4 1.4 0 2.5-1.1 2.5-2.4-.1-.9-.5-1.6-1.2-2zM64.2 32.1c1.4 0 2.5-1.1 2.5-2.4 0-1.3-1.1-2.4-2.5-2.4-1.3 0-2.4 1.1-2.4 2.4 0 1.3 1.1 2.4 2.4 2.4"/><defs><path id="dI" d="M173.3 369.5h126.1v25.1H173.3z"/></defs><clipPath id="dJ"><use xlink:href="#dI" overflow="visible"/></clipPath><path clip-path="url(#dJ)" fill="none" stroke="#000" stroke-width=".165" d="M85.9-65.3h627.9v485.6H85.9z"/><path clip-path="url(#dJ)" fill="none" stroke="#fff" stroke-width=".658" d="M62.5-75.5h674.7v506H62.5z"/></svg>