<svg xmlns="http://www.w3.org/2000/svg" xmlns:xlink="http://www.w3.org/1999/xlink" viewBox="0 0 131.5 95.9" enable-background="new 0 0 131.5 95.9"><defs><path id="a" d="M2.9 22.1h98.6v51.5H2.9z"/></defs><clipPath id="b"><use xlink:href="#a" overflow="visible"/></clipPath><path clip-path="url(#b)" fill="#00000C" d="M62.7 43.8c-1.9-1.7-4.1-.8-4.1-.8-3.4 1.5-2.6 4.7-2.6 4.7-3.4-.1-5.5-2.3-5.5-2.3-2-2-1.8-4.5-1.8-4.5.2.2.7.8.7.8 2.5 2.2 6.1.2 6.1.2 4.1-1.6 4.5-5.7 4.5-5.7.7-5.3-2.6-7.9-2.6-7.9-2.2-1.8-4.9-1.8-4.9-1.8-.9-.1-1 .3-1 .3-.8 2.8 1.6 4.4 1.6 4.4 2.7 1.9 5-.2 5-.2 1.6 2.8.8 5.6.8 5.6-.8 3.1-3.2 4-3.2 4 .8-1.3.4-2.9.4-2.9-.6-2.2-3.6-4.2-3.6-4.2-3.8-2.5-7.5-.2-7.5-.2-3.6 1.9-4.5 5.2-4.5 5.2-1 2.7.8 5.7.8 5.7.3.8.8.6.8.6 3.3-1 3-3.9 3-3.9.1-2.8-2.7-3.8-2.7-3.8 2.3-3.3 5.7-3.6 5.7-3.6 2.1-.2 4.2 1.3 4.2 1.3-.4 0-1.6.3-1.6.3-2 .9-2.4 2.9-2.4 2.9-1.6 4.9 1 7.6 1 7.6 3.6 4.3 8.3 3.2 8.3 3.2 3.5-.4 5.3-4.1 5.3-4.1.3-.7-.2-.9-.2-.9M54 30.5c-1.5-.8-1.5-2.8-1.5-2.8 3.8.2 5 2.3 5 2.3-1.6 1.6-3.5.5-3.5.5M43.9 40.6c0 2.4-1.7 2.9-1.7 2.9-1.6-3.1-.4-5.4-.4-5.4 2 .4 2.1 2.5 2.1 2.5m8.3-4.8c1.6 0 2.9 1.3 2.9 2.9 0 1.6-1.2 2.9-2.8 3-1.6 0-2.9-1.3-2.9-2.9-.1-1.7 1.2-3 2.8-3m5 11.8s-.6-1.8 1-3.1c0 0 1.7-1.3 3.5-.1 0-.1-1.5 2.8-4.5 3.2M32.8 51.8c-3.9 0-7 3-7 6.6 0 3.6 3.1 6.6 7 6.6s7-3 7-6.6c.1-3.7-3.1-6.6-7-6.6m0 11.4c-2.6 0-4.7-2.2-4.7-4.8 0-2.7 2.1-4.8 4.7-4.8s4.7 2.2 4.7 4.8c0 2.6-2.1 4.8-4.7 4.8"/><path clip-path="url(#b)" fill="#00000C" d="M85.6 63.4v-.2h1v.2h-.4v1H86v-1h-.4zm1.6-.2l.3.9.3-.9h.3v1.2h-.2v-1l-.3 1h-.2l-.3-1v1h-.2v-1.2h.3zM76.1 62.5h-5.8v-3.6h5.1c.5 0 .9-.4.9-.9s-.4-.9-.9-.9h-5.1v-2.9h5.8c.5 0 .9-.4.9-.9s-.4-.9-.9-.9h-7.2c-.5 0-.9.4-.9.9v10.2c0 .5.4.9.9.9h7.2c.5 0 .9-.4.9-.9 0-.6-.4-1-.9-1M53.4 56.3c.3 0 .5-.2.5-.5v-.2c-1.1-2.3-3.6-3.8-6.4-3.8-3.9 0-7 3-7 6.6 0 3.6 3.1 6.6 7 6.6 3 0 5.6-1.8 6.6-4.4v-.2c0-.3-.2-.5-.5-.5h-1.5c-.1 0-.2.1-.3.2v.1c-.7 1.7-2.4 3-4.3 3-2.6 0-4.7-2.2-4.7-4.8 0-2.7 2.1-4.8 4.7-4.8 1.8 0 3.3 1 4.1 2.5.1.1.2.3.3.3h1.5"/><path clip-path="url(#b)" fill="#00000C" d="M15.6 60c0-.2-.2-.4-.5-.4H14c-.3 0-.5.2-.5.5v.2c0 2.5 2.3 4.6 5.8 4.6 3.2 0 5.9-1.6 5.9-6v-6.2c0-.3-.2-.5-.5-.5h-1.4c-.3 0-.5.2-.5.5V59c0 2.9-1.3 4.2-3.5 4.2-1.8 0-3.7-1.3-3.7-3.2zM88.8 52.3h-1.5c-.3 0-.6.2-.8.5l-3.3 5-3-5c-.2-.3-.5-.5-.8-.5h-1.3c-.5 0-.7.4-.4.9l4.4 6.9v3.3c0 .5.4.9.9.9h.5c.5 0 .9-.4.9-.9V60l4.7-6.8c.4-.5.2-.9-.3-.9M67.1 63.7l-4.9-7.2 3.4-3.4c.4-.4.2-.7-.1-.7h-1.7c-.4 0-.5.1-.9.5L57.7 58v-5.2c0-.3-.2-.5-.5-.5h-.8s-1 0-1 1.6v10c0 .3.2.5.5.5h.6c.7 0 1.3-.6 1.3-1.3v-2l2.9-2.9 3.9 5.7c.1.2.4.5.6.5h1.4c.5 0 .8-.3.5-.7"/></svg>