<svg xmlns="http://www.w3.org/2000/svg" xmlns:xlink="http://www.w3.org/1999/xlink" viewBox="0 0 113.1 78.7" enable-background="new 0 0 113.1 78.7"><defs><path id="a" d="M31.6 124.7h52.2v72.9H31.6z"/></defs><clipPath><use xlink:href="#a" overflow="visible"/></clipPath><defs><path id="b" d="M31.6 124.7h52.2v72.9H31.6z"/></defs><clipPath id="c"><use xlink:href="#b" overflow="visible"/></clipPath><path clip-path="url(#c)" fill="#AF1F24" d="M-14.3 80.3c6.2 0 11.2-5 11.2-11.2 0-6.2-5-11.2-11.2-11.2-6.2 0-11.2 5-11.2 11.2 0 6.2 5 11.2 11.2 11.2m0 10.5c11.9 0 21.5-9.6 21.5-21.5s-9.6-21.5-21.5-21.5-21.5 9.6-21.5 21.5 9.6 21.5 21.5 21.5m-32.4-21.5c0-17.9 14.5-32.4 32.4-32.4C3.6 37 18 51.5 18 69.3c0 17.9-14.5 32.4-32.4 32.4-17.8 0-32.3-14.5-32.3-32.4"/><defs><path id="d" d="M-166.2 143.9h119.4v34.4h-119.4z"/></defs><clipPath id="e"><use xlink:href="#d" overflow="visible"/></clipPath><g clip-path="url(#e)"><text transform="translate(-34.494 66.061)" font-family="'Univers-Condensed'" font-size="5.707">Multiple NHL Franchises</text></g><defs><path id="f" d="M31.6 7.6h70.1v64.3H31.6z"/></defs><clipPath id="g"><use xlink:href="#f" overflow="visible"/></clipPath><path clip-path="url(#g)" fill="none" stroke="#000" stroke-width=".101" d="M-183.3-23.9h386.1v298.6h-386.1z"/><path clip-path="url(#g)" fill="none" stroke="#fff" stroke-width=".405" d="M-197.7-30.2h414.8v311.1h-414.8z"/><path clip-path="url(#g)" fill="#D1D3D4" d="M145.2 32.3c-19.1 0-34.4 5.7-34.4 12.9 0 7.1 15.4 12.9 34.4 12.9s34.4-5.8 34.4-12.9c0-7.1-15.4-12.9-34.4-12.9m34.2 11.9v.2-.2"/><defs><path id="h" d="M31.6 7.6h70.1v64.3H31.6z"/></defs><clipPath id="i"><use xlink:href="#h" overflow="visible"/></clipPath><g clip-path="url(#i)"><defs><path id="j" d="M111.3 45.2c0 6.8 15.2 12.4 33.9 12.4s33.9-5.5 33.9-12.4c0-6.8-15.2-12.4-33.9-12.4s-33.9 5.5-33.9 12.4"/></defs><clipPath id="k"><use xlink:href="#j" overflow="visible"/></clipPath><g clip-path="url(#k)"><defs><path id="l" d="M111.3 32.8h67.8v24.8h-67.8z"/></defs><clipPath id="m"><use xlink:href="#l" overflow="visible"/></clipPath><radialGradient id="n" cx="-615.885" cy="398.356" r="1.112" gradientTransform="matrix(133.571 0 0 -130.246 82409.602 52058.793)" gradientUnits="userSpaceOnUse"><stop offset="0"/><stop offset=".35" stop-color="#000017"/><stop offset=".7" stop-color="#003"/><stop offset=".768" stop-color="#001A52"/><stop offset=".857" stop-color="#003775"/><stop offset=".904" stop-color="#004282"/><stop offset=".955" stop-color="#1CA6DF"/><stop offset="1" stop-color="#1CA6DF"/></radialGradient><path clip-path="url(#m)" fill="url(#n)" d="M111.3 32.8h67.8v24.8h-67.8z"/></g></g><defs><path id="o" d="M31.6 7.6h70.1v64.3H31.6z"/></defs><clipPath><use xlink:href="#o" overflow="visible"/></clipPath><defs><path id="p" d="M31.6 7.6h70.1v64.3H31.6z"/></defs><clipPath><use xlink:href="#p" overflow="visible"/></clipPath><defs><path id="q" d="M31.6 7.6h70.1v64.3H31.6z"/></defs><clipPath><use xlink:href="#q" overflow="visible"/></clipPath><defs><path id="r" d="M31.6 7.6h70.1v64.3H31.6z"/></defs><clipPath><use xlink:href="#r" overflow="visible"/></clipPath><defs><path id="s" d="M31.6 7.6h70.1v64.3H31.6z"/></defs><clipPath><use xlink:href="#s" overflow="visible"/></clipPath><defs><path id="t" d="M31.6 7.6h70.1v64.3H31.6z"/></defs><clipPath><use xlink:href="#t" overflow="visible"/></clipPath><defs><path id="u" d="M31.6 7.6h70.1v64.3H31.6z"/></defs><clipPath><use xlink:href="#u" overflow="visible"/></clipPath><defs><path id="v" d="M31.6 7.6h70.1v64.3H31.6z"/></defs><clipPath><use xlink:href="#v" overflow="visible"/></clipPath><defs><path id="w" d="M31.6 7.6h70.1v64.3H31.6z"/></defs><clipPath><use xlink:href="#w" overflow="visible"/></clipPath><defs><path id="x" d="M31.6 7.6h70.1v64.3H31.6z"/></defs><clipPath><use xlink:href="#x" overflow="visible"/></clipPath><defs><path id="y" d="M31.6 7.6h70.1v64.3H31.6z"/></defs><clipPath><use xlink:href="#y" overflow="visible"/></clipPath><defs><path id="z" d="M31.6 7.6h70.1v64.3H31.6z"/></defs><clipPath><use xlink:href="#z" overflow="visible"/></clipPath><defs><path id="A" d="M31.6 7.6h70.1v64.3H31.6z"/></defs><clipPath><use xlink:href="#A" overflow="visible"/></clipPath><defs><path id="B" d="M31.6 7.6h70.1v64.3H31.6z"/></defs><clipPath><use xlink:href="#B" overflow="visible"/></clipPath><defs><path id="C" d="M31.6 7.6h70.1v64.3H31.6z"/></defs><clipPath><use xlink:href="#C" overflow="visible"/></clipPath><defs><path id="D" d="M31.6 7.6h70.1v64.3H31.6z"/></defs><clipPath><use xlink:href="#D" overflow="visible"/></clipPath><defs><path id="E" d="M31.6 7.6h70.1v64.3H31.6z"/></defs><clipPath><use xlink:href="#E" overflow="visible"/></clipPath><defs><path id="F" d="M31.6 7.6h70.1v64.3H31.6z"/></defs><clipPath><use xlink:href="#F" overflow="visible"/></clipPath><defs><path id="G" d="M31.6 7.6h70.1v64.3H31.6z"/></defs><clipPath><use xlink:href="#G" overflow="visible"/></clipPath><defs><path id="H" d="M31.6 7.6h70.1v64.3H31.6z"/></defs><clipPath><use xlink:href="#H" overflow="visible"/></clipPath><defs><path id="I" d="M31.6 7.6h70.1v64.3H31.6z"/></defs><clipPath><use xlink:href="#I" overflow="visible"/></clipPath><defs><path id="J" d="M31.6 7.6h70.1v64.3H31.6z"/></defs><clipPath><use xlink:href="#J" overflow="visible"/></clipPath><defs><path id="K" d="M31.6 7.6h70.1v64.3H31.6z"/></defs><clipPath><use xlink:href="#K" overflow="visible"/></clipPath><defs><path id="L" d="M31.6 7.6h70.1v64.3H31.6z"/></defs><clipPath id="M"><use xlink:href="#L" overflow="visible"/></clipPath><path clip-path="url(#M)" fill="#58595B" d="M145.2 32.3c-19.1 0-34.4 5.7-34.4 12.9 0 7.1 15.4 12.9 34.4 12.9s34.4-5.8 34.4-12.9c0-7.1-15.4-12.9-34.4-12.9m-34.1 13c0-1.5.7-3 2.1-4.4 4.9-5 17.8-8.3 32.1-8.4 18.8-.1 34.2 5.5 34.2 12.5 0 1.5-.7 3-2.1 4.4-4.9 5-17.8 8.3-32 8.4-19 .1-34.3-5.5-34.3-12.5m68.3-1.1v.2-.2"/><defs><path id="N" d="M31.6 7.6h70.1v64.3H31.6z"/></defs><clipPath id="O"><use xlink:href="#N" overflow="visible"/></clipPath><g clip-path="url(#O)"><defs><path id="P" d="M110.9 45.2c0 .3 0 .7.1 1-.1-.3-.1-.6-.1-.9 0-1.5.7-3.1 2.1-4.5 5-5 17.9-8.4 32.1-8.4 2 0 3.9 0 5.8.2-1.9-.1-3.8-.2-5.7-.2-19 0-34.3 5.7-34.3 12.8"/></defs><clipPath id="Q"><use xlink:href="#P" overflow="visible"/></clipPath><g clip-path="url(#Q)"><defs><path id="R" d="M148.244 22.382l6.133 22.892-40.76 10.92-6.134-22.89z"/></defs><clipPath id="S"><use xlink:href="#R" overflow="visible"/></clipPath><linearGradient id="T" gradientUnits="userSpaceOnUse" x1="-628.122" y1="387.86" x2="-627.01" y2="387.86" gradientTransform="matrix(-7.148 -26.676 -26.676 7.148 5994.436 -19463.76)"><stop offset="0" stop-color="#B1B3B6"/><stop offset=".35" stop-color="#DCDDDE"/><stop offset=".65" stop-color="#DCDDDE"/><stop offset="1" stop-color="#B1B3B6"/></linearGradient><path clip-path="url(#S)" fill="url(#T)" d="M110.6 67.9L99 24.6l52.3-14 11.6 43.3z"/></g></g><defs><path id="U" d="M31.6 7.6h70.1v64.3H31.6z"/></defs><clipPath><use xlink:href="#U" overflow="visible"/></clipPath><defs><path id="V" d="M31.6 7.6h70.1v64.3H31.6z"/></defs><clipPath id="W"><use xlink:href="#V" overflow="visible"/></clipPath><g clip-path="url(#W)"><defs><path id="X" d="M113.9 45.2c0-5.7 14-10.3 31.3-10.3s31.3 4.6 31.3 10.3c0 5.7-14 10.3-31.3 10.3s-31.3-4.6-31.3-10.3m-1.1 0c0 6.2 14.5 11.3 32.5 11.3 17.9 0 32.5-5.1 32.5-11.3 0-6.2-14.5-11.3-32.5-11.3s-32.5 5-32.5 11.3"/></defs><clipPath id="Y"><use xlink:href="#X" overflow="visible"/></clipPath><g clip-path="url(#Y)"><defs><path id="Z" d="M112.8 33.9h64.9v22.6h-64.9z"/></defs><clipPath id="aa"><use xlink:href="#Z" overflow="visible"/></clipPath><linearGradient id="ab" gradientUnits="userSpaceOnUse" x1="-611.929" y1="415.903" x2="-610.817" y2="415.903" gradientTransform="matrix(0 23.701 23.701 0 -9712.047 14535.241)"><stop offset="0" stop-color="#fff"/><stop offset=".512" stop-color="#FDFDFD"/><stop offset=".691" stop-color="#F8F8F8"/><stop offset=".8" stop-color="#D1D3D4"/><stop offset="1" stop-color="#BCBEC0"/></linearGradient><path clip-path="url(#aa)" fill="url(#ab)" d="M112.8 33.9h64.9v22.6h-64.9z"/></g></g><defs><path id="ac" d="M31.6 7.6h70.1v64.3H31.6z"/></defs><clipPath><use xlink:href="#ac" overflow="visible"/></clipPath><defs><path id="ad" d="M31.6 7.6h70.1v64.3H31.6z"/></defs><clipPath><use xlink:href="#ad" overflow="visible"/></clipPath><defs><path id="ae" d="M26.8 7.6h70.1v64.3H26.8z"/></defs><clipPath id="af"><use xlink:href="#ae" overflow="visible"/></clipPath><path clip-path="url(#af)" fill="#E41E2B" d="M-63.4 50.7c-2.9-2-6.4-2.9-9.7-2.8-3.3.1-4.7 2.6-4.7 2.6-1.5-2.6-4.4-4.1-8.9-4.1-7.2.1-14.4 3.4-20.1 3.4-5.5 0-9.4-3.4-9.3-9.5.2-10.7 9.2-20.3 16-24.6 3.9-2.5 7.1-3.2 9.2-3 1.5.2 3.4 2 2.2 4.6-1.7 3.9-4.1 3.5-4 1.7 0-1.2.8-2 1.4-2.4.4-.3 1.1-.3 1.4-.3.3-.3.6-2.4-2.2-1.7-2.8.7-6.1 3.4-9.3 6.9-3.2 3.5-8.1 10.2-9.4 17.2-.6 3.2-.2 9.2 7.5 9.1 6.5-.1 16.1-4.3 25-4.3 3.4 0 6.4 1 8.7 2.4 2.5 1.4 5.2 3.4 6.2 4.8m2.1-19.3h1.3s-6.7 9.7-10.5 9.2c-2.1-.2-1.5-2.9-1.5-2.9s-3 3.5-5.7 2.8c-2.5-.6-.9-4.7-.9-4.7-.3.1-5.6 6.1-9.4 4.7-3.9-1.5-1.9-6.6-1.1-8.1.6-1.3 1.3-2.5 1.3-2.5s-.6.2-1 .3c-.4.1-.9.2-.9.2s-1.9 3-3 4.5-6 6.7-8.8 5.7c-2.8-1-2.1-5-.5-8.2 2.6-5.1 8.7-11.4 12.4-10.5 3.7 1 .6 7 .6 7s.7.1 2.5-1.1c2.6-1.8 6-6.5 9.6-5.9 1.7.3 3.3 2 1.1 5.4-.7 1.1-1.9 2-2.8 1.1-.6-.6-.1-1.7.5-2.4.8-1 2-.9 2-.9s.6-1.4-.9-1.4c-1.2 0-4.4 2.9-6.2 5.9-1.6 2.7-4.1 7.3-1.6 8.3 2.3.9 6.6-4.2 8.6-6.9s6.6-8.8 10.4-9.1c1.3-.1 2.1 1.1 2.1 1.1l.4-.7h3.8s-7.2 12.1-7.8 13c-.4.7-1 2.3.6 1.4 2-.9 5.4-5.3 5.4-5.3m-29.8-1.2c-.1 0-1-.3-2-.9-.9-.6-1.4-1.5-1.4-1.6 0-.1-.1 0-.1 0 0 .1-.2.3-1.6 2.3-1.4 2-3.4 6.1-1.5 6.8 1.2.4 3.3-1.7 4.4-3.1 1-1.3 2.2-3.3 2.3-3.5h-.1m1.5-6.5c-1-.8-3.6 1-3.6 2.8 0 1.9 2.3 2.4 2.6 2.4 0 0 .3.1.4-.2.1-.1.4-.7.7-1.6.4-.8.9-2.6-.1-3.4M-70 33.8c1.6-2.1 5.8-9.6 5.8-9.6s-.1-.5-.6-.5c-.6 0-1.6.2-3.5 2.6-2 2.5-3.5 4.4-4.6 6.4-1.2 2.2-1.7 3.8-1 4.2.2.1.5.1.7.1.5-.1 1.1-.6 1.9-1.5.3-.4.8-1 1.3-1.7m17.2-11.5h-3.6l-2.1 3.3h3.6l2.1-3.3zm47.9 25.1c-.3 0-.5.1-.8.3-.2.2-.3.5-.3.8 0 .3.1.6.3.8.2.2.5.3.8.3.3 0 .5-.1.8-.3.2-.2.3-.5.3-.8 0-.3-.1-.5-.3-.8-.2-.2-.5-.3-.8-.3m1.3 1.1c0 .3-.1.6-.4.9-.2.2-.5.4-.9.4-.3 0-.6-.1-.9-.4-.2-.2-.4-.5-.4-.9 0-.3.1-.6.4-.9.2-.2.5-.4.9-.4.3 0 .6.1.9.4.3.2.4.5.4.9m-.9-.3c0-.1 0-.2-.1-.2h-.5v.5h.4c.1-.1.2-.2.2-.3m-.9-.4h.9c.1.1.2.2.2.3 0 .1 0 .2-.1.3 0 0-.1.1-.2.1.1 0 .2.1.2.1 0 .1.1.1.1.2v.4h-.2V49c0-.2 0-.3-.1-.3h-.5v.5h-.2v-1.4zM1 16.3c-2.7 1.7-6.4 3.3-10 3-.9.9-1.9 2-2.9 3.2 6.2 1.2 11.7-2.6 14.6-5.9 1.8-2 2.7-3.9 2.7-3.9S3.7 14.6 1 16.3M-9.6 44.6c-.5.8-1.1 2.4.6 1.4 2.1-1.2 5-5.7 5-5.7h1.3s-1.8 2.8-4.1 5.3c-2.1 2.3-4.7 4.5-6.5 4.2-2.1-.2-1.5-3-1.5-3s-3 3.2-5.1 3c-2.8-.3-2-3.8-2-3.8s-3.2 3.9-5.4 3.8c-3.4-.2-2.6-4.4-1.6-7.3.5-1.6 1-2.8 1-2.8s-.3.1-1.1.2c-.4.1-1.1.1-1.1.1s-1.4 2.5-2.6 4c-1.1 1.5-6 6.7-8.8 5.7-2.6-1-1.8-5-.2-8.2 2.2-4.7 8.5-11.4 12.1-10.5 3.8.9.1 7.8.1 7.8h.7c.7-.1 1.4-.4 1.4-.4s3.8-7.9 7.9-13.1c4.5-5.1 12.8-14 16.1-11.9.8.6.4 2.4-.6 4.6-.5.2-1 .3-1.5.4.7-1.3 1.2-2.4 1.3-3.2.5-2.7-5.7 3-10.2 9-4.5 6.1-7.1 11.5-7.1 11.5s.9-.5 2.3-1.6c1.5-1.2 3.5-3 5.7-5.3 1.5-1.5 3.2-3.4 4.8-5.6.5 0 1-.1 1.4-.1-1.8 2.4-3.7 4.6-5.3 6.3-1.8 1.8-3.7 3.7-5.4 5.1-2.7 2.2-4.7 3.5-4.7 3.5s-3.9 7.9-1.8 8.4c1.2.3 3.7-3.5 3.7-3.5s3.2-4.9 5.1-7.1c2.6-3 4.9-4.7 7.2-4.8 1.3 0 2.1 1.4 2.1 1.4l.6-1H-2c.1.1-7.1 12.2-7.6 13.2m-21.6-4.8c-.1 0-.9-.4-1.8-1.1-.9-.7-1.3-1.5-1.3-1.6 0-.1-.1 0-.1 0 0 .1-.2.2-1.6 2.2-1.4 2-3.5 6.2-1.6 6.9 1.2.4 3.2-1.7 4.3-3.1 1-1.3 2-3 2-3.1.2-.2.2-.2.1-.2m2-3.4c.4-.9.8-2.7-.1-3.5-1-.8-3.6 1-3.6 2.8 0 1.9 1.8 2.7 2.2 2.8.2.1.3.1.5-.1 0-.1.6-1.1 1-2m22-2.6c.1-.1.1-.3.1-.3s-.1-.5-.6-.5c-.6 0-1.4.1-3.5 2.4s-3.4 4.4-4.5 6.4c-1.2 2.2-1.7 3.9-1 4.3.2.1.5.1.7.1.5-.1 1-.6 1.8-1.5.4-.4.8-1.1 1.3-1.8 1.5-1.9 5-7.9 5.7-9.1M1 16.3c-2.7 1.7-6.4 3.3-10 3-.9.9-1.9 2-2.9 3.2 6.2 1.2 11.7-2.6 14.6-5.9 1.8-2 2.7-3.9 2.7-3.9S3.7 14.6 1 16.3m-17.4 4.5c-2.9-1.5-5.1-3.3-7.3-4.5-2.1-1.1-3.5-1.6-5.2-1.3-.3 0-.7.2-.7.2s.9 3-2.6 8.1c-3.6 5.2-6.8 5.1-7.8 3.7-1-1.5.3-4.6 2.4-7.3 2.2-2.8 6-5.2 6-5.2s-1.2-.7-4.2 1c-2.9 1.7-8 5.6-12.7 12.3-4.7 6.7-5.6 10.3-6.3 13.2-.7 2.9-.1 6 3.1 6s6.9-4.9 8-6.6c2-3.2 3.2-8 .6-7.3-1.3.3-2.4 1.8-3 3.2-.7 1.4-1 2.8-1 2.8s-1.1.4-2.6 1.5-2.5 2.2-2.5 2.2 0-2.3 1.8-6 5.2-5.4 7.1-5.6c1.7-.1 4 1.3 2.1 6.7s-7.5 11.9-13.4 12c-5.4.1-9-6.9-1.4-19 8.4-13.4 18.2-17.5 21.4-18 3.2-.5 4.2.9 4.2.9s2.7-1.2 6.1-1c3.9.3 6.9 3 10.9 4.9-1.2 1.1-2.2 2.1-3 3.1m-14.5-5.3s-2.3.9-4.9 3.8c-2.7 2.9-4.2 6.2-3 7.1.4.3 1.4.4 3.3-1.3 1.4-1.3 2.9-3 3.9-5.4 1-2.8.7-4.1.7-4.2"/><path clip-path="url(#af)" fill="#AF1F24" d="M57.6 46.6c4.6 0 8.3-3.7 8.3-8.3 0-4.6-3.7-8.3-8.3-8.3-4.6 0-8.3 3.7-8.3 8.3 0 4.6 3.8 8.3 8.3 8.3m0 7.8c8.8 0 16-7.2 16-16s-7.2-16-16-16-16 7.2-16 16c0 8.9 7.2 16 16 16m-24-16c0-13.3 10.8-24.1 24.1-24.1s24.1 10.8 24.1 24.1S71 62.5 57.7 62.5c-13.4 0-24.1-10.8-24.1-24.1"/><path clip-path="url(#af)" fill-rule="evenodd" clip-rule="evenodd" fill="#AF1F24" d="M78.2 60.2v-.7h.5c.3 0 .5.1.5.4 0 .4-.3.4-.6.4h-.4m0 .2h.4l.6 1h.4l-.7-1.1c.4 0 .6-.2.6-.7 0-.5-.3-.7-.8-.7h-.9v2.4h.4v-.9zm-1.3-.1c0-1 .7-1.7 1.7-1.7.9 0 1.7.7 1.7 1.7s-.7 1.7-1.7 1.7-1.7-.7-1.7-1.7m1.7 2c1.1 0 2.1-.9 2.1-2.1 0-1.2-1-2.1-2.1-2.1s-2.1.9-2.1 2.1c0 1.3 1 2.1 2.1 2.1"/><defs><path id="ag" d="M31.6 7.6h70.1v64.3H31.6z"/></defs><clipPath><use xlink:href="#ag" overflow="visible"/></clipPath><defs><path id="ah" d="M31.6 7.6h70.1v64.3H31.6z"/></defs><clipPath><use xlink:href="#ah" overflow="visible"/></clipPath><defs><path id="ai" d="M31.6 7.6h70.1v64.3H31.6z"/></defs><clipPath><use xlink:href="#ai" overflow="visible"/></clipPath><defs><path id="aj" d="M31.6 7.6h70.1v64.3H31.6z"/></defs><clipPath><use xlink:href="#aj" overflow="visible"/></clipPath><defs><path id="ak" d="M31.6 7.6h70.1v64.3H31.6z"/></defs><clipPath><use xlink:href="#ak" overflow="visible"/></clipPath><defs><path id="al" d="M31.6 7.6h70.1v64.3H31.6z"/></defs><clipPath><use xlink:href="#al" overflow="visible"/></clipPath><defs><path id="am" d="M31.6 7.6h70.1v64.3H31.6z"/></defs><clipPath><use xlink:href="#am" overflow="visible"/></clipPath><defs><path id="an" d="M31.6 7.6h70.1v64.3H31.6z"/></defs><clipPath><use xlink:href="#an" overflow="visible"/></clipPath><defs><path id="ao" d="M31.6 7.6h70.1v64.3H31.6z"/></defs><clipPath><use xlink:href="#ao" overflow="visible"/></clipPath><defs><path id="ap" d="M31.6 7.6h70.1v64.3H31.6z"/></defs><clipPath><use xlink:href="#ap" overflow="visible"/></clipPath><defs><path id="aq" d="M31.6 7.6h70.1v64.3H31.6z"/></defs><clipPath><use xlink:href="#aq" overflow="visible"/></clipPath><defs><path id="ar" d="M31.6 7.6h70.1v64.3H31.6z"/></defs><clipPath><use xlink:href="#ar" overflow="visible"/></clipPath><defs><path id="as" d="M31.6 7.6h70.1v64.3H31.6z"/></defs><clipPath><use xlink:href="#as" overflow="visible"/></clipPath><defs><path id="at" d="M31.6 7.6h70.1v64.3H31.6z"/></defs><clipPath><use xlink:href="#at" overflow="visible"/></clipPath><defs><path id="au" d="M31.6 7.6h70.1v64.3H31.6z"/></defs><clipPath><use xlink:href="#au" overflow="visible"/></clipPath><defs><path id="av" d="M31.6 7.6h70.1v64.3H31.6z"/></defs><clipPath><use xlink:href="#av" overflow="visible"/></clipPath><defs><path id="aw" d="M31.6 7.6h70.1v64.3H31.6z"/></defs><clipPath><use xlink:href="#aw" overflow="visible"/></clipPath><defs><path id="ax" d="M31.6 7.6h70.1v64.3H31.6z"/></defs><clipPath><use xlink:href="#ax" overflow="visible"/></clipPath><defs><path id="ay" d="M31.6 7.6h70.1v64.3H31.6z"/></defs><clipPath><use xlink:href="#ay" overflow="visible"/></clipPath><defs><path id="az" d="M-1.3 380.4h126.1v25.1H-1.3z"/></defs><clipPath id="aA"><use xlink:href="#az" overflow="visible"/></clipPath><path clip-path="url(#aA)" fill="none" stroke="#000" stroke-width=".165" d="M-88.7-54.4h627.9v485.6H-88.7z"/><path clip-path="url(#aA)" fill="none" stroke="#fff" stroke-width=".658" d="M-112.1-64.6h674.7v506h-674.7z"/><defs><path id="aB" d="M-1.3 380.4h126.1v25.1H-1.3z"/></defs><clipPath><use xlink:href="#aB" overflow="visible"/></clipPath><defs><path id="aC" d="M-1.3 380.4h126.1v25.1H-1.3z"/></defs><clipPath><use xlink:href="#aC" overflow="visible"/></clipPath><defs><path id="aD" d="M-1.3 380.4h126.1v25.1H-1.3z"/></defs><clipPath><use xlink:href="#aD" overflow="visible"/></clipPath><defs><path id="aE" d="M-1.3 380.4h126.1v25.1H-1.3z"/></defs><clipPath><use xlink:href="#aE" overflow="visible"/></clipPath><defs><path id="aF" d="M-1.3 380.4h126.1v25.1H-1.3z"/></defs><clipPath><use xlink:href="#aF" overflow="visible"/></clipPath><defs><path id="aG" d="M-1.3 380.4h126.1v25.1H-1.3z"/></defs><clipPath><use xlink:href="#aG" overflow="visible"/></clipPath><defs><path id="aH" d="M-1.3 380.4h126.1v25.1H-1.3z"/></defs><clipPath><use xlink:href="#aH" overflow="visible"/></clipPath><defs><path id="aI" d="M-1.3 380.4h126.1v25.1H-1.3z"/></defs><clipPath><use xlink:href="#aI" overflow="visible"/></clipPath><defs><path id="aJ" d="M-1.3 380.4h126.1v25.1H-1.3z"/></defs><clipPath><use xlink:href="#aJ" overflow="visible"/></clipPath><defs><path id="aK" d="M-1.3 380.4h126.1v25.1H-1.3z"/></defs><clipPath><use xlink:href="#aK" overflow="visible"/></clipPath><defs><path id="aL" d="M-1.3 380.4h126.1v25.1H-1.3z"/></defs><clipPath><use xlink:href="#aL" overflow="visible"/></clipPath><defs><path id="aM" d="M-1.3 380.4h126.1v25.1H-1.3z"/></defs><clipPath><use xlink:href="#aM" overflow="visible"/></clipPath><defs><path id="aN" d="M-1.3 380.4h126.1v25.1H-1.3z"/></defs><clipPath><use xlink:href="#aN" overflow="visible"/></clipPath><defs><path id="aO" d="M-1.3 380.4h126.1v25.1H-1.3z"/></defs><clipPath><use xlink:href="#aO" overflow="visible"/></clipPath><defs><path id="aP" d="M-1.3 380.4h126.1v25.1H-1.3z"/></defs><clipPath><use xlink:href="#aP" overflow="visible"/></clipPath><defs><path id="aQ" d="M-1.3 380.4h126.1v25.1H-1.3z"/></defs><clipPath><use xlink:href="#aQ" overflow="visible"/></clipPath><defs><path id="aR" d="M-1.3 380.4h126.1v25.1H-1.3z"/></defs><clipPath><use xlink:href="#aR" overflow="visible"/></clipPath><defs><path id="aS" d="M-1.3 380.4h126.1v25.1H-1.3z"/></defs><clipPath><use xlink:href="#aS" overflow="visible"/></clipPath><defs><path id="aT" d="M-1.3 380.4h126.1v25.1H-1.3z"/></defs><clipPath><use xlink:href="#aT" overflow="visible"/></clipPath><defs><path id="aU" d="M-1.3 380.4h126.1v25.1H-1.3z"/></defs><clipPath><use xlink:href="#aU" overflow="visible"/></clipPath><defs><path id="aV" d="M-1.3 380.4h126.1v25.1H-1.3z"/></defs><clipPath><use xlink:href="#aV" overflow="visible"/></clipPath><defs><path id="aW" d="M-1.3 380.4h126.1v25.1H-1.3z"/></defs><clipPath><use xlink:href="#aW" overflow="visible"/></clipPath><defs><path id="aX" d="M-1.3 380.4h126.1v25.1H-1.3z"/></defs><clipPath><use xlink:href="#aX" overflow="visible"/></clipPath><defs><path id="aY" d="M-1.3 380.4h126.1v25.1H-1.3z"/></defs><clipPath><use xlink:href="#aY" overflow="visible"/></clipPath><defs><path id="aZ" d="M-1.3 380.4h126.1v25.1H-1.3z"/></defs><clipPath><use xlink:href="#aZ" overflow="visible"/></clipPath><defs><path id="ba" d="M-1.3 380.4h126.1v25.1H-1.3z"/></defs><clipPath><use xlink:href="#ba" overflow="visible"/></clipPath><defs><path id="bb" d="M-1.3 380.4h126.1v25.1H-1.3z"/></defs><clipPath><use xlink:href="#bb" overflow="visible"/></clipPath><defs><path id="bc" d="M-1.3 380.4h126.1v25.1H-1.3z"/></defs><clipPath><use xlink:href="#bc" overflow="visible"/></clipPath><defs><path id="bd" d="M-1.3 380.4h126.1v25.1H-1.3z"/></defs><clipPath><use xlink:href="#bd" overflow="visible"/></clipPath><defs><path id="be" d="M-1.3 380.4h126.1v25.1H-1.3z"/></defs><clipPath><use xlink:href="#be" overflow="visible"/></clipPath><defs><path id="bf" d="M-1.3 380.4h126.1v25.1H-1.3z"/></defs><clipPath id="bg"><use xlink:href="#bf" overflow="visible"/></clipPath><path clip-path="url(#bg)" fill="#E41E2B" d="M114.3 67c-4.7-3.3-10.5-4.8-15.7-4.6-5.3.2-7.7 4.2-7.7 4.2-2.4-4.2-7.1-6.7-14.4-6.7-11.8.1-23.5 5.6-32.7 5.6-8.9 0-15.4-5.6-15.1-15.5.4-17.4 15-33 26-40.1C61 5.8 66.3 4.6 69.7 5c2.5.3 5.6 3.2 3.6 7.5-2.8 6.3-6.7 5.8-6.5 2.8.1-1.9 1.4-3.2 2.4-3.8.6-.4 1.7-.6 2.3-.6.6-.5 1-3.9-3.5-2.8s-10 5.6-15.1 11.3c-5.3 5.8-13.4 16.6-15.3 28-.9 5.3-.3 14.9 12.2 14.8 10.6-.1 26.2-7.1 40.6-6.9 5.6 0 10.4 1.5 14.2 3.9 3.7 2.2 8.1 5.5 9.7 7.8m3.4-31.5h2.2s-10.9 15.7-17 15c-3.4-.4-2.4-4.6-2.4-4.6s-4.8 5.6-9.2 4.5c-4-1-1.4-7.7-1.4-7.7-.5.2-9.1 10-15.2 7.6-6.4-2.5-3.1-10.7-1.9-13.1 1-2.1 2.2-4.1 2.2-4.1s-1 .3-1.6.4c-.6.1-1.5.3-1.5.3s-3 4.9-4.9 7.4c-1.8 2.5-9.7 10.9-14.3 9.2-4.6-1.7-3.5-8.1-.9-13.3C56 28.8 66 18.5 72 20c6.1 1.6 1.1 11.4 1.1 11.4s1.2.2 4.1-1.8c4.2-2.9 9.7-10.5 15.7-9.6 2.8.4 5.4 3.3 1.8 8.8-1.1 1.8-3.1 3.3-4.5 1.8-.9-1-.1-2.7.8-3.9 1.4-1.7 3.2-1.5 3.2-1.5s1-2.3-1.5-2.2c-2 0-7.2 4.8-10.1 9.6-2.7 4.4-6.7 11.9-2.6 13.5 3.7 1.5 10.8-6.9 14-11.3 3.3-4.4 10.7-14.4 17-14.8 2.1-.1 3.4 1.8 3.4 1.8l.7-1.1h6.2s-11.8 19.7-12.7 21.1c-.7 1.2-1.7 3.8 1 2.3 2.6-1.4 8.1-8.6 8.1-8.6m-48.5-2c-.1 0-1.7-.5-3.2-1.5-1.5-1-2.2-2.4-2.3-2.5-.1-.1-.1 0-.2.1s-.4.5-2.6 3.8-5.5 10-2.4 11.1c2 .7 5.3-2.7 7.1-5 1.7-2.1 3.7-5.4 3.7-5.6.1-.3.1-.3-.1-.4m2.5-10.4c-1.6-1.2-5.8 1.7-5.8 4.6 0 3 3.8 3.9 4.3 3.9 0 0 .4.1.6-.2.1-.2.6-1.2 1.2-2.7.5-1.5 1.2-4.4-.3-5.6m31.8 16.4C106 36 113 23.9 113 23.9s-.1-.9-.9-.9c-1 0-2.6.3-5.8 4.3-3.2 4-5.7 7.2-7.5 10.5-2 3.6-2.8 6.2-1.7 6.8.3.2.8.2 1.2.1.7-.2 1.7-.9 3-2.5.7-.7 1.4-1.6 2.2-2.7m28.1-18.8h-5.9l-3.3 5.4h5.9l3.3-5.4zm77.9 40.9c-.5 0-.9.2-1.2.5-.3.3-.5.8-.5 1.2 0 .5.2.9.5 1.3.3.3.7.5 1.2.5s.9-.2 1.2-.5c.3-.4.5-.8.5-1.3s-.2-.9-.5-1.2c-.3-.3-.7-.5-1.2-.5m2 1.7c0 .6-.2 1-.6 1.4-.4.4-.9.6-1.4.6-.6 0-1-.2-1.4-.6-.4-.4-.6-.9-.6-1.4 0-.6.2-1 .6-1.4.4-.4.9-.6 1.4-.6.6 0 1 .2 1.4.6.5.4.6.9.6 1.4m-1.4-.4c0-.2-.1-.3-.1-.3-.1-.1-.3-.1-.5-.1h-.3v.8h.8c0-.1.1-.2.1-.4m-1.4-.7h.8c.3 0 .5 0 .6.1.2.1.3.3.3.6 0 .2-.1.3-.2.4-.1.1-.2.1-.3.1.2 0 .3.1.4.2.1.1.1.2.1.3v.5h-.4V64.1c0-.3-.1-.4-.2-.5-.1-.1-.2-.1-.4-.1h-.3v.9h-.4v-2.2zM219.1 11c-4.4 2.8-10.5 5.4-16.3 4.8-1.5 1.5-3.1 3.3-4.6 5.2 10.1 2 19-4.3 23.7-9.6 2.9-3.3 4.4-6.3 4.4-6.3s-2.8 3.1-7.2 5.9m-17.3 45.9c-.8 1.3-1.8 3.9 1 2.3 3.4-2 8.2-9.2 8.2-9.2h2.2s-2.9 4.5-6.6 8.7c-3.4 3.8-7.6 7.2-10.5 6.9-3.4-.4-2.4-4.9-2.4-4.9s-4.9 5.2-8.3 4.9c-4.6-.5-3.2-6.2-3.2-6.2s-5.2 6.4-8.7 6.2c-5.5-.3-4.2-7.1-2.6-11.8.8-2.5 1.6-4.5 1.6-4.5s-.6.1-1.7.3c-.6.1-1.7.2-1.7.2s-2.3 4.1-4.2 6.5c-1.8 2.5-9.7 10.9-14.3 9.2-4.3-1.6-2.9-8.1-.4-13.3 3.6-7.6 13.8-18.5 19.7-17 6.1 1.5.1 12.6.1 12.6l.1.1c.1 0 .4.1 1.2-.1 1.2-.2 2.2-.7 2.2-.7s6.1-12.9 12.9-21.3c6.8-8.4 20.3-22.9 25.6-19.4 1.3.9.7 3.8-1 7.4-.8.2-1.6.5-2.4.6 1.2-2.1 1.9-3.9 2.2-5.2.8-4.3-9.3 4.8-16.6 14.7-7.2 9.9-11.6 18.8-11.6 18.8s1.5-.8 3.7-2.7c2.4-1.9 5.6-4.9 9.2-8.6 2.4-2.5 5.2-5.6 7.8-9 .8 0 1.6-.1 2.3-.2-2.9 4-6 7.6-8.6 10.2-2.9 2.9-6 6.1-8.7 8.4-4.3 3.6-7.7 5.7-7.7 5.7s-6.3 12.8-2.9 13.6c2 .5 6-5.7 6-5.7s5.2-8 8.4-11.6c4.3-4.9 8-7.7 11.7-7.8 2.2 0 3.4 2.3 3.4 2.3l1-1.6h6.2c-.1 0-11.7 19.8-12.6 21.2m-35.1-7.7c-.1 0-1.5-.7-2.9-1.8-1.4-1.2-2.1-2.5-2.2-2.6-.1-.1-.1 0-.2.1s-.3.3-2.5 3.6c-2.2 3.3-5.6 10-2.5 11.2 2 .7 5.3-2.7 7.1-5 1.7-2.1 3.2-4.9 3.3-5 .1-.5 0-.5-.1-.5m3.2-5.6c.6-1.5 1.3-4.5-.2-5.6-1.6-1.2-5.8 1.7-5.8 4.6 0 3 2.9 4.4 3.7 4.6.4.1.5.1.7-.2 0-.2 1-1.8 1.6-3.4m35.8-4.1l.2-.4s-.1-.9-.9-.9c-1 0-2.3.1-5.7 4-3.4 3.8-5.5 7.1-7.3 10.4-2 3.6-2.8 6.3-1.6 7 .3.2.8.2 1.2.1.8-.2 1.6-.9 3-2.4.6-.7 1.3-1.7 2.1-2.9 2.1-3.2 7.8-13 9-14.9M219.1 11c-4.4 2.8-10.5 5.4-16.3 4.8-1.5 1.5-3.1 3.3-4.6 5.2 10.1 2 19-4.3 23.7-9.6 2.9-3.3 4.4-6.3 4.4-6.3s-2.8 3.1-7.2 5.9m-28.4 7.3c-4.8-2.5-8.3-5.4-11.9-7.3-3.5-1.8-5.7-2.5-8.5-2.1-.5.1-1.2.3-1.2.3s1.5 4.9-4.3 13.2c-5.8 8.4-11.1 8.4-12.6 6-1.6-2.4.5-7.4 3.8-11.8 3.6-4.6 9.8-8.5 9.8-8.5s-2-1.2-6.9 1.6c-4.8 2.7-13 9.1-20.6 20-7.6 10.8-9.1 16.8-10.2 21.5-1.1 4.7-.1 9.7 5.1 9.7 5.2 0 11.3-7.9 13-10.7 3.2-5.1 5.2-13 .9-11.9-2.1.5-3.9 2.9-4.9 5.2-1.1 2.3-1.6 4.6-1.6 4.6s-1.8.6-4.2 2.5c-2.4 1.8-4 3.5-4 3.5s0-3.7 3-9.8c3-6.1 8.5-8.9 11.6-9.1 2.8-.2 6.4 2.1 3.4 10.9-3.1 8.8-12.2 19.4-21.8 19.6-8.8.1-14.6-11.2-2.3-30.8 13.5-22 29.5-28.7 34.7-29.5 5.2-.7 6.9 1.5 6.9 1.5s4.3-2 9.9-1.6c6.3.4 11.2 4.9 17.7 8.1-1.8 1.6-3.4 3.3-4.8 4.9m-23.6-8.5s-3.7 1.5-8 6.2c-4.3 4.8-6.8 10.1-5 11.5.7.5 2.4.6 5.3-2.1 2.3-2.1 4.7-4.8 6.3-8.8 2-4.6 1.4-6.8 1.4-6.8"/></svg>