<svg xmlns="http://www.w3.org/2000/svg" xmlns:xlink="http://www.w3.org/1999/xlink" viewBox="0 0 146.3 95.6" enable-background="new 0 0 146.3 95.6"><defs><path id="a" d="M17.7 140h98.6v51.5H17.7z"/></defs><clipPath><use xlink:href="#a" overflow="visible"/></clipPath><g fill="#A80533"><path d="M32.2 42.2c-.4 1.1-2.8 2.2-8.8.9l.8 3.5c6 1.1 9.5.2 11.5-1.9 1.5-1.6 1.8-3.6.6-5.2-1.3-1.6-4.2-2.8-7.8-2.8-5.2 0-8.9 1.5-11 7.2l-2.8 7.6h4.8l2.7-7.7c1.1-3.2 3.5-3.7 6.1-3.7 3 0 4.3 1.1 3.9 2.1M88.9 43.8c-1.1-.6-3-1.1-4.9-1.2-3.8-.2-8.2 1.1-9 4.2-.5 1.8 1.2 4.2 5.7 4.8 2.2.3 5.8.3 8.4-.6l1-2.6c-5.2 1.8-12 1.3-11.7-1.4 2.5 1.6 6.2 1.5 8.9 1 4.6-.7 4.5-2.7 1.6-4.2m-8.8 1.8l-.2-.1c1.1-.4 2.3-.7 3.4-.7.7 0 2.3.1 2.9.5.2.1.3.2.2.4-.2.7-4.5.7-6.3-.1M105.7 43.8c-1.1-.6-3-1.1-4.9-1.2-3.8-.2-8.2 1.1-9 4.2-.5 1.8 1.2 4.2 5.7 4.8 2.2.3 5.8.3 8.4-.6l1-2.6c-5.2 1.8-12 1.3-11.7-1.4 2.5 1.6 6.2 1.5 8.9 1 4.5-.7 4.4-2.7 1.6-4.2m-8.8 1.8l-.2-.1c1.1-.4 2.3-.7 3.4-.7.7 0 2.3.1 2.9.5.2.1.3.2.2.4-.2.7-4.5.7-6.3-.1M109.2 46.1l-1.9 5.4h4.4l1.5-4.2c.4-1.1.7-1.8 2-1.8h3.1l.9-2.5h-5.7c-2 0-3.5.9-4.3 3.1"/><path d="M35.1 51.5h4.6l3.1-8.5h-4.6zM64.8 46.9c.4-1.2 1.7-1.7 2.8-1.7 1.1 0 2.2.7 1.8 1.8l-1.6 4.5h4.4l1.7-4.6c.9-2.4-1-4.3-5.2-4.3-4.7 0-7.3 1.5-8.3 4.3l-1.7 4.6h4.4l1.7-4.6zM51.8 42.6c-4.6-.2-8.7 1.8-9.3 4.3-.5 2.5 2.6 4.8 7.2 4.9 4.6.2 8.7-1.8 9.3-4.3.5-2.4-2.6-4.7-7.2-4.9m-.6 2.7c1.8.1 3.2 1 3 2.1-.2 1.1-2 1.9-3.8 1.8-1.8-.1-3.2-1-3-2.1.2-1.1 1.9-1.9 3.8-1.8"/></g></svg>