<svg xmlns="http://www.w3.org/2000/svg" viewBox="0 0 300 200" enable-background="new 0 0 300 200"><path fill="#fff" d="M202 33h-67.4c-1.6 3.2-39.8 69.5-14.7 134.4 1.6 3.4 2.9 6.8 4.8 10.4 0 0 59.3-29.2 74.9-126C201.6 41 202 33 202 33"/><path fill="none" stroke="#fff" stroke-width="3.741" d="M202 33h-67.4c-1.6 3.2-39.8 69.5-14.7 134.4 1.6 3.4 2.9 6.8 4.8 10.4 0 0 59.3-29.2 74.9-126C201.6 41 202 33 202 33z"/><path fill="#006BB6" d="M172.9 38.2h5.7c3.8 0 6.8 1.6 6.3 3.6-.5 1.4-1.6 2.7-3.4 3.4 1.4.5 2.9 1.6 2.5 3.6-.7 2.5-5 4.1-9.3 4.1h-5.4l3.6-14.7zm5.6 10.4c.2-1.4-.9-1.8-1.8-1.8h-.5l-.9 3.4h.5c.9 0 2.3-.4 2.7-1.6m1.1-6.1c.2-1.4-1.1-1.6-1.8-1.6h-.2l-.7 3.2h.5c.4 0 2-.2 2.2-1.6"/><path fill="#006BB6" d="M149.5 38.2l-.9 2.3c-1.1 3.2-2.7 6.3-2.7 6.3s-.5-4.3.2-8.6H141c-1.4 4.3-4.1 8.6-4.1 8.6s0-3.2.2-6.3l.2-2.3h-5.4c-1.1 6.3.7 14.9.7 14.9h4.5c1.6-2.7 3.6-6.6 4.3-7.9v.5c0 1.4.2 4.8.5 7.5h4.5s6.1-8.6 8.1-14.9h-5zM183.3 53.2h5.7c.5-1.1.7-2.3 1.1-3.2h4.1c0 .9 0 2-.2 3.2h5.4l.2-2.3c.2-7-2.7-12.7-2.7-12.7h-4.1c-8 9.1-9.5 15-9.5 15m8.1-5.9c.9-1.8 1.8-3.2 2-3.6v-.2c.2.7.5 2 .5 3.8h-2.5z"/><path fill="#ED174C" d="M168.6 55.2c.2 0 .5.2.7.5 1.1.7 2.5 2 2.5 2.9 0 .5-.5.7-.5.7v2c0 .7-.7 1.6-.7 1.6s.7 1.1.5 1.8c-.2.5-.9 2.9-1.6 4.5-.2.7-.5 1.8-2 1.6-.7 0-1.1-.2-1.1-.2-.2.5-.5 1.1-.5 1.1s-.2.7.9 1.1c.2.2 1.1.7 1.1.7l.2-.2 2.3.9v.2s1.4.5 1.8.7c1.6.9 2.7 2.3 3.4 3.6.7 1.6.9 3.8.9 4.8 0 0 3.8 3.4 3.8 16.1 0 1.4-9 4.3-10.4 4.3.5 6.1-3.2 14.3-5.4 18.1-1.8 2.9-3.6 5.7-5.4 8.1l-.5-.2c-3.8 5.7-8.1 11.1-9.5 12-.5.5-.9.5-1.4.9-.9 1.4-2.5 2.9-3.2 3.6-.7.7-7.9 6.3-13.1 10.2 0 .2.2.5 0 .7-.7.5-1.4 1.1-1.8 1.4-.5.5-.2.7-.5.9-2 1.6-3.2 1.6-3.2 2.3-.5 2.3 1.1 4.3 1.1 5.9 0 1.4-.9 2-1.1 2 0 0-2.7.2-3.8.2-.7 0-1.4-.5-1.8-.7 1.4 2.9 2.7 5.9 4.1 9 0 0 57.9-28.5 74.4-122.6h-30.3v-.5zM171 86c-.9 4.8-.5 5-2 9l.5 4.1 5-3.2v-.5c-1.4-1.6-3.2-7-2.9-9.3l-.6-.1z"/><path fill="#006BB6" d="M124.7 55.2h-.2c-9.7 25.3-21 68.6-4.8 111.3.2-.9.2-2.3.5-3.4.5-1.1-.2-3.4 0-3.6 3.4-4.8 5.9-4.8 6.1-5l2-2c.2-.2.5-.2.7 0 1.8-1.6 3.6-3.6 4.8-5.2 1.8-2.5 2.3-4.5 3.8-5.9 2-1.8 2.7-1.6 5.9-2.7 0-.7 1.1-4.1 2.9-7 1.1-1.8 5.4-10.6 5.4-10.9 0 0-.5-.2-.7-.2s-10.4 14.5-12 15.8c-.5.5-1.1.9-2.5 1.4 0 0-.2 1.1-1.6 1.8-.7.5-1.8.7-2.5.7l-1.1.9c-.2.2-1.1 2.3-1.6 2.9-.2.5-.7 1.1-1.1 1.6-.5.5-1.1 1.4-2.5 1.6s-2.3-.5-2.5-1.4c-.5-1.1-.5-2.7.7-5 .7-1.4 3.2-2.7 4.1-3.4 0 0 .2-1.1.5-1.6 0-.5.5-2.3 1.4-2.9 1.1-.9 2-.9 2.7-.9 0 0 0-.7.2-2.3.7-3.2 3.6-8.8 4.3-10.9-.5-.2-.7-.5-.7-.5 1.1-2.5 3.4-7.2 4.8-9.5 5.9-10 11.8-12.9 11.8-12.9s-.2-.5-.2-1.8c0-.9-.5-4.8-.5-4.8s-1.4-.5-2-2.5c-.5-1.8 0-4.8 0-4.8.2-1.1 0-2.3 0-2.3l-1.4-.2c-2 1.8-11.8 5-11.8 5-2.3 2.3-7.9 4.5-10.2 6.3 2.5 1.4 4.3 3.8 4.5 6.8v.9c0 2.7-1.6 5.7-3.8 7-1.4.9-3.2 1.6-5 1.6-4.8 0-8.6-3.8-8.6-8.6 0-4.3 3.2-7.9 7.2-8.6.7-.2 1.1-.5 1.4-.5.5-.2 1.4-1.6 2.3-2.3 2.9-2.5 5.7-7.5 11.1-7.5.2 0 7.2-4.5 7.2-4.5 2-2.3 3.2-2.7 4.8-3.2s4.8-.9 4.8-.9v-.2l2.5-.2v.2l3.4-.9c.2-.5.7-1.8.9-2.7.9-2.5-3.2-3.8-4.5-6.1l1.1.2c-.9.5-1.6-.7-1.6-.7 2.5.9 4.5-3.4 7.5-5.4.2-.2.7-.5.9-.5h-38.8z"/><path fill="#ED174C" d="M133 36.2h68.6c.2-1.8.2-2.9.2-2.9h-67.2c0 .2-.7 1.1-1.6 2.9"/><path fill="#006BB6" d="M166.1 38.2l-1.8 7v.5l-3.8-7.5h-4.3l-3.6 14.9h4.8l1.8-7.5 3.8 7.5h4.3l3.6-14.9h-4.8z"/><path fill="none" d="M98.9 17.4H212v164.9H98.9zM98.9 17.4H212v164.9H98.9zM98.9 17.4H212v164.9H98.9zM98.9 17.4H212v164.9H98.9zM98.9 17.4H212v164.9H98.9zM98.9 17.4H212v164.9H98.9zM98.9 17.4H212v164.9H98.9zM98.9 17.4H212v164.9H98.9zM98.9 17.4H212v164.9H98.9zM98.9 17.4H212v164.9H98.9zM98.9 17.4H212v164.9H98.9zM98.9 17.4H212v164.9H98.9zM98.9 17.4H212v164.9H98.9zM98.9 17.4H212v164.9H98.9zM98.9 17.4H212v164.9H98.9zM98.9 17.4H212v164.9H98.9zM98.9 17.4H212v164.9H98.9zM98.9 17.4H212v164.9H98.9zM98.9 17.4H212v164.9H98.9zM98.9 17.4H212v164.9H98.9zM98.9 17.4H212v164.9H98.9zM98.9 17.4H212v164.9H98.9zM98.9 17.4H212v164.9H98.9zM98.9 17.4H212v164.9H98.9zM98.9 17.4H212v164.9H98.9zM98.9 17.4H212v164.9H98.9zM98.9 17.4H212v164.9H98.9zM98.9 17.4H212v164.9H98.9zM98.9 17.4H212v164.9H98.9zM98.9 17.4H212v164.9H98.9zM98.9 17.4H212v164.9H98.9zM98.9 17.4H212v164.9H98.9zM98.9 17.4H212v164.9H98.9zM98.9 17.4H212v164.9H98.9zM98.9 17.4H212v164.9H98.9zM98.9 17.4H212v164.9H98.9zM98.9 17.4H212v164.9H98.9z"/></svg>