<svg xmlns="http://www.w3.org/2000/svg" xmlns:xlink="http://www.w3.org/1999/xlink" viewBox="0 0 132 57.2" enable-background="new 0 0 132 57.2"><defs><path id="a" d="M-133.8-10.7h52.2v72.9h-52.2z"/></defs><clipPath><use xlink:href="#a" overflow="visible"/></clipPath><defs><path id="b" d="M-303.3 109.5h63.5v60.9h-63.5z"/></defs><clipPath><use xlink:href="#b" overflow="visible"/></clipPath><defs><path id="c" d="M-133.8-127.8h70.1v64.3h-70.1z"/></defs><clipPath id="d"><use xlink:href="#c" overflow="visible"/></clipPath><path clip-path="url(#d)" fill="none" stroke="#000" stroke-width=".101" d="M-348.8-159.3H37.3v298.6h-386.1z"/><path clip-path="url(#d)" fill="none" stroke="#fff" stroke-width=".405" d="M-363.1-165.6H51.7v311.1h-414.8z"/><defs><path id="e" d="M-133.8-127.8h70.1v64.3h-70.1z"/></defs><clipPath id="f"><use xlink:href="#e" overflow="visible"/></clipPath><path clip-path="url(#f)" fill="#876912" d="M-1 57.1l-1.5-2.8h-6.7l-1.5 2.8H-13l6.2-11.4H-5l6.3 11.4H-1zm-4.9-9.2l-2.5 4.8h5l-2.5-4.8zM1.3 46.5c0 .4-.4.8-.8.8s-.8-.4-.8-.8c0-.5.4-.8.8-.8s.8.4.8.8m-1.5 0c0 .4.3.7.7.7.4 0 .7-.3.7-.7 0-.4-.3-.7-.7-.7-.4.1-.7.3-.7.7m.4-.4h.3c.1 0 .3 0 .3.2s-.1.2-.2.2c.1 0 .1.1.1.2v.2-.3c0-.1 0-.1-.1-.1H.4v.5H.2v-.9zm.2.4h.1c.1 0 .1-.1.1-.1 0-.1-.1-.1-.1-.1H.4v.2z"/><defs><path id="g" d="M-166.7 245h126.1v25.1h-126.1z"/></defs><clipPath id="h"><use xlink:href="#g" overflow="visible"/></clipPath><path clip-path="url(#h)" fill="none" stroke="#000" stroke-width=".165" d="M-254.1-189.8h627.9v485.6h-627.9z"/><path clip-path="url(#h)" fill="none" stroke="#fff" stroke-width=".658" d="M-277.5-200h674.7v506h-674.7z"/><path clip-path="url(#h)" fill="#fff" d="M161.4-10l-23-.1c-3.9 0-7 3.1-7 7v69.2c0 3.9 3.2 7 7 7l23 .1c3.9 0 7-3.1 7-7V-2.9c0-3.9-3.1-7-7-7.1"/><defs><path id="i" d="M-166.7 245h126.1v25.1h-126.1z"/></defs><clipPath><use xlink:href="#i" overflow="visible"/></clipPath><defs><path id="j" d="M-166.7 245h126.1v25.1h-126.1z"/></defs><clipPath><use xlink:href="#j" overflow="visible"/></clipPath><defs><path id="k" d="M-166.7 245h126.1v25.1h-126.1z"/></defs><clipPath><use xlink:href="#k" overflow="visible"/></clipPath><defs><path id="l" d="M-166.7 245h126.1v25.1h-126.1z"/></defs><clipPath><use xlink:href="#l" overflow="visible"/></clipPath><defs><path id="m" d="M-166.7 245h126.1v25.1h-126.1z"/></defs><clipPath><use xlink:href="#m" overflow="visible"/></clipPath><defs><path id="n" d="M-166.7 245h126.1v25.1h-126.1z"/></defs><clipPath><use xlink:href="#n" overflow="visible"/></clipPath><defs><path id="o" d="M-166.7 245h126.1v25.1h-126.1z"/></defs><clipPath><use xlink:href="#o" overflow="visible"/></clipPath><defs><path id="p" d="M-166.7 245h126.1v25.1h-126.1z"/></defs><clipPath><use xlink:href="#p" overflow="visible"/></clipPath><defs><path id="q" d="M-166.7 245h126.1v25.1h-126.1z"/></defs><clipPath><use xlink:href="#q" overflow="visible"/></clipPath><defs><path id="r" d="M-166.7 245h126.1v25.1h-126.1z"/></defs><clipPath><use xlink:href="#r" overflow="visible"/></clipPath><defs><path id="s" d="M-166.7 245h126.1v25.1h-126.1z"/></defs><clipPath><use xlink:href="#s" overflow="visible"/></clipPath><defs><path id="t" d="M-166.7 245h126.1v25.1h-126.1z"/></defs><clipPath><use xlink:href="#t" overflow="visible"/></clipPath><defs><path id="u" d="M-166.7 245h126.1v25.1h-126.1z"/></defs><clipPath><use xlink:href="#u" overflow="visible"/></clipPath><defs><path id="v" d="M-166.7 245h126.1v25.1h-126.1z"/></defs><clipPath><use xlink:href="#v" overflow="visible"/></clipPath><defs><path id="w" d="M-166.7 245h126.1v25.1h-126.1z"/></defs><clipPath><use xlink:href="#w" overflow="visible"/></clipPath><defs><path id="x" d="M-166.7 245h126.1v25.1h-126.1z"/></defs><clipPath><use xlink:href="#x" overflow="visible"/></clipPath><defs><path id="y" d="M-166.7 245h126.1v25.1h-126.1z"/></defs><clipPath><use xlink:href="#y" overflow="visible"/></clipPath><defs><path id="z" d="M-166.7 245h126.1v25.1h-126.1z"/></defs><clipPath><use xlink:href="#z" overflow="visible"/></clipPath><defs><path id="A" d="M-166.7 245h126.1v25.1h-126.1z"/></defs><clipPath><use xlink:href="#A" overflow="visible"/></clipPath><defs><path id="B" d="M-166.7 245h126.1v25.1h-126.1z"/></defs><clipPath><use xlink:href="#B" overflow="visible"/></clipPath><defs><path id="C" d="M-166.7 245h126.1v25.1h-126.1z"/></defs><clipPath><use xlink:href="#C" overflow="visible"/></clipPath><defs><path id="D" d="M-166.7 245h126.1v25.1h-126.1z"/></defs><clipPath><use xlink:href="#D" overflow="visible"/></clipPath><defs><path id="E" d="M-166.7 245h126.1v25.1h-126.1z"/></defs><clipPath><use xlink:href="#E" overflow="visible"/></clipPath><defs><path id="F" d="M-166.7 245h126.1v25.1h-126.1z"/></defs><clipPath><use xlink:href="#F" overflow="visible"/></clipPath><defs><path id="G" d="M-166.7 245h126.1v25.1h-126.1z"/></defs><clipPath><use xlink:href="#G" overflow="visible"/></clipPath><defs><path id="H" d="M-166.7 245h126.1v25.1h-126.1z"/></defs><clipPath><use xlink:href="#H" overflow="visible"/></clipPath><defs><path id="I" d="M-166.7 245h126.1v25.1h-126.1z"/></defs><clipPath><use xlink:href="#I" overflow="visible"/></clipPath><defs><path id="J" d="M-166.7 245h126.1v25.1h-126.1z"/></defs><clipPath><use xlink:href="#J" overflow="visible"/></clipPath><defs><path id="K" d="M-166.7 245h126.1v25.1h-126.1z"/></defs><clipPath><use xlink:href="#K" overflow="visible"/></clipPath><defs><path id="L" d="M-166.7 245h126.1v25.1h-126.1z"/></defs><clipPath><use xlink:href="#L" overflow="visible"/></clipPath><defs><path id="M" d="M-166.7 245h126.1v25.1h-126.1z"/></defs><clipPath id="N"><use xlink:href="#M" overflow="visible"/></clipPath><path clip-path="url(#N)" fill="#fff" d="M5.1 58.1c-4.4 0-8-3.6-8-8V13.6c0-4.4 3.6-8 8-8h81.7c4.4 0 8 3.6 8 8v36.5c0 4.4-3.6 8-8 8H5.1z"/><path clip-path="url(#N)" fill="#ED174C" d="M90.5 9.8c-1-1-2.3-1.6-3.8-1.6H64l13.1 21.9 1.2.1.7 1v.9l.9.1.8 1.1v.9l.9.1.8.9v2.1s1.8 1.7 3.5 2.3c1.2.4 1.3 2.3 2 3.3.9 1.4 2.1 2 1.9 2.8-.6 2.1-2.8 5.8-4.8 6h-8.1v3.5H87c2.9 0 5.3-2.4 5.3-5.3V13.6c-.2-1.4-.8-2.8-1.8-3.8"/><path clip-path="url(#N)" fill="#004684" d="M56.2 8.4h-51c-1.4 0-2.8.6-3.8 1.6s-1.6 2.3-1.6 3.8v36.5c0 1.4.6 2.8 1.6 3.8s2.3 1.6 3.8 1.6h33.2c-.8-1.4-1.8-3-2.1-3.4h-4c0-9.8 3.3-15.3 7.3-16.3.5-.1.3-2.8-.4-3.6 0 0-1.9.1-2.3-.1-.5-.1-.2-.6-.2-.6l1.8-4-.2-1.1h-6.9c-.1 0 5.6-4 5.6-4 .3-10.4 11-11.2 17.4-6.9 3.8 2.6 4.1 7.6 3.8 11.1-.1.2-1 .1-1 .1s-.6 3.8 1.1 3.8h7.5c3.1-.1 6 1.9 6 1.9l.7-2.6L56.2 8.4zM10.8 48c-2 0-3.6-1.6-3.6-3.6s1.6-3.7 3.6-3.7 3.6 1.6 3.6 3.6c.1 2-1.6 3.7-3.6 3.7"/><path clip-path="url(#N)" fill="#ED174C" d="M91.3 56.9h-.8v2.3h-.6v-2.3H89v-.5h2.2v.5zm3.7 2.3h-.6V57l-.8 2.2h-.5l-.8-2.2v2.2h-.6v-2.8h1l.6 1.8.7-1.8h1v2.8z"/><path fill="#919697" d="M17.6 31.1V10.8h5.1v15.6h5.1v4.7zM22.7 10.6h-5.3v20.7H28v-5.1h-5.1V10.6h-.2l-.2.4v15.6h5.1v4.3h-9.8V11h4.7zM60.2 31.1V15.2H57v-4.3h11.5v4.3h-3.2v15.9zM68.5 10.7H56.8v4.7H60v15.9h5.5V15.4h3.2v-4.7h-.2l-.2.4V15h-3.2v15.9h-4.7V15h-3.2v-3.9h11.1zM70 10.8h4.9v20.3H70zM74.9 10.6h-5.1v20.7h5.3V10.6h-.2l-.2.4v19.9h-4.5V11h4.5zM81.1 17v14.1h-4.8V10.8h7.5l1.5 11.3.1-.9 1.7-10.4h7.1v20.3h-4.8V17l-.2 1L87 31.1h-3.8zM94.2 10.6h-7.3l-1.6 10-1.3-10h-7.9v20.7h5.2V20L83 31.3h4.2l2-11.8v11.8h5.2V10.6h-.2l-.2.4v19.9h-4.4V17h-.4l-.2 1-2.2 12.9h-3.3L81.3 17h-.4v13.9h-4.4V11h7.1l1.5 11.1h.3l.2-.9L87.2 11H94zM35.8 31.1V10.9h8.9v4.4h-3.8v3.4h3.6v4.5h-3.6v7.9zM44.7 10.7h-9.1v20.6h5.5v-7.9h3.6v-4.9h-3.6v-3h3.8v-4.8h-.2l-.2.4v4h-3.9v3.8h3.7V23h-3.7v7.9H36V11.1h8.5zM95.7 10.9h9.2v4.4h-4.4v3.4h4v4.5h-4v3.5h4.4v4.4h-9.2zM104.9 10.7h-9.4v20.6h9.6v-4.8h-4.4v-3.1h4v-4.9h-4v-3h4.4v-4.8h-.2l-.2.4v4h-4.4v3.8h4V23h-4v3.9h4.4v4h-8.8V11.1h8.8zM46.2 10.9h9.3v4.4h-4.3v3.4h3.9v4.5h-3.9v3.5h4.3v4.4h-9.3zM55.5 10.7H46v20.6h9.7v-4.8h-4.3v-3.1h3.9v-4.9h-3.9v-3h4.3v-4.8h-.2l-.2.4v4h-4.4v3.8h4V23h-4v3.9h4.4v4h-8.9V11.1h8.9zM29.2 10.8h5.1v20.3h-5.1zM34.3 10.6h-5.4v20.7h5.6V10.6h-.2l-.2.4v19.9h-4.7V11h4.7zM106.4 10.6"/><path fill="#7A7D7D" d="M105.8 11.7l.1-.3.2-.3.3-.2.4-.1.4.1.3.2.1.3.1.3-.1.5-.1.3-.3.2h-.8l-.3-.2-.2-.3-.1-.5 1 1.2.5-.1.3-.2.2-.3.1-.6-.1-.4-.2-.3-.3-.3-.5-.1-.5.1-.3.3-.3.3-.1.4.1.6.3.3.3.2.5.1-1-1.2.7.1h.3l.4.7h.2l-.4-.7.2-.1.1-.2v-.2l-.1-.1-.3-.1h-.6v1.4h.2v-.7l-.7-.1h.7v-.4h.5l.1.1v.2h-.1l-.2.1z"/><path fill="#919697" d="M29.1 36.5v-1.3h-5.8l-.3.1-.3.2-.4.2v.3l-.2.3-.1.3v4.2h1.3v-2.2h5.2v-1.3h-5.2v-.7l.1-.1.1-.1H29.1zm6-1.3h-1.3v5.5h1.3v-5.5zm13.4 1.3v-1.3h-8.4v1.3h3.6v4.3H45v-4.3h3.5zM61.9 39v-3.9h-1.3v4.1l-.1.1-.1.1h-.7l-.3-.3-3.1-3-.3-.4-.3-.3-.4-.2-.5-.1h-.4l-.3.1-.5.3-.3.5-.1.3v4.4h1.3v-4.2l.4-.1.5.4.1.1 3.1 3.2.5.3.4.2.3.1h.9l.4-.1.3-.2.3-.2.2-.2.1-.4-.1-.6zm13 1.7v-1.3h-6.6l-.2-.1H68l-.1-.1-.1-.2v-.4h7.1v-1.3h-7.1v-.5l.2-.2v-.1l.2-.1.1-.1H75V35h-6.7l-.3.1-.4.1-.3.1-.2.2-.2.5-.1.2-.1.4-.1.3V39l.1.4.1.3.1.4.2.2.2.2.3.1.4.1.4.1h6.5zm13-1.4V39l-.1-.3-.1-.4-.1-.3-.3-.2-.6-.4-.7-.1h-5l-.1-.1-.1-.1v-.5l.1-.1.1-.1.2-.1h6.3V35h-6.3l-.3.1-.4.1-.3.1-.2.3-.2.4-.1.2-.1.4v.7l.1.3.1.3.2.1.3.2.3.3.4.1h5.3l.2.1.1.2.1.1-.1.2-.1.1-.2.1-.2.1h-6.6v1.3h6.6l.4-.1.3-.1.3-.1.4-.2.2-.3.1-.4.1-.3zm12.6 0V39l-.1-.3-.1-.4-.2-.3-.3-.3-.5-.3-.8-.1h-5.1l-.1-.1.1-.2v-.3l.1-.1.1-.1.3-.1h6.2v-1.3h-6.2l-.4.1-.3.1-.3.1-.3.2-.2.4-.1.2-.1.3v.8l.1.3.1.3.3.2.3.2.3.3.3.1H99l.3.1.1.2.1.1-.1.2-.1.1-.3.1-.2.1h-6.6v1.3h6.6l.5-.1.3-.1.3-.1.3-.2.2-.3.2-.4-.1-.4zm4.6 4.3H17.4V32.3H105v11.3z"/></svg>