<svg xmlns="http://www.w3.org/2000/svg" xmlns:xlink="http://www.w3.org/1999/xlink" viewBox="0 0 300 200" enable-background="new 0 0 300 200"><path fill="#707A7D" d="M120.5 108.8c-.1 0-.3-.1-.4-.4-7.1-13.7-7.2-23.8-6.7-34.7 0-.5.1-.7.1-.9l13.3 23.6c-2.1 5.7-4.9 10.4-6.1 12.2 0 0-.1.2-.2.2m24.9-11.5c-.2 0-.4-.2-.6-.6-7.1-11.8-8.1-21.5-7.6-34.3 0-.4.1-.7.1-.9l13.9 24.2c-2.3 6.1-4.5 9.8-5.3 11.1-.2.3-.4.5-.5.5m-29.3-41.5h15.2c0 2.7-.4 23.7-.4 25 0 .3 0 .5-.1.5s-.3-.2-.4-.4c-.2-.4-9.3-16.4-14.3-25.1m53.6 30.3c-.2 0-.4-.2-.6-.6-7.4-12.3-8.7-21.4-8.3-33 0-.5.1-.8.1-.9l14.7 23.1c-2.5 6.4-4.8 10-5.4 11-.2.2-.4.4-.5.4m-14.8-15.6c-.1 0-.3-.2-.4-.4-.2-.3-9.4-15.8-14.4-24.3h14.8c0 2.6.1 23 .1 24.2-.1.3-.1.4-.1.5m14.5 26.7c.3 0 .6-.2 1-.6 7.9-10 10.6-16.8 12.3-22.5 2.7-9 1.9-25.9 1.5-32.8v-.2h.1c.1 0 .2 0 .3.2 6.2 8.4 9.5 18.5 9.5 29 0 26.9-21.7 48.7-48.3 48.7-7.4 0-14.5-1.6-21.1-4.9 1.4-1.5 6.2-7.6 10.2-21 .1-.3.2-.4.2-.5 0 0 .1.1.2.4 1.5 3.9 5.2 11.5 8.7 15.2.3.4.5.6.9.6.3 0 .5-.1.9-.5.1-.1 10-11.4 13.5-26.2.1-.4.2-.5.2-.5s.1.1.2.3c1.3 3.9 6.1 11.8 8.6 14.8.3.2.6.5 1.1.5m9.1-36.8c-.1 0-.3-.2-.4-.4-.2-.3-9.4-15.2-14.5-23.4h14.2c.1 2.5.7 22.1.7 23.4v.4m-68.8 42.2c-7.6-9-12.2-21.1-12.2-32.4 0-26.8 21.7-48.6 48.3-48.6 9 0 19.1 3 27 8 .1 0 .1.1.1.1h-.1c-3.9 0-11.3.1-14.9.1h-2.1c-.6 0-1.4 0-1.4 1 0 .4-.3 7.5-.3 7.8 0 .1-.1.1-.4.1H133c-.6 0-1.4.1-1.4 1.1 0 .7-.3 7.3-.3 7.8-.1.6-.1.9-.7.9h-20.7c-1.3 0-1.6.5-1.7 1-.1.5-1.3 22.5-1.4 30.1-.4 6.6.4 16 2.9 23M145.8 12C112.3 12 85 39 85 72.1s27.3 60.1 60.8 60.1 60.8-27 60.8-60.1c0-33.2-27.3-60.1-60.8-60.1m-25.3 97c.2 0 .3-.1.5-.3.8-1.1 3.8-6 6.2-12.3l-13.5-23.8c-.1-.1-.1-.2-.2-.2-.2 0-.4.5-.4 1.3-.5 11.2-.3 21.2 6.8 34.8.1.3.4.5.6.5m24.9-11.5c.2 0 .5-.2.8-.6.7-1.2 3-4.9 5.4-11.3l-14-24.4c-.1-.1-.1-.2-.2-.2-.2 0-.4.5-.4 1.3-.5 11.6.1 21.9 7.6 34.4.2.6.5.8.8.8m-14.6-15.9c.2 0 .3-.2.3-.8 0-1.4.4-25.3.4-25.3h-15.9s14.3 25.1 14.5 25.5c.2.2.5.6.7.6m38.9 4.7c.2 0 .5-.2.8-.6.8-1.1 3-4.9 5.5-11.1l-14.9-23.2c-.1-.1-.1-.2-.2-.2-.2 0-.4.5-.4 1.3-.3 11.7 1 20.8 8.4 33.1.2.5.5.7.8.7m-14.8-15.5c.2 0 .3-.2.3-.8 0-1.4-.1-24.5-.1-24.5h-15.5s14.4 24.4 14.7 24.8c.1.1.4.5.6.5m14.5 26.1c-.3 0-.6-.3-.8-.5-2.5-2.9-7.3-10.8-8.6-14.7-.1-.3-.3-.4-.5-.4s-.4.2-.5.7c-3.4 14.5-12.9 25.6-13.4 26.1-.3.3-.5.4-.7.4-.2 0-.4-.2-.7-.5-3.3-3.6-7.1-11-8.7-15.1-.2-.4-.3-.6-.5-.6s-.3.3-.4.7c-3.3 11-7.4 17.9-10.1 20.9-.2.2-.1.3.1.4 6.4 3.2 13.6 4.9 21.2 4.9 26.8 0 48.5-22 48.5-49 0-10.9-3.6-21-9.6-29.1-.1-.2-.3-.3-.5-.3s-.4.2-.4.6c.4 6.3 1.3 23.6-1.5 32.7-2 6.7-5 13.2-12.3 22.4-.2.3-.4.4-.6.4m9.1-36.2c.2 0 .3-.2.3-.8 0-1.3-.8-23.6-.8-23.6h-14.9s14.4 23.4 14.7 23.8c.2.3.5.6.7.6M110 103.2c.1 0 .2-.1.1-.4-2.7-7.1-3.4-16.8-3.2-23.1.2-7.4 1.4-29.5 1.4-30.1.1-.6.8-.8 1.4-.8h20.7c.9 0 1-.7 1-1.1 0-.5.3-7.1.4-7.8 0-.7.4-.9 1.2-.9.7 0 20.2-.1 20.7-.1s.6-.1.7-.4c0-.2.3-7.4.3-7.8 0-.7.4-.7 1.2-.7.6 0 11.9-.2 17-.2.4 0 .5-.3.2-.6-7.5-4.8-17.6-8-27.1-8-26.8 0-48.6 21.9-48.6 48.9 0 12.2 5.1 24.3 12.5 32.8-.1.2 0 .3.1.3m35.8-90.9c33.5 0 60.6 26.8 60.6 59.8s-27.1 59.8-60.6 59.8-60.6-26.8-60.6-59.8c0-33.1 27.1-59.8 60.6-59.8"/><path fill="#F2F5FA" d="M170.5 85.7c-.6 1-1.2.6-1.6-.1-7.4-12.3-8.7-21.6-8.3-33.1 0-1.1.4-1.6.6-1.1L176 74.6c-2.5 6.3-4.8 10-5.5 11.1m-24.3 11.2c-.6 1-1.1.7-1.6-.1-7.5-12.5-8.1-22.8-7.6-34.4 0-1.1.3-1.6.6-1.1l14 24.4c-2.4 6.3-4.7 10.1-5.4 11.2M121 108.7c-.4.6-.9.3-1.1-.2-7.1-13.6-7.3-23.6-6.8-34.8.1-1.1.3-1.6.6-1.1l13.5 23.8c-2.4 6.3-5.4 11.2-6.2 12.3m57.8-48.8c0 1.4-.7.6-1 .2-.3-.4-15-24.1-15-24.1H178c.1.1.8 22.6.8 23.9M155.2 70c0 1.4-.7.6-1 .2-.3-.4-14.7-24.8-14.7-24.8H155c0 .1.2 23.2.2 24.6m-24.1 10.8c0 1.4-.7.6-1 .2-.3-.4-14.5-25.5-14.5-25.5h15.9c.1 0-.4 23.9-.4 25.3m14.7 38.4c-7.6 0-14.8-1.7-21.2-4.9-.1-.1-.2-.2-.1-.4 2.9-3.2 6.8-9.8 10.2-20.9.2-.7.6-1 .9-.1 1.5 4.1 5.3 11.6 8.7 15.1.5.5.7.8 1.4.1.5-.5 10-11.6 13.4-26.1.2-1 .8-.7.9-.2 1.3 3.9 6.1 11.8 8.6 14.7.4.4.9.9 1.5 0 7.2-9.2 10.3-15.8 12.3-22.4 2.8-9.2 1.9-26.4 1.5-32.7 0-.7.6-.7.9-.3 6 8.1 9.6 18.2 9.6 29.2-.1 26.9-21.8 48.9-48.6 48.9M109.7 103c-7.4-8.6-12.5-20.6-12.5-32.8 0-27 21.8-48.9 48.6-48.9 9.5 0 19.6 3.2 27.1 8 .3.3.3.6-.2.6-5.1 0-16.5.2-17 .2-.7 0-1.1.1-1.2.7 0 .4-.3 7.5-.3 7.8 0 .2-.1.4-.7.4-.5 0-20 .1-20.7.1-.7 0-1.1.2-1.2.9 0 .7-.3 7.3-.4 7.8 0 .5-.1 1.1-1 1.1h-20.7c-.6 0-1.4.2-1.4.8 0 .6-1.3 22.7-1.4 30.1-.1 6.3.6 16 3.2 23.1.3.3.1.4-.2.1m36.1-90.7c-33.5 0-60.6 26.8-60.6 59.8s27.1 59.8 60.6 59.8c33.4 0 60.6-26.8 60.6-59.8 0-33.1-27.2-59.8-60.6-59.8"/><defs><path id="a" d="M143.7 15.5l-.3.6c-.3 1.9-.5 4-1.6 5.3 1.3-.1 2.9-.1 4-.1 7.8 0 16.1 2.1 23.3 5.8h.1c1.4-1.5-.8-4.3.3-6.2-.8-.4-1.5-.7-2.3-1.1-6.7-2.9-13.9-4.3-21.3-4.3h-2.2"/></defs><clipPath id="b"><use xlink:href="#a" overflow="visible"/></clipPath><g clip-path="url(#b)"><defs><path id="c" d="M141.8 15.5h28.7v11.6h-28.7z"/></defs><clipPath id="d"><use xlink:href="#c" overflow="visible"/></clipPath><g clip-path="url(#d)"><defs><path id="e" d="M141.8 15.5h28.7v11.6h-28.7z"/></defs><clipPath id="f"><use xlink:href="#e" overflow="visible"/></clipPath><g clip-path="url(#f)"><image overflow="visible" width="120" height="49" xlink:href="5FC32B57023A26ED.jpg" transform="matrix(.24 0 0 .24 141.755 15.492)"/></g></g></g><defs><path id="g" d="M119.6 22.2c-4.6 2.5-8.8 5.7-12.5 9.5-5 5.1-9 11-11.7 17.5-2.8 6.6-4.2 12.9-4.3 20 .5 1 1.1 2.6 1.3 2.8.7 1.5 2.4 1.9 3.7.5.2-.2.8-.3 1.3-.6v-1.7c0-16.2 7.8-30.5 19.9-39.4 1-2 2.8-4.1.6-6.3-.6-.6.8-1.5 1.7-2.3z"/></defs><clipPath id="h"><use xlink:href="#g" overflow="visible"/></clipPath><g clip-path="url(#h)"><defs><path id="i" d="M91.1 22.2H120V74H91.1z"/></defs><clipPath id="j"><use xlink:href="#i" overflow="visible"/></clipPath><g clip-path="url(#j)"><image overflow="visible" width="22" height="39" xlink:href="5FC32B57023A26EF.jpg" transform="matrix(1.313 0 0 1.329 91.056 22.181)"/></g></g><defs><path id="k" d="M186.5 35.1c-1.9 1.7-.8 4.8.3 6.7.4.8.4 1.7.1 2.4 4.7 7.6 7.5 16.4 7.5 26 0 27-21.7 49-48.5 49-7.6 0-14.8-1.7-21.2-4.9 0 0-2.1 1.7-3.3 2.2-.3.1-.9.2-1.6-.3-2.1-1.5-4.5-4.2-7.3-8.5-1.2-.4-3.3.4-2.9 1.2.3.4-.1.5-.2.7v.5c.1.3.2.5.3.8 4.4 3.9 9.4 7.1 14.9 9.4 6.7 2.8 13.9 4.3 21.3 4.3s14.6-1.4 21.3-4.3c6.5-2.7 12.4-6.7 17.4-11.7 5-5 9-10.8 11.7-17.3 2.9-6.7 4.3-13.8 4.3-21.2 0-7.4-1.4-14.2-4.3-21-2.5-5.8-5.9-11-10.1-15.6.2.4.8 1 .3 1.6"/></defs><clipPath id="l"><use xlink:href="#k" overflow="visible"/></clipPath><g clip-path="url(#l)"><defs><path id="m" d="M173.686 166.1L67.614 97.723l68.32-105.987 106.073 68.375z"/></defs><clipPath id="n"><use xlink:href="#m" overflow="visible"/></clipPath><g clip-path="url(#n)"><defs><path id="o" d="M321.42 42.85L190.818 245.494-11.828 114.89 118.776-87.754z"/></defs><clipPath id="p"><use xlink:href="#o" overflow="visible"/></clipPath><g clip-path="url(#p)"><image overflow="visible" width="1389" height="1389" xlink:href="5FC32B57023A26EA.jpg" transform="matrix(.24 0 0 .24 -11.855 -87.743)"/></g></g></g><defs><path id="q" d="M186.5 35.1c-1.9 1.7-.8 4.8.3 6.7.4.8.4 1.7.1 2.4 4.7 7.6 7.5 16.4 7.5 26 0 27-21.7 49-48.5 49-7.6 0-14.8-1.7-21.2-4.9 0 0-2.1 1.7-3.3 2.2-.3.1-.9.2-1.6-.3-2.1-1.5-4.5-4.2-7.3-8.5-1.2-.4-3.3.4-2.9 1.2.3.4-.1.5-.2.7v.5c.1.3.2.5.3.8 4.4 3.9 9.4 7.1 14.9 9.4 6.7 2.8 13.9 4.3 21.3 4.3s14.6-1.4 21.3-4.3c6.5-2.7 12.4-6.7 17.4-11.7 5-5 9-10.8 11.7-17.3 2.9-6.7 4.3-13.8 4.3-21.2 0-7.4-1.4-14.2-4.3-21-2.5-5.8-5.9-11-10.1-15.6.2.4.8 1 .3 1.6"/></defs><clipPath id="r"><use xlink:href="#q" overflow="visible"/></clipPath><g clip-path="url(#r)"><defs><path id="s" d="M173.686 166.1L67.614 97.723l68.32-105.987 106.073 68.375z"/></defs><clipPath id="t"><use xlink:href="#s" overflow="visible"/></clipPath><g clip-path="url(#t)"><defs><path id="u" d="M321.42 42.85L190.818 245.494-11.828 114.89 118.776-87.754z"/></defs><clipPath id="v"><use xlink:href="#u" overflow="visible"/></clipPath><g clip-path="url(#v)"><image overflow="visible" width="1389" height="1389" xlink:href="5FC32B57023A26EB.jpg" transform="matrix(.24 0 0 .24 -11.855 -87.743)"/></g></g></g><defs><path id="w" d="M186.5 35.1c-1.9 1.7-.8 4.8.3 6.7.4.8.4 1.7.1 2.4 4.7 7.6 7.5 16.4 7.5 26 0 27-21.7 49-48.5 49-7.6 0-14.8-1.7-21.2-4.9 0 0-2.1 1.7-3.3 2.2-.3.1-.9.2-1.6-.3-2.1-1.5-4.5-4.2-7.3-8.5-1.2-.4-3.3.4-2.9 1.2.3.4-.1.5-.2.7v.5c.1.3.2.5.3.8 4.4 3.9 9.4 7.1 14.9 9.4 6.7 2.8 13.9 4.3 21.3 4.3s14.6-1.4 21.3-4.3c6.5-2.7 12.4-6.7 17.4-11.7 5-5 9-10.8 11.7-17.3 2.9-6.7 4.3-13.8 4.3-21.2 0-7.4-1.4-14.2-4.3-21-2.5-5.8-5.9-11-10.1-15.6.2.4.8 1 .3 1.6"/></defs><clipPath id="x"><use xlink:href="#w" overflow="visible"/></clipPath><g clip-path="url(#x)"><defs><path id="y" d="M173.686 166.1L67.614 97.723l68.32-105.987 106.073 68.375z"/></defs><clipPath id="z"><use xlink:href="#y" overflow="visible"/></clipPath><g clip-path="url(#z)"><defs><path id="A" d="M321.42 42.85L190.818 245.494-11.828 114.89 118.776-87.754z"/></defs><clipPath id="B"><use xlink:href="#A" overflow="visible"/></clipPath><g clip-path="url(#B)"><image overflow="visible" width="1389" height="1389" xlink:href="5FC32B57023A26F5.jpg" transform="matrix(.24 0 0 .24 -11.855 -87.743)"/></g></g></g><defs><path id="C" d="M186.5 35.1c-1.9 1.7-.8 4.8.3 6.7.4.8.4 1.7.1 2.4 4.7 7.6 7.5 16.4 7.5 26 0 27-21.7 49-48.5 49-7.6 0-14.8-1.7-21.2-4.9 0 0-2.1 1.7-3.3 2.2-.3.1-.9.2-1.6-.3-2.1-1.5-4.5-4.2-7.3-8.5-1.2-.4-3.3.4-2.9 1.2.3.4-.1.5-.2.7v.5c.1.3.2.5.3.8 4.4 3.9 9.4 7.1 14.9 9.4 6.7 2.8 13.9 4.3 21.3 4.3s14.6-1.4 21.3-4.3c6.5-2.7 12.4-6.7 17.4-11.7 5-5 9-10.8 11.7-17.3 2.9-6.7 4.3-13.8 4.3-21.2 0-7.4-1.4-14.2-4.3-21-2.5-5.8-5.9-11-10.1-15.6.2.4.8 1 .3 1.6"/></defs><clipPath id="D"><use xlink:href="#C" overflow="visible"/></clipPath><g clip-path="url(#D)"><defs><path id="E" d="M173.686 166.1L67.614 97.723l68.32-105.987 106.073 68.375z"/></defs><clipPath id="F"><use xlink:href="#E" overflow="visible"/></clipPath><g clip-path="url(#F)"><defs><path id="G" d="M321.42 42.85L190.818 245.494-11.828 114.89 118.776-87.754z"/></defs><clipPath id="H"><use xlink:href="#G" overflow="visible"/></clipPath><g clip-path="url(#H)"><image overflow="visible" width="1389" height="1389" xlink:href="5FC32B57023A26F7.jpg" transform="matrix(.24 0 0 .24 -11.855 -87.743)"/></g></g></g><defs><path id="I" d="M186.5 35.1c-1.9 1.7-.8 4.8.3 6.7.4.8.4 1.7.1 2.4 4.7 7.6 7.5 16.4 7.5 26 0 27-21.7 49-48.5 49-7.6 0-14.8-1.7-21.2-4.9 0 0-2.1 1.7-3.3 2.2-.3.1-.9.2-1.6-.3-2.1-1.5-4.5-4.2-7.3-8.5-1.2-.4-3.3.4-2.9 1.2.3.4-.1.5-.2.7v.5c.1.3.2.5.3.8 4.4 3.9 9.4 7.1 14.9 9.4 6.7 2.8 13.9 4.3 21.3 4.3s14.6-1.4 21.3-4.3c6.5-2.7 12.4-6.7 17.4-11.7 5-5 9-10.8 11.7-17.3 2.9-6.7 4.3-13.8 4.3-21.2 0-7.4-1.4-14.2-4.3-21-2.5-5.8-5.9-11-10.1-15.6.2.4.8 1 .3 1.6"/></defs><clipPath id="J"><use xlink:href="#I" overflow="visible"/></clipPath><g clip-path="url(#J)"><defs><path id="K" d="M173.686 166.1L67.614 97.723l68.32-105.987 106.073 68.375z"/></defs><clipPath id="L"><use xlink:href="#K" overflow="visible"/></clipPath><g clip-path="url(#L)"><defs><path id="M" d="M321.42 42.85L190.818 245.494-11.828 114.89 118.776-87.754z"/></defs><clipPath id="N"><use xlink:href="#M" overflow="visible"/></clipPath><g clip-path="url(#N)"><image overflow="visible" width="1389" height="1389" xlink:href="5FC32B57023A26FA.jpg" transform="matrix(.24 0 0 .24 -11.855 -87.743)"/></g></g></g><defs><path id="O" d="M124.5 19.8c-1.6.7-3.2 1.5-4.7 2.3-1 .8-2.5 1.8-2 2.3 2.1 2.3.4 4.3-.6 6.3 7-5.2 15.4-8.5 24.6-9.3 1.2-1.2 1.4-3.4 1.7-5.3 0-.2.1-.4.2-.6-6.7.3-13.1 1.7-19.2 4.3"/></defs><clipPath id="P"><use xlink:href="#O" overflow="visible"/></clipPath><g clip-path="url(#P)"><defs><path id="Q" d="M110.5 19.4l13.4 22.9 26.4-15.5L136.8 4z"/></defs><clipPath id="R"><use xlink:href="#Q" overflow="visible"/></clipPath><g clip-path="url(#R)"><defs><path id="S" d="M167.06 32.47l-46.37 27.277-27.022-45.94 46.37-27.276z"/></defs><clipPath id="T"><use xlink:href="#S" overflow="visible"/></clipPath><g clip-path="url(#T)"><image overflow="visible" width="306" height="305" xlink:href="5FC32B57023A26FB.jpg" transform="matrix(.24 0 0 .24 93.707 -13.444)"/></g></g></g><path fill="#666" d="M119.6 25.4c-.4-.6-1.4-.8-1.1-2.2-.6.5-1 1-.7 1.3 2.1 2.3.4 4.3-.6 6.3.5-.3.6-.5 1.1-.8 1.1-2.3 2.3-2.8 1.3-4.6"/><path d="M187 41.7c-1.1-1.9-2.4-4.8-.5-6.6.5-.5-.1-1.2-.4-1.8-.5-.6-1.1-1.1-1.6-1.7-4.4-4.5-9.5-8.1-15.1-10.8-1.2 2 1 4.7-.3 6.2 1.3.7 3.8 2.1 3.8 2.2l.2.2c0-.4.8-.2 1.2 0 1.1.5 5.7 2.3 6.2 2.6.4.2.7.5 1 .9.2.4 2.1 5.1 2.2 5.7 0 .5.2 2 .2 2.5.1-.6.6-.5.9-.1.7 1 1.4 2.1 2.1 3.2.3-.8.5-1.7.1-2.5"/><defs><path id="U" d="M91.1 69.2v.7c0 7.4 1.4 14.5 4.3 21.2 2.8 6.5 6.7 12.3 11.7 17.3.8.8 1.6 1.6 2.5 2.3-.1-.3-.2-.6-.3-.8-.4-.7.6-.5.2-1.2-.4-.8 1.5-1.5 2.7-1.2v-.1c-1-1.5-2-3.1-2.7-4.9-6.9-8-11.7-19.1-12.1-30.7-.5.3-1.1.4-1.3.6-1.3 1.5-3 1-3.7-.5-.2-.2-.8-1.6-1.3-2.7z"/></defs><clipPath id="V"><use xlink:href="#U" overflow="visible"/></clipPath><g clip-path="url(#V)"><defs><path id="W" d="M91.1 69.2h21.1v41.5H91.1z"/></defs><clipPath id="X"><use xlink:href="#W" overflow="visible"/></clipPath><g clip-path="url(#X)"><defs><path id="Y" d="M91.1 69.2h21.1v41.5H91.1z"/></defs><clipPath id="Z"><use xlink:href="#Y" overflow="visible"/></clipPath><g clip-path="url(#Z)"><image overflow="visible" width="88" height="174" xlink:href="5FC32B57023A26FD.jpg" transform="matrix(.24 0 0 .24 91.062 69.239)"/></g></g></g><defs><path id="aa" d="M91.1 69.2v.7c0 7.4 1.4 14.5 4.3 21.2 2.8 6.5 6.7 12.3 11.7 17.3.8.8 1.6 1.6 2.5 2.3-.1-.3-.2-.6-.3-.8-.4-.7.6-.5.2-1.2-.4-.8 1.5-1.5 2.7-1.2v-.1c-1-1.5-2-3.1-2.7-4.9-6.9-8-11.7-19.1-12.1-30.7-.5.3-1.1.4-1.3.6-1.3 1.5-3 1-3.7-.5-.2-.2-.8-1.6-1.3-2.7z"/></defs><clipPath id="ab"><use xlink:href="#aa" overflow="visible"/></clipPath><g clip-path="url(#ab)"><defs><path id="ac" d="M91.1 69.2h21.1v41.5H91.1z"/></defs><clipPath id="ad"><use xlink:href="#ac" overflow="visible"/></clipPath><g clip-path="url(#ad)"><defs><path id="ae" d="M91.1 69.2h21.1v41.5H91.1z"/></defs><clipPath id="af"><use xlink:href="#ae" overflow="visible"/></clipPath><g clip-path="url(#af)"><image overflow="visible" width="88" height="174" xlink:href="D73543935267A046.jpg" transform="matrix(.24 0 0 .24 91.062 69.239)"/></g></g></g><defs><path id="ag" d="M91.1 69.2v.7c0 7.4 1.4 14.5 4.3 21.2 2.8 6.5 6.7 12.3 11.7 17.3.8.8 1.6 1.6 2.5 2.3-.1-.3-.2-.6-.3-.8-.4-.7.6-.5.2-1.2-.4-.8 1.5-1.5 2.7-1.2v-.1c-1-1.5-2-3.1-2.7-4.9-6.9-8-11.7-19.1-12.1-30.7-.5.3-1.1.4-1.3.6-1.3 1.5-3 1-3.7-.5-.2-.2-.8-1.6-1.3-2.7z"/></defs><clipPath id="ah"><use xlink:href="#ag" overflow="visible"/></clipPath><g clip-path="url(#ah)"><defs><path id="ai" d="M91.1 69.2h21.1v41.5H91.1z"/></defs><clipPath id="aj"><use xlink:href="#ai" overflow="visible"/></clipPath><g clip-path="url(#aj)"><defs><path id="ak" d="M91.1 69.2h21.1v41.5H91.1z"/></defs><clipPath id="al"><use xlink:href="#ak" overflow="visible"/></clipPath><g clip-path="url(#al)"><image overflow="visible" width="88" height="174" xlink:href="D73543935267A041.jpg" transform="matrix(.24 0 0 .24 91.062 69.239)"/></g></g></g><defs><path id="am" d="M185.3 30.8c5.1 5.2 9.2 11.1 12 17.7 2.9 6.9 4.4 13.9 4.4 21.4 0 7.5-1.5 14.8-4.4 21.7-1.2 2.7-2.5 5.6-4.1 8.1l4.8 2.8c5.3-8.9 8.3-19.2 8.3-30.3 0-16.5-6.8-31.2-17.7-42.2l-3.3.8z"/></defs><clipPath id="an"><use xlink:href="#am" overflow="visible"/></clipPath><g clip-path="url(#an)"><defs><path id="ao" d="M205.85 105.622l-31.71-4.994 11.655-73.987 31.71 4.996z"/></defs><clipPath id="ap"><use xlink:href="#ao" overflow="visible"/></clipPath><g clip-path="url(#ap)"><defs><path id="aq" d="M229.573 28.648l-13.18 83.667-54.427-8.574 13.18-83.665z"/></defs><clipPath id="ar"><use xlink:href="#aq" overflow="visible"/></clipPath><g clip-path="url(#ar)"><image overflow="visible" width="282" height="385" xlink:href="D73543935267A042.jpg" transform="matrix(.24 0 0 .24 162.044 20.065)"/></g></g></g><defs><path id="as" d="M185.3 30.8c5.1 5.2 9.2 11.1 12 17.7 2.9 6.9 4.4 13.9 4.4 21.4 0 7.5-1.5 14.8-4.4 21.7-1.2 2.7-2.5 5.6-4.1 8.1l4.8 2.8c5.3-8.9 8.3-19.2 8.3-30.3 0-16.5-6.8-31.2-17.7-42.2l-3.3.8z"/></defs><clipPath id="at"><use xlink:href="#as" overflow="visible"/></clipPath><g clip-path="url(#at)"><defs><path id="au" d="M205.85 105.622l-31.71-4.994 11.655-73.987 31.71 4.996z"/></defs><clipPath id="av"><use xlink:href="#au" overflow="visible"/></clipPath><g clip-path="url(#av)"><defs><path id="aw" d="M229.573 28.648l-13.18 83.667-54.427-8.574 13.18-83.665z"/></defs><clipPath id="ax"><use xlink:href="#aw" overflow="visible"/></clipPath><g clip-path="url(#ax)"><image overflow="visible" width="282" height="385" xlink:href="D73543935267A040.jpg" transform="matrix(.24 0 0 .24 162.044 20.065)"/></g></g></g><defs><path id="ay" d="M185.3 30.8c5.1 5.2 9.2 11.1 12 17.7 2.9 6.9 4.4 13.9 4.4 21.4 0 7.5-1.5 14.8-4.4 21.7-1.2 2.7-2.5 5.6-4.1 8.1l4.8 2.8c5.3-8.9 8.3-19.2 8.3-30.3 0-16.5-6.8-31.2-17.7-42.2l-3.3.8z"/></defs><clipPath id="az"><use xlink:href="#ay" overflow="visible"/></clipPath><g clip-path="url(#az)"><defs><path id="aA" d="M205.85 105.622l-31.71-4.994 11.655-73.987 31.71 4.996z"/></defs><clipPath id="aB"><use xlink:href="#aA" overflow="visible"/></clipPath><g clip-path="url(#aB)"><defs><path id="aC" d="M229.573 28.648l-13.18 83.667-54.427-8.574 13.18-83.665z"/></defs><clipPath id="aD"><use xlink:href="#aC" overflow="visible"/></clipPath><g clip-path="url(#aD)"><image overflow="visible" width="282" height="385" xlink:href="D73543935267A05E.jpg" transform="matrix(.24 0 0 .24 162.044 20.065)"/></g></g></g><defs><path id="aE" d="M185.3 30.8c5.1 5.2 9.2 11.1 12 17.7 2.9 6.9 4.4 13.9 4.4 21.4 0 7.5-1.5 14.8-4.4 21.7-1.2 2.7-2.5 5.6-4.1 8.1l4.8 2.8c5.3-8.9 8.3-19.2 8.3-30.3 0-16.5-6.8-31.2-17.7-42.2l-3.3.8z"/></defs><clipPath id="aF"><use xlink:href="#aE" overflow="visible"/></clipPath><g clip-path="url(#aF)"><defs><path id="aG" d="M205.85 105.622l-31.71-4.994 11.655-73.987 31.71 4.996z"/></defs><clipPath id="aH"><use xlink:href="#aG" overflow="visible"/></clipPath><g clip-path="url(#aH)"><defs><path id="aI" d="M229.573 28.648l-13.18 83.667-54.427-8.574 13.18-83.665z"/></defs><clipPath id="aJ"><use xlink:href="#aI" overflow="visible"/></clipPath><g clip-path="url(#aJ)"><image overflow="visible" width="282" height="385" xlink:href="D73543935267A043.jpg" transform="matrix(.24 0 0 .24 162.044 20.065)"/></g></g></g><defs><path id="aK" d="M194.3 97.9c-2.4 4.3-5.5 8.2-9 11.7-5.1 5.1-11.1 9.2-17.8 12-6.9 2.9-14.2 4.4-21.8 4.4s-14.9-1.5-21.8-4.4c-6.7-2.8-12.6-6.8-17.8-12-2.3-2.3-4.4-4.8-6.3-7.5l-6 .9v.2c10.6 17.3 29.9 28.9 51.8 28.9 23.2 0 43.3-12.8 53.5-31.7l-4.8-2.5z"/></defs><clipPath id="aL"><use xlink:href="#aK" overflow="visible"/></clipPath><g clip-path="url(#aL)"><defs><path id="aM" d="M94 97.9h105.3v34.2H94z"/></defs><clipPath id="aN"><use xlink:href="#aM" overflow="visible"/></clipPath><g clip-path="url(#aN)"><defs><path id="aO" d="M94 97.9h105.3v34.2H94z"/></defs><clipPath id="aP"><use xlink:href="#aO" overflow="visible"/></clipPath><g clip-path="url(#aP)"><image overflow="visible" width="439" height="143" xlink:href="D73543935267A047.jpg" transform="matrix(.24 0 0 .24 93.965 97.866)"/></g></g></g><defs><path id="aQ" d="M194.3 97.9c-2.4 4.3-5.5 8.2-9 11.7-5.1 5.1-11.1 9.2-17.8 12-6.9 2.9-14.2 4.4-21.8 4.4s-14.9-1.5-21.8-4.4c-6.7-2.8-12.6-6.8-17.8-12-2.3-2.3-4.4-4.8-6.3-7.5l-6 .9v.2c10.6 17.3 29.9 28.9 51.8 28.9 23.2 0 43.3-12.8 53.5-31.7l-4.8-2.5z"/></defs><clipPath id="aR"><use xlink:href="#aQ" overflow="visible"/></clipPath><g clip-path="url(#aR)"><defs><path id="aS" d="M94 97.9h105.3v34.2H94z"/></defs><clipPath id="aT"><use xlink:href="#aS" overflow="visible"/></clipPath><g clip-path="url(#aT)"><defs><path id="aU" d="M94 97.9h105.3v34.2H94z"/></defs><clipPath id="aV"><use xlink:href="#aU" overflow="visible"/></clipPath><g clip-path="url(#aV)"><image overflow="visible" width="439" height="143" xlink:href="D73543935267A045.jpg" transform="matrix(.24 0 0 .24 93.965 97.866)"/></g></g></g><defs><path id="aW" d="M85.2 72.1c0 5.2.7 10.2 1.9 15l4.9-1.5c-1.5-5-2.2-10.4-2.2-15.7 0-7.5 1.5-14.3 4.4-21.2 2.3-5.5 5.5-10.6 9.4-15.1-.2-.5.3-.7.4-.9v-.2l-.1-.1c-.2-.2-.7 0-1.1.2-.5.2-.9.5-.9.2-.1-.5 1.5-2.6 1.9-3.6 0-.1 0-.3.1-.4-11.6 11.1-18.7 26.3-18.7 43.3"/></defs><clipPath id="aX"><use xlink:href="#aW" overflow="visible"/></clipPath><g clip-path="url(#aX)"><defs><path id="aY" d="M67.7 81.3l34.4 11.5 19.4-58-34.4-11.5z"/></defs><clipPath id="aZ"><use xlink:href="#aY" overflow="visible"/></clipPath><g clip-path="url(#aZ)"><defs><path id="ba" d="M46.78 85.814L73.1 7.097l69.327 23.18-26.32 78.717z"/></defs><clipPath id="bb"><use xlink:href="#ba" overflow="visible"/></clipPath><g clip-path="url(#bb)"><image overflow="visible" width="399" height="425" xlink:href="D73543935267A04C.jpg" transform="matrix(.24 0 0 .24 46.787 7.096)"/></g></g></g><defs><path id="bc" d="M122.3 19.5c.3-.1.6-.3.9-.4-.3 0-.6.1-.9.4m1.3-3.1c-.6 1 .9 1.4.9 2.1-.2.1-.3.1-.5.2-.3.1-.5.2-.8.3.7-.2 1.3 0 1.3-.5 6.8-2.8 13.9-4.2 21.3-4.2 7.5 0 14.9 1.5 21.8 4.4 6.7 2.8 12.6 6.9 17.8 12.1 1.3 1.3 2.5 2.6 3.6 4l3.5-.8c-11.2-13.5-27.9-21.8-46.7-21.8-7.8 0-15.4 1.5-22.2 4.2"/></defs><clipPath id="bd"><use xlink:href="#bc" overflow="visible"/></clipPath><g clip-path="url(#bd)"><defs><path id="be" d="M192.06 39.932l-71.406-5.282 2.043-27.625 71.406 5.28z"/></defs><clipPath id="bf"><use xlink:href="#be" overflow="visible"/></clipPath><g clip-path="url(#bf)"><defs><path id="bg" d="M121.116 1.665l75.495 5.583-2.816 38.097-75.496-5.583z"/></defs><clipPath id="bh"><use xlink:href="#bg" overflow="visible"/></clipPath><g clip-path="url(#bh)"><image overflow="visible" width="327" height="183" xlink:href="D73543935267A04D.jpg" transform="matrix(.24 0 0 .24 118.248 1.662)"/></g></g></g><defs><path id="bi" d="M103.8 28.9c0 .1 0 .3-.1.4-.4 1.1-2 3.1-1.9 3.6 0 .3.5 0 .9-.2s.9-.4 1.1-.3c.5.4-.5.5-.3 1.1.8-1 1.7-1.9 2.6-2.8 4.7-4.7 10.1-8.2 16.1-11 .8-.4 2.2-.5 2.2-1.2s-1.5-1.1-.9-2.1c-7.3 2.9-14 7.2-19.7 12.5"/></defs><clipPath id="bj"><use xlink:href="#bi" overflow="visible"/></clipPath><g clip-path="url(#bj)"><defs><path id="bk" d="M109.493 44.422L93.52 22.285 116.63 5.61l15.974 22.137z"/></defs><clipPath id="bl"><use xlink:href="#bk" overflow="visible"/></clipPath><g clip-path="url(#bl)"><defs><path id="bm" d="M75.126 18.875l44.113-31.83 31.77 44.032-44.113 31.83z"/></defs><clipPath id="bn"><use xlink:href="#bm" overflow="visible"/></clipPath><g clip-path="url(#bn)"><image overflow="visible" width="317" height="317" xlink:href="D73543935267A065.jpg" transform="matrix(.24 0 0 .24 75.183 -12.928)"/></g></g></g><defs><path id="bo" d="M176.1 21.4c-.8.7-2.3.3-3.2-.1 4.5 2.5 8.7 5.7 12.4 9.4 1.3 1.3 2.6 2.8 3.8 4.2.4.4 1.9 1.3 1.4 0l.2.2c.3.2 1 .8 1.3.9.3.1.6 0 .8.2.2.2 2 1.8.5-.6-.3-.5-.7-1.6-1-1.9-4.5-5.3-9.9-9.8-16-13.4 0 .1.3.7-.2 1.1"/></defs><clipPath id="bp"><use xlink:href="#bo" overflow="visible"/></clipPath><g clip-path="url(#bp)"><defs><path id="bq" d="M184.622 49l-20.448-19.127 18.99-20.302L203.612 28.7z"/></defs><clipPath id="br"><use xlink:href="#bq" overflow="visible"/></clipPath><g clip-path="url(#br)"><defs><path id="bs" d="M182.51-10.268l40.75 38.117-38.116 40.75-40.75-38.117z"/></defs><clipPath id="bt"><use xlink:href="#bs" overflow="visible"/></clipPath><g clip-path="url(#bt)"><image overflow="visible" width="329" height="329" xlink:href="D73543935267A067.jpg" transform="matrix(.24 0 0 .24 144.401 -10.234)"/></g></g></g><path fill="#666" d="M177.5 22.1c.3-.4.1-.8-.2-1.1-.3-.2-.7-.4-1-.6-.1-.1.3.6-.2 1-.8.7-2.3.3-3.2-.1.3.2.6.3.9.5 1.4.4 2.9 1.3 3.7.3"/><path d="M93.8 103c-3.3-5.5-5.8-11.5-7.2-17.9.5.5.8.8 1.5 1 .7.2 2.5-1.3 3.7-.9.6 2.3 1.5 4.6 2.4 6.8 1.9 4.6 4.5 8.8 7.5 12.7-.7-.3-1.2.2-1.2.7-.1 1-2.8-1-3.4-1.4-3.5-2.3-.9 2.1-.5 3.3-.9-1.4-1.9-2.9-2.8-4.3"/><path fill="#5C5754" d="M92 85.5c-.1-.2-.1-.4-.2-.5-1.2-.4-3 1.1-3.7.9-.7-.2-1-.5-1.5-1 0 .2.1.4.1.5l.6.6c.4.5.9.9 2.1.3 1.2-.6 1.7-1 2-1 .3.1.5-.1.6.2"/><defs><path id="bu" d="M188.2 106.5c.3.6 1.2.3 2.1.7 1.1.5 1.9 2.1 2.3 3 .7-.9 1.4-1.7 2.1-2.7.1-.1.5-.6.5-.7-.5-2.4-2.2-2.2-3.4-2-.4.1-.7.1-.9.1-.3-.1-.6-.4-.8-.8-.5.6-1.4 1.8-1.9 2.4"/></defs><clipPath id="bv"><use xlink:href="#bu" overflow="visible"/></clipPath><g clip-path="url(#bv)"><defs><path id="bw" d="M185.2 107l6.3 6.7 6.7-6.3-6.3-6.7z"/></defs><clipPath id="bx"><use xlink:href="#bw" overflow="visible"/></clipPath><g clip-path="url(#bx)"><defs><path id="by" d="M204.642 107.587l-13.416 12.593-12.593-13.416L192.05 94.17z"/></defs><clipPath id="bz"><use xlink:href="#by" overflow="visible"/></clipPath><g clip-path="url(#bz)"><image overflow="visible" width="109" height="109" xlink:href="D73543935267A064.jpg" transform="matrix(.24 0 0 .24 178.678 94.182)"/></g></g></g><path fill="#57544F" d="M191.7 105c.7-.3 1.7-.3 2.2 0 .5.2.8.6.9 1.3 0 .1 0 .5.2.6.2-.2.3-.4.5-.6-.7-1.1-.9-2.4-2.5-2-.7.2-1.2 0-1.9 0-.3-.1-.5-.3-.5-.8-.1.2-.2.3-.3.5-.1.2-.1.1-.2.3 0 .7 1.1.9 1.6.7"/><path fill="#696669" d="M193.5 102.8c-.5-.5-1.3-.2-2.1-.5-.3.4-.6.8-.8 1.1 0 .4.2.7.5.8.3.1 1.2.2 1.9 0 1.6-.4 1.8.9 2.5 2 0-.1.1-.1.1-.2.4-.5.7-1 1.1-1.6-1.1.2-2.1-.9-3.2-1.6"/><defs><path id="bA" d="M191.5 102.3c.8.3 1.6 0 2.1.5 1 .8 2 1.8 3.2 1.7 1.1-1.7 2.2-3.5 3.1-5.4-2.1.4-2.8-1.1-3.8-1.5-.4-.2-1-.3-1.3-.8-1 2-2.1 3.8-3.3 5.5"/></defs><clipPath id="bB"><use xlink:href="#bA" overflow="visible"/></clipPath><g clip-path="url(#bB)"><defs><path id="bC" d="M197.55 108.286l-9.55-5.852 5.748-9.38 9.55 5.853z"/></defs><clipPath id="bD"><use xlink:href="#bC" overflow="visible"/></clipPath><g clip-path="url(#bD)"><defs><path id="bE" d="M210.105 97.336l-10.973 17.907-17.906-10.973 10.972-17.907z"/></defs><clipPath id="bF"><use xlink:href="#bE" overflow="visible"/></clipPath><g clip-path="url(#bF)"><image overflow="visible" width="121" height="121" xlink:href="D73543935267A063.jpg" transform="matrix(.24 0 0 .24 181.235 86.323)"/></g></g></g><defs><path id="bG" d="M191.5 102.3c.8.3 1.6 0 2.1.5 1 .8 2 1.8 3.2 1.7 1.1-1.7 2.2-3.5 3.1-5.4-2.1.4-2.8-1.1-3.8-1.5-.4-.2-1-.3-1.3-.8-1 2-2.1 3.8-3.3 5.5"/></defs><clipPath id="bH"><use xlink:href="#bG" overflow="visible"/></clipPath><g clip-path="url(#bH)"><defs><path id="bI" d="M197.55 108.286l-9.55-5.852 5.748-9.38 9.55 5.853z"/></defs><clipPath id="bJ"><use xlink:href="#bI" overflow="visible"/></clipPath><g clip-path="url(#bJ)"><defs><path id="bK" d="M210.105 97.336l-10.973 17.907-17.906-10.973 10.972-17.907z"/></defs><clipPath id="bL"><use xlink:href="#bK" overflow="visible"/></clipPath><g clip-path="url(#bL)"><image overflow="visible" width="121" height="121" xlink:href="D73543935267A06D.jpg" transform="matrix(.24 0 0 .24 181.235 86.323)"/></g></g></g><path fill="#4A4747" d="M196 98.2c1 1.5 2.3 1.5 3.7 1.3.1-.1.1-.3.2-.4-2.1.4-2.8-1.1-3.8-1.5-.4-.2-1-.3-1.3-.8-.1.1-.2.3-.3.5.4.7 1.1.5 1.5.9"/><defs><path id="bM" d="M119.9 108.5C114.6 98.3 113.1 90 113 82c-.1-2.8 0-5.5.2-8.3 0-.9.2-1.3.4-1.3.1 0 .1 0 .2.2l13.5 23.8c-2.1 5.8-5 10.6-6.2 12.3-.2.2-.3.3-.5.3-.3 0-.6-.2-.7-.5m-6.5-40.3c-.4.1-.5 4.8-.6 5.5-.5 11-.4 21.2 6.8 35 .2.4.5.7.8.7.2 0 .5-.1.8-.5 1.3-1.7 4.8-8 7.3-15.1v-.1l-14.6-25.1c-.1-.4-.3-.4-.5-.4.1 0 .1 0 0 0"/></defs><clipPath id="bN"><use xlink:href="#bM" overflow="visible"/></clipPath><g clip-path="url(#bN)"><defs><path id="bO" d="M95.4 76.8l20.3 39.1 29.8-15.1-20.3-39.1z"/></defs><clipPath id="bP"><use xlink:href="#bO" overflow="visible"/></clipPath><g clip-path="url(#bP)"><defs><path id="bQ" d="M167.7 104.6L135 41.5 73.2 73l32.7 63z"/></defs><clipPath id="bR"><use xlink:href="#bQ" overflow="visible"/></clipPath><g clip-path="url(#bR)"><image overflow="visible" width="394" height="394" xlink:href="D73543935267A06F.jpg" transform="matrix(.24 0 0 .24 73.192 41.514)"/></g></g></g><defs><path id="bS" d="M119.9 108.5C114.6 98.3 113.1 90 113 82c-.1-2.8 0-5.5.2-8.3 0-.9.2-1.3.4-1.3.1 0 .1 0 .2.2l13.5 23.8c-2.1 5.8-5 10.6-6.2 12.3-.2.2-.3.3-.5.3-.3 0-.6-.2-.7-.5m-6.5-40.3c-.4.1-.5 4.8-.6 5.5-.5 11-.4 21.2 6.8 35 .2.4.5.7.8.7.2 0 .5-.1.8-.5 1.3-1.7 4.8-8 7.3-15.1v-.1l-14.6-25.1c-.1-.4-.3-.4-.5-.4.1 0 .1 0 0 0"/></defs><clipPath id="bT"><use xlink:href="#bS" overflow="visible"/></clipPath><g clip-path="url(#bT)"><defs><path id="bU" d="M95.4 76.8l20.3 39.1 29.8-15.1-20.3-39.1z"/></defs><clipPath id="bV"><use xlink:href="#bU" overflow="visible"/></clipPath><g clip-path="url(#bV)"><defs><path id="bW" d="M167.7 104.6L135 41.5 73.2 73l32.7 63z"/></defs><clipPath id="bX"><use xlink:href="#bW" overflow="visible"/></clipPath><g clip-path="url(#bX)"><image overflow="visible" width="394" height="394" xlink:href="D73543935267A06C.jpg" transform="matrix(.24 0 0 .24 73.192 41.514)"/></g></g></g><defs><path id="bY" d="M144.6 96.8c-3.5-5.8-5.7-11.6-6.8-17.6-.6-3.3-.9-6.7-.9-9.8 0-2.5 0-4.8.1-7 0-.7.2-1.3.4-1.3.1 0 .1 0 .2.2l14 24.4c-2.3 6.2-4.5 9.9-5.4 11.3-.3.4-.5.6-.8.6-.3-.1-.6-.3-.8-.8m-7.3-39.9c-.4.1-.6 4.8-.6 5.5-.2 5-.3 10.9.8 16.9 1.1 6 3.4 11.8 6.9 17.6.3.6.7.9 1 .9.4 0 .7-.3 1-.8 1.1-1.5 4-7.1 6.5-14.1v-.1l-15.2-25.7c-.1-.1-.2-.2-.4-.2"/></defs><clipPath id="bZ"><use xlink:href="#bY" overflow="visible"/></clipPath><g clip-path="url(#bZ)"><defs><path id="ca" d="M119.7 65.4l20.1 39.1 29.9-15.1-20.2-39.1z"/></defs><clipPath id="cb"><use xlink:href="#ca" overflow="visible"/></clipPath><g clip-path="url(#cb)"><defs><path id="cc" d="M191.8 93.3l-32.5-63.1-61.8 31.3 32.5 63.1z"/></defs><clipPath id="cd"><use xlink:href="#cc" overflow="visible"/></clipPath><g clip-path="url(#cd)"><image overflow="visible" width="394" height="394" xlink:href="D73543935267A066.jpg" transform="matrix(.24 0 0 .24 97.489 30.181)"/></g></g></g><defs><path id="ce" d="M144.6 96.8c-3.5-5.8-5.7-11.6-6.8-17.6-.6-3.3-.9-6.7-.9-9.8 0-2.5 0-4.8.1-7 0-.7.2-1.3.4-1.3.1 0 .1 0 .2.2l14 24.4c-2.3 6.2-4.5 9.9-5.4 11.3-.3.4-.5.6-.8.6-.3-.1-.6-.3-.8-.8m-7.3-39.9c-.4.1-.6 4.8-.6 5.5-.2 5-.3 10.9.8 16.9 1.1 6 3.4 11.8 6.9 17.6.3.6.7.9 1 .9.4 0 .7-.3 1-.8 1.1-1.5 4-7.1 6.5-14.1v-.1l-15.2-25.7c-.1-.1-.2-.2-.4-.2"/></defs><clipPath id="cf"><use xlink:href="#ce" overflow="visible"/></clipPath><g clip-path="url(#cf)"><defs><path id="cg" d="M119.7 65.4l20.1 39.1 29.9-15.1-20.2-39.1z"/></defs><clipPath id="ch"><use xlink:href="#cg" overflow="visible"/></clipPath><g clip-path="url(#ch)"><defs><path id="ci" d="M191.8 93.3l-32.5-63.1-61.8 31.3 32.5 63.1z"/></defs><clipPath id="cj"><use xlink:href="#ci" overflow="visible"/></clipPath><g clip-path="url(#cj)"><image overflow="visible" width="394" height="394" xlink:href="D73543935267A059.jpg" transform="matrix(.24 0 0 .24 97.489 30.181)"/></g></g></g><defs><path id="ck" d="M168.9 85.6c-6.6-11-8.3-19.4-8.4-29.3v-3.9c0-.7.2-1.3.4-1.3.1 0 .2.1.2.2 0 0 14 21.9 14.8 23.1l.1.1c-2.4 6.1-4.6 9.8-5.5 11.1-.3.4-.5.6-.8.6-.3.1-.6-.1-.8-.6m-8-38.6c-.5.1-.6 5.1-.6 5.5-.3 11.7 1 20.8 8.4 33.3.3.5.7.9 1 .9.4 0 .7-.3 1-.8 1.6-2.4 4-6.7 6.7-13.8V72l-16.1-24.6c-.1-.4-.2-.4-.4-.4"/></defs><clipPath id="cl"><use xlink:href="#ck" overflow="visible"/></clipPath><g clip-path="url(#cl)"><defs><path id="cm" d="M143.9 54.9l19.5 38.8 30-15L173.9 40z"/></defs><clipPath id="cn"><use xlink:href="#cm" overflow="visible"/></clipPath><g clip-path="url(#cn)"><defs><path id="co" d="M215 82.9l-31.5-62.7-61.2 30.6 31.6 62.6z"/></defs><clipPath id="cp"><use xlink:href="#co" overflow="visible"/></clipPath><g clip-path="url(#cp)"><image overflow="visible" width="387" height="389" xlink:href="D73543935267A05A.jpg" transform="matrix(.24 0 0 .24 122.335 20.214)"/></g></g></g><defs><path id="cq" d="M168.9 85.6c-6.6-11-8.3-19.4-8.4-29.3v-3.9c0-.7.2-1.3.4-1.3.1 0 .2.1.2.2 0 0 14 21.9 14.8 23.1l.1.1c-2.4 6.1-4.6 9.8-5.5 11.1-.3.4-.5.6-.8.6-.3.1-.6-.1-.8-.6m-8-38.6c-.5.1-.6 5.1-.6 5.5-.3 11.7 1 20.8 8.4 33.3.3.5.7.9 1 .9.4 0 .7-.3 1-.8 1.6-2.4 4-6.7 6.7-13.8V72l-16.1-24.6c-.1-.4-.2-.4-.4-.4"/></defs><clipPath id="cr"><use xlink:href="#cq" overflow="visible"/></clipPath><g clip-path="url(#cr)"><defs><path id="cs" d="M143.9 54.9l19.5 38.8 30-15L173.9 40z"/></defs><clipPath id="ct"><use xlink:href="#cs" overflow="visible"/></clipPath><g clip-path="url(#ct)"><defs><path id="cu" d="M215 82.9l-31.5-62.7-61.2 30.6 31.6 62.6z"/></defs><clipPath id="cv"><use xlink:href="#cu" overflow="visible"/></clipPath><g clip-path="url(#cv)"><image overflow="visible" width="387" height="389" xlink:href="D73543935267A088.jpg" transform="matrix(.24 0 0 .24 122.335 20.214)"/></g></g></g><path fill="#75787A" d="M116.1 74.8c-.7.4.4 2.4.5 2.9.3.6.7 1.3 1.1 1.9-.1-.3-.4-1.8 0-2.2.4-.3 1.8 1.1 2.4 1.9.1.2.3.4.5.6l-2.7-4.7c-.5-.2-1.2-.7-1.8-.4M139.6 64.9c.6 1.1 1.4 2.4 2.1 3.7-.3-.9-.7-1.9.4-1.6.9.2 1.4.8 2.1 1.2l-1.6-2.7c-1.1-1-2.5-1.8-3-.6M163.7 53.7c-.6.3-.3 1-.3 1.3.5.7 1 1.5 1.5 2.4V57c0-.3.1-.4.3-.5 1.4-.2 2.2 1.4 3.5 2.1l-2.7-4.2c-.8-.6-1.8-1-2.3-.7"/><defs><path id="cw" d="M108.2 50.2c-.3 4.4-1.2 22.9-1.4 29.4-.1 6.3.6 16 3.2 23.1 3.3 6.5 6.8 10.3 8.6 12 1.8 1.7 2.3 1.4 3 1.1 1.7-1 3.1-2.3 3.1-2.3 2.4-2.7 5.7-8.5 8.7-16.8 0 0-1-.2-1.5-1-.4-1.1-1.5-1.3-1.9-1.6-.4-.3-.9-.3-1.1 0-2.4 6.4-6.5 14.3-8 15.9-.5.5-1.2-.1-1.4-.5-3.8-7.1-7.5-16.3-7.4-30.2 0-4 .9-26.3 1-26.8.1-.4-.1-.7-.3-.8 0 0-3.3-1.9-3.7-2-.1 0-.2-.1-.3-.1-.3.1-.6.4-.6.6"/></defs><clipPath id="cx"><use xlink:href="#cw" overflow="visible"/></clipPath><g clip-path="url(#cx)"><defs><path id="cy" d="M133.426 116.817l-27.597-.34.825-67.093 27.597.34z"/></defs><clipPath id="cz"><use xlink:href="#cy" overflow="visible"/></clipPath><g clip-path="url(#cz)"><defs><path id="cA" d="M135.11 49.436l-.837 67.793-29.197-.362.837-67.793z"/></defs><clipPath id="cB"><use xlink:href="#cA" overflow="visible"/></clipPath><g clip-path="url(#cB)"><image overflow="visible" width="126" height="284" xlink:href="D73543935267A0B7.jpg" transform="matrix(.24 0 0 .24 105.027 49.05)"/></g></g></g><defs><path id="cC" d="M108.2 50.2c-.3 4.4-1.2 22.9-1.4 29.4-.1 6.3.6 16 3.2 23.1 3.3 6.5 6.8 10.3 8.6 12 1.8 1.7 2.3 1.4 3 1.1 1.7-1 3.1-2.3 3.1-2.3 2.4-2.7 5.7-8.5 8.7-16.8 0 0-1-.2-1.5-1-.4-1.1-1.5-1.3-1.9-1.6-.4-.3-.9-.3-1.1 0-2.4 6.4-6.5 14.3-8 15.9-.5.5-1.2-.1-1.4-.5-3.8-7.1-7.5-16.3-7.4-30.2 0-4 .9-26.3 1-26.8.1-.4-.1-.7-.3-.8 0 0-3.3-1.9-3.7-2-.1 0-.2-.1-.3-.1-.3.1-.6.4-.6.6"/></defs><clipPath id="cD"><use xlink:href="#cC" overflow="visible"/></clipPath><g clip-path="url(#cD)"><defs><path id="cE" d="M133.426 116.817l-27.597-.34.825-67.093 27.597.34z"/></defs><clipPath id="cF"><use xlink:href="#cE" overflow="visible"/></clipPath><g clip-path="url(#cF)"><defs><path id="cG" d="M135.11 49.436l-.837 67.793-29.197-.362.837-67.793z"/></defs><clipPath id="cH"><use xlink:href="#cG" overflow="visible"/></clipPath><g clip-path="url(#cH)"><image overflow="visible" width="126" height="284" xlink:href="D73543935267A0B8.jpg" transform="matrix(.24 0 0 .24 105.027 49.05)"/></g></g></g><defs><path id="cI" d="M108.2 50.2c-.3 4.4-1.2 22.9-1.4 29.4-.1 6.3.6 16 3.2 23.1 3.3 6.5 6.8 10.3 8.6 12 1.8 1.7 2.3 1.4 3 1.1 1.7-1 3.1-2.3 3.1-2.3 2.4-2.7 5.7-8.5 8.7-16.8 0 0-1-.2-1.5-1-.4-1.1-1.5-1.3-1.9-1.6-.4-.3-.9-.3-1.1 0-2.4 6.4-6.5 14.3-8 15.9-.5.5-1.2-.1-1.4-.5-3.8-7.1-7.5-16.3-7.4-30.2 0-4 .9-26.3 1-26.8.1-.4-.1-.7-.3-.8 0 0-3.3-1.9-3.7-2-.1 0-.2-.1-.3-.1-.3.1-.6.4-.6.6"/></defs><clipPath id="cJ"><use xlink:href="#cI" overflow="visible"/></clipPath><g clip-path="url(#cJ)"><defs><path id="cK" d="M133.426 116.817l-27.597-.34.825-67.093 27.597.34z"/></defs><clipPath id="cL"><use xlink:href="#cK" overflow="visible"/></clipPath><g clip-path="url(#cL)"><defs><path id="cM" d="M135.11 49.436l-.837 67.793-29.197-.362.837-67.793z"/></defs><clipPath id="cN"><use xlink:href="#cM" overflow="visible"/></clipPath><g clip-path="url(#cN)"><image overflow="visible" width="126" height="284" xlink:href="D73543935267A0BB.jpg" transform="matrix(.24 0 0 .24 105.027 49.05)"/></g></g></g><path fill="#5C5959" d="M112.7 99.4c.8-.3 1.4-.3 2.3-.2l-.3-.9c-.8 0-1.5.1-2.3.3-1.5.5-2.5.4-3.8-.5.1.2.1.4.2.6 1.1 1.1 2.4 1.3 3.9.7"/><defs><path id="cO" d="M110.1 102.8c3.3 6.5 6.8 10.3 8.6 12 .9.9 1.5 1.2 1.9 1.3.1-1.9.1-3.7-.3-5.6v-.2c-.3-.1-.7-.4-.8-.6-1.6-3-3.2-6.4-4.5-10.4-.9-.2-1.5-.2-2.3.2-1.4.6-2.8.4-3.8-.7.3 1.3.7 2.7 1.2 4"/></defs><clipPath id="cP"><use xlink:href="#cO" overflow="visible"/></clipPath><g clip-path="url(#cP)"><defs><path id="cQ" d="M111.66 121.14l-10.23-18.34 16.506-9.206 10.23 18.34z"/></defs><clipPath id="cR"><use xlink:href="#cQ" overflow="visible"/></clipPath><g clip-path="url(#cR)"><defs><path id="cS" d="M121.85 82.31l18.023 32.317-32.054 17.876-18.023-32.316z"/></defs><clipPath id="cT"><use xlink:href="#cS" overflow="visible"/></clipPath><g clip-path="url(#cT)"><image overflow="visible" width="209" height="210" xlink:href="D73543935267A0B9.jpg" transform="matrix(.24 0 0 .24 89.727 82.296)"/></g></g></g><defs><path id="cU" d="M129 94.2c-2.4 6.4-6.5 14.3-8 15.9-.2.2-.4.2-.6.2v.2c.2 2.3.3 3.8.3 5.6.4.1.7-.1 1-.2 1.7-1 3.1-2.3 3.1-2.3 2.4-2.7 5.8-8.3 8.7-16.8 0 0-1-.2-1.5-1-.4-1.1-1.5-1.3-1.9-1.6-.2-.1-.4-.2-.6-.2-.3 0-.5.1-.5.2"/></defs><clipPath id="cV"><use xlink:href="#cU" overflow="visible"/></clipPath><g clip-path="url(#cV)"><defs><path id="cW" d="M129.483 122.204L110.09 109.47l14.16-21.567 19.394 12.734z"/></defs><clipPath id="cX"><use xlink:href="#cW" overflow="visible"/></clipPath><g clip-path="url(#cX)"><defs><path id="cY" d="M159.31 98.287l-25.8 39.288-39.12-25.69 25.8-39.286z"/></defs><clipPath id="cZ"><use xlink:href="#cY" overflow="visible"/></clipPath><g clip-path="url(#cZ)"><image overflow="visible" width="271" height="271" xlink:href="D73543935267A0BF.jpg" transform="matrix(.24 0 0 .24 94.415 72.587)"/></g></g></g><defs><path id="da" d="M131.7 40.1c0 .4-.3 7.2-.3 7.6 0 0 0 .6-.2.8.1.1 2.7 1.5 3.1 1.7.4.2.6.5.5 1.3-.1.8-.1 13.4-.2 16.8-.1 3.9.6 15.9.6 22.1v1.8c.2 0 .4.4.4.6 1.4 4.2 5.3 11.6 8.7 15.1.2.3.4.4.6.5l.4-9.7c-.3-.1-.6-.3-.9-.8-4.2-6.9-7-13.2-8-23.1-.5-5.1-.3-11.4-.1-19.5.1-4.8.2-10.4.2-12.7 0-.6 0-.8-.4-1.1-.4-.3-2.7-1.4-3.6-2-.1-.1-.2-.1-.3-.1-.3.1-.5.3-.5.7"/></defs><clipPath id="db"><use xlink:href="#da" overflow="visible"/></clipPath><g clip-path="url(#db)"><defs><path id="dc" d="M131.512 110.81l-11.7-69.42 25.047-4.222 11.7 69.42z"/></defs><clipPath id="dd"><use xlink:href="#dc" overflow="visible"/></clipPath><g clip-path="url(#dd)"><defs><path id="de" d="M155.502 31.14l13.08 77.605-47.826 8.06-13.08-77.605z"/></defs><clipPath id="df"><use xlink:href="#de" overflow="visible"/></clipPath><g clip-path="url(#df)"><image overflow="visible" width="254" height="357" xlink:href="D73543935267A0BA.jpg" transform="matrix(.24 0 0 .24 107.753 31.175)"/></g></g></g><defs><path id="dg" d="M131.7 40.1c0 .4-.3 7.2-.3 7.6 0 0 0 .6-.2.8.1.1 2.7 1.5 3.1 1.7.4.2.6.5.5 1.3-.1.8-.1 13.4-.2 16.8-.1 3.9.6 15.9.6 22.1v1.8c.2 0 .4.4.4.6 1.4 4.2 5.3 11.6 8.7 15.1.2.3.4.4.6.5l.4-9.7c-.3-.1-.6-.3-.9-.8-4.2-6.9-7-13.2-8-23.1-.5-5.1-.3-11.4-.1-19.5.1-4.8.2-10.4.2-12.7 0-.6 0-.8-.4-1.1-.4-.3-2.7-1.4-3.6-2-.1-.1-.2-.1-.3-.1-.3.1-.5.3-.5.7"/></defs><clipPath id="dh"><use xlink:href="#dg" overflow="visible"/></clipPath><g clip-path="url(#dh)"><defs><path id="di" d="M131.512 110.81l-11.7-69.42 25.047-4.222 11.7 69.42z"/></defs><clipPath id="dj"><use xlink:href="#di" overflow="visible"/></clipPath><g clip-path="url(#dj)"><defs><path id="dk" d="M155.502 31.14l13.08 77.605-47.826 8.06-13.08-77.605z"/></defs><clipPath id="dl"><use xlink:href="#dk" overflow="visible"/></clipPath><g clip-path="url(#dl)"><image overflow="visible" width="254" height="357" xlink:href="D73543935267A0B5.jpg" transform="matrix(.24 0 0 .24 107.753 31.175)"/></g></g></g><defs><path id="dm" d="M131.7 40.1c0 .4-.3 7.2-.3 7.6 0 0 0 .6-.2.8.1.1 2.7 1.5 3.1 1.7.4.2.6.5.5 1.3-.1.8-.1 13.4-.2 16.8-.1 3.9.6 15.9.6 22.1v1.8c.2 0 .4.4.4.6 1.4 4.2 5.3 11.6 8.7 15.1.2.3.4.4.6.5l.4-9.7c-.3-.1-.6-.3-.9-.8-4.2-6.9-7-13.2-8-23.1-.5-5.1-.3-11.4-.1-19.5.1-4.8.2-10.4.2-12.7 0-.6 0-.8-.4-1.1-.4-.3-2.7-1.4-3.6-2-.1-.1-.2-.1-.3-.1-.3.1-.5.3-.5.7"/></defs><clipPath id="dn"><use xlink:href="#dm" overflow="visible"/></clipPath><g clip-path="url(#dn)"><defs><path id="do" d="M131.512 110.81l-11.7-69.42 25.047-4.222 11.7 69.42z"/></defs><clipPath id="dp"><use xlink:href="#do" overflow="visible"/></clipPath><g clip-path="url(#dp)"><defs><path id="dq" d="M155.502 31.14l13.08 77.605-47.826 8.06-13.08-77.605z"/></defs><clipPath id="dr"><use xlink:href="#dq" overflow="visible"/></clipPath><g clip-path="url(#dr)"><image overflow="visible" width="254" height="357" xlink:href="D73543935267A0B6.jpg" transform="matrix(.24 0 0 .24 107.753 31.175)"/></g></g></g><defs><path id="ds" d="M130.2 81c-.3-.4-14-24.6-14.5-25.5h15.9c0 .7-.4 23.9-.4 25.2 0 .5-.1.7-.2.8h-.1c-.3 0-.6-.3-.7-.5m-15.9-28.2c-.2.1-.2.4 0 .8.4.6 15.6 27.4 15.8 27.8.2.2.6.7.9.7.2 0 .5-.1.5-1.1 0-.9.2-13.5.3-21.6V53c-.1-.1-.1-.1-.3-.2h-17.2z"/></defs><clipPath id="dt"><use xlink:href="#ds" overflow="visible"/></clipPath><g clip-path="url(#dt)"><defs><path id="du" d="M114.1 52.8H132v29.3h-17.9z"/></defs><clipPath id="dv"><use xlink:href="#du" overflow="visible"/></clipPath><g clip-path="url(#dv)"><defs><path id="dw" d="M114.1 52.8H132v29.3h-17.9z"/></defs><clipPath id="dx"><use xlink:href="#dw" overflow="visible"/></clipPath><g clip-path="url(#dx)"><image overflow="visible" width="75" height="123" xlink:href="D73543935267A0B4.jpg" transform="matrix(.24 0 0 .24 114.081 52.753)"/></g></g></g><defs><path id="dy" d="M154.2 70.2c-.3-.4-14.2-23.9-14.7-24.7H155c0 .5.2 23.1.2 24.5 0 .5-.1.7-.2.8h-.1c-.2 0-.5-.4-.7-.6m-15.7-27.5c-.3.2-.4.7-.2 1 .2.3 15.7 26.4 16 26.8.2.2.5.8.9.7.2 0 .5-.1.6-1.1 0-1.5-.1-23.8-.1-27 0-.3-.2-.5-.6-.5h-16.6z"/></defs><clipPath id="dz"><use xlink:href="#dy" overflow="visible"/></clipPath><g clip-path="url(#dz)"><defs><path id="dA" d="M138 42.7h17.7v28.6H138z"/></defs><clipPath id="dB"><use xlink:href="#dA" overflow="visible"/></clipPath><g clip-path="url(#dB)"><defs><path id="dC" d="M138 42.7h17.7v28.6H138z"/></defs><clipPath id="dD"><use xlink:href="#dC" overflow="visible"/></clipPath><g clip-path="url(#dD)"><image overflow="visible" width="74" height="120" xlink:href="D73543935267A093.jpg" transform="matrix(.24 0 0 .24 138.047 42.681)"/></g></g></g><defs><path id="dE" d="M177.8 60.1c-.3-.4-14.2-22.9-14.7-23.8H178c0 .5.8 22.3.8 23.6 0 .4-.1.7-.2.7h-.1c-.2.1-.5-.3-.7-.5m-16.1-25.8c.2.4 15.8 25.8 16.1 26.1.2.2.6.8 1 .7.2 0 .5-.2.5-1.1 0-1.2-.6-23.4-.7-26.3 0-.2-.1-.4-.4-.4-2.4 0-15.3-.1-15.9-.1-.6.2-.8.7-.6 1.1"/></defs><clipPath id="dF"><use xlink:href="#dE" overflow="visible"/></clipPath><g clip-path="url(#dF)"><defs><path id="dG" d="M161.5 33.4h17.9v27.9h-17.9z"/></defs><clipPath id="dH"><use xlink:href="#dG" overflow="visible"/></clipPath><g clip-path="url(#dH)"><defs><path id="dI" d="M161.5 33.4h17.9v27.9h-17.9z"/></defs><clipPath id="dJ"><use xlink:href="#dI" overflow="visible"/></clipPath><g clip-path="url(#dJ)"><image overflow="visible" width="75" height="117" xlink:href="D73543935267A095.jpg" transform="matrix(.24 0 0 .24 161.476 33.358)"/></g></g></g><path fill="#8C8C8C" d="M131.4 63.2c-.1 5.5-.2 12.5-.3 15.8.2-.2.3-.3.5-.4.1-3.5.2-10 .2-15.7 0 .1-.2.2-.4.3M155.1 51.5c0 5.5.1 13.4.1 16.8.1-.1.2-.2.4-.2h.2c0-3.6-.1-11.1-.1-16.9-.3.1-.5.2-.6.3M178.2 42.6c.2 5.3.4 12.6.5 15.8.2 0 .4-.1.5-.1-.1-3.3-.3-10.3-.4-16-.2 0-.4.1-.6.3"/><defs><path id="dK" d="M153 39s-18.8.1-19.4.1c0 0-.4.1-.5.2v.2l.1.1c.4.3 3 1.6 3.4 1.8.5.3 1.3.8 2 .8 1.3 0 15.3.1 16 0 .7 0 1.4-.3 2.1-1.2V40.7c-.1-.2-.3-.3-.5-.4-.3-.2-1.7-.9-1.9-1 0 0-.4-.2-1-.2-.2-.2-.2-.1-.3-.1"/></defs><clipPath id="dL"><use xlink:href="#dK" overflow="visible"/></clipPath><g clip-path="url(#dL)"><defs><path id="dM" d="M156.697 42.696l-23.59-.625.097-3.697 23.59.625z"/></defs><clipPath id="dN"><use xlink:href="#dM" overflow="visible"/></clipPath><g clip-path="url(#dN)"><defs><path id="dO" d="M132.977 37.686l23.793.63-.133 4.998-23.793-.63z"/></defs><clipPath id="dP"><use xlink:href="#dO" overflow="visible"/></clipPath><g clip-path="url(#dP)"><image overflow="visible" width="100" height="24" xlink:href="D73543935267A097.jpg" transform="matrix(.24 0 0 .24 132.887 37.694)"/></g></g></g><defs><path id="dQ" d="M153 39s-11.3 0-17 .1c4.5.3 8.9.6 6.8 1.6-1.8.8 1.8.5 4.5 1.4h7.2c.7 0 1.4-.3 2.1-1.2V40.6c-.1-.2-.3-.3-.5-.4-.3-.2-1.7-.9-1.9-1 0 0-.4-.2-1-.2-.1-.1-.1 0-.2 0"/></defs><clipPath id="dR"><use xlink:href="#dQ" overflow="visible"/></clipPath><g clip-path="url(#dR)"><defs><path id="dS" d="M156.616 42.35l-20.596-.363.06-3.4 20.595.362z"/></defs><clipPath id="dT"><use xlink:href="#dS" overflow="visible"/></clipPath><g clip-path="url(#dT)"><defs><path id="dU" d="M136.03 38.218l20.797.362-.073 4.2-20.796-.363z"/></defs><clipPath id="dV"><use xlink:href="#dU" overflow="visible"/></clipPath><g clip-path="url(#dV)"><image overflow="visible" width="87" height="19" xlink:href="D73543935267A092.jpg" transform="matrix(.24 0 0 .24 135.959 38.228)"/></g></g></g><defs><path id="dW" d="M129.9 48.9h-5.3l-15.4.1c-.2.1-.3.2-.1.3.4.3 3.2 1.8 3.5 2 .5.3 1.3.8 2.1.8 1.3 0 16 .1 16.7 0 .7 0 1.5-.3 2.2-1.2V50.6c-.1-.2-.3-.3-.6-.4-.4-.2-1.8-1-2-1.2 0 0-.4-.2-1-.2.1 0 0 0-.1.1"/></defs><clipPath id="dX"><use xlink:href="#dW" overflow="visible"/></clipPath><g clip-path="url(#dX)"><defs><path id="dY" d="M109 52.132l-.017-3.3 24.8-.124.016 3.3z"/></defs><clipPath id="dZ"><use xlink:href="#dY" overflow="visible"/></clipPath><g clip-path="url(#dZ)"><defs><path id="ea" d="M108.893 48.763l24.8-.124.018 3.6-24.8.123z"/></defs><clipPath id="eb"><use xlink:href="#ea" overflow="visible"/></clipPath><g clip-path="url(#eb)"><image overflow="visible" width="104" height="16" xlink:href="D73543935267A091.jpg" transform="matrix(.24 0 0 .24 108.929 48.594)"/></g></g></g><defs><path id="ec" d="M154.5 30.8c0 .4-.3 7.7-.3 7.9 0 0 2.9 1.4 3.3 1.7.4.3.6.4.6 1.1 0 .7.8 28.8 1.4 39.7 0 0 .2 0 .4.3.1.1.1.3.2.5 1.3-.2 2.2-.6 3.2-1.4.3-.4.8-.6 1.4-.7-1.2-2.6-2.6-6.1-3.7-10.2-2.3-9-1.2-25.7-1.1-36.4 0-.9-.7-1.2-.7-1.2-.4-.2-3.7-1.6-3.7-1.6-.1-.1-.2-.1-.4-.1s-.6.2-.6.4"/></defs><clipPath id="ed"><use xlink:href="#ec" overflow="visible"/></clipPath><g clip-path="url(#ed)"><defs><path id="ee" d="M154.674 84.093L143.992 32.49l20.172-4.176 10.682 51.603z"/></defs><clipPath id="ef"><use xlink:href="#ee" overflow="visible"/></clipPath><g clip-path="url(#ef)"><defs><path id="eg" d="M173.54 22.206l12.325 59.535-40.637 8.413-12.324-59.535z"/></defs><clipPath id="eh"><use xlink:href="#eg" overflow="visible"/></clipPath><g clip-path="url(#eh)"><image overflow="visible" width="221" height="284" xlink:href="D73543935267A0ED.jpg" transform="matrix(.24 0 0 .24 132.946 22.221)"/></g></g></g><defs><path id="ei" d="M154.5 30.8c0 .4-.3 7.7-.3 7.9 0 0 2.9 1.4 3.3 1.7.4.3.6.4.6 1.1 0 .7.8 28.8 1.4 39.7 0 0 .2 0 .4.3.1.1.1.3.2.5 1.3-.2 2.2-.6 3.2-1.4.3-.4.8-.6 1.4-.7-1.2-2.6-2.6-6.1-3.7-10.2-2.3-9-1.2-25.7-1.1-36.4 0-.9-.7-1.2-.7-1.2-.4-.2-3.7-1.6-3.7-1.6-.1-.1-.2-.1-.4-.1s-.6.2-.6.4"/></defs><clipPath id="ej"><use xlink:href="#ei" overflow="visible"/></clipPath><g clip-path="url(#ej)"><defs><path id="ek" d="M154.674 84.093L143.992 32.49l20.172-4.176 10.682 51.603z"/></defs><clipPath id="el"><use xlink:href="#ek" overflow="visible"/></clipPath><g clip-path="url(#el)"><defs><path id="em" d="M173.54 22.206l12.325 59.535-40.637 8.413-12.324-59.535z"/></defs><clipPath id="en"><use xlink:href="#em" overflow="visible"/></clipPath><g clip-path="url(#en)"><image overflow="visible" width="221" height="284" xlink:href="D73543935267A0EF.jpg" transform="matrix(.24 0 0 .24 132.946 22.221)"/></g></g></g><defs><path id="eo" d="M154.5 30.8c0 .4-.3 7.7-.3 7.9 0 0 2.9 1.4 3.3 1.7.4.3.6.4.6 1.1 0 .7.8 28.8 1.4 39.7 0 0 .2 0 .4.3.1.1.1.3.2.5 1.3-.2 2.2-.6 3.2-1.4.3-.4.8-.6 1.4-.7-1.2-2.6-2.6-6.1-3.7-10.2-2.3-9-1.2-25.7-1.1-36.4 0-.9-.7-1.2-.7-1.2-.4-.2-3.7-1.6-3.7-1.6-.1-.1-.2-.1-.4-.1s-.6.2-.6.4"/></defs><clipPath id="ep"><use xlink:href="#eo" overflow="visible"/></clipPath><g clip-path="url(#ep)"><defs><path id="eq" d="M154.674 84.093L143.992 32.49l20.172-4.176 10.682 51.603z"/></defs><clipPath id="er"><use xlink:href="#eq" overflow="visible"/></clipPath><g clip-path="url(#er)"><defs><path id="es" d="M173.54 22.206l12.325 59.535-40.637 8.413-12.324-59.535z"/></defs><clipPath id="et"><use xlink:href="#es" overflow="visible"/></clipPath><g clip-path="url(#et)"><image overflow="visible" width="221" height="284" xlink:href="D73543935267A0F2.jpg" transform="matrix(.24 0 0 .24 132.946 22.221)"/></g></g></g><path fill="#292B2B" d="M193.3 35.7c-.1-.1-.2-.4-.3-.5-.4.1-.7 0-1.4-.3s-3.3-2.9-3.6-2.6 1.3 1.4 1 1.6c-.3.2-.5-.1-1 0 .3.4.7.8 1 1.2.4.4 2.2 1.5 1.1-.4-.2-.4.1.4.4.6.3.2 1 .8 1.3.9.3.1.6 0 .8.2.4.1 2.2 1.7.7-.7"/><path fill="#736E69" d="M189 106.1c-.1-.1-.1-.4-.2-.4-.1.2-.3.3-.4.5.1.1.2.3.3.4.1.1 3-.2 4.3 3 .2-.2.4-.5.6-.7-.9-2.5-4.4-2.7-4.6-2.8"/><defs><path id="eu" d="M130.8 48.9c.2.1.3.1.3.1.3.2 1.7 1 2 1.2.4.2.7.4.5.6-.7.9-1.5 1.1-2.2 1.2h-16.7c-.1.2-.1.5-.2.7.7 0 13.8.1 16.8.1.4 0 .6.2.6.5-.1 3.6-.4 26.4-.4 27.7 0 .2 0 .4-.1.6v.5l-.3 3.3c0 .1 0 .2-.1.3v.3c-.3 1.8-.7 3.5-1.2 5.3 0 .1 0 .1-.1.2 0 .1-.1.2-.1.3-.3.8-.5 1.7-.8 2.5.1-.3.7-.3 1.1 0 .4.3 1.5.4 1.9 1.6.4.7 1 .9 1.5 1 .4-1.2.8-2.5 1.2-3.8.1-.5.3-.7.4-.7v-1.8c0-6.2-.7-18.2-.6-22.1.1-3.5.1-16.1.2-16.8.1-.8-.1-1.1-.5-1.3-.3-.2-2.4-1.3-3-1.6.1-.1 0 .1-.2.1"/></defs><clipPath id="ev"><use xlink:href="#eu" overflow="visible"/></clipPath><g clip-path="url(#ev)"><defs><path id="ew" d="M133.096 102.866L100.32 92.1l16.293-49.59 32.775 10.766z"/></defs><clipPath id="ex"><use xlink:href="#ew" overflow="visible"/></clipPath><g clip-path="url(#ex)"><defs><path id="ey" d="M82.508 96.976l22.66-68.978 62.135 20.412-22.658 68.977z"/></defs><clipPath id="ez"><use xlink:href="#ey" overflow="visible"/></clipPath><g clip-path="url(#ez)"><image overflow="visible" width="354" height="373" xlink:href="D73543935267A0F3.jpg" transform="matrix(.24 0 0 .24 82.496 28)"/></g></g></g><defs><path id="eA" d="M130.8 48.9c.2.1.3.1.3.1.3.2 1.7 1 2 1.2.4.2.7.4.5.6-.7.9-1.5 1.1-2.2 1.2h-16.7c-.1.2-.1.5-.2.7.7 0 13.8.1 16.8.1.4 0 .6.2.6.5-.1 3.6-.4 26.4-.4 27.7 0 .2 0 .4-.1.6v.5l-.3 3.3c0 .1 0 .2-.1.3v.3c-.3 1.8-.7 3.5-1.2 5.3 0 .1 0 .1-.1.2 0 .1-.1.2-.1.3-.3.8-.5 1.7-.8 2.5.1-.3.7-.3 1.1 0 .4.3 1.5.4 1.9 1.6.4.7 1 .9 1.5 1 .4-1.2.8-2.5 1.2-3.8.1-.5.3-.7.4-.7v-1.8c0-6.2-.7-18.2-.6-22.1.1-3.5.1-16.1.2-16.8.1-.8-.1-1.1-.5-1.3-.3-.2-2.4-1.3-3-1.6.1-.1 0 .1-.2.1"/></defs><clipPath id="eB"><use xlink:href="#eA" overflow="visible"/></clipPath><g clip-path="url(#eB)"><defs><path id="eC" d="M133.096 102.866L100.32 92.1l16.293-49.59 32.775 10.766z"/></defs><clipPath id="eD"><use xlink:href="#eC" overflow="visible"/></clipPath><g clip-path="url(#eD)"><defs><path id="eE" d="M82.508 96.976l22.66-68.978 62.135 20.412-22.658 68.977z"/></defs><clipPath id="eF"><use xlink:href="#eE" overflow="visible"/></clipPath><g clip-path="url(#eF)"><image overflow="visible" width="354" height="373" xlink:href="D73543935267A0F5.jpg" transform="matrix(.24 0 0 .24 82.496 28)"/></g></g></g><defs><path id="eG" d="M130.8 48.9c.2.1.3.1.3.1.3.2 1.7 1 2 1.2.4.2.7.4.5.6-.7.9-1.5 1.1-2.2 1.2h-16.7c-.1.2-.1.5-.2.7.7 0 13.8.1 16.8.1.4 0 .6.2.6.5-.1 3.6-.4 26.4-.4 27.7 0 .2 0 .4-.1.6v.5l-.3 3.3c0 .1 0 .2-.1.3v.3c-.3 1.8-.7 3.5-1.2 5.3 0 .1 0 .1-.1.2 0 .1-.1.2-.1.3-.3.8-.5 1.7-.8 2.5.1-.3.7-.3 1.1 0 .4.3 1.5.4 1.9 1.6.4.7 1 .9 1.5 1 .4-1.2.8-2.5 1.2-3.8.1-.5.3-.7.4-.7v-1.8c0-6.2-.7-18.2-.6-22.1.1-3.5.1-16.1.2-16.8.1-.8-.1-1.1-.5-1.3-.3-.2-2.4-1.3-3-1.6.1-.1 0 .1-.2.1"/></defs><clipPath id="eH"><use xlink:href="#eG" overflow="visible"/></clipPath><g clip-path="url(#eH)"><defs><path id="eI" d="M133.096 102.866L100.32 92.1l16.293-49.59 32.775 10.766z"/></defs><clipPath id="eJ"><use xlink:href="#eI" overflow="visible"/></clipPath><g clip-path="url(#eJ)"><defs><path id="eK" d="M82.508 96.976l22.66-68.978 62.135 20.412-22.658 68.977z"/></defs><clipPath id="eL"><use xlink:href="#eK" overflow="visible"/></clipPath><g clip-path="url(#eL)"><image overflow="visible" width="354" height="373" xlink:href="D73543935267A0D2.jpg" transform="matrix(.24 0 0 .24 82.496 28)"/></g></g></g><path fill="#F2F5FA" d="M131.2 85.3c0 .1 0 .2-.1.3.1-.1.1-.2.1-.3M131.6 81.5v.5-.5M131.1 85.9c-.3 1.9-.7 3.6-1.2 5.3.5-1.8.9-3.5 1.2-5.3M129.9 91.4c0 .1-.1.2-.1.3 0-.1 0-.2.1-.3"/><defs><path id="eM" d="M119.6 108.6c-7.1-13.8-7.3-24-6.8-35 0-.7.2-5.4.6-5.5.1 0 .3 0 .5.3l14.6 25.1v.1c-2.5 7.2-6 13.5-7.3 15.1-.3.4-.5.5-.7.5-.4.1-.7-.2-.9-.6m-11.2-59v.3c.2-.2.4-.3.7-.1.3.2 3.7 2 3.7 2 .2.2.4.4.3.8-.1.4-.9 22.8-1 26.8-.1 13.8 3.6 23.1 7.4 30.2.3.7 1.1.9 1.5.4 1.5-1.6 5.5-9.5 7.9-15.8.3-.9.5-1.7.8-2.5 0-.1.1-.2.1-.3 0-.1 0-.1.1-.2.5-1.7.9-3.4 1.2-5.3v-.3c0-.1 0-.2.1-.3.2-1 .3-2.1.3-3.3v-.5c-.1.4-.3.5-.5.5-.4 0-.8-.4-.9-.7-.3-.4-15.5-27.2-15.8-27.8-.4-.7.1-.9.3-.9.1-.2.1-.5.2-.7-.8 0-1.6-.5-2.1-.8-.4-.2-3.1-1.7-3.5-2-.1-.1-.1-.1-.1-.2-.4.2-.7.3-.7.7"/></defs><clipPath id="eN"><use xlink:href="#eM" overflow="visible"/></clipPath><g clip-path="url(#eN)"><defs><path id="eO" d="M105.5 46.2h28.8V113h-28.8z"/></defs><clipPath id="eP"><use xlink:href="#eO" overflow="visible"/></clipPath><g clip-path="url(#eP)"><image overflow="visible" width="22" height="50" xlink:href="D73543935267A0D5.jpg" transform="matrix(1.31 0 0 1.336 105.549 46.197)"/></g></g><defs><path id="eQ" d="M144.3 97c-3.5-5.8-5.7-11.6-6.9-17.6-1.1-6-1-11.9-.8-16.9 0-.7.2-5.4.6-5.5.1 0 .3 0 .5.3L152.9 83v.1c-2.5 7-5.4 12.5-6.5 14.1-.4.5-.7.8-1 .8-.4-.1-.7-.5-1.1-1m9.9-26.5c-.3-.4-15.8-26.6-16-26.8-.2-.4 0-1.1.4-1.1.3 0 13.5.1 16.3.1.3 0 .6.2.6.5 0 3.2.2 25.4.1 27 0 1-.4 1.1-.6 1.1h-.1c-.2 0-.5-.5-.7-.8m-21.3-31.3c-.6 0-.9.1-1 .4.1-.1.3-.1.5 0 .9.6 3.2 1.7 3.6 2 .4.3.4.5.4 1.1 0 2.3-.1 7.9-.2 12.7-.2 8.1-.4 14.4.1 19.5 1 10 3.8 16.2 8 23.1.3.5.6.8.9.8.3 0 .6-.1.8-.5 1.6-1.7 2.7-4.3 4.1-7.2 2-4.1 2.9-6.6 4.2-11.4.6-2.1 1.4-5.3 1.8-9.6.2-10.8 0-26.3-.1-27.1 0 0 0-.8-.5-1.3-.4.2-.8.3-1.1.3h-15.9v.2-.2h-.1c-.7 0-1.5-.5-2-.8-.4-.2-3-1.5-3.4-1.8-.2-.1-.1-.2 0-.2h-.1z"/></defs><clipPath id="eR"><use xlink:href="#eQ" overflow="visible"/></clipPath><g clip-path="url(#eR)"><defs><path id="eS" d="M129.1 36.3h30v65.2h-30z"/></defs><clipPath id="eT"><use xlink:href="#eS" overflow="visible"/></clipPath><g clip-path="url(#eT)"><image overflow="visible" width="23" height="49" xlink:href="D73543935267A0D6.jpg" transform="matrix(1.304 0 0 1.33 129.066 36.344)"/></g></g><defs><path id="eU" d="M154 39.1c.1 0 .2.1.2.1.3.2 1.6.9 1.9 1 .3.2.7.4.5.6-.3.4-.6.7-1 .9.5.6.5 1.3.5 1.3.1.8.3 16.3.1 27.1-.4 4.3-1.2 7.5-1.8 9.6-1.3 4.8-2.3 7.4-4.2 11.4 1.8.2 2.9 1 3.6 1.8.5.5 1 .5 1.2.4 2.3-4.8 3.4-8.7 4-11.4.1-.6.4-.7.5-.7v-.1c-.2-3.1-1.4-38.9-1.4-39.6 0-.7-.2-.8-.6-1.1-.4-.3-2.6-1.4-3.2-1.6 0 .2-.1.2-.3.3"/></defs><clipPath id="eV"><use xlink:href="#eU" overflow="visible"/></clipPath><g clip-path="url(#eV)"><defs><path id="eW" d="M157.988 96.886l-27.715-12 21.414-49.463 27.715 12z"/></defs><clipPath id="eX"><use xlink:href="#eW" overflow="visible"/></clipPath><g clip-path="url(#eX)"><defs><path id="eY" d="M107.89 87.193l30.155-69.653 63.78 27.612-30.155 69.654z"/></defs><clipPath id="eZ"><use xlink:href="#eY" overflow="visible"/></clipPath><g clip-path="url(#eZ)"><image overflow="visible" width="392" height="406" xlink:href="D73543935267A0D4.jpg" transform="matrix(.24 0 0 .24 107.9 17.522)"/></g></g></g><defs><path id="fa" d="M154 39.1c.1 0 .2.1.2.1.3.2 1.6.9 1.9 1 .3.2.7.4.5.6-.3.4-.6.7-1 .9.5.6.5 1.3.5 1.3.1.8.3 16.3.1 27.1-.4 4.3-1.2 7.5-1.8 9.6-1.3 4.8-2.3 7.4-4.2 11.4 1.8.2 2.9 1 3.6 1.8.5.5 1 .5 1.2.4 2.3-4.8 3.4-8.7 4-11.4.1-.6.4-.7.5-.7v-.1c-.2-3.1-1.4-38.9-1.4-39.6 0-.7-.2-.8-.6-1.1-.4-.3-2.6-1.4-3.2-1.6 0 .2-.1.2-.3.3"/></defs><clipPath id="fb"><use xlink:href="#fa" overflow="visible"/></clipPath><g clip-path="url(#fb)"><defs><path id="fc" d="M157.988 96.886l-27.715-12 21.414-49.463 27.715 12z"/></defs><clipPath id="fd"><use xlink:href="#fc" overflow="visible"/></clipPath><g clip-path="url(#fd)"><defs><path id="fe" d="M107.89 87.193l30.155-69.653 63.78 27.612-30.155 69.654z"/></defs><clipPath id="ff"><use xlink:href="#fe" overflow="visible"/></clipPath><g clip-path="url(#ff)"><image overflow="visible" width="392" height="406" xlink:href="D73543935267A0D3.jpg" transform="matrix(.24 0 0 .24 107.9 17.522)"/></g></g></g><defs><path id="fg" d="M154 39.1c.1 0 .2.1.2.1.3.2 1.6.9 1.9 1 .3.2.7.4.5.6-.3.4-.6.7-1 .9.5.6.5 1.3.5 1.3.1.8.3 16.3.1 27.1-.4 4.3-1.2 7.5-1.8 9.6-1.3 4.8-2.3 7.4-4.2 11.4 1.8.2 2.9 1 3.6 1.8.5.5 1 .5 1.2.4 2.3-4.8 3.4-8.7 4-11.4.1-.6.4-.7.5-.7v-.1c-.2-3.1-1.4-38.9-1.4-39.6 0-.7-.2-.8-.6-1.1-.4-.3-2.6-1.4-3.2-1.6 0 .2-.1.2-.3.3"/></defs><clipPath id="fh"><use xlink:href="#fg" overflow="visible"/></clipPath><g clip-path="url(#fh)"><defs><path id="fi" d="M157.988 96.886l-27.715-12 21.414-49.463 27.715 12z"/></defs><clipPath id="fj"><use xlink:href="#fi" overflow="visible"/></clipPath><g clip-path="url(#fj)"><defs><path id="fk" d="M107.89 87.193l30.155-69.653 63.78 27.612-30.155 69.654z"/></defs><clipPath id="fl"><use xlink:href="#fk" overflow="visible"/></clipPath><g clip-path="url(#fl)"><image overflow="visible" width="392" height="406" xlink:href="D73543935267A0DD.jpg" transform="matrix(.24 0 0 .24 107.9 17.522)"/></g></g></g><defs><path id="fm" d="M154 39.1c.1 0 .2.1.2.1.3.2 1.6.9 1.9 1 .3.2.7.4.5.6-.3.4-.6.7-1 .9.5.6.5 1.3.5 1.3.1.8.3 16.3.1 27.1-.4 4.3-1.2 7.5-1.8 9.6-1.3 4.8-2.3 7.4-4.2 11.4 1.8.2 2.9 1 3.6 1.8.5.5 1 .5 1.2.4 2.3-4.8 3.4-8.7 4-11.4.1-.6.4-.7.5-.7v-.1c-.2-3.1-1.4-38.9-1.4-39.6 0-.7-.2-.8-.6-1.1-.4-.3-2.6-1.4-3.2-1.6 0 .2-.1.2-.3.3"/></defs><clipPath id="fn"><use xlink:href="#fm" overflow="visible"/></clipPath><g clip-path="url(#fn)"><defs><path id="fo" d="M157.988 96.886l-27.715-12 21.414-49.463 27.715 12z"/></defs><clipPath id="fp"><use xlink:href="#fo" overflow="visible"/></clipPath><g clip-path="url(#fp)"><defs><path id="fq" d="M107.89 87.193l30.155-69.653 63.78 27.612-30.155 69.654z"/></defs><clipPath id="fr"><use xlink:href="#fq" overflow="visible"/></clipPath><g clip-path="url(#fr)"><image overflow="visible" width="392" height="406" xlink:href="D73543935267A0DE.jpg" transform="matrix(.24 0 0 .24 107.9 17.522)"/></g></g></g><path fill="#fff" d="M174.4 29.2c-.4-.2-1.1 0-1.3.2.1.1.1.3.1.4-.1.2-.2.3-.5.3h-1.1c.9.2 1.3.6 3.1.9.7.2-.6-.1 4.4 1.7h.1v-1.2c-1.9-.9-3.9-1.9-4.8-2.3"/><defs><path id="fs" d="M168.6 85.8c-7.5-12.4-8.7-21.6-8.4-33.3 0-.4.1-5.4.6-5.5.1 0 .3 0 .5.3l16.1 24.6v.1c-2.7 7.1-5.1 11.4-6.7 13.8-.3.5-.6.8-1 .8s-.7-.3-1.1-.8m9.2-25.3c-.3-.4-15.9-25.7-16.1-26.1-.2-.4 0-1 .6-1 .5 0 13.4.1 15.9.1.3 0 .4.2.4.4.1 2.9.7 25.1.7 26.3 0 .9-.3 1.1-.5 1.1h-.1c-.3-.1-.7-.6-.9-.8m-15.4-27.4c0 .1 0 .2-.1.3.1-.1.1-.2.1-.3m-6.7-2.9c-.5 0-.8 0-1 .3.2-.1.5-.1.7 0 0 0 3.3 1.4 3.7 1.6 0 0 .7.3.7 1.2-.1 10.7-1.2 27.4 1.1 36.4 1.1 4.1 2.4 7.6 3.7 10.2.1.2.2.3.2.5v.1c.1.2.2.3.2.5 1.5 2.9 2.7 4.7 2.9 5 .4.7 1.1 1.5 1.6 1.5.7 0 1.3-1 1.7-1.5 0 0 3.4-5 6.8-14.3 1.2-3.3 1.8-9.4 1.8-11.9s-.7-26-.7-26v-.7c-.2-.1-.5-.2-.8-.3-.4-.1-1.4-.1-1.6-.1h-14.9c-.7 0-1.7-.6-2.1-.8-.4-.2-3-1.1-3.4-1.4-.1-.1-.1-.1-.1-.2l-.5-.1z"/></defs><clipPath id="ft"><use xlink:href="#fs" overflow="visible"/></clipPath><g clip-path="url(#ft)"><defs><path id="fu" d="M151.9 27.4h30.7v62.8h-30.7z"/></defs><clipPath id="fv"><use xlink:href="#fu" overflow="visible"/></clipPath><g clip-path="url(#fv)"><image overflow="visible" width="23" height="47" xlink:href="D73543935267A0DC.jpg" transform="matrix(1.336 0 0 1.335 151.944 27.384)"/></g></g><path fill="#F2F5FA" d="M179.2 32.7v.4c.1.1.3.1.3.1.3 0 .1-.4-.3-.5"/><defs><path id="fw" d="M179.2 32.7c.4.2.6.5.3.5-.1 0-.2-.1-.3-.1v.7s.7 23.5.7 26-.6 8.6-1.8 11.9c-3.3 9.2-6.8 14.2-6.8 14.2.6.1 1.7 1.2 2.3 1.9.4.5 1.5 1 1.9 1.1 3.9-6 5.7-10.8 6.9-14.9 2.7-8.9 1.9-25.7 1.5-32.5-.1-.7.4-.8.8-.5 0 0 .4-.1.2-.6-.5-1.3-3.2-6.9-3.4-7.3-.2-.4-.5-.7-1-.9-.1-.1-.6-.4-1.3-.6v1.1z"/></defs><clipPath id="fx"><use xlink:href="#fw" overflow="visible"/></clipPath><g clip-path="url(#fx)"><defs><path id="fy" d="M183.693 93.072l-29.988-10.278 19.063-55.624 29.988 10.277z"/></defs><clipPath id="fz"><use xlink:href="#fy" overflow="visible"/></clipPath><g clip-path="url(#fz)"><defs><path id="fA" d="M133.51 86.202l25.354-73.977 64.044 21.948-25.353 73.977z"/></defs><clipPath id="fB"><use xlink:href="#fA" overflow="visible"/></clipPath><g clip-path="url(#fB)"><image overflow="visible" width="373" height="400" xlink:href="D73543935267A0D7.jpg" transform="matrix(.24 0 0 .24 133.511 12.175)"/></g></g></g><defs><path id="fC" d="M179.2 32.7c.4.2.6.5.3.5-.1 0-.2-.1-.3-.1v.7s.7 23.5.7 26-.6 8.6-1.8 11.9c-3.3 9.2-6.8 14.2-6.8 14.2.6.1 1.7 1.2 2.3 1.9.4.5 1.5 1 1.9 1.1 3.9-6 5.7-10.8 6.9-14.9 2.7-8.9 1.9-25.7 1.5-32.5-.1-.7.4-.8.8-.5 0 0 .4-.1.2-.6-.5-1.3-3.2-6.9-3.4-7.3-.2-.4-.5-.7-1-.9-.1-.1-.6-.4-1.3-.6v1.1z"/></defs><clipPath id="fD"><use xlink:href="#fC" overflow="visible"/></clipPath><g clip-path="url(#fD)"><defs><path id="fE" d="M183.693 93.072l-29.988-10.278 19.063-55.624 29.988 10.277z"/></defs><clipPath id="fF"><use xlink:href="#fE" overflow="visible"/></clipPath><g clip-path="url(#fF)"><defs><path id="fG" d="M133.51 86.202l25.354-73.977 64.044 21.948-25.353 73.977z"/></defs><clipPath id="fH"><use xlink:href="#fG" overflow="visible"/></clipPath><g clip-path="url(#fH)"><image overflow="visible" width="373" height="400" xlink:href="D73543935267A0A9.jpg" transform="matrix(.24 0 0 .24 133.511 12.175)"/></g></g></g><defs><path id="fI" d="M179.2 32.7c.4.2.6.5.3.5-.1 0-.2-.1-.3-.1v.7s.7 23.5.7 26-.6 8.6-1.8 11.9c-3.3 9.2-6.8 14.2-6.8 14.2.6.1 1.7 1.2 2.3 1.9.4.5 1.5 1 1.9 1.1 3.9-6 5.7-10.8 6.9-14.9 2.7-8.9 1.9-25.7 1.5-32.5-.1-.7.4-.8.8-.5 0 0 .4-.1.2-.6-.5-1.3-3.2-6.9-3.4-7.3-.2-.4-.5-.7-1-.9-.1-.1-.6-.4-1.3-.6v1.1z"/></defs><clipPath id="fJ"><use xlink:href="#fI" overflow="visible"/></clipPath><g clip-path="url(#fJ)"><defs><path id="fK" d="M183.693 93.072l-29.988-10.278 19.063-55.624 29.988 10.277z"/></defs><clipPath id="fL"><use xlink:href="#fK" overflow="visible"/></clipPath><g clip-path="url(#fL)"><defs><path id="fM" d="M133.51 86.202l25.354-73.977 64.044 21.948-25.353 73.977z"/></defs><clipPath id="fN"><use xlink:href="#fM" overflow="visible"/></clipPath><g clip-path="url(#fN)"><image overflow="visible" width="373" height="400" xlink:href="D73543935267A139.jpg" transform="matrix(.24 0 0 .24 133.511 12.175)"/></g></g></g><path fill="#4D4D4D" d="M184.2 48.4c-.5-1-1.6-1.7-2.6-2.3-1.5-1-1.8-2.6-2.2-4.1 0 1 0 1.5.1 2.6.3.9.8 2 1.4 2.5 3.6 3 3.2 6.4 3.4 9.9.1-3.1 0-6-.1-8.6"/><defs><path id="fO" d="M179.2 31.5v1.1c.4.2.6.5.3.5-.1 0-.2-.1-.3-.1v.7s.1 3.6.2 8.2c.4 1.5.6 3.1 2.2 4.1 1 .7 2.1 1.3 2.6 2.3-.1-2.8-.2-5.2-.3-6.9-.1-.7.4-.8.7-.5 0 0 .1 0 .2-.2v-.4c-.5-1.3-3.2-6.9-3.4-7.3-.2-.4-.5-.7-1-.9 0-.1-.5-.4-1.2-.6z"/></defs><clipPath id="fP"><use xlink:href="#fO" overflow="visible"/></clipPath><g clip-path="url(#fP)"><defs><path id="fQ" d="M183.044 50.966l-11.69-7.883 9.617-14.26 11.69 7.883z"/></defs><clipPath id="fR"><use xlink:href="#fQ" overflow="visible"/></clipPath><g clip-path="url(#fR)"><defs><path id="fS" d="M161.13 44.06l16.888-25.034 24.87 16.776L186 60.837z"/></defs><clipPath id="fT"><use xlink:href="#fS" overflow="visible"/></clipPath><g clip-path="url(#fT)"><image overflow="visible" width="175" height="175" xlink:href="D73543935267A13B.jpg" transform="matrix(.24 0 0 .24 161.124 18.969)"/></g></g></g><defs><path id="fU" d="M179.2 31.5v1.1c.4.2.6.5.3.5-.1 0-.2-.1-.3-.1v.7s.1 3.6.2 8.2c.4 1.5.6 3.1 2.2 4.1 1 .7 2.1 1.3 2.6 2.3-.1-2.8-.2-5.2-.3-6.9-.1-.7.4-.8.7-.5 0 0 .1 0 .2-.2v-.4c-.5-1.3-3.2-6.9-3.4-7.3-.2-.4-.5-.7-1-.9 0-.1-.5-.4-1.2-.6z"/></defs><clipPath id="fV"><use xlink:href="#fU" overflow="visible"/></clipPath><g clip-path="url(#fV)"><defs><path id="fW" d="M183.044 50.966l-11.69-7.883 9.617-14.26 11.69 7.883z"/></defs><clipPath id="fX"><use xlink:href="#fW" overflow="visible"/></clipPath><g clip-path="url(#fX)"><defs><path id="fY" d="M161.13 44.06l16.888-25.034 24.87 16.776L186 60.837z"/></defs><clipPath id="fZ"><use xlink:href="#fY" overflow="visible"/></clipPath><g clip-path="url(#fZ)"><image overflow="visible" width="175" height="175" xlink:href="D73543935267A138.jpg" transform="matrix(.24 0 0 .24 161.124 18.969)"/></g></g></g><defs><path id="ga" d="M179.2 31.5v1.1c.4.2.6.5.3.5-.1 0-.2-.1-.3-.1v.7s.1 3.6.2 8.2c.4 1.5.6 3.1 2.2 4.1 1 .7 2.1 1.3 2.6 2.3-.1-2.8-.2-5.2-.3-6.9-.1-.7.4-.8.7-.5 0 0 .1 0 .2-.2v-.4c-.5-1.3-3.2-6.9-3.4-7.3-.2-.4-.5-.7-1-.9 0-.1-.5-.4-1.2-.6z"/></defs><clipPath id="gb"><use xlink:href="#ga" overflow="visible"/></clipPath><g clip-path="url(#gb)"><defs><path id="gc" d="M183.044 50.966l-11.69-7.883 9.617-14.26 11.69 7.883z"/></defs><clipPath id="gd"><use xlink:href="#gc" overflow="visible"/></clipPath><g clip-path="url(#gd)"><defs><path id="ge" d="M161.13 44.06l16.888-25.034 24.87 16.776L186 60.837z"/></defs><clipPath id="gf"><use xlink:href="#ge" overflow="visible"/></clipPath><g clip-path="url(#gf)"><image overflow="visible" width="175" height="175" xlink:href="D73543935267A137.jpg" transform="matrix(.24 0 0 .24 161.124 18.969)"/></g></g></g><defs><path id="gg" d="M179.2 31.5v1.1c.4.2.6.5.3.5-.1 0-.2-.1-.3-.1v.7s.1 3.6.2 8.2c.4 1.5.6 3.1 2.2 4.1 1 .7 2.1 1.3 2.6 2.3-.1-2.8-.2-5.2-.3-6.9-.1-.7.4-.8.7-.5 0 0 .1 0 .2-.2v-.4c-.5-1.3-3.2-6.9-3.4-7.3-.2-.4-.5-.7-1-.9 0-.1-.5-.4-1.2-.6z"/></defs><clipPath id="gh"><use xlink:href="#gg" overflow="visible"/></clipPath><g clip-path="url(#gh)"><defs><path id="gi" d="M183.044 50.966l-11.69-7.883 9.617-14.26 11.69 7.883z"/></defs><clipPath id="gj"><use xlink:href="#gi" overflow="visible"/></clipPath><g clip-path="url(#gj)"><defs><path id="gk" d="M161.13 44.06l16.888-25.034 24.87 16.776L186 60.837z"/></defs><clipPath id="gl"><use xlink:href="#gk" overflow="visible"/></clipPath><g clip-path="url(#gl)"><image overflow="visible" width="175" height="175" xlink:href="D73543935267A149.jpg" transform="matrix(.24 0 0 .24 161.124 18.969)"/></g></g></g><defs><path id="gm" d="M179.2 31.5v1.1c.4.2.6.5.3.5-.1 0-.2-.1-.3-.1v.7s.1 3.6.2 8.2c.4 1.5.6 3.1 2.2 4.1 1 .7 2.1 1.3 2.6 2.3-.1-2.8-.2-5.2-.3-6.9-.1-.7.4-.8.7-.5 0 0 .1 0 .2-.2v-.4c-.5-1.3-3.2-6.9-3.4-7.3-.2-.4-.5-.7-1-.9 0-.1-.5-.4-1.2-.6z"/></defs><clipPath id="gn"><use xlink:href="#gm" overflow="visible"/></clipPath><g clip-path="url(#gn)"><defs><path id="go" d="M183.044 50.966l-11.69-7.883 9.617-14.26 11.69 7.883z"/></defs><clipPath id="gp"><use xlink:href="#go" overflow="visible"/></clipPath><g clip-path="url(#gp)"><defs><path id="gq" d="M161.13 44.06l16.888-25.034 24.87 16.776L186 60.837z"/></defs><clipPath id="gr"><use xlink:href="#gq" overflow="visible"/></clipPath><g clip-path="url(#gr)"><image overflow="visible" width="175" height="175" xlink:href="D73543935267A14B.jpg" transform="matrix(.24 0 0 .24 161.124 18.969)"/></g></g></g><defs><path id="gs" d="M138 89c-.5 1.5-1.7 1.3-2.9 1.5v1.8c.2 0 .3.3.4.6 1.4 4.2 5.3 11.6 8.7 15.1.3.3.5.5.7.5 0-.3.2-6.5.3-9.7-.3-.1-.6-.3-.9-.8-2-3.2-3.7-6.4-5-9.9-.6.1-1.2.4-1.3.9"/></defs><clipPath id="gt"><use xlink:href="#gs" overflow="visible"/></clipPath><g clip-path="url(#gt)"><defs><path id="gu" d="M137.537 112.847l-11.14-19.893L142.8 83.77l11.14 19.892z"/></defs><clipPath id="gv"><use xlink:href="#gu" overflow="visible"/></clipPath><g clip-path="url(#gv)"><defs><path id="gw" d="M147.39 72.063l19.006 33.94-33.416 18.713-19.007-33.94z"/></defs><clipPath id="gx"><use xlink:href="#gw" overflow="visible"/></clipPath><g clip-path="url(#gx)"><image overflow="visible" width="219" height="220" xlink:href="D73543935267A148.jpg" transform="matrix(.24 0 0 .24 113.987 72.007)"/></g></g></g><path fill="#5C5959" d="M139.7 89.1c-.1-.3-.3-.6-.4-1-.6.1-1.2.5-1.3.9-.5 1.5-1.8 1.3-2.9 1.5v.4c.7-.2 1.5.6 2 .1.9-.7 1.6-1.6 2.6-1.9"/><defs><path id="gy" d="M146.7 97.6c-.9 1.2-1.1 1.3-1.4 1.2-.1 2.4-.2 6.7-.2 8.7l.2.9c.1-.1.3-.2.4-.4.4-.4 5.7-6.7 9.6-15.1 0 0-.5.8-1.3 0s-1.8-1.6-3.6-1.8c-1.6 3-2.2 4.4-3.7 6.5"/></defs><clipPath id="gz"><use xlink:href="#gy" overflow="visible"/></clipPath><g clip-path="url(#gz)"><defs><path id="gA" d="M145.275 110.13l-3.108-18.44 12.72-2.143 3.11 18.44z"/></defs><clipPath id="gB"><use xlink:href="#gA" overflow="visible"/></clipPath><g clip-path="url(#gB)"><defs><path id="gC" d="M157.537 86.867l3.806 22.582-18.736 3.157-3.806-22.582z"/></defs><clipPath id="gD"><use xlink:href="#gC" overflow="visible"/></clipPath><g clip-path="url(#gD)"><image overflow="visible" width="95" height="108" xlink:href="D73543935267A14F.jpg" transform="matrix(.24 0 0 .24 138.815 86.888)"/></g></g></g><defs><path id="gE" d="M146.7 97.6c-.9 1.2-1.1 1.3-1.4 1.2-.1 2.4-.2 6.7-.2 8.7l.2.9c.1-.1.3-.2.4-.4.4-.4 5.7-6.7 9.6-15.1 0 0-.5.8-1.3 0s-1.8-1.6-3.6-1.8c-1.6 3-2.2 4.4-3.7 6.5"/></defs><clipPath id="gF"><use xlink:href="#gE" overflow="visible"/></clipPath><g clip-path="url(#gF)"><defs><path id="gG" d="M145.275 110.13l-3.108-18.44 12.72-2.143 3.11 18.44z"/></defs><clipPath id="gH"><use xlink:href="#gG" overflow="visible"/></clipPath><g clip-path="url(#gH)"><defs><path id="gI" d="M157.537 86.867l3.806 22.582-18.736 3.157-3.806-22.582z"/></defs><clipPath id="gJ"><use xlink:href="#gI" overflow="visible"/></clipPath><g clip-path="url(#gJ)"><image overflow="visible" width="95" height="108" xlink:href="D73543935267A14A.jpg" transform="matrix(.24 0 0 .24 138.815 86.888)"/></g></g></g><defs><path id="gK" d="M163.3 80.6c-1 .9-1.9 1.2-3.2 1.4 0 .1.1.3.1.3 1.9 4.6 6 11.3 8.4 14.1.2.2.5.5.8.5.2-.9.3-7.1.3-9.6-.6 0-1.2-.8-1.6-1.5-.2-.4-1.7-2.5-3.4-6-.6.2-1.1.4-1.4.8"/></defs><clipPath id="gL"><use xlink:href="#gK" overflow="visible"/></clipPath><g clip-path="url(#gL)"><defs><path id="gM" d="M162.887 101.273L152.342 84.87l14.552-9.356 10.546 16.403z"/></defs><clipPath id="gN"><use xlink:href="#gM" overflow="visible"/></clipPath><g clip-path="url(#gN)"><defs><path id="gO" d="M170.047 64.097l19.09 29.694-29.526 18.983-19.09-29.694z"/></defs><clipPath id="gP"><use xlink:href="#gO" overflow="visible"/></clipPath><g clip-path="url(#gP)"><image overflow="visible" width="203" height="203" xlink:href="D73543935267A146.jpg" transform="matrix(.24 0 0 .24 140.574 64.1)"/></g></g></g><path fill="#5C5959" d="M165.1 80.9c-.2-.3-.3-.7-.5-1-.5.1-1 .3-1.4.7-1 .9-1.9 1.2-3.2 1.4 0 .1.1.2.1.2 0 .1.1.2.1.3 1.4-.2 2.8-.2 3.9-1.3.3-.3.6-.3 1-.3"/><defs><path id="gQ" d="M169.7 87.4c0 2.2-.1 7.9-.3 9.3v.2h.2c.2-.1.4-.2.6-.5 2.1-2.7 3.9-5.2 5.4-7.6 0 0-1.4-.5-1.9-1.1-.5-.6-1.6-1.8-2.2-1.9-.5.6-1.2 1.6-1.8 1.6"/></defs><clipPath id="gR"><use xlink:href="#gQ" overflow="visible"/></clipPath><g clip-path="url(#gR)"><defs><path id="gS" d="M169.4 85.9h6.1v11h-6.1z"/></defs><clipPath id="gT"><use xlink:href="#gS" overflow="visible"/></clipPath><g clip-path="url(#gT)"><defs><path id="gU" d="M169.4 85.9h6.1v11h-6.1z"/></defs><clipPath id="gV"><use xlink:href="#gU" overflow="visible"/></clipPath><g clip-path="url(#gV)"><image overflow="visible" width="26" height="46" xlink:href="D73543935267A16C.jpg" transform="matrix(.24 0 0 .24 169.376 85.9)"/></g></g></g><path fill="#BDC2CC" d="M179.4 33c.4-.1 1 .1 1.2 0 .2-.1.4.1.5.2.1.1.2-.2-.3-.5s-4.5-2-4.9-2.2c-.4-.2-2-.5-1.6-.4.3.1 4.7 2.1 4.9 2.2s-.9-.1-1.1 0c-.1.1 1.3.7 1.3.7"/><path fill="#666" d="M169.5 29.9c-4.4.1-10.4.2-12.7.2 0 0-.9.1-.5.3.4.3 3 1.2 3.4 1.4.5.3 1.4.8 2.1.8h15c.2 0 1.1 0 1.6.1.4.1.9.4 1.1.4.3 0 0-.4-.4-.5-5-1.8-3.7-1.4-4.4-1.7-2.8-.3-2.2-1.1-5.2-1"/><defs><path id="gW" d="M156.9 30s-.4 0-.5.1v.2c.4.3 3 1.2 3.4 1.4.4.2 1.2.7 1.9.8h11c-.9-.3-1.8-.8-2.3-1.5-1-1.2-1.2-1.1-2.6-1.3-3.8.2-8.9.3-10.9.3"/></defs><clipPath id="gX"><use xlink:href="#gW" overflow="visible"/></clipPath><g clip-path="url(#gX)"><defs><path id="gY" d="M156.4 29.9h16.3v2.7h-16.3z"/></defs><clipPath id="gZ"><use xlink:href="#gY" overflow="visible"/></clipPath><g clip-path="url(#gZ)"><defs><path id="ha" d="M156.4 29.9h16.3v2.7h-16.3z"/></defs><clipPath id="hb"><use xlink:href="#ha" overflow="visible"/></clipPath><g clip-path="url(#hb)"><image overflow="visible" width="69" height="12" xlink:href="D73543935267A163.jpg" transform="matrix(.24 0 0 .24 156.357 29.881)"/></g></g></g><defs><path id="hc" d="M200.4 66.6c.1 1.1.1 2.2.1 3.3 0 7.4-1.4 14.5-4.3 21.2-1 2.5-2.3 4.9-3.7 7.1.7-.6 1.3-1 2.2-1.3.9-1.7 1.8-3.6 2.5-5.4 2.9-6.9 4.4-14.2 4.4-21.7 0-1 0-1.9-.1-2.9-.3-.1-.7-.3-1-.4h-.1z"/></defs><clipPath id="hd"><use xlink:href="#hc" overflow="visible"/></clipPath><g clip-path="url(#hd)"><defs><path id="he" d="M192.5 66.6h9.3v31.9h-9.3z"/></defs><clipPath id="hf"><use xlink:href="#he" overflow="visible"/></clipPath><g clip-path="url(#hf)"><image overflow="visible" width="7" height="24" xlink:href="D73543935267A164.jpg" transform="matrix(1.323 0 0 1.329 192.533 66.597)"/></g></g><defs><path id="hg" d="M124 18.7c-6.7 2.8-12.6 6.9-17.8 12.1-5.1 5.2-9.2 11.2-12 17.9-2.9 6.9-4.4 13.7-4.4 21.2 0 5.3.7 10.6 2.1 15.5.4.2.6.7.8 1.1.9 1.2 1.5 2.3 2.1 3.6-2.6-6.4-3.9-13.2-3.9-20.2 0-7.4 1.4-14 4.3-20.8 2.8-6.6 6.7-12.5 11.7-17.5 5-5.1 10.9-9 17.4-11.8 6.7-2.9 13.9-4.3 21.3-4.3s14.6 1.5 21.3 4.3c6.5 2.8 12.4 6.8 17.4 11.8 5 5.1 9 10.8 11.7 17.3 2.9 6.8 4.3 13.6 4.3 21s-1.4 14.5-4.3 21.2c-1.1 2.5-2.3 4.9-3.7 7.2.7-.6 1.3-1 2.3-1.3.9-1.7 1.8-3.6 2.5-5.4 2.9-6.9 4.4-14.2 4.4-21.7s-1.5-14.5-4.4-21.4c-2.8-6.7-6.9-12.5-12-17.7-5.1-5.2-11.1-9.2-17.8-12.1-6.9-2.9-14.2-4.4-21.8-4.4s-14.6 1.5-21.5 4.4"/></defs><clipPath id="hh"><use xlink:href="#hg" overflow="visible"/></clipPath><g clip-path="url(#hh)"><defs><path id="hi" d="M87 11.5h117.4v89.6H87z"/></defs><clipPath id="hj"><use xlink:href="#hi" overflow="visible"/></clipPath><g clip-path="url(#hj)"><image overflow="visible" width="88" height="68" xlink:href="D73543935267A167.jpg" transform="matrix(1.334 0 0 1.317 87.048 11.479)"/></g></g><defs><path id="hk" d="M92.1 85.8c.6 2 1.3 4.1 2.2 6.1.5 1.2 1 2.3 1.6 3.5 2.7 5.3 6.1 10.1 10.4 14.3 2.2 2.2 4.6 4.2 7.1 6-1.2-1.6-3.1-2.7-3.8-4.8-.9-.8-1.7-1.5-2.5-2.3-3.2-3.2-5.9-6.7-8.2-10.5-1.3-2.2-2.5-4.5-3.5-6.8-.1-.3-.3-.6-.4-1-.7-1.3-1.2-2.4-2.1-3.6-.2-.4-.4-.8-.7-1v.1z"/></defs><clipPath id="hl"><use xlink:href="#hk" overflow="visible"/></clipPath><g clip-path="url(#hl)"><defs><path id="hm" d="M92.1 85.5h21.3v30H92.1z"/></defs><clipPath id="hn"><use xlink:href="#hm" overflow="visible"/></clipPath><g clip-path="url(#hn)"><defs><path id="ho" d="M92.1 85.5h21.3v30H92.1z"/></defs><clipPath id="hp"><use xlink:href="#ho" overflow="visible"/></clipPath><g clip-path="url(#hp)"><image overflow="visible" width="89" height="126" xlink:href="D73543935267A165.jpg" transform="matrix(.24 0 0 .24 92.092 85.522)"/></g></g></g><defs><path id="hq" d="M92.1 85.8c.6 2 1.3 4.1 2.2 6.1.5 1.2 1 2.3 1.6 3.5 2.7 5.3 6.1 10.1 10.4 14.3 2.2 2.2 4.6 4.2 7.1 6-1.2-1.6-3.1-2.7-3.8-4.8-.9-.8-1.7-1.5-2.5-2.3-3.2-3.2-5.9-6.7-8.2-10.5-1.3-2.2-2.5-4.5-3.5-6.8-.1-.3-.3-.6-.4-1-.7-1.3-1.2-2.4-2.1-3.6-.2-.4-.4-.8-.7-1v.1z"/></defs><clipPath id="hr"><use xlink:href="#hq" overflow="visible"/></clipPath><g clip-path="url(#hr)"><defs><path id="hs" d="M92.1 85.5h21.3v30H92.1z"/></defs><clipPath id="ht"><use xlink:href="#hs" overflow="visible"/></clipPath><g clip-path="url(#ht)"><defs><path id="hu" d="M92.1 85.5h21.3v30H92.1z"/></defs><clipPath id="hv"><use xlink:href="#hu" overflow="visible"/></clipPath><g clip-path="url(#hv)"><image overflow="visible" width="89" height="126" xlink:href="D73543935267A162.jpg" transform="matrix(.24 0 0 .24 92.092 85.522)"/></g></g></g><path d="M167.1 120.1c-6.7 2.8-13.9 4.3-21.3 4.3s-14.6-1.4-21.3-4.3c-5.5-2.3-10.4-5.4-14.9-9.3.7 2.1 2.6 3.2 3.8 4.8 3.3 2.3 6.8 4.3 10.6 5.9 6.9 2.9 14.2 4.4 21.8 4.4 7.5 0 14.9-1.5 21.8-4.4 1.7-.7 3.3-1.5 5-2.4 1.1-.8 2-1.8 2.5-3.2-2.6 1.7-5.2 3.1-8 4.2"/><defs><path id="hw" d="M192.5 98.3c-1 1.6-2 3.1-3.1 4.5-1.5 2-3.1 3.8-4.9 5.6-2.9 2.9-6 5.4-9.4 7.5-.5 1.3-1.4 2.2-2.4 3.1 4.6-2.5 8.9-5.7 12.6-9.5 3.6-3.6 6.4-7.2 8.9-11.6l.3-.5c.1-.1.3-.6.4-.7-.9.3-1.7 1-2.4 1.6"/></defs><clipPath id="hx"><use xlink:href="#hw" overflow="visible"/></clipPath><g clip-path="url(#hx)"><defs><path id="hy" d="M183.976 130.186l-22.48-22.208 22.208-22.48 22.48 22.208z"/></defs><clipPath id="hz"><use xlink:href="#hy" overflow="visible"/></clipPath><g clip-path="url(#hz)"><defs><path id="hA" d="M139.148 108.172L183.5 63.29l44.884 44.352-44.353 44.883z"/></defs><clipPath id="hB"><use xlink:href="#hA" overflow="visible"/></clipPath><g clip-path="url(#hB)"><image overflow="visible" width="373" height="373" xlink:href="D73543935267A17C.jpg" transform="matrix(.24 0 0 .24 139.166 63.214)"/></g></g></g><defs><path id="hC" d="M192.5 98.3c-1 1.6-2 3.1-3.1 4.5-1.5 2-3.1 3.8-4.9 5.6-2.9 2.9-6 5.4-9.4 7.5-.5 1.3-1.4 2.2-2.4 3.1 4.6-2.5 8.9-5.7 12.6-9.5 3.6-3.6 6.4-7.2 8.9-11.6l.3-.5c.1-.1.3-.6.4-.7-.9.3-1.7 1-2.4 1.6"/></defs><clipPath id="hD"><use xlink:href="#hC" overflow="visible"/></clipPath><g clip-path="url(#hD)"><defs><path id="hE" d="M183.976 130.186l-22.48-22.208 22.208-22.48 22.48 22.208z"/></defs><clipPath id="hF"><use xlink:href="#hE" overflow="visible"/></clipPath><g clip-path="url(#hF)"><defs><path id="hG" d="M139.148 108.172L183.5 63.29l44.884 44.352-44.353 44.883z"/></defs><clipPath id="hH"><use xlink:href="#hG" overflow="visible"/></clipPath><g clip-path="url(#hH)"><image overflow="visible" width="373" height="373" xlink:href="D73543935267A17F.jpg" transform="matrix(.24 0 0 .24 139.166 63.214)"/></g></g></g><path fill="#fff" d="M93 56c-5.5 16.7-.1 40.3 16.2 54.4-8.8-7.9-21.9-27.6-16.2-54.4M109.1 110.4c.2.2.3.3.5.4-.1-.1-.3-.2-.5-.4M109.6 110.9c.7.6 1.3 1.1 1.9 1.5-.6-.5-1.2-1-1.9-1.5"/><defs><path id="hI" d="M144.1 20.5c-25.7.9-46.4 21.9-46.8 47.8v1.1c.4-26.5 21.9-48.1 48.5-48.1 9.6 0 19.3 3.1 27.3 8.2.1-.2.4-.3.7-.3-7.4-5.1-16.9-8.3-26.3-8.7h-3.4z"/></defs><clipPath id="hJ"><use xlink:href="#hI" overflow="visible"/></clipPath><g clip-path="url(#hJ)"><defs><path id="hK" d="M97.3 20.5h76.5v49H97.3z"/></defs><clipPath id="hL"><use xlink:href="#hK" overflow="visible"/></clipPath><g clip-path="url(#hL)"><defs><path id="hM" d="M97.3 20.5h76.5v49H97.3z"/></defs><clipPath id="hN"><use xlink:href="#hM" overflow="visible"/></clipPath><g clip-path="url(#hN)"><image overflow="visible" width="319" height="205" xlink:href="D73543935267A17D.jpg" transform="matrix(.24 0 0 .24 97.256 20.511)"/></g></g></g><defs><path id="hO" d="M144.1 20.5c-25.7.9-46.4 21.9-46.8 47.8v1.1c.4-26.5 21.9-48.1 48.5-48.1 9.6 0 19.3 3.1 27.3 8.2.1-.2.4-.3.7-.3-7.4-5.1-16.9-8.3-26.3-8.7h-3.4z"/></defs><clipPath id="hP"><use xlink:href="#hO" overflow="visible"/></clipPath><g clip-path="url(#hP)"><defs><path id="hQ" d="M97.3 20.5h76.5v49H97.3z"/></defs><clipPath id="hR"><use xlink:href="#hQ" overflow="visible"/></clipPath><g clip-path="url(#hR)"><defs><path id="hS" d="M97.3 20.5h76.5v49H97.3z"/></defs><clipPath id="hT"><use xlink:href="#hS" overflow="visible"/></clipPath><g clip-path="url(#hT)"><image overflow="visible" width="319" height="205" xlink:href="D73543935267A161.jpg" transform="matrix(.24 0 0 .24 97.256 20.511)"/></g></g></g><path fill="#545759" d="M185 40.5c5.8 8 9.3 17.9 9.3 28.7v.4c-.1-10.7-3.8-20.4-9.6-28.7 0 .1.3 0 .3-.4"/><defs><path id="hU" d="M206.3 72.2c-.6 32.5-27.5 59.1-60.5 59.1-33.1 0-60-26.5-60.6-59.1-.1 33 26.9 59.8 60.6 59.8 33.4 0 60.6-26.8 60.5-59.8z"/></defs><clipPath id="hV"><use xlink:href="#hU" overflow="visible"/></clipPath><g clip-path="url(#hV)"><defs><path id="hW" d="M85.1 72.2h121.3V132H85.1z"/></defs><clipPath id="hX"><use xlink:href="#hW" overflow="visible"/></clipPath><g clip-path="url(#hX)"><defs><path id="hY" d="M85.1 72.2h121.3V132H85.1z"/></defs><clipPath id="hZ"><use xlink:href="#hY" overflow="visible"/></clipPath><g clip-path="url(#hZ)"><image overflow="visible" width="506" height="250" xlink:href="D73543935267A11F.jpg" transform="matrix(.24 0 0 .24 85.138 72.195)"/></g></g></g><defs><path id="ia" d="M206.3 72.2c-.6 32.5-27.5 59.1-60.5 59.1-33.1 0-60-26.5-60.6-59.1-.1 33 26.9 59.8 60.6 59.8 33.4 0 60.6-26.8 60.5-59.8z"/></defs><clipPath id="ib"><use xlink:href="#ia" overflow="visible"/></clipPath><g clip-path="url(#ib)"><defs><path id="ic" d="M85.1 72.2h121.3V132H85.1z"/></defs><clipPath id="id"><use xlink:href="#ic" overflow="visible"/></clipPath><g clip-path="url(#id)"><defs><path id="ie" d="M85.1 72.2h121.3V132H85.1z"/></defs><clipPath id="if"><use xlink:href="#ie" overflow="visible"/></clipPath><g clip-path="url(#if)"><image overflow="visible" width="506" height="250" xlink:href="D73543935267A101.jpg" transform="matrix(.24 0 0 .24 85.138 72.195)"/></g></g></g><path d="M76 148.1h4.7c7.2 0 14 1.9 14 10.5 0 2.8-1.5 6.1-4.1 7.3v.1c4.5.8 7.7 5.2 7.7 9.7 0 7.7-6.6 10.7-13.3 10.7h-9v-38.3zm4.7 17H82c4.5 0 8.2-.9 8.2-6.4 0-5.4-3.7-6.3-8.1-6.3h-1.3v12.7zm0 17.1h3.7c4.4 0 9.1-1.3 9.1-6.8 0-5.4-5.5-6.5-9.8-6.5h-3v13.3zM110.3 148.1v22.6c0 6.3 1.9 12.1 9.3 12.1s9.3-5.8 9.3-12.1v-22.6h4.8v24.3c0 8.4-5.2 14.9-14 14.9s-14-6.5-14-14.9v-24.3h4.6zM145.1 148.1h4.8v38.4h-4.8zM188.8 155.5c-2.7-2.4-6.5-3.8-10.1-3.8-8.6 0-15.2 7.2-15.2 15.7 0 8.4 6.5 15.6 15.1 15.6 3.8 0 7.4-1.4 10.2-4v5.6c-3 1.7-6.7 2.7-10.1 2.7-10.9 0-20-8.7-20-19.8 0-11.3 9.1-20.2 20.4-20.2 3.4 0 6.8.8 9.7 2.6v5.6zM218.3 148.1h6.3l-17.3 17.3 17.6 21.1h-6.5L204 168.7l-2 1.8v16h-4.7v-38.4h4.7v16.7z"/></svg>