<svg xmlns="http://www.w3.org/2000/svg" xmlns:xlink="http://www.w3.org/1999/xlink" viewBox="0 0 66.9 45.4" enable-background="new 0 0 66.9 45.4"><defs><path id="a" d="M-349.9 10.5h126.1v25.1h-126.1z"/></defs><clipPath id="b"><use xlink:href="#a" overflow="visible"/></clipPath><path clip-path="url(#b)" fill="none" stroke="#000" stroke-width=".165" d="M-437.3-424.3h627.9V61.3h-627.9z"/><path clip-path="url(#b)" fill="none" stroke="#fff" stroke-width=".658" d="M-460.7-434.5H214v506h-674.7z"/><defs><path id="c" d="M-349.9 10.5h126.1v25.1h-126.1z"/></defs><clipPath><use xlink:href="#c" overflow="visible"/></clipPath><defs><path id="d" d="M-349.9 10.5h126.1v25.1h-126.1z"/></defs><clipPath><use xlink:href="#d" overflow="visible"/></clipPath><defs><path id="e" d="M-349.9 10.5h126.1v25.1h-126.1z"/></defs><clipPath><use xlink:href="#e" overflow="visible"/></clipPath><defs><path id="f" d="M-349.9 10.5h126.1v25.1h-126.1z"/></defs><clipPath><use xlink:href="#f" overflow="visible"/></clipPath><defs><path id="g" d="M-349.9 10.5h126.1v25.1h-126.1z"/></defs><clipPath><use xlink:href="#g" overflow="visible"/></clipPath><defs><path id="h" d="M-349.9 10.5h126.1v25.1h-126.1z"/></defs><clipPath><use xlink:href="#h" overflow="visible"/></clipPath><defs><path id="i" d="M-349.9 10.5h126.1v25.1h-126.1z"/></defs><clipPath><use xlink:href="#i" overflow="visible"/></clipPath><defs><path id="j" d="M-349.9 10.5h126.1v25.1h-126.1z"/></defs><clipPath><use xlink:href="#j" overflow="visible"/></clipPath><defs><path id="k" d="M-349.9 10.5h126.1v25.1h-126.1z"/></defs><clipPath><use xlink:href="#k" overflow="visible"/></clipPath><defs><path id="l" d="M-349.9 10.5h126.1v25.1h-126.1z"/></defs><clipPath><use xlink:href="#l" overflow="visible"/></clipPath><defs><path id="m" d="M-349.9 10.5h126.1v25.1h-126.1z"/></defs><clipPath><use xlink:href="#m" overflow="visible"/></clipPath><defs><path id="n" d="M-349.9 10.5h126.1v25.1h-126.1z"/></defs><clipPath><use xlink:href="#n" overflow="visible"/></clipPath><defs><path id="o" d="M-349.9 10.5h126.1v25.1h-126.1z"/></defs><clipPath><use xlink:href="#o" overflow="visible"/></clipPath><defs><path id="p" d="M-349.9 10.5h126.1v25.1h-126.1z"/></defs><clipPath><use xlink:href="#p" overflow="visible"/></clipPath><defs><path id="q" d="M-349.9 10.5h126.1v25.1h-126.1z"/></defs><clipPath><use xlink:href="#q" overflow="visible"/></clipPath><defs><path id="r" d="M-349.9 10.5h126.1v25.1h-126.1z"/></defs><clipPath><use xlink:href="#r" overflow="visible"/></clipPath><defs><path id="s" d="M-349.9 10.5h126.1v25.1h-126.1z"/></defs><clipPath><use xlink:href="#s" overflow="visible"/></clipPath><defs><path id="t" d="M-349.9 10.5h126.1v25.1h-126.1z"/></defs><clipPath><use xlink:href="#t" overflow="visible"/></clipPath><defs><path id="u" d="M-349.9 10.5h126.1v25.1h-126.1z"/></defs><clipPath><use xlink:href="#u" overflow="visible"/></clipPath><defs><path id="v" d="M-349.9 10.5h126.1v25.1h-126.1z"/></defs><clipPath><use xlink:href="#v" overflow="visible"/></clipPath><defs><path id="w" d="M-349.9 10.5h126.1v25.1h-126.1z"/></defs><clipPath><use xlink:href="#w" overflow="visible"/></clipPath><defs><path id="x" d="M-349.9 10.5h126.1v25.1h-126.1z"/></defs><clipPath><use xlink:href="#x" overflow="visible"/></clipPath><defs><path id="y" d="M-349.9 10.5h126.1v25.1h-126.1z"/></defs><clipPath><use xlink:href="#y" overflow="visible"/></clipPath><defs><path id="z" d="M-349.9 10.5h126.1v25.1h-126.1z"/></defs><clipPath><use xlink:href="#z" overflow="visible"/></clipPath><defs><path id="A" d="M-349.9 10.5h126.1v25.1h-126.1z"/></defs><clipPath><use xlink:href="#A" overflow="visible"/></clipPath><defs><path id="B" d="M-349.9 10.5h126.1v25.1h-126.1z"/></defs><clipPath><use xlink:href="#B" overflow="visible"/></clipPath><defs><path id="C" d="M-349.9 10.5h126.1v25.1h-126.1z"/></defs><clipPath><use xlink:href="#C" overflow="visible"/></clipPath><defs><path id="D" d="M-349.9 10.5h126.1v25.1h-126.1z"/></defs><clipPath><use xlink:href="#D" overflow="visible"/></clipPath><defs><path id="E" d="M-349.9 10.5h126.1v25.1h-126.1z"/></defs><clipPath><use xlink:href="#E" overflow="visible"/></clipPath><defs><path id="F" d="M-349.9 10.5h126.1v25.1h-126.1z"/></defs><clipPath><use xlink:href="#F" overflow="visible"/></clipPath><defs><path id="G" d="M-349.9 10.5h126.1v25.1h-126.1z"/></defs><clipPath><use xlink:href="#G" overflow="visible"/></clipPath><defs><path id="H" d="M-349.9 10.5h126.1v25.1h-126.1z"/></defs><clipPath id="I"><use xlink:href="#H" overflow="visible"/></clipPath><path clip-path="url(#I)" fill="#fff" d="M67.9 43.4s2.2-3 3-3.4c.9-.4 1.6-.5 3.2-.8 1.4-.3 3.1-.5 5-1C85.2 36.7 89.9 33 92.3 28c1.1-2.2 1.6-4.6 1.6-7 0-2.5-.6-4.9-1.7-7.3-1.2-2.4-1.6-4.7-1.6-6.8 0-4.9 2.4-8.2 2.6-8.4l2.2-3S84.3-1.9 84.9-14.6c-2.4 3-5.8 7-9.9 6.3-6-1-7-6.7-7-6.7s-1 5.6-7 6.7c-4.1.7-7.6-3.3-9.9-6.3.5 12.7-10.6 10-10.6 10l2.2 3c.1.2 2.6 3.5 2.6 8.4 0 2-.4 4.3-1.6 6.8-1.1 2.4-1.7 4.9-1.7 7.3 0 2.4.5 4.8 1.6 7 2.4 5 7.1 8.7 13.1 10.2 1.9.5 3.5.8 5 1 1.6.3 2.4.3 3.2.8.8.6 3.1 3.5 3 3.5"/><path clip-path="url(#I)" d="M68 40.3c1.1-1.4 1.3-1.6 1.8-1.9 1.8-.8 4.8-1 9-2 10.7-2.7 16.1-12.8 11.8-22C86 4.8 91.7-2.7 91.7-2.7c-7.7 0-8.1-8-8.1-8-6.9 8.3-14.6 2.2-15.6 0-1.1 2.3-8.8 8.3-15.7 0 0 0-.4 8-8.1 8 0 0 5.7 7.5 1.2 17.1-4.3 9.2 1.1 19.3 11.8 22 4.2 1 7.3 1.2 9 2 .5.2.7.6 1.8 1.9"/><path clip-path="url(#I)" fill="#F99D1C" d="M54.9.1v10.6l2.1 1.5V4.9l3.2 9.5 2.9 2.1V6L61 4.5v7.2l-3.2-9.5zM70.6 21.8v-4.1l-3.3-2.3v4.1L65.2 18V7.5l2.1 1.4v4l3.3 2.3v-4l2 1.5v10.5zM88.9 15.2c-1.4-3-1.9-5.8-1.9-8.3 0-3.4.9-6.2 1.8-8.1-3.4-.9-5.3-3.4-6.2-5.9-3 2.4-5.9 2.7-8.1 2.4-2.7-.3-5-1.7-6.6-3.1-1.5 1.4-3.8 2.8-6.6 3.1-2.1.3-5 0-8.1-2.4-.9 2.4-2.8 4.9-6.2 5.9 1 1.8 2 4.7 2 8.1 0 2.5-.5 5.3-1.9 8.3-.9 1.9-1.3 3.8-1.3 5.7 0 1.9.4 3.7 1.2 5.4 1.9 4 5.8 7 10.6 8.2 1.8.4 3.3.7 4.7 1 1.9.3 3.4.6 4.6 1.2 0 0 .7.6 1 .9.3-.3 1-.9 1-.9 1.2-.6 2.7-.8 4.6-1.2 1.4-.2 3-.5 4.7-1 4.9-1.2 8.7-4.2 10.6-8.2.8-1.7 1.2-3.6 1.2-5.4.2-1.9-.3-3.8-1.1-5.7M57-3.2c1.8.5 3.4.5 4.6.3 2.8-.3 4.9-1.5 6.3-2.6 1.4 1.1 3.6 2.2 6.3 2.6 1.9.2 4.6.1 7.6-1.5 1.1 1.8 2.6 3.3 4.5 4.2-.7 1.9-1.3 4.3-1.3 7.1 0 3.1.7 6.2 2.1 9.1.4.9.8 1.9.9 2.9L57-3.2zm21.8 35.7c-.3.1-.6.2-1 .3-1.7.4-3.3.7-4.6.9-1.8.3-3.3.6-4.6 1.1-.2.1-.7.5-.7.5s-.5-.5-.6-.5c-1.3-.5-2.8-.8-4.7-1.1-1.4-.2-2.9-.5-4.6-.9-4.3-1.1-7.8-3.7-9.4-7.2-.7-1.5-1.1-3-1.1-4.6 0-1.7.4-3.3 1.1-5 .6-1.3 1.1-2.5 1.4-3.8l28.8 20.3zm9.5-11.1c-.1 1.4-.4 2.8-1 4.2-1.2 2.6-3.4 4.7-6.2 6L50.6 10.1c.2-1.1.3-2.1.3-3.2 0-2.8-.6-5.2-1.3-7.1C51-.9 52.3-2 53.3-3.4l35 24.8z"/><path d="M34.3 27.8v-9.5c0-1.1-.8-2.1-2-2.1-1 0-1.9 1-1.9 2.1v9.5c0 1 .9 1.9 1.9 1.9 1.2.1 2-.7 2-1.9m27.5 7.1l-7.2-12.3 6.5-11.4H54l-2.9 5.1-3-5.1h-7.4l6.6 11.4-7 12.2h7.2l3.4-5.9 3.5 5.9h7.4zM6.4 35V11.1h14.3l.4 6.5h-8v3.1h6.5v6.4h-6.5V35H6.4zM21 23.1c0-6.4 5.1-11.5 11.4-11.5 6.3 0 11.3 5.2 11.3 11.5 0 6.4-5.1 11.5-11.3 11.5-6.3 0-11.4-5.1-11.4-11.5"/></svg>