<svg xmlns="http://www.w3.org/2000/svg" xmlns:xlink="http://www.w3.org/1999/xlink" viewBox="0 0 139.7 80" enable-background="new 0 0 139.7 80"><defs><path id="a" d="M-9.5 17.8h147.9V80H-9.5z"/></defs><clipPath id="b"><use xlink:href="#a" overflow="visible"/></clipPath><path clip-path="url(#b)" fill="none" stroke="#000" stroke-width=".099" d="M-61.3-13h378v292.3h-378z"/><path clip-path="url(#b)" fill="none" stroke="#fff" stroke-width=".397" d="M-75.4-19.1h406.1v304.6H-75.4z"/><defs><path id="c" d="M-9.5 17.8h147.9V80H-9.5z"/></defs><clipPath><use xlink:href="#c" overflow="visible"/></clipPath><defs><path id="d" d="M-9.5 17.8h147.9V80H-9.5z"/></defs><clipPath><use xlink:href="#d" overflow="visible"/></clipPath><defs><path id="e" d="M-9.5 17.8h147.9V80H-9.5z"/></defs><clipPath><use xlink:href="#e" overflow="visible"/></clipPath><defs><path id="f" d="M-9.5 17.8h147.9V80H-9.5z"/></defs><clipPath><use xlink:href="#f" overflow="visible"/></clipPath><defs><path id="g" d="M-9.5 17.8h147.9V80H-9.5z"/></defs><clipPath><use xlink:href="#g" overflow="visible"/></clipPath><defs><path id="h" d="M-9.5 17.8h147.9V80H-9.5z"/></defs><clipPath><use xlink:href="#h" overflow="visible"/></clipPath><defs><path id="i" d="M-9.5 17.8h147.9V80H-9.5z"/></defs><clipPath><use xlink:href="#i" overflow="visible"/></clipPath><defs><path id="j" d="M-9.5 17.8h147.9V80H-9.5z"/></defs><clipPath><use xlink:href="#j" overflow="visible"/></clipPath><defs><path id="k" d="M-9.5 17.8h147.9V80H-9.5z"/></defs><clipPath><use xlink:href="#k" overflow="visible"/></clipPath><defs><path id="l" d="M-9.5 17.8h147.9V80H-9.5z"/></defs><clipPath><use xlink:href="#l" overflow="visible"/></clipPath><defs><path id="m" d="M-9.5 17.8h147.9V80H-9.5z"/></defs><clipPath><use xlink:href="#m" overflow="visible"/></clipPath><defs><path id="n" d="M-9.5 17.8h147.9V80H-9.5z"/></defs><clipPath><use xlink:href="#n" overflow="visible"/></clipPath><defs><path id="o" d="M-9.5 17.8h147.9V80H-9.5z"/></defs><clipPath><use xlink:href="#o" overflow="visible"/></clipPath><defs><path id="p" d="M-9.5 17.8h147.9V80H-9.5z"/></defs><clipPath><use xlink:href="#p" overflow="visible"/></clipPath><defs><path id="q" d="M-9.5 17.8h147.9V80H-9.5z"/></defs><clipPath><use xlink:href="#q" overflow="visible"/></clipPath><defs><path id="r" d="M-9.5 17.8h147.9V80H-9.5z"/></defs><clipPath><use xlink:href="#r" overflow="visible"/></clipPath><defs><path id="s" d="M-9.5 17.8h147.9V80H-9.5z"/></defs><clipPath><use xlink:href="#s" overflow="visible"/></clipPath><defs><path id="t" d="M-9.5 17.8h147.9V80H-9.5z"/></defs><clipPath><use xlink:href="#t" overflow="visible"/></clipPath><defs><path id="u" d="M-9.5 17.8h147.9V80H-9.5z"/></defs><clipPath><use xlink:href="#u" overflow="visible"/></clipPath><defs><path id="v" d="M-9.5 17.8h147.9V80H-9.5z"/></defs><clipPath><use xlink:href="#v" overflow="visible"/></clipPath><defs><path id="w" d="M-9.5 17.8h147.9V80H-9.5z"/></defs><clipPath><use xlink:href="#w" overflow="visible"/></clipPath><defs><path id="x" d="M-9.5 17.8h147.9V80H-9.5z"/></defs><clipPath><use xlink:href="#x" overflow="visible"/></clipPath><defs><path id="y" d="M-9.5 17.8h147.9V80H-9.5z"/></defs><clipPath><use xlink:href="#y" overflow="visible"/></clipPath><defs><path id="z" d="M-9.5 17.8h147.9V80H-9.5z"/></defs><clipPath><use xlink:href="#z" overflow="visible"/></clipPath><defs><path id="A" d="M-9.5 17.8h147.9V80H-9.5z"/></defs><clipPath><use xlink:href="#A" overflow="visible"/></clipPath><defs><path id="B" d="M-9.5 17.8h147.9V80H-9.5z"/></defs><clipPath><use xlink:href="#B" overflow="visible"/></clipPath><defs><path id="C" d="M-9.5 17.8h147.9V80H-9.5z"/></defs><clipPath><use xlink:href="#C" overflow="visible"/></clipPath><defs><path id="D" d="M-9.5 17.8h147.9V80H-9.5z"/></defs><clipPath><use xlink:href="#D" overflow="visible"/></clipPath><defs><path id="E" d="M-9.5 17.8h147.9V80H-9.5z"/></defs><clipPath><use xlink:href="#E" overflow="visible"/></clipPath><defs><path id="F" d="M-9.5 17.8h147.9V80H-9.5z"/></defs><clipPath><use xlink:href="#F" overflow="visible"/></clipPath><defs><path id="G" d="M-8.2 17.8h147.9V80H-8.2z"/></defs><clipPath id="H"><use xlink:href="#G" overflow="visible"/></clipPath><path clip-path="url(#H)" fill="#E41E2B" d="M62 60.1c-2.8-2-6.3-2.9-9.5-2.8-3.2.1-4.6 2.5-4.6 2.5-1.4-2.5-4.3-4-8.7-4-7.1.1-14.1 3.4-19.7 3.4-5.3 0-9.2-3.4-9.1-9.3.2-10.5 9.1-19.9 15.7-24.1 3.8-2.4 7-3.2 9.1-2.9 1.5.2 3.3 1.9 2.2 4.5-1.7 3.8-4 3.5-3.9 1.7 0-1.2.8-1.9 1.4-2.3.4-.3 1-.3 1.4-.3.3-.3.6-2.3-2.1-1.7-2.7.7-6 3.4-9.1 6.8-3.1 3.4-8 10-9.2 16.8-.6 3.2-.2 9 7.3 8.9 6.4-.1 15.8-4.3 24.4-4.2 3.4 0 6.3.9 8.6 2.3 2.2 1.3 4.9 3.3 5.8 4.7m2.1-19h1.3s-6.5 9.5-10.2 9c-2.1-.2-1.5-2.8-1.5-2.8s-2.9 3.4-5.6 2.7c-2.4-.6-.9-4.6-.9-4.6-.3.1-5.5 6-9.2 4.6-3.8-1.5-1.9-6.4-1.1-7.9.6-1.3 1.3-2.5 1.3-2.5s-.6.2-1 .3c-.4.1-.9.2-.9.2s-1.8 3-2.9 4.4c-1.1 1.5-5.8 6.6-8.6 5.5-2.8-1-2.1-4.9-.5-8 2.5-5 8.6-11.2 12.2-10.3 3.7.9.6 6.9.6 6.9s.7.1 2.5-1.1c2.5-1.7 5.8-6.3 9.4-5.8 1.7.3 3.3 2 1.1 5.3-.7 1.1-1.8 2-2.7 1.1-.5-.6-.1-1.6.5-2.4.8-1 1.9-.9 1.9-.9s.6-1.4-.9-1.3c-1.2 0-4.3 2.9-6.1 5.8-1.6 2.6-4 7.1-1.6 8.1 2.2.9 6.5-4.1 8.5-6.8 2-2.6 6.4-8.6 10.2-8.9 1.3-.1 2.1 1.1 2.1 1.1l.4-.7h3.8s-7.1 11.8-7.6 12.7c-.4.7-1 2.3.6 1.4 1.5-.8 4.9-5.1 4.9-5.1m-29.2-1.2c-.1 0-1-.3-1.9-.9-.9-.6-1.4-1.5-1.4-1.5 0-.1-.1 0-.1 0 0 .1-.2.3-1.6 2.3-1.3 2-3.3 6-1.5 6.7 1.2.4 3.2-1.7 4.3-3 1-1.3 2.2-3.3 2.3-3.4 0-.1 0-.1-.1-.2m1.5-6.2c-1-.7-3.5 1-3.5 2.8 0 1.8 2.3 2.3 2.6 2.4 0 0 .3.1.4-.1.1-.1.4-.7.7-1.6.3-1.1.7-2.8-.2-3.5m19.2 9.8c1.5-2.1 5.7-9.4 5.7-9.4s-.1-.5-.6-.5c-.6 0-1.5.2-3.5 2.6-1.9 2.4-3.4 4.3-4.5 6.3-1.2 2.2-1.7 3.7-1 4.1.2.1.5.1.7.1.4-.1 1-.6 1.8-1.5.4-.4.9-1 1.4-1.7m16.9-11.3h-3.6l-2 3.3h3.6l2-3.3zm46.9 24.6c-.3 0-.5.1-.7.3-.2.2-.3.5-.3.7 0 .3.1.5.3.8.2.2.5.3.7.3.3 0 .5-.1.7-.3.2-.2.3-.5.3-.8 0-.3-.1-.5-.3-.7-.2-.2-.5-.3-.7-.3m1.2 1.1c0 .3-.1.6-.4.9-.2.2-.5.4-.9.4-.3 0-.6-.1-.9-.4-.2-.2-.4-.5-.4-.9 0-.3.1-.6.4-.9.2-.2.5-.4.9-.4.3 0 .6.1.9.4.3.3.4.5.4.9m-.9-.3c0-.1 0-.2-.1-.2s-.2-.1-.3-.1h-.2v.5h.4c.1 0 .2-.1.2-.2m-.8-.4h.9c.1.1.2.2.2.3 0 .1 0 .2-.1.3 0 0-.1.1-.2.1.1 0 .2.1.2.1 0 .1.1.1.1.2V58.5h-.2v-.1c0-.2 0-.3-.1-.3h-.5v.5h-.2v-1.4zm6.2-30.8c-2.6 1.7-6.3 3.2-9.8 2.9-.9.9-1.8 2-2.8 3.1 6.1 1.2 11.4-2.6 14.3-5.8 1.8-2 2.6-3.8 2.6-3.8s-1.7 1.9-4.3 3.6M114.7 54c-.5.8-1.1 2.4.6 1.4 2-1.2 4.9-5.6 4.9-5.6h1.3s-1.7 2.7-4 5.2c-2.1 2.3-4.6 4.4-6.3 4.2-2.1-.2-1.4-3-1.4-3s-3 3.1-5 2.9c-2.8-.3-1.9-3.7-1.9-3.7s-3.1 3.8-5.2 3.7c-3.3-.2-2.5-4.3-1.6-7.1.5-1.5 1-2.7 1-2.7s-.3.1-1 .2c-.4.1-1.1.1-1.1.1s-1.4 2.5-2.5 3.9c-1.1 1.5-5.8 6.6-8.6 5.5-2.6-.9-1.7-4.9-.2-8 2.2-4.6 8.3-11.1 11.9-10.3 3.7.9.1 7.6.1 7.6h.7c.7-.1 1.3-.4 1.3-.4s3.7-7.7 7.8-12.8 12.2-13.8 15.4-11.7c.8.5.4 2.3-.6 4.5-.5.1-.9.3-1.4.4.7-1.3 1.2-2.4 1.3-3.1.5-2.6-5.6 2.9-10 8.8s-7 11.3-7 11.3.9-.5 2.2-1.6c1.4-1.2 3.4-3 5.5-5.2 1.4-1.5 3.1-3.4 4.7-5.4.5 0 .9-.1 1.4-.1-1.8 2.4-3.6 4.6-5.2 6.2-1.7 1.8-3.6 3.7-5.3 5-2.6 2.2-4.6 3.4-4.6 3.4s-3.8 7.7-1.7 8.2c1.2.3 3.6-3.4 3.6-3.4s3.1-4.8 5-7c2.6-2.9 4.8-4.6 7-4.7 1.3 0 2.1 1.4 2.1 1.4l.6-.9h3.8s-7 11.9-7.6 12.8m-21.1-4.6c-.1 0-.9-.4-1.7-1.1-.8-.7-1.3-1.5-1.3-1.6 0-.1-.1 0-.1 0 0 .1-.2.2-1.5 2.2s-3.4 6-1.5 6.7c1.2.4 3.2-1.6 4.3-3 1-1.3 1.9-2.9 2-3-.1-.2-.1-.2-.2-.2m1.9-3.4c.3-.9.8-2.7-.1-3.4-1-.7-3.5 1-3.5 2.8 0 1.8 1.8 2.7 2.2 2.8.2.1.3.1.4-.1.1-.2.6-1.2 1-2.1m21.5-2.5c.1-.1.1-.3.1-.3s-.1-.5-.6-.5c-.6 0-1.4.1-3.4 2.4-2.1 2.3-3.3 4.3-4.4 6.3-1.2 2.2-1.7 3.8-1 4.2.2.1.5.1.7.1.5-.1 1-.5 1.8-1.5.4-.4.8-1 1.3-1.7 1.4-1.9 4.9-7.8 5.5-9m8.1-17.1c-2.6 1.7-6.3 3.2-9.8 2.9-.9.9-1.8 2-2.8 3.1 6.1 1.2 11.4-2.6 14.3-5.8 1.8-2 2.6-3.8 2.6-3.8s-1.7 1.9-4.3 3.6M108 30.8c-2.9-1.5-5-3.3-7.2-4.4-2.1-1.1-3.4-1.5-5.1-1.3-.3 0-.7.2-.7.2s.9 3-2.6 8c-3.5 5.1-6.7 5-7.6 3.6-.9-1.5.3-4.5 2.3-7.1 2.1-2.8 5.9-5.1 5.9-5.1s-1.2-.7-4.1.9c-2.9 1.6-7.8 5.5-12.4 12-4.6 6.5-5.5 10.1-6.2 12.9-.7 2.8-.1 5.8 3.1 5.8 3.1 0 6.8-4.8 7.8-6.4 1.9-3.1 3.2-7.8.6-7.2-1.3.3-2.3 1.7-3 3.1-.7 1.4-.9 2.7-.9 2.7s-1.1.4-2.5 1.5c-1.5 1.1-2.4 2.1-2.4 2.1s0-2.3 1.8-5.9c1.8-3.7 5.1-5.3 7-5.5 1.7-.1 3.9 1.3 2 6.6S76.5 59 70.7 59.1c-5.3.1-8.8-6.7-1.4-18.6 8.1-13 17.7-17 20.9-17.5 3.1-.4 4.1.9 4.1.9s2.6-1.2 5.9-1c3.8.3 6.8 3 10.6 4.8-1 1.1-1.9 2.1-2.8 3.1m-14.2-5.2s-2.2.9-4.8 3.7c-2.6 2.9-4.1 6.1-3 6.9.4.3 1.4.4 3.2-1.2 1.4-1.3 2.8-2.9 3.8-5.3 1.2-2.7.8-4 .8-4.1"/><defs><path id="I" d="M-9.5 17.8h147.9V80H-9.5z"/></defs><clipPath><use xlink:href="#I" overflow="visible"/></clipPath><defs><path id="J" d="M-9.5 17.8h147.9V80H-9.5z"/></defs><clipPath><use xlink:href="#J" overflow="visible"/></clipPath><defs><path id="K" d="M-9.5 17.8h147.9V80H-9.5z"/></defs><clipPath><use xlink:href="#K" overflow="visible"/></clipPath><defs><path id="L" d="M-9.5 17.8h147.9V80H-9.5z"/></defs><clipPath><use xlink:href="#L" overflow="visible"/></clipPath><defs><path id="M" d="M-9.5 17.8h147.9V80H-9.5z"/></defs><clipPath><use xlink:href="#M" overflow="visible"/></clipPath><defs><path id="N" d="M-9.5 17.8h147.9V80H-9.5z"/></defs><clipPath><use xlink:href="#N" overflow="visible"/></clipPath><defs><path id="O" d="M-9.5 17.8h147.9V80H-9.5z"/></defs><clipPath><use xlink:href="#O" overflow="visible"/></clipPath><defs><path id="P" d="M-9.5 17.8h147.9V80H-9.5z"/></defs><clipPath><use xlink:href="#P" overflow="visible"/></clipPath><defs><path id="Q" d="M-9.5 17.8h147.9V80H-9.5z"/></defs><clipPath><use xlink:href="#Q" overflow="visible"/></clipPath><defs><path id="R" d="M-9.5 17.8h147.9V80H-9.5z"/></defs><clipPath><use xlink:href="#R" overflow="visible"/></clipPath><defs><path id="S" d="M-9.5 17.8h147.9V80H-9.5z"/></defs><clipPath><use xlink:href="#S" overflow="visible"/></clipPath><defs><path id="T" d="M-9.5 17.8h147.9V80H-9.5z"/></defs><clipPath><use xlink:href="#T" overflow="visible"/></clipPath><defs><path id="U" d="M-9.5 17.8h147.9V80H-9.5z"/></defs><clipPath><use xlink:href="#U" overflow="visible"/></clipPath><defs><path id="V" d="M-9.5 17.8h147.9V80H-9.5z"/></defs><clipPath><use xlink:href="#V" overflow="visible"/></clipPath><defs><path id="W" d="M-9.5 17.8h147.9V80H-9.5z"/></defs><clipPath><use xlink:href="#W" overflow="visible"/></clipPath><defs><path id="X" d="M-9.5 17.8h147.9V80H-9.5z"/></defs><clipPath><use xlink:href="#X" overflow="visible"/></clipPath><defs><path id="Y" d="M-9.5 17.8h147.9V80H-9.5z"/></defs><clipPath><use xlink:href="#Y" overflow="visible"/></clipPath><defs><path id="Z" d="M-9.5 17.8h147.9V80H-9.5z"/></defs><clipPath><use xlink:href="#Z" overflow="visible"/></clipPath><defs><path id="aa" d="M-9.5 17.8h147.9V80H-9.5z"/></defs><clipPath><use xlink:href="#aa" overflow="visible"/></clipPath><defs><path id="ab" d="M373.8 133.9H426v72.9h-52.2z"/></defs><clipPath id="ac"><use xlink:href="#ab" overflow="visible"/></clipPath><path clip-path="url(#ac)" fill="#E41E2B" d="M159.8 98.2c-3.9-2.7-8.7-4-13-3.8-4.4.2-6.3 3.4-6.3 3.4-2-3.4-5.9-5.5-11.9-5.5-9.7.1-19.4 4.6-27 4.6-7.3 0-12.7-4.6-12.5-12.8.3-14.3 12.4-27.3 21.5-33.1 5.2-3.3 9.6-4.3 12.4-4 2.1.2 4.6 2.6 3 6.2-2.3 5.2-5.5 4.8-5.4 2.3.1-1.6 1.1-2.6 1.9-3.2.5-.4 1.4-.5 1.9-.5.5-.4.8-3.2-2.9-2.3-3.7.9-8.2 4.6-12.5 9.3-4.3 4.9-11 13.8-12.6 23.2-.8 4.4-.3 12.3 10.1 12.2 8.7-.1 21.7-5.8 33.5-5.7 4.6 0 8.6 1.3 11.7 3.2 3.1 1.9 6.8 4.6 8.1 6.5m2.8-26h1.8s-9 13-14.1 12.4c-2.8-.3-2-3.8-2-3.8s-4 4.7-7.6 3.7c-3.3-.8-1.2-6.4-1.2-6.4-.4.2-7.6 8.2-12.6 6.3-5.3-2-2.5-8.8-1.5-10.8.8-1.7 1.8-3.4 1.8-3.4s-.8.2-1.3.3c-.5.1-1.3.3-1.3.3s-2.5 4.1-4 6.1-8 9-11.8 7.6c-3.8-1.4-2.9-6.7-.7-11 3.5-6.9 11.7-15.4 16.7-14.1 5 1.3.9 9.4.9 9.4s1 .1 3.4-1.5c3.5-2.4 8-8.7 12.9-7.9 2.3.3 4.5 2.7 1.5 7.2-.9 1.4-2.5 2.7-3.7 1.5-.8-.8-.1-2.2.7-3.2 1.1-1.4 2.7-1.2 2.7-1.2s.8-1.9-1.3-1.8c-1.7 0-5.9 3.9-8.3 7.9-2.2 3.6-5.5 9.8-2.2 11.2 3.1 1.2 8.9-5.7 11.6-9.3 2.7-3.6 8.8-11.9 14-12.2 1.8-.1 2.8 1.5 2.8 1.5l.6-.9h5.2s-9.7 16.2-10.5 17.5c-.6 1-1.4 3.1.8 1.9 2.1-1.4 6.7-7.3 6.7-7.3m-40-1.6c-.1 0-1.4-.4-2.7-1.2-1.3-.8-1.9-2-1.9-2.1 0-.1-.1 0-.1.1-.1.1-.3.4-2.2 3.1-1.8 2.7-4.6 8.2-2 9.2 1.6.6 4.4-2.3 5.9-4.2 1.4-1.8 3-4.5 3.1-4.6 0-.3-.1-.3-.1-.3m2-8.7c-1.4-1-4.8 1.4-4.8 3.8 0 2.5 3.1 3.2 3.5 3.2 0 0 .4.1.5-.2.1-.2.5-1 1-2.2.4-1.2 1.1-3.6-.2-4.6m26.3 13.6c2.1-2.9 7.8-12.9 7.8-12.9s-.1-.7-.8-.7c-.8 0-2.1.2-4.8 3.5-2.6 3.3-4.7 5.9-6.2 8.7-1.6 3-2.3 5.1-1.4 5.7.3.2.7.2 1 .1.6-.2 1.4-.8 2.5-2 .6-.7 1.2-1.5 1.9-2.4M174 60h-4.9l-2.8 4.5h4.9L174 60zm64.4 33.7c-.4 0-.7.1-1 .4-.3.3-.4.6-.4 1s.1.7.4 1c.3.3.6.4 1 .4s.7-.1 1-.4c.3-.3.4-.6.4-1s-.1-.7-.4-1c-.3-.2-.6-.4-1-.4m1.7 1.5c0 .5-.2.9-.5 1.2-.3.3-.7.5-1.2.5s-.9-.2-1.2-.5c-.3-.3-.5-.7-.5-1.2s.2-.9.5-1.2c.3-.3.7-.5 1.2-.5s.9.2 1.2.5c.3.3.5.7.5 1.2m-1.3-.4c0-.1 0-.2-.1-.3-.1 0-.2-.1-.4-.1h-.3v.7h.6c.2-.1.2-.2.2-.3m-1.1-.6h.6c.2 0 .4 0 .5.1.2.1.3.2.3.5 0 .2-.1.3-.2.4-.1 0-.2.1-.3.1.1 0 .3.1.3.2.1.1.1.2.1.3V96.1h-.3v-.2c0-.2-.1-.4-.2-.4s-.2-.1-.4-.1h-.1v.7h-.3v-1.9zm8.6-42.3c-3.6 2.3-8.6 4.4-13.5 4-1.2 1.3-2.5 2.7-3.8 4.3 8.4 1.6 15.7-3.5 19.6-7.9 2.4-2.8 3.6-5.2 3.6-5.2s-2.3 2.5-5.9 4.8m-14.3 38c-.7 1.1-1.5 3.2.8 1.9 2.8-1.6 6.8-7.6 6.8-7.6h1.8s-2.4 3.7-5.5 7.2c-2.8 3.1-6.3 6-8.7 5.7-2.8-.3-1.9-4.1-1.9-4.1s-4.1 4.3-6.9 4c-3.8-.4-2.6-5.1-2.6-5.1s-4.3 5.3-7.2 5.1c-4.6-.3-3.4-5.9-2.2-9.8.7-2.1 1.3-3.7 1.3-3.7s-.5.1-1.4.3c-.5.1-1.4.1-1.4.1s-1.9 3.4-3.4 5.4c-1.5 2-8 9-11.8 7.6-3.5-1.3-2.4-6.7-.3-11 3-6.3 11.4-15.3 16.3-14.1 5 1.2.1 10.4.1 10.4l.1.1c.1 0 .4.1 1-.1 1-.2 1.8-.6 1.8-.6S213.8 71 219.4 64c5.6-6.9 16.8-18.9 21.1-16 1.1.7.6 3.2-.9 6.1-.6.2-1.3.4-2 .5 1-1.8 1.6-3.2 1.8-4.3.7-3.6-7.7 4-13.7 12.1-6 8.1-9.6 15.5-9.6 15.5s1.2-.7 3.1-2.2c2-1.6 4.7-4.1 7.6-7.1 2-2 4.3-4.6 6.5-7.5.6 0 1.3-.1 1.9-.2-2.4 3.3-5 6.2-7.1 8.4-2.4 2.4-5 5-7.2 6.9-3.6 3-6.3 4.7-6.3 4.7s-5.2 10.5-2.4 11.2c1.7.4 5-4.7 5-4.7s4.3-6.6 6.9-9.5c3.5-4 6.6-6.4 9.6-6.4 1.8 0 2.8 1.9 2.8 1.9l.8-1.3h5.2c-.1.2-9.7 16.6-10.5 17.8m-29-6.4c-.1 0-1.2-.5-2.4-1.5s-1.7-2.1-1.8-2.2c0-.1-.1 0-.1.1-.1.1-.3.3-2.1 3s-4.7 8.3-2.1 9.2c1.6.6 4.4-2.3 5.8-4.2 1.4-1.8 2.7-4 2.7-4.2.2-.2.1-.2 0-.2m2.6-4.6c.5-1.2 1.1-3.7-.2-4.6-1.3-1-4.8 1.4-4.8 3.8 0 2.5 2.4 3.6 3 3.8.3.1.5.1.6-.2.2-.2 1-1.5 1.4-2.8m29.6-3.4c.1-.2.2-.3.2-.3s-.1-.7-.8-.7c-.8 0-1.9.1-4.7 3.3-2.8 3.1-4.6 5.9-6 8.6-1.6 3-2.3 5.2-1.4 5.8.3.2.7.2 1 .1.6-.2 1.4-.7 2.5-2 .5-.6 1.1-1.4 1.8-2.4 1.7-2.7 6.5-10.8 7.4-12.4m11.1-23.6c-3.6 2.3-8.6 4.4-13.5 4-1.2 1.3-2.5 2.7-3.8 4.3 8.4 1.6 15.7-3.5 19.6-7.9 2.4-2.8 3.6-5.2 3.6-5.2s-2.3 2.5-5.9 4.8M222.8 58c-4-2-6.8-4.5-9.8-6-2.9-1.5-4.7-2.1-7-1.8-.4.1-1 .2-1 .2s1.2 4.1-3.6 10.9c-4.8 6.9-9.2 6.9-10.4 5-1.3-2 .4-6.1 3.2-9.8 2.9-3.8 8.1-7 8.1-7s-1.6-1-5.7 1.3c-3.9 2.2-10.7 7.5-17 16.5-6.3 9-7.5 13.9-8.4 17.8-.9 3.9-.1 8 4.2 8s9.3-6.6 10.7-8.8c2.6-4.2 4.3-10.8.8-9.9-1.8.4-3.2 2.4-4.1 4.3-.9 1.9-1.3 3.8-1.3 3.8s-1.5.5-3.5 2-3.3 2.9-3.3 2.9 0-3.1 2.5-8.1 7-7.3 9.6-7.5c2.3-.2 5.3 1.8 2.8 9-2.5 7.3-10.1 16.1-18 16.2-7.3.1-12.1-9.2-1.9-25.5 11.2-18 24.4-23.5 28.7-24.1 4.3-.6 5.7 1.3 5.7 1.3s3.6-1.7 8.1-1.4c5.2.4 9.3 4.1 14.6 6.6-1.4 1.4-2.8 2.8-4 4.1m-19.4-7.1s-3.1 1.2-6.6 5.1c-3.6 3.9-5.6 8.3-4.1 9.5.6.4 1.9.5 4.4-1.7 1.9-1.7 3.9-4 5.2-7.2 1.6-3.8 1.1-5.6 1.1-5.7"/><defs><path id="ad" d="M373.8 133.9H426v72.9h-52.2z"/></defs><clipPath><use xlink:href="#ad" overflow="visible"/></clipPath><defs><path id="ae" d="M176 153.1h119.4v34.4H176z"/></defs><clipPath id="af"><use xlink:href="#ae" overflow="visible"/></clipPath><path clip-path="url(#af)" fill="#fff" d="M45.5 43.8h-6.6l-.9 2.8h1l-3.3 5.2-.5-8h-6.7l-.8 2.8h1l-4.4 6.7h-3.6c-.4 0-1.8-.4-1.8-2.2 0-1.8 1.7-4.5 3.5-4.5h.7c-.1.4-.4 1.4-.4 1.4H26l1.2-4.2h-5c-3.1 0-5.6 2.2-6.4 4.5l1.3-4.5h-4.4l-.8 2.8H13l-1.2 4.1L9 43.8H4.9l-.8 2.8h1.1L2.6 56H6s1.3-4.6 1.6-5.8c.4 1 2.4 5.7 2.4 5.7h3.7l1.7-5.9c-.1.9-.2 1.8 0 2.7.3 1.9 2.2 3.2 4.3 3.2h6.7l1.2-1.7h4.7l.1 1.7h4.2l1.1-1.7h4.8l.2 1.7h3l.7-1.3-.9-10.8z"/><path clip-path="url(#af)" fill="#0079C1" d="M46.2 58.1c0-.9.7-1.6 1.6-1.6.9 0 1.6.7 1.6 1.6 0 .9-.7 1.6-1.6 1.6-.9 0-1.6-.7-1.6-1.6m1.6 2c1.1 0 2-.8 2-2 0-1.1-.9-2-2-2s-2 .8-2 2c0 1.1.9 2 2 2m-.4-1.9h.4l.6 1h.4l-.6-1c.3 0 .6-.2.6-.6 0-.4-.3-.6-.8-.6h-1v2.3h.3v-1.1zm0-.2v-.7h.5c.2 0 .5.1.5.3 0 .4-.3.4-.6.4h-.4zM29.4 51.3l2.6-3.9.1 3.9h-2.7zm10.3-.1l2.6-3.9.1 3.9h-2.7zM42.6 55.9l-.2-1.7h-4.8l-1.1 1.7h-4.2l-.1-1.7h-4.7l-1.2 1.7h-6.7c-2.1 0-4-1.3-4.3-3.2-.2-.9-.1-1.8 0-2.7l-1.7 5.9H9.9S8 51.2 7.5 50.1C7.3 51.3 6 55.9 6 55.9H2.7l2.6-9.4H4.1l.8-2.8H9l2.9 6.8 1.2-4.1H12l.8-2.8h4.4l-1.3 4.5c.8-2.3 3.3-4.5 6.4-4.5h5L26 48h-3.2s.3-.9.4-1.4h-.7c-1.8 0-3.5 2.6-3.5 4.5 0 1.8 1.5 2.2 1.8 2.2h3.6l4.4-6.7h-1l.8-2.8h6.7l.5 8 3.3-5.2h-1l.8-2.8h6.6l.7 10.8c1.5-3.2 2.3-6.8 2.3-10.6 0-14.1-11.5-25.6-25.6-25.6C8.7 18.3-2.7 29.8-2.7 44c0 14.1 11.5 25.6 25.6 25.6 9.8 0 18.4-5.5 22.7-13.7h-3z"/><defs><path id="ag" d="M176 153.1h119.4v34.4H176z"/></defs><clipPath><use xlink:href="#ag" overflow="visible"/></clipPath><defs><path id="ah" d="M176 153.1h119.4v34.4H176z"/></defs><clipPath id="ai"><use xlink:href="#ah" overflow="visible"/></clipPath><g clip-path="url(#ai)"><text transform="translate(76.076 72.374)" font-family="'Univers-Condensed'" font-size="5.707">Multiple NFL Franchises</text></g><defs><path id="aj" d="M28.1 129.4h82.5v82H28.1z"/></defs><clipPath id="ak"><use xlink:href="#aj" overflow="visible"/></clipPath><path clip-path="url(#ak)" fill="none" stroke="#000" stroke-width=".162" d="M-430.9-260.7h617.4v477.4h-617.4z"/><path clip-path="url(#ak)" fill="none" stroke="#fff" stroke-width=".647" d="M-453.9-270.8h663.3v497.5h-663.3z"/><path clip-path="url(#ak)" fill="#fff" d="M83.6-74.3H48.2c-.9 1.7-20.9 36.5-7.8 70.8.8 1.7 1.6 3.6 2.6 5.4 0 0 31.2-15.3 39.5-66.3.9-5.7 1.1-9.9 1.1-9.9"/><path clip-path="url(#ak)" fill="none" stroke="#fff" stroke-width="5.655" d="M83.6-74.3H48.2c-.9 1.7-20.9 36.5-7.8 70.8.8 1.7 1.6 3.6 2.6 5.4 0 0 31.2-15.3 39.5-66.3.9-5.7 1.1-9.9 1.1-9.9z"/><path clip-path="url(#ak)" fill="#ED174C" d="M66-62.7c.1.1.3.1.4.2.5.4 1.3 1 1.3 1.5 0 .2-.2.3-.3.4v1.1c0 .4-.3.8-.3.8s.3.6.2.9c-.1.2-.5 1.5-.8 2.4-.1.3-.3 1-1.1.8l-.6-.2c-.1.2-.2.6-.2.6s-.1.4.4.6c.1.1.6.3.6.3l.1-.2 1.2.4v.2s.7.2 1 .4c.8.4 1.4 1.1 1.7 1.9.4.9.4 2 .5 2.5 0 0 2 1.8 2 8.5 0 .7-4.7 2.3-5.5 2.3.3 3.2-1.6 7.5-2.8 9.5-.9 1.5-1.9 2.9-2.8 4.3l-.2-.1c-2.1 3-4.3 5.8-5 6.3-.3.3-.5.3-.7.5-.5.8-1.3 1.5-1.6 1.9-.3.3-4.2 3.3-6.9 5.3 0 .1.1.3 0 .3-.3.2-.7.6-1 .8-.2.2-.1.4-.3.5-1.1.8-1.6.9-1.7 1.2-.2 1.2.6 2.3.6 3.1 0 .7-.5 1.1-.6 1.1 0 0-1.4.1-2 .1-.3 0-.7-.2-1-.4.7 1.6 1.4 3.2 2.2 4.7 0 0 30.5-15 39.2-64.6H66z"/><defs><path id="al" d="M28.1 129.4h82.5v82H28.1z"/></defs><clipPath><use xlink:href="#al" overflow="visible"/></clipPath><defs><path id="am" d="M28.1 129.4h82.5v82H28.1z"/></defs><clipPath><use xlink:href="#am" overflow="visible"/></clipPath><defs><path id="an" d="M28.1 129.4h82.5v82H28.1z"/></defs><clipPath><use xlink:href="#an" overflow="visible"/></clipPath><defs><path id="ao" d="M28.1 129.4h82.5v82H28.1z"/></defs><clipPath><use xlink:href="#ao" overflow="visible"/></clipPath><defs><path id="ap" d="M28.1 129.4h82.5v82H28.1z"/></defs><clipPath><use xlink:href="#ap" overflow="visible"/></clipPath><defs><path id="aq" d="M28.1 129.4h82.5v82H28.1z"/></defs><clipPath><use xlink:href="#aq" overflow="visible"/></clipPath><defs><path id="ar" d="M28.1 129.4h82.5v82H28.1z"/></defs><clipPath><use xlink:href="#ar" overflow="visible"/></clipPath><defs><path id="as" d="M28.1 129.4h82.5v82H28.1z"/></defs><clipPath><use xlink:href="#as" overflow="visible"/></clipPath><defs><path id="at" d="M28.1 129.4h82.5v82H28.1z"/></defs><clipPath><use xlink:href="#at" overflow="visible"/></clipPath><defs><path id="au" d="M28.1 129.4h82.5v82H28.1z"/></defs><clipPath><use xlink:href="#au" overflow="visible"/></clipPath><defs><path id="av" d="M28.1 129.4h82.5v82H28.1z"/></defs><clipPath><use xlink:href="#av" overflow="visible"/></clipPath><defs><path id="aw" d="M28.1 129.4h82.5v82H28.1z"/></defs><clipPath><use xlink:href="#aw" overflow="visible"/></clipPath><defs><path id="ax" d="M28.1 129.4h82.5v82H28.1z"/></defs><clipPath><use xlink:href="#ax" overflow="visible"/></clipPath><defs><path id="ay" d="M28.1 129.4h82.5v82H28.1z"/></defs><clipPath><use xlink:href="#ay" overflow="visible"/></clipPath><defs><path id="az" d="M28.1 129.4h82.5v82H28.1z"/></defs><clipPath><use xlink:href="#az" overflow="visible"/></clipPath><defs><path id="aA" d="M28.1 129.4h82.5v82H28.1z"/></defs><clipPath><use xlink:href="#aA" overflow="visible"/></clipPath><defs><path id="aB" d="M28.1 129.4h82.5v82H28.1z"/></defs><clipPath><use xlink:href="#aB" overflow="visible"/></clipPath><defs><path id="aC" d="M28.1 129.4h82.5v82H28.1z"/></defs><clipPath><use xlink:href="#aC" overflow="visible"/></clipPath><defs><path id="aD" d="M28.1 129.4h82.5v82H28.1z"/></defs><clipPath><use xlink:href="#aD" overflow="visible"/></clipPath><defs><path id="aE" d="M28.1 129.4h82.5v82H28.1z"/></defs><clipPath><use xlink:href="#aE" overflow="visible"/></clipPath><defs><path id="aF" d="M28.1 129.4h82.5v82H28.1z"/></defs><clipPath><use xlink:href="#aF" overflow="visible"/></clipPath><defs><path id="aG" d="M28.1 129.4h82.5v82H28.1z"/></defs><clipPath><use xlink:href="#aG" overflow="visible"/></clipPath><defs><path id="aH" d="M28.1 129.4h82.5v82H28.1z"/></defs><clipPath><use xlink:href="#aH" overflow="visible"/></clipPath><defs><path id="aI" d="M28.1 129.4h82.5v82H28.1z"/></defs><clipPath><use xlink:href="#aI" overflow="visible"/></clipPath><defs><path id="aJ" d="M28.1 129.4h82.5v82H28.1z"/></defs><clipPath><use xlink:href="#aJ" overflow="visible"/></clipPath><defs><path id="aK" d="M28.1 129.4h82.5v82H28.1z"/></defs><clipPath><use xlink:href="#aK" overflow="visible"/></clipPath><defs><path id="aL" d="M28.1 129.4h82.5v82H28.1z"/></defs><clipPath><use xlink:href="#aL" overflow="visible"/></clipPath><defs><path id="aM" d="M28.1 129.4h82.5v82H28.1z"/></defs><clipPath><use xlink:href="#aM" overflow="visible"/></clipPath><defs><path id="aN" d="M28.1 129.4h82.5v82H28.1z"/></defs><clipPath><use xlink:href="#aN" overflow="visible"/></clipPath><defs><path id="aO" d="M28.1 129.4h82.5v82H28.1z"/></defs><clipPath><use xlink:href="#aO" overflow="visible"/></clipPath><defs><path id="aP" d="M28.1 129.4h82.5v82H28.1z"/></defs><clipPath><use xlink:href="#aP" overflow="visible"/></clipPath><defs><path id="aQ" d="M24.5 129.4H107v82H24.5z"/></defs><clipPath id="aR"><use xlink:href="#aQ" overflow="visible"/></clipPath><path clip-path="url(#aR)" fill="#876912" d="M2.2 85.3v-7.8h-12.5v7.8h-3.4V67.1h3.4v7.7H2.2v-7.7h3.4v18.2zM28.5 85.3l-2.4-4.5H15.4L13 85.3H9.4l9.8-18.2H22l10 18.2h-3.5zm-7.9-14.6l-4 7.6h8.1l-4.1-7.6zM57.8 85.3V70.9l-.9 1.6-7.6 12.8h-1.7l-7.5-12.8-.9-1.6v14.4h-3.3V67.1h4.7l7.2 12.5.8 1.5.9-1.5 7.1-12.5h4.7v18.2zM65.8 67.1h3.4v18.2h-3.4zM95.4 67.1h3.4v18.2h-3.4zM121.6 85.3l-2.4-4.5h-10.7l-2.3 4.5h-3.6l9.8-18.2h2.8l10 18.2h-3.6zm-7.9-14.6l-4 7.6h8.1l-4.1-7.6zM73.7 85.3V67.1h3.5v15.4h14.2v2.8zM125.2 68.4c0 .7-.6 1.3-1.3 1.3-.7 0-1.3-.6-1.3-1.3 0-.7.6-1.3 1.3-1.3.7 0 1.3.6 1.3 1.3m-2.3 0c0 .6.5 1.1 1.1 1.1.6 0 1.1-.5 1.1-1.1 0-.6-.5-1.1-1.1-1.1-.6 0-1.1.5-1.1 1.1m.6-.7h.5c.2 0 .5 0 .5.4 0 .3-.2.3-.3.4.2 0 .2.1.2.3 0 .1 0 .3.1.4h-.3c0-.1-.1-.4-.1-.5 0-.1 0-.1-.1-.1h-.2v.6h-.3v-1.5zm.2.6h.2c.2 0 .2-.1.2-.2 0-.2-.1-.2-.2-.2h-.2v.4z"/></svg>