<svg xmlns="http://www.w3.org/2000/svg" xmlns:xlink="http://www.w3.org/1999/xlink" viewBox="0 0 132 72.9" enable-background="new 0 0 132 72.9"><defs><path id="a" d="M-303.7 6h63.5v60.9h-63.5z"/></defs><clipPath id="b"><use xlink:href="#a" overflow="visible"/></clipPath><path clip-path="url(#b)" fill="#fff" d="M19.6 6.2H-4.7c-.6 1.2-14.4 25.1-5.3 48.7.5 1.2 1.1 2.5 1.7 3.7 0 0 21.5-10.5 27.1-45.6.6-3.9.8-6.8.8-6.8"/><path clip-path="url(#b)" fill="none" stroke="#fff" stroke-width="3.063" d="M19.6 6.2H-4.7c-.6 1.2-14.4 25.1-5.3 48.7.5 1.2 1.1 2.5 1.7 3.7 0 0 21.5-10.5 27.1-45.6.6-3.9.8-6.8.8-6.8z"/><path clip-path="url(#b)" fill="#006BB6" d="M9.1 8.1h2.1c1.4 0 2.5.6 2.3 1.3-.1.5-.6 1-1.3 1.3.5.2 1.1.6.9 1.3-.2.9-1.8 1.5-3.3 1.5h-2l1.3-5.4zm2 3.8c.1-.5-.3-.6-.7-.6h-.2l-.2 1.2h.2c.3 0 .8-.2.9-.6m.5-2.2c.1-.5-.4-.6-.6-.6h-.1l-.3 1.2h.1c.2 0 .7-.2.9-.6"/><path clip-path="url(#b)" fill="#006BB6" d="M.6 8.1l-.3.8c-.4 1.1-1 2.3-1 2.3s-.2-1.6.1-3.1h-1.9C-3 9.6-4 11.2-4 11.2s0-1.2.1-2.3l.1-.8h-2c-.4 2.3.3 5.4.3 5.4h1.6c.6-1 1.3-2.4 1.6-2.9v.2c0 .5 0 1.7.2 2.7h1.6s2.2-3.1 2.9-5.4H.6zM12.9 13.5h2c.1-.4.3-.8.4-1.1h1.5c0 .4 0 .7-.1 1.1h2l.1-.8c0-2.5-1-4.6-1-4.6h-1.4c-3 3.3-3.5 5.4-3.5 5.4m2.9-2.1c.4-.7.7-1.2.8-1.3.1.3.1.8.2 1.4h-1z"/><path clip-path="url(#b)" fill="#ED174C" d="M7.5 14.3c.1 0 .2.1.3.1.4.2.9.7.9 1 0 .1-.1.2-.2.3v.7c0 .3-.2.5-.2.5s.2.4.1.6c0 .1-.3 1-.6 1.6-.1.2-.2.7-.8.6-.2 0-.4-.1-.4-.1-.1.2-.1.4-.1.4s-.1.2.3.4c.1 0 .4.2.4.2l.1-.1.9.5v.1s.5.1.7.2c.6.3 1 .8 1.2 1.3.2.6.3 1.4.3 1.7 0 0 1.4 1.2 1.4 5.8 0 .5-3.3 1.6-3.8 1.6.2 2.3-1.1 5.3-1.9 6.7-.6 1.1-1.3 2-2 3l-.1-.2c-1.4 2.1-2.9 4-3.5 4.3-.2.2-.3.2-.5.3-.3.5-.9 1-1.1 1.3-.2.2-2.9 2.3-4.7 3.6 0 .1.1.2 0 .2-.2.2-.5.4-.7.5-.1.1-.1.3-.2.4-.8.6-1.1.6-1.2.8-.2.8.4 1.6.4 2.1s-.3.7-.4.8c0 0-1 .1-1.4.1-.2 0-.5-.1-.7-.3l1.5 3.3s21-10.3 26.9-44.4H7.5zM8.4 25.4c-.3 1.7-.2 1.8-.7 3.3l.2 1.4L9.7 29v-.2c-.5-.6-1.2-2.5-1.1-3.3l-.2-.1z"/><path clip-path="url(#b)" fill="#006BB6" d="M-8.3 14.3h-.1C-12 23.4-16 39-10.2 54.6c0-.4.1-.8.2-1.2.1-.4-.1-1.2 0-1.3 1.2-1.7 2.1-1.7 2.2-1.8.2-.1.5-.5.7-.7.1-.1.2-.1.2 0 .6-.6 1.3-1.3 1.7-1.9.7-.9.8-1.6 1.4-2.1.7-.6 1-.6 2.2-1 0-.2.4-1.5 1-2.5.4-.7 2-3.8 2-3.9 0 0-.1-.1-.2-.1s-3.8 5.2-4.3 5.7c-.2.2-.4.3-.9.5 0 0-.1.4-.6.7-.2.1-.6.2-.9.2l-.5.4c0 .1-.4.8-.5 1-.1.2-.3.4-.4.6-.1.1-.4.5-.9.6-.5.1-.8-.2-.9-.5-.1-.4-.2-1 .3-1.8.3-.5 1.2-1 1.5-1.3 0 0 .1-.4.1-.5 0-.2.2-.8.5-1.1.4-.3.7-.3.9-.3 0 0 0-.3.1-.8.2-1.1 1.3-3.2 1.5-3.9l-.2-.2c.4-.9 1.2-2.6 1.7-3.4 2.1-3.6 4.2-4.6 4.2-4.6s0-.2-.1-.7c0-.3-.2-1.7-.2-1.7s-.5-.2-.7-.9c-.2-.6 0-1.7 0-1.7.1-.4 0-.8 0-.8l-.5-.1c-.7.6-4.3 1.8-4.3 1.8-.8.8-2.8 1.7-3.7 2.3.9.5 1.6 1.4 1.7 2.5v.3c0 1-.5 2-1.4 2.6-.5.4-1.1.6-1.8.6-1.7 0-3.1-1.4-3.1-3.1 0-1.6 1.1-2.8 2.6-3.1.2-.1.4-.1.5-.2.2-.1.5-.6.8-.8 1-.9 2-2.7 4-2.7.1 0 2.6-1.6 2.6-1.6.7-.8 1.2-1 1.7-1.2.6-.2 1.7-.3 1.7-.3v-.1l.9-.1v.1l1.4-.3c.1-.1.2-.7.3-1 .3-.9-1.2-1.4-1.6-2.2 0 0 .4.1.4 0-.2-.3-.5-.6-.5-.6.9.3 1.6-1.3 2.7-2 .1-.1.2-.1.4-.2h-14z"/><path clip-path="url(#b)" fill="#ED174C" d="M-5.3 7.3h24.8c.1-.7.1-1.1.1-1.1H-4.7c-.1.2-.3.5-.6 1.1"/><path clip-path="url(#b)" fill="#006BB6" d="M6.6 8.1L6 10.7v.1L4.6 8.1H3l-1.3 5.4h1.8l.7-2.7 1.4 2.7h1.6l1.3-5.4H6.6z"/><defs><path id="c" d="M-303.3 6h63.5v60.9h-63.5z"/></defs><clipPath id="d"><use xlink:href="#c" overflow="visible"/></clipPath><g clip-path="url(#d)"><text transform="translate(27.123 68.537)" font-family="'Univers-Condensed'" font-size="6.041">Multiple NHL Franchises</text></g><path clip-path="url(#d)" fill="none" stroke="#010101" stroke-width=".504" d="M-34 67.6h48.9v-8.9"/><defs><path id="e" d="M-303.3 6h63.5v60.9h-63.5z"/></defs><clipPath><use xlink:href="#e" overflow="visible"/></clipPath><defs><path id="f" d="M-133.8-231.4h70.1v64.3h-70.1z"/></defs><clipPath id="g"><use xlink:href="#f" overflow="visible"/></clipPath><path clip-path="url(#g)" fill="none" stroke="#000" stroke-width=".101" d="M-348.8-262.8H37.3V35.8h-386.1z"/><path clip-path="url(#g)" fill="none" stroke="#fff" stroke-width=".405" d="M-363.1-269.1H51.7V42h-414.8z"/><defs><path id="h" d="M-133.8-231.4h70.1v64.3h-70.1z"/></defs><clipPath><use xlink:href="#h" overflow="visible"/></clipPath><defs><path id="i" d="M-166.7 141.5h126.1v25.1h-126.1z"/></defs><clipPath id="j"><use xlink:href="#i" overflow="visible"/></clipPath><path clip-path="url(#j)" fill="none" stroke="#000" stroke-width=".165" d="M-254.1-293.3h627.9v485.6h-627.9z"/><path clip-path="url(#j)" fill="none" stroke="#fff" stroke-width=".658" d="M-277.5-303.5h674.7v506h-674.7z"/><defs><path id="k" d="M-166.7 141.5h126.1v25.1h-126.1z"/></defs><clipPath><use xlink:href="#k" overflow="visible"/></clipPath><defs><path id="l" d="M-166.7 141.5h126.1v25.1h-126.1z"/></defs><clipPath><use xlink:href="#l" overflow="visible"/></clipPath><defs><path id="m" d="M-166.7 141.5h126.1v25.1h-126.1z"/></defs><clipPath><use xlink:href="#m" overflow="visible"/></clipPath><defs><path id="n" d="M-166.7 141.5h126.1v25.1h-126.1z"/></defs><clipPath><use xlink:href="#n" overflow="visible"/></clipPath><defs><path id="o" d="M-166.7 141.5h126.1v25.1h-126.1z"/></defs><clipPath><use xlink:href="#o" overflow="visible"/></clipPath><defs><path id="p" d="M-166.7 141.5h126.1v25.1h-126.1z"/></defs><clipPath><use xlink:href="#p" overflow="visible"/></clipPath><defs><path id="q" d="M-166.7 141.5h126.1v25.1h-126.1z"/></defs><clipPath><use xlink:href="#q" overflow="visible"/></clipPath><defs><path id="r" d="M-166.7 141.5h126.1v25.1h-126.1z"/></defs><clipPath><use xlink:href="#r" overflow="visible"/></clipPath><defs><path id="s" d="M-166.7 141.5h126.1v25.1h-126.1z"/></defs><clipPath><use xlink:href="#s" overflow="visible"/></clipPath><defs><path id="t" d="M-166.7 141.5h126.1v25.1h-126.1z"/></defs><clipPath><use xlink:href="#t" overflow="visible"/></clipPath><defs><path id="u" d="M-166.7 141.5h126.1v25.1h-126.1z"/></defs><clipPath><use xlink:href="#u" overflow="visible"/></clipPath><defs><path id="v" d="M-166.7 141.5h126.1v25.1h-126.1z"/></defs><clipPath><use xlink:href="#v" overflow="visible"/></clipPath><defs><path id="w" d="M-166.7 141.5h126.1v25.1h-126.1z"/></defs><clipPath><use xlink:href="#w" overflow="visible"/></clipPath><defs><path id="x" d="M-166.7 141.5h126.1v25.1h-126.1z"/></defs><clipPath><use xlink:href="#x" overflow="visible"/></clipPath><defs><path id="y" d="M-166.7 141.5h126.1v25.1h-126.1z"/></defs><clipPath><use xlink:href="#y" overflow="visible"/></clipPath><defs><path id="z" d="M-166.7 141.5h126.1v25.1h-126.1z"/></defs><clipPath><use xlink:href="#z" overflow="visible"/></clipPath><defs><path id="A" d="M-166.7 141.5h126.1v25.1h-126.1z"/></defs><clipPath><use xlink:href="#A" overflow="visible"/></clipPath><defs><path id="B" d="M-166.7 141.5h126.1v25.1h-126.1z"/></defs><clipPath><use xlink:href="#B" overflow="visible"/></clipPath><defs><path id="C" d="M-166.7 141.5h126.1v25.1h-126.1z"/></defs><clipPath><use xlink:href="#C" overflow="visible"/></clipPath><defs><path id="D" d="M-166.7 141.5h126.1v25.1h-126.1z"/></defs><clipPath><use xlink:href="#D" overflow="visible"/></clipPath><defs><path id="E" d="M-166.7 141.5h126.1v25.1h-126.1z"/></defs><clipPath><use xlink:href="#E" overflow="visible"/></clipPath><defs><path id="F" d="M-166.7 141.5h126.1v25.1h-126.1z"/></defs><clipPath><use xlink:href="#F" overflow="visible"/></clipPath><defs><path id="G" d="M-166.7 141.5h126.1v25.1h-126.1z"/></defs><clipPath><use xlink:href="#G" overflow="visible"/></clipPath><defs><path id="H" d="M-166.7 141.5h126.1v25.1h-126.1z"/></defs><clipPath><use xlink:href="#H" overflow="visible"/></clipPath><defs><path id="I" d="M-166.7 141.5h126.1v25.1h-126.1z"/></defs><clipPath><use xlink:href="#I" overflow="visible"/></clipPath><defs><path id="J" d="M-166.7 141.5h126.1v25.1h-126.1z"/></defs><clipPath><use xlink:href="#J" overflow="visible"/></clipPath><defs><path id="K" d="M-166.7 141.5h126.1v25.1h-126.1z"/></defs><clipPath><use xlink:href="#K" overflow="visible"/></clipPath><defs><path id="L" d="M-166.7 141.5h126.1v25.1h-126.1z"/></defs><clipPath><use xlink:href="#L" overflow="visible"/></clipPath><defs><path id="M" d="M-166.7 141.5h126.1v25.1h-126.1z"/></defs><clipPath><use xlink:href="#M" overflow="visible"/></clipPath><defs><path id="N" d="M-166.7 141.5h126.1v25.1h-126.1z"/></defs><clipPath><use xlink:href="#N" overflow="visible"/></clipPath><defs><path id="O" d="M-166.7 141.5h126.1v25.1h-126.1z"/></defs><clipPath id="P"><use xlink:href="#O" overflow="visible"/></clipPath><path clip-path="url(#P)" fill="#00000C" d="M75.3 46.5c-2.7-2.4-5.8-1.1-5.8-1.1-4.7 2.1-3.6 6.7-3.6 6.7-4.8-.1-7.7-3.2-7.7-3.2-2.8-2.8-2.6-6.3-2.6-6.3.2.3.9 1.1.9 1.1 3.6 3.1 8.7.3 8.7.3 5.8-2.2 6.4-8.1 6.4-8.1 1-7.5-3.7-11.2-3.7-11.2-3.2-2.6-6.9-2.5-6.9-2.5-1.3-.1-1.5.4-1.5.4-1.1 4 2.2 6.2 2.2 6.2 3.9 2.7 7.1-.3 7.1-.3 2.2 3.9 1.1 7.9 1.1 7.9-1.2 4.4-4.5 5.6-4.5 5.6 1.2-1.8.5-4.1.5-4.1-.9-3.2-5.1-6-5.1-6-5.3-3.5-10.7-.3-10.7-.3-5.1 2.7-6.3 7.4-6.3 7.4-1.4 3.9 1.1 8.1 1.1 8.1.4 1.1 1.1.9 1.1.9 4.6-1.4 4.3-5.5 4.3-5.5.1-4-3.8-5.4-3.8-5.4 3.2-4.6 8.1-5.1 8.1-5.1 3-.3 5.9 1.8 5.9 1.8-.6-.1-2.3.5-2.3.5-2.8 1.3-3.4 4.1-3.4 4.1-2.2 6.9 1.3 10.7 1.3 10.7 5.1 6.1 11.8 4.6 11.8 4.6 5-.6 7.5-5.8 7.5-5.8.6-1-.1-1.4-.1-1.4M63 27.8c-2.2-1.1-2.1-3.9-2.1-3.9 5.4.3 7.1 3.3 7.1 3.3-2.4 2.2-5 .6-5 .6M48.7 42c0 3.5-2.5 4.1-2.5 4.1-2.3-4.4-.6-7.7-.6-7.7 2.9.8 3.1 3.6 3.1 3.6m11.7-6.7c2.3 0 4.1 1.8 4.1 4.1s-1.8 4.1-4 4.2c-2.3 0-4.1-1.8-4.1-4.1-.1-2.3 1.7-4.2 4-4.2M67.6 52s-.8-2.5 1.4-4.4c0 0 2.4-1.8 4.9-.2-.1 0-2.1 4-6.3 4.6M33.1 57.9c-5.5 0-9.9 4.2-9.9 9.3 0 5.2 4.4 9.3 9.9 9.3s9.9-4.2 9.9-9.3c0-5.1-4.4-9.3-9.9-9.3m0 16.1c-3.7 0-6.6-3.1-6.6-6.8 0-3.8 3-6.8 6.6-6.8 3.7 0 6.6 3.1 6.6 6.8 0 3.8-2.9 6.8-6.6 6.8M94.2 73.1H86V68h7.3c.7 0 1.3-.6 1.3-1.3 0-.7-.6-1.3-1.3-1.3H86v-4.2h8.2c.7 0 1.3-.6 1.3-1.3 0-.7-.6-1.3-1.3-1.3H84c-.7 0-1.3.6-1.3 1.3v14.4c0 .7.6 1.3 1.3 1.3h10.2c.7 0 1.3-.6 1.3-1.3 0-.7-.6-1.2-1.3-1.2M62.2 64.3c.4 0 .7-.3.7-.7 0-.2-.1-.3-.1-.3-1.6-3.2-5-5.4-9-5.4-5.5 0-9.9 4.2-9.9 9.3 0 5.1 4.4 9.3 9.9 9.3 4.3 0 8-2.6 9.3-6.2 0 0 .1-.1.1-.3 0-.4-.3-.7-.7-.7h-2.1c-.2 0-.3.2-.5.3v.1c-1 2.5-3.4 4.2-6.1 4.2-3.7 0-6.6-3.1-6.6-6.9 0-3.8 3-6.8 6.6-6.8 2.5 0 4.7 1.4 5.8 3.6.1.2.3.4.5.4h2.1"/><path clip-path="url(#P)" fill="#00000C" d="M8.7 69.5c-.1-.3-.3-.5-.6-.5H6.5c-.4 0-.7.3-.7.7v.3c0 3.6 3.2 6.5 8.2 6.5 4.5 0 8.3-2.2 8.3-8.5v-8.8c0-.4-.3-.7-.7-.7h-2c-.4 0-.7.3-.7.7V68c0 4.1-1.9 6-4.9 6-2.5 0-5.3-1.8-5.3-4.5zM112.2 58.6H110c-.4 0-.9.3-1.1.7l-4.7 7-4.2-7c-.2-.4-.7-.7-1.1-.7H97c-.7 0-1 .6-.5 1.3l6.2 9.8v4.7c0 .7.6 1.3 1.3 1.3h.7c.7 0 1.3-.6 1.3-1.3v-4.8l6.6-9.7c.5-.7.3-1.3-.4-1.3M81.5 74.7l-6.9-10.2 4.7-4.9c.5-.6.3-1-.1-1h-2.4c-.5 0-.7.2-1.2.7l-7.4 7.4v-7.4c0-.4-.3-.7-.7-.7h-1.2s-1.4 0-1.4 2.3V75c0 .4.3.7.7.7h.8c1 0 1.8-.8 1.8-1.8v-2.8l4-4.2 5.5 8c.2.3.5.7.9.7h2c.9.1 1.3-.3.9-.9"/><defs><path id="Q" d="M-166.7 141.5h126.1v25.1h-126.1z"/></defs><clipPath><use xlink:href="#Q" overflow="visible"/></clipPath><path fill="#FFFCFA" d="M12.8 17H114v39H12.8z"/><path fill="#D9B042" d="M114.5 16.5H12.4v39.9H114.4V16.5zM114 56H12.8V17H114v39z"/><path fill="#C2120F" d="M14.1 18.1h98.8v36.8H14.1z"/><path fill="#D9B042" d="M113.3 17.7H13.7V55.3H113.3V17.7zm-.5 37.2H14.1V18.1h98.8v36.8z"/><path fill="#fff" d="M38.1 24.8c0 .4-.4 1-1 1.5-1.3 1.1-3.2 3.6-9 4.4 0 0 5.6-7.2 9.6-6.5 0 0 .4.2.4.6m-1.3-2c-.6 0-8.2 1.2-13.5 7.8 0 0-1.6-.3-1.5-2 .1-1.7 1.9-2.1 2.7-2l.1-.7s-4.6-.8-4.6 2.7c0 2.4 2.3 3.1 2.3 3.1s-3.7 4.8-3.6 9.5c0 4.5 4.1 5 5.3 5.2 2.7.3 7.5-3.3 7.4-8.7 0-3.2-1.5-2.9-1.7-2.9-.2 0-3.7.2-3.7 6.2 0 0 .9-4.2 3.1-4.2s-1.6 8.1-4.6 8.1c-2.9 0-3.3-7 3.1-13.1 0 0 10.7-.7 12.1-6.8.3-2.4-2.3-2.2-2.9-2.2M35.1 43.5c-1.3-2.7 4.1-8.7 4.7-8.1 1.5 2.2-3.7 8.9-4.7 8.1m5.8.1c-.9 0-.2-1.5-.2-1.5l3.6-7.7h-3s.1.3 0 .4c-.2.1-.3 0-.3 0s-1.7-2.1-4.4.3-5.8 6.5-4.8 10c.3.7 1.5 1 2.2.9 1.9-.1 3.3-2.3 3.3-2.3 0 2.8 2.5 2.7 3.6 1.7 1-1 5.6-7.3 6.3-9.1-.1 0-5.2 7.4-6.3 7.3"/><path fill="#fff" d="M42.5 45.2l5-11.4h2.8l.1.6h.6s.4-1 1.8-1 1.6 1.2 1.6 1.2h.6s1.4-1.1 2.4-1.2c1-.1 1.5.1 1.5.8 0 .7-.2 2.1-2.6 7.7-.5.9 0 4 3.6-2.1 0 0-1.1 4.7-3.4 5.4-1.8.6-4 .2-3.5-1.4.5-1.6 1.7-4.6 2.3-6.2.6-1.6.6-1.8-.1-1.9-.7-.1-.9.4-1.7 1.9-.7 1.4-3.2 7.3-3.2 7.3l-3 .1s3-7.1 3.4-8c.4-.9-.8-1.6-1.3-.4-.6 1.2-4 8.6-4 8.6h-2.9zM62.5 43.3c-1.3.3.4-3.6 1.4-6 1.1-2.4 2.7-2.4 2.7-2.4 1.7.9-1.8 7.8-4.1 8.4m2.6-8.6l.9-2.6h-2.7l-8.1 18h2.9l3.2-6.8c.1 1.8.9 2.1 1.3 2.2.4.1 1.1.3 3.2-1.7 2.7-2.4 3.3-5.6 3.6-8.3.3-2.7-2.9-2.7-4.3-.8M76.5 34.9c1.2.6.5 2.2.2 3.1-.3.9-2.5 5.1-3.8 5.1-1.3 0-.5-2.7.6-5.1 1-2.5 3-3.1 3-3.1m5.6-9c1.8 1.4-4.8 6.1-4.8 6.1s3.9-6.6 4.8-6.1m-2.6 5.9c4.3-3.6 5.3-4.5 4.8-6.5-.8-1.6-3-.5-3.4-.2-.5.2-4.7 3.3-8.4 9.7L69.1 36l.1.6s1.2-.3 2.6-.7c-.5.9-.9 1.8-1.3 2.8 0 0-2.8 6.8 1 6.7 3.8-.2 6.1-4.3 6.5-5.1.4-.7 3.6-4.4 1.4-6.8-.6-.6-2.8 0-3.4.8l.1-.2c1.1-.6 2.3-1.4 3.4-2.3M84.1 35.8c-.3-.7 2.6-3 2.9-2.2.5 1.3-2.9 2.2-2.9 2.2m1.9.7c.3 0 2.8-.6 2.9-2.6.1-1.9-2.5-1.3-2.5-1.3s-5.2.5-5.3 4.1l-1.4.4-.5.7s1.1-.1 2.3-.3c0 0 .6.7 1.6.7 0 0-3.8 2.1-4.4 3.5-.7 1.4-.9 4.8 2.9 3.7 3.8-1.1 4-2.4 4-2.4l2.7-3.8-.6-.2s-3.2 3.9-5.2 3.8c-2.1-.1-.2-2.6.9-3.1s3.3-.9 3.3-.9l.2-1.2s-2 .1-2-.4c-.2-.4.8-.7 1.1-.7"/><path fill="#fff" d="M95.1 25.4s-7.6 13.1-9 16.2c-1.5 3.2.4 3.8 1.6 3.9 1.1.1 3.9-1.6 6.2-4.8l-.8.2s-2.4 1.8-2.9 1.8c-.6-.1-1.1-.4-.5-1.6.6-1.2 8.5-15.6 8.5-15.6h-3.1zM100.9 25.4l-9 15.7c-1.5 2.6.5 4.6 1.8 4.4s2.5-.8 3.8-3.2c0 0-3.3 1.2-2.5-.3.8-1.6 9-16.6 9-16.6h-3.1z"/><path fill="#FFFCFA" d="M104.6 28.4s-1-3 1.1-2.6c2.2.4-1.1 2.6-1.1 2.6"/><path fill="#fff" d="M102.3 41c-.2 1.4-.7 1.9-1.4 1.9s-2.9-.3-2.9-.3l4.3-5.1s.2 1.7 0 3.5m2 2.6c1.9-3.7 1.4-10.1 1.4-10.1l-2.6.1c-2.8 5.3-7.6 9.2-7.6 9.2l.2 1.7.9-.2c.8 1.2 3.5 1.4 4.4 1.3.9-.1 1.2-.7 1.7-.7s.8.7 2.4.7c3 .2 3.1-2.2 3.1-2.2-2.5.5-3.9.2-3.9.2"/></svg>