<svg xmlns="http://www.w3.org/2000/svg" viewBox="0 0 137.7 65" enable-background="new 0 0 137.7 65"><path d="M19.3 23.6v-.5l.8-.2c.1 0 .2-.1.4-.1l.1-1.7v-4.7c0-.3 0-.6-.1-.9v-.2h-.2c-.2 0-.3-.1-.5-.1h-.1c-.1 0-.2 0-.3-.1v-.5h.7c.5.1.9.1 1.1.1h.6c.1 0 .5 0 1-.1h.7v.5l-1.1.2c-.1 0-.1.1-.1.2V18.6h4.4v-3.2s0-.1-.1-.1c-.1-.1-.4-.2-.9-.3-.1 0-.2 0-.2-.1 0-.2 0-.3.1-.4h.8c.4.1.8.1 1.2.1h1.2c.2 0 .3-.1.5-.1h.4v.5c-.4.1-.6.2-.8.2-.1 0-.2.1-.4.2V22.8c.1 0 .2.1.2.1.4.1.7.2.9.3v.5h-1c-.3 0-.9-.1-1.7-.1-.3 0-.8 0-1.3.1h-.2v-.5l.5-.1.5-.1c.1 0 .1 0 .2-.1 0-.4.1-1 .1-1.9v-1.5H22.3v3.4h.1l.9.2h.1c.1 0 .1 0 .1.1v.5h-3c-.2-.1-.6-.1-1.2-.1"/><path d="M32 14.6c.2 0 .5 0 .6.1.3.1.7.1 1.2.1H35c.9 0 1.8-.1 2.6-.1h1.1c.3 0 .6 0 1.1.1.1.1.1.2.1.4V17h-.5c0-.1-.1-.2-.2-.4l-.2-.5c-.1-.2-.2-.4-.4-.6-.1 0-.2-.1-.4-.1h-.4c-.4 0-.8-.1-1.3-.1h-1.4V18.8H37c.3 0 .5-.1.6-.1.1-.1.1-.2.2-.3 0-.1.1-.4.2-1h.5V20.9h-.4c0-.1 0-.2-.1-.5-.1-.4-.2-.7-.2-.8-.1-.1-.1-.1-.3-.2h-.9c-.6 0-1.1 0-1.4.1V22.6c0 .2.1.3.2.4H37c.6 0 1.1 0 1.5-.1.3-.1.5-.2.7-.5.3-.3.5-.7.7-1.3h.5v.5l-.2 1.3-.2.8h-.7c-.2 0-.9 0-1.9-.1h-2.6c-.5 0-1.1 0-1.9.1h-1.1v-.5c.1 0 .2 0 .5-.1.4-.1.7-.1.9-.2 0-.1.1-.3.1-.5V16.5l-.1-.9v-.1c0-.1-.1-.1-.2-.1h-.2c-.2-.1-.5-.1-.7-.1h-.3l.2-.7zM45.9 18.7h.4c.7 0 1.2-.1 1.5-.4.3-.3.5-.7.5-1.1 0-.3 0-.6-.1-.8-.1-.3-.2-.4-.3-.6-.2-.2-.4-.3-.6-.4-.2-.1-.5-.1-.9-.1h-.5V18.7zm-2.8 4.5c.1-.1.3-.1.5-.1s.4-.1.6-.2v-7.6l-.4-.1c-.3 0-.6 0-.7-.1v-.5c.2 0 .4-.1.6-.1h2.2c.5-.1 1-.1 1.6-.1.9 0 1.6.2 2.1.7.5.5.8 1 .8 1.7 0 .5-.1.9-.4 1.3-.3.4-.7.7-1.3.9.1.1.1.2.2.3.2.3.3.5.4.7l1 1.8c.3.5.4.8.5.8.1.1.2.2.5.3.2.1.3.2.4.2v.4H49l-.2-.5c-.2-.3-.3-.6-.4-.8-.2-.5-.5-1.2-1-2.2-.2-.5-.4-.7-.4-.8-.1-.1-.3-.1-.7-.1h-.4v3.3c.1.1.3.1.5.2.3.1.6.2.8.3v.5h-.5c-.9-.1-1.4-.1-1.6-.1h-.2l-.9.1h-1v-.2c.1.2.1.1.1 0M58.6 14.8c0 .2.1.4.1.7.1.5.1.9.1 1.1v.3h-.7c-.2-.6-.4-1-.6-1.2-.3-.4-.7-.6-1.1-.6-.4 0-.7.1-1 .4-.2.2-.4.5-.4.9 0 .3.1.6.4.9.2.3.7.5 1.5.8.3.1.6.2.9.4.4.2.6.4.8.6.3.3.4.6.5.8.1.3.1.6.1 1s-.1.9-.2 1.3c-.1.2-.2.4-.4.6-.1.1-.3.3-.6.5s-.5.3-.8.4c-.3.1-.7.1-1.1.1-.3 0-.6 0-1.1-.1l-.8-.2c-.2-.1-.3-.1-.4-.2 0 0 0-.1-.1-.1V21.1h.6c.2.5.3.8.4.9.1.2.3.4.4.6.2.1.3.3.6.3.2.1.5.1.7.1.2 0 .5-.1.8-.2.3-.1.5-.3.7-.5.2-.2.2-.5.2-.8 0-.3-.1-.7-.4-1-.2-.2-.7-.4-1.4-.7-.8-.3-1.3-.6-1.6-.8-.3-.2-.5-.6-.7-1-.2-.4-.3-.8-.3-1.1 0-.7.2-1.4.7-1.9.5-.5 1.2-.8 2.1-.8.2 0 .5 0 .9.1.5.3.8.4 1.2.5M69.3 14.8c.1.1.2.5.3 1.2.1.3.1.6.1.9h-.6c-.4-.6-.8-1.1-1.3-1.4-.4-.3-.9-.4-1.4-.4-.7 0-1.2.3-1.6.8-.5.8-.8 1.8-.8 3.2 0 .8 0 1.4.1 1.7.2.5.3 1 .6 1.3.2.3.4.5.7.6.4.2.8.3 1.2.3.5 0 .9-.2 1.3-.5s.8-.8 1.2-1.4c.2 0 .4-.1.6-.1 0 .2 0 .4-.1.5 0 .1-.1.4-.1.9l-.1.2-.1.3c-.3.2-.6.4-1.1.5-.5.1-1 .2-1.7.2-.5 0-1-.1-1.5-.2s-.9-.3-1.2-.5c-.5-.3-.9-.7-1.1-1.1-.3-.4-.5-.8-.6-1.3-.1-.5-.2-1-.2-1.5 0-1.4.4-2.5 1.2-3.4.8-.9 1.9-1.4 3.2-1.4.5 0 1 0 1.5.1.6.3 1.1.4 1.5.5M72.3 23.6v-.5l.8-.2c.1 0 .2-.1.4-.1l.1-1.7v-4.7c0-.3 0-.6-.1-.9 0 0 0-.1-.1-.2h-.2c-.2 0-.3-.1-.5-.1h-.1c-.1 0-.2 0-.3-.1v-.5h.7c.5.1.9.1 1.1.1h.6c.1 0 .5 0 1-.1h.7v.5l-1.1.2c-.1 0-.1.1-.1.2V18.6h4.4v-3.2s0-.1-.1-.1c-.1-.1-.4-.2-.9-.3-.1 0-.2 0-.2-.1 0-.2 0-.3.1-.4h.8c.4.1.8.1 1.2.1h1.2c.2 0 .3-.1.5-.1h.4v.5c-.4.1-.6.2-.8.2-.1 0-.2.1-.4.2V22.8c.1 0 .2.1.2.1.4.1.7.2.9.3v.5h-1c-.3 0-.9-.1-1.7-.1-.3 0-.8 0-1.3.1h-.2v-.5l.5-.1.5-.1c.1 0 .1 0 .2-.1 0-.4.1-1 .1-1.9v-1.5H75.2v3.4h.1l.9.2h.1c.1 0 .1 0 .1.1v.5h-3c-.2-.1-.6-.1-1.1-.1"/><path d="M85 14.6c.2 0 .4 0 .6.1.3.1.7.1 1.2.1H88c.9 0 1.8-.1 2.6-.1h1.1c.3 0 .6 0 1.1.1.1.1.1.2.1.4V17h-.5c0-.1-.1-.2-.2-.4l-.2-.5c-.1-.2-.2-.4-.4-.6-.1 0-.2-.1-.4-.1h-.4c-.4 0-.8-.1-1.3-.1h-1.4V18.8H90c.3 0 .5-.1.6-.1.1-.1.1-.2.2-.3 0-.1.1-.4.2-1h.5V20.9H91c0-.1 0-.2-.1-.5-.1-.4-.2-.7-.2-.8-.1-.1-.1-.1-.3-.2h-.9c-.6 0-1.1 0-1.4.1V22.6c0 .2.1.3.2.4h1.6c.6 0 1.1 0 1.5-.1.3-.1.5-.2.7-.5.3-.3.5-.7.7-1.3h.5v.5l-.2 1.3-.1.8h-.7c-.2 0-.9 0-1.9-.1h-2.6c-.5 0-1.1 0-1.9.1h-1.1v-.5c.1 0 .2 0 .5-.1.4-.1.7-.1.9-.2 0-.1.1-.3.1-.5V16.5l-.1-.9v-.1c0-.1-.1-.1-.2-.1h-.2c-.2-.1-.5-.1-.7-.1h-.3l.2-.7zM95.6 15.2v-.5h2.7c.7.7 1.2 1.2 1.6 1.7.4.5 1.9 2.1 4.5 4.9v-1c0-.5 0-.8-.1-1.1v-2c-.1-.6-.1-1-.1-1.1 0-.3 0-.5-.1-.6-.1-.1-.3-.2-.6-.2-.2 0-.4-.1-.5-.2v-.4H106.1v.5c-.1.1-.2.1-.3.1-.3.1-.4.1-.5.1-.2.1-.3.2-.3.2 0 .1-.1.1-.1.3V16.8c0 .7 0 1.2.1 1.6v.4l.1 2.4V24h-.7l-.8-.9-1.5-1.7-1.1-1.2-.8-.9c-.5-.6-1-1-1.4-1.5l-1-1 .1 2.6v1.9c0 .4 0 .8.1 1.2v.3s0 .1.1.2c.2.1.5.1 1.1.1h.2v.6h-.2c-.1 0-.6 0-1.3-.1H96V23h.5c.4 0 .6 0 .6-.1.1-.1.1-.2.1-.5v-5.5c0-.5 0-.9-.1-1.1 0-.1-.1-.2-.1-.3-.1-.2-.3-.3-.5-.4-.2.2-.4.2-.9.1M111.5 15.3V21.2c0 .6.1 1.1.3 1.3.3.3.7.5 1.3.5.4 0 .7 0 .9-.1.4-.2.7-.4 1-.7.2-.3.4-.7.6-1.2.1-.5.2-1.1.2-1.7 0-.9-.1-1.7-.4-2.3-.3-.6-.6-1-1.1-1.3-.5-.3-1-.4-1.6-.4-.5-.2-.9-.1-1.2 0m-3.1 7.8c.1 0 .2 0 .4-.1.4-.1.7-.2.8-.3.1-.1.1-.2.1-.5v-6.5c0-.1 0-.2-.1-.3H109c-.2 0-.4 0-.5.1h-.1v-.6c.2-.1.6-.2 1.1-.3.8-.1 1.7-.2 2.8-.2.9 0 1.6.1 2.1.2.7.2 1.2.5 1.6.8.6.5 1 1 1.2 1.7.3.6.4 1.3.4 2.1 0 .9-.2 1.7-.6 2.4-.4.7-.9 1.2-1.6 1.6-.5.3-1.2.4-2 .4l-1.3-.1H108.4v-.4M19.3 41.6v-.9c.2 0 .4-.1.8-.2s.7-.2 1.1-.3l.2-.1c.1-.3.1-.7.1-1v-7.9l-.1-4c-.1-.1-.5-.2-1.1-.3-.1 0-.4-.1-.6-.2l-.3-.1v-.8l1.5.1c.8.1 2.1.1 3.8.1.9 0 1.8 0 2.7-.1h1.4l2-.1h.7c0 .2.1.5.1.7l.2 2.3c0 .2 0 .4-.1.6-.3 0-.5.1-.6.1-.1 0-.3 0-.4-.1 0 0-.1-.2-.3-.5-.3-.8-.6-1.3-.8-1.4-.2-.2-.8-.2-1.8-.2h-1.5c-.6 0-1.2.1-1.5.1-.1 0-.2.1-.4.1-.1.2-.1.4-.1.7v3c0 .8 0 1.4.1 1.6.1 0 .1.1.2.1h2.1c.3 0 .7 0 1.4-.1.4-.1.7-.1.8-.2.2-.1.3-.3.4-.5.1-.2.1-.7.2-1.4h1l-.1 1.9v3.6h-.3c-.1 0-.2 0-.4-.1-.1-.2-.1-.4-.2-.7-.2-.6-.4-1-.5-1.1-.4-.2-1.5-.3-3.3-.3-.3 0-.6 0-.9.1-.1.3-.1.7-.1 1.2l.1 3.6c0 .7.1 1.1.2 1.2.1.1.4.2.8.3h.2c.3 0 .6.1.9.2l.3.1v1h-.5l-1.6-.1h-2.5c-.4 0-.8 0-1.2.1-.6.1-.9.1-.9.1-.7-.2-1-.2-1.2-.2M51.7 41.5v-.8c.9-.1 1.5-.3 1.7-.6.2-.2.3-.7.4-1.5l.1-4.3.2-4.4v-.5c0-1.1-.1-1.8-.2-2-.1-.2-.6-.4-1.4-.5-.2 0-.4-.1-.5-.1v-.9h1l3.2.1h.8c.1.2.3.4.4.6.3.6.6 1.5 1.1 2.6l.1.3 1.7 4.1c0 .1.1.2.2.4.1.3.2.6.4.8.1.3.2.6.4.9.1.3.3.6.4.8l.3-.6c.3-.7.6-1.4.9-2 .5-1.1 1.1-2.8 2-5 .1-.4.4-.9.7-1.6.3-.7.5-1.1.5-1.2.1-.1.2-.1.4-.1h.3c.4 0 .8 0 1.4-.1.8 0 1.4 0 1.9-.1.5 0 .7-.1.8-.1h.3v1c-.7.1-1.3.3-1.7.5-.3.2-.5.4-.5.6v.2l.2 3.7c0 .3.1 2 .2 5 0 .7.1 1.5.1 2.6v.3c0 .2 0 .3.1.4.1.1.7.3 2 .7v.8c-.2 0-.7 0-1.5-.1s-1.5-.1-2.2-.1c-1.1 0-2.1 0-3.1.1h-.4v-.8c.3-.1.7-.2 1.2-.3.4-.1.6-.2.7-.3.1-.2.1-.6.1-1.3V38c0-.8-.1-2-.1-3.5l-.2-4.3c0-.6 0-1-.1-1.3l-2.7 6.9c-.1.2-.2.4-.3.7-.2.4-.3.7-.3.8-.6 1.5-1 2.6-1.2 3.4-.1.2-.1.5-.3.8h-.8l-.6-1.9c-.2-.5-.5-1.2-.9-2.2-.2-.6-.4-1-.6-1.4-.3 0-.3-.1-.3-.2l-.1-.3v-.1l-1.6-3.9-1-2.4-.1 5.7-.2 3.8c0 .6.1 1.1.3 1.3.2.3.7.5 1.3.7l.5.1v.9c-.4 0-.9 0-1.4-.1-.5-.1-1.1-.1-1.9-.1-.1 0-.8.1-2.1.1M76.3 41.5v-.9c.1 0 .4-.1.7-.2.5-.1.8-.3 1.1-.4.1-.3.2-.6.2-1V34.1c.1-1.6.1-2.4.1-2.5v-2.3l-.1-1.4v-.5c0-.1 0-.2-.1-.4-.3-.2-.8-.2-1.5-.3h-.4v-1.1l3.1.1h.7c.4 0 1.1 0 2.1-.1.5 0 .9-.1 1-.1v.9c-.3.1-.6.2-1 .3-.4.1-.7.2-.9.3 0 .2-.1.5-.1.9V35l.1 2v2.9c0 .1 0 .2.1.3.4.1.8.2 1.2.2.1 0 .3 0 .7.1v1H82.4c-.1 0-.6-.1-1.5-.2H79c-.4 0-1 0-1.7.1-.5.1-.8.1-1 .1M87.7 40.5c.2-.1.5-.1 1-.2.4-.1.7-.1.7-.1.3 0 .5-.1.6-.2 0-.2.1-.4.1-.5v-1.6l.1-1.6V28.7c-.1-.8-.1-1.3-.2-1.4 0-.1-.3-.2-.6-.3l-.4-.2c-.2-.1-.3-.1-.5-.2-.3-.1-.4-.2-.5-.3v-.8c.1 0 .1-.1.2-.1.2 0 .8 0 1.9.1h2.8c.5 0 1.2 0 1.9-.1h.4c.1 0 .2 0 .2.1.1.1.1.2.1.5 0 .2 0 .3-.1.4 0 .1-.2.1-.5.1l-1.4.4s-.1 0-.2.1c0 .1-.1.1-.1.1V39.4c0 .2 0 .4.1.5h2.3c1.2 0 2.1-.1 2.8-.4.5-.2.8-.5 1-.7.2-.2.5-.5.6-.8.2-.3.3-.7.5-1.4h1v.3c0 .6-.1 1.6-.2 3-.1.6-.1.9-.2 1.1-.2 0-.3.1-.3.1h-1c-.1 0-.5 0-1.3-.1-.1 0-.8 0-2.1-.1-1.3 0-2.5-.1-3.7-.1l-2.2.1c-.9 0-1.7.1-2.4.1h-.4v-.2c-.1.1-.1-.1 0-.3M102.4 26c.2-.1.7-.1 1.4-.1h.6c.1 0 .4 0 .9.1.9.1 1.6.1 2.2.1.6 0 1.2 0 1.7-.1H109.5c0 .1.1.2.1.2v.6c-.2.1-.4.1-.6.2l-.5.1c-.2 0-.4.1-.7.1h-.1v.2c.2.6.8 1.5 1.5 2.7.2.4.4.8.6 1.1.1.1.3.5.6 1.1 0 .1.1.1.1.2.1.1.1.2.2.3.1.2.2.3.2.4.1.3.3.5.4.6l1.1-1.8c.4-.5.9-1.3 1.5-2.3v-.1l.9-1.8c.1-.2.2-.4.2-.5v-.2c-.1-.1-.2-.1-.3-.1h-.5c-.2 0-.3-.1-.4-.1-.1 0-.3 0-.3-.1s0-.4-.1-.9l2.3.1h1c.2 0 .5-.1.9-.1h.3v.9h-.1c-.6.1-1 .3-1.3.4-.3.3-.8.9-1.3 2l-1.4 2.4c-.9 1.3-1.4 2.2-1.7 2.6-.1.1-.1.3-.2.4v5.6c0 .1.1.1.1.1.1 0 .3.1.7.1.7.1 1.1.1 1.2.2.1 0 .1.1.1.2v.6h-1.3l-1.2-.1-.8-.1h-2.6c-.4.1-.6.1-.8.1h-.8v-.8l2-.5c.1 0 .2-.1.3-.1v-4.3c0-.5-.2-1.1-.7-1.8-.2-.3-.3-.5-.4-.6l-2.2-3.6-1-1.8c0-.1-.3-.4-.7-1-.1-.1-.3-.2-.4-.3-.1 0-.4-.1-1-.3 0-.1-.1-.1-.1-.2v-.2c0 .4 0 .3.1.2"/><path d="M19.1 44.1h.5c.2 0 .5.1.8.1H23.8c.2 0 .5 0 .8.1.1.1.1.2.1.3v1.3h-.4c0-.1-.1-.2-.1-.3l-.2-.4c-.1-.2-.2-.3-.3-.5h-2.5V47h1.4c.2 0 .4-.1.4-.1.1 0 .1-.1.1-.2s.1-.3.2-.7h.4v2.5h-.3c0-.1 0-.2-.1-.3-.1-.3-.1-.5-.2-.6 0-.1-.1-.1-.2-.1h-1.7v2.3c0 .1 0 .2.1.3.1.1.5.1 1.1.1.4 0 .8 0 1.1-.1.2-.1.4-.2.5-.3.2-.2.4-.5.5-.9h.4v.4l.1.7-.1.6h-3.8c-.4 0-.8 0-1.4.1h-.8v-.3c.1 0 .2 0 .3-.1.3 0 .5-.1.7-.2 0-.1.1-.2.1-.4V44.6l-.1-.1h-.1c-.2 0-.3-.1-.5-.1h-.2v-.3zM26.6 44.5v-.4h2c.5.5.9.9 1.1 1.2.3.3 1.4 1.5 3.2 3.6v-3c0-.4-.1-.7-.1-.8 0-.2 0-.3-.1-.4-.1-.1-.2-.1-.4-.2-.2 0-.3-.1-.4-.1v-.3h2.2v.3c-.1 0-.1.1-.2.1-.2 0-.3.1-.3.1-.2.1-.2.2-.3.2v2.3l.1 1.8v2h-.5l-.5-.6-1.1-1.2-.8-.9-.5-.8c-.4-.4-.7-.8-1-1.1l-.7-.7V49c0 .3 0 .6.1.9v.2s0 .1.1.2c.1 0 .4.1.8.1h.1v.4h-.2c-.1 0-.4 0-.9-.1h-1.5v-.4h.4c.3 0 .4 0 .5-.1 0 0 .1-.2.1-.3V46c0-.4 0-.7-.1-.8 0-.1-.1-.1-.1-.2-.1-.1-.2-.2-.4-.3 0-.1-.2-.2-.6-.2M36 43.8h.3v.1c.1.2.2.3.2.3h4.6s.1-.1.1-.2c0 0 0-.1.1-.1H41.6v1.9c-.1 0-.2.1-.3.1-.1-.1-.2-.3-.3-.6l-.2-.4-.1-.1h-1.3v4.8c0 .2 0 .4.1.5 0 0 .1 0 .3.1 0 0 .1 0 .3.1.1 0 .2.1.2.1V50.7h-2.2c-.1 0-.4 0-.8.1H37v-.2c.1-.1.2-.2.4-.2.3-.1.5-.2.7-.2 0-.1.1-.1.1-.3V45h-1c-.3 0-.5 0-.6.1-.1.1-.3.3-.6.7-.1.1-.1.2-.2.2-.1-.1-.2-.1-.3-.2.1-.2.2-.7.4-1.3 0-.5.1-.6.1-.7"/><path d="M43.2 44.1h.5c.2 0 .5.1.8.1H47.9c.2 0 .5 0 .8.1.1.1.1.2.1.3v1.3h-.4c0-.1-.1-.2-.1-.3l-.2-.4c-.1-.2-.2-.3-.3-.5h-2.5V47h1.4c.2 0 .4-.1.4-.1.1 0 .1-.1.1-.2s.1-.3.2-.7h.4v2.5h-.3c0-.1 0-.2-.1-.3-.1-.3-.1-.5-.2-.6 0-.1-.1-.1-.2-.1h-1.7v2.3c0 .1 0 .2.1.3.1.1.5.1 1.1.1.4 0 .8 0 1.1-.1.2-.1.4-.2.5-.3.2-.2.4-.5.5-.9h.4V50.6h-3.8c-.4 0-.8 0-1.3.1h-.8v-.3c.1 0 .2 0 .3-.1.3 0 .5-.1.7-.2 0-.1.1-.2.1-.4V44.6l-.1-.1H44c-.2 0-.3-.1-.5-.1h-.2l-.1-.3zM53.1 47h.3c.5 0 .9-.1 1.1-.3.2-.2.3-.5.3-.8 0-.2 0-.4-.1-.6-.1-.2-.1-.3-.2-.4-.1-.1-.3-.2-.4-.3-.1-.1-.3-.1-.6-.1h-.4V47zM51 50.3c.1 0 .2-.1.4-.1s.3-.1.4-.1V44.7l-.3-.1c-.2 0-.4 0-.5-.1v-.4h2c.4 0 .7-.1 1.1-.1.6 0 1.1.2 1.5.5.4.4.6.8.6 1.2 0 .3-.1.6-.3.9-.2.3-.5.5-.9.6 0 .1.1.2.1.2.1.2.2.4.3.5l.7 1.3c.2.3.3.5.4.6.1.1.2.1.4.2.1.1.2.1.3.2V50.5h-2l-.2-.3c0-.2 0-.4-.1-.5-.1-.3-.4-.8-.7-1.6-.2-.3-.3-.5-.3-.6-.1-.1-.2-.1-.5-.1h-.3V49.7c.1.1.2.1.3.1.2.1.4.1.6.2v.4H53.7c-.7-.1-1-.1-1.2-.1H51v-.2.2M58.5 43.8h.3v.1c.1.2.2.3.2.3h4.6s.1-.1.1-.2c0 0 0-.1.1-.1H64.1v1.9c-.1 0-.2.1-.3.1-.1-.1-.2-.3-.3-.6l-.2-.4-.1-.1h-1.3v4.8c0 .2 0 .4.1.5 0 0 .1 0 .3.1 0 0 .1 0 .3.1.1 0 .2.1.2.1V50.7h-2.2c-.1 0-.4 0-.8.1h-.3v-.2c.1-.1.2-.2.4-.2.3-.1.5-.2.7-.2 0-.1.1-.1.1-.3V45h-1c-.3 0-.5 0-.6.1-.1.1-.3.3-.6.7-.1.1-.1.2-.2.2-.1-.1-.2-.1-.3-.2.1-.2.2-.7.4-1.3.1-.5.1-.6.1-.7"/><path d="M66.8 47.8H68.2c-.1-.3-.2-.6-.4-1-.1-.4-.3-.7-.4-.9l-.6 1.9zm-2.1 2.8v-.3c.1 0 .2 0 .3-.1.2-.1.4-.1.4-.1.1 0 .1-.1.2-.3l.9-2.7 1.1-3.1h.5v.1l.8 2.1c.2.4.3.9.5 1.3.1.4.3.8.4 1 .1.2.1.4.3.7.1.2.1.4.3.6.1.1.1.2.1.2.1.1.1.1.3.1.1 0 .3.1.4.1V50.5H68.3v-.3l.5-.1c.2 0 .2-.1.3-.1v-.2l-.2-.5-.4-1h-1.7c-.1.2-.2.6-.4 1.2-.1.2-.1.3-.1.4 0 .1 0 .1.1.2s.2.1.4.1c0 0 .1 0 .3.1v.4c-.2 0-.6 0-1.4-.1h-1zM72.4 50.6v-.4c.1 0 .2 0 .3-.1.2-.1.3-.1.4-.2.1-.1.1-.2.1-.4v-5c-.1-.1-.3-.1-.6-.1h-.2V44l1.3.1h1.6v.4c-.1 0-.3.1-.4.1-.2 0-.3.1-.4.1v5.4c.2 0 .4.1.5.1h.3v.5h-.4s-.2 0-.6-.1h-1.9M76.8 44.5v-.4h2c.5.5.9.9 1.1 1.2.3.3 1.4 1.5 3.2 3.6v-3c0-.4-.1-.7-.1-.8 0-.2 0-.3-.1-.4-.1-.1-.2-.1-.4-.2-.2 0-.3-.1-.4-.1v-.3h2.2v.3c-.1 0-.1.1-.2.1-.2 0-.3.1-.3.1-.2.1-.2.2-.3.2v2.3l.1 1.8v2h-.5l-.5-.6-1.1-1.2-.8-.9-.6-.6c-.4-.4-.7-.8-1-1.1l-.7-.7V49.2c0 .3 0 .6.1.9v.2s0 .1.1.2c.1 0 .4.1.8.1h.1v.4h-.2c-.1 0-.4 0-.9-.1h-1.5v-.4h.4c.3 0 .4 0 .5-.1 0 0 .1-.2.1-.3V46.2c0-.4 0-.7-.1-.8 0-.1-.1-.1-.1-.2-.1-.1-.2-.2-.4-.3 0-.3-.2-.4-.5-.4M85.9 50.6v-.3c.4-.1.6-.1.7-.3.1-.1.1-.3.2-.6l.1-1.8.1-1.8v-.2c0-.5 0-.7-.1-.8-.1-.1-.2-.1-.6-.2-.1 0-.2 0-.2-.1v-.4h.4l1.3.1H88.1c.1.1.1.2.2.3.1.2.3.6.4 1.1l.1.1.7 1.7s0 .1.1.2.1.2.1.3c0 .1.1.2.2.4.1.1.1.2.2.3 0-.1.1-.2.1-.3.1-.3.2-.6.4-.9.2-.5.5-1.2.8-2.1.1-.2.1-.4.3-.7.1-.3.2-.5.2-.5H94v.4c-.3 0-.5.1-.7.2-.1.1-.2.2-.2.3l.1 1.5c0 .1 0 .8.1 2.1 0 .3 0 .6.1 1.1V50s.3.1.8.3V50.6c-.1 0-.3 0-.6-.1-.3 0-.6-.1-.9-.1-.4 0-.9 0-1.3.1h-.2v-.3c.1-.1.3-.1.5-.1.1 0 .2-.1.3-.1 0-.1.1-.2.1-.5v-1.8l-.1-1.8v-.5l-1.1 2.9c0 .1-.1.2-.1.3-.1.2-.1.3-.1.3-.2.6-.4 1.1-.5 1.4 0 .1-.1.2-.1.3h-.4l-.2-.8c-.1-.2-.2-.5-.4-.9-.1-.2-.2-.4-.2-.6 0-.1 0-.1-.1-.1l-.1-.1V48l-.7-1.6-.4-1v3.9c0 .3 0 .4.1.5.1.1.3.2.6.3l.2.1v.4H85.9"/><path d="M95.5 44.1h.5c.2 0 .5.1.8.1H100.2c.2 0 .5 0 .8.1.1.1.1.2.1.3v1.3h-.4c0-.1-.1-.2-.1-.3l-.2-.4c-.1-.2-.2-.3-.3-.5h-2.5V47H99c.2 0 .4-.1.4-.1.1 0 .1-.1.1-.2s.1-.3.2-.7h.4v2.5h-.3c0-.1 0-.2-.1-.3-.1-.3-.1-.5-.2-.6 0-.1-.1-.1-.2-.1h-1.7v2.3c0 .1 0 .2.1.3.1.1.5.1 1.1.1.4 0 .8 0 1.1-.1.2-.1.4-.2.5-.3.2-.2.4-.5.5-.9h.4v.4l-.2 1-.1.6h-3.8c-.4 0-.8 0-1.3.1h.1-.6v-.3c.1 0 .2 0 .3-.1.3 0 .5-.1.7-.2V44.9l-.1-.1h-.1c-.2 0-.3-.1-.5-.1h-.2v-.6zM103 44.5v-.4h2c.5.5.9.9 1.1 1.2.3.3 1.4 1.5 3.2 3.6v-3c0-.4-.1-.7-.1-.8 0-.2 0-.3-.1-.4-.1-.1-.2-.1-.4-.2-.2 0-.3-.1-.4-.1v-.3h2.2v.3c-.1 0-.1.1-.2.1-.2 0-.3.1-.3.1-.2.1-.2.2-.3.2v2.3l.1 1.8v2h-.5l-.5-.6-1.1-1.2-.8-.9-.6-.6c-.4-.4-.7-.8-1-1.1l-.7-.7V49.2c0 .3 0 .6.1.9v.2s0 .1.1.2c.1 0 .4.1.8.1h.1v.4h-.2c-.1 0-.4 0-.9-.1h-1.5v-.4h.4c.3 0 .4 0 .5-.1 0 0 .1-.2.1-.3V46.2c0-.4 0-.7-.1-.8 0-.1-.1-.1-.1-.2-.1-.1-.2-.2-.4-.3 0-.3-.2-.4-.5-.4M112.4 43.8h.3v.1c.1.2.2.3.2.3h4.6s.1-.1.1-.2v-.1H117.9v1.9c-.1 0-.2.1-.3.1-.1-.1-.2-.3-.3-.6l-.2-.4-.1-.1h-1.3v4.8c0 .2 0 .4.1.5 0 0 .1 0 .3.1 0 0 .1 0 .3.1.1 0 .2.1.2.1V50.7h-2.2c-.1 0-.4 0-.8.1h-.3v-.2c.1-.1.2-.2.4-.2.3-.1.5-.2.7-.2 0-.1.1-.1.1-.3V45h-1c-.3 0-.5 0-.6.1-.1.1-.3.3-.6.7-.1.1-.1.2-.2.2-.1-.1-.2-.1-.3-.2.1-.2.2-.7.4-1.3.1-.5.2-.6.2-.7"/><path d="M19.1 24.6h99v.5h-99zM19.1 42.5h99v.5h-99zM35.5 46.6l-.9-1.4s1.3-1.1 2.4-2.5c1.1-1.4 2-3.4 2-3.4l-2.8.6v-1.6s-1.2.2-2 0-1.6-1.6-1.6-1.6l3.9-.7s-.9-.6-1.9-1.4c-1-.8-.9-2.4-.9-2.4L35 32s-1.6-.9-.7-6.1l4.4 4.9.4-4.9 2.4 2.6 1.6-4.9 1.1 1.1 2-2.9.8 3.2h1l-1 3.8 2.5.4-1.4 2 5.5-.4-1.9 2.2 1.1.2-2.3 1 1.2 1.1-2.7.5 1.2 2.2s-1.7.4-2.9.5c-1.1.1-2.3-.2-2.3-.2l1.4 3.6s-2.3.4-4.2-.3c-1.9-.7-2.5-1.7-2.5-1.7s.1.2-1.3 2.3c-1.3 2-2.9 4.4-2.9 4.4M114.7 39.6c.1 0 .1 0 0 0 .1.1.1.1.2.1H116.3v-.1h.1v.6h-.1s-.1-.1-.1-.2 0-.1-.1-.1h-.4v1.6H116v.1h-.9s.1 0 .1-.1c.1 0 .2 0 .2-.1V39.8h-.5l-.2.2s-.1 0-.1-.1.1-.2.1-.4v.1M116.5 41.5v-.1c.1 0 .2 0 .2-.1v-1.5s-.1 0-.2-.1h-.1v-.1h.6v.1c0 .1.1.2.1.3l.2.5v.4-.1c0-.1.1-.2.1-.2.1-.1.1-.3.2-.6 0 0 0-.1.1-.2 0-.1.1-.1.1-.1h.5c-.1 0-.2 0-.2.1 0 0-.1 0-.1.1V41.3s.1 0 .2.1v.1h-.9v-.1h.2V40l-.3.8v.2c-.1.2-.1.3-.1.4v.1h-.1l-.1-.2c0-.1-.1-.1-.1-.3 0-.1-.1-.1-.1-.2l-.2-.5-.1-.3v1.4s.1.1.2.1h.1v.1h-.4c.4-.1.3-.1.2-.1"/></svg>