<svg xmlns="http://www.w3.org/2000/svg" xmlns:xlink="http://www.w3.org/1999/xlink" viewBox="0 0 109.9 56.4" enable-background="new 0 0 109.9 56.4"><defs><path id="a" d="M-331.8 247h126.1v25.1h-126.1z"/></defs><clipPath id="b"><use xlink:href="#a" overflow="visible"/></clipPath><path clip-path="url(#b)" fill="none" stroke="#000" stroke-width=".165" d="M-419.3-187.8h627.9v485.6h-627.9z"/><path clip-path="url(#b)" fill="none" stroke="#fff" stroke-width=".658" d="M-442.6-198h674.7v506h-674.7z"/><path clip-path="url(#b)" fill="#fff" d="M104.1 1.9h-36c-.9 1.7-21.3 37.1-7.9 72 .8 1.8 1.6 3.7 2.5 5.5 0 0 31.7-15.6 40.1-67.4 1-5.9 1.3-10.1 1.3-10.1"/><path clip-path="url(#b)" fill="none" stroke="#fff" stroke-width="5.752" d="M104.1 1.9h-36c-.9 1.7-21.3 37.1-7.9 72 .8 1.8 1.6 3.7 2.5 5.5 0 0 31.7-15.6 40.1-67.4 1-5.9 1.3-10.1 1.3-10.1z"/><path clip-path="url(#b)" fill="#006BB6" d="M88.5 4.6h3.1c2 0 3.6.9 3.4 2-.2.8-.9 1.5-1.9 1.9.8.3 1.6.8 1.3 1.9-.3 1.3-2.7 2.2-4.9 2.2h-2.9l1.9-8zm3 5.6c.2-.7-.4-.9-1-.9h-.2l-.5 1.9h.2c.6-.1 1.4-.4 1.5-1m.7-3.2c.2-.7-.6-.8-.9-.8H91l-.4 1.7h.2c.4-.1 1.2-.3 1.4-.9"/><path clip-path="url(#b)" fill="#006BB6" d="M76 4.6l-.5 1.2C74.9 7.5 74 9.2 74 9.2s-.2-2.3.1-4.6h-2.8c-.8 2.3-2.2 4.6-2.2 4.6s0-1.7.2-3.4l.2-1.2h-2.9c-.6 3.3.4 7.9.4 7.9h2.4c.8-1.4 1.9-3.5 2.3-4.3v.3c0 .7.1 2.6.2 4h2.4s3.3-4.6 4.4-7.9H76zM94.1 12.6h3c.2-.6.4-1.2.7-1.7h2.2c0 .5 0 1.1-.1 1.7h2.9l.1-1.2c.1-3.7-1.4-6.7-1.4-6.7h-2.1c-4.5 4.8-5.3 7.9-5.3 7.9m4.4-3.2c.5-1 1-1.7 1.1-1.9l.1-.1c.1.4.2 1.1.2 2h-1.4z"/><path clip-path="url(#b)" fill="#ED174C" d="M86.2 13.7c.1.1.3.1.4.2.5.4 1.3 1.1 1.3 1.5 0 .2-.2.3-.3.4v1.1c0 .4-.3.8-.3.8s.3.6.2 1c-.1.2-.5 1.6-.9 2.4-.1.3-.3 1-1.1.8l-.6-.2c-.1.2-.2.6-.2.6s-.1.4.4.7c.1.1.6.3.6.3l.1-.2 1.2.4v.2s.7.2 1 .4c.8.4 1.5 1.2 1.8 1.9.4.9.5 2 .5 2.5 0 0 2.1 1.8 2.1 8.6 0 .7-4.8 2.3-5.6 2.3.3 3.2-1.7 7.7-2.9 9.7-.9 1.6-1.9 3-2.9 4.4v.1c-2.1 3.1-4.3 5.9-5.1 6.4-.3.3-.5.3-.7.5-.5.8-1.3 1.5-1.7 1.9-.3.3-4.2 3.4-7 5.4 0 .1.1.3 0 .3-.3.2-.8.6-1 .8-.2.2-.1.4-.3.5-1.1.9-1.6.9-1.7 1.2-.2 1.2.6 2.3.7 3.2 0 .7-.5 1.1-.6 1.1 0 0-1.4.1-2 .1-.4 0-.7-.2-1-.4.7 1.6 1.4 3.2 2.2 4.8 0 0 31-15.2 39.8-65.7H86.2zM87.6 30.2c-.4 2.5-.3 2.6-1.1 4.9l.3 2.1 2.7-1.7v-.3c-.8-.8-1.7-3.7-1.6-4.9l-.3-.1z"/><path clip-path="url(#b)" fill="#006BB6" d="M62.8 13.7h-.2C57.4 27.2 51.4 50.3 60 73.3c.1-.5.2-1.2.2-1.8.2-.7-.2-1.8 0-2 1.8-2.6 3.1-2.5 3.2-2.6.3-.2.8-.7 1.1-1 .1-.1.2-.1.3 0 .9-.9 1.9-2 2.6-2.8 1-1.3 1.2-2.4 2.1-3.1 1.1-.9 1.4-.9 3.2-1.5 0-.4.6-2.2 1.6-3.7.6-1 2.9-5.7 2.9-5.8 0 0-.2-.1-.3-.1-.1 0-5.6 7.7-6.4 8.5-.3.3-.6.5-1.3.8 0 0-.2.7-.9 1-.4.2-.9.3-1.3.3l-.7.5c-.1.2-.6 1.2-.8 1.5-.1.3-.4.7-.6.9-.2.2-.7.7-1.4.9-.7.1-1.2-.2-1.4-.7-.2-.6-.3-1.5.4-2.6.4-.7 1.7-1.4 2.2-1.9 0 0 .2-.6.2-.8.1-.2.3-1.2.8-1.6.6-.5 1-.5 1.4-.5 0 0-.1-.4.1-1.2.4-1.7 2-4.7 2.3-5.8-.3-.1-.4-.2-.4-.2.6-1.3 1.8-3.9 2.6-5.1C74.8 37.5 78 36 78 36s-.1-.3-.1-1c-.1-.4-.3-2.6-.3-2.6s-.8-.2-1.1-1.3c-.3-.9 0-2.5 0-2.5.1-.7 0-1.2 0-1.2l-.7-.1c-1.1.9-6.3 2.7-6.3 2.7-1.2 1.2-4.2 2.5-5.5 3.4 1.4.7 2.3 2 2.5 3.6v.5c0 1.5-.8 3-2 3.8-.8.5-1.7.8-2.7.8-2.6 0-4.6-2.1-4.6-4.6 0-2.3 1.7-4.2 3.9-4.6.3-.1.6-.2.7-.2.3-.1.7-.8 1.2-1.2 1.5-1.3 3-4 5.9-4 .1 0 3.9-2.4 3.9-2.4 1.1-1.2 1.7-1.5 2.6-1.7.9-.3 2.5-.4 2.5-.4v-.1l1.3-.1v.2l1.8-.4c.1-.2.3-1 .5-1.5.5-1.4-1.7-2-2.4-3.2 0 0 .6.2.6.1-.3-.4-.7-.9-.7-.9 1.4.5 2.4-1.9 4-2.9.2-.1.3-.2.5-.3H62.8z"/><path clip-path="url(#b)" fill="#ED174C" d="M67.2 3.5h36.7c.1-1 .1-1.6.1-1.6H68c0 .1-.3.7-.8 1.6"/><path clip-path="url(#b)" fill="#006BB6" d="M84.9 4.6L84 8.4v.2l-2-4h-2.4l-2 7.9h2.6l1-4 2 4h2.3l1.9-7.9h-2.5z"/><path clip-path="url(#b)" fill="#fff" d="M-3.7-7.9l-23-.1c-3.9 0-7 3.1-7 7v69.2c0 3.9 3.2 7 7 7l23 .1c3.9 0 7-3.1 7-7V-.9c0-3.9-3.2-7-7-7"/><path clip-path="url(#b)" fill="#ED174C" d="M.5 31.9V-.7C.5-3-1.4-4.9-3.7-5h-7.8c.6.6 1.3.8 1.8 1.5.9 1.4.1 2.9-.4 4.2l.2.1c.1.9-.4 1.8-1.2 2.3-.3 1.1-1.5 1.8-1.6 3.1.7.6 1.7.9 2.3 1.8 1.6.8 2.9 2.2 3.7 3.7.6 2.2.8 4.2 1 6.5-.1 1.5.4 2.8.7 4 1.2 1.9 1.8 4.2 2.1 6.4 0 1 1.2.5 1.5 1.3.9.2 1.2 1.2 1.6 1.8l.3.2zM.4 37.2c-.9 1.9-2.9 3.2-5.1 3.2-3.2 0-5.7-2.6-5.7-5.7 0-2.1 1.2-4 2.9-5l.4-.3c.4-.2 1-.2 1.2-.6-2.1-3.5-3.2-7.5-3.9-11.5-.1-.3 0-.7-.2-1-.1 0-.2-.1-.4.1-.8.2-1.5.7-2.1 1.3-.8 1.7-1.3 3.5-2 5.3.2.5.8.5 1 1 .7 2.1 1.6 4.2 2.1 6.4 0 .5.1.8-.2 1.2-.5.2 0 .6 0 .9.6 1.7.8 3.3 1.2 5.2-.1.6.2 1.2.3 1.8.1 1.4.4 2.6.9 3.8 2.4 3.1 2.5 7.4 3.3 10.9.8 1.3 1.8 2.7 1.4 4.3 0 .7-.3 1.3-.4 1.9.2 1.3.3 2.5.7 3.7.1.3-.1.6.1.8.1 1.2.5 2.3.9 3.3.4 1.5-.1 3.1-1.1 4.1v.1h.7c2.3 0 4.2-1.9 4.2-4.2l-.2-31z"/><defs><path id="c" d="M-331.8 247h126.1v25.1h-126.1z"/></defs><clipPath><use xlink:href="#c" overflow="visible"/></clipPath><defs><path id="d" d="M-331.8 247h126.1v25.1h-126.1z"/></defs><clipPath><use xlink:href="#d" overflow="visible"/></clipPath><defs><path id="e" d="M-331.8 247h126.1v25.1h-126.1z"/></defs><clipPath><use xlink:href="#e" overflow="visible"/></clipPath><defs><path id="f" d="M-331.8 247h126.1v25.1h-126.1z"/></defs><clipPath><use xlink:href="#f" overflow="visible"/></clipPath><defs><path id="g" d="M-331.8 247h126.1v25.1h-126.1z"/></defs><clipPath><use xlink:href="#g" overflow="visible"/></clipPath><defs><path id="h" d="M-331.8 247h126.1v25.1h-126.1z"/></defs><clipPath><use xlink:href="#h" overflow="visible"/></clipPath><defs><path id="i" d="M-331.8 247h126.1v25.1h-126.1z"/></defs><clipPath><use xlink:href="#i" overflow="visible"/></clipPath><defs><path id="j" d="M-331.8 247h126.1v25.1h-126.1z"/></defs><clipPath><use xlink:href="#j" overflow="visible"/></clipPath><defs><path id="k" d="M-331.8 247h126.1v25.1h-126.1z"/></defs><clipPath><use xlink:href="#k" overflow="visible"/></clipPath><defs><path id="l" d="M-331.8 247h126.1v25.1h-126.1z"/></defs><clipPath><use xlink:href="#l" overflow="visible"/></clipPath><defs><path id="m" d="M-331.8 247h126.1v25.1h-126.1z"/></defs><clipPath><use xlink:href="#m" overflow="visible"/></clipPath><defs><path id="n" d="M-331.8 247h126.1v25.1h-126.1z"/></defs><clipPath><use xlink:href="#n" overflow="visible"/></clipPath><defs><path id="o" d="M-331.8 247h126.1v25.1h-126.1z"/></defs><clipPath><use xlink:href="#o" overflow="visible"/></clipPath><defs><path id="p" d="M-331.8 247h126.1v25.1h-126.1z"/></defs><clipPath><use xlink:href="#p" overflow="visible"/></clipPath><defs><path id="q" d="M-331.8 247h126.1v25.1h-126.1z"/></defs><clipPath><use xlink:href="#q" overflow="visible"/></clipPath><defs><path id="r" d="M-331.8 247h126.1v25.1h-126.1z"/></defs><clipPath><use xlink:href="#r" overflow="visible"/></clipPath><defs><path id="s" d="M-331.8 247h126.1v25.1h-126.1z"/></defs><clipPath><use xlink:href="#s" overflow="visible"/></clipPath><defs><path id="t" d="M-331.8 247h126.1v25.1h-126.1z"/></defs><clipPath><use xlink:href="#t" overflow="visible"/></clipPath><defs><path id="u" d="M-331.8 247h126.1v25.1h-126.1z"/></defs><clipPath><use xlink:href="#u" overflow="visible"/></clipPath><defs><path id="v" d="M-331.8 247h126.1v25.1h-126.1z"/></defs><clipPath><use xlink:href="#v" overflow="visible"/></clipPath><defs><path id="w" d="M-331.8 247h126.1v25.1h-126.1z"/></defs><clipPath><use xlink:href="#w" overflow="visible"/></clipPath><defs><path id="x" d="M-331.8 247h126.1v25.1h-126.1z"/></defs><clipPath><use xlink:href="#x" overflow="visible"/></clipPath><defs><path id="y" d="M-331.8 247h126.1v25.1h-126.1z"/></defs><clipPath><use xlink:href="#y" overflow="visible"/></clipPath><defs><path id="z" d="M-331.8 247h126.1v25.1h-126.1z"/></defs><clipPath><use xlink:href="#z" overflow="visible"/></clipPath><defs><path id="A" d="M-331.8 247h126.1v25.1h-126.1z"/></defs><clipPath><use xlink:href="#A" overflow="visible"/></clipPath><defs><path id="B" d="M-331.8 247h126.1v25.1h-126.1z"/></defs><clipPath><use xlink:href="#B" overflow="visible"/></clipPath><defs><path id="C" d="M-331.8 247h126.1v25.1h-126.1z"/></defs><clipPath><use xlink:href="#C" overflow="visible"/></clipPath><defs><path id="D" d="M-331.8 247h126.1v25.1h-126.1z"/></defs><clipPath><use xlink:href="#D" overflow="visible"/></clipPath><defs><path id="E" d="M-331.8 247h126.1v25.1h-126.1z"/></defs><clipPath><use xlink:href="#E" overflow="visible"/></clipPath><defs><path id="F" d="M-331.8 247h126.1v25.1h-126.1z"/></defs><clipPath><use xlink:href="#F" overflow="visible"/></clipPath><defs><path id="G" d="M-331.8 247h126.1v25.1h-126.1z"/></defs><clipPath><use xlink:href="#G" overflow="visible"/></clipPath><g fill="#EF4135"><path d="M68.6 17.1H37.2c-3.2 0-5.3 1.7-5.7 4.2l-.2 1.8h41.9s.1-.6.1-1.1c.3-2.6-.8-4.9-4.7-4.9"/><path d="M72.9 25.4s-.1.8-.2 1.8c-.2 1.8-1.6 3.2-4.1 3.2h-8.9l-1 8.1h-7.1l1.6-13.1h19.7zM11.6 17.1h19l-.8 6h-19zM10.6 25.4h18.9l-.6 4.9H17l-.3 2.5h11.9l-.7 5.6h-19zM75.3 17.1h15.5c2.4 0 5 1.1 4.5 5.1-.1.7-.1.9-.1.9H74.6l.7-6zM74.3 25.4h7.1l-1.6 13h-7.1zM87.8 25.4h7.1l-1.6 13h-7.1zM46.6 25.4H31c-.5 3.4 1.2 5 3.6 5h9.6l-.3 2.4H30.1l-.7 5.7h15.7c.5 0 4-.1 5.2-3 .4-.9.7-4.3.8-5 .5-4.2-2.3-5.1-4.5-5.1"/></g></svg>