<svg xmlns="http://www.w3.org/2000/svg" xmlns:xlink="http://www.w3.org/1999/xlink" viewBox="0 0 300 200" enable-background="new 0 0 300 200"><defs><path id="a" d="M97.6 47.3l-2.9 1.6C67.3 64 54 80.4 54 99.1c0 18.7 13.3 35.1 40.7 50.2l2.9 1.6c19.1 10.5 40.5 22.2 51.9 40.6 11.4-18.4 32.9-30.1 51.9-40.6l2.9-1.6c27.4-15.1 40.7-31.5 40.7-50.2 0-18.7-13.3-35.1-40.7-50.2l-2.9-1.6c-19.1-10.5-40.5-22.2-51.9-40.6-11.5 18.5-32.9 30.2-51.9 40.6"/></defs><clipPath id="b"><use xlink:href="#a" overflow="visible"/></clipPath><radialGradient id="c" cx="-146.244" cy="519.684" r=".993" gradientTransform="matrix(95.495 0 0 -95.656 14110.119 49826.684)" gradientUnits="userSpaceOnUse"><stop offset="0" stop-color="#fff"/><stop offset=".192" stop-color="#F7F0E5"/><stop offset=".601" stop-color="#E3CBA2"/><stop offset=".939" stop-color="#D1AA67"/><stop offset="1" stop-color="#D1AA67"/></radialGradient><path clip-path="url(#b)" fill="url(#c)" d="M54 6.8h191v184.7H54z"/><defs><path id="d" d="M98.6 150.6l-2.9-1.6c-27.1-14.9-40.2-31.1-40.2-49.6s13.2-34.7 40.2-49.6l2.8-1.6c5.4-3 16.1-9.8 15.8-9.9C127.9 30 141 20.4 149 7.5c11.3 18.2 32.5 29.8 51.3 40.1l2.9 1.6c27.1 14.9 40.3 31.1 40.3 49.6s-13.2 34.7-40.3 49.6l-2.8 1.6c-5.5 3-16.1 9.8-15.8 9.9-13.6 8.2-26.6 17.8-34.7 30.7-11.3-18.1-32.5-29.7-51.3-40M93.2 46.5C66.7 61.1 51.3 77.9 51.3 98.9c0 20.9 15.4 37.8 41.9 52.3 5.9 3.2 12.1 6.6 18.1 10.2 15.8 9.3 31 20.3 38.5 35.9 10.3-21.3 34.7-33.9 55.8-45.5 26.5-14.6 41.9-31.4 41.9-52.3s-15.4-37.8-41.9-52.3c-5.9-3.2-12.1-6.6-18.1-10.2-15.8-9.3-31-20.3-38.5-35.9-10.3 21.2-34.7 33.9-55.8 45.4"/></defs><clipPath id="e"><use xlink:href="#d" overflow="visible"/></clipPath><linearGradient id="f" gradientUnits="userSpaceOnUse" x1="-147.026" y1="520" x2="-146.183" y2="520" gradientTransform="matrix(232.579 0 0 -232.579 34248.52 121040.359)"><stop offset="0" stop-color="#EDD088"/><stop offset=".116" stop-color="#fff"/><stop offset=".204" stop-color="#F8EEDB"/><stop offset=".306" stop-color="#F1DEB8"/><stop offset=".41" stop-color="#EBD29D"/><stop offset=".515" stop-color="#E7C989"/><stop offset=".622" stop-color="#E5C47E"/><stop offset=".733" stop-color="#E4C27A"/><stop offset=".87" stop-color="#fff"/><stop offset="1" stop-color="#C88426"/></linearGradient><path clip-path="url(#e)" fill="url(#f)" d="M51.3 1h196.2v196.2H51.3z"/><g fill="#512C1D"><path d="M151.5 69.8c-.9-2.7-6.5-3.7-6-8.7.7 4.8 5.6 5.4 6 8.7m-10.3-1.6c.9-1 1.4-1.7 1.7-2 .2-.3.3-.8-.2-1.1-.4-.3-1.9-.6-1.8.3.1 1.1-.5 2-.5 2.6-.1.5.3.8.8.2m.4-5.9c-.9.3-2.9.1-4.5 1.5-1 .9-2 3.6-2.6 5.4-.7 2.4-1.3 6.3-1.9 9.4-.4-4.2.4-7.4.9-9.2.5-2 1.6-5.4 3-6.5 1.4-1.1 3.1-1 4.8-1.5 1.3-.3 2.9-.7 3.8-1.1 1.1-.5 1.4-1 1.7-2.2.2-.7.4-2.2.2-3.3-.2-.3-.9-.9-1-1.3-.1.5-.4 1.5-.5 1.8-.2-.4-.5-1.4-.8-2.2.1-.2.3-.5.4-.8v-.8c-.4-.2-.5-.5-.6-1.1-.1-.6-.3-1.5-.3-1.9.3.7.5 1.4.6 1.7.1.6.4.8 1 .8.2 1.6 1.1 2.4 2 3.6 0 .3.3 4.1-1.1 5.5-.7.8-2.5 1.4-5.1 2.2m4-9.2l-.5.1.4 1.3.1-1.4zm3.9 16c-.1 0-.1 0-.2-.1.2.4.6.8 1.5.2-.6-1.4-3.2-2.5-3.8-3.7-.1.4.1 1.3 1.1 1.8 0-.1.1-.2.2-.2.2 0 .3.2.3.4s-.2.4-.3.4c-.1 0-.2-.1-.2-.1.1.4.3.8 1.1.5.1-.1.2-.2.3-.2.2 0 .4.2.4.5s-.1.5-.4.5m1.3-32.1c-.1.2-.3.5-.5.6-.1.1-.2.1-.3.2h1.5c-.1-.1-.2-.1-.2-.2-.2-.1-.5-.4-.5-.6m3.8 30.2c.2.8-.3 1.4-.9 1.1-.1-.2-.2-.3-.4-.3s-.4.2-.4.5.2.5.4.5c.1 0 .2-.1.3-.2-.1.6-1.1.9-1.3.5.8-1.9 1.9-1.9 3.4-4.2-.1 1-.6 1.7-1.1 2.1m-.2.4c0-.2-.1-.4-.3-.4-.2 0-.3.2-.3.4s.1.4.3.4c.2 0 .3-.2.3-.4m9.8 7.2c-1.3 2.4-1.3 3.4-2 4.7.2-1.5-.1-3.2-.5-4.8-.2-.8-.9-3.6-1.3-7.1.2 3.9-1.7 8.5-5.4 9.2 1.5-.8 3.8-3.2 3.9-8.2-2.4 8.4-12 6.2-16.1 9.4 1.7-4.2 9.2-2.2 13.3-7-5.3 3.1-11.8.5-14.9 2.5-.7.5-1.6 1.5-2.1 3.5 0-2 .6-2.6.6-3.2.1-1.3.5-2.7.8-3.1.6-.7.1.6.6 1 3.1-.9 6.7.2 9.4-.1.1.4.3.6.6.7-.5-.8-.1-1.9.3-2.3 0 1 .5 1.6.6 1.6.2 0 .4-1-.3-1.7.6-.1.8.8.9 1.4.1 0 .1 0 .3-.1 2-.6 3.6-2 4-4.9.1-.8-.2-2-.7-2.4-.2-.1-.3-.2-.3-.4-.9 2.8-3.5 3.7-4.2 6.1.1-2.9 3.2-4.1 4.3-7-.7-1-1.5-1.2-1.8-4.4-.1-1.1-.1-3.7-.1-3.7s-3.3 2.7-5.3.3c.5.4 1.1.5 1.6.5 1.1 0 2.8-.7 4-2.5.5-.7.8-2.7.8-3 0-.3-.4.1-.6.3.2-.9.9-1.1.9-4 0-.4-.1-.8-.3-1.4-.5-1.4-.3-2.5-1.3-3.3-.4-.3-.8-.6-1.3-.8.3-.4.5-1.3-.3-1.7.5.6.1 1.2-.2 1.4.2-.4.1-1.5-1-1.5.7.3.6 1.1.5 1.4-.3-.1-.7-.1-1.1-.1-.4 0-.7 0-1 .1.1-.2.2-.6-.4-.7.3.2.2.6 0 .8-2.2.5-2.9 1.9-3.2 2.9-.2.7-.2 1.9-.3 2.8.3.1.7-.4 1.1-.4 1.6-.2 1.9.6 2.2 1 0 .1.1.3-.2.2 0-.2-.1-.1-.3-.2-.1-.1-.3-.2-.4-.3.1.3 0 .5-.1.6h-.8c-.1-.1-.2-.4 0-.7-.4.1-.7.4-.8.6-.3 0-.6-.1-.7-.4.1.1.3.1.5 0-.2 0-.4-.1-.5-.3 0 .2-.1.4-.1.5-.2 1-.1 2.2.2 2.9-.7-.4-.4-1.9-1-2.4-.2-1-.1-1.1-.2-1.9 0-.8.2-1.1.7-1.7-.6.2-1 .9-1 1.3-.2-1.2.4-1.8 1.1-2.4-.5.1-1.1.5-1.2.8.1-.7.5-1.4 1.4-1.8-.9 0-1.3.7-1.5 1 .1-1 .5-2.4 1.3-3-.7-.7-.8-2.4-.1-3.8-.1.5 0 1.1.5 1.6-.3-1.3-.3-2.2.9-3-.4.5-.6 1.6.1 2.1-.2-1.4.1-2.4 1.4-2.9-.5.5-.8 1.1-.3 2.1-.4-2.4 2.2-2.7 3.2-2.8 1-.1 1.9.1 2.7.3 4.6 1.2 5.9 5.2 4.3 8.2.5 1.2.6 2.6.1 3.8-.1.6 0 1.5-.3 2.2.3.2.7.6.5 1.1-.4.9-.7 2.4-1.1 2.5 0 .3-.1.8-.1 1.1.1.4.3 1 .3 1l-.6 2c-.2-.6-.5-1.4-.6-1.9 0-.2.1-.5.1-.5s-.5.5-.6.7c-.2.3-.4.6-.5 1.1-.1.8-.4 2.2.3 5.4.5 2.2 2.9 3.4 4.2 4.2 1.2.7 1.8 2 2.2 4.1.1.7 1.1 1 1.7.5.6-.5.7-1.4.4-1.9-.6-.9-1.4-1.2-2.2-1.7 1.5.5 3.7 1 3.9 4 .1 2.4-.7 4.4-1.5 5.9m-16.7-28.3c0 .1.1.1.2.1s.2-.1.2-.1c0-.1-.1-.1-.2-.1s-.2.1-.2.1m8.8 6.6l.3 1.1.1-1.2-.4.1zm-.1-12.4c0-.5-.1-.6-.2-.8-.1-.7-.1-1.3-.3-1.8-.2-.4-1-.4-1.1.2-.4-.3-.2-1.1-.8-1.4-.3-.2-.8-.1-1 .1.1-.3 0-.6-.2-.8-.3-.2-.7-.3-1-.2 0-.9-.5-.9-.7-.9-.2 0-.7.1-.7.9-.4-.1-.8-.1-1.1.1-.2.2-.4.5-.2.8-.2-.2-.6-.2-.9-.1-.6.3-.5 1.1-.9 1.4-.1-.5-.8-.5-1.1-.1-.3.5-.1 1.2-.2 2-.1.1-.2.4-.1.5 1-1.5 2.4-2.3 4.4-2.4 2.6-.3 5.1.6 6.1 2.5m-5.4-4c0-.1.1-.5.4-.6-.1-.6-.7-.4-.7.1.1 0 .2.2.3.5m-1-.5c-.4-.1-.8.2-.7.6 0 .2.4.3.5.2-.1 0-.2-.1-.2-.2s.1-.2.2-.2c.2 0 .3.3.2.5-.1.2-.3.5-.9.7 1.4-.2 1.6-1.4.9-1.6m1.9.9c-.1-.2 0-.5.2-.5.1 0 .2.1.2.2s-.1.2-.2.2c.2.1.5 0 .5-.2.1-.4-.3-.6-.7-.6-.7.1-.5 1.4.9 1.6-.6-.2-.8-.5-.9-.7m-3.7 0c-.3.1-.3.8-.7 1.3.4-.2 1.2-.5 1.3-1-.1-.2-.3-.4-.6-.3m-1.8 1.4c-.2.3-.1.5-.1.9.3-.2.6-.5.6-.9-.2-.1-.4-.3-.5 0m7.4-1.4c-.3-.1-.5.1-.5.3.1.5.8.8 1.3 1-.5-.5-.5-1.2-.8-1.3m1.8 1.4c-.2-.3-.4-.1-.4 0 0 .4.3.7.5.9-.1-.4.1-.6-.1-.9m-2.3 6c-1 .3-1.4.4-1.8.8-.1.1-.2.1-.2.2s.2.5.6.2h.1c.3-.3.7-.5 1.1-.6.1 0 .2-.1.3-.1.6-.1 1.3 0 1.8.3-.5-.7-1.4-.9-1.9-.8m1.3 2.2c.2.1.5.1.6.1-.4.3-1.1.3-1.1.3s-.1-.4-.6-.5h-.1c.2.2.2.4 0 .6-.3.1-.6.1-.9.1-.2-.1-.2-.4-.1-.6h-.1c-.2.1-.4.2-.5.3-.1 0-.1.1-.2.2-.3.2-.3-.4-.3-.4 0-.3.1-.4.2-.3 0 0 .1 0 .1.1l.3-.3.6-.3h.2c.2 0 .4-.1.7-.1.2 0 .4.1.5.1.2 0 .3.1.4.2.1.1.2.1.4.1h.4c0 .2-.4.4-.5.4m-1.3-.2c0-.1-.1-.1-.2-.1s-.2.1-.2.1c0 .1.1.1.2.1.2 0 .2 0 .2-.1m-4.5-1.5c-.7-.3-1.2-.6-1.7-.5-.2.1-.7.3-1 .9 1.2-.9 1.9-.1 2.7.1.5.2.5-.3 0-.5m2.2 4.2c-.2.1-.4.3-1 0-.3-.1-.5 0-.5.3 0 .1.4.1.7.4.4.4.8-.1 1.2-.2.1 0-.1-.6-.4-.5m-2.5 2.4c-.1.3.2.4.5.4.2 0 .4-.3.9-.3h.6c.3 0 .4-.1.6 0 .4.1.2.4 0 .5-.2.1-.7.1-1 .2-.2.1-.4.3.7.4.9 0 1.1-.6 1.7-.9.3-.1.4-.3.3-.4-.6.2-.8-.3-1.9-.5-.3.1-.5.1-.8 0-1 .2-1 .7-1.6.6"/><path d="M155.8 80.7v34.5h-5.7V86.5c0-2 1.4-5.8 5.7-5.8m-9.8 0v34.5h-5.7V90.5L130 106.8h-.2l-10.2-16.2v24.6H114V80.7h.2c1 0 6.4.5 10.7 7.9L130 97l5.1-8.4c4.3-7.4 9.7-7.9 10.7-7.9h.2zm-47.1-.1c-1.3 0-5.6 1-9.7 10.7l-9.9 24h5.9l3.3-8.3h4.8c5.4 0 7.5-5.4 7.5-5.4H90.7l1.6-4.1 1.7-4.1c1-2.2 1.9-3.5 2.8-4.3l5.1 12.5 2.1 5.4 3.2 8.3h6.1L98.9 80.6zm106.4 0c-1.3 0-5.6 1-9.7 10.7l-9.9 24h5.9l3.2-8.3h4.8c5.4 0 7.5-5.4 7.5-5.4H197l1.6-4.1 1.7-4.1c1-2.2 1.9-3.5 2.8-4.3l5.1 12.5 2.1 5.4 3.2 8.3h6.1l-14.3-34.7zm-29 21.6c4.6-1.4 7.7-4.8 7.7-10.5v-.1c0-3-1-5.6-2.7-7.5-2.1-2.2-5.3-3.5-9.4-3.5-3.2 0-5.9.3-7.9.6-2.4.8-3.5 3-3.8 4.7v29.3h5.7V86.8c1.6-.6 5.5-.5 5.5-.5 4.2 0 6.7 2 6.7 5.7v.1c0 3.5-3.8 5.8-7.9 5.8h-3L176 112c1.9 2.8 5.5 3.2 7.4 3.3h1.5l-8.6-13.1zM106.7 125.1h-.9v-4.5c0-.2.1-.4.2-.6.2-.2.4-.3.6-.3h2v.1c0 .2-.1.4-.3.6-.2.2-.4.2-.7.2h-1v1.5h1.7v.1c0 .2-.1.4-.3.6-.2.2-.4.2-.7.2h-.7v2.1zM113.2 125.1h-1l-1.6-4c-.1 0-.2.2-.4.6l-.5 1.3h1.5c0 .3-.1.5-.3.7-.2.1-.4.2-.7.2h-.9l-.5 1.3h-1l1.5-3.8c.3-.7.6-1.1.9-1.4.2-.2.4-.3.6-.3l2.4 5.4zM118.7 119.7v5.4h-.9v-3.9l-1.6 2.6-1.6-2.6v3.9h-.9v-5.4c.2 0 .4.1.6.2.4.2.7.6 1 1.1l.8 1.3.8-1.3c.3-.5.6-.8 1-1.1.4-.2.6-.2.8-.2zM120.4 120.6v4.4h-.9v-4.4c0-.3.1-.5.2-.7.2-.2.3-.3.6-.3h.1v1zM124.1 124.2v.9h-2.9v-4.5c0-.2.1-.4.2-.6.2-.2.4-.4.7-.4v4.5h2zM126.1 120.3c.1-.2.3-.4.6-.5.2-.1.4-.2.5-.2h.2l-1.8 3.5v1.9h-.9v-1.9l-1.8-3.5h.2c.2 0 .3.1.5.2s.4.3.6.5l.9 1.8 1-1.8zM132.4 125.2c-.8 0-1.4-.3-1.9-.8s-.8-1.2-.8-2 .3-1.4.8-2c.5-.5 1.2-.8 1.9-.8.8 0 1.4.3 1.9.8s.8 1.2.8 2-.3 1.4-.8 2c-.5.5-1.2.8-1.9.8zm0-4.7c-.5 0-.9.2-1.3.6-.4.4-.5.8-.5 1.4 0 .5.2 1 .5 1.4.4.4.8.6 1.3.6s1-.2 1.3-.6c.4-.4.5-.8.5-1.4 0-.5-.2-1-.5-1.4-.4-.5-.8-.6-1.3-.6zM140.2 125.1h-.8l-.9-3-.9 3h-.8l-1.6-5.4.2.1c.5.2.8.4 1 .8l.8 2.8.9-3.2h.7l.9 3.2.8-2.8c.1-.4.4-.7 1-.8l.2-.1-1.5 5.4zM146.7 119.7v5.5c-.2 0-.4-.1-.6-.2-.4-.2-.7-.6-1-1.1l-1.6-2.6v3.9h-.9v-5.4c.3 0 .6.1.9.3.3.2.5.5.7.9l1.6 2.7v-3c0-.1 0-.2.1-.4.1-.4.4-.6.8-.6zM148.3 124.2h2v.9h-2.9v-4.5c0-.2.1-.4.2-.6.2-.2.4-.3.6-.3h2v.1c0 .2-.1.4-.3.6-.2.2-.4.2-.7.2h-1v1.5h1.7v.1c0 .2-.1.4-.3.6-.2.2-.4.2-.7.2h-.7c.1.7.1 1.2.1 1.2zM155.4 122.4c0 .4 0 .8-.1 1.1-.2.7-.7 1.2-1.4 1.5-.3.1-.7.2-1.1.2H151v-4.5c0-.2.1-.5.3-.6.2-.2.4-.3.6-.3h.9c.8 0 1.4.2 1.9.7.5.4.7 1.1.7 1.9zm-1.3 1.4c.3-.3.4-.7.4-1.4 0-.6-.2-1-.5-1.3-.3-.3-.7-.5-1.3-.5h-.9v3.6h.9c.7 0 1.1-.1 1.4-.4zM161.2 122.3c.4.3.6.7.6 1.2s-.2 1-.6 1.3c-.3.3-.7.4-1.2.4-.4 0-.8-.1-1.1-.4-.4-.3-.7-.7-.7-1.2h.2c.4 0 .7.1.9.4.1.2.4.3.7.3.2 0 .4-.1.6-.2.2-.1.2-.3.2-.5 0-.3-.1-.5-.3-.6-.1-.1-.4-.2-.7-.3l-.2-.1c-.4-.1-.6-.3-.8-.4-.3-.3-.4-.6-.4-1.1 0-.4.2-.8.5-1.1.3-.3.7-.4 1.1-.4.4 0 .7.1 1 .3.4.3.6.6.6 1.1h-.1c-.4 0-.7-.1-1-.3-.2-.2-.4-.3-.7-.3-.2 0-.3 0-.4.1-.1.1-.2.3-.2.5s.1.4.3.5c.1.1.3.2.7.3h.1c.4.2.7.3.9.5zM163.5 120.6v4.4h-.9v-4.4c0-.3.1-.5.2-.7.2-.2.3-.3.6-.3h.1v1zM168.5 119.7v5.5c-.2 0-.4-.1-.6-.2-.4-.2-.7-.6-1-1.1l-1.6-2.6v3.9h-.9v-5.4c.3 0 .6.1.9.3.3.2.5.5.7.9l1.6 2.7v-3c0-.1 0-.2.1-.4.1-.4.4-.6.8-.6zM174.5 123.6c-.2.4-.4.7-.8 1-.5.4-1 .6-1.6.6-.8 0-1.4-.3-2-.8-.5-.5-.8-1.2-.8-1.9s.3-1.4.8-1.9 1.2-.8 2-.8c.6 0 1.2.2 1.7.6.3.2.6.6.7.9-.1.1-.3.2-.5.2s-.4-.1-.5-.2c-.3-.2-.4-.4-.5-.4-.2-.1-.5-.2-.9-.2s-.8.1-1.1.4c-.5.4-.7.9-.7 1.5 0 .5.2.9.6 1.3.4.4.8.6 1.3.6.3 0 .7-.1.9-.3.1-.1.3-.2.4-.3.2-.2.4-.4.6-.4.1-.1.2 0 .4.1zM175.9 124.2h2v.9H175v-4.5c0-.2.1-.4.2-.6.2-.2.4-.3.6-.3h2v.1c0 .2-.1.4-.3.6-.2.2-.4.2-.7.2h-1v1.5h1.7v.1c0 .2-.1.4-.3.6-.2.2-.4.2-.7.2h-.7c.1.7.1 1.2.1 1.2zM182.5 119.7v5.4h-.8v-4.5c-.2 0-.4-.1-.6-.2-.2-.2-.3-.4-.3-.7h1.7zM187 125.1c-.4 0-.7-.2-.9-.8v-2.7c0-.3-.1-.6-.1-.8-.1-.3-.4-.5-.8-.5-.6.1-1 .4-.9 1 0 .6.3.9.9.9.2 0 .3 0 .5-.1.1 0 .1-.1.2-.1v.2c0 .4-.2.6-.6.7h-.3c-.2 0-.4 0-.6-.1-.3-.1-.5-.3-.7-.5-.3-.3-.4-.7-.4-1.1 0-.4.1-.8.4-1.1.3-.4.8-.7 1.5-.7.4 0 .8.1 1.2.4.4.4.7.9.7 1.5v3.8zM189.2 119.7v5.4h-.8v-4.5c-.2 0-.4-.1-.6-.2-.2-.2-.3-.4-.3-.7h1.7zM192.5 122.1c.4.3.5.8.5 1.3s-.2.9-.5 1.2c-.4.4-.8.6-1.5.6-.4 0-.7-.1-1-.2 0-.3.2-.4.5-.5.1 0 .3-.1.4-.1.3 0 .5-.1.8-.2.2-.2.3-.4.3-.8 0-.3-.1-.6-.4-.8-.2-.2-.5-.3-.9-.3-.5 0-.8-.2-.8-.5l.1-2.2h2.6c0 .3-.1.5-.3.6-.2.1-.3.2-.5.2h-1v1.2h.2c.7 0 1.2.1 1.5.5zM211.5 80.4c.2.2.4.3.6.4.2.1.5.2.8.2.3 0 .6-.1.8-.2.2-.1.4-.3.6-.4.2-.2.3-.4.4-.6.1-.2.1-.5.1-.8 0-.3 0-.5-.1-.8-.1-.2-.2-.5-.4-.6-.2-.2-.4-.3-.6-.4-.2-.1-.5-.2-.8-.2-.3 0-.6.1-.8.2-.2.1-.4.3-.6.4-.2.2-.3.4-.4.6-.1.2-.1.5-.1.8 0 .3 0 .5.1.8.1.2.2.4.4.6zm0-2.1l.3-.6c.1-.2.3-.3.5-.4.2-.1.4-.1.7-.1.2 0 .5 0 .7.1.2.1.4.2.5.4.1.2.2.3.3.6.1.2.1.4.1.6 0 .2 0 .4-.1.7l-.3.6c-.1.2-.3.3-.5.4-.2.1-.4.1-.7.1-.3 0-.5 0-.7-.1-.2-.1-.4-.2-.5-.4-.1-.2-.2-.3-.3-.6-.1-.2-.1-.4-.1-.7-.1-.1 0-.4.1-.6zm1.2.9h.2l.5.7c0 .1.1.1.2.1h.2c.1 0 .2 0 .3-.1l-.6-.9c.1 0 .1-.1.2-.1s.1-.1.2-.1c0-.1.1-.1.1-.2v-.3c0-.2-.1-.4-.2-.5-.1-.1-.4-.2-.7-.2h-.8V80h.5v-.8zm0-1.1h.2c.3 0 .4.1.4.4 0 .1 0 .2-.1.3-.1.1-.2.1-.3.1h-.3v-.8z"/></g></svg>