<svg xmlns="http://www.w3.org/2000/svg" xmlns:xlink="http://www.w3.org/1999/xlink" viewBox="0 0 175.2 92.5" enable-background="new 0 0 175.2 92.5"><defs><path id="a" d="M-463.2 149.1h126.1v25.1h-126.1z"/></defs><clipPath id="b"><use xlink:href="#a" overflow="visible"/></clipPath><path clip-path="url(#b)" fill="none" stroke="#000" stroke-width=".165" d="M-550.6-285.6H77.3V200h-627.9z"/><path clip-path="url(#b)" fill="none" stroke="#fff" stroke-width=".658" d="M-574-295.9h674.7v506H-574z"/><defs><path id="c" d="M-463.2 149.1h126.1v25.1h-126.1z"/></defs><clipPath><use xlink:href="#c" overflow="visible"/></clipPath><defs><path id="d" d="M-463.2 149.1h126.1v25.1h-126.1z"/></defs><clipPath><use xlink:href="#d" overflow="visible"/></clipPath><defs><path id="e" d="M-463.2 149.1h126.1v25.1h-126.1z"/></defs><clipPath><use xlink:href="#e" overflow="visible"/></clipPath><defs><path id="f" d="M-463.2 149.1h126.1v25.1h-126.1z"/></defs><clipPath><use xlink:href="#f" overflow="visible"/></clipPath><defs><path id="g" d="M-463.2 149.1h126.1v25.1h-126.1z"/></defs><clipPath><use xlink:href="#g" overflow="visible"/></clipPath><defs><path id="h" d="M-463.2 149.1h126.1v25.1h-126.1z"/></defs><clipPath><use xlink:href="#h" overflow="visible"/></clipPath><defs><path id="i" d="M-463.2 149.1h126.1v25.1h-126.1z"/></defs><clipPath><use xlink:href="#i" overflow="visible"/></clipPath><defs><path id="j" d="M-463.2 149.1h126.1v25.1h-126.1z"/></defs><clipPath><use xlink:href="#j" overflow="visible"/></clipPath><defs><path id="k" d="M-463.2 149.1h126.1v25.1h-126.1z"/></defs><clipPath><use xlink:href="#k" overflow="visible"/></clipPath><defs><path id="l" d="M-463.2 149.1h126.1v25.1h-126.1z"/></defs><clipPath><use xlink:href="#l" overflow="visible"/></clipPath><defs><path id="m" d="M-463.2 149.1h126.1v25.1h-126.1z"/></defs><clipPath><use xlink:href="#m" overflow="visible"/></clipPath><defs><path id="n" d="M-463.2 149.1h126.1v25.1h-126.1z"/></defs><clipPath><use xlink:href="#n" overflow="visible"/></clipPath><defs><path id="o" d="M-463.2 149.1h126.1v25.1h-126.1z"/></defs><clipPath><use xlink:href="#o" overflow="visible"/></clipPath><defs><path id="p" d="M-463.2 149.1h126.1v25.1h-126.1z"/></defs><clipPath><use xlink:href="#p" overflow="visible"/></clipPath><defs><path id="q" d="M-463.2 149.1h126.1v25.1h-126.1z"/></defs><clipPath><use xlink:href="#q" overflow="visible"/></clipPath><defs><path id="r" d="M-463.2 149.1h126.1v25.1h-126.1z"/></defs><clipPath><use xlink:href="#r" overflow="visible"/></clipPath><defs><path id="s" d="M-463.2 149.1h126.1v25.1h-126.1z"/></defs><clipPath id="t"><use xlink:href="#s" overflow="visible"/></clipPath><path clip-path="url(#t)" fill="#876912" d="M15 66.3l-2.4-4.6H1.7l-2.4 4.6h-3.7l10-18.5h2.9l10.2 18.5H15zM7.1 51.4l-4 7.8h8.2l-4.2-7.8zM18.7 49.1c0 .7-.6 1.3-1.3 1.3-.7 0-1.3-.6-1.3-1.3 0-.7.6-1.3 1.3-1.3.7 0 1.3.6 1.3 1.3m-2.3 0c0 .6.5 1.1 1.1 1.1.6 0 1.1-.5 1.1-1.1 0-.6-.5-1.1-1.1-1.1-.6 0-1.1.5-1.1 1.1m.6-.7h.5c.2 0 .5 0 .5.4 0 .3-.2.3-.3.4.2 0 .2.1.2.3 0 .1 0 .3.1.4h-.3c0-.1-.1-.4-.1-.5 0-.1 0-.1-.2-.1h-.3v.6H17v-1.5zm.2.6h.2c.2 0 .2-.1.2-.2 0-.2-.1-.2-.2-.2h-.2v.4z"/><path fill="#0047BA" d="M16.2 56.5c0-.5.4-.9.9-.9s.9.4.9.9-.4.9-.9.9c-.5-.1-.9-.4-.9-.9M22.3 56.5c0-.5.4-.9.9-.9s.9.4.9.9-.4.9-.9.9c-.5-.1-.9-.4-.9-.9M28.5 56.5c0-.5.4-.9.9-.9s.9.4.9.9-.4.9-.9.9c-.5-.1-.9-.4-.9-.9M34.6 56.5c0-.5.4-.9.9-.9s.9.4.9.9-.4.9-.9.9c-.5-.1-.9-.4-.9-.9M40.8 56.5c0-.5.4-.9.9-.9s.9.4.9.9-.4.9-.9.9c-.5-.1-.9-.4-.9-.9M46.9 56.5c0-.5.4-.9.9-.9s.9.4.9.9-.4.9-.9.9c-.5-.1-.9-.4-.9-.9M53 56.5c0-.5.4-.9.9-.9s.9.4.9.9-.4.9-.9.9c-.5-.1-.9-.4-.9-.9M59.2 56.5c0-.5.4-.9.9-.9s.9.4.9.9-.4.9-.9.9c-.5-.1-.9-.4-.9-.9M65.3 56.5c0-.5.4-.9.9-.9s.9.4.9.9-.4.9-.9.9c-.5-.1-.9-.4-.9-.9M71.5 56.5c0-.5.4-.9.9-.9s.9.4.9.9-.4.9-.9.9c-.5-.1-.9-.4-.9-.9M77.6 56.5c0-.5.4-.9.9-.9s.9.4.9.9-.4.9-.9.9c-.5-.1-.9-.4-.9-.9M83.7 56.5c0-.5.4-.9.9-.9s.9.4.9.9-.4.9-.9.9c-.5-.1-.9-.4-.9-.9M89.9 56.5c0-.5.4-.9.9-.9s.9.4.9.9-.4.9-.9.9c-.5-.1-.9-.4-.9-.9M96 56.5c0-.5.4-.9.9-.9s.9.4.9.9-.4.9-.9.9c-.5-.1-.9-.4-.9-.9M102.2 56.5c0-.5.4-.9.9-.9s.9.4.9.9-.4.9-.9.9c-.5-.1-.9-.4-.9-.9M108.3 56.5c0-.5.4-.9.9-.9s.9.4.9.9-.4.9-.9.9-.9-.4-.9-.9M114.4 56.5c0-.5.4-.9.9-.9s.9.4.9.9-.4.9-.9.9c-.5-.1-.9-.4-.9-.9M120.6 56.5c0-.5.4-.9.9-.9s.9.4.9.9-.4.9-.9.9c-.5-.1-.9-.4-.9-.9M126.7 56.5c0-.5.4-.9.9-.9s.9.4.9.9-.4.9-.9.9c-.5-.1-.9-.4-.9-.9M132.9 56.5c0-.5.4-.9.9-.9s.9.4.9.9-.4.9-.9.9c-.5-.1-.9-.4-.9-.9M139 56.5c0-.5.4-.9.9-.9s.9.4.9.9-.4.9-.9.9c-.5-.1-.9-.4-.9-.9M145.1 56.5c0-.5.4-.9.9-.9s.9.4.9.9-.4.9-.9.9c-.5-.1-.9-.4-.9-.9M151.3 56.5c0-.5.4-.9.9-.9s.9.4.9.9-.4.9-.9.9c-.5-.1-.9-.4-.9-.9M157.4 56.5c0-.5.4-.9.9-.9s.9.4.9.9-.4.9-.9.9c-.5-.1-.9-.4-.9-.9"/><path fill="#009BDE" d="M23.4 66.5c-.3-1.1-1.3-1.4-2.4-1.4-2.5 0-3.4 1.9-3.4 3.6.1 2.3.9 3.6 3.8 3.6.7 0 1.4-.1 2-.3v-2.6h-2.3v-1.1H25v4.5c-1.2.3-2.3.5-3.5.5-1.4 0-2.6-.2-3.7-1-1.1-.9-1.5-2.4-1.5-3.7 0-.9.4-2 .9-2.8.9-1.4 2.4-1.9 4.1-1.9 1.7 0 3.6.7 3.7 2.4h-1.6M30.2 73.3v-9.1h6.4v1.1h-5v2.8h4.8v1.1h-4.8v3h5.1v1.1h-6.5M50.3 64.2v9.1h-1.8l-5.1-7.7h-.1v7.7h-1.2v-9.1H44l5 7.5v-7.5h1.3M55.6 73.3v-9.1H62v1.1h-4.9v2.8h4.7v1.1h-4.7v3h5.1v1.1h-6.6"/><path fill="#009BDE" d="M68.7 65.3H71c1.6.1 1.9.7 1.9 1.4s-.4 1.3-1.9 1.4h-2.3v-2.8m2 3.9c.6 0 1.1 0 1.5.4.5.5.5 1.2.6 2 .1.5.2 1.1.4 1.7h1.5c-.4-.9-.5-1.8-.6-2.7-.2-1-.3-1.6-1.6-1.9 1.2-.3 1.9-1.1 1.9-2.2 0-1.8-1.8-2.3-3.5-2.3h-3.6v9.1h1.4v-4.1h2zM83.6 65.5l1.9 4.4h-3.8l1.9-4.4M80 73.3l1.1-2.4h4.7l1.1 2.4h1.5l-4.1-9.1h-1.5l-4.3 9.1H80zM92.9 73.3v-9.1h1.4v8H99v1.1h-6.1M116.8 65.1l-3.3 8.2h-1.3l-3.3-8.2v8.2h-1.4v-9.1h2.5l3 7.5 2.9-7.5h2.3v9.1h-1.4v-8.2"/><path fill="#009BDE" d="M123.7 64.2h1.4v9.1h-1.4zM130.6 73.3v-9.1h1.4v8h4.7v1.1h-6.1M141.3 73.3v-9.1h1.5v8h4.7v1.1h-6.2M153.1 70.6c0 1.3.9 1.8 2.2 1.8 1.2 0 2.6-.3 2.6-1.6 0-.9-.8-1.2-1.7-1.4-1.7-.3-4.5-.7-4.5-2.7s2-2.7 3.9-2.7c1.7 0 3.5.7 3.5 2.4h-1.5c-.1-1-1-1.4-2-1.4s-2.4.3-2.4 1.4c0 1 .8 1.1 1.7 1.3 1.9.5 4.4.5 4.4 2.8 0 2.1-2.1 2.8-4.1 2.8-2.1 0-3.7-.8-3.6-2.8h1.5"/><path fill="#0047BA" d="M40.8 27.7c0-4.2 1.4-6.7 1.4-6.7h-4.9c-.5 2-1.3 3.4-3.4 3.9 0-.1 0-.1.1-.2.4-1.1 1-3.1 1-4.3 0-3.1-2.2-5.7-6-5.7-3.7 0-6.7 2.9-6.7 6.6 0 3.7 2.3 6.3 5.5 7.4l-.9 2.4c-.4 0-.8-.1-1.2-.1-7.4 0-9.5 5-9.5 8.2 0 6.2 5.8 10.1 12.7 10.1 5.8 0 13.4-3 13.4-11.6 0-3.5-1.5-7-1.5-10m-13.9-6.3c0-1.3.8-2.2 1.8-2.2.6 0 1.6.3 1.6 2 0 .6-.7 2.3-1 3.1 0 .1-.1.2-.2.5-1.5-.7-2.2-2.5-2.2-3.4zm2 23.4c-4 0-7.8-1.9-7.8-5.3 0-2.3 1.8-3.6 4.2-3.8-1.1 3.1-2 5.5-2 5.5H28s.8-2.1 1.8-4.8c2 .8 3 2 3 2l1.6-4.3s-1-1-3-1.9c.4-1 .7-2 1.1-2.9 2.1-.2 3.7-1 3.7-1 0 4.2 1.3 6.2 1.3 9.1-.2 5.9-4.9 7.4-8.6 7.4z"/></svg>