<svg xmlns="http://www.w3.org/2000/svg" viewBox="0 0 69.4 69.4" enable-background="new 0 0 69.4 69.4"><path fill="#F78E1E" d="M0 0v69.4h69.4V0H0zm53.1 25.2v1.2c0 12.5-9.5 27-27 27-5.4 0-10.3-1.6-14.5-4.3.7.1 1.5.1 2.3.1 4.4 0 8.5-1.5 11.8-4.1-4.2-.1-7.7-2.8-8.9-6.6.6.1 1.2.2 1.8.2.9 0 1.7-.1 2.5-.3-4.3-.9-7.6-4.7-7.6-9.3V29c1.3.7 2.7 1.1 4.3 1.2-2.5-1.7-4.2-4.6-4.2-7.9 0-1.7.5-3.4 1.3-4.8 4.7 5.7 11.7 9.5 19.6 9.9-.2-.7-.2-1.4-.2-2.2 0-5.2 4.2-9.5 9.5-9.5 2.7 0 5.2 1.2 6.9 3 2.2-.4 4.2-1.2 6-2.3-.7 2.2-2.2 4.1-4.2 5.2 1.9-.2 3.7-.7 5.4-1.5-1.4 2.1-3 3.8-4.8 5.1z"/></svg>