<svg xmlns="http://www.w3.org/2000/svg" viewBox="0 0 69.4 69.4" enable-background="new 0 0 69.4 69.4"><path fill="#F78E1E" d="M0 0v69.4h69.4V0H0zm61.8 22.1c-.2 5.3-3.9 12.5-11.1 21.7-7.4 9.5-13.6 14.3-18.7 14.3-3.2 0-5.8-2.9-8-8.8-1.5-5.3-3-10.6-4.4-16-1.6-5.8-3.4-8.8-5.2-8.8-.4 0-1.8.9-4.3 2.6l-2.6-3.3c2.7-2.4 5.3-4.7 7.9-7.1 3.6-3.1 6.3-4.7 8-4.9 4.2-.4 6.8 2.5 7.8 8.7 1.1 6.7 1.8 10.8 2.2 12.4 1.2 5.5 2.6 8.3 4 8.3 1.1 0 2.8-1.8 5.1-5.4 2.3-3.6 3.5-6.3 3.7-8.2.3-3.1-.9-4.6-3.7-4.6-1.3 0-2.6.3-4 .9 2.7-8.7 7.8-13 15.3-12.7 5.7.2 8.3 3.8 8 10.9z"/></svg>