<svg xmlns="http://www.w3.org/2000/svg" viewBox="0 0 69.4 69.4" enable-background="new 0 0 69.4 69.4"><g fill="#F78E1E"><ellipse cx="34.7" cy="34.6" rx="9.2" ry="8.9"/><path d="M45.1 25.9h5.2c1.1 0 2.1-.9 2.1-2.1V19c0-1.1-.9-2.1-2.1-2.1h-5.2c-1.1 0-2.1.9-2.1 2.1v4.9c.1 1.1 1 2 2.1 2zM48.9 35.1c0 7.6-6.4 13.8-14.2 13.8-7.8 0-14.2-6.2-14.2-13.8 0-1.4.2-2.7.6-3.9h-4.2v19.3c0 1 .8 1.8 1.8 1.8h31.8c1 0 1.8-.8 1.8-1.8V31.2h-4c.4 1.2.6 2.5.6 3.9zM0 0v69.4h69.4V0H0zm57.5 51.7c0 3.2-2.6 5.9-5.9 5.9h-34c-3.2 0-5.9-2.6-5.9-5.9v-34c0-3.2 2.6-5.9 5.9-5.9h34c3.2 0 5.9 2.6 5.9 5.9v34z"/></g></svg>