<svg xmlns="http://www.w3.org/2000/svg" viewBox="-233.6 351.5 59.8 59.8" enable-background="new -233.6 351.5 59.8 59.8"><path fill="#fff" d="M-220.4 371.8c-3 5.2-7.8 8.8-13.2 10.3-.1-5.3 1.1-10.7 4-15.7 2.9-4.9 6.9-8.8 11.6-11.3 1.3 5.5.7 11.5-2.4 16.7zM-193.5 387.3c-4.2 7.3-5 15.6-2.9 23.1-7.3 1.8-15.3 1-22.3-3.1-7-4-11.8-10.5-13.8-17.7 7.6-1.9 14.4-6.8 18.6-14 4.2-7.3 5-15.6 2.9-23.1 7.3-1.8 15.3-1 22.3 3.1 7 4 11.8 10.5 13.8 17.7-7.6 1.9-14.4 6.7-18.6 14zM-177.8 396.4c-2.9 4.9-6.9 8.8-11.6 11.3-1.4-5.4-.7-11.4 2.3-16.6 3-5.2 7.8-8.8 13.2-10.3.2 5.2-1.1 10.7-3.9 15.6z"/></svg>