<svg xmlns="http://www.w3.org/2000/svg" viewBox="0 0 60 60" enable-background="new 0 0 60 60"><g><path fill="#FE0000" d="M0 8.2h60v43.6H0z"/><path fill="#fff" d="M13.6 8.2h32.7v43.6H13.6z"/><path fill-rule="evenodd" clip-rule="evenodd" fill="#FE0000" d="M40.8 29.4c-.3-.1-.6-.4-.7-.5-.1-.1.2-1.6.4-2.4v-.2c.2-.8-.3-1.3-1.1-1.1h-.2c-.8.2-1.6.3-1.8.2-.1 0-.4-.6-.5-1-.1-.4-.7-.2-1.2.4l-.5.6c-.5.6-1.2 1.2-1.5 1.4-.3.1-.2-1.5 0-2.3l.5-2.8c.1-.8-.1-1.3-.4-1.1-.4.2-.9.4-1.1.5-.2.1-.9-.9-1.3-1.6l-.6-1.1c-.4-.7-1-.7-1.4 0l-.6 1.1c-.4.7-.8 1.4-1 1.5-.2.1-1-.2-1.4-.4-.4-.2-.6.3-.4 1.1l.5 2.8c.2.8.2 1.7 0 2-.1.3-1.1-.4-1.6-1.1l-.6-.4c-.5-.6-1.1-.8-1.2-.4-.1.4-.3.8-.3.9-.1.1-1.1 0-1.9-.2h-.2c-.8-.2-1.3.3-1.1 1.1v.2c.2.8.5 1.7.5 1.9.1.3-.6.8-.9.9-.3.1 0 .7.6 1.2l3.1 2.6c.6.5 1.2 1.1 1.3 1.2.1.1 0 .9-.2 1.3-.1.4.4.7 1.3.6l2.4-.3c.8-.1 1.6-.1 1.7-.1.1 0 .2.9.2 1.8l-.1 2.8c0 .8.1 1.5.4 1.5.3 0 .4-.7.4-1.5l-.1-2.8c0-.8 0-1.6.1-1.7.1-.1 1-.1 1.8 0l2.4.3c.8.1 1.4-.2 1.3-.6-.1-.4-.2-.9-.2-1.1 0-.2.8-.9 1.4-1.4l3.1-2.6c.7-.5 1-1 .7-1.2z"/></g></svg>