<svg xmlns="http://www.w3.org/2000/svg" viewBox="0 0 60 60" enable-background="new 0 0 60 60"><path fill="#fff" d="M48.1 30c0 10-8.1 18.1-18.1 18.1-10 0-18.1-8.1-18.1-18.1 0-1.2.1-2.4.3-3.5H0v24.1C0 55.8 4.2 60 9.4 60h41.2c5.2 0 9.4-4.2 9.4-9.4V26.5H47.8c.2 1.1.3 2.3.3 3.5zm2.5-30H9.4C4.2 0 0 4.2 0 9.4v10.1h15.2c3.3-4.6 8.7-7.7 14.8-7.7 6.1 0 11.5 3 14.8 7.7H60V9.4C59.9 4.2 55.7 0 50.6 0zm4.6 11.6c0 .9-.8 1.7-1.7 1.7h-5c-.9 0-1.7-.8-1.7-1.7v-5c0-.9.8-1.7 1.7-1.7h5c.9 0 1.7.8 1.7 1.7v5zM41.1 30c0-6.2-5-11.1-11.1-11.1-6.2 0-11.1 5-11.1 11.1s5 11.1 11.1 11.1 11.1-5 11.1-11.1z"/></svg>