<svg xmlns="http://www.w3.org/2000/svg" viewBox="0 0 60 60" enable-background="new 0 0 60 60"><path fill="#fff" d="M59.9 11.6c-2.2 1-4.6 1.6-7.1 1.9 2.5-1.5 4.5-3.9 5.4-6.8-2.4 1.4-5 2.4-7.8 3-2.2-2.4-5.4-3.9-9-3.9-6.8 0-12.3 5.5-12.3 12.3 0 1 .1 1.9.3 2.8-10.1-.5-19.2-5.4-25.2-12.8-1.1 1.8-1.7 3.9-1.7 6.1 0 4.3 2.2 8 5.5 10.2-2-.1-3.9-.6-5.6-1.5v.2c0 6 4.2 10.9 9.9 12-1 .3-2.1.4-3.2.4-.8 0-1.6-.1-2.3-.2 1.6 4.9 6.1 8.4 11.5 8.5C14 47.2 8.7 49.1 3 49.1c-1 0-2-.1-2.9-.2 5.4 3.5 11.9 5.5 18.8 5.5 22.6 0 35-18.7 35-35v-1.6c2.3-1.6 4.4-3.8 6-6.2z"/></svg>