<svg xmlns="http://www.w3.org/2000/svg" viewBox="0 0 60 60" enable-background="new 0 0 60 60"><path d="M30 24c-4.9 0-9 4-9 9 0 4.9 4 9 9 9 4.9 0 9-4 9-9-.1-5-4.1-9-9-9zm23.8-8.9h-7.2c-1 0-2-.8-2.4-1.7l-1.9-5.6c-.3-.9-1.4-1.7-2.4-1.7H19.8c-1 0-2 .8-2.4 1.7l-1.9 5.6c-.3.9-1.4 1.7-2.4 1.7h-7c-3.3 0-6 2.7-6 6V48c0 3.3 2.7 6 6 6h47.7c3.3 0 6-2.7 6-6V21c0-3.3-2.7-5.9-6-5.9zM30 47.9c-8.2 0-14.9-6.7-14.9-14.9 0-8.3 6.6-15 14.9-15 8.2 0 14.9 6.7 14.9 14.9 0 8.3-6.7 15-14.9 15zm21.8-22.7c-1.2 0-2.1-.9-2.1-2.1 0-1.2.9-2.1 2.1-2.1 1.2 0 2.1.9 2.1 2.1-.1 1.2-1 2.1-2.1 2.1z"/></svg>