<svg xmlns="http://www.w3.org/2000/svg" viewBox="0 0 60 60" enable-background="new 0 0 60 60"><g fill="#348AC8"><path d="M60 14.4c-3.5 1.3-7 3.9-9 7.3-.1 0-.1 0-.2-.1-.1-.7.2-1.4.3-2.1.1-.8.5-1.9-.2-2.6-1.1-.3-1.9.8-2.7 1.4l-.1-.1c.2-1.8.5-3.5 1-5.2.3-.8.6-1.6.8-2.4-.7.3-1.2.9-1.8 1.4-.6.6-1.6 1.2-1.6 2.2L45 22.3c-.4 1.4-.6 2.8-1.4 4-.3.4-.7.9-1.2 1.2-.3.2-.7.3-1.1.2-.1 0-.2-.1-.4-.2-.1-.1-.2-.2-.2-.3-.6-1.6-.7-3.7.6-4.9.8-.1.7.9 1 1.4.4.1.6-.4.9-.7.3-.6.8-1.1.8-1.8-.7-.4-.4-1.4-1.2-1.8-.4 0-.8 0-1 .3-1.8 2.1-2.6 4.7-3.2 7.4 0 .2-.1.3-.1.5-.1.7-.2 1.5-.9 1.8-.7-.3-.7-1.2-.7-1.8v-.2c-.1-1.9.5-3.5.7-5.2-.7.6-1.2 1.5-1.8 2.2-.2 1.1-.4 2.1-.6 3.2-.3 1.3-.6 2.6-1 3.9-.1.2-.2.5-.6.4-.5-.4-.4-1.1-.5-1.7 0-.9 0-1.7.1-2.6.1-1.1.3-2.1.3-3.2h-.1c-.9.7-1.4 1.7-2 2.5v.7c-.1.3-.2.6-.5.7-.6.1-.8-.3-1-.7-.1-.3-.2-.7-.5-.9-.3 0-.6.1-.8.4-.1.2-.2.3-.4.5-2 3-2.4 6.7-3 10.3-.2.7-.3 1.5-.8 2-.1.1-.3 0-.4-.1-.8-2.2-.4-4.9-.5-7.3l.8-.8c.9-1.2 1.8-2.3 2-3.8 0-.1-.1-.1-.2-.1-.6.7-1.4 1.1-2.1 1.5-.1.1-.3.1-.4-.1v-3.1c0-1.2-.1-2.4-.4-3.5-1.7.4-.7 2-.9 3.1 0 .6 0 1.2-.1 1.8 0 .6-.1 1.1-.2 1.7-.8-.3-1.5-.9-2-1.7-.3-.5-.5-1-.6-1.5.9-1.7 1.8-3.6 1.3-5.6-.1-.3-.4-.5-.7-.5-.4.1-.8.6-1 .9-1.3 2-1.9 4.2-1.9 6.7v.6c-.5.9-1 1.9-1.6 2.7 0-1.1.1-2.2.2-3.3.4-4.3 1.3-8.5 1.4-13 0-.1-.1-.3-.3-.2-.6.6-1.3 1.2-1.4 2l-.4 4.6c-.1 2.3-.5 4.5-1.1 6.6-.5 1.8-1.3 3.5-2.2 5.2-.2.3-.5.7-.9.7-.2-.1-.3-.3-.4-.5-.2-1.8-.1-3.6 0-5.4.1-1.2.2-2.5.3-3.6l-.1-.1c-.7.5-1.2 1.3-1.8 2 0 .6 0 1.2-.1 1.8-.1 2.6-.3 5.1-.6 7.7 0 .9-.1 1.9.5 2.5.3.2.7.1 1-.1 2.1-1.6 2.7-4 3.9-6.1 0 1.1-.2 2.1-.2 3.2l-.9 1.5c-.9 2.1-2 4.4-1.4 6.9.1.3.4.6.8.6.3 0 .6-.2.8-.5 1.8-2.8 2.1-6.2 2.5-9.6l2.1-3.9h.1c.6 1.5 1.6 3.3 3.3 3.6.4.1.8-.1 1.2 0 0 2.7-.4 5.6-.1 8.3.2.9.1 2 1 2.6.5.2.9-.2 1.2-.6 1.1-1.6 1.5-3.5 2.1-5.3.2.5.3 1.1.9 1.3.8.1 1.2-.8 1.6-1.3 1.2-2.4 1.6-5.2 1.7-8 .6-.5.9-1.2 1.2-1.8.1-.1.1 0 .2 0 .1 1.8 0 3.7-.1 5.5.1.8-.2 1.8.5 2.2.3.1.6-.1.9-.2 1.1-1.4 1.5-3.2 1.9-4.9.2.7.1 1.7.7 2.2.4.1.7-.1 1-.3 1.1-1.1 1.5-2.6 2.2-3.8.1.6.2 1.3.8 1.8.5.3 1.2.2 1.7-.1 1.2-1.1 2.1-2.3 2.9-3.6.8-1.3 1.5-2.7 2.1-4 .7-1.4 1-2.9 1.9-4.2.1 0 .2 0 .3.1-.1 2.1-.7 4.4-.3 6.6 0 .2.3.4.5.4 1.2-.5 2.1-1.7 2.9-2.7 1.9-2.5 2.9-5.7 6-7.3 1 .4 1.5-.9 2.2-1.4.2-.2.4-.4.3-.5zm-40.3 7.4c.2-.2.2-.5.5-.6.2 1.2-.4 2.2-.9 3.2-.4-.8 0-1.8.4-2.6zm-7.4 19.7c-.1.1-.2.3-.3.2-.3-.6.1-1.2.1-1.8.3-1.1.6-2.2 1.2-3.2 0 1.6-.5 3.2-1 4.8zm16.6-7.7c-.2.6-.1 1.4-.5 1.9-.5-.5-.4-1.3-.6-2-.1-1-.1-2.2.3-3.1.3.1.2.4.4.6.9.4.3 1.8.4 2.6zM9.9 18.8c.1-.2.1-.5 0-.6-.8-.2-.6-1.3-1.3-1.5-.3.1-.5.5-.7.7-.5.9-1.4 1.6-1.6 2.6.5.6 1.1 1.6 2 1.5.7-.8 1.1-1.7 1.6-2.7zM2.7 38.9c.4-6.3 1.3-12.6.5-19.1 0-.1 0-.4-.3-.4-.7.8-1.4 1.5-2.2 2.2.8 5.9.6 11.5.1 17.4L0 46.7V49l.1.1c.6-.2 1.1-.7 1.5-1.2.5-4.4 2.4-8.3 5.2-11.8.2-1.7.5-3.5 1-5.1h-.2c-2.4 2.4-3.7 5.1-4.9 7.9zM58.5 18.4c0 .5-.4 1-.9 1s-1-.4-1-1c0-.5.4-1 1-1 .4 0 .9.4.9 1zm.2 0c0-.6-.5-1.2-1.1-1.2-.6 0-1.2.5-1.2 1.2s.5 1.2 1.2 1.2c.5-.1 1.1-.6 1.1-1.2zm-.6.6l-.2-.6c.2-.1.2-.2.2-.3 0-.3-.2-.4-.5-.4H57V19h.3v-.5h.3l.2.5h.3zm-.3-.9c0 .1-.1.2-.2.2h-.3v-.4h.3c.1 0 .2.1.2.2z"/></g></svg>