<svg xmlns="http://www.w3.org/2000/svg" viewBox="0 0 408.2 263" enable-background="new 0 0 408.2 263"><g fill="#3178AC"><path d="M407.9 25.1c-23.6 8.8-47.8 26.2-61.2 49.6-.7.2-1-.3-1.5-.5-.7-4.8 1.1-9.8 2.2-14.4.7-5.7 3.1-13-1.2-17.6-7.5-1.8-12.6 5.2-18.1 9.5l-.4-.5c1.5-12 3.2-23.9 6.8-35.1 1.8-5.3 4-10.9 5.3-16.1-4.5 2.2-8.2 5.8-12.1 9.3-4.1 4.3-11 8.4-10.7 14.9L305.9 79c-2.4 9.3-4.4 18.8-9.3 27.1-2.1 2.9-4.7 6.2-7.9 8.2-2.2 1.3-4.5 1.9-7.2 1.5-1-.3-1.7-.9-2.4-1.5-.6-.7-1.1-1.4-1.7-2.1-4-10.7-4.7-25 4.2-33.4 5.6-.7 4.8 5.9 6.5 9.2 2.7.8 4.2-2.8 5.9-4.5 2.3-3.9 5.7-7.7 5.6-12.3-4.8-2.4-2.7-9.7-8-12.4-2.4-.2-5.2.1-6.9 1.9-12.2 14.6-17.9 31.9-21.6 50.1-.3 1.1-.6 2.2-.8 3.5-.8 4.8-1.2 10.3-6.4 12.5-4.8-2.2-4.6-7.9-5-12.5-.1-.6-.1-1.1-.2-1.6-.8-12.9 3.1-24 4.7-35.6-5 4.2-8.1 10.1-12.1 15.2-1.2 7.4-2.5 14.6-4 22-1.9 8.8-4.1 17.6-6.6 26.2-1 1.2-1.7 3.4-3.9 2.6-3.5-2.6-2.7-7.3-3.3-11.4-.2-5.9.3-11.8.9-17.4.8-7.3 1.8-14.4 2.2-21.6h-1c-6 4.9-9.3 11.4-13.8 17.1.2 1.5.2 3-.2 4.5-.5 2-1.6 3.8-3.6 5-4.1.5-5.5-2.1-6.6-5-.9-2.3-1.6-4.8-3.2-6.3-2.3-.1-4.2.8-5.4 2.9-.9 1.1-1.7 2.3-2.4 3.5-13.8 20.3-16.3 45.5-20.1 70.1-1.4 4.7-1.8 10-5.4 13.7-.9 1-2.2.2-2.9-.7-5.3-14.8-2.8-33.4-3.1-49.7l5.4-5.2c6-7.9 12.2-15.8 13.3-25.8 0-.5-.6-.9-1.2-.7-4 4.6-9.2 7.6-14.4 9.9-.8.4-2.2.5-2.4-.7l-.3-11-.2-9.9c.1-8.3-.8-16.1-2.9-23.5-11.4 2.7-5 13.6-6.3 21.3-.2 4.1-.2 8-.4 12.1-.3 3.8-.7 7.8-1.6 11.5-5.4-2-10.3-6.3-13.4-11.5-2-3.3-3.4-6.8-3.9-10.4 6.2-11.4 12.1-24.3 8.6-38.2-.6-2.1-2.7-3.2-4.7-3.4-2.9.8-5.3 4.1-6.9 6.2C121 82 117 97.4 116.4 114.3c-.1 1.4-.1 2.8-.1 4.1-3.3 6.3-6.6 12.8-10.9 18.5.2-7.6.8-15.2 1.5-22.6 2.9-29.5 8.6-58 9.2-88.2 0-1-.7-2-1.9-1.7-3.8 4.2-8.8 8.3-9.8 13.7L102 69.3c-.7 15.8-3.5 30.6-7.8 45-3.7 12.2-8.8 24-14.7 35.4-1.5 2.1-3.6 4.9-6.4 4.7-1.6-.4-2-2.1-2.6-3.3-1.1-12.2-.9-24.6-.1-36.9.6-8.4 1.4-16.7 2.3-24.8l-.8-1c-5 3.3-8.5 8.7-12.1 13.4-.1 4.2-.3 8.3-.5 12.5-.9 17.7-2.3 34.8-4.2 52.3-.3 6-1 12.9 3.6 17.1 2.2 1.2 4.8.4 6.9-.5 14.4-10.9 18.7-27.5 26.8-41.8.1 7.2-1.1 14.5-1.7 21.7l-5.8 10.4c-6.3 14.3-13.5 30.2-9.5 47.1.9 2.3 2.9 4.3 5.6 4.4 2.1-.3 4-1.5 5.4-3.2 12.4-19.1 14-42.5 16.8-65.6l14-26.6h.5c3.8 9.9 10.9 22.5 22.7 24.2 2.7.8 5.6-.5 8.1.3-.2 18.2-2.9 37.8-.5 56.4 1.2 6.4.7 13.9 6.6 18 3.5 1.2 6.1-1.3 8.3-3.8 7.8-10.7 10.4-23.5 14.4-35.9 1.5 3.3 1.9 7.5 5.9 9.1 5.4.9 8.5-5.2 10.7-9.1 8.1-16.4 10.9-35.1 11.7-54.6 3.8-3.7 6.3-7.9 8.5-12.3.4-.5 1-.2 1.2.2.5 12.4.3 25.3-.7 37.5.5 5.3-1.5 12.2 3.6 15.2 2.2.8 4.3-.4 5.9-1.7 7.5-9.7 10-21.5 13.1-33 1.6 5.1.7 11.3 5 15 2.6 1 4.8-.8 6.8-2.2 7.4-7.7 10.3-17.4 15.2-25.9 1 4.4 1.3 9 5.2 12.2 3.5 1.9 8.1 1.7 11.4-.7 7.9-7.4 14.3-15.6 19.6-24.3 5.5-8.9 10.1-18.2 14.3-27.5 4.7-9.3 7.1-19.6 12.6-28.7.8 0 1.7-.2 2.2.7-.7 14.6-4.7 29.6-2.2 44.6.3 1.6 2 2.9 3.5 2.7 8.5-3.4 14-11.7 20-18.5 13-16.7 20-39.1 40.6-49.4 6.9 2.9 10.4-5.9 14.9-9.5.9-1 2.5-2.3 1.6-3.5zm-274 50.6c1.3-1.3 1.2-3.7 3.2-3.9 1.2 8.1-2.4 15.3-5.9 22-2.4-5.9.3-12.7 2.7-18.1zM83.7 209.5c-.4.9-1.5 2-2.3 1.5-1.9-4.2.5-8.3.8-12.4 1.9-7.7 4.3-15.1 8-22 .4 11.4-2.9 22.5-6.5 32.9zm112.8-51.9c-1.1 4.2-.4 9.4-3.5 12.6-3.1-3.6-2.9-8.9-3.8-13.5-.4-7.1-.5-14.7 1.9-20.9 1.9.4 1.3 2.8 2.7 3.8 6.5 2.9 2.1 12 2.7 18zM67.1 55.6c.7-1.1 1-3.2-.2-4.1-5.3-1.4-3.9-8.8-9-10.2-2.2 1-3.4 3.3-5.1 5-3.6 5.9-9.2 10.9-10.7 17.8 3.1 4.4 7.8 11.1 13.5 10 5.5-5.6 8.6-12.1 11.5-18.5zM18.3 192.2l-.2-.2c3.3-42.9 9.1-85.4 3.7-129.6-.2-.9-.3-2.7-1.9-2.4-4.7 5.6-9.7 9.9-14.9 14.7 5.2 39.8 4.1 78.2.9 118.6L.5 246 0 260.8l.5.7c3.9-1.5 7.3-4.9 10-8.3 3.7-30 16.4-56.3 35.1-80 1.5-11.8 3.4-23.6 6.6-34.4h-.7c-16 15.5-25.3 34.3-33.2 53.4zM397.7 52.4c0 3.7-2.9 6.6-6.4 6.6-3.6 0-6.5-2.9-6.5-6.6 0-3.7 2.9-6.6 6.5-6.6 3.5 0 6.4 3 6.4 6.6zm1.4 0c0-4.4-3.5-7.9-7.8-7.9-4.4 0-7.9 3.5-7.9 7.9s3.5 7.9 7.9 7.9c4.3 0 7.8-3.5 7.8-7.9zm-3.9 4.6l-1.7-4c1.1-.5 1.7-1.2 1.7-2.3 0-1.8-1.2-2.8-3.5-2.8h-4.2V57h1.9v-3.7h2.2l1.5 3.7h2.1zm-2-6.5c0 .8-.6 1.3-1.7 1.3h-2v-2.6h2.1c1 .1 1.6.6 1.6 1.3z"/></g></svg>