<?xml version="1.0" encoding="utf-8"?>
<!-- Generator: Adobe Illustrator 18.1.1, SVG Export Plug-In . SVG Version: 6.00 Build 0)  -->
<svg version="1.1" id="Layer_1" xmlns="http://www.w3.org/2000/svg" xmlns:xlink="http://www.w3.org/1999/xlink" x="0px" y="0px"
	 viewBox="0 0 113.1 78.7" enable-background="new 0 0 113.1 78.7" xml:space="preserve">
<g>
	<g>
		<defs>
			<rect id="SVGID_634_" x="31.6" y="124.7" width="52.2" height="72.9"/>
		</defs>
		<clipPath id="SVGID_2_">
			<use xlink:href="#SVGID_634_"  overflow="visible"/>
		</clipPath>
	</g>
	<g>
		<defs>
			<rect id="SVGID_636_" x="31.6" y="124.7" width="52.2" height="72.9"/>
		</defs>
		<clipPath id="SVGID_4_">
			<use xlink:href="#SVGID_636_"  overflow="visible"/>
		</clipPath>
		<path clip-path="url(#SVGID_4_)" fill="#AF1F24" d="M-14.3,80.3c6.2,0,11.2-5,11.2-11.2c0-6.2-5-11.2-11.2-11.2
			c-6.2,0-11.2,5-11.2,11.2C-25.5,75.3-20.5,80.3-14.3,80.3 M-14.3,90.8c11.9,0,21.5-9.6,21.5-21.5c0-11.9-9.6-21.5-21.5-21.5
			s-21.5,9.6-21.5,21.5C-35.8,81.2-26.2,90.8-14.3,90.8 M-46.7,69.3c0-17.9,14.5-32.4,32.4-32.4C3.6,37,18,51.5,18,69.3
			c0,17.9-14.5,32.4-32.4,32.4C-32.2,101.7-46.7,87.2-46.7,69.3"/>
	</g>
	<g>
		<g>
			<defs>
				<rect id="SVGID_1344_" x="-166.2" y="143.9" width="119.4" height="34.4"/>
			</defs>
			<clipPath id="SVGID_6_">
				<use xlink:href="#SVGID_1344_"  overflow="visible"/>
			</clipPath>
			<g clip-path="url(#SVGID_6_)">
				<text transform="matrix(1 0 0 1 -34.4941 66.0613)" font-family="'Univers-Condensed'" font-size="5.7073">Multiple NHL Franchises</text>
			</g>
		</g>
	</g>
	<g>
		<defs>
			<rect id="SVGID_1494_" x="31.6" y="7.6" width="70.1" height="64.3"/>
		</defs>
		<clipPath id="SVGID_8_">
			<use xlink:href="#SVGID_1494_"  overflow="visible"/>
		</clipPath>
		
			<rect x="-183.3" y="-23.9" clip-path="url(#SVGID_8_)" fill="none" stroke="#000000" stroke-width="0.1012" width="386.1" height="298.6"/>
		
			<rect x="-197.7" y="-30.2" clip-path="url(#SVGID_8_)" fill="none" stroke="#FFFFFF" stroke-width="0.4048" width="414.8" height="311.1"/>
		<path clip-path="url(#SVGID_8_)" fill="#D1D3D4" d="M145.2,32.3c-19.1,0-34.4,5.7-34.4,12.9c0,7.1,15.4,12.9,34.4,12.9
			c19,0,34.4-5.8,34.4-12.9C179.6,38.1,164.2,32.3,145.2,32.3 M179.4,44.2c0,0.1,0,0.1,0,0.2C179.4,44.3,179.4,44.2,179.4,44.2"/>
	</g>
	<g>
		<defs>
			<rect id="SVGID_1496_" x="31.6" y="7.6" width="70.1" height="64.3"/>
		</defs>
		<clipPath id="SVGID_9_">
			<use xlink:href="#SVGID_1496_"  overflow="visible"/>
		</clipPath>
		<g clip-path="url(#SVGID_9_)">
			<defs>
				<path id="SVGID_1498_" d="M111.3,45.2c0,6.8,15.2,12.4,33.9,12.4c18.7,0,33.9-5.5,33.9-12.4c0-6.8-15.2-12.4-33.9-12.4
					C126.5,32.8,111.3,38.3,111.3,45.2"/>
			</defs>
			<clipPath id="SVGID_11_">
				<use xlink:href="#SVGID_1498_"  overflow="visible"/>
			</clipPath>
			<g clip-path="url(#SVGID_11_)">
				<defs>
					<rect id="SVGID_1500_" x="111.3" y="32.8" width="67.8" height="24.8"/>
				</defs>
				<clipPath id="SVGID_13_">
					<use xlink:href="#SVGID_1500_"  overflow="visible"/>
				</clipPath>
				
					<radialGradient id="SVGID_15_" cx="-615.8845" cy="398.3557" r="1.1121" gradientTransform="matrix(133.5715 0 0 -130.2459 82409.6016 52058.793)" gradientUnits="userSpaceOnUse">
					<stop  offset="0" style="stop-color:#000000"/>
					<stop  offset="0.35" style="stop-color:#000017"/>
					<stop  offset="0.7" style="stop-color:#000033"/>
					<stop  offset="0.7678" style="stop-color:#001A52"/>
					<stop  offset="0.8566" style="stop-color:#003775"/>
					<stop  offset="0.9045" style="stop-color:#004282"/>
					<stop  offset="0.955" style="stop-color:#1CA6DF"/>
					<stop  offset="1" style="stop-color:#1CA6DF"/>
				</radialGradient>
				<rect x="111.3" y="32.8" clip-path="url(#SVGID_13_)" fill="url(#SVGID_15_)" width="67.8" height="24.8"/>
			</g>
		</g>
	</g>
	<g>
		<defs>
			<rect id="SVGID_1503_" x="31.6" y="7.6" width="70.1" height="64.3"/>
		</defs>
		<clipPath id="SVGID_16_">
			<use xlink:href="#SVGID_1503_"  overflow="visible"/>
		</clipPath>
	</g>
	<g>
		<defs>
			<rect id="SVGID_1510_" x="31.6" y="7.6" width="70.1" height="64.3"/>
		</defs>
		<clipPath id="SVGID_18_">
			<use xlink:href="#SVGID_1510_"  overflow="visible"/>
		</clipPath>
	</g>
	<g>
		<defs>
			<rect id="SVGID_1517_" x="31.6" y="7.6" width="70.1" height="64.3"/>
		</defs>
		<clipPath id="SVGID_20_">
			<use xlink:href="#SVGID_1517_"  overflow="visible"/>
		</clipPath>
	</g>
	<g>
		<defs>
			<rect id="SVGID_1524_" x="31.6" y="7.6" width="70.1" height="64.3"/>
		</defs>
		<clipPath id="SVGID_22_">
			<use xlink:href="#SVGID_1524_"  overflow="visible"/>
		</clipPath>
	</g>
	<g>
		<defs>
			<rect id="SVGID_1531_" x="31.6" y="7.6" width="70.1" height="64.3"/>
		</defs>
		<clipPath id="SVGID_23_">
			<use xlink:href="#SVGID_1531_"  overflow="visible"/>
		</clipPath>
	</g>
	<g>
		<defs>
			<rect id="SVGID_1538_" x="31.6" y="7.6" width="70.1" height="64.3"/>
		</defs>
		<clipPath id="SVGID_25_">
			<use xlink:href="#SVGID_1538_"  overflow="visible"/>
		</clipPath>
	</g>
	<g>
		<defs>
			<rect id="SVGID_1545_" x="31.6" y="7.6" width="70.1" height="64.3"/>
		</defs>
		<clipPath id="SVGID_27_">
			<use xlink:href="#SVGID_1545_"  overflow="visible"/>
		</clipPath>
	</g>
	<g>
		<defs>
			<rect id="SVGID_1552_" x="31.6" y="7.6" width="70.1" height="64.3"/>
		</defs>
		<clipPath id="SVGID_29_">
			<use xlink:href="#SVGID_1552_"  overflow="visible"/>
		</clipPath>
	</g>
	<g>
		<defs>
			<rect id="SVGID_1559_" x="31.6" y="7.6" width="70.1" height="64.3"/>
		</defs>
		<clipPath id="SVGID_30_">
			<use xlink:href="#SVGID_1559_"  overflow="visible"/>
		</clipPath>
	</g>
	<g>
		<defs>
			<rect id="SVGID_1566_" x="31.6" y="7.6" width="70.1" height="64.3"/>
		</defs>
		<clipPath id="SVGID_32_">
			<use xlink:href="#SVGID_1566_"  overflow="visible"/>
		</clipPath>
	</g>
	<g>
		<defs>
			<rect id="SVGID_1573_" x="31.6" y="7.6" width="70.1" height="64.3"/>
		</defs>
		<clipPath id="SVGID_34_">
			<use xlink:href="#SVGID_1573_"  overflow="visible"/>
		</clipPath>
	</g>
	<g>
		<defs>
			<rect id="SVGID_1580_" x="31.6" y="7.6" width="70.1" height="64.3"/>
		</defs>
		<clipPath id="SVGID_36_">
			<use xlink:href="#SVGID_1580_"  overflow="visible"/>
		</clipPath>
	</g>
	<g>
		<defs>
			<rect id="SVGID_1587_" x="31.6" y="7.6" width="70.1" height="64.3"/>
		</defs>
		<clipPath id="SVGID_37_">
			<use xlink:href="#SVGID_1587_"  overflow="visible"/>
		</clipPath>
	</g>
	<g>
		<defs>
			<rect id="SVGID_1594_" x="31.6" y="7.6" width="70.1" height="64.3"/>
		</defs>
		<clipPath id="SVGID_39_">
			<use xlink:href="#SVGID_1594_"  overflow="visible"/>
		</clipPath>
	</g>
	<g>
		<defs>
			<rect id="SVGID_1601_" x="31.6" y="7.6" width="70.1" height="64.3"/>
		</defs>
		<clipPath id="SVGID_41_">
			<use xlink:href="#SVGID_1601_"  overflow="visible"/>
		</clipPath>
	</g>
	<g>
		<defs>
			<rect id="SVGID_1608_" x="31.6" y="7.6" width="70.1" height="64.3"/>
		</defs>
		<clipPath id="SVGID_43_">
			<use xlink:href="#SVGID_1608_"  overflow="visible"/>
		</clipPath>
	</g>
	<g>
		<defs>
			<rect id="SVGID_1615_" x="31.6" y="7.6" width="70.1" height="64.3"/>
		</defs>
		<clipPath id="SVGID_44_">
			<use xlink:href="#SVGID_1615_"  overflow="visible"/>
		</clipPath>
	</g>
	<g>
		<defs>
			<rect id="SVGID_1622_" x="31.6" y="7.6" width="70.1" height="64.3"/>
		</defs>
		<clipPath id="SVGID_46_">
			<use xlink:href="#SVGID_1622_"  overflow="visible"/>
		</clipPath>
	</g>
	<g>
		<defs>
			<rect id="SVGID_1629_" x="31.6" y="7.6" width="70.1" height="64.3"/>
		</defs>
		<clipPath id="SVGID_48_">
			<use xlink:href="#SVGID_1629_"  overflow="visible"/>
		</clipPath>
	</g>
	<g>
		<defs>
			<rect id="SVGID_1636_" x="31.6" y="7.6" width="70.1" height="64.3"/>
		</defs>
		<clipPath id="SVGID_50_">
			<use xlink:href="#SVGID_1636_"  overflow="visible"/>
		</clipPath>
	</g>
	<g>
		<defs>
			<rect id="SVGID_1643_" x="31.6" y="7.6" width="70.1" height="64.3"/>
		</defs>
		<clipPath id="SVGID_51_">
			<use xlink:href="#SVGID_1643_"  overflow="visible"/>
		</clipPath>
	</g>
	<g>
		<defs>
			<rect id="SVGID_1650_" x="31.6" y="7.6" width="70.1" height="64.3"/>
		</defs>
		<clipPath id="SVGID_53_">
			<use xlink:href="#SVGID_1650_"  overflow="visible"/>
		</clipPath>
	</g>
	<g>
		<defs>
			<rect id="SVGID_1657_" x="31.6" y="7.6" width="70.1" height="64.3"/>
		</defs>
		<clipPath id="SVGID_55_">
			<use xlink:href="#SVGID_1657_"  overflow="visible"/>
		</clipPath>
	</g>
	<g>
		<defs>
			<rect id="SVGID_1664_" x="31.6" y="7.6" width="70.1" height="64.3"/>
		</defs>
		<clipPath id="SVGID_57_">
			<use xlink:href="#SVGID_1664_"  overflow="visible"/>
		</clipPath>
		<path clip-path="url(#SVGID_57_)" fill="#58595B" d="M145.2,32.3c-19.1,0-34.4,5.7-34.4,12.9c0,7.1,15.4,12.9,34.4,12.9
			c19,0,34.4-5.8,34.4-12.9C179.6,38.1,164.2,32.3,145.2,32.3 M111.1,45.3c0-1.5,0.7-3,2.1-4.4c4.9-5,17.8-8.3,32.1-8.4
			c18.8-0.1,34.2,5.5,34.2,12.5c0,1.5-0.7,3-2.1,4.4c-4.9,5-17.8,8.3-32,8.4C126.4,57.9,111.1,52.3,111.1,45.3 M179.4,44.2
			c0,0.1,0,0.1,0,0.2C179.4,44.3,179.4,44.2,179.4,44.2"/>
	</g>
	<g>
		<defs>
			<rect id="SVGID_1666_" x="31.6" y="7.6" width="70.1" height="64.3"/>
		</defs>
		<clipPath id="SVGID_58_">
			<use xlink:href="#SVGID_1666_"  overflow="visible"/>
		</clipPath>
		<g clip-path="url(#SVGID_58_)">
			<defs>
				<path id="SVGID_1668_" d="M110.9,45.2c0,0.3,0,0.7,0.1,1c-0.1-0.3-0.1-0.6-0.1-0.9c0-1.5,0.7-3.1,2.1-4.5c5-5,17.9-8.4,32.1-8.4
					c2,0,3.9,0,5.8,0.2c-1.9-0.1-3.8-0.2-5.7-0.2C126.2,32.4,110.9,38.1,110.9,45.2"/>
			</defs>
			<clipPath id="SVGID_60_">
				<use xlink:href="#SVGID_1668_"  overflow="visible"/>
			</clipPath>
			<g clip-path="url(#SVGID_60_)">
				<defs>
					
						<rect id="SVGID_1670_" x="119.1" y="18.2" transform="matrix(0.2588 0.9659 -0.9659 0.2588 135.0001 -97.3671)" width="23.7" height="42.2"/>
				</defs>
				<clipPath id="SVGID_62_">
					<use xlink:href="#SVGID_1670_"  overflow="visible"/>
				</clipPath>
				
					<linearGradient id="SVGID_64_" gradientUnits="userSpaceOnUse" x1="-628.1223" y1="387.8598" x2="-627.0101" y2="387.8598" gradientTransform="matrix(-7.1478 -26.6758 -26.6758 7.1478 5994.4365 -19463.7598)">
					<stop  offset="0" style="stop-color:#B1B3B6"/>
					<stop  offset="0.35" style="stop-color:#DCDDDE"/>
					<stop  offset="0.65" style="stop-color:#DCDDDE"/>
					<stop  offset="1" style="stop-color:#B1B3B6"/>
				</linearGradient>
				<polygon clip-path="url(#SVGID_62_)" fill="url(#SVGID_64_)" points="110.6,67.9 99,24.6 151.3,10.6 162.9,53.9 				"/>
			</g>
		</g>
	</g>
	<g>
		<defs>
			<rect id="SVGID_1673_" x="31.6" y="7.6" width="70.1" height="64.3"/>
		</defs>
		<clipPath id="SVGID_65_">
			<use xlink:href="#SVGID_1673_"  overflow="visible"/>
		</clipPath>
	</g>
	<g>
		<defs>
			<rect id="SVGID_1680_" x="31.6" y="7.6" width="70.1" height="64.3"/>
		</defs>
		<clipPath id="SVGID_67_">
			<use xlink:href="#SVGID_1680_"  overflow="visible"/>
		</clipPath>
		<g clip-path="url(#SVGID_67_)">
			<defs>
				<path id="SVGID_1682_" d="M113.9,45.2c0-5.7,14-10.3,31.3-10.3c17.3,0,31.3,4.6,31.3,10.3c0,5.7-14,10.3-31.3,10.3
					C127.9,55.5,113.9,50.9,113.9,45.2 M112.8,45.2c0,6.2,14.5,11.3,32.5,11.3c17.9,0,32.5-5.1,32.5-11.3c0-6.2-14.5-11.3-32.5-11.3
					C127.3,33.9,112.8,38.9,112.8,45.2"/>
			</defs>
			<clipPath id="SVGID_69_">
				<use xlink:href="#SVGID_1682_"  overflow="visible"/>
			</clipPath>
			<g clip-path="url(#SVGID_69_)">
				<defs>
					<rect id="SVGID_1684_" x="112.8" y="33.9" width="64.9" height="22.6"/>
				</defs>
				<clipPath id="SVGID_71_">
					<use xlink:href="#SVGID_1684_"  overflow="visible"/>
				</clipPath>
				
					<linearGradient id="SVGID_72_" gradientUnits="userSpaceOnUse" x1="-611.9289" y1="415.9026" x2="-610.8167" y2="415.9026" gradientTransform="matrix(0 23.7009 23.7009 0 -9712.0469 14535.2412)">
					<stop  offset="0" style="stop-color:#FFFFFF"/>
					<stop  offset="0.5122" style="stop-color:#FDFDFD"/>
					<stop  offset="0.691" style="stop-color:#F8F8F8"/>
					<stop  offset="0.8" style="stop-color:#D1D3D4"/>
					<stop  offset="1" style="stop-color:#BCBEC0"/>
				</linearGradient>
				<rect x="112.8" y="33.9" clip-path="url(#SVGID_71_)" fill="url(#SVGID_72_)" width="64.9" height="22.6"/>
			</g>
		</g>
	</g>
	<g>
		<defs>
			<rect id="SVGID_1687_" x="31.6" y="7.6" width="70.1" height="64.3"/>
		</defs>
		<clipPath id="SVGID_74_">
			<use xlink:href="#SVGID_1687_"  overflow="visible"/>
		</clipPath>
	</g>
	<g>
		<defs>
			<rect id="SVGID_1694_" x="31.6" y="7.6" width="70.1" height="64.3"/>
		</defs>
		<clipPath id="SVGID_76_">
			<use xlink:href="#SVGID_1694_"  overflow="visible"/>
		</clipPath>
	</g>
	<g>
		<defs>
			<rect id="SVGID_1701_" x="26.8" y="7.6" width="70.1" height="64.3"/>
		</defs>
		<clipPath id="SVGID_78_">
			<use xlink:href="#SVGID_1701_"  overflow="visible"/>
		</clipPath>
		<path clip-path="url(#SVGID_78_)" fill="#E41E2B" d="M-63.4,50.7c-2.9-2-6.4-2.9-9.7-2.8c-3.3,0.1-4.7,2.6-4.7,2.6
			c-1.5-2.6-4.4-4.1-8.9-4.1c-7.2,0.1-14.4,3.4-20.1,3.4c-5.5,0-9.4-3.4-9.3-9.5c0.2-10.7,9.2-20.3,16-24.6c3.9-2.5,7.1-3.2,9.2-3
			c1.5,0.2,3.4,2,2.2,4.6c-1.7,3.9-4.1,3.5-4,1.7c0-1.2,0.8-2,1.4-2.4c0.4-0.3,1.1-0.3,1.4-0.3c0.3-0.3,0.6-2.4-2.2-1.7
			c-2.8,0.7-6.1,3.4-9.3,6.9c-3.2,3.5-8.1,10.2-9.4,17.2c-0.6,3.2-0.2,9.2,7.5,9.1c6.5-0.1,16.1-4.3,25-4.3c3.4,0,6.4,1,8.7,2.4
			C-67.1,47.3-64.4,49.3-63.4,50.7 M-61.3,31.4h1.3c0,0-6.7,9.7-10.5,9.2c-2.1-0.2-1.5-2.9-1.5-2.9s-3,3.5-5.7,2.8
			c-2.5-0.6-0.9-4.7-0.9-4.7c-0.3,0.1-5.6,6.1-9.4,4.7c-3.9-1.5-1.9-6.6-1.1-8.1c0.6-1.3,1.3-2.5,1.3-2.5s-0.6,0.2-1,0.3
			c-0.4,0.1-0.9,0.2-0.9,0.2s-1.9,3-3,4.5c-1.1,1.5-6,6.7-8.8,5.7c-2.8-1-2.1-5-0.5-8.2c2.6-5.1,8.7-11.4,12.4-10.5
			c3.7,1,0.6,7,0.6,7s0.7,0.1,2.5-1.1c2.6-1.8,6-6.5,9.6-5.9c1.7,0.3,3.3,2,1.1,5.4c-0.7,1.1-1.9,2-2.8,1.1
			c-0.6-0.6-0.1-1.7,0.5-2.4c0.8-1,2-0.9,2-0.9s0.6-1.4-0.9-1.4c-1.2,0-4.4,2.9-6.2,5.9c-1.6,2.7-4.1,7.3-1.6,8.3
			c2.3,0.9,6.6-4.2,8.6-6.9c2-2.7,6.6-8.8,10.4-9.1c1.3-0.1,2.1,1.1,2.1,1.1l0.4-0.7h3.8c0,0-7.2,12.1-7.8,13
			c-0.4,0.7-1,2.3,0.6,1.4C-64.7,35.8-61.3,31.4-61.3,31.4 M-91.1,30.2c-0.1,0-1-0.3-2-0.9c-0.9-0.6-1.4-1.5-1.4-1.6
			c0-0.1-0.1,0-0.1,0c0,0.1-0.2,0.3-1.6,2.3c-1.4,2-3.4,6.1-1.5,6.8c1.2,0.4,3.3-1.7,4.4-3.1c1-1.3,2.2-3.3,2.3-3.5
			C-91,30.2-91,30.2-91.1,30.2 M-89.6,23.7c-1-0.8-3.6,1-3.6,2.8c0,1.9,2.3,2.4,2.6,2.4c0,0,0.3,0.1,0.4-0.2
			c0.1-0.1,0.4-0.7,0.7-1.6C-89.1,26.3-88.6,24.5-89.6,23.7 M-70,33.8c1.6-2.1,5.8-9.6,5.8-9.6s-0.1-0.5-0.6-0.5
			c-0.6,0-1.6,0.2-3.5,2.6c-2,2.5-3.5,4.4-4.6,6.4c-1.2,2.2-1.7,3.8-1,4.2c0.2,0.1,0.5,0.1,0.7,0.1c0.5-0.1,1.1-0.6,1.9-1.5
			C-71,35.1-70.5,34.5-70,33.8 M-52.8,22.3h-3.6l-2.1,3.3h3.6L-52.8,22.3z M-4.9,47.4c-0.3,0-0.5,0.1-0.8,0.3
			c-0.2,0.2-0.3,0.5-0.3,0.8c0,0.3,0.1,0.6,0.3,0.8c0.2,0.2,0.5,0.3,0.8,0.3c0.3,0,0.5-0.1,0.8-0.3c0.2-0.2,0.3-0.5,0.3-0.8
			c0-0.3-0.1-0.5-0.3-0.8C-4.3,47.5-4.6,47.4-4.9,47.4 M-3.6,48.5c0,0.3-0.1,0.6-0.4,0.9c-0.2,0.2-0.5,0.4-0.9,0.4
			c-0.3,0-0.6-0.1-0.9-0.4c-0.2-0.2-0.4-0.5-0.4-0.9c0-0.3,0.1-0.6,0.4-0.9c0.2-0.2,0.5-0.4,0.9-0.4c0.3,0,0.6,0.1,0.9,0.4
			C-3.7,47.8-3.6,48.1-3.6,48.5 M-4.5,48.2c0-0.1,0-0.2-0.1-0.2C-4.7,48-4.8,48-4.9,48h-0.2v0.5h0.2c0.1,0,0.2,0,0.2,0
			C-4.6,48.4-4.5,48.3-4.5,48.2 M-5.4,47.8h0.5c0.2,0,0.3,0,0.4,0c0.1,0.1,0.2,0.2,0.2,0.3c0,0.1,0,0.2-0.1,0.3c0,0-0.1,0.1-0.2,0.1
			c0.1,0,0.2,0.1,0.2,0.1c0,0.1,0.1,0.1,0.1,0.2V49c0,0,0,0.1,0,0.1c0,0,0,0.1,0,0.1l0,0h-0.2c0,0,0,0,0,0c0,0,0,0,0,0l0,0V49
			c0-0.2,0-0.3-0.1-0.3c-0.1,0-0.1,0-0.3,0h-0.2v0.5h-0.2V47.8z M1,16.3c-2.7,1.7-6.4,3.3-10,3c-0.9,0.9-1.9,2-2.9,3.2
			c6.2,1.2,11.7-2.6,14.6-5.9c1.8-2,2.7-3.9,2.7-3.9S3.7,14.6,1,16.3 M-9.6,44.6C-10.1,45.4-10.7,47-9,46c2.1-1.2,5-5.7,5-5.7h1.3
			c0,0-1.8,2.8-4.1,5.3c-2.1,2.3-4.7,4.5-6.5,4.2c-2.1-0.2-1.5-3-1.5-3s-3,3.2-5.1,3c-2.8-0.3-2-3.8-2-3.8s-3.2,3.9-5.4,3.8
			c-3.4-0.2-2.6-4.4-1.6-7.3c0.5-1.6,1-2.8,1-2.8s-0.3,0.1-1.1,0.2c-0.4,0.1-1.1,0.1-1.1,0.1s-1.4,2.5-2.6,4c-1.1,1.5-6,6.7-8.8,5.7
			c-2.6-1-1.8-5-0.2-8.2c2.2-4.7,8.5-11.4,12.1-10.5c3.8,0.9,0.1,7.8,0.1,7.8s0,0,0,0c0.1,0,0.3,0,0.7,0c0.7-0.1,1.4-0.4,1.4-0.4
			s3.8-7.9,7.9-13.1C-15,20.2-6.7,11.3-3.4,13.4C-2.6,14-3,15.8-4,18c-0.5,0.2-1,0.3-1.5,0.4c0.7-1.3,1.2-2.4,1.3-3.2
			c0.5-2.7-5.7,3-10.2,9c-4.5,6.1-7.1,11.5-7.1,11.5s0.9-0.5,2.3-1.6c1.5-1.2,3.5-3,5.7-5.3c1.5-1.5,3.2-3.4,4.8-5.6
			c0.5,0,1-0.1,1.4-0.1c-1.8,2.4-3.7,4.6-5.3,6.3c-1.8,1.8-3.7,3.7-5.4,5.1c-2.7,2.2-4.7,3.5-4.7,3.5s-3.9,7.9-1.8,8.4
			c1.2,0.3,3.7-3.5,3.7-3.5s3.2-4.9,5.1-7.1c2.6-3,4.9-4.7,7.2-4.8c1.3,0,2.1,1.4,2.1,1.4l0.6-1h3.8C-1.9,31.5-9.1,43.6-9.6,44.6
			 M-31.2,39.8c-0.1,0-0.9-0.4-1.8-1.1c-0.9-0.7-1.3-1.5-1.3-1.6c0-0.1-0.1,0-0.1,0c0,0.1-0.2,0.2-1.6,2.2c-1.4,2-3.5,6.2-1.6,6.9
			c1.2,0.4,3.2-1.7,4.3-3.1c1-1.3,2-3,2-3.1C-31.1,39.8-31.1,39.8-31.2,39.8 M-29.2,36.4c0.4-0.9,0.8-2.7-0.1-3.5
			c-1-0.8-3.6,1-3.6,2.8c0,1.9,1.8,2.7,2.2,2.8c0.2,0.1,0.3,0.1,0.5-0.1C-30.2,38.3-29.6,37.3-29.2,36.4 M-7.2,33.8
			c0.1-0.1,0.1-0.3,0.1-0.3S-7.2,33-7.7,33c-0.6,0-1.4,0.1-3.5,2.4c-2.1,2.3-3.4,4.4-4.5,6.4c-1.2,2.2-1.7,3.9-1,4.3
			c0.2,0.1,0.5,0.1,0.7,0.1c0.5-0.1,1-0.6,1.8-1.5c0.4-0.4,0.8-1.1,1.3-1.8C-11.4,41-7.9,35-7.2,33.8 M1,16.3c-2.7,1.7-6.4,3.3-10,3
			c-0.9,0.9-1.9,2-2.9,3.2c6.2,1.2,11.7-2.6,14.6-5.9c1.8-2,2.7-3.9,2.7-3.9S3.7,14.6,1,16.3 M-16.4,20.8c-2.9-1.5-5.1-3.3-7.3-4.5
			c-2.1-1.1-3.5-1.6-5.2-1.3c-0.3,0-0.7,0.2-0.7,0.2s0.9,3-2.6,8.1c-3.6,5.2-6.8,5.1-7.8,3.7c-1-1.5,0.3-4.6,2.4-7.3
			c2.2-2.8,6-5.2,6-5.2s-1.2-0.7-4.2,1c-2.9,1.7-8,5.6-12.7,12.3c-4.7,6.7-5.6,10.3-6.3,13.2c-0.7,2.9-0.1,6,3.1,6
			c3.2,0,6.9-4.9,8-6.6c2-3.2,3.2-8,0.6-7.3c-1.3,0.3-2.4,1.8-3,3.2c-0.7,1.4-1,2.8-1,2.8s-1.1,0.4-2.6,1.5
			c-1.5,1.1-2.5,2.2-2.5,2.2s0-2.3,1.8-6c1.8-3.7,5.2-5.4,7.1-5.6c1.7-0.1,4,1.3,2.1,6.7c-1.9,5.4-7.5,11.9-13.4,12
			c-5.4,0.1-9-6.9-1.4-19c8.4-13.4,18.2-17.5,21.4-18c3.2-0.5,4.2,0.9,4.2,0.9s2.7-1.2,6.1-1c3.9,0.3,6.9,3,10.9,4.9
			C-14.6,18.8-15.6,19.8-16.4,20.8 M-30.9,15.5c0,0-2.3,0.9-4.9,3.8c-2.7,2.9-4.2,6.2-3,7.1c0.4,0.3,1.4,0.4,3.3-1.3
			c1.4-1.3,2.9-3,3.9-5.4C-30.6,16.9-30.9,15.6-30.9,15.5"/>
		<path clip-path="url(#SVGID_78_)" fill="#AF1F24" d="M57.6,46.6c4.6,0,8.3-3.7,8.3-8.3c0-4.6-3.7-8.3-8.3-8.3
			c-4.6,0-8.3,3.7-8.3,8.3C49.3,42.9,53.1,46.6,57.6,46.6 M57.6,54.4c8.8,0,16-7.2,16-16c0-8.8-7.2-16-16-16c-8.8,0-16,7.2-16,16
			C41.6,47.3,48.8,54.4,57.6,54.4 M33.6,38.4c0-13.3,10.8-24.1,24.1-24.1c13.3,0,24.1,10.8,24.1,24.1c0,13.3-10.8,24.1-24.1,24.1
			C44.3,62.5,33.6,51.7,33.6,38.4"/>
		<path clip-path="url(#SVGID_78_)" fill-rule="evenodd" clip-rule="evenodd" fill="#AF1F24" d="M78.2,60.2v-0.7h0.5
			c0.3,0,0.5,0.1,0.5,0.4c0,0.4-0.3,0.4-0.6,0.4H78.2 M78.2,60.5h0.4l0.6,1h0.4l-0.7-1.1c0.4,0,0.6-0.2,0.6-0.7
			c0-0.5-0.3-0.7-0.8-0.7h-0.9v2.4h0.4V60.5z M76.9,60.4c0-1,0.7-1.7,1.7-1.7c0.9,0,1.7,0.7,1.7,1.7c0,1-0.7,1.7-1.7,1.7
			C77.6,62.1,76.9,61.4,76.9,60.4 M78.6,62.4c1.1,0,2.1-0.9,2.1-2.1c0-1.2-1-2.1-2.1-2.1c-1.1,0-2.1,0.9-2.1,2.1
			C76.5,61.6,77.5,62.4,78.6,62.4"/>
	</g>
	<g>
		<defs>
			<rect id="SVGID_1713_" x="31.6" y="7.6" width="70.1" height="64.3"/>
		</defs>
		<clipPath id="SVGID_79_">
			<use xlink:href="#SVGID_1713_"  overflow="visible"/>
		</clipPath>
	</g>
	<g>
		<defs>
			<rect id="SVGID_1720_" x="31.6" y="7.6" width="70.1" height="64.3"/>
		</defs>
		<clipPath id="SVGID_81_">
			<use xlink:href="#SVGID_1720_"  overflow="visible"/>
		</clipPath>
	</g>
	<g>
		<defs>
			<rect id="SVGID_1730_" x="31.6" y="7.6" width="70.1" height="64.3"/>
		</defs>
		<clipPath id="SVGID_83_">
			<use xlink:href="#SVGID_1730_"  overflow="visible"/>
		</clipPath>
	</g>
	<g>
		<defs>
			<rect id="SVGID_1796_" x="31.6" y="7.6" width="70.1" height="64.3"/>
		</defs>
		<clipPath id="SVGID_85_">
			<use xlink:href="#SVGID_1796_"  overflow="visible"/>
		</clipPath>
	</g>
	<g>
		<defs>
			<rect id="SVGID_1800_" x="31.6" y="7.6" width="70.1" height="64.3"/>
		</defs>
		<clipPath id="SVGID_86_">
			<use xlink:href="#SVGID_1800_"  overflow="visible"/>
		</clipPath>
	</g>
	<g>
		<defs>
			<rect id="SVGID_1808_" x="31.6" y="7.6" width="70.1" height="64.3"/>
		</defs>
		<clipPath id="SVGID_88_">
			<use xlink:href="#SVGID_1808_"  overflow="visible"/>
		</clipPath>
	</g>
	<g>
		<defs>
			<rect id="SVGID_1816_" x="31.6" y="7.6" width="70.1" height="64.3"/>
		</defs>
		<clipPath id="SVGID_90_">
			<use xlink:href="#SVGID_1816_"  overflow="visible"/>
		</clipPath>
	</g>
	<g>
		<defs>
			<rect id="SVGID_1824_" x="31.6" y="7.6" width="70.1" height="64.3"/>
		</defs>
		<clipPath id="SVGID_92_">
			<use xlink:href="#SVGID_1824_"  overflow="visible"/>
		</clipPath>
	</g>
	<g>
		<defs>
			<rect id="SVGID_1832_" x="31.6" y="7.6" width="70.1" height="64.3"/>
		</defs>
		<clipPath id="SVGID_93_">
			<use xlink:href="#SVGID_1832_"  overflow="visible"/>
		</clipPath>
	</g>
	<g>
		<defs>
			<rect id="SVGID_1840_" x="31.6" y="7.6" width="70.1" height="64.3"/>
		</defs>
		<clipPath id="SVGID_95_">
			<use xlink:href="#SVGID_1840_"  overflow="visible"/>
		</clipPath>
	</g>
	<g>
		<defs>
			<rect id="SVGID_1848_" x="31.6" y="7.6" width="70.1" height="64.3"/>
		</defs>
		<clipPath id="SVGID_97_">
			<use xlink:href="#SVGID_1848_"  overflow="visible"/>
		</clipPath>
	</g>
	<g>
		<defs>
			<rect id="SVGID_1856_" x="31.6" y="7.6" width="70.1" height="64.3"/>
		</defs>
		<clipPath id="SVGID_99_">
			<use xlink:href="#SVGID_1856_"  overflow="visible"/>
		</clipPath>
	</g>
	<g>
		<defs>
			<rect id="SVGID_1864_" x="31.6" y="7.6" width="70.1" height="64.3"/>
		</defs>
		<clipPath id="SVGID_100_">
			<use xlink:href="#SVGID_1864_"  overflow="visible"/>
		</clipPath>
	</g>
	<g>
		<defs>
			<rect id="SVGID_1872_" x="31.6" y="7.6" width="70.1" height="64.3"/>
		</defs>
		<clipPath id="SVGID_102_">
			<use xlink:href="#SVGID_1872_"  overflow="visible"/>
		</clipPath>
	</g>
	<g>
		<defs>
			<rect id="SVGID_1880_" x="31.6" y="7.6" width="70.1" height="64.3"/>
		</defs>
		<clipPath id="SVGID_104_">
			<use xlink:href="#SVGID_1880_"  overflow="visible"/>
		</clipPath>
	</g>
	<g>
		<defs>
			<rect id="SVGID_1888_" x="31.6" y="7.6" width="70.1" height="64.3"/>
		</defs>
		<clipPath id="SVGID_106_">
			<use xlink:href="#SVGID_1888_"  overflow="visible"/>
		</clipPath>
	</g>
	<g>
		<defs>
			<rect id="SVGID_1896_" x="31.6" y="7.6" width="70.1" height="64.3"/>
		</defs>
		<clipPath id="SVGID_107_">
			<use xlink:href="#SVGID_1896_"  overflow="visible"/>
		</clipPath>
	</g>
	<g>
		<defs>
			<rect id="SVGID_1904_" x="31.6" y="7.6" width="70.1" height="64.3"/>
		</defs>
		<clipPath id="SVGID_109_">
			<use xlink:href="#SVGID_1904_"  overflow="visible"/>
		</clipPath>
	</g>
	<g>
		<defs>
			<rect id="SVGID_1912_" x="31.6" y="7.6" width="70.1" height="64.3"/>
		</defs>
		<clipPath id="SVGID_111_">
			<use xlink:href="#SVGID_1912_"  overflow="visible"/>
		</clipPath>
	</g>
	<g>
		<g>
			<defs>
				<rect id="SVGID_2346_" x="-1.3" y="380.4" width="126.1" height="25.1"/>
			</defs>
			<clipPath id="SVGID_113_">
				<use xlink:href="#SVGID_2346_"  overflow="visible"/>
			</clipPath>
			
				<rect x="-88.7" y="-54.4" clip-path="url(#SVGID_113_)" fill="none" stroke="#000000" stroke-width="0.1646" width="627.9" height="485.6"/>
			
				<rect x="-112.1" y="-64.6" clip-path="url(#SVGID_113_)" fill="none" stroke="#FFFFFF" stroke-width="0.6584" width="674.7" height="506"/>
		</g>
		<g>
			<defs>
				<rect id="SVGID_2348_" x="-1.3" y="380.4" width="126.1" height="25.1"/>
			</defs>
			<clipPath id="SVGID_114_">
				<use xlink:href="#SVGID_2348_"  overflow="visible"/>
			</clipPath>
		</g>
		<g>
			<defs>
				<rect id="SVGID_2355_" x="-1.3" y="380.4" width="126.1" height="25.1"/>
			</defs>
			<clipPath id="SVGID_116_">
				<use xlink:href="#SVGID_2355_"  overflow="visible"/>
			</clipPath>
		</g>
		<g>
			<defs>
				<rect id="SVGID_2362_" x="-1.3" y="380.4" width="126.1" height="25.1"/>
			</defs>
			<clipPath id="SVGID_118_">
				<use xlink:href="#SVGID_2362_"  overflow="visible"/>
			</clipPath>
		</g>
		<g>
			<defs>
				<rect id="SVGID_2369_" x="-1.3" y="380.4" width="126.1" height="25.1"/>
			</defs>
			<clipPath id="SVGID_120_">
				<use xlink:href="#SVGID_2369_"  overflow="visible"/>
			</clipPath>
		</g>
		<g>
			<defs>
				<rect id="SVGID_2376_" x="-1.3" y="380.4" width="126.1" height="25.1"/>
			</defs>
			<clipPath id="SVGID_121_">
				<use xlink:href="#SVGID_2376_"  overflow="visible"/>
			</clipPath>
		</g>
		<g>
			<defs>
				<rect id="SVGID_2383_" x="-1.3" y="380.4" width="126.1" height="25.1"/>
			</defs>
			<clipPath id="SVGID_123_">
				<use xlink:href="#SVGID_2383_"  overflow="visible"/>
			</clipPath>
		</g>
		<g>
			<defs>
				<rect id="SVGID_2390_" x="-1.3" y="380.4" width="126.1" height="25.1"/>
			</defs>
			<clipPath id="SVGID_125_">
				<use xlink:href="#SVGID_2390_"  overflow="visible"/>
			</clipPath>
		</g>
		<g>
			<defs>
				<rect id="SVGID_2397_" x="-1.3" y="380.4" width="126.1" height="25.1"/>
			</defs>
			<clipPath id="SVGID_127_">
				<use xlink:href="#SVGID_2397_"  overflow="visible"/>
			</clipPath>
		</g>
		<g>
			<defs>
				<rect id="SVGID_2404_" x="-1.3" y="380.4" width="126.1" height="25.1"/>
			</defs>
			<clipPath id="SVGID_128_">
				<use xlink:href="#SVGID_2404_"  overflow="visible"/>
			</clipPath>
		</g>
		<g>
			<defs>
				<rect id="SVGID_2411_" x="-1.3" y="380.4" width="126.1" height="25.1"/>
			</defs>
			<clipPath id="SVGID_130_">
				<use xlink:href="#SVGID_2411_"  overflow="visible"/>
			</clipPath>
		</g>
		<g>
			<defs>
				<rect id="SVGID_2418_" x="-1.3" y="380.4" width="126.1" height="25.1"/>
			</defs>
			<clipPath id="SVGID_132_">
				<use xlink:href="#SVGID_2418_"  overflow="visible"/>
			</clipPath>
		</g>
		<g>
			<defs>
				<rect id="SVGID_2425_" x="-1.3" y="380.4" width="126.1" height="25.1"/>
			</defs>
			<clipPath id="SVGID_134_">
				<use xlink:href="#SVGID_2425_"  overflow="visible"/>
			</clipPath>
		</g>
		<g>
			<defs>
				<rect id="SVGID_2432_" x="-1.3" y="380.4" width="126.1" height="25.1"/>
			</defs>
			<clipPath id="SVGID_135_">
				<use xlink:href="#SVGID_2432_"  overflow="visible"/>
			</clipPath>
		</g>
		<g>
			<defs>
				<rect id="SVGID_2439_" x="-1.3" y="380.4" width="126.1" height="25.1"/>
			</defs>
			<clipPath id="SVGID_137_">
				<use xlink:href="#SVGID_2439_"  overflow="visible"/>
			</clipPath>
		</g>
		<g>
			<defs>
				<rect id="SVGID_2446_" x="-1.3" y="380.4" width="126.1" height="25.1"/>
			</defs>
			<clipPath id="SVGID_139_">
				<use xlink:href="#SVGID_2446_"  overflow="visible"/>
			</clipPath>
		</g>
		<g>
			<defs>
				<rect id="SVGID_2453_" x="-1.3" y="380.4" width="126.1" height="25.1"/>
			</defs>
			<clipPath id="SVGID_141_">
				<use xlink:href="#SVGID_2453_"  overflow="visible"/>
			</clipPath>
		</g>
		<g>
			<defs>
				<rect id="SVGID_2460_" x="-1.3" y="380.4" width="126.1" height="25.1"/>
			</defs>
			<clipPath id="SVGID_142_">
				<use xlink:href="#SVGID_2460_"  overflow="visible"/>
			</clipPath>
		</g>
		<g>
			<defs>
				<rect id="SVGID_2467_" x="-1.3" y="380.4" width="126.1" height="25.1"/>
			</defs>
			<clipPath id="SVGID_144_">
				<use xlink:href="#SVGID_2467_"  overflow="visible"/>
			</clipPath>
		</g>
		<g>
			<defs>
				<rect id="SVGID_2474_" x="-1.3" y="380.4" width="126.1" height="25.1"/>
			</defs>
			<clipPath id="SVGID_146_">
				<use xlink:href="#SVGID_2474_"  overflow="visible"/>
			</clipPath>
		</g>
		<g>
			<defs>
				<rect id="SVGID_2481_" x="-1.3" y="380.4" width="126.1" height="25.1"/>
			</defs>
			<clipPath id="SVGID_148_">
				<use xlink:href="#SVGID_2481_"  overflow="visible"/>
			</clipPath>
		</g>
		<g>
			<defs>
				<rect id="SVGID_2488_" x="-1.3" y="380.4" width="126.1" height="25.1"/>
			</defs>
			<clipPath id="SVGID_149_">
				<use xlink:href="#SVGID_2488_"  overflow="visible"/>
			</clipPath>
		</g>
		<g>
			<defs>
				<rect id="SVGID_2495_" x="-1.3" y="380.4" width="126.1" height="25.1"/>
			</defs>
			<clipPath id="SVGID_151_">
				<use xlink:href="#SVGID_2495_"  overflow="visible"/>
			</clipPath>
		</g>
		<g>
			<defs>
				<rect id="SVGID_2502_" x="-1.3" y="380.4" width="126.1" height="25.1"/>
			</defs>
			<clipPath id="SVGID_153_">
				<use xlink:href="#SVGID_2502_"  overflow="visible"/>
			</clipPath>
		</g>
		<g>
			<defs>
				<rect id="SVGID_2509_" x="-1.3" y="380.4" width="126.1" height="25.1"/>
			</defs>
			<clipPath id="SVGID_155_">
				<use xlink:href="#SVGID_2509_"  overflow="visible"/>
			</clipPath>
		</g>
		<g>
			<defs>
				<rect id="SVGID_2516_" x="-1.3" y="380.4" width="126.1" height="25.1"/>
			</defs>
			<clipPath id="SVGID_156_">
				<use xlink:href="#SVGID_2516_"  overflow="visible"/>
			</clipPath>
		</g>
		<g>
			<defs>
				<rect id="SVGID_2518_" x="-1.3" y="380.4" width="126.1" height="25.1"/>
			</defs>
			<clipPath id="SVGID_158_">
				<use xlink:href="#SVGID_2518_"  overflow="visible"/>
			</clipPath>
		</g>
		<g>
			<defs>
				<rect id="SVGID_2525_" x="-1.3" y="380.4" width="126.1" height="25.1"/>
			</defs>
			<clipPath id="SVGID_160_">
				<use xlink:href="#SVGID_2525_"  overflow="visible"/>
			</clipPath>
		</g>
		<g>
			<defs>
				<rect id="SVGID_2532_" x="-1.3" y="380.4" width="126.1" height="25.1"/>
			</defs>
			<clipPath id="SVGID_162_">
				<use xlink:href="#SVGID_2532_"  overflow="visible"/>
			</clipPath>
		</g>
		<g>
			<defs>
				<rect id="SVGID_2539_" x="-1.3" y="380.4" width="126.1" height="25.1"/>
			</defs>
			<clipPath id="SVGID_163_">
				<use xlink:href="#SVGID_2539_"  overflow="visible"/>
			</clipPath>
		</g>
		<g>
			<defs>
				<rect id="SVGID_2546_" x="-1.3" y="380.4" width="126.1" height="25.1"/>
			</defs>
			<clipPath id="SVGID_165_">
				<use xlink:href="#SVGID_2546_"  overflow="visible"/>
			</clipPath>
		</g>
		<g>
			<defs>
				<rect id="SVGID_2553_" x="-1.3" y="380.4" width="126.1" height="25.1"/>
			</defs>
			<clipPath id="SVGID_167_">
				<use xlink:href="#SVGID_2553_"  overflow="visible"/>
			</clipPath>
			<path clip-path="url(#SVGID_167_)" fill="#E41E2B" d="M114.3,67c-4.7-3.3-10.5-4.8-15.7-4.6c-5.3,0.2-7.7,4.2-7.7,4.2
				c-2.4-4.2-7.1-6.7-14.4-6.7c-11.8,0.1-23.5,5.6-32.7,5.6c-8.9,0-15.4-5.6-15.1-15.5c0.4-17.4,15-33,26-40.1
				c6.3-4.1,11.6-5.3,15-4.9c2.5,0.3,5.6,3.2,3.6,7.5c-2.8,6.3-6.7,5.8-6.5,2.8c0.1-1.9,1.4-3.2,2.4-3.8c0.6-0.4,1.7-0.6,2.3-0.6
				c0.6-0.5,1-3.9-3.5-2.8c-4.5,1.1-10,5.6-15.1,11.3C47.6,25.2,39.5,36,37.6,47.4c-0.9,5.3-0.3,14.9,12.2,14.8
				c10.6-0.1,26.2-7.1,40.6-6.9c5.6,0,10.4,1.5,14.2,3.9C108.3,61.4,112.7,64.7,114.3,67 M117.7,35.5h2.2c0,0-10.9,15.7-17,15
				c-3.4-0.4-2.4-4.6-2.4-4.6s-4.8,5.6-9.2,4.5c-4-1-1.4-7.7-1.4-7.7c-0.5,0.2-9.1,10-15.2,7.6c-6.4-2.5-3.1-10.7-1.9-13.1
				c1-2.1,2.2-4.1,2.2-4.1s-1,0.3-1.6,0.4c-0.6,0.1-1.5,0.3-1.5,0.3s-3,4.9-4.9,7.4c-1.8,2.5-9.7,10.9-14.3,9.2
				c-4.6-1.7-3.5-8.1-0.9-13.3c4.2-8.3,14.2-18.6,20.2-17.1c6.1,1.6,1.1,11.4,1.1,11.4s1.2,0.2,4.1-1.8c4.2-2.9,9.7-10.5,15.7-9.6
				c2.8,0.4,5.4,3.3,1.8,8.8c-1.1,1.8-3.1,3.3-4.5,1.8c-0.9-1-0.1-2.7,0.8-3.9c1.4-1.7,3.2-1.5,3.2-1.5s1-2.3-1.5-2.2
				c-2,0-7.2,4.8-10.1,9.6c-2.7,4.4-6.7,11.9-2.6,13.5c3.7,1.5,10.8-6.9,14-11.3c3.3-4.4,10.7-14.4,17-14.8c2.1-0.1,3.4,1.8,3.4,1.8
				l0.7-1.1h6.2c0,0-11.8,19.7-12.7,21.1c-0.7,1.2-1.7,3.8,1,2.3C112.2,42.7,117.7,35.5,117.7,35.5 M69.2,33.5
				c-0.1,0-1.7-0.5-3.2-1.5c-1.5-1-2.2-2.4-2.3-2.5c-0.1-0.1-0.1,0-0.2,0.1s-0.4,0.5-2.6,3.8c-2.2,3.3-5.5,10-2.4,11.1
				c2,0.7,5.3-2.7,7.1-5c1.7-2.1,3.7-5.4,3.7-5.6C69.4,33.6,69.4,33.6,69.2,33.5 M71.7,23.1c-1.6-1.2-5.8,1.7-5.8,4.6
				c0,3,3.8,3.9,4.3,3.9c0,0,0.4,0.1,0.6-0.2c0.1-0.2,0.6-1.2,1.2-2.7C72.5,27.2,73.2,24.3,71.7,23.1 M103.5,39.5
				c2.5-3.5,9.5-15.6,9.5-15.6s-0.1-0.9-0.9-0.9c-1,0-2.6,0.3-5.8,4.3c-3.2,4-5.7,7.2-7.5,10.5c-2,3.6-2.8,6.2-1.7,6.8
				c0.3,0.2,0.8,0.2,1.2,0.1c0.7-0.2,1.7-0.9,3-2.5C102,41.5,102.7,40.6,103.5,39.5 M131.6,20.7h-5.9l-3.3,5.4h5.9L131.6,20.7z
				 M209.5,61.6c-0.5,0-0.9,0.2-1.2,0.5c-0.3,0.3-0.5,0.8-0.5,1.2c0,0.5,0.2,0.9,0.5,1.3c0.3,0.3,0.7,0.5,1.2,0.5
				c0.5,0,0.9-0.2,1.2-0.5c0.3-0.4,0.5-0.8,0.5-1.3c0-0.5-0.2-0.9-0.5-1.2C210.4,61.8,210,61.6,209.5,61.6 M211.5,63.3
				c0,0.6-0.2,1-0.6,1.4c-0.4,0.4-0.9,0.6-1.4,0.6c-0.6,0-1-0.2-1.4-0.6c-0.4-0.4-0.6-0.9-0.6-1.4c0-0.6,0.2-1,0.6-1.4
				c0.4-0.4,0.9-0.6,1.4-0.6c0.6,0,1,0.2,1.4,0.6C211.4,62.3,211.5,62.8,211.5,63.3 M210.1,62.9c0-0.2-0.1-0.3-0.1-0.3
				c-0.1-0.1-0.3-0.1-0.5-0.1h-0.3v0.8h0.4c0.2,0,0.3,0,0.4,0C210,63.2,210.1,63.1,210.1,62.9 M208.7,62.2h0.8c0.3,0,0.5,0,0.6,0.1
				c0.2,0.1,0.3,0.3,0.3,0.6c0,0.2-0.1,0.3-0.2,0.4c-0.1,0.1-0.2,0.1-0.3,0.1c0.2,0,0.3,0.1,0.4,0.2c0.1,0.1,0.1,0.2,0.1,0.3v0.2
				c0,0.1,0,0.1,0,0.2c0,0.1,0,0.1,0,0.1l0,0h-0.4c0,0,0,0,0,0c0,0,0,0,0,0l0-0.1v-0.2c0-0.3-0.1-0.4-0.2-0.5
				c-0.1-0.1-0.2-0.1-0.4-0.1h-0.3v0.9h-0.4V62.2z M219.1,11c-4.4,2.8-10.5,5.4-16.3,4.8c-1.5,1.5-3.1,3.3-4.6,5.2
				c10.1,2,19-4.3,23.7-9.6c2.9-3.3,4.4-6.3,4.4-6.3S223.5,8.2,219.1,11 M201.8,56.9c-0.8,1.3-1.8,3.9,1,2.3c3.4-2,8.2-9.2,8.2-9.2
				h2.2c0,0-2.9,4.5-6.6,8.7c-3.4,3.8-7.6,7.2-10.5,6.9c-3.4-0.4-2.4-4.9-2.4-4.9s-4.9,5.2-8.3,4.9c-4.6-0.5-3.2-6.2-3.2-6.2
				s-5.2,6.4-8.7,6.2c-5.5-0.3-4.2-7.1-2.6-11.8c0.8-2.5,1.6-4.5,1.6-4.5s-0.6,0.1-1.7,0.3c-0.6,0.1-1.7,0.2-1.7,0.2
				s-2.3,4.1-4.2,6.5c-1.8,2.5-9.7,10.9-14.3,9.2c-4.3-1.6-2.9-8.1-0.4-13.3c3.6-7.6,13.8-18.5,19.7-17c6.1,1.5,0.1,12.6,0.1,12.6
				s0,0,0.1,0.1c0.1,0,0.4,0.1,1.2-0.1c1.2-0.2,2.2-0.7,2.2-0.7s6.1-12.9,12.9-21.3c6.8-8.4,20.3-22.9,25.6-19.4
				c1.3,0.9,0.7,3.8-1,7.4c-0.8,0.2-1.6,0.5-2.4,0.6c1.2-2.1,1.9-3.9,2.2-5.2c0.8-4.3-9.3,4.8-16.6,14.7
				c-7.2,9.9-11.6,18.8-11.6,18.8s1.5-0.8,3.7-2.7c2.4-1.9,5.6-4.9,9.2-8.6c2.4-2.5,5.2-5.6,7.8-9c0.8,0,1.6-0.1,2.3-0.2
				c-2.9,4-6,7.6-8.6,10.2c-2.9,2.9-6,6.1-8.7,8.4c-4.3,3.6-7.7,5.7-7.7,5.7s-6.3,12.8-2.9,13.6c2,0.5,6-5.7,6-5.7s5.2-8,8.4-11.6
				c4.3-4.9,8-7.7,11.7-7.8c2.2,0,3.4,2.3,3.4,2.3l1-1.6h6.2C214.3,35.7,202.7,55.5,201.8,56.9 M166.7,49.2c-0.1,0-1.5-0.7-2.9-1.8
				c-1.4-1.2-2.1-2.5-2.2-2.6c-0.1-0.1-0.1,0-0.2,0.1c-0.1,0.1-0.3,0.3-2.5,3.6c-2.2,3.3-5.6,10-2.5,11.2c2,0.7,5.3-2.7,7.1-5
				c1.7-2.1,3.2-4.9,3.3-5C166.9,49.2,166.8,49.2,166.7,49.2 M169.9,43.6c0.6-1.5,1.3-4.5-0.2-5.6c-1.6-1.2-5.8,1.7-5.8,4.6
				c0,3,2.9,4.4,3.7,4.6c0.4,0.1,0.5,0.1,0.7-0.2C168.3,46.8,169.3,45.2,169.9,43.6 M205.7,39.5c0.1-0.2,0.2-0.4,0.2-0.4
				s-0.1-0.9-0.9-0.9c-1,0-2.3,0.1-5.7,4c-3.4,3.8-5.5,7.1-7.3,10.4c-2,3.6-2.8,6.3-1.6,7c0.3,0.2,0.8,0.2,1.2,0.1
				c0.8-0.2,1.6-0.9,3-2.4c0.6-0.7,1.3-1.7,2.1-2.9C198.8,51.2,204.5,41.4,205.7,39.5 M219.1,11c-4.4,2.8-10.5,5.4-16.3,4.8
				c-1.5,1.5-3.1,3.3-4.6,5.2c10.1,2,19-4.3,23.7-9.6c2.9-3.3,4.4-6.3,4.4-6.3S223.5,8.2,219.1,11 M190.7,18.3
				c-4.8-2.5-8.3-5.4-11.9-7.3c-3.5-1.8-5.7-2.5-8.5-2.1c-0.5,0.1-1.2,0.3-1.2,0.3s1.5,4.9-4.3,13.2c-5.8,8.4-11.1,8.4-12.6,6
				c-1.6-2.4,0.5-7.4,3.8-11.8c3.6-4.6,9.8-8.5,9.8-8.5s-2-1.2-6.9,1.6c-4.8,2.7-13,9.1-20.6,20c-7.6,10.8-9.1,16.8-10.2,21.5
				c-1.1,4.7-0.1,9.7,5.1,9.7c5.2,0,11.3-7.9,13-10.7c3.2-5.1,5.2-13,0.9-11.9c-2.1,0.5-3.9,2.9-4.9,5.2c-1.1,2.3-1.6,4.6-1.6,4.6
				s-1.8,0.6-4.2,2.5c-2.4,1.8-4,3.5-4,3.5s0-3.7,3-9.8c3-6.1,8.5-8.9,11.6-9.1c2.8-0.2,6.4,2.1,3.4,10.9
				c-3.1,8.8-12.2,19.4-21.8,19.6c-8.8,0.1-14.6-11.2-2.3-30.8C139.8,12.9,155.8,6.2,161,5.4c5.2-0.7,6.9,1.5,6.9,1.5s4.3-2,9.9-1.6
				c6.3,0.4,11.2,4.9,17.7,8.1C193.7,15,192.1,16.7,190.7,18.3 M167.1,9.8c0,0-3.7,1.5-8,6.2c-4.3,4.8-6.8,10.1-5,11.5
				c0.7,0.5,2.4,0.6,5.3-2.1c2.3-2.1,4.7-4.8,6.3-8.8C167.7,12,167.1,9.8,167.1,9.8"/>
		</g>
	</g>
</g>
</svg>
