<?xml version="1.0" encoding="utf-8"?>
<!-- Generator: Adobe Illustrator 18.1.1, SVG Export Plug-In . SVG Version: 6.00 Build 0)  -->
<svg version="1.1" id="Layer_1" xmlns="http://www.w3.org/2000/svg" xmlns:xlink="http://www.w3.org/1999/xlink" x="0px" y="0px"
	 viewBox="0 0 138.8 56.7" enable-background="new 0 0 138.8 56.7" xml:space="preserve">
<g>
	<g>
		<defs>
			<rect id="SVGID_1_" x="-177" y="-2.2" width="147.9" height="62.2"/>
		</defs>
		<clipPath id="SVGID_2_">
			<use xlink:href="#SVGID_1_"  overflow="visible"/>
		</clipPath>
		
			<rect x="-228.9" y="-33" clip-path="url(#SVGID_2_)" fill="none" stroke="#000000" stroke-width="9.898134e-02" width="378" height="292.3"/>
		
			<rect x="-243" y="-39.2" clip-path="url(#SVGID_2_)" fill="none" stroke="#FFFFFF" stroke-width="0.397" width="406.1" height="304.6"/>
		<path clip-path="url(#SVGID_2_)" fill="#D1D3D4" d="M92.8,21.9c-18.7,0-33.7,5.6-33.7,12.6c0,7,15.1,12.6,33.7,12.6
			s33.7-5.7,33.7-12.6C126.5,27.6,111.4,21.9,92.8,21.9 M126.3,33.6c0,0.1,0,0.1,0,0.2C126.3,33.7,126.3,33.7,126.3,33.6"/>
	</g>
	<g>
		<defs>
			<rect id="SVGID_3_" x="-177" y="-2.2" width="147.9" height="62.2"/>
		</defs>
		<clipPath id="SVGID_4_">
			<use xlink:href="#SVGID_3_"  overflow="visible"/>
		</clipPath>
		<g clip-path="url(#SVGID_4_)">
			<defs>
				<path id="SVGID_5_" d="M59.6,34.6c0,6.7,14.8,12.1,33.2,12.1c18.3,0,33.2-5.4,33.2-12.1c0-6.7-14.8-12.1-33.2-12.1
					C74.4,22.5,59.6,27.9,59.6,34.6"/>
			</defs>
			<clipPath id="SVGID_6_">
				<use xlink:href="#SVGID_5_"  overflow="visible"/>
			</clipPath>
			<g clip-path="url(#SVGID_6_)">
				<defs>
					<rect id="SVGID_7_" x="59.6" y="22.5" width="66.3" height="24.2"/>
				</defs>
				<clipPath id="SVGID_8_">
					<use xlink:href="#SVGID_7_"  overflow="visible"/>
				</clipPath>
				
					<radialGradient id="SVGID_9_" cx="-442.1013" cy="387.5477" r="1.1121" gradientTransform="matrix(130.7767 0 0 -127.5208 57909.0977 49581.6523)" gradientUnits="userSpaceOnUse">
					<stop  offset="0" style="stop-color:#000000"/>
					<stop  offset="0.35" style="stop-color:#000017"/>
					<stop  offset="0.7" style="stop-color:#000033"/>
					<stop  offset="0.7678" style="stop-color:#001A52"/>
					<stop  offset="0.8566" style="stop-color:#003775"/>
					<stop  offset="0.9045" style="stop-color:#004282"/>
					<stop  offset="0.955" style="stop-color:#1CA6DF"/>
					<stop  offset="1" style="stop-color:#1CA6DF"/>
				</radialGradient>
				<rect x="59.6" y="22.5" clip-path="url(#SVGID_8_)" fill="url(#SVGID_9_)" width="66.3" height="24.2"/>
			</g>
		</g>
	</g>
	<g>
		<defs>
			<rect id="SVGID_10_" x="-177" y="-2.2" width="147.9" height="62.2"/>
		</defs>
		<clipPath id="SVGID_11_">
			<use xlink:href="#SVGID_10_"  overflow="visible"/>
		</clipPath>
		<g clip-path="url(#SVGID_11_)">
			<defs>
				<path id="SVGID_12_" d="M62.1,34.6c0,0.5,0.1,0.9,0.3,1.3c-0.1-0.3-0.1-0.6-0.1-0.9c0-5.5,13.7-10,30.7-10
					c15.6,0,28.4,3.8,30.4,8.7c-1.3-5.2-14.5-9.3-30.6-9.3C75.8,24.5,62.1,29,62.1,34.6"/>
			</defs>
			<clipPath id="SVGID_13_">
				<use xlink:href="#SVGID_12_"  overflow="visible"/>
			</clipPath>
			<g clip-path="url(#SVGID_13_)">
				<defs>
					<rect id="SVGID_14_" x="62.1" y="24.5" width="61.2" height="11.4"/>
				</defs>
				<clipPath id="SVGID_15_">
					<use xlink:href="#SVGID_14_"  overflow="visible"/>
				</clipPath>
				
					<linearGradient id="SVGID_16_" gradientUnits="userSpaceOnUse" x1="-450.7543" y1="377.1831" x2="-449.6422" y2="377.1831" gradientTransform="matrix(0 -23.0887 -23.0887 0 8801.3916 -10359.8486)">
					<stop  offset="0" style="stop-color:#00053D"/>
					<stop  offset="0.2092" style="stop-color:#000941"/>
					<stop  offset="0.4334" style="stop-color:#00134E"/>
					<stop  offset="0.6638" style="stop-color:#002564"/>
					<stop  offset="0.809" style="stop-color:#003475"/>
					<stop  offset="1" style="stop-color:#006DA9"/>
				</linearGradient>
				<rect x="62.1" y="24.5" clip-path="url(#SVGID_15_)" fill="url(#SVGID_16_)" width="61.2" height="11.4"/>
			</g>
		</g>
	</g>
	<g>
		<defs>
			<rect id="SVGID_17_" x="-177" y="-2.2" width="147.9" height="62.2"/>
		</defs>
		<clipPath id="SVGID_18_">
			<use xlink:href="#SVGID_17_"  overflow="visible"/>
		</clipPath>
		<g clip-path="url(#SVGID_18_)">
			<defs>
				<path id="SVGID_19_" d="M124.6,34.6c0,6.1-14.2,11.1-31.8,11.1c-15.6,0-28.6-3.9-31.3-9.1c2,5.4,15.4,9.5,31.5,9.5
					c17.6,0,31.8-4.9,31.8-11c0-0.6-0.1-1.2-0.4-1.8C124.5,33.7,124.6,34.1,124.6,34.6"/>
			</defs>
			<clipPath id="SVGID_20_">
				<use xlink:href="#SVGID_19_"  overflow="visible"/>
			</clipPath>
			<g clip-path="url(#SVGID_20_)">
				<defs>
					<rect id="SVGID_21_" x="61.5" y="33.3" width="63.3" height="12.8"/>
				</defs>
				<clipPath id="SVGID_22_">
					<use xlink:href="#SVGID_21_"  overflow="visible"/>
				</clipPath>
				
					<linearGradient id="SVGID_23_" gradientUnits="userSpaceOnUse" x1="-450.755" y1="377.1801" x2="-449.6428" y2="377.1801" gradientTransform="matrix(0 -23.0863 -23.0863 0 8800.8467 -10358.7998)">
					<stop  offset="0" style="stop-color:#00053D"/>
					<stop  offset="0.2092" style="stop-color:#000941"/>
					<stop  offset="0.4334" style="stop-color:#00134E"/>
					<stop  offset="0.6638" style="stop-color:#002564"/>
					<stop  offset="0.809" style="stop-color:#003475"/>
					<stop  offset="1" style="stop-color:#006DA9"/>
				</linearGradient>
				<rect x="61.5" y="33.3" clip-path="url(#SVGID_22_)" fill="url(#SVGID_23_)" width="63.3" height="12.8"/>
			</g>
		</g>
	</g>
	<g>
		<defs>
			<rect id="SVGID_24_" x="-177" y="-2.2" width="147.9" height="62.2"/>
		</defs>
		<clipPath id="SVGID_25_">
			<use xlink:href="#SVGID_24_"  overflow="visible"/>
		</clipPath>
		<g clip-path="url(#SVGID_25_)">
			<defs>
				<path id="SVGID_26_" d="M98.7,35.6c-0.7,0.7-0.8,1.7-0.3,2.1c0.2,0.2,0.4,0.2,0.6,0.2c-0.3-0.4-0.4-1.1-0.1-1.7
					c-0.1-0.2-0.1-0.4,0-0.6C98.9,35.7,98.8,35.6,98.7,35.6C98.7,35.6,98.7,35.6,98.7,35.6"/>
			</defs>
			<clipPath id="SVGID_27_">
				<use xlink:href="#SVGID_26_"  overflow="visible"/>
			</clipPath>
			<g clip-path="url(#SVGID_27_)">
				<defs>
					<rect id="SVGID_28_" x="97.9" y="35.6" width="1" height="2.4"/>
				</defs>
				<clipPath id="SVGID_29_">
					<use xlink:href="#SVGID_28_"  overflow="visible"/>
				</clipPath>
				
					<linearGradient id="SVGID_30_" gradientUnits="userSpaceOnUse" x1="-453.6571" y1="371.9763" x2="-452.5449" y2="371.9763" gradientTransform="matrix(0 -15.9865 -15.9865 0 6045.0312 -7209.3008)">
					<stop  offset="0" style="stop-color:#00053D"/>
					<stop  offset="0.2092" style="stop-color:#000941"/>
					<stop  offset="0.4334" style="stop-color:#00134E"/>
					<stop  offset="0.6638" style="stop-color:#002564"/>
					<stop  offset="0.809" style="stop-color:#003475"/>
					<stop  offset="1" style="stop-color:#006DA9"/>
				</linearGradient>
				<rect x="97.9" y="35.6" clip-path="url(#SVGID_29_)" fill="url(#SVGID_30_)" width="1" height="2.4"/>
			</g>
		</g>
	</g>
	<g>
		<defs>
			<rect id="SVGID_31_" x="-177" y="-2.2" width="147.9" height="62.2"/>
		</defs>
		<clipPath id="SVGID_32_">
			<use xlink:href="#SVGID_31_"  overflow="visible"/>
		</clipPath>
		<g clip-path="url(#SVGID_32_)">
			<defs>
				<path id="SVGID_33_" d="M106,37.2c0,0.1,0,0.3,0.1,0.5c0-0.1,0.1-0.1,0.1-0.2c0-0.1,0-0.1,0-0.1C106.1,37.4,106.1,37.3,106,37.2
					C106,37.2,106,37.2,106,37.2L106,37.2z"/>
			</defs>
			<clipPath id="SVGID_34_">
				<use xlink:href="#SVGID_33_"  overflow="visible"/>
			</clipPath>
			<g clip-path="url(#SVGID_34_)">
				<defs>
					<rect id="SVGID_35_" x="106" y="37.2" width="0.2" height="0.5"/>
				</defs>
				<clipPath id="SVGID_36_">
					<use xlink:href="#SVGID_35_"  overflow="visible"/>
				</clipPath>
				
					<linearGradient id="SVGID_37_" gradientUnits="userSpaceOnUse" x1="-453.4873" y1="372.2261" x2="-452.3751" y2="372.2261" gradientTransform="matrix(0 -16.2785 -16.2785 0 6165.418 -7338.9185)">
					<stop  offset="0" style="stop-color:#00053D"/>
					<stop  offset="0.2092" style="stop-color:#000941"/>
					<stop  offset="0.4334" style="stop-color:#00134E"/>
					<stop  offset="0.6638" style="stop-color:#002564"/>
					<stop  offset="0.809" style="stop-color:#003475"/>
					<stop  offset="1" style="stop-color:#006DA9"/>
				</linearGradient>
				<rect x="106" y="37.2" clip-path="url(#SVGID_36_)" fill="url(#SVGID_37_)" width="0.2" height="0.5"/>
			</g>
		</g>
	</g>
	<g>
		<defs>
			<rect id="SVGID_38_" x="-177" y="-2.2" width="147.9" height="62.2"/>
		</defs>
		<clipPath id="SVGID_39_">
			<use xlink:href="#SVGID_38_"  overflow="visible"/>
		</clipPath>
		<g clip-path="url(#SVGID_39_)">
			<defs>
				<path id="SVGID_40_" d="M107.3,35.6c0,0.1,0.1,0.1,0.2,0c0,0,0-0.1,0.1-0.1c0,0,0-0.1-0.1-0.1c-0.1-0.1-0.4-0.4-0.6-0.6
					C107.1,35,107.3,35.3,107.3,35.6"/>
			</defs>
			<clipPath id="SVGID_41_">
				<use xlink:href="#SVGID_40_"  overflow="visible"/>
			</clipPath>
			<g clip-path="url(#SVGID_41_)">
				<defs>
					<rect id="SVGID_42_" x="106.9" y="34.8" width="0.7" height="0.9"/>
				</defs>
				<clipPath id="SVGID_43_">
					<use xlink:href="#SVGID_42_"  overflow="visible"/>
				</clipPath>
				
					<linearGradient id="SVGID_44_" gradientUnits="userSpaceOnUse" x1="-454.3858" y1="370.6111" x2="-453.2736" y2="370.6111" gradientTransform="matrix(0 -14.8413 -14.8413 0 5607.5957 -6701.2407)">
					<stop  offset="0" style="stop-color:#00053D"/>
					<stop  offset="0.2092" style="stop-color:#000941"/>
					<stop  offset="0.4334" style="stop-color:#00134E"/>
					<stop  offset="0.6638" style="stop-color:#002564"/>
					<stop  offset="0.809" style="stop-color:#003475"/>
					<stop  offset="1" style="stop-color:#006DA9"/>
				</linearGradient>
				<rect x="106.9" y="34.8" clip-path="url(#SVGID_43_)" fill="url(#SVGID_44_)" width="0.7" height="0.9"/>
			</g>
		</g>
	</g>
	<g>
		<defs>
			<rect id="SVGID_45_" x="-177" y="-2.2" width="147.9" height="62.2"/>
		</defs>
		<clipPath id="SVGID_46_">
			<use xlink:href="#SVGID_45_"  overflow="visible"/>
		</clipPath>
		<g clip-path="url(#SVGID_46_)">
			<defs>
				<path id="SVGID_47_" d="M97.3,35.4c0,0.1,0.1,0.1,0.1,0c0,0,0.1-0.1,0.1-0.1c-0.1-0.4-0.4-0.8-0.5-1
					C97.2,34.6,97.3,35,97.3,35.4"/>
			</defs>
			<clipPath id="SVGID_48_">
				<use xlink:href="#SVGID_47_"  overflow="visible"/>
			</clipPath>
			<g clip-path="url(#SVGID_48_)">
				<defs>
					<rect id="SVGID_49_" x="97" y="34.3" width="0.5" height="1.2"/>
				</defs>
				<clipPath id="SVGID_50_">
					<use xlink:href="#SVGID_49_"  overflow="visible"/>
				</clipPath>
				
					<linearGradient id="SVGID_51_" gradientUnits="userSpaceOnUse" x1="-454.0413" y1="371.2927" x2="-452.9292" y2="371.2927" gradientTransform="matrix(0 -15.361 -15.361 0 5800.7373 -6931.8516)">
					<stop  offset="0" style="stop-color:#00053D"/>
					<stop  offset="0.2092" style="stop-color:#000941"/>
					<stop  offset="0.4334" style="stop-color:#00134E"/>
					<stop  offset="0.6638" style="stop-color:#002564"/>
					<stop  offset="0.809" style="stop-color:#003475"/>
					<stop  offset="1" style="stop-color:#006DA9"/>
				</linearGradient>
				<rect x="97" y="34.3" clip-path="url(#SVGID_50_)" fill="url(#SVGID_51_)" width="0.5" height="1.2"/>
			</g>
		</g>
	</g>
	<g>
		<defs>
			<rect id="SVGID_52_" x="-177" y="-2.2" width="147.9" height="62.2"/>
		</defs>
		<clipPath id="SVGID_53_">
			<use xlink:href="#SVGID_52_"  overflow="visible"/>
		</clipPath>
		<g clip-path="url(#SVGID_53_)">
			<defs>
				<path id="SVGID_54_" d="M103.6,36.8c-0.7,0.8-1,1.6-1,2.5c0,0.3,0.1,0.6,0.4,0.8c0.1,0,0.2,0.1,0.3,0.1c0-0.1,0-0.2,0-0.3
					c0-0.8,0.2-1.7,0.9-2.5c0.8-1,1.7-1.5,2.2-1.2c0-0.2-0.1-0.4-0.4-0.5c-0.1-0.1-0.2-0.1-0.4-0.1C105,35.5,104.3,36,103.6,36.8"/>
			</defs>
			<clipPath id="SVGID_55_">
				<use xlink:href="#SVGID_54_"  overflow="visible"/>
			</clipPath>
			<g clip-path="url(#SVGID_55_)">
				<defs>
					<rect id="SVGID_56_" x="102.6" y="35.5" width="3.7" height="4.6"/>
				</defs>
				<clipPath id="SVGID_57_">
					<use xlink:href="#SVGID_56_"  overflow="visible"/>
				</clipPath>
				
					<linearGradient id="SVGID_58_" gradientUnits="userSpaceOnUse" x1="-453.5411" y1="372.1411" x2="-452.4289" y2="372.1411" gradientTransform="matrix(0 -16.1848 -16.1848 0 6127.4663 -7297.3267)">
					<stop  offset="0" style="stop-color:#00053D"/>
					<stop  offset="0.2092" style="stop-color:#000941"/>
					<stop  offset="0.4334" style="stop-color:#00134E"/>
					<stop  offset="0.6638" style="stop-color:#002564"/>
					<stop  offset="0.809" style="stop-color:#003475"/>
					<stop  offset="1" style="stop-color:#006DA9"/>
				</linearGradient>
				<rect x="102.6" y="35.5" clip-path="url(#SVGID_57_)" fill="url(#SVGID_58_)" width="3.7" height="4.6"/>
			</g>
		</g>
	</g>
	<g>
		<defs>
			<rect id="SVGID_59_" x="-177" y="-2.2" width="147.9" height="62.2"/>
		</defs>
		<clipPath id="SVGID_60_">
			<use xlink:href="#SVGID_59_"  overflow="visible"/>
		</clipPath>
		<g clip-path="url(#SVGID_60_)">
			<defs>
				<path id="SVGID_61_" d="M90.4,34.9c0,0.1,0,0.2-0.1,0.2c-0.9,0.3-1.8,0.9-2.4,1.7c-0.7,1-0.9,2.1-0.4,2.8
					c0.1,0.2,0.2,0.3,0.4,0.3c-0.3-0.8-0.1-1.8,0.5-2.7c0.6-0.8,1.3-1.2,2.1-1.5c0.1,0,0.1-0.1,0.1-0.2C90.5,35.4,90.4,35,90.4,34.9
					L90.4,34.9z"/>
			</defs>
			<clipPath id="SVGID_62_">
				<use xlink:href="#SVGID_61_"  overflow="visible"/>
			</clipPath>
			<g clip-path="url(#SVGID_62_)">
				<defs>
					<rect id="SVGID_63_" x="87" y="34.9" width="3.6" height="5"/>
				</defs>
				<clipPath id="SVGID_64_">
					<use xlink:href="#SVGID_63_"  overflow="visible"/>
				</clipPath>
				
					<linearGradient id="SVGID_65_" gradientUnits="userSpaceOnUse" x1="-453.5466" y1="372.2345" x2="-452.4344" y2="372.2345" gradientTransform="matrix(0 -16.1752 -16.1752 0 6109.7485 -7293.0884)">
					<stop  offset="0" style="stop-color:#00053D"/>
					<stop  offset="0.2092" style="stop-color:#000941"/>
					<stop  offset="0.4334" style="stop-color:#00134E"/>
					<stop  offset="0.6638" style="stop-color:#002564"/>
					<stop  offset="0.809" style="stop-color:#003475"/>
					<stop  offset="1" style="stop-color:#006DA9"/>
				</linearGradient>
				<rect x="87" y="34.9" clip-path="url(#SVGID_64_)" fill="url(#SVGID_65_)" width="3.6" height="5"/>
			</g>
		</g>
	</g>
	<g>
		<defs>
			<rect id="SVGID_66_" x="-177" y="-2.2" width="147.9" height="62.2"/>
		</defs>
		<clipPath id="SVGID_67_">
			<use xlink:href="#SVGID_66_"  overflow="visible"/>
		</clipPath>
		<g clip-path="url(#SVGID_67_)">
			<defs>
				<path id="SVGID_68_" d="M97,37.6c-0.8,1.3-1.6,2.5-2.5,3.8c0,0.1-0.1,0.1-0.2,0.1c-0.5,0-1.1,0-1.6,0c-0.1,0-0.1,0-0.1-0.1
					c0,0.2,0.1,0.6,0.1,0.6c0,0.1,0.1,0.1,0.1,0.1c0.6,0,1.4,0,1.9,0c0.1,0,0.1,0,0.2-0.1c0.8-1.2,1.6-2.5,2.3-3.7
					c0.2,0.6,0.3,0.9,0.6,1.2c0.3,0.3,0.6,0.4,1.1,0.4c0.4,0,0.8-0.2,1.3-0.3c0.2-0.1,0.3-0.2,0.4-0.2c0-0.2,0-0.4,0.1-0.7
					c0,0,0-0.2-0.1-0.1c-0.2,0.2-0.5,0.3-0.8,0.5c-0.4,0.2-0.6,0.2-1,0.2c-0.5,0-0.9-0.2-1.3-0.7C97.2,38.3,97.1,37.9,97,37.6
					C97.1,37.6,97.1,37.6,97,37.6C97.1,37.6,97,37.6,97,37.6"/>
			</defs>
			<clipPath id="SVGID_69_">
				<use xlink:href="#SVGID_68_"  overflow="visible"/>
			</clipPath>
			<g clip-path="url(#SVGID_69_)">
				<defs>
					<rect id="SVGID_70_" x="92.6" y="37.6" width="8" height="4.6"/>
				</defs>
				<clipPath id="SVGID_71_">
					<use xlink:href="#SVGID_70_"  overflow="visible"/>
				</clipPath>
				
					<linearGradient id="SVGID_72_" gradientUnits="userSpaceOnUse" x1="-453.6112" y1="372.0649" x2="-452.4991" y2="372.0649" gradientTransform="matrix(0 -16.0646 -16.0646 0 6073.7407 -7243.9712)">
					<stop  offset="0" style="stop-color:#00053D"/>
					<stop  offset="0.2092" style="stop-color:#000941"/>
					<stop  offset="0.4334" style="stop-color:#00134E"/>
					<stop  offset="0.6638" style="stop-color:#002564"/>
					<stop  offset="0.809" style="stop-color:#003475"/>
					<stop  offset="1" style="stop-color:#006DA9"/>
				</linearGradient>
				<rect x="92.6" y="37.6" clip-path="url(#SVGID_71_)" fill="url(#SVGID_72_)" width="8" height="4.6"/>
			</g>
		</g>
	</g>
	<g>
		<defs>
			<rect id="SVGID_73_" x="-177" y="-2.2" width="147.9" height="62.2"/>
		</defs>
		<clipPath id="SVGID_74_">
			<use xlink:href="#SVGID_73_"  overflow="visible"/>
		</clipPath>
		<g clip-path="url(#SVGID_74_)">
			<defs>
				<path id="SVGID_75_" d="M100.7,40C100.7,40,100.7,40,100.7,40C100.7,40,100.7,40,100.7,40C100.7,40,100.7,40,100.7,40 M100.7,40
					C100.7,40,100.7,40,100.7,40C100.7,40,100.7,40,100.7,40 M100.7,40C100.7,40,100.7,40,100.7,40C100.7,40,100.7,40,100.7,40
					 M111.5,38.3c-0.8,1-1.7,1.9-2.5,2.6c-1.3,1-2.6,1.3-3.3,0.6c-0.2-0.2-0.4-0.6-0.4-0.9c0-0.2-0.1-0.2-0.2-0.1
					c-0.8,0.8-2.1,1.6-3.4,1c-0.6-0.3-1-0.9-1.1-1.5c0.1,0.5,0.2,1.1,0.4,1.5c0.1,0.3,0.5,0.6,0.6,0.7c1.1,0.5,2.7-0.1,3.7-1
					c0,0,0,0,0,0c0,0.2,0.1,0.4,0.1,0.4c0.1,0.2,0.2,0.4,0.3,0.5c0.7,0.8,2.1,0.4,3.7-0.7c0.8-0.7,1.5-1.3,2.2-2.2c0,0,0-0.1,0-0.2
					C111.6,38.7,111.6,38.4,111.5,38.3C111.5,38.2,111.5,38.3,111.5,38.3"/>
			</defs>
			<clipPath id="SVGID_76_">
				<use xlink:href="#SVGID_75_"  overflow="visible"/>
			</clipPath>
			<g clip-path="url(#SVGID_76_)">
				<defs>
					<rect id="SVGID_77_" x="100.7" y="38.2" width="11" height="4.6"/>
				</defs>
				<clipPath id="SVGID_78_">
					<use xlink:href="#SVGID_77_"  overflow="visible"/>
				</clipPath>
				
					<linearGradient id="SVGID_79_" gradientUnits="userSpaceOnUse" x1="-453.5383" y1="372.135" x2="-452.4261" y2="372.135" gradientTransform="matrix(0 -16.1897 -16.1897 0 6130.9048 -7299.4897)">
					<stop  offset="0" style="stop-color:#00053D"/>
					<stop  offset="0.2092" style="stop-color:#000941"/>
					<stop  offset="0.4334" style="stop-color:#00134E"/>
					<stop  offset="0.6638" style="stop-color:#002564"/>
					<stop  offset="0.809" style="stop-color:#003475"/>
					<stop  offset="1" style="stop-color:#006DA9"/>
				</linearGradient>
				<rect x="100.7" y="38.2" clip-path="url(#SVGID_78_)" fill="url(#SVGID_79_)" width="11" height="4.6"/>
			</g>
		</g>
	</g>
	<g>
		<defs>
			<rect id="SVGID_80_" x="-177" y="-2.2" width="147.9" height="62.2"/>
		</defs>
		<clipPath id="SVGID_81_">
			<use xlink:href="#SVGID_80_"  overflow="visible"/>
		</clipPath>
		<g clip-path="url(#SVGID_81_)">
			<defs>
				<path id="SVGID_82_" d="M101,35.6c-0.1,0.5-0.3,0.9-0.8,1.1c-0.4,0.2-0.8,0.2-1.1-0.1c-0.1-0.1-0.2-0.2-0.2-0.3
					c0.1,0.4,0.2,0.6,0.2,0.8c0.3,0.4,0.8,0.6,1.4,0.3c0.4-0.2,0.8-0.7,0.7-1.4c0-0.4-0.1-0.8-0.3-1.1C101,35,101.1,35.3,101,35.6"
					/>
			</defs>
			<clipPath id="SVGID_83_">
				<use xlink:href="#SVGID_82_"  overflow="visible"/>
			</clipPath>
			<g clip-path="url(#SVGID_83_)">
				<defs>
					<rect id="SVGID_84_" x="98.9" y="34.8" width="2.4" height="2.8"/>
				</defs>
				<clipPath id="SVGID_85_">
					<use xlink:href="#SVGID_84_"  overflow="visible"/>
				</clipPath>
				
					<linearGradient id="SVGID_86_" gradientUnits="userSpaceOnUse" x1="-453.5323" y1="372.1826" x2="-452.4201" y2="372.1826" gradientTransform="matrix(0 -16.2 -16.2 0 6129.4526 -7304.0933)">
					<stop  offset="0" style="stop-color:#00053D"/>
					<stop  offset="0.2092" style="stop-color:#000941"/>
					<stop  offset="0.4334" style="stop-color:#00134E"/>
					<stop  offset="0.6638" style="stop-color:#002564"/>
					<stop  offset="0.809" style="stop-color:#003475"/>
					<stop  offset="1" style="stop-color:#006DA9"/>
				</linearGradient>
				<rect x="98.9" y="34.8" clip-path="url(#SVGID_85_)" fill="url(#SVGID_86_)" width="2.4" height="2.8"/>
			</g>
		</g>
	</g>
	<g>
		<defs>
			<rect id="SVGID_87_" x="-177" y="-2.2" width="147.9" height="62.2"/>
		</defs>
		<clipPath id="SVGID_88_">
			<use xlink:href="#SVGID_87_"  overflow="visible"/>
		</clipPath>
		<g clip-path="url(#SVGID_88_)">
			<defs>
				<path id="SVGID_89_" d="M112.6,31c-0.3,0.4-5.2,8-5.5,8.7c-0.1,0.2-0.1,0.4,0,0.6c0.1,0.1,0.3,0.2,0.4,0.2
					c0-0.1,0.1-0.2,0.1-0.3c0.3-0.8,4.9-7.8,5.2-8.2c0,0,0-0.1,0-0.1C112.7,31.7,112.6,31,112.6,31C112.6,30.9,112.6,30.9,112.6,31
					 M112.6,30.9C112.6,30.9,112.6,30.9,112.6,30.9C112.6,30.9,112.6,30.9,112.6,30.9"/>
			</defs>
			<clipPath id="SVGID_90_">
				<use xlink:href="#SVGID_89_"  overflow="visible"/>
			</clipPath>
			<g clip-path="url(#SVGID_90_)">
				<defs>
					<rect id="SVGID_91_" x="107" y="30.9" width="5.8" height="9.6"/>
				</defs>
				<clipPath id="SVGID_92_">
					<use xlink:href="#SVGID_91_"  overflow="visible"/>
				</clipPath>
				
					<linearGradient id="SVGID_93_" gradientUnits="userSpaceOnUse" x1="-453.5424" y1="372.1053" x2="-452.4303" y2="372.1053" gradientTransform="matrix(0 -16.1824 -16.1824 0 6131.4253 -7296.272)">
					<stop  offset="0" style="stop-color:#00053D"/>
					<stop  offset="0.2092" style="stop-color:#000941"/>
					<stop  offset="0.4334" style="stop-color:#00134E"/>
					<stop  offset="0.6638" style="stop-color:#002564"/>
					<stop  offset="0.809" style="stop-color:#003475"/>
					<stop  offset="1" style="stop-color:#006DA9"/>
				</linearGradient>
				<rect x="107" y="30.9" clip-path="url(#SVGID_92_)" fill="url(#SVGID_93_)" width="5.8" height="9.6"/>
			</g>
		</g>
	</g>
	<g>
		<defs>
			<rect id="SVGID_94_" x="-177" y="-2.2" width="147.9" height="62.2"/>
		</defs>
		<clipPath id="SVGID_95_">
			<use xlink:href="#SVGID_94_"  overflow="visible"/>
		</clipPath>
		<g clip-path="url(#SVGID_95_)">
			<defs>
				<path id="SVGID_96_" d="M92.1,34.5c0.3,0.4,0.5,1.1,0.5,1.7c0,0.1,0.1,0.1,0.1,0.1c0.1-0.1,0.1-0.1,0.2-0.2
					c-0.1-0.3-0.2-0.7-0.4-1C92.5,35,92.3,34.6,92.1,34.5C92.1,34.5,92.1,34.5,92.1,34.5"/>
			</defs>
			<clipPath id="SVGID_97_">
				<use xlink:href="#SVGID_96_"  overflow="visible"/>
			</clipPath>
			<g clip-path="url(#SVGID_97_)">
				<defs>
					<rect id="SVGID_98_" x="92.1" y="34.4" width="0.8" height="1.9"/>
				</defs>
				<clipPath id="SVGID_99_">
					<use xlink:href="#SVGID_98_"  overflow="visible"/>
				</clipPath>
				
					<linearGradient id="SVGID_100_" gradientUnits="userSpaceOnUse" x1="-453.7636" y1="371.819" x2="-452.6514" y2="371.819" gradientTransform="matrix(0 -15.8078 -15.8078 0 5970.124 -7130.0498)">
					<stop  offset="0" style="stop-color:#00053D"/>
					<stop  offset="0.2092" style="stop-color:#000941"/>
					<stop  offset="0.4334" style="stop-color:#00134E"/>
					<stop  offset="0.6638" style="stop-color:#002564"/>
					<stop  offset="0.809" style="stop-color:#003475"/>
					<stop  offset="1" style="stop-color:#006DA9"/>
				</linearGradient>
				<rect x="92.1" y="34.4" clip-path="url(#SVGID_99_)" fill="url(#SVGID_100_)" width="0.8" height="1.9"/>
			</g>
		</g>
	</g>
	<g>
		<defs>
			<rect id="SVGID_101_" x="-177" y="-2.2" width="147.9" height="62.2"/>
		</defs>
		<clipPath id="SVGID_102_">
			<use xlink:href="#SVGID_101_"  overflow="visible"/>
		</clipPath>
		<g clip-path="url(#SVGID_102_)">
			<defs>
				<path id="SVGID_103_" d="M94.6,35.9c-1.1,0.8-2,2.1-2.4,2.6c-0.3,0.3-0.5,0.8-1.2,1.6c-1.1,1.2-2.6,1.9-4,1.4
					c-0.8-0.3-1.3-0.9-1.5-1.6c0-0.1-0.1-0.2-0.2-0.1c-0.2,0.3-0.7,0.7-1.1,1c0,0-0.1,0.1-0.2,0.1c-0.1,0-0.4-0.4-0.4-0.6
					c0,0,0,0,0,0v0c0.1,0.5,0.1,0.6,0.2,0.8c0.2,0.3,0.3,0.4,0.3,0.4c0.1,0,0.2,0,0.2,0c0.3-0.2,0.9-0.6,1.1-0.9
					c0.1-0.1,0.2,0,0.2,0.1c0.1,0.3,0.3,0.6,0.4,0.9c0.2,0.3,0.6,0.6,1.1,0.8c0.6,0.2,1.3,0.2,2.2-0.1c0.7-0.3,1.5-0.8,2.1-1.5
					c0.7-0.8,1-1.2,1.2-1.6c0.5-0.6,1.2-1.6,2.1-2.4c0.3-0.3,0.7-0.5,1-0.4c0.1-0.4,0.1-0.6-0.1-0.7c-0.1,0-0.1,0-0.2,0
					C95.3,35.5,94.9,35.7,94.6,35.9"/>
			</defs>
			<clipPath id="SVGID_104_">
				<use xlink:href="#SVGID_103_"  overflow="visible"/>
			</clipPath>
			<g clip-path="url(#SVGID_104_)">
				<defs>
					<rect id="SVGID_105_" x="83.5" y="35.5" width="12.4" height="6.9"/>
				</defs>
				<clipPath id="SVGID_106_">
					<use xlink:href="#SVGID_105_"  overflow="visible"/>
				</clipPath>
				
					<linearGradient id="SVGID_107_" gradientUnits="userSpaceOnUse" x1="-453.606" y1="372.1159" x2="-452.4939" y2="372.1159" gradientTransform="matrix(0 -16.0735 -16.0735 0 6070.9131 -7247.8921)">
					<stop  offset="0" style="stop-color:#00053D"/>
					<stop  offset="0.2092" style="stop-color:#000941"/>
					<stop  offset="0.4334" style="stop-color:#00134E"/>
					<stop  offset="0.6638" style="stop-color:#002564"/>
					<stop  offset="0.809" style="stop-color:#003475"/>
					<stop  offset="1" style="stop-color:#006DA9"/>
				</linearGradient>
				<rect x="83.5" y="35.5" clip-path="url(#SVGID_106_)" fill="url(#SVGID_107_)" width="12.4" height="6.9"/>
			</g>
		</g>
	</g>
	<g>
		<defs>
			<rect id="SVGID_108_" x="-177" y="-2.2" width="147.9" height="62.2"/>
		</defs>
		<clipPath id="SVGID_109_">
			<use xlink:href="#SVGID_108_"  overflow="visible"/>
		</clipPath>
		<g clip-path="url(#SVGID_109_)">
			<defs>
				<path id="SVGID_110_" d="M76.9,34.9c-0.6,0.3-1.3,0.8-1.7,1.5c-0.3,0.6-0.3,1.3,0.1,2c0,0.1,0.1,0.1,0.1,0.2
					c-0.1-0.6,0-1.2,0.2-1.6c0.4-0.7,0.9-1.1,1.3-1.4c0.2-0.1,0.3-0.3,0.2-0.6c0-0.1-0.1-0.3-0.1-0.4C77.1,34.7,77,34.9,76.9,34.9"
					/>
			</defs>
			<clipPath id="SVGID_111_">
				<use xlink:href="#SVGID_110_"  overflow="visible"/>
			</clipPath>
			<g clip-path="url(#SVGID_111_)">
				<defs>
					<rect id="SVGID_112_" x="74.9" y="34.6" width="2.4" height="4"/>
				</defs>
				<clipPath id="SVGID_113_">
					<use xlink:href="#SVGID_112_"  overflow="visible"/>
				</clipPath>
				
					<linearGradient id="SVGID_114_" gradientUnits="userSpaceOnUse" x1="-453.5434" y1="372.3148" x2="-452.4312" y2="372.3148" gradientTransform="matrix(0 -16.1807 -16.1807 0 6100.4194 -7295.5342)">
					<stop  offset="0" style="stop-color:#00053D"/>
					<stop  offset="0.2092" style="stop-color:#000941"/>
					<stop  offset="0.4334" style="stop-color:#00134E"/>
					<stop  offset="0.6638" style="stop-color:#002564"/>
					<stop  offset="0.809" style="stop-color:#003475"/>
					<stop  offset="1" style="stop-color:#006DA9"/>
				</linearGradient>
				<rect x="74.9" y="34.6" clip-path="url(#SVGID_113_)" fill="url(#SVGID_114_)" width="2.4" height="4"/>
			</g>
		</g>
	</g>
	<g>
		<defs>
			<rect id="SVGID_115_" x="-177" y="-2.2" width="147.9" height="62.2"/>
		</defs>
		<clipPath id="SVGID_116_">
			<use xlink:href="#SVGID_115_"  overflow="visible"/>
		</clipPath>
		<g clip-path="url(#SVGID_116_)">
			<defs>
				<path id="SVGID_117_" d="M81.4,27.8c-1.7,0.6-2.5,2-2.1,2.9c0.1,0.2,0.2,0.3,0.3,0.4c-0.1-0.8,0.5-2.2,2.2-2.8
					c2.2-0.7,4.6-0.3,6.6,0.2c0.3-0.2,0.5-0.3,0.7-0.4c0.1-0.1,0-0.1-0.1-0.1c-1.6-0.3-3.2-0.6-4.7-0.6
					C83.3,27.3,82.4,27.4,81.4,27.8"/>
			</defs>
			<clipPath id="SVGID_118_">
				<use xlink:href="#SVGID_117_"  overflow="visible"/>
			</clipPath>
			<g clip-path="url(#SVGID_118_)">
				<defs>
					<rect id="SVGID_119_" x="78.9" y="27.3" width="10.3" height="3.8"/>
				</defs>
				<clipPath id="SVGID_120_">
					<use xlink:href="#SVGID_119_"  overflow="visible"/>
				</clipPath>
				
					<linearGradient id="SVGID_121_" gradientUnits="userSpaceOnUse" x1="-453.5457" y1="372.2654" x2="-452.4335" y2="372.2654" gradientTransform="matrix(0 -16.1768 -16.1768 0 6106.1265 -7293.7822)">
					<stop  offset="0" style="stop-color:#00053D"/>
					<stop  offset="0.2092" style="stop-color:#000941"/>
					<stop  offset="0.4334" style="stop-color:#00134E"/>
					<stop  offset="0.6638" style="stop-color:#002564"/>
					<stop  offset="0.809" style="stop-color:#003475"/>
					<stop  offset="1" style="stop-color:#006DA9"/>
				</linearGradient>
				<rect x="78.9" y="27.3" clip-path="url(#SVGID_120_)" fill="url(#SVGID_121_)" width="10.3" height="3.8"/>
			</g>
		</g>
	</g>
	<g>
		<defs>
			<rect id="SVGID_122_" x="-177" y="-2.2" width="147.9" height="62.2"/>
		</defs>
		<clipPath id="SVGID_123_">
			<use xlink:href="#SVGID_122_"  overflow="visible"/>
		</clipPath>
		<g clip-path="url(#SVGID_123_)">
			<defs>
				<path id="SVGID_124_" d="M88.7,32.9c-0.8,0-2,0.2-2.8,0.3c-0.2,0-0.2,0.1-0.3,0.1c-1.3,2.2-2.7,4.5-4.3,6.1
					c-1.7,1.7-3,2.1-4.5,2.1c-1.7,0-3.2-0.9-3.6-2.6c0.2,0.9,0.8,2.1,1.5,2.6c0.7,0.5,1.4,0.7,2.2,0.7c1.7,0,3.2-0.7,4.8-2.3
					c1.5-1.6,2.9-3.8,4.2-5.9c0-0.1,0.1-0.1,0.3-0.1c0.8-0.1,1.6-0.2,2.3-0.2c0.2,0,0.4,0,0.5,0c0.3,0.3,0.6,0.5,0.8,0.6
					c0.1,0,0.2,0,0.3,0.1c0.1,0,0.2-0.1,0.2-0.1c0.1-0.1,0.1-0.2,0.1-0.3c0-0.2-0.1-0.5-0.1-0.6c0,0.1,0,0.2-0.1,0.3
					c-0.1,0.1-0.1,0.1-0.3,0.1c-0.1,0-0.2,0-0.3-0.1c-0.2-0.1-0.6-0.4-0.8-0.6c-0.1-0.1-0.1-0.1-0.2-0.1
					C88.7,32.9,88.7,32.9,88.7,32.9"/>
			</defs>
			<clipPath id="SVGID_125_">
				<use xlink:href="#SVGID_124_"  overflow="visible"/>
			</clipPath>
			<g clip-path="url(#SVGID_125_)">
				<defs>
					<rect id="SVGID_126_" x="73.2" y="32.9" width="17.2" height="9.3"/>
				</defs>
				<clipPath id="SVGID_127_">
					<use xlink:href="#SVGID_126_"  overflow="visible"/>
				</clipPath>
				
					<linearGradient id="SVGID_128_" gradientUnits="userSpaceOnUse" x1="-453.5433" y1="372.2777" x2="-452.4311" y2="372.2777" gradientTransform="matrix(0 -16.181 -16.181 0 6105.6353 -7295.6294)">
					<stop  offset="0" style="stop-color:#00053D"/>
					<stop  offset="0.2092" style="stop-color:#000941"/>
					<stop  offset="0.4334" style="stop-color:#00134E"/>
					<stop  offset="0.6638" style="stop-color:#002564"/>
					<stop  offset="0.809" style="stop-color:#003475"/>
					<stop  offset="1" style="stop-color:#006DA9"/>
				</linearGradient>
				<rect x="73.2" y="32.9" clip-path="url(#SVGID_127_)" fill="url(#SVGID_128_)" width="17.2" height="9.3"/>
			</g>
		</g>
	</g>
	<g>
		<defs>
			<rect id="SVGID_129_" x="-177" y="-2.2" width="147.9" height="62.2"/>
		</defs>
		<clipPath id="SVGID_130_">
			<use xlink:href="#SVGID_129_"  overflow="visible"/>
		</clipPath>
		<g clip-path="url(#SVGID_130_)">
			<defs>
				<path id="SVGID_131_" d="M81.5,34.2c-0.2,0.1-0.4,0.1-0.6-0.1c0-0.1-0.1-0.1-0.1-0.2c0,0.3,0.1,0.7,0.2,0.8
					c0.1,0.2,0.4,0.2,0.6,0.1c0.5-0.4,1-0.6,1.5-0.7c0.1-0.2,0.3-0.4,0.4-0.6c0,0,0,0,0-0.1c0,0,0,0-0.1,0
					C82.8,33.5,82.1,33.7,81.5,34.2"/>
			</defs>
			<clipPath id="SVGID_132_">
				<use xlink:href="#SVGID_131_"  overflow="visible"/>
			</clipPath>
			<g clip-path="url(#SVGID_132_)">
				<defs>
					<rect id="SVGID_133_" x="80.9" y="33.5" width="2.7" height="1.5"/>
				</defs>
				<clipPath id="SVGID_134_">
					<use xlink:href="#SVGID_133_"  overflow="visible"/>
				</clipPath>
				
					<linearGradient id="SVGID_135_" gradientUnits="userSpaceOnUse" x1="-453.5463" y1="372.2703" x2="-452.4342" y2="372.2703" gradientTransform="matrix(0 -16.1757 -16.1757 0 6103.9731 -7293.293)">
					<stop  offset="0" style="stop-color:#00053D"/>
					<stop  offset="0.2092" style="stop-color:#000941"/>
					<stop  offset="0.4334" style="stop-color:#00134E"/>
					<stop  offset="0.6638" style="stop-color:#002564"/>
					<stop  offset="0.809" style="stop-color:#003475"/>
					<stop  offset="1" style="stop-color:#006DA9"/>
				</linearGradient>
				<rect x="80.9" y="33.5" clip-path="url(#SVGID_134_)" fill="url(#SVGID_135_)" width="2.7" height="1.5"/>
			</g>
		</g>
	</g>
	<g>
		<defs>
			<rect id="SVGID_136_" x="-177" y="-2.2" width="147.9" height="62.2"/>
		</defs>
		<clipPath id="SVGID_137_">
			<use xlink:href="#SVGID_136_"  overflow="visible"/>
		</clipPath>
		<g clip-path="url(#SVGID_137_)">
			<defs>
				<path id="SVGID_138_" d="M102.6,27.3C102.6,27.3,102.6,27.3,102.6,27.3C102.6,27.3,102.6,27.3,102.6,27.3"/>
			</defs>
			<clipPath id="SVGID_139_">
				<use xlink:href="#SVGID_138_"  overflow="visible"/>
			</clipPath>
			<g clip-path="url(#SVGID_139_)">
				<defs>
					<rect id="SVGID_140_" x="102.5" y="27.3" width="0" height="0.1"/>
				</defs>
				<clipPath id="SVGID_141_">
					<use xlink:href="#SVGID_140_"  overflow="visible"/>
				</clipPath>
				
					<linearGradient id="SVGID_142_" gradientUnits="userSpaceOnUse" x1="-453.3242" y1="372.5423" x2="-452.212" y2="372.5423" gradientTransform="matrix(0 -16.572 -16.572 0 6276.3257 -7468.96)">
					<stop  offset="0" style="stop-color:#00053D"/>
					<stop  offset="0.2092" style="stop-color:#000941"/>
					<stop  offset="0.4334" style="stop-color:#00134E"/>
					<stop  offset="0.6638" style="stop-color:#002564"/>
					<stop  offset="0.809" style="stop-color:#003475"/>
					<stop  offset="1" style="stop-color:#006DA9"/>
				</linearGradient>
				<rect x="102.5" y="27.3" clip-path="url(#SVGID_141_)" fill="url(#SVGID_142_)" width="0" height="0.1"/>
			</g>
		</g>
	</g>
	<g>
		<defs>
			<rect id="SVGID_143_" x="-177" y="-2.2" width="147.9" height="62.2"/>
		</defs>
		<clipPath id="SVGID_144_">
			<use xlink:href="#SVGID_143_"  overflow="visible"/>
		</clipPath>
		<g clip-path="url(#SVGID_144_)">
			<defs>
				<path id="SVGID_145_" d="M102.6,27.6c0,0.5-0.4,0.9-1.3,1.4c-1,0.6-2.1,0.7-3.3,0.8c-2.8,0-5.3-1.1-8-1.6c0,0.1,0,0.3-0.1,0.3
					c-1.5,1.1-2.8,2.2-3.7,3.7c0,0,0,0.1,0,0.1c0.2,0,0.5,0,0.7,0c0.8-1.3,1.7-2,3-3c0.1-0.1,0.2-0.1,0.2-0.4
					c2.7,0.6,4.7,1.6,8.2,1.6c1,0,2.5-0.3,3.3-0.8c0.9-0.5,1.1-0.9,1.2-1.4c0-0.1,0-0.3,0-0.4c0-0.1-0.1-0.3-0.1-0.5
					C102.6,27.5,102.6,27.5,102.6,27.6"/>
			</defs>
			<clipPath id="SVGID_146_">
				<use xlink:href="#SVGID_145_"  overflow="visible"/>
			</clipPath>
			<g clip-path="url(#SVGID_146_)">
				<defs>
					<rect id="SVGID_147_" x="86.2" y="27.4" width="16.5" height="4.9"/>
				</defs>
				<clipPath id="SVGID_148_">
					<use xlink:href="#SVGID_147_"  overflow="visible"/>
				</clipPath>
				
					<linearGradient id="SVGID_149_" gradientUnits="userSpaceOnUse" x1="-453.5439" y1="372.1981" x2="-452.4317" y2="372.1981" gradientTransform="matrix(0 -16.18 -16.18 0 6116.6509 -7295.1948)">
					<stop  offset="0" style="stop-color:#00053D"/>
					<stop  offset="0.2092" style="stop-color:#000941"/>
					<stop  offset="0.4334" style="stop-color:#00134E"/>
					<stop  offset="0.6638" style="stop-color:#002564"/>
					<stop  offset="0.809" style="stop-color:#003475"/>
					<stop  offset="1" style="stop-color:#006DA9"/>
				</linearGradient>
				<rect x="86.2" y="27.4" clip-path="url(#SVGID_148_)" fill="url(#SVGID_149_)" width="16.5" height="4.9"/>
			</g>
		</g>
	</g>
	<g>
		<defs>
			<rect id="SVGID_150_" x="-177" y="-2.2" width="147.9" height="62.2"/>
		</defs>
		<clipPath id="SVGID_151_">
			<use xlink:href="#SVGID_150_"  overflow="visible"/>
		</clipPath>
		<g clip-path="url(#SVGID_151_)">
			<defs>
				<path id="SVGID_152_" d="M89.8,30.9c0,0-0.1,0.1-0.1,0.1c-0.3,0.3-0.3,0.6-0.3,0.9c0,0.1,0.1,0.1,0.1,0.1c0.1,0,0.1,0,0.2,0
					c0-0.2,0.1-0.3,0.2-0.4c0.1-0.1,0.2-0.1,0.4-0.1c0.1-0.2,0.1-0.4,0-0.6c-0.1,0-0.1-0.1-0.2-0.1C89.9,30.8,89.8,30.8,89.8,30.9"
					/>
			</defs>
			<clipPath id="SVGID_153_">
				<use xlink:href="#SVGID_152_"  overflow="visible"/>
			</clipPath>
			<g clip-path="url(#SVGID_153_)">
				<defs>
					<rect id="SVGID_154_" x="89.3" y="30.8" width="1" height="1.2"/>
				</defs>
				<clipPath id="SVGID_155_">
					<use xlink:href="#SVGID_154_"  overflow="visible"/>
				</clipPath>
				
					<linearGradient id="SVGID_156_" gradientUnits="userSpaceOnUse" x1="-454.0994" y1="371.2365" x2="-452.9872" y2="371.2365" gradientTransform="matrix(0 -15.2695 -15.2695 0 5758.4121 -6891.3447)">
					<stop  offset="0" style="stop-color:#00053D"/>
					<stop  offset="0.2092" style="stop-color:#000941"/>
					<stop  offset="0.4334" style="stop-color:#00134E"/>
					<stop  offset="0.6638" style="stop-color:#002564"/>
					<stop  offset="0.809" style="stop-color:#003475"/>
					<stop  offset="1" style="stop-color:#006DA9"/>
				</linearGradient>
				<rect x="89.3" y="30.8" clip-path="url(#SVGID_155_)" fill="url(#SVGID_156_)" width="1" height="1.2"/>
			</g>
		</g>
	</g>
	<g>
		<defs>
			<rect id="SVGID_157_" x="-177" y="-2.2" width="147.9" height="62.2"/>
		</defs>
		<clipPath id="SVGID_158_">
			<use xlink:href="#SVGID_157_"  overflow="visible"/>
		</clipPath>
		<g clip-path="url(#SVGID_158_)">
			<defs>
				<path id="SVGID_159_" d="M90.8,31.8c-0.3,0.5-0.7,0.7-1.1,0.9c0,0-0.1,0-0.1,0.1c0,0.1,0.3,0.3,0.5,0.4c0,0,0.1,0,0.1,0
					c0.2-0.1,0.5-0.3,0.7-0.7c0.1-0.3,0.2-0.5,0.1-1c0-0.3-0.1-0.6-0.2-0.8C91.1,31,91,31.4,90.8,31.8"/>
			</defs>
			<clipPath id="SVGID_160_">
				<use xlink:href="#SVGID_159_"  overflow="visible"/>
			</clipPath>
			<g clip-path="url(#SVGID_160_)">
				<defs>
					<rect id="SVGID_161_" x="89.7" y="30.6" width="1.5" height="2.5"/>
				</defs>
				<clipPath id="SVGID_162_">
					<use xlink:href="#SVGID_161_"  overflow="visible"/>
				</clipPath>
				
					<linearGradient id="SVGID_163_" gradientUnits="userSpaceOnUse" x1="-453.544" y1="372.2224" x2="-452.4319" y2="372.2224" gradientTransform="matrix(0 -16.1797 -16.1797 0 6112.8643 -7295.0737)">
					<stop  offset="0" style="stop-color:#00053D"/>
					<stop  offset="0.2092" style="stop-color:#000941"/>
					<stop  offset="0.4334" style="stop-color:#00134E"/>
					<stop  offset="0.6638" style="stop-color:#002564"/>
					<stop  offset="0.809" style="stop-color:#003475"/>
					<stop  offset="1" style="stop-color:#006DA9"/>
				</linearGradient>
				<rect x="89.7" y="30.6" clip-path="url(#SVGID_162_)" fill="url(#SVGID_163_)" width="1.5" height="2.5"/>
			</g>
		</g>
	</g>
	<g>
		<defs>
			<rect id="SVGID_164_" x="-177" y="-2.2" width="147.9" height="62.2"/>
		</defs>
		<clipPath id="SVGID_165_">
			<use xlink:href="#SVGID_164_"  overflow="visible"/>
		</clipPath>
		<g clip-path="url(#SVGID_165_)">
			<defs>
				<path id="SVGID_166_" d="M83.4,30.1c-0.7,1.7-2.1,3.1-3.8,3.1c-1,0-1.8-0.5-2.2-1.3c0.3,0.6,0.8,1.1,1.3,1.4
					c0.4,0.2,0.8,0.4,1.3,0.3c1.8-0.1,3.1-1.5,3.6-2.8c0.1-0.3,0-0.7,0-0.9c0-0.1-0.1-0.3-0.1-0.5C83.5,29.7,83.5,29.8,83.4,30.1"/>
			</defs>
			<clipPath id="SVGID_167_">
				<use xlink:href="#SVGID_166_"  overflow="visible"/>
			</clipPath>
			<g clip-path="url(#SVGID_167_)">
				<defs>
					<rect id="SVGID_168_" x="77.4" y="29.5" width="6.3" height="4.2"/>
				</defs>
				<clipPath id="SVGID_169_">
					<use xlink:href="#SVGID_168_"  overflow="visible"/>
				</clipPath>
				
					<linearGradient id="SVGID_170_" gradientUnits="userSpaceOnUse" x1="-453.5464" y1="372.2784" x2="-452.4343" y2="372.2784" gradientTransform="matrix(0 -16.1754 -16.1754 0 6102.3389 -7293.1851)">
					<stop  offset="0" style="stop-color:#00053D"/>
					<stop  offset="0.2092" style="stop-color:#000941"/>
					<stop  offset="0.4334" style="stop-color:#00134E"/>
					<stop  offset="0.6638" style="stop-color:#002564"/>
					<stop  offset="0.809" style="stop-color:#003475"/>
					<stop  offset="1" style="stop-color:#006DA9"/>
				</linearGradient>
				<rect x="77.4" y="29.5" clip-path="url(#SVGID_169_)" fill="url(#SVGID_170_)" width="6.3" height="4.2"/>
			</g>
		</g>
	</g>
	<g>
		<defs>
			<rect id="SVGID_171_" x="-177" y="-2.2" width="147.9" height="62.2"/>
		</defs>
		<clipPath id="SVGID_172_">
			<use xlink:href="#SVGID_171_"  overflow="visible"/>
		</clipPath>
		<path clip-path="url(#SVGID_172_)" fill="#58595B" d="M92.8,21.9c-18.7,0-33.7,5.6-33.7,12.6c0,7,15.1,12.6,33.7,12.6
			s33.7-5.7,33.7-12.6C126.5,27.6,111.4,21.9,92.8,21.9 M59.3,34.7c0-1.5,0.6-2.9,2-4.3c4.8-4.9,17.5-8.2,31.4-8.2
			c18.4-0.1,33.5,5.4,33.5,12.3c0,1.5-0.7,2.9-2.1,4.3c-4.8,4.9-17.4,8.2-31.3,8.2C74.4,47.1,59.3,41.6,59.3,34.7 M126.3,33.6
			c0,0.1,0,0.1,0,0.2C126.3,33.7,126.3,33.7,126.3,33.6"/>
	</g>
	<g>
		<defs>
			<rect id="SVGID_173_" x="-177" y="-2.2" width="147.9" height="62.2"/>
		</defs>
		<clipPath id="SVGID_174_">
			<use xlink:href="#SVGID_173_"  overflow="visible"/>
		</clipPath>
		<g clip-path="url(#SVGID_174_)">
			<defs>
				<path id="SVGID_175_" d="M59.2,34.6c0,0.3,0,0.7,0.1,1c-0.1-0.3-0.1-0.6-0.1-0.8c0-1.5,0.7-3,2-4.4c4.8-4.9,17.5-8.2,31.5-8.2
					c1.9,0,3.8,0,5.7,0.2c-1.8-0.1-3.7-0.2-5.6-0.2C74.2,22.1,59.2,27.6,59.2,34.6"/>
			</defs>
			<clipPath id="SVGID_176_">
				<use xlink:href="#SVGID_175_"  overflow="visible"/>
			</clipPath>
			<g clip-path="url(#SVGID_176_)">
				<defs>
					
						<rect id="SVGID_177_" x="67.2" y="8.1" transform="matrix(0.2588 0.9659 -0.9659 0.2588 86.2233 -54.7586)" width="23.2" height="41.4"/>
				</defs>
				<clipPath id="SVGID_178_">
					<use xlink:href="#SVGID_177_"  overflow="visible"/>
				</clipPath>
				
					<linearGradient id="SVGID_179_" gradientUnits="userSpaceOnUse" x1="-452.1868" y1="380.7148" x2="-451.0746" y2="380.7148" gradientTransform="matrix(-6.9982 -26.1177 -26.1177 6.9982 6864.2275 -14421.1494)">
					<stop  offset="0" style="stop-color:#B1B3B6"/>
					<stop  offset="0.35" style="stop-color:#DCDDDE"/>
					<stop  offset="0.65" style="stop-color:#DCDDDE"/>
					<stop  offset="1" style="stop-color:#B1B3B6"/>
				</linearGradient>
				<polygon clip-path="url(#SVGID_178_)" fill="url(#SVGID_179_)" points="58.9,56.8 47.5,14.5 98.7,0.8 110,43.1 				"/>
			</g>
		</g>
	</g>
	<g>
		<defs>
			<rect id="SVGID_180_" x="-177" y="-2.2" width="147.9" height="62.2"/>
		</defs>
		<clipPath id="SVGID_181_">
			<use xlink:href="#SVGID_180_"  overflow="visible"/>
		</clipPath>
		<g clip-path="url(#SVGID_181_)">
			<defs>
				<path id="SVGID_182_" d="M126.3,34.4c0,1.5-0.7,3-2.1,4.4c-4.8,4.9-17.5,8.2-31.4,8.3c-2,0-3.9,0-5.8-0.2
					c1.9,0.1,3.8,0.2,5.7,0.2c18.5,0,33.6-5.7,33.6-12.5c0-0.3,0-0.5-0.1-0.8C126.3,34,126.3,34.2,126.3,34.4"/>
			</defs>
			<clipPath id="SVGID_183_">
				<use xlink:href="#SVGID_182_"  overflow="visible"/>
			</clipPath>
			<g clip-path="url(#SVGID_183_)">
				<defs>
					
						<rect id="SVGID_184_" x="95.2" y="19.7" transform="matrix(0.2588 0.9659 -0.9659 0.2588 118.1585 -73.0858)" width="23" height="41.4"/>
				</defs>
				<clipPath id="SVGID_185_">
					<use xlink:href="#SVGID_184_"  overflow="visible"/>
				</clipPath>
				
					<linearGradient id="SVGID_186_" gradientUnits="userSpaceOnUse" x1="-452.1865" y1="380.5861" x2="-451.0744" y2="380.5861" gradientTransform="matrix(-6.9657 -25.9965 -25.9965 6.9657 6849.9609 -14368.998)">
					<stop  offset="0" style="stop-color:#B1B3B6"/>
					<stop  offset="0.35" style="stop-color:#DCDDDE"/>
					<stop  offset="0.65" style="stop-color:#DCDDDE"/>
					<stop  offset="1" style="stop-color:#B1B3B6"/>
				</linearGradient>
				<polygon clip-path="url(#SVGID_185_)" fill="url(#SVGID_186_)" points="86.8,68.4 75.5,26.2 126.6,12.5 137.9,54.7 				"/>
			</g>
		</g>
	</g>
	<g>
		<defs>
			<rect id="SVGID_187_" x="-177" y="-2.2" width="147.9" height="62.2"/>
		</defs>
		<clipPath id="SVGID_188_">
			<use xlink:href="#SVGID_187_"  overflow="visible"/>
		</clipPath>
		<g clip-path="url(#SVGID_188_)">
			<defs>
				<path id="SVGID_189_" d="M62.1,34.6c0-5.6,13.7-10.1,30.7-10.1c16.9,0,30.7,4.5,30.7,10.1c0,5.6-13.7,10.1-30.7,10.1
					C75.8,44.7,62.1,40.2,62.1,34.6 M61,34.6c0,6.1,14.2,11.1,31.8,11.1c17.6,0,31.8-5,31.8-11.1c0-6.1-14.2-11.1-31.8-11.1
					C75.2,23.5,61,28.5,61,34.6"/>
			</defs>
			<clipPath id="SVGID_190_">
				<use xlink:href="#SVGID_189_"  overflow="visible"/>
			</clipPath>
			<g clip-path="url(#SVGID_190_)">
				<defs>
					<rect id="SVGID_191_" x="61" y="23.5" width="63.6" height="22.1"/>
				</defs>
				<clipPath id="SVGID_192_">
					<use xlink:href="#SVGID_191_"  overflow="visible"/>
				</clipPath>
				
					<linearGradient id="SVGID_193_" gradientUnits="userSpaceOnUse" x1="-437.7066" y1="400.4229" x2="-436.5945" y2="400.4229" gradientTransform="matrix(0 23.205 23.205 0 -9199.0479 10178.6318)">
					<stop  offset="0" style="stop-color:#FFFFFF"/>
					<stop  offset="0.5122" style="stop-color:#FDFDFD"/>
					<stop  offset="0.691" style="stop-color:#F8F8F8"/>
					<stop  offset="0.8" style="stop-color:#D1D3D4"/>
					<stop  offset="1" style="stop-color:#BCBEC0"/>
				</linearGradient>
				<rect x="61" y="23.5" clip-path="url(#SVGID_192_)" fill="url(#SVGID_193_)" width="63.6" height="22.1"/>
			</g>
		</g>
	</g>
	<g>
		<defs>
			<rect id="SVGID_194_" x="-177" y="-2.2" width="147.9" height="62.2"/>
		</defs>
		<clipPath id="SVGID_195_">
			<use xlink:href="#SVGID_194_"  overflow="visible"/>
		</clipPath>
		<g clip-path="url(#SVGID_195_)">
			<defs>
				<path id="SVGID_196_" d="M102.9,40.1c-0.3-0.1-0.4-0.5-0.4-0.8c0-0.8,0.4-1.6,1-2.5c0.8-1,1.7-1.5,2.3-1.2
					c0.6,0.3,0.4,1,0.1,1.5c0,0,0,0.1,0,0.1c0,0.1,0.1,0.1,0.2,0.1c0,0,0,0,0,0.1c-0.2,0.4-0.4,0.7-0.7,1.1
					c-0.2,0.4-0.5,0.6-0.8,0.9c-0.4,0.3-0.9,0.7-1.4,0.7C103.2,40.2,103.1,40.1,102.9,40.1 M110.8,30.8c-0.1,0-0.2,0-0.3,0.1
					c-0.2,0.4-2.6,3.9-3,4.6c-0.1,0.1-0.2,0.1-0.2,0c0-0.4-0.4-0.9-1-1.1c-0.4-0.2-0.8-0.2-1.3-0.1c-0.8,0.1-1.5,0.5-2.1,1
					c-0.9,0.7-1.7,1.6-2.7,2.3c-0.6,0.4-1.3,0.7-1.8,0.2c-0.5-0.4-0.4-1.4,0.3-2.1c0.1-0.1,0.2,0,0.1,0.1c-0.1,0.3,0,0.7,0.3,0.9
					c0.3,0.3,0.8,0.3,1.1,0.1c0.4-0.2,0.7-0.7,0.8-1.1c0.1-0.8-0.5-1.4-1.2-1.5c-0.6,0-1.2,0.2-1.7,0.6c-0.3,0.2-0.4,0.4-0.7,0.7
					c-0.1,0.1-0.1,0.1-0.1,0c0-1-0.4-1.5-1.2-1.5c-0.6,0-1.3,0.3-1.8,0.7c-0.6,0.5-1.1,1.1-1.6,1.6c-0.1,0.1-0.1,0.1-0.1-0.1
					c0-0.6-0.2-1.3-0.5-1.7c-0.1-0.2-0.3-0.2-0.5-0.1c-0.1,0-0.4,0.2-0.6,0.4c-0.1,0.1-0.2,0.2-0.1,0.4c0.3,1,0.2,2-0.2,3
					c-0.4,0.8-1.1,1.6-1.9,1.9c-0.5,0.2-1.1,0.1-1.4-0.4c-0.5-0.7-0.3-1.8,0.4-2.8c0.6-0.8,1.5-1.4,2.4-1.7c0.1,0,0.1-0.1,0.1-0.2
					c-0.1-0.1-0.1-0.3-0.2-0.4c-0.1-0.2-0.3-0.3-0.6-0.2c-0.7,0.1-1.2,0.3-1.8,0.6c-1.5,0.8-2.3,2.4-2.6,3.2
					c-0.2,0.4-0.3,0.7-0.5,0.9c-0.2,0.3-0.5,0.6-1.1,1.1c0,0-0.1,0.1,0,0.2c0.1,0.1,0.3,0.5,0.4,0.6c0.1,0,0.2,0,0.2-0.1
					c0.4-0.3,0.9-0.7,1.1-1c0.1-0.1,0.2-0.1,0.2,0.1c0.2,0.8,0.8,1.4,1.5,1.6c1.4,0.5,2.9-0.2,4-1.4c0.7-0.8,0.9-1.2,1.2-1.6
					c0.5-0.6,1.3-1.8,2.4-2.6c0.4-0.3,0.9-0.5,1.1-0.4c0.2,0.1,0.2,0.4-0.1,0.9c-1.1,2-2.7,4.3-3,4.9c-0.1,0.1,0,0.2,0.1,0.2
					c0.6,0,1.1,0,1.6,0c0.1,0,0.1,0,0.2-0.1c0.8-1.3,1.6-2.5,2.5-3.8c0-0.1,0.1,0,0.1,0c0,0.3,0.1,0.7,0.3,1
					c0.3,0.5,0.8,0.7,1.3,0.7c0.4,0,0.6-0.1,1-0.2c0.3-0.1,0.6-0.3,0.8-0.5c0.1-0.1,0.1,0.1,0.1,0.1c-0.2,1,0,2.3,1.1,2.8
					c1.2,0.6,2.6-0.2,3.4-1c0.1-0.1,0.2-0.1,0.2,0.1c0,0.3,0.2,0.6,0.4,0.9c0.7,0.7,2,0.4,3.3-0.6c0.8-0.7,1.7-1.6,2.5-2.6
					c0,0,0.1-0.1,0-0.2c-0.1-0.1-0.3-0.3-0.4-0.4c-0.1,0-0.1,0-0.2,0c-0.8,0.8-1.6,1.7-2.6,2.4c-0.4,0.3-0.9,0.5-1.2,0.1
					c-0.1-0.1-0.1-0.3,0-0.6c0.3-0.8,5.2-8.3,5.5-8.7c0-0.1,0-0.1-0.1-0.1C112,30.8,111.3,30.8,110.8,30.8"/>
			</defs>
			<clipPath id="SVGID_197_">
				<use xlink:href="#SVGID_196_"  overflow="visible"/>
			</clipPath>
			<g clip-path="url(#SVGID_197_)">
				<defs>
					<rect id="SVGID_198_" x="83.5" y="30.8" width="29.1" height="11.3"/>
				</defs>
				<clipPath id="SVGID_199_">
					<use xlink:href="#SVGID_198_"  overflow="visible"/>
				</clipPath>
				
					<linearGradient id="SVGID_200_" gradientUnits="userSpaceOnUse" x1="-431.0767" y1="412.2514" x2="-429.9646" y2="412.2514" gradientTransform="matrix(0 11.5076 11.5076 0 -4645.9668 4990.5527)">
					<stop  offset="0" style="stop-color:#FFFFFF"/>
					<stop  offset="0.3982" style="stop-color:#FDFDFD"/>
					<stop  offset="0.5805" style="stop-color:#F5F5F6"/>
					<stop  offset="0.691" style="stop-color:#ECECED"/>
					<stop  offset="0.8" style="stop-color:#E6E7E8"/>
					<stop  offset="1" style="stop-color:#D1D3D4"/>
				</linearGradient>
				<rect x="83.5" y="30.8" clip-path="url(#SVGID_199_)" fill="url(#SVGID_200_)" width="29.1" height="11.3"/>
			</g>
		</g>
	</g>
	<g>
		<defs>
			<rect id="SVGID_201_" x="-177" y="-2.2" width="147.9" height="62.2"/>
		</defs>
		<clipPath id="SVGID_202_">
			<use xlink:href="#SVGID_201_"  overflow="visible"/>
		</clipPath>
		<g clip-path="url(#SVGID_202_)">
			<defs>
				<path id="SVGID_203_" d="M89.4,31.9c0-0.3,0.1-0.7,0.4-1c0.2-0.1,0.4-0.2,0.5-0.1c0.1,0.1,0.1,0.4-0.1,0.7
					c-0.2,0.2-0.4,0.4-0.7,0.5c0,0,0,0,0,0C89.4,32,89.4,32,89.4,31.9 M83.1,26.3c-3,0.3-5.9,2-5.9,4.6c0,1.3,0.9,2.4,2.4,2.3
					c1.7-0.1,3.1-1.4,3.8-3.1c0.3-0.7-0.2-0.9-0.5-0.5c-0.4,0.7-1.1,1.2-1.7,1.5c-0.8,0.4-1.7,0.3-1.9-0.4c-0.4-0.9,0.4-2.3,2.1-2.9
					c2.5-0.9,5.1-0.3,7.6,0.2c0,0,0.2,0.1,0.1,0.1c-0.5,0.2-0.9,0.4-1.6,1c-0.5,0.4-1.1,1-1.6,1.6c-0.5,0.6-0.9,1.1-1.3,1.7
					c-0.1,0.1-0.1,0.1-0.1,0.1c-1.1,0.2-2.3,0.3-3.3,1c-0.2,0.1-0.3,0.4-0.2,0.6c0.1,0.2,0.4,0.2,0.6,0.1c0.6-0.5,1.3-0.7,2-0.7
					c0,0,0,0,0.1,0c0,0,0,0,0,0.1c-1.1,1.6-1.4,1.9-2.2,2.9c-0.4,0.5-0.9,0.9-1.3,1.3c-1.9,1.8-4,1.7-4.7,0.6
					c-0.4-0.7-0.4-1.4-0.1-2c0.4-0.7,1.1-1.2,1.7-1.5c0.2-0.1,0.3-0.4,0.1-0.7c-0.1-0.2-0.5-0.2-0.7-0.2c-0.8,0.1-1.7,0.7-2.3,1.5
					c-0.6,0.8-0.9,1.8-0.8,2.9c0.2,2,1.8,3.1,3.6,3.1c1.5,0,2.8-0.5,4.5-2.1c1.5-1.6,3-3.9,4.3-6.1c0-0.1,0.1-0.1,0.3-0.1
					c0.8-0.1,2.1-0.2,2.8-0.3c0.2,0,0.2,0,0.3,0.1c0.2,0.3,0.5,0.5,0.8,0.6c0.1,0.1,0.2,0.1,0.3,0.1c0.1,0,0.2-0.1,0.3-0.1
					c0.1-0.1,0.1-0.2,0.1-0.3c0-0.1-0.6-0.4-0.6-0.5c0-0.1,0.1-0.1,0.1-0.1c0.4-0.1,0.8-0.4,1.1-0.9c0.2-0.5,0.3-1.1-0.2-1.5
					c-0.4-0.3-1-0.3-1.5,0.2c-0.5,0.4-0.6,1-0.6,1.6c0,0.1,0,0.1-0.1,0.1c-0.7,0.1-1.4,0.1-2.2,0.1c-0.1,0-0.1,0,0-0.1
					c0.9-1.6,2.2-2.7,3.7-3.7c0.1-0.1,0.1-0.2,0.1-0.3c2.7,0.6,5.2,1.7,8,1.6c1.1,0,2.2-0.2,3.3-0.8c0.9-0.5,1.3-1,1.3-1.4
					c0-0.3-0.2-0.5-0.5-0.5c-2.8,0.6-5.5,0.6-8.2,0.3c-3.2-0.4-6.2-1.2-9.3-1.2C84.1,26.3,83.6,26.3,83.1,26.3"/>
			</defs>
			<clipPath id="SVGID_204_">
				<use xlink:href="#SVGID_203_"  overflow="visible"/>
			</clipPath>
			<g clip-path="url(#SVGID_204_)">
				<defs>
					<rect id="SVGID_205_" x="73" y="26.3" width="29.6" height="15.3"/>
				</defs>
				<clipPath id="SVGID_206_">
					<use xlink:href="#SVGID_205_"  overflow="visible"/>
				</clipPath>
				
					<linearGradient id="SVGID_207_" gradientUnits="userSpaceOnUse" x1="-434.757" y1="405.6511" x2="-433.6449" y2="405.6511" gradientTransform="matrix(0 15.9604 15.9604 0 -6386.5342 6963.9409)">
					<stop  offset="0" style="stop-color:#FFFFFF"/>
					<stop  offset="0.3982" style="stop-color:#FDFDFD"/>
					<stop  offset="0.5805" style="stop-color:#F5F5F6"/>
					<stop  offset="0.691" style="stop-color:#ECECED"/>
					<stop  offset="0.8" style="stop-color:#E6E7E8"/>
					<stop  offset="1" style="stop-color:#D1D3D4"/>
				</linearGradient>
				<rect x="73" y="26.3" clip-path="url(#SVGID_206_)" fill="url(#SVGID_207_)" width="29.6" height="15.3"/>
			</g>
		</g>
	</g>
	<g>
		<defs>
			<rect id="SVGID_208_" x="-175.8" y="-2.2" width="147.9" height="62.2"/>
		</defs>
		<clipPath id="SVGID_209_">
			<use xlink:href="#SVGID_208_"  overflow="visible"/>
		</clipPath>
		<path clip-path="url(#SVGID_209_)" fill="#AF1F24" d="M13,35.9c4.5,0,8.1-3.6,8.1-8.1c0-4.5-3.6-8.1-8.1-8.1
			c-4.5,0-8.1,3.6-8.1,8.1C4.9,32.3,8.5,35.9,13,35.9 M13,43.6c8.7,0,15.7-7,15.7-15.7c0-8.7-7-15.7-15.7-15.7
			c-8.7,0-15.7,7-15.7,15.7C-2.7,36.6,4.4,43.6,13,43.6 M-10.6,28C-10.6,14.9,0,4.4,13,4.4c13,0,23.6,10.6,23.6,23.6
			C36.6,41,26,51.5,13,51.5C0,51.5-10.6,41-10.6,28"/>
		<path clip-path="url(#SVGID_209_)" fill-rule="evenodd" clip-rule="evenodd" fill="#AF1F24" d="M27.9,49.3v-0.7h0.5
			c0.2,0,0.5,0.1,0.5,0.3c0,0.4-0.3,0.4-0.6,0.4H27.9 M27.9,49.6h0.4l0.6,1h0.4l-0.7-1c0.3,0,0.6-0.2,0.6-0.6c0-0.5-0.3-0.7-0.8-0.7
			h-0.9v2.4h0.4V49.6z M26.7,49.4c0-1,0.7-1.7,1.7-1.7c0.9,0,1.7,0.7,1.7,1.7c0,1-0.7,1.7-1.7,1.7C27.4,51.1,26.7,50.4,26.7,49.4
			 M28.3,51.5c1.1,0,2.1-0.9,2.1-2c0-1.2-0.9-2-2.1-2c-1.1,0-2.1,0.9-2.1,2C26.3,50.6,27.2,51.5,28.3,51.5"/>
	</g>
	<g>
		<defs>
			<rect id="SVGID_227_" x="-177" y="-2.2" width="147.9" height="62.2"/>
		</defs>
		<clipPath id="SVGID_211_">
			<use xlink:href="#SVGID_227_"  overflow="visible"/>
		</clipPath>
	</g>
	<g>
		<defs>
			<rect id="SVGID_237_" x="-177" y="-2.2" width="147.9" height="62.2"/>
		</defs>
		<clipPath id="SVGID_213_">
			<use xlink:href="#SVGID_237_"  overflow="visible"/>
		</clipPath>
	</g>
	<g>
		<defs>
			<rect id="SVGID_634_" x="206.2" y="113.8" width="52.2" height="72.9"/>
		</defs>
		<clipPath id="SVGID_215_">
			<use xlink:href="#SVGID_634_"  overflow="visible"/>
		</clipPath>
		<path clip-path="url(#SVGID_215_)" fill="#E41E2B" d="M-7.8,78.1c-3.9-2.7-8.7-4-13-3.8c-4.4,0.2-6.3,3.4-6.3,3.4
			c-2-3.4-5.9-5.5-11.9-5.5c-9.7,0.1-19.4,4.6-27,4.6c-7.3,0-12.7-4.6-12.5-12.8C-78.2,49.8-66.1,36.9-57,31c5.2-3.3,9.6-4.3,12.4-4
			c2.1,0.2,4.6,2.6,3,6.2c-2.3,5.2-5.5,4.8-5.4,2.3c0.1-1.6,1.1-2.6,1.9-3.2c0.5-0.4,1.4-0.5,1.9-0.5c0.5-0.4,0.8-3.2-2.9-2.3
			c-3.7,0.9-8.2,4.6-12.5,9.3c-4.3,4.7-10.9,13.7-12.6,23.1c-0.8,4.4-0.3,12.3,10.1,12.2c8.7-0.1,21.7-5.8,33.5-5.7
			c4.6,0,8.6,1.3,11.7,3.2C-12.8,73.5-9.1,76.3-7.8,78.1 M-5,52.1h1.8c0,0-9,13-14.1,12.4c-2.8-0.3-2-3.8-2-3.8s-4,4.7-7.6,3.7
			c-3.3-0.8-1.2-6.4-1.2-6.4c-0.4,0.2-7.6,8.2-12.6,6.3c-5.3-2-2.5-8.8-1.5-10.8c0.8-1.7,1.8-3.4,1.8-3.4s-0.8,0.2-1.3,0.3
			c-0.5,0.1-1.3,0.3-1.3,0.3s-2.5,4.1-4,6.1c-1.5,2-8,9-11.8,7.6c-3.8-1.4-2.9-6.7-0.7-11c3.5-6.9,11.7-15.4,16.7-14.1
			c5,1.3,0.9,9.4,0.9,9.4s1,0.1,3.4-1.5c3.5-2.4,8-8.7,12.9-7.9c2.3,0.3,4.5,2.7,1.5,7.2c-0.9,1.4-2.5,2.7-3.7,1.5
			c-0.8-0.8-0.1-2.2,0.7-3.2c1.1-1.4,2.7-1.2,2.7-1.2s0.8-1.9-1.3-1.8c-1.7,0-5.9,3.9-8.3,7.9c-2.2,3.6-5.5,9.8-2.2,11.2
			c3.1,1.2,8.9-5.7,11.6-9.3c2.7-3.6,8.8-11.9,14-12.2c1.8-0.1,2.8,1.5,2.8,1.5l0.6-0.9h5.2c0,0-9.7,16.2-10.5,17.5
			c-0.6,1-1.4,3.1,0.8,1.9C-9.6,58-5,52.1-5,52.1 M-45,50.5c-0.1,0-1.4-0.4-2.7-1.2c-1.3-0.8-1.9-2-1.9-2.1c0-0.1-0.1,0-0.1,0.1
			c-0.1,0.1-0.3,0.4-2.2,3.1c-1.8,2.7-4.6,8.2-2,9.2c1.6,0.6,4.4-2.3,5.9-4.2c1.4-1.8,3-4.5,3.1-4.6C-44.8,50.6-44.9,50.5-45,50.5
			 M-43,41.9c-1.4-1-4.8,1.4-4.8,3.8c0,2.5,3.1,3.2,3.5,3.2c0,0,0.4,0.1,0.5-0.2c0.1-0.2,0.5-1,1-2.2C-42.3,45.3-41.7,42.8-43,41.9
			 M-16.7,55.4c2.1-2.9,7.8-12.9,7.8-12.9s-0.1-0.7-0.8-0.7c-0.8,0-2.1,0.2-4.8,3.5c-2.6,3.3-4.7,5.9-6.2,8.7
			c-1.6,3-2.3,5.1-1.4,5.7c0.3,0.2,0.7,0.2,1,0.1c0.6-0.2,1.4-0.8,2.5-2C-17.9,57.1-17.4,56.3-16.7,55.4 M6.5,39.9H1.6l-2.8,4.5h4.9
			L6.5,39.9z M70.8,73.7c-0.4,0-0.7,0.1-1,0.4c-0.3,0.3-0.4,0.6-0.4,1c0,0.4,0.1,0.7,0.4,1c0.3,0.3,0.6,0.4,1,0.4
			c0.4,0,0.7-0.1,1-0.4c0.3-0.3,0.4-0.6,0.4-1c0-0.4-0.1-0.7-0.4-1C71.6,73.8,71.2,73.7,70.8,73.7 M72.5,75.1c0,0.5-0.2,0.9-0.5,1.2
			c-0.3,0.3-0.7,0.5-1.2,0.5c-0.5,0-0.9-0.2-1.2-0.5c-0.3-0.3-0.5-0.7-0.5-1.2c0-0.5,0.2-0.9,0.5-1.2c0.3-0.3,0.7-0.5,1.2-0.5
			c0.5,0,0.9,0.2,1.2,0.5C72.4,74.2,72.5,74.6,72.5,75.1 M71.3,74.7c0-0.1,0-0.2-0.1-0.3c-0.1,0-0.2-0.1-0.4-0.1h-0.3v0.7h0.3
			c0.1,0,0.2,0,0.3,0C71.2,75,71.3,74.9,71.3,74.7 M70.2,74.2h0.6c0.2,0,0.4,0,0.5,0.1c0.2,0.1,0.3,0.2,0.3,0.5
			c0,0.2-0.1,0.3-0.2,0.4c-0.1,0-0.2,0.1-0.3,0.1c0.1,0,0.3,0.1,0.3,0.2c0.1,0.1,0.1,0.2,0.1,0.3v0.1c0,0,0,0.1,0,0.1
			c0,0.1,0,0.1,0,0.1l0,0h-0.3c0,0,0,0,0,0c0,0,0,0,0,0l0-0.1v-0.1c0-0.2-0.1-0.4-0.2-0.4c-0.1,0-0.2-0.1-0.4-0.1h-0.3V76h-0.3V74.2
			z M78.8,31.8c-3.6,2.3-8.6,4.4-13.5,4c-1.2,1.3-2.5,2.7-3.8,4.3c8.4,1.6,15.7-3.5,19.6-7.9c2.4-2.8,3.6-5.2,3.6-5.2
			S82.4,29.5,78.8,31.8 M64.4,69.8c-0.7,1.1-1.5,3.2,0.8,1.9c2.8-1.6,6.8-7.6,6.8-7.6h1.8c0,0-2.4,3.7-5.5,7.2
			c-2.8,3.1-6.3,6-8.7,5.7c-2.8-0.3-1.9-4.1-1.9-4.1s-4.1,4.3-6.9,4c-3.8-0.4-2.6-5.1-2.6-5.1s-4.3,5.3-7.2,5.1
			c-4.6-0.3-3.4-5.9-2.2-9.8c0.7-2.1,1.3-3.7,1.3-3.7s-0.5,0.1-1.4,0.3c-0.5,0.1-1.4,0.1-1.4,0.1s-1.9,3.4-3.4,5.4
			c-1.5,2-8,9-11.8,7.6c-3.5-1.3-2.4-6.7-0.3-11c3-6.3,11.4-15.3,16.3-14.1c5,1.2,0.1,10.4,0.1,10.4s0,0,0.1,0.1
			c0.1,0,0.4,0.1,1-0.1c1-0.2,1.8-0.6,1.8-0.6S46.1,51,51.6,44c5.6-6.9,16.8-18.9,21.1-16c1.1,0.7,0.6,3.2-0.9,6.1
			c-0.6,0.2-1.3,0.4-2,0.5c1-1.8,1.6-3.2,1.8-4.3c0.7-3.6-7.7,4-13.7,12.1c-6,8.1-9.6,15.5-9.6,15.5s1.2-0.7,3.1-2.2
			c2-1.6,4.7-4.1,7.6-7.1c2-2,4.3-4.6,6.5-7.5c0.6,0,1.3-0.1,1.9-0.2c-2.4,3.3-5,6.2-7.1,8.4c-2.4,2.4-5,5-7.2,6.9
			c-3.6,3-6.3,4.7-6.3,4.7s-5.2,10.5-2.4,11.2c1.7,0.4,5-4.7,5-4.7s4.3-6.6,6.9-9.5c3.5-4,6.6-6.4,9.6-6.4c1.8,0,2.8,1.9,2.8,1.9
			l0.8-1.3h5.2C74.8,52.3,65.2,68.6,64.4,69.8 M35.5,63.4c-0.1,0-1.2-0.5-2.4-1.5c-1.2-1-1.7-2.1-1.8-2.2c0-0.1-0.1,0-0.1,0.1
			c-0.1,0.1-0.3,0.3-2.1,3C27.2,65.4,24.4,71,27,72c1.6,0.6,4.4-2.3,5.8-4.2c1.4-1.8,2.7-4,2.7-4.2C35.6,63.5,35.6,63.4,35.5,63.4
			 M38.1,58.8c0.5-1.2,1.1-3.7-0.2-4.6c-1.3-1-4.8,1.4-4.8,3.8c0,2.5,2.4,3.6,3,3.8c0.3,0.1,0.5,0.1,0.6-0.2
			C36.8,61.4,37.6,60.1,38.1,58.8 M67.7,55.4c0.1-0.2,0.2-0.3,0.2-0.3s-0.1-0.7-0.8-0.7c-0.8,0-1.9,0.1-4.7,3.3
			c-2.8,3.1-4.6,5.9-6,8.6c-1.6,3-2.3,5.2-1.4,5.8c0.3,0.2,0.7,0.2,1,0.1c0.6-0.2,1.4-0.7,2.5-2c0.5-0.6,1.1-1.4,1.8-2.4
			C62,65.1,66.7,57,67.7,55.4 M78.8,31.8c-3.6,2.3-8.6,4.4-13.5,4c-1.2,1.3-2.5,2.7-3.8,4.3c8.4,1.6,15.7-3.5,19.6-7.9
			c2.4-2.8,3.6-5.2,3.6-5.2S82.4,29.5,78.8,31.8 M55.3,37.9c-4-2-6.8-4.5-9.8-6c-2.9-1.5-4.7-2.1-7-1.8c-0.4,0.1-1,0.2-1,0.2
			s1.2,4.1-3.6,10.9c-4.8,6.9-9.2,6.9-10.4,5c-1.3-2,0.4-6.1,3.2-9.8c2.9-3.8,8.1-7,8.1-7s-1.6-1-5.7,1.3c-3.9,2.2-10.7,7.5-17,16.5
			c-6.3,9-7.5,13.9-8.4,17.8c-0.9,3.9-0.1,8,4.2,8c4.3,0,9.3-6.6,10.7-8.8c2.6-4.2,4.3-10.8,0.8-9.9c-1.8,0.4-3.2,2.4-4.1,4.3
			c-0.9,1.9-1.3,3.8-1.3,3.8s-1.5,0.5-3.5,2c-2,1.5-3.3,2.9-3.3,2.9s0-3.1,2.5-8.1c2.5-5,7-7.3,9.6-7.5c2.3-0.2,5.3,1.8,2.8,9
			C19.4,68,11.9,76.8,4,76.9C-3.3,77-8.1,67.7,2.1,51.4c11.2-18,24.4-23.5,28.7-24.1c4.3-0.6,5.7,1.3,5.7,1.3s3.6-1.7,8.1-1.4
			c5.2,0.4,9.3,4.1,14.6,6.6C57.8,35.2,56.5,36.6,55.3,37.9 M35.8,30.9c0,0-3.1,1.2-6.6,5.1c-3.6,3.9-5.6,8.3-4.1,9.5
			c0.6,0.4,1.9,0.5,4.4-1.7c1.9-1.7,3.9-4,5.2-7.2C36.3,32.7,35.8,30.9,35.8,30.9"/>
	</g>
	<g>
		<defs>
			<rect id="SVGID_636_" x="206.2" y="113.8" width="52.2" height="72.9"/>
		</defs>
		<clipPath id="SVGID_217_">
			<use xlink:href="#SVGID_636_"  overflow="visible"/>
		</clipPath>
		<path clip-path="url(#SVGID_217_)" fill="#AF1F24" d="M160.3,69.4c6.2,0,11.2-5,11.2-11.2c0-6.2-5-11.2-11.2-11.2
			c-6.2,0-11.2,5-11.2,11.2C149.1,64.4,154.1,69.4,160.3,69.4 M160.3,80c11.9,0,21.5-9.6,21.5-21.5c0-11.9-9.6-21.5-21.5-21.5
			c-11.9,0-21.5,9.6-21.5,21.5C138.8,70.3,148.4,80,160.3,80 M127.9,58.5c0-17.9,14.5-32.4,32.4-32.4c17.9,0,32.4,14.5,32.4,32.4
			c0,17.9-14.5,32.4-32.4,32.4C142.4,90.8,127.9,76.3,127.9,58.5"/>
	</g>
	<g>
		<g>
			<defs>
				<rect id="SVGID_1135_" x="8.4" y="133" width="119.4" height="34.4"/>
			</defs>
			<clipPath id="SVGID_219_">
				<use xlink:href="#SVGID_1135_"  overflow="visible"/>
			</clipPath>
			<path clip-path="url(#SVGID_219_)" fill="#FFFFFF" d="M133.4-3.7h-23c-0.6,1.1-13.6,23.7-5,46c0.5,1.1,1,2.3,1.6,3.5
				c0,0,20.3-9.9,25.6-43.1C133.3-1,133.4-3.7,133.4-3.7"/>
			<path clip-path="url(#SVGID_219_)" fill="none" stroke="#FFFFFF" stroke-width="2.8938" d="M133.4-3.7h-23
				c-0.6,1.1-13.6,23.7-5,46c0.5,1.1,1,2.3,1.6,3.5c0,0,20.3-9.9,25.6-43.1C133.3-1,133.4-3.7,133.4-3.7z"/>
			<path clip-path="url(#SVGID_219_)" fill="#006BB6" d="M123.5-1.9h2c1.3,0,2.3,0.6,2.1,1.3c-0.1,0.5-0.6,0.9-1.2,1.2
				c0.5,0.2,1,0.5,0.8,1.2c-0.2,0.8-1.7,1.4-3.2,1.4h-1.8L123.5-1.9z M125.4,1.6c0.1-0.4-0.3-0.6-0.6-0.6h-0.2l-0.3,1.2h0.2
				C124.8,2.2,125.3,2.1,125.4,1.6 M125.8-0.4c0.1-0.4-0.4-0.5-0.6-0.5h-0.1l-0.3,1.1h0.1C125.2,0.1,125.7,0,125.8-0.4"/>
			<path clip-path="url(#SVGID_219_)" fill="#006BB6" d="M115.5-1.9l-0.3,0.8c-0.4,1.1-1,2.2-1,2.2s-0.1-1.5,0.1-2.9h-1.8
				c-0.5,1.5-1.4,2.9-1.4,2.9s0-1.1,0.1-2.2l0.1-0.8l-1.8,0c-0.4,2.1,0.3,5.1,0.3,5.1h1.6c0.5-0.9,1.2-2.2,1.5-2.7
				c0,0.1,0,0.2,0,0.2c0,0.4,0,1.6,0.1,2.6h1.6c0,0,2.1-2.9,2.8-5.1L115.5-1.9z"/>
			<path clip-path="url(#SVGID_219_)" fill="#006BB6" d="M127.1,3.2l1.9,0c0.1-0.4,0.3-0.7,0.4-1.1h1.4c0,0.3,0,0.7-0.1,1.1l1.9,0
				l0.1-0.8c0-2.4-0.9-4.3-0.9-4.3h-1.4C127.5,1.2,127.1,3.2,127.1,3.2 M129.8,1.2c0.3-0.6,0.6-1.1,0.7-1.2c0,0,0,0,0,0
				c0,0.2,0.1,0.7,0.1,1.3H129.8z"/>
			<path clip-path="url(#SVGID_219_)" fill="#ED174C" d="M122,3.9c0.1,0,0.2,0.1,0.2,0.1c0.3,0.2,0.9,0.7,0.9,1
				c0,0.1-0.1,0.2-0.2,0.3c0,0,0,0.5,0,0.7c0,0.3-0.2,0.5-0.2,0.5s0.2,0.4,0.1,0.6c0,0.1-0.3,1-0.5,1.6c-0.1,0.2-0.2,0.6-0.7,0.5
				c-0.2,0-0.4-0.1-0.4-0.1c-0.1,0.1-0.1,0.4-0.1,0.4s-0.1,0.2,0.3,0.4c0.1,0,0.4,0.2,0.4,0.2l0.1-0.1l0.8,0.3l0,0.1
				c0,0,0.4,0.1,0.7,0.2c0.5,0.3,0.9,0.7,1.1,1.2c0.2,0.6,0.3,1.3,0.3,1.6c0,0,1.3,1.2,1.3,5.5c0,0.5-3.1,1.5-3.5,1.5
				c0.2,2.1-1.1,4.9-1.8,6.2c-0.6,1-1.2,1.9-1.8,2.8l-0.1-0.1c-1.4,2-2.8,3.8-3.3,4.1c-0.2,0.2-0.3,0.2-0.5,0.3
				c-0.3,0.5-0.8,1-1.1,1.2c-0.2,0.2-2.7,2.1-4.5,3.4c0,0.1,0.1,0.2,0,0.2c-0.2,0.2-0.5,0.4-0.7,0.5c-0.1,0.1-0.1,0.2-0.2,0.3
				c-0.7,0.6-1,0.6-1.1,0.8c-0.2,0.8,0.4,1.5,0.4,2c0,0.5-0.3,0.7-0.4,0.7c0,0-0.9,0.1-1.3,0.1c-0.2,0-0.5-0.1-0.6-0.3
				c0.4,1,0.9,2,1.4,3.1c0,0,19.8-9.7,25.5-41.9H122z"/>
			<path clip-path="url(#SVGID_219_)" fill="#ED174C" d="M122.9,14.4c-0.3,1.6-0.2,1.7-0.7,3.1l0.2,1.4l1.7-1.1c0,0,0-0.1,0-0.2
				c-0.5-0.5-1.1-2.4-1-3.2L122.9,14.4z"/>
			<path clip-path="url(#SVGID_219_)" fill="#006BB6" d="M107,3.9L107,3.9c-3.5,8.6-7.3,23.4-1.8,38.1c0-0.3,0.1-0.8,0.2-1.1
				c0.1-0.4-0.1-1.1,0-1.3c1.2-1.6,2-1.6,2.1-1.7c0.2-0.1,0.5-0.5,0.7-0.7c0.1-0.1,0.1-0.1,0.2,0c0.6-0.6,1.2-1.3,1.6-1.8
				c0.6-0.8,0.8-1.5,1.3-2c0.7-0.6,0.9-0.6,2-1c0-0.2,0.4-1.4,1-2.4c0.4-0.6,1.9-3.6,1.9-3.7c0,0-0.1-0.1-0.2-0.1
				c-0.1,0-3.6,4.9-4.1,5.4c-0.2,0.2-0.4,0.3-0.8,0.5c0,0-0.1,0.4-0.5,0.6c-0.2,0.1-0.6,0.2-0.9,0.2l-0.4,0.3c0,0.1-0.4,0.7-0.5,1
				c-0.1,0.2-0.3,0.4-0.4,0.6c-0.1,0.1-0.4,0.5-0.9,0.5c-0.4,0.1-0.8-0.1-0.9-0.4c-0.1-0.4-0.2-0.9,0.3-1.7c0.3-0.4,1.1-0.9,1.4-1.2
				c0,0,0.1-0.4,0.1-0.5c0-0.2,0.2-0.7,0.5-1c0.4-0.3,0.7-0.3,0.9-0.3c0,0,0-0.2,0.1-0.8c0.2-1.1,1.3-3,1.5-3.7
				c-0.2-0.1-0.2-0.1-0.2-0.1c0.4-0.8,1.1-2.5,1.6-3.2c2-3.4,4-4.4,4-4.4s0-0.2-0.1-0.6c0-0.3-0.2-1.6-0.2-1.6s-0.5-0.2-0.7-0.8
				c-0.2-0.6,0-1.6,0-1.6c0.1-0.4,0-0.8,0-0.8l-0.5-0.1c-0.7,0.6-4,1.7-4,1.7c-0.8,0.8-2.7,1.6-3.5,2.2c0.9,0.4,1.5,1.3,1.6,2.3
				c0,0.1,0,0.2,0,0.3c0,1-0.5,1.9-1.3,2.4c-0.5,0.3-1.1,0.5-1.7,0.5c-1.6,0-3-1.3-3-3c0-1.5,1.1-2.7,2.5-2.9
				c0.2-0.1,0.4-0.1,0.5-0.2c0.2-0.1,0.5-0.5,0.8-0.8c1-0.8,1.9-2.5,3.8-2.6c0.1,0,2.5-1.5,2.5-1.5c0.7-0.8,1.1-1,1.6-1.1
				c0.6-0.2,1.6-0.3,1.6-0.3l0-0.1l0.8-0.1l0,0.1l1.1-0.3c0.1-0.1,0.2-0.6,0.3-0.9c0.3-0.9-1.1-1.3-1.5-2.1c0,0,0.4,0.1,0.4,0
				c-0.2-0.2-0.4-0.6-0.4-0.6c0.9,0.3,1.5-1.2,2.6-1.9c0.1-0.1,0.2-0.1,0.3-0.2H107z"/>
			<path clip-path="url(#SVGID_219_)" fill="#006BB6" d="M121.2-1.9l-0.6,2.4c0,0,0,0.1,0,0.1l-1.3-2.5h-1.5l-1.3,5.1h1.7l0.6-2.5
				l1.3,2.5h1.5l1.2-5.1H121.2z"/>
			<path clip-path="url(#SVGID_219_)" fill="#FFFFFF" d="M84-6.9L69.3-7c-2.5,0-4.5,2-4.5,4.5v44.2c0,2.5,2,4.5,4.5,4.5l14.7,0
				c2.5,0,4.5-2,4.5-4.5V-2.4C88.5-4.9,86.5-6.9,84-6.9"/>
			<path clip-path="url(#SVGID_219_)" fill="#ED174C" d="M86.7,18.5V-2.3C86.7-3.8,85.5-5,84-5l-5,0l0,0c0.4,0.4,0.8,0.5,1.2,1
				c0.6,0.9,0.1,1.8-0.2,2.7l0.1,0.1c0,0.6-0.2,1.1-0.8,1.5c-0.2,0.7-1,1.2-1.1,2c0.5,0.3,1.1,0.6,1.5,1.1c1,0.5,1.8,1.4,2.4,2.4
				c0.4,1.4,0.5,2.7,0.6,4.2c-0.1,0.9,0.2,1.7,0.4,2.5c0.8,1.2,1.1,2.7,1.4,4.1c0,0.6,0.8,0.3,1,0.8c0.6,0.1,0.8,0.8,1,1.1
				L86.7,18.5z"/>
			<path clip-path="url(#SVGID_219_)" fill="#006BB6" d="M82.5,44.6l-13.2,0c-1.5,0-2.7-1.2-2.7-2.7V-2.4c0-1.5,1.2-2.7,2.7-2.7
				l7.9,0L77.2-5c-0.1,0.2-0.5,0.1-0.7,0.4c-0.5,0.2-0.3,0.8-0.6,1.1c0.1,0.2,0.2,0.6,0,0.8c0,0.2,0.1,0.3-0.1,0.5
				c-0.2-0.1-0.3,0.1-0.5,0.3c0,0.5-0.1,1.2,0.5,1.4l-0.1,0.7c-0.2,0.5-0.2,1-0.6,1.3c-0.6,0.1-1.3,0.1-1.8,0.3
				c-0.4-0.2-0.7,0.2-1,0.1c-0.5,0.1-0.9,0.5-1.4,0.7c-0.1,0.2-0.4,0.3-0.4,0.6c-0.4,0.6-0.9,1.2-1.1,1.8c-0.3,0.4-0.4,0.8-0.6,1.2
				c0,0.5-0.5,0.9-0.5,1.4c-0.3,0.5-0.5,1-0.6,1.5c-0.3,0.3-0.3,0.8-0.4,1.1c-0.1,0.3-0.4,0.5-0.3,0.8l-0.2,0.5
				c0.1,0.6,0.2,1.3,0.7,1.7l1.4,0.1c0.2,0.6-0.5,1-0.7,1.4c0,0.1-0.2,0-0.2,0.1c0.4,0.4-0.2,0.7-0.1,1.1c-0.1,0.6-0.3,1.3-0.2,1.8
				c-0.2,0.3,0.1,0.6,0.2,0.9c0.3,0.3,0.3,0.8,0.6,1.1c0.2,0.4,0.4,0.6,0.6,1c-0.2,0.2,0.2,0.3,0.2,0.5c0.3,0.4,0.3,1.1,0.5,1.6
				c0.3,0.2,0.7,0,1.1,0.1c0.2,0.3,0.4,0.5,0.4,0.8c0.3,0.2,0.2,0.5,0.4,0.7c0.2,0.4,0.5,0.8,0.7,1.1c0.2,0.2,0.3,0.4,0.5,0.7
				c1.2,1.7,2.5,3.1,3.9,4.5c0.3,0.2,0.6,0.5,0.9,0.7c0.8,0.7,1.7,1.3,2.6,1.9c0,0.6,0.8,1.1,0.3,1.7c0,0.3,0.1,0.6,0.3,0.7
				c-0.1,0.3,0.2,0.3,0.3,0.5c0.3,0.8,0.8,1.6,0.6,2.5c0.4,0.5,0.4,1.3,0.2,2c0.1,0.7-0.2,1.4-0.1,2.1C82,43.6,82.4,44,82.5,44.6
				L82.5,44.6z"/>
			<path clip-path="url(#SVGID_219_)" fill="#ED174C" d="M86.6,21.9c-0.6,1.2-1.8,2-3.3,2c-2,0-3.6-1.6-3.6-3.7
				c0-1.4,0.8-2.5,1.9-3.2l0.2-0.2c0.3-0.1,0.6-0.1,0.8-0.4c-1.3-2.2-2.1-4.8-2.5-7.4c-0.1-0.2,0-0.4-0.2-0.6c-0.1,0-0.2,0-0.3,0
				c-0.5,0.1-1,0.5-1.3,0.9c-0.5,1.1-0.9,2.2-1.3,3.4c0.2,0.3,0.5,0.3,0.7,0.7c0.5,1.4,1,2.7,1.3,4.1c0,0.3,0.1,0.5-0.1,0.8
				c-0.3,0.1,0,0.4,0,0.6c0.4,1.1,0.5,2.1,0.8,3.3c0,0.4,0.2,0.8,0.2,1.1c0.1,0.9,0.3,1.6,0.5,2.4c1.6,2,1.6,4.7,2.1,7
				c0.5,0.8,1.2,1.7,0.9,2.7c0,0.4-0.2,0.8-0.3,1.2c0.1,0.8,0.2,1.6,0.4,2.4c0.1,0.2,0,0.4,0.1,0.5c0.1,0.8,0.3,1.5,0.6,2.1
				c0.3,1-0.1,2-0.7,2.6l0,0.1H84c1.5,0,2.7-1.2,2.7-2.7L86.6,21.9L86.6,21.9z"/>
			<polygon clip-path="url(#SVGID_219_)" fill="#FFFFFF" points="70,38.3 70,38.3 70.1,41.8 68.7,41.8 68.7,35.5 70.2,35.5 71.4,39 
				71.4,39 71.2,35.5 72.6,35.5 72.6,41.8 71.1,41.8 			"/>
			<path clip-path="url(#SVGID_219_)" fill="#FFFFFF" d="M73,41.8v-6.3l1.9,0c1.1,0,2,0.4,2,1.6c0,0.6-0.2,1-0.7,1.3v0
				c0.7,0.4,0.8,0.7,0.8,1.5c0,1.3-0.7,1.8-1.9,1.8L73,41.8z M74.5,40.7c0.7,0,1,0,1-0.8c0-0.7-0.4-0.7-1-0.7V40.7z M74.5,38
				c0.6,0,0.9,0,0.9-0.7c0-0.6-0.4-0.6-0.9-0.6V38z"/>
			<path clip-path="url(#SVGID_219_)" fill="#FFFFFF" d="M76.8,41.8l1.4-6.3l1.8,0l1.4,6.3l-1.5,0l-0.2-1.2l-1.2,0l-0.2,1.2
				L76.8,41.8z M79.1,36.7L79.1,36.7l-0.4,2.8l0.9,0L79.1,36.7z"/>
		</g>
		<g>
			<defs>
				<rect id="SVGID_1342_" x="8.4" y="133" width="119.4" height="34.4"/>
			</defs>
			<clipPath id="SVGID_221_">
				<use xlink:href="#SVGID_1342_"  overflow="visible"/>
			</clipPath>
		</g>
		<g>
			<defs>
				<rect id="SVGID_1344_" x="8.4" y="133" width="119.4" height="34.4"/>
			</defs>
			<clipPath id="SVGID_223_">
				<use xlink:href="#SVGID_1344_"  overflow="visible"/>
			</clipPath>
			<g clip-path="url(#SVGID_223_)">
				<text transform="matrix(1 0 0 1 39.6509 55.9942)" font-family="'Univers-Condensed'" font-size="5.7073">Local Franchises</text>
			</g>
			<path clip-path="url(#SVGID_223_)" fill="#FFFFFF" d="M-6,38.3c-2.8,0-5.1-2.3-5.1-5.1V9.9c0-2.8,2.3-5.1,5.1-5.1h52.2
				c2.8,0,5.1,2.3,5.1,5.1v23.3c0,2.8-2.3,5.1-5.1,5.1H-6z"/>
			<path clip-path="url(#SVGID_223_)" fill="#ED174C" d="M48.6,7.5c-0.6-0.6-1.5-1-2.4-1H31.6l8.4,14l0.8,0.1l0.4,0.6v0.6l0.5,0.1
				l0.5,0.7v0.6l0.5,0.1c0,0,0.5,0.6,0.5,0.6c0,0,0,1.3,0,1.3s1.2,1.1,2.2,1.5c0.7,0.3,0.8,1.5,1.2,2.1c0.6,0.9,1.3,1.3,1.2,1.8
				c-0.4,1.4-1.8,3.7-3.1,3.8c0,0-3.3,0-5.2,0l0,2.2h6.5c1.9,0,3.4-1.5,3.4-3.4V9.9C49.6,9,49.2,8.1,48.6,7.5"/>
			<path clip-path="url(#SVGID_223_)" fill="#004684" d="M26.6,6.5H-6c-0.9,0-1.8,0.4-2.4,1c-0.6,0.6-1,1.5-1,2.4v23.3
				c0,0.9,0.4,1.8,1,2.4c0.6,0.6,1.5,1,2.4,1h21.2c-0.5-0.9-1.1-1.9-1.3-2.2l-2.5,0c0-6.3,2.1-9.7,4.7-10.4c0.4-0.1,0.2-1.8-0.3-2.3
				c0,0-1.2,0-1.5,0c-0.3-0.1-0.1-0.4-0.1-0.4l1.2-2.6L15.2,18l-4.4,0c-0.1,0,3.6-2.5,3.6-2.5c0.2-6.6,7-7.2,11.1-4.4
				c2.4,1.6,2.6,4.8,2.4,7.1c0,0.1-0.6,0-0.6,0s-0.4,2.4,0.7,2.4l4.8,0c1.9-0.1,3.8,1.2,3.8,1.2l0.5-1.7L26.6,6.5z M-2.3,31.8
				c-1.3,0-2.3-1-2.3-2.3c0-1.3,1-2.3,2.3-2.3c1.3,0,2.3,1,2.3,2.3C0,30.7-1.1,31.8-2.3,31.8"/>
			<path clip-path="url(#SVGID_223_)" fill="#ED174C" d="M49.1,38.8h-0.5v1.4h-0.4v-1.4h-0.5v-0.3h1.4V38.8z M51.5,40.2h-0.4v-1.4h0
				l-0.5,1.4h-0.3l-0.5-1.4h0v1.4h-0.4v-1.8H50l0.4,1.1h0l0.4-1.1h0.6V40.2z"/>
			<polyline clip-path="url(#SVGID_223_)" fill="none" stroke="#010101" stroke-width="0.476" points="82.3,54.3 128.5,54.3 
				128.5,45.9 			"/>
			<polyline clip-path="url(#SVGID_223_)" fill="none" stroke="#010101" stroke-width="0.476" points="36.9,54.3 -9.5,54.3 
				-9.5,45.9 			"/>
		</g>
	</g>
	<g>
		<defs>
			<rect id="SVGID_1494_" x="206.2" y="-3.3" width="70.1" height="64.3"/>
		</defs>
		<clipPath id="SVGID_225_">
			<use xlink:href="#SVGID_1494_"  overflow="visible"/>
		</clipPath>
		
			<rect x="-8.7" y="-34.8" clip-path="url(#SVGID_225_)" fill="none" stroke="#000000" stroke-width="0.1012" width="386.1" height="298.6"/>
		
			<rect x="-23.1" y="-41" clip-path="url(#SVGID_225_)" fill="none" stroke="#FFFFFF" stroke-width="0.4048" width="414.8" height="311.1"/>
	</g>
	<g>
		<defs>
			<rect id="SVGID_1701_" x="201.4" y="-3.3" width="70.1" height="64.3"/>
		</defs>
		<clipPath id="SVGID_226_">
			<use xlink:href="#SVGID_1701_"  overflow="visible"/>
		</clipPath>
		<path clip-path="url(#SVGID_226_)" fill="#E41E2B" d="M111.2,39.9c-2.9-2-6.4-2.9-9.7-2.8c-3.3,0.1-4.7,2.6-4.7,2.6
			c-1.5-2.6-4.4-4.1-8.9-4.1C80.7,35.6,73.6,39,67.9,39c-5.5,0-9.4-3.4-9.3-9.5c0.2-10.7,9.2-20.3,16-24.6c3.9-2.5,7.1-3.2,9.2-3
			c1.5,0.2,3.4,2,2.2,4.6c-1.7,3.9-4.1,3.5-4,1.7c0-1.2,0.8-2,1.4-2.4c0.4-0.3,1.1-0.3,1.4-0.3c0.3-0.3,0.6-2.4-2.2-1.7
			c-2.8,0.7-6.1,3.4-9.3,6.9c-3.2,3.5-8.1,10.2-9.4,17.2c-0.6,3.2-0.2,9.2,7.5,9.1c6.5-0.1,16.1-4.3,25-4.3c3.4,0,6.4,1,8.7,2.4
			C107.5,36.4,110.2,38.5,111.2,39.9 M113.3,20.5h1.3c0,0-6.7,9.7-10.5,9.2c-2.1-0.2-1.5-2.9-1.5-2.9s-3,3.5-5.7,2.8
			c-2.5-0.6-0.9-4.7-0.9-4.7c-0.3,0.1-5.6,6.1-9.4,4.7c-3.9-1.5-1.9-6.6-1.1-8.1c0.6-1.3,1.3-2.5,1.3-2.5s-0.6,0.2-1,0.3
			c-0.4,0.1-0.9,0.2-0.9,0.2s-1.9,3-3,4.5c-1.1,1.5-6,6.7-8.8,5.7c-2.8-1-2.1-5-0.5-8.2c2.6-5.1,8.7-11.4,12.4-10.5
			c3.7,1,0.6,7,0.6,7s0.7,0.1,2.5-1.1c2.6-1.8,6-6.5,9.6-5.9c1.7,0.3,3.3,2,1.1,5.4c-0.7,1.1-1.9,2-2.8,1.1
			c-0.6-0.6-0.1-1.7,0.5-2.4c0.8-1,2-0.9,2-0.9s0.6-1.4-0.9-1.4c-1.2,0-4.4,2.9-6.2,5.9C90,21.4,87.5,26,90,27
			c2.3,0.9,6.6-4.2,8.6-6.9c2-2.7,6.6-8.8,10.4-9.1c1.3-0.1,2.1,1.1,2.1,1.1l0.4-0.7h3.8c0,0-7.2,12.1-7.8,13
			c-0.4,0.7-1,2.3,0.6,1.4C109.9,24.9,113.3,20.5,113.3,20.5 M83.5,19.3c-0.1,0-1-0.3-2-0.9c-0.9-0.6-1.4-1.5-1.4-1.6
			c0-0.1-0.1,0-0.1,0s-0.2,0.3-1.6,2.3c-1.4,2-3.4,6.1-1.5,6.8c1.2,0.4,3.3-1.7,4.4-3.1c1-1.3,2.2-3.3,2.3-3.5
			C83.6,19.3,83.6,19.3,83.5,19.3 M85,12.9c-1-0.8-3.6,1-3.6,2.8c0,1.9,2.3,2.4,2.6,2.4c0,0,0.3,0.1,0.4-0.2
			c0.1-0.1,0.4-0.7,0.7-1.6C85.5,15.4,86,13.6,85,12.9 M104.6,22.9c1.6-2.1,5.8-9.6,5.8-9.6s-0.1-0.5-0.6-0.5
			c-0.6,0-1.6,0.2-3.5,2.6c-2,2.5-3.5,4.4-4.6,6.4c-1.2,2.2-1.7,3.8-1,4.2c0.2,0.1,0.5,0.1,0.7,0.1c0.5-0.1,1.1-0.6,1.9-1.5
			C103.6,24.2,104.1,23.6,104.6,22.9 M121.8,11.4h-3.6l-2.1,3.3h3.6L121.8,11.4z M169.7,36.5c-0.3,0-0.5,0.1-0.8,0.3
			c-0.2,0.2-0.3,0.5-0.3,0.8c0,0.3,0.1,0.6,0.3,0.8c0.2,0.2,0.5,0.3,0.8,0.3c0.3,0,0.5-0.1,0.8-0.3c0.2-0.2,0.3-0.5,0.3-0.8
			c0-0.3-0.1-0.5-0.3-0.8C170.3,36.6,170,36.5,169.7,36.5 M171,37.6c0,0.3-0.1,0.6-0.4,0.9c-0.2,0.2-0.5,0.4-0.9,0.4
			c-0.3,0-0.6-0.1-0.9-0.4c-0.2-0.2-0.4-0.5-0.4-0.9c0-0.3,0.1-0.6,0.4-0.9c0.2-0.2,0.5-0.4,0.9-0.4c0.3,0,0.6,0.1,0.9,0.4
			C170.9,37,171,37.3,171,37.6 M170.1,37.3c0-0.1,0-0.2-0.1-0.2c-0.1,0-0.2-0.1-0.3-0.1h-0.2v0.5h0.2c0.1,0,0.2,0,0.2,0
			C170,37.5,170.1,37.4,170.1,37.3 M169.2,36.9h0.5c0.2,0,0.3,0,0.4,0c0.1,0.1,0.2,0.2,0.2,0.3c0,0.1,0,0.2-0.1,0.3
			c0,0-0.1,0.1-0.2,0.1c0.1,0,0.2,0.1,0.2,0.1c0,0.1,0.1,0.1,0.1,0.2v0.1c0,0,0,0.1,0,0.1c0,0,0,0.1,0,0.1l0,0h-0.2c0,0,0,0,0,0
			c0,0,0,0,0,0l0,0v-0.1c0-0.2,0-0.3-0.1-0.3c-0.1,0-0.1,0-0.3,0h-0.2v0.5h-0.2V36.9z M175.6,5.4c-2.7,1.7-6.4,3.3-10,3
			c-0.9,0.9-1.9,2-2.9,3.2c6.2,1.2,11.7-2.6,14.6-5.9c1.8-2,2.7-3.9,2.7-3.9S178.3,3.7,175.6,5.4 M165,33.7
			c-0.5,0.8-1.1,2.4,0.6,1.4c2.1-1.2,5-5.7,5-5.7h1.3c0,0-1.8,2.8-4.1,5.3c-2.1,2.3-4.7,4.5-6.5,4.2c-2.1-0.2-1.5-3-1.5-3
			s-3,3.2-5.1,3c-2.8-0.3-2-3.8-2-3.8s-3.2,3.9-5.4,3.8c-3.4-0.2-2.6-4.4-1.6-7.3c0.5-1.6,1-2.8,1-2.8s-0.3,0.1-1.1,0.2
			c-0.4,0.1-1.1,0.1-1.1,0.1s-1.4,2.5-2.6,4c-1.1,1.5-6,6.7-8.8,5.7c-2.6-1-1.8-5-0.2-8.2c2.2-4.7,8.5-11.4,12.1-10.5
			c3.8,0.9,0.1,7.8,0.1,7.8s0,0,0,0c0.1,0,0.3,0,0.7,0c0.7-0.1,1.4-0.4,1.4-0.4s3.8-7.9,7.9-13.1c4.2-5.2,12.5-14.1,15.7-11.9
			c0.8,0.5,0.4,2.4-0.6,4.6c-0.5,0.2-1,0.3-1.5,0.4c0.7-1.3,1.2-2.4,1.3-3.2c0.5-2.7-5.7,3-10.2,9c-4.5,6.1-7.1,11.5-7.1,11.5
			s0.9-0.5,2.3-1.6c1.5-1.2,3.5-3,5.7-5.3c1.5-1.5,3.2-3.4,4.8-5.6c0.5,0,1-0.1,1.4-0.1c-1.8,2.4-3.7,4.6-5.3,6.3
			c-1.8,1.8-3.7,3.7-5.4,5.1c-2.7,2.2-4.7,3.5-4.7,3.5s-3.9,7.9-1.8,8.4c1.2,0.3,3.7-3.5,3.7-3.5s3.2-4.9,5.1-7.1
			c2.6-3,4.9-4.7,7.2-4.8c1.3,0,2.1,1.4,2.1,1.4l0.6-1h3.8C172.7,20.6,165.5,32.8,165,33.7 M143.4,28.9c-0.1,0-0.9-0.4-1.8-1.1
			c-0.9-0.7-1.3-1.5-1.3-1.6c0-0.1-0.1,0-0.1,0c0,0.1-0.2,0.2-1.6,2.2c-1.4,2-3.5,6.2-1.6,6.9c1.2,0.4,3.2-1.7,4.3-3.1
			c1-1.3,2-3,2-3.1C143.5,28.9,143.5,28.9,143.4,28.9 M145.4,25.5c0.4-0.9,0.8-2.7-0.1-3.5c-1-0.8-3.6,1-3.6,2.8
			c0,1.9,1.8,2.7,2.2,2.8c0.2,0.1,0.3,0.1,0.5-0.1C144.4,27.4,145,26.4,145.4,25.5 M167.4,22.9c0.1-0.1,0.1-0.3,0.1-0.3
			s-0.1-0.5-0.6-0.5c-0.6,0-1.4,0.1-3.5,2.4c-2.1,2.3-3.4,4.4-4.5,6.4c-1.2,2.2-1.7,3.9-1,4.3c0.2,0.1,0.5,0.1,0.7,0.1
			c0.5-0.1,1-0.6,1.8-1.5c0.4-0.4,0.8-1.1,1.3-1.8C163.2,30.2,166.7,24.1,167.4,22.9 M175.6,5.4c-2.7,1.7-6.4,3.3-10,3
			c-0.9,0.9-1.9,2-2.9,3.2c6.2,1.2,11.7-2.6,14.6-5.9c1.8-2,2.7-3.9,2.7-3.9S178.3,3.7,175.6,5.4 M158.2,9.9
			c-2.9-1.5-5.1-3.3-7.3-4.5c-2.1-1.1-3.5-1.6-5.2-1.3c-0.3,0-0.7,0.2-0.7,0.2s0.9,3-2.6,8.1c-3.6,5.2-6.8,5.1-7.8,3.7
			c-1-1.5,0.3-4.6,2.4-7.3c2.2-2.8,6-5.2,6-5.2s-1.2-0.7-4.2,1c-2.9,1.7-8,5.6-12.7,12.3c-4.7,6.7-5.6,10.3-6.3,13.2
			c-0.7,2.9-0.1,6,3.1,6c3.2,0,6.9-4.9,8-6.6c2-3.2,3.2-8,0.6-7.3c-1.3,0.3-2.4,1.8-3,3.2c-0.7,1.4-1,2.8-1,2.8s-1.1,0.4-2.6,1.5
			c-1.5,1.1-2.5,2.2-2.5,2.2s0-2.3,1.8-6c1.8-3.7,5.2-5.4,7.1-5.6c1.7-0.1,4,1.3,2.1,6.7c-1.9,5.4-7.5,11.9-13.4,12
			c-5.4,0.1-9-6.9-1.4-19c8.4-13.4,18.2-17.5,21.4-18c3.2-0.5,4.2,0.9,4.2,0.9s2.7-1.2,6.1-1c3.9,0.3,6.9,3,10.9,4.9
			C160,7.9,159,8.9,158.2,9.9 M143.7,4.7c0,0-2.3,0.9-4.9,3.8c-2.7,2.9-4.2,6.2-3,7.1c0.4,0.3,1.4,0.4,3.3-1.3
			c1.4-1.3,2.9-3,3.9-5.4C144,6,143.7,4.7,143.7,4.7"/>
	</g>
	<g>
		<defs>
			<rect id="SVGID_1713_" x="206.2" y="-3.3" width="70.1" height="64.3"/>
		</defs>
		<clipPath id="SVGID_228_">
			<use xlink:href="#SVGID_1713_"  overflow="visible"/>
		</clipPath>
	</g>
	<g>
		<defs>
			<rect id="SVGID_1720_" x="206.2" y="-3.3" width="70.1" height="64.3"/>
		</defs>
		<clipPath id="SVGID_230_">
			<use xlink:href="#SVGID_1720_"  overflow="visible"/>
		</clipPath>
	</g>
	<g>
		<defs>
			<rect id="SVGID_1796_" x="206.2" y="-3.3" width="70.1" height="64.3"/>
		</defs>
		<clipPath id="SVGID_232_">
			<use xlink:href="#SVGID_1796_"  overflow="visible"/>
		</clipPath>
	</g>
	<g>
		<defs>
			<rect id="SVGID_1800_" x="206.2" y="-3.3" width="70.1" height="64.3"/>
		</defs>
		<clipPath id="SVGID_234_">
			<use xlink:href="#SVGID_1800_"  overflow="visible"/>
		</clipPath>
	</g>
	<g>
		<defs>
			<rect id="SVGID_1808_" x="206.2" y="-3.3" width="70.1" height="64.3"/>
		</defs>
		<clipPath id="SVGID_236_">
			<use xlink:href="#SVGID_1808_"  overflow="visible"/>
		</clipPath>
	</g>
	<g>
		<defs>
			<rect id="SVGID_1816_" x="206.2" y="-3.3" width="70.1" height="64.3"/>
		</defs>
		<clipPath id="SVGID_238_">
			<use xlink:href="#SVGID_1816_"  overflow="visible"/>
		</clipPath>
	</g>
	<g>
		<defs>
			<rect id="SVGID_1824_" x="206.2" y="-3.3" width="70.1" height="64.3"/>
		</defs>
		<clipPath id="SVGID_240_">
			<use xlink:href="#SVGID_1824_"  overflow="visible"/>
		</clipPath>
	</g>
	<g>
		<defs>
			<rect id="SVGID_1832_" x="206.2" y="-3.3" width="70.1" height="64.3"/>
		</defs>
		<clipPath id="SVGID_242_">
			<use xlink:href="#SVGID_1832_"  overflow="visible"/>
		</clipPath>
	</g>
	<g>
		<defs>
			<rect id="SVGID_1840_" x="206.2" y="-3.3" width="70.1" height="64.3"/>
		</defs>
		<clipPath id="SVGID_244_">
			<use xlink:href="#SVGID_1840_"  overflow="visible"/>
		</clipPath>
	</g>
	<g>
		<defs>
			<rect id="SVGID_1848_" x="206.2" y="-3.3" width="70.1" height="64.3"/>
		</defs>
		<clipPath id="SVGID_246_">
			<use xlink:href="#SVGID_1848_"  overflow="visible"/>
		</clipPath>
	</g>
	<g>
		<defs>
			<rect id="SVGID_1856_" x="206.2" y="-3.3" width="70.1" height="64.3"/>
		</defs>
		<clipPath id="SVGID_248_">
			<use xlink:href="#SVGID_1856_"  overflow="visible"/>
		</clipPath>
	</g>
	<g>
		<defs>
			<rect id="SVGID_1864_" x="206.2" y="-3.3" width="70.1" height="64.3"/>
		</defs>
		<clipPath id="SVGID_250_">
			<use xlink:href="#SVGID_1864_"  overflow="visible"/>
		</clipPath>
	</g>
	<g>
		<defs>
			<rect id="SVGID_1872_" x="206.2" y="-3.3" width="70.1" height="64.3"/>
		</defs>
		<clipPath id="SVGID_252_">
			<use xlink:href="#SVGID_1872_"  overflow="visible"/>
		</clipPath>
	</g>
	<g>
		<defs>
			<rect id="SVGID_1880_" x="206.2" y="-3.3" width="70.1" height="64.3"/>
		</defs>
		<clipPath id="SVGID_254_">
			<use xlink:href="#SVGID_1880_"  overflow="visible"/>
		</clipPath>
	</g>
	<g>
		<defs>
			<rect id="SVGID_1888_" x="206.2" y="-3.3" width="70.1" height="64.3"/>
		</defs>
		<clipPath id="SVGID_256_">
			<use xlink:href="#SVGID_1888_"  overflow="visible"/>
		</clipPath>
	</g>
	<g>
		<defs>
			<rect id="SVGID_1896_" x="206.2" y="-3.3" width="70.1" height="64.3"/>
		</defs>
		<clipPath id="SVGID_258_">
			<use xlink:href="#SVGID_1896_"  overflow="visible"/>
		</clipPath>
	</g>
	<g>
		<defs>
			<rect id="SVGID_1904_" x="206.2" y="-3.3" width="70.1" height="64.3"/>
		</defs>
		<clipPath id="SVGID_260_">
			<use xlink:href="#SVGID_1904_"  overflow="visible"/>
		</clipPath>
	</g>
	<g>
		<defs>
			<rect id="SVGID_1912_" x="206.2" y="-3.3" width="70.1" height="64.3"/>
		</defs>
		<clipPath id="SVGID_262_">
			<use xlink:href="#SVGID_1912_"  overflow="visible"/>
		</clipPath>
	</g>
	<g>
		<defs>
			<rect id="SVGID_1920_" x="-139.5" y="109.3" width="82.5" height="82"/>
		</defs>
		<clipPath id="SVGID_264_">
			<use xlink:href="#SVGID_1920_"  overflow="visible"/>
		</clipPath>
		
			<rect x="-598.5" y="-280.8" clip-path="url(#SVGID_264_)" fill="none" stroke="#000000" stroke-width="0.1624" width="617.4" height="477.4"/>
		
			<rect x="-621.5" y="-290.8" clip-path="url(#SVGID_264_)" fill="none" stroke="#FFFFFF" stroke-width="0.6473" width="663.3" height="497.5"/>
	</g>
	<g>
		<defs>
			<rect id="SVGID_2099_" x="-139.5" y="109.3" width="82.5" height="82"/>
		</defs>
		<clipPath id="SVGID_266_">
			<use xlink:href="#SVGID_2099_"  overflow="visible"/>
		</clipPath>
	</g>
	<g>
		<path fill="#005DA6" d="M114.2,40H23c-11,0-12.1-7.4-12.1-10.6c0-4.2,2.6-11.5,12.4-11.7l91,0c9.3,0.2,11.2,9.3,11.2,11.7
			c0,1.7-0.7,5.3-3.3,7.8C120.2,39.1,117.5,40.1,114.2,40"/>
		<path fill="none" stroke="#FFFFFF" stroke-width="2.0019" stroke-miterlimit="10" d="M114.2,40H23c-11,0-12.1-7.4-12.1-10.6
			c0-4.2,2.6-11.5,12.4-11.7l91,0c9.3,0.2,11.2,9.3,11.2,11.7c0,1.7-0.7,5.3-3.3,7.8C120.2,39.1,117.5,40.1,114.2,40z"/>
		<path fill="#FFFFFF" d="M114.7,32.1c1.3,0,2.4-1.1,2.4-2.4c0-1.3-1.1-2.4-2.4-2.4c-1.4,0-2.5,1.1-2.5,2.4
			C112.3,31,113.3,32.1,114.7,32.1"/>
		<path fill="#FFFFFF" d="M36.9,27.3L34,33.7c-0.5,1-0.3,1.3,0.8,1.3h11.9c0.4,0,0.6,0.3,1.4-1.3l2.9-6.5h-5.2l-2.2,4.6
			c-0.6,1.5-1.7,1.8-2.9,1.8c-1.7,0-1.7-0.7-1.1-1.8l2.2-4.6H36.9z"/>
		<polygon fill="#FFFFFF" points="56.2,27.2 61.4,27.2 57.8,35.1 52.5,35.1 		"/>
		<polygon fill="#FFFFFF" points="107,27.2 112.3,27.2 108.6,35.1 103.4,35.1 		"/>
		<path fill="#FFFFFF" d="M71.9,27.2l-3.6,7.9h5.2l2-4.5c1-2,3.7-1.7,3,0l-2.1,4.5h4.8l3-6.4c0.5-1.3-0.8-1.5-1.9-1.5H79
			c-0.7,0.1-1.3,0.4-1.5,0.6c-0.4-0.3-0.4-0.6-1.1-0.6H71.9z"/>
		<path fill="#FFFFFF" d="M91.9,27.2h8.8c1.3,0.1,1.5,0.4,1.3,1.1l-1.7,3.6H93l-0.9,1.8h7.4l-0.6,1.3H87.6c-1,0.1-1.1-0.3-0.7-1.3
			l2.5-5.6C89.9,27.3,91.2,27.3,91.9,27.2"/>
		<path fill="#005DA6" d="M96.1,30.8h-2.5l0.5-1c0.5-1.1,1.3-0.7,1.6-0.7c0.5,0,1.3,0.1,1,0.6C96.4,30.3,96.1,30.8,96.1,30.8"/>
		<path fill="#FFFFFF" d="M22.1,26.5l2-1.7h3.2l-4.7,10.3h5.7l4.7-10.3h82.1l0.6-1.2H23.9c-1.6,0-2.2,0.8-2.6,1.2l-2.3,2
			c-0.4,0.4-0.6,1-0.6,1.7c0,1.3,1.1,2.4,2.4,2.4c1.4,0,2.5-1.1,2.5-2.4C23.2,27.6,22.8,26.9,22.1,26.5L22.1,26.5z"/>
		<path fill="#FFFFFF" d="M64.2,32.1c1.4,0,2.5-1.1,2.5-2.4c0-1.3-1.1-2.4-2.5-2.4c-1.3,0-2.4,1.1-2.4,2.4
			C61.8,31,62.9,32.1,64.2,32.1"/>
	</g>
	<g>
		<g>
			<defs>
				<rect id="SVGID_2346_" x="173.3" y="369.5" width="126.1" height="25.1"/>
			</defs>
			<clipPath id="SVGID_268_">
				<use xlink:href="#SVGID_2346_"  overflow="visible"/>
			</clipPath>
			
				<rect x="85.9" y="-65.3" clip-path="url(#SVGID_268_)" fill="none" stroke="#000000" stroke-width="0.1646" width="627.9" height="485.6"/>
			
				<rect x="62.5" y="-75.5" clip-path="url(#SVGID_268_)" fill="none" stroke="#FFFFFF" stroke-width="0.6584" width="674.7" height="506"/>
		</g>
	</g>
</g>
</svg>
