<?xml version="1.0" encoding="utf-8"?>
<!-- Generator: Adobe Illustrator 18.1.1, SVG Export Plug-In . SVG Version: 6.00 Build 0)  -->
<svg version="1.1" id="Layer_1" xmlns="http://www.w3.org/2000/svg" xmlns:xlink="http://www.w3.org/1999/xlink" x="0px" y="0px"
	 viewBox="0 0 109.9 56.4" enable-background="new 0 0 109.9 56.4" xml:space="preserve">
<g>
	<g>
		<g>
			<defs>
				<rect id="SVGID_2346_" x="-331.8" y="247" width="126.1" height="25.1"/>
			</defs>
			<clipPath id="SVGID_2_">
				<use xlink:href="#SVGID_2346_"  overflow="visible"/>
			</clipPath>
			
				<rect x="-419.3" y="-187.8" clip-path="url(#SVGID_2_)" fill="none" stroke="#000000" stroke-width="0.1646" width="627.9" height="485.6"/>
			
				<rect x="-442.6" y="-198" clip-path="url(#SVGID_2_)" fill="none" stroke="#FFFFFF" stroke-width="0.6584" width="674.7" height="506"/>
			<path clip-path="url(#SVGID_2_)" fill="#FFFFFF" d="M104.1,1.9h-36c-0.9,1.7-21.3,37.1-7.9,72c0.8,1.8,1.6,3.7,2.5,5.5
				c0,0,31.7-15.6,40.1-67.4C103.8,6.1,104.1,1.9,104.1,1.9"/>
			<path clip-path="url(#SVGID_2_)" fill="none" stroke="#FFFFFF" stroke-width="5.752" d="M104.1,1.9h-36
				c-0.9,1.7-21.3,37.1-7.9,72c0.8,1.8,1.6,3.7,2.5,5.5c0,0,31.7-15.6,40.1-67.4C103.8,6.1,104.1,1.9,104.1,1.9z"/>
			<path clip-path="url(#SVGID_2_)" fill="#006BB6" d="M88.5,4.6h3.1c2,0,3.6,0.9,3.4,2c-0.2,0.8-0.9,1.5-1.9,1.9
				c0.8,0.3,1.6,0.8,1.3,1.9c-0.3,1.3-2.7,2.2-4.9,2.2h-2.9L88.5,4.6z M91.5,10.2c0.2-0.7-0.4-0.9-1-0.9h-0.2l-0.5,1.9h0.2
				C90.6,11.1,91.4,10.8,91.5,10.2 M92.2,7c0.2-0.7-0.6-0.8-0.9-0.8H91l-0.4,1.7h0.2C91.2,7.8,92,7.6,92.2,7"/>
			<path clip-path="url(#SVGID_2_)" fill="#006BB6" d="M76,4.6l-0.5,1.2c-0.6,1.7-1.5,3.4-1.5,3.4s-0.2-2.3,0.1-4.6h-2.8
				c-0.8,2.3-2.2,4.6-2.2,4.6s0-1.7,0.2-3.4l0.2-1.2l-2.9,0c-0.6,3.3,0.4,7.9,0.4,7.9h2.4c0.8-1.4,1.9-3.5,2.3-4.3
				c0,0.2,0,0.3,0,0.3c0,0.7,0.1,2.6,0.2,4h2.4c0,0,3.3-4.6,4.4-7.9L76,4.6z"/>
			<path clip-path="url(#SVGID_2_)" fill="#006BB6" d="M94.1,12.6l3,0c0.2-0.6,0.4-1.2,0.7-1.7h2.2c0,0.5,0,1.1-0.1,1.7l2.9,0
				l0.1-1.2c0.1-3.7-1.4-6.7-1.4-6.7h-2.1C94.9,9.5,94.1,12.6,94.1,12.6 M98.5,9.4c0.5-1,1-1.7,1.1-1.9c0,0,0,0,0.1-0.1
				c0.1,0.4,0.2,1.1,0.2,2H98.5z"/>
			<path clip-path="url(#SVGID_2_)" fill="#ED174C" d="M86.2,13.7c0.1,0.1,0.3,0.1,0.4,0.2c0.5,0.4,1.3,1.1,1.3,1.5
				c0,0.2-0.2,0.3-0.3,0.4c0,0,0,0.8,0,1.1c0,0.4-0.3,0.8-0.3,0.8s0.3,0.6,0.2,1c-0.1,0.2-0.5,1.6-0.9,2.4c-0.1,0.3-0.3,1-1.1,0.8
				c-0.3-0.1-0.6-0.2-0.6-0.2c-0.1,0.2-0.2,0.6-0.2,0.6s-0.1,0.4,0.4,0.7c0.1,0.1,0.6,0.3,0.6,0.3l0.1-0.2l1.2,0.4l0,0.2
				c0,0,0.7,0.2,1,0.4c0.8,0.4,1.5,1.2,1.8,1.9c0.4,0.9,0.5,2,0.5,2.5c0,0,2.1,1.8,2.1,8.6c0,0.7-4.8,2.3-5.6,2.3
				c0.3,3.2-1.7,7.7-2.9,9.7c-0.9,1.6-1.9,3-2.9,4.4L81,53.6c-2.1,3.1-4.3,5.9-5.1,6.4c-0.3,0.3-0.5,0.3-0.7,0.5
				c-0.5,0.8-1.3,1.5-1.7,1.9c-0.3,0.3-4.2,3.4-7,5.4c0,0.1,0.1,0.3,0,0.3c-0.3,0.2-0.8,0.6-1,0.8c-0.2,0.2-0.1,0.4-0.3,0.5
				c-1.1,0.9-1.6,0.9-1.7,1.2c-0.2,1.2,0.6,2.3,0.7,3.2c0,0.7-0.5,1.1-0.6,1.1c0,0-1.4,0.1-2,0.1c-0.4,0-0.7-0.2-1-0.4
				c0.7,1.6,1.4,3.2,2.2,4.8c0,0,31-15.2,39.8-65.7H86.2z"/>
			<path clip-path="url(#SVGID_2_)" fill="#ED174C" d="M87.6,30.2c-0.4,2.5-0.3,2.6-1.1,4.9l0.3,2.1l2.7-1.7c0-0.1,0-0.2,0-0.3
				c-0.8-0.8-1.7-3.7-1.6-4.9L87.6,30.2z"/>
			<path clip-path="url(#SVGID_2_)" fill="#006BB6" d="M62.8,13.7h-0.2C57.4,27.2,51.4,50.3,60,73.3c0.1-0.5,0.2-1.2,0.2-1.8
				c0.2-0.7-0.2-1.8,0-2c1.8-2.6,3.1-2.5,3.2-2.6c0.3-0.2,0.8-0.7,1.1-1c0.1-0.1,0.2-0.1,0.3,0c0.9-0.9,1.9-2,2.6-2.8
				c1-1.3,1.2-2.4,2.1-3.1c1.1-0.9,1.4-0.9,3.2-1.5c0-0.4,0.6-2.2,1.6-3.7c0.6-1,2.9-5.7,2.9-5.8c0,0-0.2-0.1-0.3-0.1
				c-0.1,0-5.6,7.7-6.4,8.5c-0.3,0.3-0.6,0.5-1.3,0.8c0,0-0.2,0.7-0.9,1c-0.4,0.2-0.9,0.3-1.3,0.3L66.3,60c-0.1,0.2-0.6,1.2-0.8,1.5
				c-0.1,0.3-0.4,0.7-0.6,0.9c-0.2,0.2-0.7,0.7-1.4,0.9c-0.7,0.1-1.2-0.2-1.4-0.7c-0.2-0.6-0.3-1.5,0.4-2.6c0.4-0.7,1.7-1.4,2.2-1.9
				c0,0,0.2-0.6,0.2-0.8c0.1-0.2,0.3-1.2,0.8-1.6c0.6-0.5,1-0.5,1.4-0.5c0,0-0.1-0.4,0.1-1.2c0.4-1.7,2-4.7,2.3-5.8
				c-0.3-0.1-0.4-0.2-0.4-0.2c0.6-1.3,1.8-3.9,2.6-5.1C74.8,37.5,78,36,78,36s-0.1-0.3-0.1-1c-0.1-0.4-0.3-2.6-0.3-2.6
				s-0.8-0.2-1.1-1.3c-0.3-0.9,0-2.5,0-2.5c0.1-0.7,0-1.2,0-1.2l-0.7-0.1c-1.1,0.9-6.3,2.7-6.3,2.7c-1.2,1.2-4.2,2.5-5.5,3.4
				c1.4,0.7,2.3,2,2.5,3.6c0,0.2,0,0.3,0,0.5c0,1.5-0.8,3-2,3.8c-0.8,0.5-1.7,0.8-2.7,0.8c-2.6,0-4.6-2.1-4.6-4.6
				c0-2.3,1.7-4.2,3.9-4.6c0.3-0.1,0.6-0.2,0.7-0.2c0.3-0.1,0.7-0.8,1.2-1.2c1.5-1.3,3-4,5.9-4c0.1,0,3.9-2.4,3.9-2.4
				c1.1-1.2,1.7-1.5,2.6-1.7c0.9-0.3,2.5-0.4,2.5-0.4l0-0.1l1.3-0.1l0,0.2l1.8-0.4c0.1-0.2,0.3-1,0.5-1.5c0.5-1.4-1.7-2-2.4-3.2
				c0,0,0.6,0.2,0.6,0.1c-0.3-0.4-0.7-0.9-0.7-0.9c1.4,0.5,2.4-1.9,4-2.9c0.2-0.1,0.3-0.2,0.5-0.3H62.8z"/>
			<path clip-path="url(#SVGID_2_)" fill="#ED174C" d="M67.2,3.5l36.7,0c0.1-1,0.1-1.6,0.1-1.6h-36C68,2,67.7,2.6,67.2,3.5"/>
			<path clip-path="url(#SVGID_2_)" fill="#006BB6" d="M84.9,4.6L84,8.4c0,0,0,0.1,0,0.2l-2-4h-2.4l-2,7.9h2.6l1-4l2,4h2.3l1.9-7.9
				H84.9z"/>
			<path clip-path="url(#SVGID_2_)" fill="#FFFFFF" d="M-3.7-7.9l-23-0.1c-3.9,0-7,3.1-7,7v69.2c0,3.9,3.2,7,7,7l23,0.1
				c3.9,0,7-3.1,7-7V-0.9C3.3-4.8,0.1-7.9-3.7-7.9"/>
			<path clip-path="url(#SVGID_2_)" fill="#ED174C" d="M0.5,31.9V-0.7C0.5-3-1.4-4.9-3.7-5l-7.8,0l0,0c0.6,0.6,1.3,0.8,1.8,1.5
				c0.9,1.4,0.1,2.9-0.4,4.2l0.2,0.1c0.1,0.9-0.4,1.8-1.2,2.3c-0.3,1.1-1.5,1.8-1.6,3.1C-12,6.8-11,7.1-10.4,8
				c1.6,0.8,2.9,2.2,3.7,3.7c0.6,2.2,0.8,4.2,1,6.5C-5.8,19.7-5.3,21-5,22.2c1.2,1.9,1.8,4.2,2.1,6.4c0,1,1.2,0.5,1.5,1.3
				c0.9,0.2,1.2,1.2,1.6,1.8L0.5,31.9z"/>
			<path clip-path="url(#SVGID_2_)" fill="#ED174C" d="M0.4,37.2c-0.9,1.9-2.9,3.2-5.1,3.2c-3.2,0-5.7-2.6-5.7-5.7
				c0-2.1,1.2-4,2.9-5l0.4-0.3c0.4-0.2,1-0.2,1.2-0.6c-2.1-3.5-3.2-7.5-3.9-11.5c-0.1-0.3,0-0.7-0.2-1c-0.1,0-0.2-0.1-0.4,0.1
				c-0.8,0.2-1.5,0.7-2.1,1.3c-0.8,1.7-1.3,3.5-2,5.3c0.2,0.5,0.8,0.5,1,1c0.7,2.1,1.6,4.2,2.1,6.4c0,0.5,0.1,0.8-0.2,1.2
				c-0.5,0.2,0,0.6,0,0.9c0.6,1.7,0.8,3.3,1.2,5.2c-0.1,0.6,0.2,1.2,0.3,1.8c0.1,1.4,0.4,2.6,0.9,3.8c2.4,3.1,2.5,7.4,3.3,10.9
				c0.8,1.3,1.8,2.7,1.4,4.3c0,0.7-0.3,1.3-0.4,1.9c0.2,1.3,0.3,2.5,0.7,3.7c0.1,0.3-0.1,0.6,0.1,0.8c0.1,1.2,0.5,2.3,0.9,3.3
				c0.4,1.5-0.1,3.1-1.1,4.1l0,0.1h0.7c2.3,0,4.2-1.9,4.2-4.2L0.4,37.2L0.4,37.2z"/>
		</g>
		<g>
			<defs>
				<rect id="SVGID_2348_" x="-331.8" y="247" width="126.1" height="25.1"/>
			</defs>
			<clipPath id="SVGID_4_">
				<use xlink:href="#SVGID_2348_"  overflow="visible"/>
			</clipPath>
		</g>
		<g>
			<defs>
				<rect id="SVGID_2355_" x="-331.8" y="247" width="126.1" height="25.1"/>
			</defs>
			<clipPath id="SVGID_6_">
				<use xlink:href="#SVGID_2355_"  overflow="visible"/>
			</clipPath>
		</g>
		<g>
			<defs>
				<rect id="SVGID_2362_" x="-331.8" y="247" width="126.1" height="25.1"/>
			</defs>
			<clipPath id="SVGID_8_">
				<use xlink:href="#SVGID_2362_"  overflow="visible"/>
			</clipPath>
		</g>
		<g>
			<defs>
				<rect id="SVGID_2369_" x="-331.8" y="247" width="126.1" height="25.1"/>
			</defs>
			<clipPath id="SVGID_9_">
				<use xlink:href="#SVGID_2369_"  overflow="visible"/>
			</clipPath>
		</g>
		<g>
			<defs>
				<rect id="SVGID_2376_" x="-331.8" y="247" width="126.1" height="25.1"/>
			</defs>
			<clipPath id="SVGID_11_">
				<use xlink:href="#SVGID_2376_"  overflow="visible"/>
			</clipPath>
		</g>
		<g>
			<defs>
				<rect id="SVGID_2383_" x="-331.8" y="247" width="126.1" height="25.1"/>
			</defs>
			<clipPath id="SVGID_13_">
				<use xlink:href="#SVGID_2383_"  overflow="visible"/>
			</clipPath>
		</g>
		<g>
			<defs>
				<rect id="SVGID_2390_" x="-331.8" y="247" width="126.1" height="25.1"/>
			</defs>
			<clipPath id="SVGID_15_">
				<use xlink:href="#SVGID_2390_"  overflow="visible"/>
			</clipPath>
		</g>
		<g>
			<defs>
				<rect id="SVGID_2397_" x="-331.8" y="247" width="126.1" height="25.1"/>
			</defs>
			<clipPath id="SVGID_16_">
				<use xlink:href="#SVGID_2397_"  overflow="visible"/>
			</clipPath>
		</g>
		<g>
			<defs>
				<rect id="SVGID_2404_" x="-331.8" y="247" width="126.1" height="25.1"/>
			</defs>
			<clipPath id="SVGID_18_">
				<use xlink:href="#SVGID_2404_"  overflow="visible"/>
			</clipPath>
		</g>
		<g>
			<defs>
				<rect id="SVGID_2411_" x="-331.8" y="247" width="126.1" height="25.1"/>
			</defs>
			<clipPath id="SVGID_20_">
				<use xlink:href="#SVGID_2411_"  overflow="visible"/>
			</clipPath>
		</g>
		<g>
			<defs>
				<rect id="SVGID_2418_" x="-331.8" y="247" width="126.1" height="25.1"/>
			</defs>
			<clipPath id="SVGID_22_">
				<use xlink:href="#SVGID_2418_"  overflow="visible"/>
			</clipPath>
		</g>
		<g>
			<defs>
				<rect id="SVGID_2425_" x="-331.8" y="247" width="126.1" height="25.1"/>
			</defs>
			<clipPath id="SVGID_23_">
				<use xlink:href="#SVGID_2425_"  overflow="visible"/>
			</clipPath>
		</g>
		<g>
			<defs>
				<rect id="SVGID_2432_" x="-331.8" y="247" width="126.1" height="25.1"/>
			</defs>
			<clipPath id="SVGID_25_">
				<use xlink:href="#SVGID_2432_"  overflow="visible"/>
			</clipPath>
		</g>
		<g>
			<defs>
				<rect id="SVGID_2439_" x="-331.8" y="247" width="126.1" height="25.1"/>
			</defs>
			<clipPath id="SVGID_27_">
				<use xlink:href="#SVGID_2439_"  overflow="visible"/>
			</clipPath>
		</g>
		<g>
			<defs>
				<rect id="SVGID_2446_" x="-331.8" y="247" width="126.1" height="25.1"/>
			</defs>
			<clipPath id="SVGID_29_">
				<use xlink:href="#SVGID_2446_"  overflow="visible"/>
			</clipPath>
		</g>
		<g>
			<defs>
				<rect id="SVGID_2453_" x="-331.8" y="247" width="126.1" height="25.1"/>
			</defs>
			<clipPath id="SVGID_30_">
				<use xlink:href="#SVGID_2453_"  overflow="visible"/>
			</clipPath>
		</g>
		<g>
			<defs>
				<rect id="SVGID_2460_" x="-331.8" y="247" width="126.1" height="25.1"/>
			</defs>
			<clipPath id="SVGID_32_">
				<use xlink:href="#SVGID_2460_"  overflow="visible"/>
			</clipPath>
		</g>
		<g>
			<defs>
				<rect id="SVGID_2467_" x="-331.8" y="247" width="126.1" height="25.1"/>
			</defs>
			<clipPath id="SVGID_34_">
				<use xlink:href="#SVGID_2467_"  overflow="visible"/>
			</clipPath>
		</g>
		<g>
			<defs>
				<rect id="SVGID_2474_" x="-331.8" y="247" width="126.1" height="25.1"/>
			</defs>
			<clipPath id="SVGID_36_">
				<use xlink:href="#SVGID_2474_"  overflow="visible"/>
			</clipPath>
		</g>
		<g>
			<defs>
				<rect id="SVGID_2481_" x="-331.8" y="247" width="126.1" height="25.1"/>
			</defs>
			<clipPath id="SVGID_37_">
				<use xlink:href="#SVGID_2481_"  overflow="visible"/>
			</clipPath>
		</g>
		<g>
			<defs>
				<rect id="SVGID_2488_" x="-331.8" y="247" width="126.1" height="25.1"/>
			</defs>
			<clipPath id="SVGID_39_">
				<use xlink:href="#SVGID_2488_"  overflow="visible"/>
			</clipPath>
		</g>
		<g>
			<defs>
				<rect id="SVGID_2495_" x="-331.8" y="247" width="126.1" height="25.1"/>
			</defs>
			<clipPath id="SVGID_41_">
				<use xlink:href="#SVGID_2495_"  overflow="visible"/>
			</clipPath>
		</g>
		<g>
			<defs>
				<rect id="SVGID_2502_" x="-331.8" y="247" width="126.1" height="25.1"/>
			</defs>
			<clipPath id="SVGID_43_">
				<use xlink:href="#SVGID_2502_"  overflow="visible"/>
			</clipPath>
		</g>
		<g>
			<defs>
				<rect id="SVGID_2509_" x="-331.8" y="247" width="126.1" height="25.1"/>
			</defs>
			<clipPath id="SVGID_44_">
				<use xlink:href="#SVGID_2509_"  overflow="visible"/>
			</clipPath>
		</g>
		<g>
			<defs>
				<rect id="SVGID_2516_" x="-331.8" y="247" width="126.1" height="25.1"/>
			</defs>
			<clipPath id="SVGID_46_">
				<use xlink:href="#SVGID_2516_"  overflow="visible"/>
			</clipPath>
		</g>
		<g>
			<defs>
				<rect id="SVGID_2518_" x="-331.8" y="247" width="126.1" height="25.1"/>
			</defs>
			<clipPath id="SVGID_48_">
				<use xlink:href="#SVGID_2518_"  overflow="visible"/>
			</clipPath>
		</g>
		<g>
			<defs>
				<rect id="SVGID_2525_" x="-331.8" y="247" width="126.1" height="25.1"/>
			</defs>
			<clipPath id="SVGID_50_">
				<use xlink:href="#SVGID_2525_"  overflow="visible"/>
			</clipPath>
		</g>
		<g>
			<defs>
				<rect id="SVGID_2532_" x="-331.8" y="247" width="126.1" height="25.1"/>
			</defs>
			<clipPath id="SVGID_51_">
				<use xlink:href="#SVGID_2532_"  overflow="visible"/>
			</clipPath>
		</g>
		<g>
			<defs>
				<rect id="SVGID_2539_" x="-331.8" y="247" width="126.1" height="25.1"/>
			</defs>
			<clipPath id="SVGID_53_">
				<use xlink:href="#SVGID_2539_"  overflow="visible"/>
			</clipPath>
		</g>
		<g>
			<defs>
				<rect id="SVGID_2546_" x="-331.8" y="247" width="126.1" height="25.1"/>
			</defs>
			<clipPath id="SVGID_55_">
				<use xlink:href="#SVGID_2546_"  overflow="visible"/>
			</clipPath>
		</g>
		<g>
			<defs>
				<rect id="SVGID_2553_" x="-331.8" y="247" width="126.1" height="25.1"/>
			</defs>
			<clipPath id="SVGID_57_">
				<use xlink:href="#SVGID_2553_"  overflow="visible"/>
			</clipPath>
		</g>
	</g>
	<g>
		<path fill="#EF4135" d="M68.6,17.1c0,0-8.3,0-15.3,0c-7.2,0-14.4,0-16.1,0c-3.2,0-5.3,1.7-5.7,4.2c-0.1,0.9-0.2,1.8-0.2,1.8h41.9
			c0,0,0.1-0.6,0.1-1.1C73.6,19.4,72.5,17.1,68.6,17.1"/>
		<path fill="#EF4135" d="M72.9,25.4c0,0-0.1,0.8-0.2,1.8c-0.2,1.8-1.6,3.2-4.1,3.2h-8.9l-1,8.1h-7.1l1.6-13.1H72.9z"/>
		<polygon fill="#EF4135" points="11.6,17.1 30.6,17.1 29.8,23.1 10.8,23.1 		"/>
		<polygon fill="#EF4135" points="10.6,25.4 29.5,25.4 28.9,30.3 17,30.3 16.7,32.8 28.6,32.8 27.9,38.4 8.9,38.4 		"/>
		<path fill="#EF4135" d="M75.3,17.1h15.5c2.4,0,5,1.1,4.5,5.1c-0.1,0.7-0.1,0.9-0.1,0.9H74.6L75.3,17.1z"/>
		<polygon fill="#EF4135" points="74.3,25.4 81.4,25.4 79.8,38.4 72.7,38.4 		"/>
		<polygon fill="#EF4135" points="87.8,25.4 94.9,25.4 93.3,38.4 86.2,38.4 		"/>
		<path fill="#EF4135" d="M46.6,25.4H31c-0.5,3.4,1.2,5,3.6,5c1.3,0,9.6,0,9.6,0l-0.3,2.4H30.1l-0.7,5.7c0,0,15,0,15.7,0
			c0.5,0,4-0.1,5.2-3c0.4-0.9,0.7-4.3,0.8-5C51.6,26.3,48.8,25.4,46.6,25.4"/>
	</g>
</g>
</svg>
