<?xml version="1.0" encoding="utf-8"?>
<!-- Generator: Adobe Illustrator 18.1.1, SVG Export Plug-In . SVG Version: 6.00 Build 0)  -->
<svg version="1.1" id="Layer_1" xmlns="http://www.w3.org/2000/svg" xmlns:xlink="http://www.w3.org/1999/xlink" x="0px" y="0px"
	 viewBox="0 0 300 200" enable-background="new 0 0 300 200" xml:space="preserve">
<g>
	<g>
		<defs>
			<rect id="SVGID_1_" x="92.1" y="25.4" width="106" height="148"/>
		</defs>
		<clipPath id="SVGID_2_">
			<use xlink:href="#SVGID_1_"  overflow="visible"/>
		</clipPath>
		<path clip-path="url(#SVGID_2_)" fill="#FFFFFF" d="M174,30.9l-38.6-0.2c-6.5,0-11.8,5.3-11.8,11.8v115.9
			c0,6.5,5.3,11.8,11.8,11.8l38.6,0.2c6.5,0,11.8-5.3,11.8-11.8V42.8C185.7,36.3,180.5,30.9,174,30.9"/>
	</g>
	<g>
		<defs>
			<rect id="SVGID_3_" x="92.1" y="25.4" width="106" height="148"/>
		</defs>
		<clipPath id="SVGID_4_">
			<use xlink:href="#SVGID_3_"  overflow="visible"/>
		</clipPath>
		<path clip-path="url(#SVGID_4_)" fill="#ED174C" d="M181.1,97.7V43c0-3.9-3.2-7.1-7.1-7.1h-13l0,0c1,1,2.2,1.4,3,2.4
			c1.4,2.2,0.2,4.9-0.6,7.1l0.4,0.2c0.2,1.4-0.6,3-2,3.9c-0.4,1.8-2.6,3-2.8,5.1c1.2,0.8,2.8,1.4,3.9,3c2.6,1.4,4.9,3.7,6.3,6.3
			c1,3.7,1.2,7.1,1.6,11c-0.2,2.2,0.6,4.5,1,6.7c2,3.2,3,7.1,3.7,10.8c0,1.6,2,0.8,2.6,2.2c1.4,0.2,2,2,2.8,3H181.1z"/>
	</g>
	<g>
		<defs>
			<rect id="SVGID_5_" x="92.1" y="25.4" width="106" height="148"/>
		</defs>
		<clipPath id="SVGID_6_">
			<use xlink:href="#SVGID_5_"  overflow="visible"/>
		</clipPath>
		<path clip-path="url(#SVGID_6_)" fill="#006BB6" d="M169.9,166.1l-34.5-0.2c-3.9,0-7.1-3.2-7.1-7.1V42.8c0-3.9,3.2-7.1,7.1-7.1
			h20.7l-0.2,0.2c-0.2,0.4-1.2,0.4-1.6,1c-1.2,0.6-0.6,2-1.4,2.8c0.2,0.6,0.4,1.4,0,2c-0.2,0.4,0.2,0.8-0.2,1.2
			c-0.6-0.4-0.8,0.4-1.2,0.6c0,1.2-0.2,3.2,1.2,3.9l-0.2,1.8c-0.4,1.2-0.6,2.4-1.6,3.5c-1.6,0.2-3.2,0.2-4.7,0.8
			c-1-0.4-1.8,0.4-2.6,0.2c-1.4,0.2-2.4,1.4-3.7,1.8c-0.4,0.6-1,0.8-1,1.4c-1,1.6-2.2,3-2.8,4.9c-0.6,1-1,2.2-1.6,3.2
			c0,1.4-1.2,2.4-1.4,3.7c-0.6,1.2-1.2,2.6-1.6,4.1c-0.8,0.8-0.6,2-1,3c-0.2,0.6-1,1.4-0.8,2.2l-0.4,1.2c0.2,1.4,0.6,3.2,2,4.5
			l3.7,0.4c0.6,1.6-1.2,2.4-1.8,3.7c-0.2,0.2-0.4,0-0.4,0.4c1,1-0.6,1.8-0.2,2.8c-0.2,1.4-0.8,3.2-0.4,4.9c-0.4,0.8,0.4,1.4,0.6,2.4
			c0.8,0.8,0.8,2,1.4,2.8c0.4,1,1.2,1.6,1.6,2.6c-0.4,0.4,0.4,0.6,0.6,1.2c0.8,1.2,0.6,2.8,1.4,4.3c0.8,0.4,1.8,0,2.8,0.2
			c0.4,0.8,1,1.4,1.2,2.2c0.8,0.4,0.6,1.2,1,1.8c0.6,1,1.4,2,1.8,3c0.6,0.6,0.8,1.2,1.2,1.8c3.2,4.5,6.5,8.1,10.4,11.8
			c0.8,0.4,1.6,1.2,2.2,1.8c2,1.8,4.3,3.5,6.7,5.1c0,1.6,2,2.8,0.8,4.5c0.2,0.6,0.2,1.4,0.6,1.8c-0.4,0.6,0.4,0.6,0.6,1.2
			c0.8,2,2,4.3,1.6,6.7c1,1.2,1,3.5,0.6,5.1c0.4,1.8-0.4,3.7-0.2,5.5C168.7,163.5,169.7,164.7,169.9,166.1L169.9,166.1z"/>
	</g>
	<g>
		<defs>
			<rect id="SVGID_7_" x="92.1" y="25.4" width="106" height="148"/>
		</defs>
		<clipPath id="SVGID_8_">
			<use xlink:href="#SVGID_7_"  overflow="visible"/>
		</clipPath>
		<path clip-path="url(#SVGID_8_)" fill="#ED174C" d="M180.9,106.6c-1.6,3.2-4.9,5.3-8.5,5.3c-5.3,0-9.5-4.3-9.5-9.5
			c0-3.7,2-6.7,4.9-8.3l0.6-0.4c0.8-0.2,1.6-0.4,2-1c-3.5-5.9-5.5-12.6-6.5-19.3c-0.2-0.6,0-1-0.4-1.6c-0.2,0-0.4-0.2-0.6,0
			c-1.2,0.4-2.4,1.2-3.5,2.2c-1.2,2.8-2.2,5.9-3.2,8.9c0.4,0.8,1.4,0.8,1.6,1.6c1.2,3.7,2.6,7.1,3.5,10.8c0,0.8,0.2,1.4-0.2,2
			c-0.8,0.4,0,1,0,1.6c1,2.8,1.4,5.7,2,8.7c0,1,0.4,2,0.4,3c0.2,2.2,0.8,4.3,1.4,6.3c4.1,5.3,4.1,12.4,5.5,18.3
			c1.4,2.2,3,4.5,2.4,7.1c0,1.2-0.4,2.2-0.6,3.2c0.4,2.2,0.4,4.1,1.2,6.3c0.2,0.4,0,1,0.2,1.4c0.2,2,0.8,3.9,1.6,5.7
			c0.8,2.6-0.2,5.3-1.8,6.9v0.2h1.2c3.9,0,7.1-3.2,7.1-7.1L180.9,106.6L180.9,106.6z"/>
	</g>
	<g>
		<defs>
			<rect id="SVGID_9_" x="92.1" y="25.4" width="106" height="148"/>
		</defs>
		<clipPath id="SVGID_10_">
			<use xlink:href="#SVGID_9_"  overflow="visible"/>
		</clipPath>
		<polygon clip-path="url(#SVGID_10_)" fill="#FFFFFF" points="137.2,149.4 137.2,149.6 137.4,158.8 133.8,158.8 133.8,142.3 
			137.8,142.3 140.9,151.5 140.9,151.5 140.5,142.3 144.1,142.3 144.1,158.8 140.3,158.8 		"/>
	</g>
	<g>
		<defs>
			<rect id="SVGID_11_" x="92.1" y="25.4" width="106" height="148"/>
		</defs>
		<clipPath id="SVGID_12_">
			<use xlink:href="#SVGID_11_"  overflow="visible"/>
		</clipPath>
		<path clip-path="url(#SVGID_12_)" fill="#FFFFFF" d="M144.9,158.8v-16.4h5.1c2.8,0,5.3,1,5.3,4.3c0,1.4-0.6,2.6-1.8,3.5l0,0
			c1.8,1,2,1.8,2,3.9c0,3.2-1.8,4.7-5.1,4.7L144.9,158.8z M148.8,155.7c2,0,2.8,0,2.8-2c0-1.8-1-1.8-2.8-2V155.7z M148.8,148.8
			c1.6-0.2,2.4,0,2.4-2c0-1.6-1-1.6-2.4-1.6V148.8z"/>
	</g>
	<g>
		<defs>
			<rect id="SVGID_13_" x="92.1" y="25.4" width="106" height="148"/>
		</defs>
		<clipPath id="SVGID_14_">
			<use xlink:href="#SVGID_13_"  overflow="visible"/>
		</clipPath>
		<path clip-path="url(#SVGID_14_)" fill="#FFFFFF" d="M155.1,158.8l3.7-16.4h4.7l3.7,16.4h-3.9l-0.6-3.2h-3l-0.6,3.2H155.1z
			 M161,145.4L161,145.4l-1.2,7.3h2.2L161,145.4z"/>
	</g>
</g>
<g>
	<g>
		<defs>
			<rect id="SVGID_15_" x="83.8" y="25.4" width="106" height="148"/>
		</defs>
		<clipPath id="SVGID_16_">
			<use xlink:href="#SVGID_15_"  overflow="visible"/>
		</clipPath>
		<g clip-path="url(#SVGID_16_)">
			<text transform="matrix(1 0 0 1 49.2467 196.0446)" font-family="'ArialMT'" font-size="14.9801">Local Franchises</text>
		</g>
	</g>
	<g>
		<defs>
			<rect id="SVGID_17_" x="83.8" y="25.4" width="106" height="148"/>
		</defs>
		<clipPath id="SVGID_18_">
			<use xlink:href="#SVGID_17_"  overflow="visible"/>
		</clipPath>
		<polyline clip-path="url(#SVGID_18_)" fill="none" stroke="#010101" stroke-width="0.615" points="161.4,191.7 282.6,191.7 
			282.6,169.5 		"/>
	</g>
</g>
</svg>
