<?xml version="1.0" encoding="utf-8"?>
<!-- Generator: Adobe Illustrator 18.1.1, SVG Export Plug-In . SVG Version: 6.00 Build 0)  -->
<svg version="1.1" id="Layer_1" xmlns="http://www.w3.org/2000/svg" xmlns:xlink="http://www.w3.org/1999/xlink" x="0px" y="0px"
	 viewBox="0 0 137.7 65" enable-background="new 0 0 137.7 65" xml:space="preserve">
<g>
	<g>
		<path d="M19.3,23.6c0-0.1,0-0.3,0-0.5l0.8-0.2c0.1,0,0.2-0.1,0.4-0.1l0.1-1.7c0-0.6,0-1.1,0-1.4l0-0.2c0-0.2,0-0.7,0-1.4l0-0.2
			l0-0.6l0-0.6v-0.3c0-0.3,0-0.6-0.1-0.9c0,0,0-0.1,0-0.2c0,0-0.1,0-0.1,0s-0.1,0-0.1,0c-0.2,0-0.3-0.1-0.5-0.1l-0.1,0
			c-0.1,0-0.2,0-0.3-0.1c0-0.1,0-0.2,0-0.3c0-0.1,0-0.1,0-0.2c0.1,0,0.2,0,0.4,0c0.2,0,0.3,0,0.3,0c0.5,0.1,0.9,0.1,1.1,0.1
			c0.1,0,0.2,0,0.3,0c0.1,0,0.2,0,0.3,0c0.1,0,0.5,0,1-0.1c0.1,0,0.2,0,0.3,0c0.2,0,0.3,0,0.4,0c0,0.1,0,0.2,0,0.2
			c0,0.1,0,0.2,0,0.3l-1.1,0.2c-0.1,0-0.1,0.1-0.1,0.2l0,0.3l0,0.1l0,0.3l0,0.2v0.1c0,0.1,0,0.1,0,0.1l0,0.9c0,0.1,0,0.1,0,0.2
			c0,0,0,0.1,0,0.2c0,0.1,0,0.2,0,0.2c0,0.1,0,0.2,0,0.5c0.1,0,0.2,0,0.3,0l0.9,0H24l1.1,0l1.1,0c0.1,0,0.3,0,0.5,0
			c0-0.2,0-0.5,0-1.2l0-0.3l0-1.2l0-0.5c0,0,0-0.1-0.1-0.1c-0.1-0.1-0.4-0.2-0.9-0.3c-0.1,0-0.2,0-0.2-0.1c0-0.2,0-0.3,0.1-0.4
			c0.1,0,0.1,0,0.2,0l0.6,0c0.4,0.1,0.8,0.1,1.2,0.1c0.1,0,0.2,0,0.2,0l0.8,0c0.1,0,0.2,0,0.2,0c0.2,0,0.3-0.1,0.5-0.1
			c0.1,0,0.3,0,0.4,0c0,0.2,0,0.3,0,0.5c-0.4,0.1-0.6,0.2-0.8,0.2c-0.1,0-0.2,0.1-0.4,0.2l0,0.1v0.1l0,0.2l0,0.1c0,0.1,0,0.2,0,0.2
			v0.2c0,0.2,0,0.3,0,0.3v0.9l0,0.7l0,0.9c0,0.2,0,0.6,0,1.3v1l0,0.8c0,0.2,0,0.3,0,0.6c0.1,0,0.2,0.1,0.2,0.1
			c0.4,0.1,0.7,0.2,0.9,0.3l0,0.5c-0.2,0-0.3,0-0.3,0c-0.2,0-0.4,0-0.7,0c-0.3,0-0.9-0.1-1.7-0.1c-0.3,0-0.8,0-1.3,0.1
			c-0.1,0-0.1,0-0.2,0c0-0.2,0-0.4,0-0.5l0.5-0.1l0.5-0.1c0.1,0,0.1,0,0.2-0.1c0-0.4,0.1-1,0.1-1.9l0-0.6c0-0.2,0-0.5,0-0.9
			c-0.2,0-0.3,0-0.5,0l-2.9,0l-0.1,0l0,0c0,0-0.1,0-0.1,0c-0.1,0-0.2,0-0.3,0h-0.2c-0.1,0-0.2,0-0.3,0l0,0.5v0.1c0,0.1,0,0.2,0,0.2
			v2.2c0,0.1,0,0.2,0,0.4l0.1,0l0.9,0.2c0,0,0.1,0,0.1,0c0.1,0,0.1,0,0.1,0.1c0,0.1,0,0.2,0,0.2c0,0.1,0,0.1,0,0.3
			c-0.2,0-0.3,0-0.4,0c-0.1,0-0.2,0-0.3,0c0,0-0.1,0-0.1,0l-0.9,0c-0.2,0-0.5,0-0.9,0l-0.1,0c-0.2,0-0.3,0-0.3,0
			C20.3,23.6,19.9,23.6,19.3,23.6"/>
		<path d="M32,14.6c0.2,0,0.5,0,0.6,0.1c0.3,0.1,0.7,0.1,1.2,0.1c0.2,0,0.5,0,1.2,0c0.9,0,1.8-0.1,2.6-0.1l1.1,0
			c0.3,0,0.6,0,1.1,0.1c0.1,0.1,0.1,0.2,0.1,0.4v1.4l0,0.3c0,0,0,0.1,0,0.1l-0.3,0c0,0-0.1,0-0.2,0c0-0.1-0.1-0.2-0.2-0.4L39,16.1
			c-0.1-0.2-0.2-0.4-0.4-0.6c-0.1,0-0.2-0.1-0.4-0.1c0,0-0.2,0-0.4,0c-0.4,0-0.8-0.1-1.3-0.1c-0.5,0-1,0-1.4,0c0,0.1,0,0.6,0,1.4
			l0,1.2v0.9c0.1,0,0.2,0,0.3,0c0.8,0,1.3,0,1.6,0c0.3,0,0.5-0.1,0.6-0.1c0.1-0.1,0.1-0.2,0.2-0.3c0-0.1,0.1-0.4,0.2-1l0.1,0l0.4,0
			c0,0.4,0,0.7,0,0.9c0,0.5,0,0.8,0,0.9c0,0.1,0,0.2,0,0.3c0,0.1,0,0.3,0,0.6c0,0.3,0,0.5,0,0.6v0.2h-0.4c0-0.1,0-0.2-0.1-0.5
			c-0.1-0.4-0.2-0.7-0.2-0.8c-0.1-0.1-0.1-0.1-0.3-0.2c-0.1,0-0.4,0-0.9,0c-0.6,0-1.1,0-1.4,0.1v0.2c0,0.6,0,1,0,1.4l0,1.5
			c0,0.2,0.1,0.3,0.2,0.4C35.5,23,36.1,23,37,23c0.6,0,1.1,0,1.5-0.1c0.3-0.1,0.5-0.2,0.7-0.5c0.3-0.3,0.5-0.7,0.7-1.3
			c0.1,0,0.2,0,0.3,0c0,0,0.1,0,0.2,0c0,0.1,0,0.2,0,0.3l0,0.2l-0.2,1.3L40,23.7c-0.3,0-0.5,0-0.7,0c-0.2,0-0.9,0-1.9-0.1
			c-0.7,0-1.6,0-2.6,0c-0.5,0-1.1,0-1.9,0.1h-0.3l-0.8,0v-0.5c0.1,0,0.2,0,0.5-0.1c0.4-0.1,0.7-0.1,0.9-0.2c0-0.1,0.1-0.3,0.1-0.5
			c0-0.1,0-0.2,0-0.4l0-0.2l0-2.6l0-0.8l0-1.1l0-0.8l-0.1-0.9c0,0,0-0.1,0-0.1c0-0.1-0.1-0.1-0.2-0.1c0,0-0.1,0-0.2,0
			c-0.2-0.1-0.5-0.1-0.7-0.1c-0.1,0-0.2,0-0.3,0L32,14.6z"/>
		<path d="M45.9,18.7c0.2,0,0.4,0,0.4,0c0.7,0,1.2-0.1,1.5-0.4c0.3-0.3,0.5-0.7,0.5-1.1c0-0.3,0-0.6-0.1-0.8
			c-0.1-0.3-0.2-0.4-0.3-0.6c-0.2-0.2-0.4-0.3-0.6-0.4c-0.2-0.1-0.5-0.1-0.9-0.1c-0.2,0-0.4,0-0.5,0l0,0.1l0,0.9l0,0.6l0,0.8
			c0,0.2,0,0.5,0,0.8V18.7z M43.1,23.2c0.1-0.1,0.3-0.1,0.5-0.1c0.2,0,0.4-0.1,0.6-0.2c0-0.1,0-0.2,0-0.2c0-0.1,0-0.3,0-0.7l0-1.6
			l0-0.8l0-0.6l0-0.4c0-0.5,0-1,0-1.4c0-1,0-1.6,0-1.9l-0.4-0.1c-0.3,0-0.6,0-0.7-0.1l0-0.4l0-0.1c0.2,0,0.4-0.1,0.6-0.1
			c0.1,0,0.3,0,0.6,0c0.3,0,0.5,0,0.5,0l0.3,0l0.8,0c0.5-0.1,1-0.1,1.6-0.1c0.9,0,1.6,0.2,2.1,0.7c0.5,0.5,0.8,1,0.8,1.7
			c0,0.5-0.1,0.9-0.4,1.3c-0.3,0.4-0.7,0.7-1.3,0.9c0.1,0.1,0.1,0.2,0.2,0.3c0.2,0.3,0.3,0.5,0.4,0.7l1,1.8c0.3,0.5,0.4,0.8,0.5,0.8
			c0.1,0.1,0.2,0.2,0.5,0.3c0.2,0.1,0.3,0.2,0.4,0.2c0,0.1,0,0.1,0,0.2c0,0,0,0.1,0,0.2h-0.2l-0.1,0l-0.3,0h-0.3c-0.1,0-0.3,0-0.5,0
			l-0.6,0c0,0-0.2,0-0.4,0c-0.1,0-0.2,0-0.3,0l-0.2-0.5c-0.2-0.3-0.3-0.6-0.4-0.8c-0.2-0.5-0.5-1.2-1-2.2c-0.2-0.5-0.4-0.7-0.4-0.8
			c-0.1-0.1-0.3-0.1-0.7-0.1c-0.1,0-0.2,0-0.4,0c0,0.1,0,0.3,0,0.5l0,1.5l0,1.3c0.1,0.1,0.3,0.1,0.5,0.2c0.3,0.1,0.6,0.2,0.8,0.3
			c0,0.2,0,0.4,0,0.5c-0.1,0-0.1,0-0.2,0l-0.3,0c-0.9-0.1-1.4-0.1-1.6-0.1c-0.1,0-0.2,0-0.2,0l-0.9,0.1c-0.3,0-0.5,0-0.7,0h-0.3
			c0-0.1,0-0.2,0-0.2C43.1,23.4,43.1,23.3,43.1,23.2"/>
		<path d="M58.6,14.8c0,0.2,0.1,0.4,0.1,0.7c0.1,0.5,0.1,0.9,0.1,1.1c0,0.1,0,0.2,0,0.3l-0.1,0l-0.5,0l-0.1,0
			c-0.2-0.6-0.4-1-0.6-1.2c-0.3-0.4-0.7-0.6-1.1-0.6c-0.4,0-0.7,0.1-1,0.4c-0.2,0.2-0.4,0.5-0.4,0.9c0,0.3,0.1,0.6,0.4,0.9
			c0.2,0.3,0.7,0.5,1.5,0.8c0.3,0.1,0.6,0.2,0.9,0.4c0.4,0.2,0.6,0.4,0.8,0.6c0.3,0.3,0.4,0.6,0.5,0.8c0.1,0.3,0.1,0.6,0.1,1
			c0,0.4-0.1,0.9-0.2,1.3c-0.1,0.2-0.2,0.4-0.4,0.6c-0.1,0.1-0.3,0.3-0.6,0.5c-0.3,0.2-0.5,0.3-0.8,0.4c-0.3,0.1-0.7,0.1-1.1,0.1
			c-0.3,0-0.6,0-1.1-0.1l-0.8-0.2c-0.2-0.1-0.3-0.1-0.4-0.2c0,0,0-0.1-0.1-0.1V23c0-0.1,0-0.4,0-1c0-0.3,0-0.5,0-0.6v-0.3l0.6,0
			c0.2,0.5,0.3,0.8,0.4,0.9c0.1,0.2,0.3,0.4,0.4,0.6c0.2,0.1,0.3,0.3,0.6,0.3c0.2,0.1,0.5,0.1,0.7,0.1c0.2,0,0.5-0.1,0.8-0.2
			c0.3-0.1,0.5-0.3,0.7-0.5c0.2-0.2,0.2-0.5,0.2-0.8c0-0.3-0.1-0.7-0.4-1c-0.2-0.2-0.7-0.4-1.4-0.7c-0.8-0.3-1.3-0.6-1.6-0.8
			c-0.3-0.2-0.5-0.6-0.7-1c-0.2-0.4-0.3-0.8-0.3-1.1c0-0.7,0.2-1.4,0.7-1.9c0.5-0.5,1.2-0.8,2.1-0.8c0.2,0,0.5,0,0.9,0.1
			C57.9,14.6,58.2,14.7,58.6,14.8"/>
		<path d="M69.3,14.8c0.1,0.1,0.2,0.5,0.3,1.2c0.1,0.3,0.1,0.6,0.1,0.9h-0.6c-0.4-0.6-0.8-1.1-1.3-1.4c-0.4-0.3-0.9-0.4-1.4-0.4
			c-0.7,0-1.2,0.3-1.6,0.8c-0.5,0.8-0.8,1.8-0.8,3.2c0,0.8,0,1.4,0.1,1.7c0.2,0.5,0.3,1,0.6,1.3c0.2,0.3,0.4,0.5,0.7,0.6
			c0.4,0.2,0.8,0.3,1.2,0.3c0.5,0,0.9-0.2,1.3-0.5c0.4-0.3,0.8-0.8,1.2-1.4c0.2,0,0.4-0.1,0.6-0.1c0,0.2,0,0.4-0.1,0.5
			c0,0.1-0.1,0.4-0.1,0.9l-0.1,0.2l-0.1,0.3c-0.3,0.2-0.6,0.4-1.1,0.5c-0.5,0.1-1,0.2-1.7,0.2c-0.5,0-1-0.1-1.5-0.2
			c-0.5-0.1-0.9-0.3-1.2-0.5c-0.5-0.3-0.9-0.7-1.1-1.1c-0.3-0.4-0.5-0.8-0.6-1.3c-0.1-0.5-0.2-1-0.2-1.5c0-1.4,0.4-2.5,1.2-3.4
			c0.8-0.9,1.9-1.4,3.2-1.4c0.5,0,1,0,1.5,0.1C68.4,14.6,68.9,14.7,69.3,14.8"/>
		<path d="M72.3,23.6c0-0.1,0-0.3,0-0.5l0.8-0.2c0.1,0,0.2-0.1,0.4-0.1l0.1-1.7c0-0.6,0-1.1,0-1.4l0-0.2c0-0.2,0-0.7,0-1.4l0-0.2
			l0-0.6l0-0.6v-0.3c0-0.3,0-0.6-0.1-0.9c0,0,0-0.1-0.1-0.2c0,0-0.1,0-0.1,0c0,0-0.1,0-0.1,0c-0.2,0-0.3-0.1-0.5-0.1l-0.1,0
			c-0.1,0-0.2,0-0.3-0.1c0-0.1,0-0.2,0-0.3c0-0.1,0-0.1,0-0.2c0.1,0,0.2,0,0.4,0c0.2,0,0.3,0,0.3,0c0.5,0.1,0.9,0.1,1.1,0.1
			c0.1,0,0.2,0,0.3,0c0.1,0,0.2,0,0.3,0c0.1,0,0.5,0,1-0.1c0.1,0,0.2,0,0.3,0c0.2,0,0.3,0,0.4,0c0,0.1,0,0.2,0,0.2
			c0,0.1,0,0.2,0,0.3l-1.1,0.2c-0.1,0-0.1,0.1-0.1,0.2l0,0.3l0,0.1l0,0.3l0,0.2v0.1c0,0.1,0,0.1,0,0.1l0,0.9c0,0.1,0,0.1,0,0.2
			c0,0,0,0.1,0,0.2c0,0.1,0,0.2,0,0.2c0,0.1,0,0.2,0,0.5c0.1,0,0.2,0,0.3,0l0.9,0h0.5l1.1,0l1.1,0c0.1,0,0.3,0,0.5,0
			c0-0.2,0-0.5,0-1.2l0-0.3l0-1.2l0-0.5c0,0,0-0.1-0.1-0.1c-0.1-0.1-0.4-0.2-0.9-0.3c-0.1,0-0.2,0-0.2-0.1c0-0.2,0-0.3,0.1-0.4
			c0.1,0,0.1,0,0.2,0l0.6,0c0.4,0.1,0.8,0.1,1.2,0.1c0.1,0,0.2,0,0.2,0l0.8,0c0.1,0,0.2,0,0.2,0c0.2,0,0.3-0.1,0.5-0.1
			c0.1,0,0.3,0,0.4,0c0,0.2,0,0.3,0,0.5c-0.4,0.1-0.6,0.2-0.8,0.2c-0.1,0-0.2,0.1-0.4,0.2l0,0.1v0.1l0,0.2l0,0.1c0,0.1,0,0.2,0,0.2
			v0.2c0,0.2,0,0.3,0,0.3v0.9l0,0.7l0,0.9c0,0.2,0,0.6,0,1.3v1l0,0.8c0,0.2,0,0.3,0,0.6c0.1,0,0.2,0.1,0.2,0.1
			c0.4,0.1,0.7,0.2,0.9,0.3l0,0.5c-0.2,0-0.3,0-0.3,0c-0.2,0-0.4,0-0.7,0c-0.3,0-0.9-0.1-1.7-0.1c-0.3,0-0.8,0-1.3,0.1
			c-0.1,0-0.1,0-0.2,0c0-0.2,0-0.4,0-0.5l0.5-0.1l0.5-0.1c0.1,0,0.1,0,0.2-0.1c0-0.4,0.1-1,0.1-1.9l0-0.6c0-0.2,0-0.5,0-0.9
			c-0.2,0-0.3,0-0.5,0l-2.9,0l-0.1,0l0,0c0,0-0.1,0-0.1,0c-0.1,0-0.2,0-0.3,0h-0.2c-0.1,0-0.2,0-0.3,0l0,0.5v0.1c0,0.1,0,0.2,0,0.2
			v2.2c0,0.1,0,0.2,0,0.4l0.1,0l0.9,0.2c0,0,0.1,0,0.1,0c0.1,0,0.1,0,0.1,0.1c0,0.1,0,0.2,0,0.2c0,0.1,0,0.1,0,0.3
			c-0.2,0-0.3,0-0.4,0c-0.1,0-0.2,0-0.3,0c0,0-0.1,0-0.1,0l-0.9,0c-0.2,0-0.5,0-0.9,0l-0.1,0c-0.2,0-0.3,0-0.3,0
			C73.2,23.6,72.8,23.6,72.3,23.6"/>
		<path d="M85,14.6c0.2,0,0.4,0,0.6,0.1c0.3,0.1,0.7,0.1,1.2,0.1c0.2,0,0.5,0,1.2,0c0.9,0,1.8-0.1,2.6-0.1l1.1,0
			c0.3,0,0.6,0,1.1,0.1c0.1,0.1,0.1,0.2,0.1,0.4v1.4l0,0.3c0,0,0,0.1,0,0.1l-0.3,0c0,0-0.1,0-0.2,0c0-0.1-0.1-0.2-0.2-0.4L92,16.1
			c-0.1-0.2-0.2-0.4-0.4-0.6c-0.1,0-0.2-0.1-0.4-0.1c0,0-0.2,0-0.4,0c-0.4,0-0.8-0.1-1.3-0.1c-0.5,0-1,0-1.4,0c0,0.1,0,0.6,0,1.4
			l0,1.2v0.9c0.1,0,0.2,0,0.3,0c0.8,0,1.3,0,1.6,0c0.3,0,0.5-0.1,0.6-0.1c0.1-0.1,0.1-0.2,0.2-0.3c0-0.1,0.1-0.4,0.2-1l0.1,0l0.4,0
			c0,0.4,0,0.7,0,0.9c0,0.5,0,0.8,0,0.9c0,0.1,0,0.2,0,0.3c0,0.1,0,0.3,0,0.6c0,0.3,0,0.5,0,0.6v0.2h-0.5c0-0.1,0-0.2-0.1-0.5
			c-0.1-0.4-0.2-0.7-0.2-0.8c-0.1-0.1-0.1-0.1-0.3-0.2c-0.1,0-0.4,0-0.9,0c-0.6,0-1.1,0-1.4,0.1v0.2c0,0.6,0,1,0,1.4l0,1.5
			c0,0.2,0.1,0.3,0.2,0.4C88.5,23,89,23,89.9,23c0.6,0,1.1,0,1.5-0.1c0.3-0.1,0.5-0.2,0.7-0.5c0.3-0.3,0.5-0.7,0.7-1.3
			c0.1,0,0.2,0,0.3,0c0,0,0.1,0,0.2,0c0,0.1,0,0.2,0,0.3l0,0.2l-0.2,1.3L93,23.7c-0.3,0-0.5,0-0.7,0c-0.2,0-0.9,0-1.9-0.1
			c-0.7,0-1.6,0-2.6,0c-0.5,0-1.1,0-1.9,0.1h-0.3l-0.8,0v-0.5c0.1,0,0.2,0,0.5-0.1c0.4-0.1,0.7-0.1,0.9-0.2c0-0.1,0.1-0.3,0.1-0.5
			c0-0.1,0-0.2,0-0.4l0-0.2l0-2.6l0-0.8l0-1.1l0-0.8l-0.1-0.9c0,0,0-0.1,0-0.1c0-0.1-0.1-0.1-0.2-0.1c0,0-0.1,0-0.2,0
			c-0.2-0.1-0.5-0.1-0.7-0.1c-0.1,0-0.2,0-0.3,0L85,14.6z"/>
		<path d="M95.6,15.2l0-0.5h0.5l0.2,0c0.3,0,0.4,0,0.5,0c0.1,0,0.2,0,0.4,0c0.1,0,0.1,0,0.1,0c0,0,0.2,0,0.4,0c0.2,0,0.4,0,0.4,0
			c0,0,0.1,0,0.2,0c0.7,0.7,1.2,1.2,1.6,1.7c0.4,0.5,1.9,2.1,4.5,4.9v-0.2l0-0.8c0-0.5,0-0.8-0.1-1.1c0-0.3,0-0.6,0-1
			c0-0.4,0-0.7,0-1c-0.1-0.6-0.1-1-0.1-1.1c0-0.3,0-0.5-0.1-0.6c-0.1-0.1-0.3-0.2-0.6-0.2c-0.2,0-0.4-0.1-0.5-0.2l0-0.4l0.2,0l1.2,0
			l1.4,0c0.1,0,0.2,0,0.3,0l0,0.5c-0.1,0.1-0.2,0.1-0.3,0.1c-0.3,0.1-0.4,0.1-0.5,0.1c-0.2,0.1-0.3,0.2-0.3,0.2
			c0,0.1-0.1,0.1-0.1,0.3c0,0,0,0.1,0,0.3c0,0.1,0,0.3,0,0.6c0,0.7,0,1.2,0.1,1.6c0,0.1,0,0.3,0,0.4l0.1,2.4c0,0.2,0,0.3,0,0.4v0.9
			l0,0.4l0,0.4c0,0.2,0,0.3,0,0.3v0.4l-0.7,0l-0.8-0.9l-1.5-1.7l-1.1-1.2l-0.8-0.9c-0.5-0.6-1-1-1.4-1.5l-1-1l0.1,2.6
			c0,0.2,0,0.3,0,0.5l0,0.5l0,0.9c0,0.4,0,0.8,0.1,1.2c0,0.1,0,0.2,0,0.3c0,0,0,0.1,0.1,0.2c0.2,0.1,0.5,0.1,1.1,0.1
			c0,0,0.1,0,0.2,0l0,0.6l-0.2,0c-0.1,0-0.6,0-1.3-0.1c-0.7,0-1.1,0-1.3,0c-0.2,0-0.3,0-0.4,0c-0.1,0-0.1,0-0.2,0c0-0.1,0-0.2,0-0.3
			c0-0.1,0-0.1,0-0.3c0.1,0,0.2,0,0.3,0c0,0,0.1,0,0.2,0c0.4,0,0.6,0,0.6-0.1c0.1-0.1,0.1-0.2,0.1-0.5c0-0.7,0-1.2,0-1.4v-0.4l0-2.3
			l0-1.4c0-0.5,0-0.9-0.1-1.1c0-0.1-0.1-0.2-0.1-0.3c-0.1-0.2-0.3-0.3-0.5-0.4C96.3,15.3,96.1,15.3,95.6,15.2"/>
		<path d="M111.5,15.3c0,0.1,0,0.2,0,0.3l0,1.2v1c0,0.3,0,0.6,0,0.9l0,0.7l0,1.1l0,0.7c0,0.6,0.1,1.1,0.3,1.3
			c0.3,0.3,0.7,0.5,1.3,0.5c0.4,0,0.7,0,0.9-0.1c0.4-0.2,0.7-0.4,1-0.7c0.2-0.3,0.4-0.7,0.6-1.2c0.1-0.5,0.2-1.1,0.2-1.7
			c0-0.9-0.1-1.7-0.4-2.3c-0.3-0.6-0.6-1-1.1-1.3c-0.5-0.3-1-0.4-1.6-0.4C112.2,15.1,111.8,15.2,111.5,15.3 M108.4,23.1
			c0.1,0,0.2,0,0.4-0.1c0.4-0.1,0.7-0.2,0.8-0.3c0.1-0.1,0.1-0.2,0.1-0.5c0-0.1,0-0.8,0-2.1l0-0.8l0-0.9l0-2.4v-0.3
			c0-0.1,0-0.2-0.1-0.3c0,0-0.1,0-0.2,0c-0.1,0-0.2,0-0.4,0c-0.2,0-0.4,0-0.5,0.1c0,0-0.1,0-0.1,0l0-0.6c0.2-0.1,0.6-0.2,1.1-0.3
			c0.8-0.1,1.7-0.2,2.8-0.2c0.9,0,1.6,0.1,2.1,0.2c0.7,0.2,1.2,0.5,1.6,0.8c0.6,0.5,1,1,1.2,1.7c0.3,0.6,0.4,1.3,0.4,2.1
			c0,0.9-0.2,1.7-0.6,2.4c-0.4,0.7-0.9,1.2-1.6,1.6c-0.5,0.3-1.2,0.4-2,0.4l-1.3-0.1l-0.4,0l-0.5,0l-0.2,0l-0.5,0l-0.7,0
			c0,0-0.2,0-0.6,0c-0.1,0-0.3,0-0.5,0c-0.1,0-0.2,0-0.3,0C108.4,23.5,108.4,23.4,108.4,23.1"/>
		<path d="M19.3,41.6l0-0.9c0.2,0,0.4-0.1,0.8-0.2c0.4-0.1,0.7-0.2,1.1-0.3l0.2-0.1c0.1-0.3,0.1-0.7,0.1-1v-0.1l0-2.8l0-1.2l0-1.7
			l0-2.1l-0.1-4c-0.1-0.1-0.5-0.2-1.1-0.3c-0.1,0-0.4-0.1-0.6-0.2l-0.3-0.1v-0.8l1.5,0.1C21.7,26,23,26,24.7,26c0.9,0,1.8,0,2.7-0.1
			l0.2,0l0.5,0l0.2,0h0.5l2-0.1c0.1,0,0.2,0,0.3,0c0.1,0,0.3,0,0.4,0c0,0.2,0.1,0.5,0.1,0.7l0.2,2.3c0,0.2,0,0.4-0.1,0.6
			c-0.3,0-0.5,0.1-0.6,0.1c-0.1,0-0.3,0-0.4-0.1c0,0-0.1-0.2-0.3-0.5c-0.3-0.8-0.6-1.3-0.8-1.4c-0.2-0.2-0.8-0.2-1.8-0.2l-1.5,0
			c-0.6,0-1.2,0.1-1.5,0.1c-0.1,0-0.2,0.1-0.4,0.1c-0.1,0.2-0.1,0.4-0.1,0.7l0,1.4l0,1.6c0,0.8,0,1.4,0.1,1.6c0.1,0,0.1,0.1,0.2,0.1
			l0.8,0h1.3c0.3,0,0.7,0,1.4-0.1c0.4-0.1,0.7-0.1,0.8-0.2c0.2-0.1,0.3-0.3,0.4-0.5c0.1-0.2,0.1-0.7,0.2-1.4c0,0,0.1,0,0.3,0
			c0.1,0,0.2,0,0.2,0c0.1,0,0.2,0,0.5,0l-0.1,1.9c0,0.4,0,0.8,0,1.1l0,0.3c0,0.1,0,0.7,0,1.8c0,0.1,0,0.2,0,0.4c-0.1,0-0.3,0-0.3,0
			c-0.1,0-0.2,0-0.4-0.1c-0.1-0.2-0.1-0.4-0.2-0.7c-0.2-0.6-0.4-1-0.5-1.1c-0.4-0.2-1.5-0.3-3.3-0.3c-0.3,0-0.6,0-0.9,0.1
			c-0.1,0.3-0.1,0.7-0.1,1.2l0.1,3.6c0,0.7,0.1,1.1,0.2,1.2c0.1,0.1,0.4,0.2,0.8,0.3l0.2,0c0.3,0,0.6,0.1,0.9,0.2l0.3,0.1
			c0,0.2,0,0.4,0,0.5c0,0.1,0,0.3,0,0.5l-0.2,0l-0.3,0l-1.6-0.1c-0.2,0-1,0-2.5,0c-0.4,0-0.8,0-1.2,0.1c-0.6,0.1-0.9,0.1-0.9,0.1
			C19.8,41.6,19.5,41.6,19.3,41.6"/>
		<path d="M51.7,41.5l0-0.8c0.9-0.1,1.5-0.3,1.7-0.6c0.2-0.2,0.3-0.7,0.4-1.5l0.1-4.3l0.2-4.4c0-0.3,0-0.4,0-0.5
			c0-1.1-0.1-1.8-0.2-2c-0.1-0.2-0.6-0.4-1.4-0.5c-0.2,0-0.4-0.1-0.5-0.1c0-0.2,0-0.4,0-0.5v-0.4c0.3,0,0.6,0,1,0l3.2,0.1
			c0.1,0,0.2,0,0.3,0l0.5,0c0.1,0.2,0.3,0.4,0.4,0.6c0.3,0.6,0.6,1.5,1.1,2.6l0.1,0.3l1.7,4.1c0,0.1,0.1,0.2,0.2,0.4
			c0.1,0.3,0.2,0.6,0.4,0.8c0.1,0.3,0.2,0.6,0.4,0.9c0.1,0.3,0.3,0.6,0.4,0.8c0.1-0.2,0.2-0.4,0.3-0.6c0.3-0.7,0.6-1.4,0.9-2
			c0.5-1.1,1.1-2.8,2-5c0.1-0.4,0.4-0.9,0.7-1.6c0.3-0.7,0.5-1.1,0.5-1.2c0.1-0.1,0.2-0.1,0.4-0.1c0.1,0,0.2,0,0.3,0
			c0.4,0,0.8,0,1.4-0.1c0.8,0,1.4,0,1.9-0.1c0.5,0,0.7-0.1,0.8-0.1c0.1,0,0.2,0,0.3,0c0,0.1,0,0.2,0,0.3l0,0.4c0,0.1,0,0.2,0,0.3
			c-0.7,0.1-1.3,0.3-1.7,0.5c-0.3,0.2-0.5,0.4-0.5,0.6v0.2l0.2,3.7c0,0.3,0.1,2,0.2,5c0,0.7,0.1,1.5,0.1,2.6c0,0.1,0,0.2,0,0.3
			c0,0.2,0,0.3,0.1,0.4c0.1,0.1,0.7,0.3,2,0.7c0,0.1,0,0.2,0,0.3c0,0.2,0,0.3,0,0.5c-0.2,0-0.7,0-1.5-0.1c-0.8-0.1-1.5-0.1-2.2-0.1
			c-1.1,0-2.1,0-3.1,0.1c-0.1,0-0.3,0-0.4,0l0-0.8c0.3-0.1,0.7-0.2,1.2-0.3c0.4-0.1,0.6-0.2,0.7-0.3c0.1-0.2,0.1-0.6,0.1-1.3
			c0-0.3,0-0.5,0-0.7c0-0.8-0.1-2-0.1-3.5l-0.2-4.3c0-0.6,0-1-0.1-1.3l-2.7,6.9c-0.1,0.2-0.2,0.4-0.3,0.7c-0.2,0.4-0.3,0.7-0.3,0.8
			c-0.6,1.5-1,2.6-1.2,3.4c-0.1,0.2-0.1,0.5-0.3,0.8l-0.8,0l-0.6-1.9c-0.2-0.5-0.5-1.2-0.9-2.2c-0.2-0.6-0.4-1-0.6-1.4
			C58,36,58,35.9,58,35.8l-0.1-0.3c0,0,0-0.1,0-0.1l-1.6-3.9l-1-2.4l-0.1,5.7L55,38.6c0,0.6,0.1,1.1,0.3,1.3
			c0.2,0.3,0.7,0.5,1.3,0.7l0.5,0.1v0.9c-0.4,0-0.9,0-1.4-0.1c-0.5-0.1-1.1-0.1-1.9-0.1C53.7,41.4,53,41.5,51.7,41.5"/>
		<path d="M76.3,41.5v-0.9c0.1,0,0.4-0.1,0.7-0.2c0.5-0.1,0.8-0.3,1.1-0.4c0.1-0.3,0.2-0.6,0.2-1l0-1.4l0-2.8l0-0.7
			c0.1-1.6,0.1-2.4,0.1-2.5l0-1.6l0-0.7l-0.1-1.4l0-0.5c0-0.1,0-0.2-0.1-0.4c-0.3-0.2-0.8-0.2-1.5-0.3c-0.2,0-0.3,0-0.4,0l0-1.1
			l3.1,0.1c0.4,0,0.6,0,0.7,0c0.4,0,1.1,0,2.1-0.1c0.5,0,0.9-0.1,1-0.1c0,0.2,0,0.3,0,0.4c0,0.1,0,0.3,0,0.5c-0.3,0.1-0.6,0.2-1,0.3
			c-0.4,0.1-0.7,0.2-0.9,0.3c0,0.2-0.1,0.5-0.1,0.9c0,0.3,0,0.6,0,0.8c0,1.4,0,2.4,0,3.1l0,3.2L81.3,37l0,2.4l0,0.5
			c0,0.1,0,0.2,0.1,0.3c0.4,0.1,0.8,0.2,1.2,0.2c0.1,0,0.3,0,0.7,0.1c0,0.2,0,0.4,0,0.6c0,0.1,0,0.2,0,0.4c-0.1,0-0.2,0-0.2,0
			c-0.2,0-0.4,0-0.4,0c-0.1,0-0.1,0-0.3,0c-0.1,0-0.6-0.1-1.5-0.2l-1.9,0c-0.4,0-1,0-1.7,0.1C76.8,41.5,76.5,41.5,76.3,41.5"/>
		<path d="M87.7,40.5c0.2-0.1,0.5-0.1,1-0.2c0.4-0.1,0.7-0.1,0.7-0.1c0.3,0,0.5-0.1,0.6-0.2c0-0.2,0.1-0.4,0.1-0.5l0-1.6l0.1-1.6v-1
			l0-1.2l0-1.3l0-2.7l0-1.2v-0.2c-0.1-0.8-0.1-1.3-0.2-1.4c0-0.1-0.3-0.2-0.6-0.3c0,0-0.2-0.1-0.4-0.2c-0.2-0.1-0.3-0.1-0.5-0.2
			c-0.3-0.1-0.4-0.2-0.5-0.3c0-0.2,0-0.4,0-0.5c0-0.1,0-0.2,0-0.3c0.1,0,0.1-0.1,0.2-0.1c0.2,0,0.8,0,1.9,0.1l1.6,0l1.2,0
			c0.5,0,1.2,0,1.9-0.1c0.2,0,0.4,0,0.4,0c0.1,0,0.2,0,0.2,0.1c0.1,0.1,0.1,0.2,0.1,0.5c0,0.2,0,0.3-0.1,0.4c0,0.1-0.2,0.1-0.5,0.1
			l-1.4,0.4c0,0-0.1,0-0.2,0.1c0,0.1-0.1,0.1-0.1,0.1l0,0.3l0,0.8v0.2v0.1c0,0,0,0.3,0,0.7c0,0.1,0,0.2,0,0.3c0,0.1,0,0.3,0,0.7
			c0,0.5,0,0.9,0,1.3c0,0.4,0,0.9,0,1.4c0,0.2,0,0.5,0,0.8l0,5.7c0,0.2,0,0.4,0.1,0.5l1,0l0.6,0l0.7,0c1.2,0,2.1-0.1,2.8-0.4
			c0.5-0.2,0.8-0.5,1-0.7c0.2-0.2,0.5-0.5,0.6-0.8c0.2-0.3,0.3-0.7,0.5-1.4h0.4c0.2,0,0.4,0,0.6,0v0.3c0,0.6-0.1,1.6-0.2,3
			c-0.1,0.6-0.1,0.9-0.2,1.1c-0.2,0-0.3,0.1-0.3,0.1h-0.4l-0.6,0c-0.1,0-0.5,0-1.3-0.1c-0.1,0-0.8,0-2.1-0.1c-1.3,0-2.5-0.1-3.7-0.1
			l-2.2,0.1c-0.9,0-1.7,0.1-2.4,0.1h-0.2c0,0-0.1,0-0.2,0c0-0.1,0-0.2,0-0.2C87.6,40.9,87.6,40.7,87.7,40.5"/>
		<path d="M102.4,26c0.2-0.1,0.7-0.1,1.4-0.1l0.1,0c0.2,0,0.3,0,0.4,0l0.1,0c0.1,0,0.4,0,0.9,0.1c0.9,0.1,1.6,0.1,2.2,0.1
			c0.6,0,1.2,0,1.7-0.1c0.1,0,0.1,0,0.2,0l0.1,0c0,0.1,0.1,0.2,0.1,0.2l0,0.6c-0.2,0.1-0.4,0.1-0.6,0.2l-0.5,0.1
			c-0.2,0-0.4,0.1-0.7,0.1l-0.1,0l0,0.2c0.2,0.6,0.8,1.5,1.5,2.7c0.2,0.4,0.4,0.8,0.6,1.1c0.1,0.1,0.3,0.5,0.6,1.1
			c0,0.1,0.1,0.1,0.1,0.2c0.1,0.1,0.1,0.2,0.2,0.3c0.1,0.2,0.2,0.3,0.2,0.4c0.1,0.3,0.3,0.5,0.4,0.6l1.1-1.8
			c0.4-0.5,0.9-1.3,1.5-2.3l0-0.1l0.9-1.8c0.1-0.2,0.2-0.4,0.2-0.5c0,0,0-0.1,0-0.2c-0.1-0.1-0.2-0.1-0.3-0.1c0,0-0.2,0-0.5,0
			c-0.2,0-0.3-0.1-0.4-0.1c-0.1,0-0.3,0-0.3-0.1c0-0.1,0-0.4-0.1-0.9l2.3,0.1c0.1,0,0.2,0,0.3,0h0.5l0.2,0c0.2,0,0.5-0.1,0.9-0.1
			c0.1,0,0.2,0,0.3,0l0,0.9l-0.1,0c-0.6,0.1-1,0.3-1.3,0.4c-0.3,0.3-0.8,0.9-1.3,2l-1.4,2.4c-0.9,1.3-1.4,2.2-1.7,2.6
			c-0.1,0.1-0.1,0.3-0.2,0.4v0.4l0,1.1v0.3c0,0.2,0,0.4,0,0.7l0,3.1c0,0.1,0.1,0.1,0.1,0.1c0.1,0,0.3,0.1,0.7,0.1
			c0.7,0.1,1.1,0.1,1.2,0.2c0.1,0,0.1,0.1,0.1,0.2c0,0.1,0,0.2,0,0.3c0,0.1,0,0.2,0,0.3l-1.3,0l-1.2-0.1l-0.8-0.1l-1.2,0h-0.9
			c-0.1,0-0.3,0-0.5,0c-0.4,0.1-0.6,0.1-0.8,0.1l-0.8,0c0-0.2,0-0.3,0-0.4c0-0.1,0-0.2,0-0.4l2-0.5c0.1,0,0.2-0.1,0.3-0.1
			c0-0.4,0-0.6,0-0.7c0-1.2,0-2.1,0-2.5c0-0.4,0-0.7,0-0.8v-0.3c0-0.5-0.2-1.1-0.7-1.8c-0.2-0.3-0.3-0.5-0.4-0.6l-2.2-3.6l-1-1.8
			c0-0.1-0.3-0.4-0.7-1c-0.1-0.1-0.3-0.2-0.4-0.3c-0.1,0-0.4-0.1-1-0.3c0-0.1-0.1-0.1-0.1-0.2c0,0,0-0.1,0-0.2
			C102.3,26.2,102.3,26.1,102.4,26"/>
		<path d="M19.1,44.1c0.2,0,0.3,0,0.5,0c0.2,0,0.5,0.1,0.8,0.1c0.1,0,0.4,0,0.8,0c0.7,0,1.3,0,1.8,0l0.8,0c0.2,0,0.5,0,0.8,0.1
			c0.1,0.1,0.1,0.2,0.1,0.3v1l0,0.2c0,0,0,0.1,0,0.1l-0.2,0c0,0-0.1,0-0.2,0c0-0.1-0.1-0.2-0.1-0.3l-0.2-0.4
			c-0.1-0.2-0.2-0.3-0.3-0.5c-0.1,0-0.2,0-0.3,0c0,0-0.1,0-0.3,0c-0.3,0-0.6,0-0.9,0c-0.4,0-0.7,0-1,0c0,0.1,0,0.4,0,1l0,0.8V47
			c0.1,0,0.1,0,0.2,0c0.5,0,0.9,0,1.2,0c0.2,0,0.4-0.1,0.4-0.1c0.1,0,0.1-0.1,0.1-0.2c0-0.1,0.1-0.3,0.2-0.7l0.1,0l0.3,0
			c0,0.3,0,0.5,0,0.7c0,0.4,0,0.6,0,0.7c0,0.1,0,0.2,0,0.2c0,0.1,0,0.2,0,0.4c0,0.2,0,0.3,0,0.4v0.1h-0.3c0-0.1,0-0.2-0.1-0.3
			c-0.1-0.3-0.1-0.5-0.2-0.6c0-0.1-0.1-0.1-0.2-0.1c-0.1,0-0.3,0-0.7,0c-0.5,0-0.8,0-1,0v0.2c0,0.4,0,0.7,0,1l0,1.1
			c0,0.1,0,0.2,0.1,0.3c0.1,0.1,0.5,0.1,1.1,0.1c0.4,0,0.8,0,1.1-0.1c0.2-0.1,0.4-0.2,0.5-0.3c0.2-0.2,0.4-0.5,0.5-0.9
			c0.1,0,0.2,0,0.2,0c0,0,0.1,0,0.2,0c0,0.1,0,0.2,0,0.2l0,0.2L25,50l-0.1,0.6c-0.2,0-0.4,0-0.5,0c-0.2,0-0.6,0-1.4,0
			c-0.5,0-1.2,0-1.9,0c-0.4,0-0.8,0-1.4,0.1h-0.2l-0.6,0v-0.3c0.1,0,0.2,0,0.3-0.1c0.3,0,0.5-0.1,0.7-0.2c0-0.1,0.1-0.2,0.1-0.4
			c0-0.1,0-0.2,0-0.3l0-0.2l0-1.9l0-0.6l0-0.8l0-0.6l0-0.6c0,0,0,0,0-0.1c0,0-0.1-0.1-0.1-0.1c0,0-0.1,0-0.1,0
			c-0.2,0-0.3-0.1-0.5-0.1c-0.1,0-0.1,0-0.2,0L19.1,44.1z"/>
		<path d="M26.6,44.5l0-0.4H27l0.1,0c0.2,0,0.3,0,0.4,0c0,0,0.1,0,0.3,0c0,0,0.1,0,0.1,0c0,0,0.1,0,0.3,0c0.2,0,0.3,0,0.3,0
			c0,0,0.1,0,0.1,0c0.5,0.5,0.9,0.9,1.1,1.2c0.3,0.3,1.4,1.5,3.2,3.6v-0.1l0-0.6c0-0.3,0-0.6,0-0.8c0-0.2,0-0.4,0-0.7
			c0-0.3,0-0.5,0-0.8c0-0.4-0.1-0.7-0.1-0.8c0-0.2,0-0.3-0.1-0.4c-0.1-0.1-0.2-0.1-0.4-0.2c-0.2,0-0.3-0.1-0.4-0.1l0-0.3l0.1,0
			l0.9,0l1,0c0.1,0,0.1,0,0.2,0l0,0.3c-0.1,0-0.1,0.1-0.2,0.1c-0.2,0-0.3,0.1-0.3,0.1c-0.2,0.1-0.2,0.2-0.3,0.2c0,0,0,0.1,0,0.2
			c0,0,0,0.1,0,0.2c0,0.1,0,0.2,0,0.4c0,0.5,0,0.9,0,1.2c0,0.1,0,0.2,0,0.3l0.1,1.8c0,0.1,0,0.2,0,0.3v0.6l0,0.3l0,0.3
			c0,0.1,0,0.2,0,0.2v0.3l-0.5,0l-0.5-0.6l-1.1-1.2l-0.8-0.9L30,47.4c-0.4-0.4-0.7-0.8-1-1.1l-0.7-0.7l0,1.9c0,0.1,0,0.2,0,0.4
			l0,0.4l0,0.7c0,0.3,0,0.6,0.1,0.9c0,0.1,0,0.1,0,0.2c0,0,0,0.1,0.1,0.2c0.1,0,0.4,0.1,0.8,0.1c0,0,0.1,0,0.1,0l0,0.4l-0.2,0
			c-0.1,0-0.4,0-0.9-0.1c-0.5,0-0.8,0-1,0c-0.2,0-0.3,0-0.3,0c0,0-0.1,0-0.2,0c0-0.1,0-0.1,0-0.2c0,0,0-0.1,0-0.2c0.1,0,0.2,0,0.2,0
			c0,0,0.1,0,0.2,0c0.3,0,0.4,0,0.5-0.1c0,0,0.1-0.2,0.1-0.3c0-0.5,0-0.9,0-1v-0.3l0-1.6l0-1c0-0.4,0-0.7-0.1-0.8
			c0-0.1-0.1-0.1-0.1-0.2c-0.1-0.1-0.2-0.2-0.4-0.3C27.2,44.6,27,44.5,26.6,44.5"/>
		<path d="M36,43.8h0.3c0,0,0,0.1,0,0.1c0.1,0.2,0.2,0.3,0.2,0.3c0,0,0.2,0,0.6,0c0.2,0,0.4,0,0.6,0l0.1,0l0.6,0l1,0h1.4l0.3,0
			c0,0,0.1-0.1,0.1-0.2c0,0,0-0.1,0.1-0.1l0.2,0c0,0,0.1,0,0.1,0c0,0.2,0,0.6,0,1l0,0.4l0,0.3c0,0.1,0,0.2,0,0.2
			c-0.1,0-0.2,0.1-0.3,0.1c-0.1-0.1-0.2-0.3-0.3-0.6c-0.1-0.2-0.2-0.4-0.2-0.4c0,0-0.1-0.1-0.1-0.1c-0.1,0-0.4,0-1,0
			c-0.1,0-0.2,0-0.3,0c0,0.1,0,0.2,0,0.3l0,0.7v1.5l0,1.6l0,0.7c0,0.2,0,0.4,0.1,0.5c0,0,0.1,0,0.3,0.1c0,0,0.1,0,0.3,0.1
			c0.1,0,0.2,0.1,0.2,0.1c0,0.1,0,0.2,0,0.2c0,0,0,0.1,0,0.1c-0.1,0-0.1,0-0.2,0c-0.3,0-0.6,0-0.8,0c-0.2,0-0.6,0-1.2,0
			c-0.1,0-0.4,0-0.8,0.1c-0.2,0-0.3,0-0.3,0c0-0.1,0-0.1,0-0.1l0-0.1v0c0.1-0.1,0.2-0.2,0.4-0.2c0.3-0.1,0.5-0.2,0.7-0.2
			c0-0.1,0.1-0.1,0.1-0.3c0-0.4,0-1,0-1.9l0-1.9c0-0.5,0-0.8,0-1c0,0,0-0.1,0-0.1c0,0,0,0-0.1,0c-0.1,0-0.4,0-0.9,0
			c-0.3,0-0.5,0-0.6,0.1c-0.1,0.1-0.3,0.3-0.6,0.7c-0.1,0.1-0.1,0.2-0.2,0.2c-0.1-0.1-0.2-0.1-0.3-0.2c0.1-0.2,0.2-0.7,0.4-1.3
			C35.9,44,36,43.9,36,43.8"/>
		<path d="M43.2,44.1c0.2,0,0.3,0,0.5,0c0.2,0,0.5,0.1,0.8,0.1c0.1,0,0.4,0,0.8,0c0.7,0,1.3,0,1.8,0l0.8,0c0.2,0,0.5,0,0.8,0.1
			c0.1,0.1,0.1,0.2,0.1,0.3v1l0,0.2c0,0,0,0.1,0,0.1l-0.2,0c0,0-0.1,0-0.2,0c0-0.1-0.1-0.2-0.1-0.3l-0.2-0.4
			c-0.1-0.2-0.2-0.3-0.3-0.5c-0.1,0-0.2,0-0.3,0c0,0-0.1,0-0.3,0c-0.3,0-0.6,0-0.9,0c-0.4,0-0.7,0-1,0c0,0.1,0,0.4,0,1l0,0.8V47
			c0.1,0,0.1,0,0.2,0c0.5,0,0.9,0,1.2,0c0.2,0,0.4-0.1,0.4-0.1c0.1,0,0.1-0.1,0.1-0.2c0-0.1,0.1-0.3,0.2-0.7l0.1,0l0.3,0
			c0,0.3,0,0.5,0,0.7c0,0.4,0,0.6,0,0.7c0,0.1,0,0.2,0,0.2c0,0.1,0,0.2,0,0.4c0,0.2,0,0.3,0,0.4v0.1h-0.3c0-0.1,0-0.2-0.1-0.3
			c-0.1-0.3-0.1-0.5-0.2-0.6c0-0.1-0.1-0.1-0.2-0.1c-0.1,0-0.3,0-0.7,0c-0.5,0-0.8,0-1,0v0.2c0,0.4,0,0.7,0,1l0,1.1
			c0,0.1,0,0.2,0.1,0.3c0.1,0.1,0.5,0.1,1.1,0.1c0.4,0,0.8,0,1.1-0.1c0.2-0.1,0.4-0.2,0.5-0.3c0.2-0.2,0.4-0.5,0.5-0.9
			c0.1,0,0.2,0,0.2,0c0,0,0.1,0,0.2,0c0,0.1,0,0.2,0,0.2l0,0.2L49,50L49,50.6c-0.2,0-0.4,0-0.5,0c-0.2,0-0.6,0-1.4,0
			c-0.5,0-1.1,0-1.9,0c-0.4,0-0.8,0-1.3,0.1h-0.2l-0.6,0v-0.3c0.1,0,0.2,0,0.3-0.1c0.3,0,0.5-0.1,0.7-0.2c0-0.1,0.1-0.2,0.1-0.4
			c0-0.1,0-0.2,0-0.3l0-0.2l0-1.9l0-0.6l0-0.8l0-0.6l0-0.6c0,0,0,0,0-0.1c0,0-0.1-0.1-0.1-0.1c0,0-0.1,0-0.1,0
			c-0.2,0-0.3-0.1-0.5-0.1c-0.1,0-0.1,0-0.2,0L43.2,44.1z"/>
		<path d="M53.1,47c0.1,0,0.3,0,0.3,0c0.5,0,0.9-0.1,1.1-0.3c0.2-0.2,0.3-0.5,0.3-0.8c0-0.2,0-0.4-0.1-0.6c-0.1-0.2-0.1-0.3-0.2-0.4
			c-0.1-0.1-0.3-0.2-0.4-0.3c-0.1-0.1-0.3-0.1-0.6-0.1c-0.1,0-0.3,0-0.4,0l0,0.1l0,0.7l0,0.4l0,0.5c0,0.2,0,0.4,0,0.6V47z M51,50.3
			c0.1,0,0.2-0.1,0.4-0.1c0.2,0,0.3-0.1,0.4-0.1c0-0.1,0-0.1,0-0.1c0,0,0-0.2,0-0.5l0-1.1l0-0.6l0-0.5l0-0.3c0-0.4,0-0.7,0-1
			c0-0.7,0-1.1,0-1.3l-0.3-0.1c-0.2,0-0.4,0-0.5-0.1l0-0.3l0-0.1c0.2,0,0.3,0,0.4,0c0.1,0,0.2,0,0.4,0c0.2,0,0.3,0,0.4,0l0.2,0
			l0.6,0c0.4,0,0.7-0.1,1.1-0.1c0.6,0,1.1,0.2,1.5,0.5c0.4,0.4,0.6,0.8,0.6,1.2c0,0.3-0.1,0.6-0.3,0.9c-0.2,0.3-0.5,0.5-0.9,0.6
			c0,0.1,0.1,0.2,0.1,0.2c0.1,0.2,0.2,0.4,0.3,0.5l0.7,1.3c0.2,0.3,0.3,0.5,0.4,0.6c0.1,0.1,0.2,0.1,0.4,0.2
			c0.1,0.1,0.2,0.1,0.3,0.2c0,0.1,0,0.1,0,0.2c0,0,0,0.1,0,0.1h-0.1l-0.1,0l-0.2,0h-0.2c-0.1,0-0.2,0-0.4,0l-0.5,0c0,0-0.1,0-0.3,0
			c-0.1,0-0.1,0-0.2,0l-0.2-0.3C55,50,55,49.8,54.9,49.7c-0.1-0.3-0.4-0.8-0.7-1.6c-0.2-0.3-0.3-0.5-0.3-0.6
			c-0.1-0.1-0.2-0.1-0.5-0.1c-0.1,0-0.2,0-0.3,0c0,0.1,0,0.2,0,0.3l0,1.1l0,0.9c0.1,0.1,0.2,0.1,0.3,0.1c0.2,0.1,0.4,0.1,0.6,0.2
			c0,0.2,0,0.3,0,0.4c-0.1,0-0.1,0-0.1,0l-0.2,0c-0.7-0.1-1-0.1-1.2-0.1c-0.1,0-0.1,0-0.2,0l-0.6,0c-0.2,0-0.4,0-0.5,0H51
			c0-0.1,0-0.1,0-0.2C51,50.4,51,50.4,51,50.3"/>
		<path d="M58.5,43.8h0.3c0,0,0,0.1,0,0.1c0.1,0.2,0.2,0.3,0.2,0.3c0,0,0.2,0,0.6,0c0.2,0,0.4,0,0.6,0l0.1,0l0.6,0l1,0h1.4l0.3,0
			c0,0,0.1-0.1,0.1-0.2c0,0,0-0.1,0.1-0.1l0.2,0c0,0,0.1,0,0.1,0c0,0.2,0,0.6,0,1l0,0.4l0,0.3c0,0.1,0,0.2,0,0.2
			c-0.1,0-0.2,0.1-0.3,0.1c-0.1-0.1-0.2-0.3-0.3-0.6c-0.1-0.2-0.2-0.4-0.2-0.4c0,0-0.1-0.1-0.1-0.1c-0.1,0-0.4,0-1,0
			c-0.1,0-0.2,0-0.3,0c0,0.1,0,0.2,0,0.3l0,0.7v1.5l0,1.6l0,0.7c0,0.2,0,0.4,0.1,0.5c0,0,0.1,0,0.3,0.1c0,0,0.1,0,0.3,0.1
			c0.1,0,0.2,0.1,0.2,0.1c0,0.1,0,0.2,0,0.2c0,0,0,0.1,0,0.1c-0.1,0-0.1,0-0.2,0c-0.3,0-0.6,0-0.8,0c-0.2,0-0.6,0-1.2,0
			c-0.1,0-0.4,0-0.8,0.1c-0.2,0-0.3,0-0.3,0c0-0.1,0-0.1,0-0.1l0-0.1v0c0.1-0.1,0.2-0.2,0.4-0.2c0.3-0.1,0.5-0.2,0.7-0.2
			c0-0.1,0.1-0.1,0.1-0.3c0-0.4,0-1,0-1.9l0-1.9c0-0.5,0-0.8,0-1c0,0,0-0.1,0-0.1c0,0,0,0-0.1,0c-0.1,0-0.4,0-0.9,0
			c-0.3,0-0.5,0-0.6,0.1c-0.1,0.1-0.3,0.3-0.6,0.7c-0.1,0.1-0.1,0.2-0.2,0.2c-0.1-0.1-0.2-0.1-0.3-0.2c0.1-0.2,0.2-0.7,0.4-1.3
			C58.5,44,58.5,43.9,58.5,43.8"/>
		<path d="M66.8,47.8c0.7,0,1.1,0,1.3,0l0.1,0c-0.1-0.3-0.2-0.6-0.4-1c-0.1-0.4-0.3-0.7-0.4-0.9L66.8,47.8z M64.7,50.6l0-0.3
			c0.1,0,0.2,0,0.3-0.1c0.2-0.1,0.4-0.1,0.4-0.1c0.1,0,0.1-0.1,0.2-0.3l0.9-2.7l1.1-3.1h0.3h0.2l0,0.1l0.8,2.1
			c0.2,0.4,0.3,0.9,0.5,1.3c0.1,0.4,0.3,0.8,0.4,1c0.1,0.2,0.1,0.4,0.3,0.7c0.1,0.2,0.1,0.4,0.3,0.6c0.1,0.1,0.1,0.2,0.1,0.2
			c0.1,0.1,0.1,0.1,0.3,0.1c0.1,0,0.3,0.1,0.4,0.1c0,0.1,0,0.2,0,0.2c0,0,0,0.1,0,0.1c-0.2,0-0.5,0-0.7,0c-0.3,0-0.5,0-0.7,0
			c-0.2,0-0.4,0-0.5,0l-0.8,0l-0.2,0c0-0.1,0-0.2,0-0.3l0.5-0.1c0.2,0,0.2-0.1,0.3-0.1c0,0,0-0.1,0-0.1c0,0,0-0.1,0-0.1l-0.2-0.5
			l-0.4-1l-1.7,0c-0.1,0.2-0.2,0.6-0.4,1.2c-0.1,0.2-0.1,0.3-0.1,0.4c0,0.1,0,0.1,0.1,0.2c0.1,0.1,0.2,0.1,0.4,0.1
			c0,0,0.1,0,0.3,0.1c0,0.1,0,0.2,0,0.3c0,0,0,0.1,0,0.1c-0.2,0-0.6,0-1.4-0.1l-0.2,0C65.2,50.6,65,50.6,64.7,50.6L64.7,50.6z"/>
		<path d="M72.4,50.6v-0.4c0.1,0,0.2,0,0.3-0.1c0.2-0.1,0.3-0.1,0.4-0.2c0.1-0.1,0.1-0.2,0.1-0.4l0-0.6l0-1.1l0-0.3c0-0.7,0-1,0-1
			l0-0.7l0-0.3l0-0.6l0-0.2c0,0,0-0.1,0-0.2c-0.1-0.1-0.3-0.1-0.6-0.1c-0.1,0-0.1,0-0.2,0l0-0.4l1.3,0.1c0.2,0,0.3,0,0.3,0
			c0.2,0,0.5,0,0.9,0c0.2,0,0.4,0,0.4,0c0,0.1,0,0.1,0,0.2c0,0.1,0,0.1,0,0.2c-0.1,0-0.3,0.1-0.4,0.1c-0.2,0-0.3,0.1-0.4,0.1
			c0,0.1,0,0.2,0,0.4c0,0.1,0,0.3,0,0.4c0,0.6,0,1,0,1.3l0,1.3l0,0.7l0,1l0,0.2c0,0,0,0.1,0,0.1c0.2,0,0.4,0.1,0.5,0.1
			c0,0,0.1,0,0.3,0c0,0.1,0,0.2,0,0.3c0,0,0,0.1,0,0.2c0,0-0.1,0-0.1,0c-0.1,0-0.2,0-0.2,0c0,0-0.1,0-0.1,0c0,0-0.2,0-0.6-0.1
			l-0.8,0c-0.2,0-0.4,0-0.7,0C72.6,50.6,72.4,50.6,72.4,50.6"/>
		<path d="M76.8,44.5l0-0.4h0.4l0.1,0c0.2,0,0.3,0,0.4,0c0,0,0.1,0,0.3,0c0,0,0.1,0,0.1,0c0,0,0.1,0,0.3,0c0.2,0,0.3,0,0.3,0
			c0,0,0.1,0,0.1,0c0.5,0.5,0.9,0.9,1.1,1.2c0.3,0.3,1.4,1.5,3.2,3.6v-0.1l0-0.6c0-0.3,0-0.6,0-0.8c0-0.2,0-0.4,0-0.7
			c0-0.3,0-0.5,0-0.8c0-0.4-0.1-0.7-0.1-0.8c0-0.2,0-0.3-0.1-0.4c-0.1-0.1-0.2-0.1-0.4-0.2c-0.2,0-0.3-0.1-0.4-0.1l0-0.3l0.1,0
			l0.9,0l1,0c0.1,0,0.1,0,0.2,0l0,0.3c-0.1,0-0.1,0.1-0.2,0.1c-0.2,0-0.3,0.1-0.3,0.1c-0.2,0.1-0.2,0.2-0.3,0.2c0,0,0,0.1,0,0.2
			c0,0,0,0.1,0,0.2c0,0.1,0,0.2,0,0.4c0,0.5,0,0.9,0,1.2c0,0.1,0,0.2,0,0.3l0.1,1.8c0,0.1,0,0.2,0,0.3v0.6l0,0.3l0,0.3
			c0,0.1,0,0.2,0,0.2v0.3l-0.5,0l-0.5-0.6l-1.1-1.2l-0.8-0.9l-0.6-0.6c-0.4-0.4-0.7-0.8-1-1.1l-0.7-0.7l0,1.9c0,0.1,0,0.2,0,0.4
			l0,0.4l0,0.7c0,0.3,0,0.6,0.1,0.9c0,0.1,0,0.1,0,0.2c0,0,0,0.1,0.1,0.2c0.1,0,0.4,0.1,0.8,0.1c0,0,0.1,0,0.1,0l0,0.4l-0.2,0
			c-0.1,0-0.4,0-0.9-0.1c-0.5,0-0.8,0-1,0c-0.2,0-0.3,0-0.3,0c0,0-0.1,0-0.2,0c0-0.1,0-0.1,0-0.2c0,0,0-0.1,0-0.2c0.1,0,0.2,0,0.2,0
			c0,0,0.1,0,0.2,0c0.3,0,0.4,0,0.5-0.1c0,0,0.1-0.2,0.1-0.3c0-0.5,0-0.9,0-1v-0.3l0-1.6l0-1c0-0.4,0-0.7-0.1-0.8
			c0-0.1-0.1-0.1-0.1-0.2c-0.1-0.1-0.2-0.2-0.4-0.3C77.3,44.6,77.1,44.5,76.8,44.5"/>
		<path d="M85.9,50.6l0-0.3c0.4-0.1,0.6-0.1,0.7-0.3c0.1-0.1,0.1-0.3,0.2-0.6l0.1-1.8l0.1-1.8c0-0.1,0-0.2,0-0.2
			c0-0.5,0-0.7-0.1-0.8c-0.1-0.1-0.2-0.1-0.6-0.2c-0.1,0-0.2,0-0.2-0.1c0-0.1,0-0.2,0-0.2v-0.2c0.1,0,0.2,0,0.4,0l1.3,0.1
			c0,0,0.1,0,0.1,0l0.2,0c0.1,0.1,0.1,0.2,0.2,0.3c0.1,0.2,0.3,0.6,0.4,1.1l0.1,0.1l0.7,1.7c0,0,0,0.1,0.1,0.2
			c0.1,0.1,0.1,0.2,0.1,0.3c0,0.1,0.1,0.2,0.2,0.4c0.1,0.1,0.1,0.2,0.2,0.3c0-0.1,0.1-0.2,0.1-0.3c0.1-0.3,0.2-0.6,0.4-0.9
			c0.2-0.5,0.5-1.2,0.8-2.1c0.1-0.2,0.1-0.4,0.3-0.7c0.1-0.3,0.2-0.5,0.2-0.5c0,0,0.1,0,0.2,0c0,0,0.1,0,0.1,0c0.2,0,0.3,0,0.6,0
			c0.3,0,0.6,0,0.8,0c0.2,0,0.3,0,0.3,0c0,0,0.1,0,0.1,0c0,0,0,0.1,0,0.1l0,0.2c0,0,0,0.1,0,0.1c-0.3,0-0.5,0.1-0.7,0.2
			c-0.1,0.1-0.2,0.2-0.2,0.3V45l0.1,1.5c0,0.1,0,0.8,0.1,2.1c0,0.3,0,0.6,0.1,1.1c0,0.1,0,0.1,0,0.1c0,0.1,0,0.1,0,0.2
			c0,0,0.3,0.1,0.8,0.3c0,0.1,0,0.1,0,0.1c0,0.1,0,0.1,0,0.2c-0.1,0-0.3,0-0.6-0.1c-0.3,0-0.6-0.1-0.9-0.1c-0.4,0-0.9,0-1.3,0.1
			c-0.1,0-0.1,0-0.2,0l0-0.3c0.1-0.1,0.3-0.1,0.5-0.1c0.1,0,0.2-0.1,0.3-0.1c0-0.1,0.1-0.2,0.1-0.5c0-0.1,0-0.2,0-0.3
			c0-0.4,0-0.8,0-1.5l-0.1-1.8c0-0.3,0-0.4,0-0.5l-1.1,2.9c0,0.1-0.1,0.2-0.1,0.3c-0.1,0.2-0.1,0.3-0.1,0.3
			c-0.2,0.6-0.4,1.1-0.5,1.4c0,0.1-0.1,0.2-0.1,0.3l-0.4,0l-0.2-0.8c-0.1-0.2-0.2-0.5-0.4-0.9c-0.1-0.2-0.2-0.4-0.2-0.6
			c0-0.1,0-0.1-0.1-0.1l-0.1-0.1c0,0,0,0,0-0.1l-0.7-1.6l-0.4-1l0,2.4l0,1.5c0,0.3,0,0.4,0.1,0.5c0.1,0.1,0.3,0.2,0.6,0.3l0.2,0.1
			v0.4c-0.2,0-0.4,0-0.6,0c-0.2,0-0.5,0-0.8,0C86.7,50.6,86.4,50.6,85.9,50.6"/>
		<path d="M95.5,44.1c0.2,0,0.3,0,0.5,0c0.2,0,0.5,0.1,0.8,0.1c0.1,0,0.4,0,0.8,0c0.7,0,1.3,0,1.8,0l0.8,0c0.2,0,0.5,0,0.8,0.1
			c0.1,0.1,0.1,0.2,0.1,0.3v1l0,0.2c0,0,0,0.1,0,0.1l-0.2,0c0,0-0.1,0-0.2,0c0-0.1-0.1-0.2-0.1-0.3l-0.2-0.4
			c-0.1-0.2-0.2-0.3-0.3-0.5c-0.1,0-0.2,0-0.3,0c0,0-0.1,0-0.3,0c-0.3,0-0.6,0-0.9,0c-0.4,0-0.7,0-1,0c0,0.1,0,0.4,0,1l0,0.8V47
			c0.1,0,0.1,0,0.2,0c0.5,0,0.9,0,1.2,0c0.2,0,0.4-0.1,0.4-0.1c0.1,0,0.1-0.1,0.1-0.2c0-0.1,0.1-0.3,0.2-0.7l0.1,0l0.3,0
			c0,0.3,0,0.5,0,0.7c0,0.4,0,0.6,0,0.7c0,0.1,0,0.2,0,0.2c0,0.1,0,0.2,0,0.4c0,0.2,0,0.3,0,0.4v0.1h-0.3c0-0.1,0-0.2-0.1-0.3
			c-0.1-0.3-0.1-0.5-0.2-0.6c0-0.1-0.1-0.1-0.2-0.1c-0.1,0-0.3,0-0.7,0c-0.5,0-0.8,0-1,0v0.2c0,0.4,0,0.7,0,1l0,1.1
			c0,0.1,0,0.2,0.1,0.3c0.1,0.1,0.5,0.1,1.1,0.1c0.4,0,0.8,0,1.1-0.1c0.2-0.1,0.4-0.2,0.5-0.3c0.2-0.2,0.4-0.5,0.5-0.9
			c0.1,0,0.2,0,0.2,0c0,0,0.1,0,0.2,0c0,0.1,0,0.2,0,0.2l0,0.2l-0.2,1l-0.1,0.6c-0.2,0-0.4,0-0.5,0c-0.2,0-0.6,0-1.4,0
			c-0.5,0-1.1,0-1.9,0c-0.4,0-0.8,0-1.3,0.1H96l-0.6,0v-0.3c0.1,0,0.2,0,0.3-0.1c0.3,0,0.5-0.1,0.7-0.2c0-0.1,0-0.2,0-0.4
			c0-0.1,0-0.2,0-0.3l0-0.2l0-1.9l0-0.6l0-0.8l0-0.6l0-0.6c0,0,0,0,0-0.1c0,0-0.1-0.1-0.1-0.1c0,0-0.1,0-0.1,0
			c-0.2,0-0.3-0.1-0.5-0.1c-0.1,0-0.1,0-0.2,0L95.5,44.1z"/>
		<path d="M103,44.5l0-0.4h0.4l0.1,0c0.2,0,0.3,0,0.4,0c0,0,0.1,0,0.3,0c0,0,0.1,0,0.1,0c0,0,0.1,0,0.3,0c0.2,0,0.3,0,0.3,0
			c0,0,0.1,0,0.1,0c0.5,0.5,0.9,0.9,1.1,1.2c0.3,0.3,1.4,1.5,3.2,3.6v-0.1l0-0.6c0-0.3,0-0.6,0-0.8c0-0.2,0-0.4,0-0.7
			c0-0.3,0-0.5,0-0.8c0-0.4-0.1-0.7-0.1-0.8c0-0.2,0-0.3-0.1-0.4c-0.1-0.1-0.2-0.1-0.4-0.2c-0.2,0-0.3-0.1-0.4-0.1l0-0.3l0.1,0
			l0.9,0l1,0c0.1,0,0.1,0,0.2,0l0,0.3c-0.1,0-0.1,0.1-0.2,0.1c-0.2,0-0.3,0.1-0.3,0.1c-0.2,0.1-0.2,0.2-0.3,0.2c0,0,0,0.1,0,0.2
			c0,0,0,0.1,0,0.2c0,0.1,0,0.2,0,0.4c0,0.5,0,0.9,0,1.2c0,0.1,0,0.2,0,0.3l0.1,1.8c0,0.1,0,0.2,0,0.3v0.6l0,0.3l0,0.3
			c0,0.1,0,0.2,0,0.2v0.3l-0.5,0l-0.5-0.6l-1.1-1.2l-0.8-0.9l-0.6-0.6c-0.4-0.4-0.7-0.8-1-1.1l-0.7-0.7l0,1.9c0,0.1,0,0.2,0,0.4
			l0,0.4l0,0.7c0,0.3,0,0.6,0.1,0.9c0,0.1,0,0.1,0,0.2c0,0,0,0.1,0.1,0.2c0.1,0,0.4,0.1,0.8,0.1c0,0,0.1,0,0.1,0l0,0.4l-0.2,0
			c-0.1,0-0.4,0-0.9-0.1c-0.5,0-0.8,0-1,0c-0.2,0-0.3,0-0.3,0c0,0-0.1,0-0.2,0c0-0.1,0-0.1,0-0.2c0,0,0-0.1,0-0.2c0.1,0,0.2,0,0.2,0
			c0,0,0.1,0,0.2,0c0.3,0,0.4,0,0.5-0.1c0,0,0.1-0.2,0.1-0.3c0-0.5,0-0.9,0-1v-0.3l0-1.6l0-1c0-0.4,0-0.7-0.1-0.8
			c0-0.1-0.1-0.1-0.1-0.2c-0.1-0.1-0.2-0.2-0.4-0.3C103.5,44.6,103.3,44.5,103,44.5"/>
		<path d="M112.4,43.8h0.3c0,0,0,0.1,0,0.1c0.1,0.2,0.2,0.3,0.2,0.3c0,0,0.2,0,0.6,0c0.2,0,0.4,0,0.6,0l0.1,0l0.6,0l1,0h1.4l0.3,0
			c0,0,0.1-0.1,0.1-0.2c0,0,0-0.1,0-0.1l0.2,0c0,0,0.1,0,0.1,0c0,0.2,0,0.6,0,1l0,0.4l0,0.3c0,0.1,0,0.2,0,0.2
			c-0.1,0-0.2,0.1-0.3,0.1c-0.1-0.1-0.2-0.3-0.3-0.6c-0.1-0.2-0.2-0.4-0.2-0.4c0,0-0.1-0.1-0.1-0.1c-0.1,0-0.4,0-1,0
			c-0.1,0-0.2,0-0.3,0c0,0.1,0,0.2,0,0.3l0,0.7v1.5l0,1.6l0,0.7c0,0.2,0,0.4,0.1,0.5c0,0,0.1,0,0.3,0.1c0,0,0.1,0,0.3,0.1
			c0.1,0,0.2,0.1,0.2,0.1c0,0.1,0,0.2,0,0.2c0,0,0,0.1,0,0.1c-0.1,0-0.1,0-0.2,0c-0.3,0-0.6,0-0.8,0c-0.2,0-0.6,0-1.2,0
			c-0.1,0-0.4,0-0.8,0.1c-0.2,0-0.3,0-0.3,0c0-0.1,0-0.1,0-0.1l0-0.1v0c0.1-0.1,0.2-0.2,0.4-0.2c0.3-0.1,0.5-0.2,0.7-0.2
			c0-0.1,0.1-0.1,0.1-0.3c0-0.4,0-1,0-1.9l0-1.9c0-0.5,0-0.8,0-1c0,0,0-0.1,0-0.1c0,0,0,0-0.1,0c-0.1,0-0.4,0-0.9,0
			c-0.3,0-0.5,0-0.6,0.1c-0.1,0.1-0.3,0.3-0.6,0.7c-0.1,0.1-0.1,0.2-0.2,0.2c-0.1-0.1-0.2-0.1-0.3-0.2c0.1-0.2,0.2-0.7,0.4-1.3
			C112.3,44,112.4,43.9,112.4,43.8"/>
		<rect x="19.1" y="24.6" width="99" height="0.5"/>
		<rect x="19.1" y="42.5" width="99" height="0.5"/>
		<path d="M35.5,46.6l-0.9-1.4c0,0,1.3-1.1,2.4-2.5c1.1-1.4,2-3.4,2-3.4l-2.8,0.6v-1.6c0,0-1.2,0.2-2,0c-0.8-0.2-1.6-1.6-1.6-1.6
			l3.9-0.7c0,0-0.9-0.6-1.9-1.4c-1-0.8-0.9-2.4-0.9-2.4l1.3-0.2c0,0-1.6-0.9-0.7-6.1l4.4,4.9l0.4-4.9l2.4,2.6l1.6-4.9l1.1,1.1l2-2.9
			L47,25l1,0l-1,3.8l2.5,0.4l-1.4,2l5.5-0.4L51.7,33l1.1,0.2l-2.3,1l1.2,1.1l-2.7,0.5l1.2,2.2c0,0-1.7,0.4-2.9,0.5
			c-1.1,0.1-2.3-0.2-2.3-0.2l1.4,3.6c0,0-2.3,0.4-4.2-0.3c-1.9-0.7-2.5-1.7-2.5-1.7s0.1,0.2-1.3,2.3C37.1,44.2,35.5,46.6,35.5,46.6"
			/>
		<path d="M114.7,39.6L114.7,39.6C114.8,39.6,114.8,39.6,114.7,39.6c0.1,0.1,0.1,0.1,0.2,0.1c0,0,0.1,0,0.2,0c0.1,0,0.1,0,0.2,0l0,0
			l0.2,0l0.3,0h0.4l0.1,0c0,0,0,0,0-0.1c0,0,0,0,0,0l0.1,0c0,0,0,0,0,0c0,0.1,0,0.2,0,0.3l0,0.1l0,0.1c0,0,0,0,0,0.1
			c0,0-0.1,0-0.1,0c0,0-0.1-0.1-0.1-0.2c0-0.1,0-0.1-0.1-0.1c0,0,0,0,0,0c0,0-0.1,0-0.3,0c0,0-0.1,0-0.1,0c0,0,0,0.1,0,0.1l0,0.2
			v0.4l0,0.5l0,0.2c0,0.1,0,0.1,0,0.2c0,0,0,0,0.1,0c0,0,0,0,0.1,0c0,0,0.1,0,0.1,0c0,0,0,0.1,0,0.1c0,0,0,0,0,0c0,0,0,0,0,0
			c-0.1,0-0.2,0-0.2,0c-0.1,0-0.2,0-0.4,0c0,0-0.1,0-0.2,0c-0.1,0-0.1,0-0.1,0c0,0,0,0,0,0l0,0v0c0,0,0.1,0,0.1-0.1
			c0.1,0,0.2,0,0.2-0.1c0,0,0,0,0-0.1c0-0.1,0-0.3,0-0.6l0-0.6c0-0.2,0-0.2,0-0.3c0,0,0,0,0,0c0,0,0,0,0,0c0,0-0.1,0-0.3,0
			c-0.1,0-0.1,0-0.2,0c0,0-0.1,0.1-0.2,0.2c0,0,0,0,0,0c0,0-0.1,0-0.1-0.1c0-0.1,0.1-0.2,0.1-0.4C114.7,39.6,114.7,39.6,114.7,39.6"
			/>
		<path d="M116.5,41.5l0-0.1c0.1,0,0.2,0,0.2-0.1c0,0,0-0.1,0-0.2l0-0.5l0-0.5c0,0,0-0.1,0-0.1c0-0.1,0-0.2,0-0.2c0,0-0.1,0-0.2-0.1
			c0,0,0,0-0.1,0c0,0,0,0,0-0.1v0c0,0,0.1,0,0.1,0l0.4,0c0,0,0,0,0,0l0.1,0c0,0,0,0,0,0.1c0,0.1,0.1,0.2,0.1,0.3l0,0l0.2,0.5
			c0,0,0,0,0,0.1c0,0,0,0.1,0,0.1c0,0,0,0.1,0,0.1c0,0,0,0.1,0,0.1c0,0,0,0,0-0.1c0-0.1,0.1-0.2,0.1-0.2c0.1-0.1,0.1-0.3,0.2-0.6
			c0,0,0-0.1,0.1-0.2c0-0.1,0.1-0.1,0.1-0.1c0,0,0,0,0,0c0,0,0,0,0,0c0,0,0.1,0,0.2,0c0.1,0,0.2,0,0.2,0c0.1,0,0.1,0,0.1,0
			c0,0,0,0,0,0c0,0,0,0,0,0l0,0c0,0,0,0,0,0c-0.1,0-0.2,0-0.2,0.1c0,0-0.1,0-0.1,0.1v0l0,0.5c0,0,0,0.2,0,0.6c0,0.1,0,0.2,0,0.3
			c0,0,0,0,0,0c0,0,0,0,0,0c0,0,0.1,0,0.2,0.1c0,0,0,0,0,0c0,0,0,0,0,0.1c0,0-0.1,0-0.2,0c-0.1,0-0.2,0-0.3,0c-0.1,0-0.3,0-0.4,0
			c0,0,0,0,0,0l0-0.1c0,0,0.1,0,0.1,0c0,0,0.1,0,0.1,0c0,0,0-0.1,0-0.2c0,0,0-0.1,0-0.1c0-0.1,0-0.2,0-0.4l0-0.5c0-0.1,0-0.1,0-0.2
			l-0.3,0.8c0,0,0,0,0,0.1c0,0,0,0.1,0,0.1c-0.1,0.2-0.1,0.3-0.1,0.4c0,0,0,0.1,0,0.1l-0.1,0l-0.1-0.2c0-0.1-0.1-0.1-0.1-0.3
			c0-0.1-0.1-0.1-0.1-0.2c0,0,0,0,0,0l0,0c0,0,0,0,0,0l-0.2-0.5l-0.1-0.3l0,0.7l0,0.5c0,0.1,0,0.1,0,0.2c0,0,0.1,0.1,0.2,0.1l0.1,0
			v0.1c-0.1,0-0.1,0-0.2,0c-0.1,0-0.1,0-0.2,0C116.7,41.5,116.6,41.5,116.5,41.5"/>
	</g>
</g>
</svg>
