<?xml version="1.0" encoding="utf-8"?>
<!-- Generator: Adobe Illustrator 18.1.1, SVG Export Plug-In . SVG Version: 6.00 Build 0)  -->
<svg version="1.1" id="Layer_1" xmlns="http://www.w3.org/2000/svg" xmlns:xlink="http://www.w3.org/1999/xlink" x="0px" y="0px"
	 viewBox="0 0 175.2 92.5" enable-background="new 0 0 175.2 92.5" xml:space="preserve">
<g>
	<g>
		<g>
			<defs>
				<rect id="SVGID_2346_" x="-463.2" y="149.1" width="126.1" height="25.1"/>
			</defs>
			<clipPath id="SVGID_2_">
				<use xlink:href="#SVGID_2346_"  overflow="visible"/>
			</clipPath>
			
				<rect x="-550.6" y="-285.6" clip-path="url(#SVGID_2_)" fill="none" stroke="#000000" stroke-width="0.1646" width="627.9" height="485.6"/>
			
				<rect x="-574" y="-295.9" clip-path="url(#SVGID_2_)" fill="none" stroke="#FFFFFF" stroke-width="0.6584" width="674.7" height="506"/>
		</g>
		<g>
			<defs>
				<rect id="SVGID_2348_" x="-463.2" y="149.1" width="126.1" height="25.1"/>
			</defs>
			<clipPath id="SVGID_4_">
				<use xlink:href="#SVGID_2348_"  overflow="visible"/>
			</clipPath>
		</g>
		<g>
			<defs>
				<rect id="SVGID_2355_" x="-463.2" y="149.1" width="126.1" height="25.1"/>
			</defs>
			<clipPath id="SVGID_6_">
				<use xlink:href="#SVGID_2355_"  overflow="visible"/>
			</clipPath>
		</g>
		<g>
			<defs>
				<rect id="SVGID_2362_" x="-463.2" y="149.1" width="126.1" height="25.1"/>
			</defs>
			<clipPath id="SVGID_8_">
				<use xlink:href="#SVGID_2362_"  overflow="visible"/>
			</clipPath>
		</g>
		<g>
			<defs>
				<rect id="SVGID_2376_" x="-463.2" y="149.1" width="126.1" height="25.1"/>
			</defs>
			<clipPath id="SVGID_9_">
				<use xlink:href="#SVGID_2376_"  overflow="visible"/>
			</clipPath>
		</g>
		<g>
			<defs>
				<rect id="SVGID_2383_" x="-463.2" y="149.1" width="126.1" height="25.1"/>
			</defs>
			<clipPath id="SVGID_11_">
				<use xlink:href="#SVGID_2383_"  overflow="visible"/>
			</clipPath>
		</g>
		<g>
			<defs>
				<rect id="SVGID_2397_" x="-463.2" y="149.1" width="126.1" height="25.1"/>
			</defs>
			<clipPath id="SVGID_13_">
				<use xlink:href="#SVGID_2397_"  overflow="visible"/>
			</clipPath>
		</g>
		<g>
			<defs>
				<rect id="SVGID_2418_" x="-463.2" y="149.1" width="126.1" height="25.1"/>
			</defs>
			<clipPath id="SVGID_15_">
				<use xlink:href="#SVGID_2418_"  overflow="visible"/>
			</clipPath>
		</g>
		<g>
			<defs>
				<rect id="SVGID_2432_" x="-463.2" y="149.1" width="126.1" height="25.1"/>
			</defs>
			<clipPath id="SVGID_16_">
				<use xlink:href="#SVGID_2432_"  overflow="visible"/>
			</clipPath>
		</g>
		<g>
			<defs>
				<rect id="SVGID_2481_" x="-463.2" y="149.1" width="126.1" height="25.1"/>
			</defs>
			<clipPath id="SVGID_18_">
				<use xlink:href="#SVGID_2481_"  overflow="visible"/>
			</clipPath>
		</g>
		<g>
			<defs>
				<rect id="SVGID_2488_" x="-463.2" y="149.1" width="126.1" height="25.1"/>
			</defs>
			<clipPath id="SVGID_20_">
				<use xlink:href="#SVGID_2488_"  overflow="visible"/>
			</clipPath>
		</g>
		<g>
			<defs>
				<rect id="SVGID_2516_" x="-463.2" y="149.1" width="126.1" height="25.1"/>
			</defs>
			<clipPath id="SVGID_22_">
				<use xlink:href="#SVGID_2516_"  overflow="visible"/>
			</clipPath>
		</g>
		<g>
			<defs>
				<rect id="SVGID_2518_" x="-463.2" y="149.1" width="126.1" height="25.1"/>
			</defs>
			<clipPath id="SVGID_23_">
				<use xlink:href="#SVGID_2518_"  overflow="visible"/>
			</clipPath>
		</g>
		<g>
			<defs>
				<rect id="SVGID_2525_" x="-463.2" y="149.1" width="126.1" height="25.1"/>
			</defs>
			<clipPath id="SVGID_25_">
				<use xlink:href="#SVGID_2525_"  overflow="visible"/>
			</clipPath>
		</g>
		<g>
			<defs>
				<rect id="SVGID_2532_" x="-463.2" y="149.1" width="126.1" height="25.1"/>
			</defs>
			<clipPath id="SVGID_27_">
				<use xlink:href="#SVGID_2532_"  overflow="visible"/>
			</clipPath>
		</g>
		<g>
			<defs>
				<rect id="SVGID_2539_" x="-463.2" y="149.1" width="126.1" height="25.1"/>
			</defs>
			<clipPath id="SVGID_29_">
				<use xlink:href="#SVGID_2539_"  overflow="visible"/>
			</clipPath>
		</g>
		<g>
			<defs>
				<rect id="SVGID_2546_" x="-463.2" y="149.1" width="126.1" height="25.1"/>
			</defs>
			<clipPath id="SVGID_30_">
				<use xlink:href="#SVGID_2546_"  overflow="visible"/>
			</clipPath>
		</g>
		<g>
			<defs>
				<rect id="SVGID_2572_" x="-463.2" y="149.1" width="126.1" height="25.1"/>
			</defs>
			<clipPath id="SVGID_32_">
				<use xlink:href="#SVGID_2572_"  overflow="visible"/>
			</clipPath>
			<path clip-path="url(#SVGID_32_)" fill="#876912" d="M15,66.3l-2.4-4.6H1.7l-2.4,4.6h-3.7l10-18.5h2.9l10.2,18.5H15z M7.1,51.4
				l-4,7.8h8.2L7.1,51.4z"/>
			<path clip-path="url(#SVGID_32_)" fill="#876912" d="M18.7,49.1c0,0.7-0.6,1.3-1.3,1.3c-0.7,0-1.3-0.6-1.3-1.3
				c0-0.7,0.6-1.3,1.3-1.3C18.1,47.8,18.7,48.4,18.7,49.1 M16.4,49.1c0,0.6,0.5,1.1,1.1,1.1c0.6,0,1.1-0.5,1.1-1.1
				c0-0.6-0.5-1.1-1.1-1.1C16.9,48,16.4,48.5,16.4,49.1 M17,48.4h0.5c0.2,0,0.5,0,0.5,0.4c0,0.3-0.2,0.3-0.3,0.4
				c0.2,0,0.2,0.1,0.2,0.3c0,0.1,0,0.3,0.1,0.4h-0.3c0-0.1-0.1-0.4-0.1-0.5c0-0.1,0-0.1-0.2-0.1h-0.3v0.6H17V48.4z M17.2,49h0.2
				c0.2,0,0.2-0.1,0.2-0.2c0-0.2-0.1-0.2-0.2-0.2h-0.2V49z"/>
		</g>
	</g>
	<g>
		<g>
			<g>
				<g>
					<path fill="#0047BA" d="M16.2,56.5c0-0.5,0.4-0.9,0.9-0.9c0.5,0,0.9,0.4,0.9,0.9c0,0.5-0.4,0.9-0.9,0.9
						C16.6,57.3,16.2,57,16.2,56.5"/>
					<path fill="#0047BA" d="M22.3,56.5c0-0.5,0.4-0.9,0.9-0.9c0.5,0,0.9,0.4,0.9,0.9c0,0.5-0.4,0.9-0.9,0.9
						C22.7,57.3,22.3,57,22.3,56.5"/>
					<path fill="#0047BA" d="M28.5,56.5c0-0.5,0.4-0.9,0.9-0.9c0.5,0,0.9,0.4,0.9,0.9c0,0.5-0.4,0.9-0.9,0.9
						C28.9,57.3,28.5,57,28.5,56.5"/>
					<path fill="#0047BA" d="M34.6,56.5c0-0.5,0.4-0.9,0.9-0.9c0.5,0,0.9,0.4,0.9,0.9c0,0.5-0.4,0.9-0.9,0.9
						C35,57.3,34.6,57,34.6,56.5"/>
					<path fill="#0047BA" d="M40.8,56.5c0-0.5,0.4-0.9,0.9-0.9c0.5,0,0.9,0.4,0.9,0.9c0,0.5-0.4,0.9-0.9,0.9
						C41.2,57.3,40.8,57,40.8,56.5"/>
					<path fill="#0047BA" d="M46.9,56.5c0-0.5,0.4-0.9,0.9-0.9c0.5,0,0.9,0.4,0.9,0.9c0,0.5-0.4,0.9-0.9,0.9
						C47.3,57.3,46.9,57,46.9,56.5"/>
					<path fill="#0047BA" d="M53,56.5c0-0.5,0.4-0.9,0.9-0.9c0.5,0,0.9,0.4,0.9,0.9c0,0.5-0.4,0.9-0.9,0.9C53.4,57.3,53,57,53,56.5"
						/>
					<path fill="#0047BA" d="M59.2,56.5c0-0.5,0.4-0.9,0.9-0.9c0.5,0,0.9,0.4,0.9,0.9c0,0.5-0.4,0.9-0.9,0.9
						C59.6,57.3,59.2,57,59.2,56.5"/>
					<path fill="#0047BA" d="M65.3,56.5c0-0.5,0.4-0.9,0.9-0.9c0.5,0,0.9,0.4,0.9,0.9c0,0.5-0.4,0.9-0.9,0.9
						C65.7,57.3,65.3,57,65.3,56.5"/>
					<path fill="#0047BA" d="M71.5,56.5c0-0.5,0.4-0.9,0.9-0.9c0.5,0,0.9,0.4,0.9,0.9c0,0.5-0.4,0.9-0.9,0.9
						C71.9,57.3,71.5,57,71.5,56.5"/>
					<path fill="#0047BA" d="M77.6,56.5c0-0.5,0.4-0.9,0.9-0.9c0.5,0,0.9,0.4,0.9,0.9c0,0.5-0.4,0.9-0.9,0.9
						C78,57.3,77.6,57,77.6,56.5"/>
					<path fill="#0047BA" d="M83.7,56.5c0-0.5,0.4-0.9,0.9-0.9c0.5,0,0.9,0.4,0.9,0.9c0,0.5-0.4,0.9-0.9,0.9
						C84.1,57.3,83.7,57,83.7,56.5"/>
					<path fill="#0047BA" d="M89.9,56.5c0-0.5,0.4-0.9,0.9-0.9c0.5,0,0.9,0.4,0.9,0.9c0,0.5-0.4,0.9-0.9,0.9
						C90.3,57.3,89.9,57,89.9,56.5"/>
					<path fill="#0047BA" d="M96,56.5c0-0.5,0.4-0.9,0.9-0.9c0.5,0,0.9,0.4,0.9,0.9c0,0.5-0.4,0.9-0.9,0.9C96.4,57.3,96,57,96,56.5"
						/>
					<path fill="#0047BA" d="M102.2,56.5c0-0.5,0.4-0.9,0.9-0.9c0.5,0,0.9,0.4,0.9,0.9c0,0.5-0.4,0.9-0.9,0.9
						C102.6,57.3,102.2,57,102.2,56.5"/>
					<path fill="#0047BA" d="M108.3,56.5c0-0.5,0.4-0.9,0.9-0.9c0.5,0,0.9,0.4,0.9,0.9c0,0.5-0.4,0.9-0.9,0.9S108.3,57,108.3,56.5"
						/>
					<path fill="#0047BA" d="M114.4,56.5c0-0.5,0.4-0.9,0.9-0.9c0.5,0,0.9,0.4,0.9,0.9c0,0.5-0.4,0.9-0.9,0.9
						C114.8,57.3,114.4,57,114.4,56.5"/>
					<path fill="#0047BA" d="M120.6,56.5c0-0.5,0.4-0.9,0.9-0.9c0.5,0,0.9,0.4,0.9,0.9c0,0.5-0.4,0.9-0.9,0.9
						C121,57.3,120.6,57,120.6,56.5"/>
					<path fill="#0047BA" d="M126.7,56.5c0-0.5,0.4-0.9,0.9-0.9c0.5,0,0.9,0.4,0.9,0.9c0,0.5-0.4,0.9-0.9,0.9
						C127.1,57.3,126.7,57,126.7,56.5"/>
					<path fill="#0047BA" d="M132.9,56.5c0-0.5,0.4-0.9,0.9-0.9c0.5,0,0.9,0.4,0.9,0.9c0,0.5-0.4,0.9-0.9,0.9
						C133.3,57.3,132.9,57,132.9,56.5"/>
					<path fill="#0047BA" d="M139,56.5c0-0.5,0.4-0.9,0.9-0.9c0.5,0,0.9,0.4,0.9,0.9c0,0.5-0.4,0.9-0.9,0.9
						C139.4,57.3,139,57,139,56.5"/>
					<path fill="#0047BA" d="M145.1,56.5c0-0.5,0.4-0.9,0.9-0.9c0.5,0,0.9,0.4,0.9,0.9c0,0.5-0.4,0.9-0.9,0.9
						C145.5,57.3,145.1,57,145.1,56.5"/>
					<path fill="#0047BA" d="M151.3,56.5c0-0.5,0.4-0.9,0.9-0.9c0.5,0,0.9,0.4,0.9,0.9c0,0.5-0.4,0.9-0.9,0.9
						C151.7,57.3,151.3,57,151.3,56.5"/>
					<path fill="#0047BA" d="M157.4,56.5c0-0.5,0.4-0.9,0.9-0.9c0.5,0,0.9,0.4,0.9,0.9c0,0.5-0.4,0.9-0.9,0.9
						C157.8,57.3,157.4,57,157.4,56.5"/>
					<path fill="#009BDE" d="M23.4,66.5c-0.3-1.1-1.3-1.4-2.4-1.4c-2.5,0-3.4,1.9-3.4,3.6c0.1,2.3,0.9,3.6,3.8,3.6
						c0.7,0,1.4-0.1,2-0.3v-2.6h-2.3v-1.1H25v4.5c-1.2,0.3-2.3,0.5-3.5,0.5c-1.4,0-2.6-0.2-3.7-1c-1.1-0.9-1.5-2.4-1.5-3.7
						c0-0.9,0.4-2,0.9-2.8c0.9-1.4,2.4-1.9,4.1-1.9c1.7,0,3.6,0.7,3.7,2.4H23.4"/>
					<polyline fill="#009BDE" points="30.2,73.3 30.2,64.2 36.6,64.2 36.6,65.3 31.6,65.3 31.6,68.1 36.4,68.1 36.4,69.2 31.6,69.2 
						31.6,72.2 36.7,72.2 36.7,73.3 30.2,73.3 					"/>
					<polyline fill="#009BDE" points="50.3,64.2 50.3,73.3 48.5,73.3 43.4,65.6 43.3,65.6 43.3,73.3 42.1,73.3 42.1,64.2 44,64.2 
						49,71.7 49,71.7 49,64.2 50.3,64.2 					"/>
					<polyline fill="#009BDE" points="55.6,73.3 55.6,64.2 62,64.2 62,65.3 57.1,65.3 57.1,68.1 61.8,68.1 61.8,69.2 57.1,69.2 
						57.1,72.2 62.2,72.2 62.2,73.3 55.6,73.3 					"/>
					<path fill="#009BDE" d="M68.7,65.3h2.3c1.6,0.1,1.9,0.7,1.9,1.4c0,0.7-0.4,1.3-1.9,1.4h-2.3V65.3 M70.7,69.2
						c0.6,0,1.1,0,1.5,0.4c0.5,0.5,0.5,1.2,0.6,2c0.1,0.5,0.2,1.1,0.4,1.7h1.5c-0.4-0.9-0.5-1.8-0.6-2.7c-0.2-1-0.3-1.6-1.6-1.9v0
						c1.2-0.3,1.9-1.1,1.9-2.2c0-1.8-1.8-2.3-3.5-2.3h-3.6v9.1h1.4v-4.1H70.7z"/>
					<path fill="#009BDE" d="M83.6,65.5l1.9,4.4h-3.8L83.6,65.5 M80,73.3l1.1-2.4h4.7l1.1,2.4h1.5l-4.1-9.1h-1.5l-4.3,9.1H80z"/>
					<polyline fill="#009BDE" points="92.9,73.3 92.9,64.2 94.3,64.2 94.3,72.2 99,72.2 99,73.3 92.9,73.3 					"/>
					<polyline fill="#009BDE" points="116.8,65.1 116.8,65.1 113.5,73.3 112.2,73.3 108.9,65.1 108.9,65.1 108.9,73.3 107.5,73.3 
						107.5,64.2 110,64.2 113,71.7 113,71.7 115.9,64.2 118.2,64.2 118.2,73.3 116.8,73.3 116.8,65.1 					"/>
					<rect x="123.7" y="64.2" fill="#009BDE" width="1.4" height="9.1"/>
					<polyline fill="#009BDE" points="130.6,73.3 130.6,64.2 132,64.2 132,72.2 136.7,72.2 136.7,73.3 130.6,73.3 					"/>
					<polyline fill="#009BDE" points="141.3,73.3 141.3,64.2 142.8,64.2 142.8,72.2 147.5,72.2 147.5,73.3 141.3,73.3 					"/>
					<path fill="#009BDE" d="M153.1,70.6c0,1.3,0.9,1.8,2.2,1.8c1.2,0,2.6-0.3,2.6-1.6c0-0.9-0.8-1.2-1.7-1.4
						c-1.7-0.3-4.5-0.7-4.5-2.7c0-2,2-2.7,3.9-2.7c1.7,0,3.5,0.7,3.5,2.4h-1.5c-0.1-1-1-1.4-2-1.4c-1,0-2.4,0.3-2.4,1.4
						c0,1,0.8,1.1,1.7,1.3c1.9,0.5,4.4,0.5,4.4,2.8c0,2.1-2.1,2.8-4.1,2.8c-2.1,0-3.7-0.8-3.6-2.8H153.1"/>
					<path fill="#0047BA" d="M40.8,27.7c0-4.2,1.4-6.7,1.4-6.7h-4.9c-0.5,2-1.3,3.4-3.4,3.9c0-0.1,0-0.1,0.1-0.2
						c0.4-1.1,1-3.1,1-4.3c0-3.1-2.2-5.7-6-5.7c-3.7,0-6.7,2.9-6.7,6.6c0,3.7,2.3,6.3,5.5,7.4c-0.3,0.8-0.6,1.6-0.9,2.4
						c-0.4,0-0.8-0.1-1.2-0.1c-7.4,0-9.5,5-9.5,8.2c0,6.2,5.8,10.1,12.7,10.1c5.8,0,13.4-3,13.4-11.6C42.3,34.2,40.8,30.7,40.8,27.7
						 M26.9,21.4c0-1.3,0.8-2.2,1.8-2.2c0.6,0,1.6,0.3,1.6,2c0,0.6-0.7,2.3-1,3.1c0,0.1-0.1,0.2-0.2,0.5
						C27.6,24.1,26.9,22.3,26.9,21.4z M28.9,44.8c-4,0-7.8-1.9-7.8-5.3c0-2.3,1.8-3.6,4.2-3.8c-1.1,3.1-2,5.5-2,5.5H28
						c0,0,0.8-2.1,1.8-4.8c2,0.8,3,2,3,2l1.6-4.3c0,0-1-1-3-1.9c0.4-1,0.7-2,1.1-2.9c2.1-0.2,3.7-1,3.7-1c0,4.2,1.3,6.2,1.3,9.1
						C37.3,43.3,32.6,44.8,28.9,44.8z"/>
				</g>
			</g>
		</g>
	</g>
</g>
</svg>
