<?xml version="1.0" encoding="utf-8"?>
<!-- Generator: Adobe Illustrator 18.1.1, SVG Export Plug-In . SVG Version: 6.00 Build 0)  -->
<svg version="1.1" id="Layer_1" xmlns="http://www.w3.org/2000/svg" xmlns:xlink="http://www.w3.org/1999/xlink" x="0px" y="0px"
	 viewBox="0 0 132 57.2" enable-background="new 0 0 132 57.2" xml:space="preserve">
<g>
	<g>
		<defs>
			<rect id="SVGID_636_" x="-133.8" y="-10.7" width="52.2" height="72.9"/>
		</defs>
		<clipPath id="SVGID_2_">
			<use xlink:href="#SVGID_636_"  overflow="visible"/>
		</clipPath>
	</g>
	<g>
		<defs>
			<rect id="SVGID_1104_" x="-303.3" y="109.5" width="63.5" height="60.9"/>
		</defs>
		<clipPath id="SVGID_4_">
			<use xlink:href="#SVGID_1104_"  overflow="visible"/>
		</clipPath>
	</g>
	<g>
		<defs>
			<rect id="SVGID_1494_" x="-133.8" y="-127.8" width="70.1" height="64.3"/>
		</defs>
		<clipPath id="SVGID_6_">
			<use xlink:href="#SVGID_1494_"  overflow="visible"/>
		</clipPath>
		
			<rect x="-348.8" y="-159.3" clip-path="url(#SVGID_6_)" fill="none" stroke="#000000" stroke-width="0.1012" width="386.1" height="298.6"/>
		
			<rect x="-363.1" y="-165.6" clip-path="url(#SVGID_6_)" fill="none" stroke="#FFFFFF" stroke-width="0.4048" width="414.8" height="311.1"/>
	</g>
	<g>
		<defs>
			<rect id="SVGID_1720_" x="-133.8" y="-127.8" width="70.1" height="64.3"/>
		</defs>
		<clipPath id="SVGID_8_">
			<use xlink:href="#SVGID_1720_"  overflow="visible"/>
		</clipPath>
		<path clip-path="url(#SVGID_8_)" fill="#876912" d="M-1,57.1l-1.5-2.8h-6.7l-1.5,2.8h-2.3l6.2-11.4h1.8l6.3,11.4H-1z M-5.9,47.9
			l-2.5,4.8h5L-5.9,47.9z"/>
		<path clip-path="url(#SVGID_8_)" fill="#876912" d="M1.3,46.5c0,0.4-0.4,0.8-0.8,0.8c-0.4,0-0.8-0.4-0.8-0.8
			c0-0.5,0.4-0.8,0.8-0.8C0.9,45.7,1.3,46.1,1.3,46.5 M-0.2,46.5c0,0.4,0.3,0.7,0.7,0.7c0.4,0,0.7-0.3,0.7-0.7
			c0-0.4-0.3-0.7-0.7-0.7C0.1,45.9-0.2,46.1-0.2,46.5 M0.2,46.1h0.3c0.1,0,0.3,0,0.3,0.2c0,0.2-0.1,0.2-0.2,0.2
			c0.1,0,0.1,0.1,0.1,0.2c0,0.1,0,0.2,0,0.2H0.7c0,0,0-0.3,0-0.3c0-0.1,0-0.1-0.1-0.1H0.4V47H0.2V46.1z M0.4,46.5h0.1
			c0.1,0,0.1-0.1,0.1-0.1c0-0.1-0.1-0.1-0.1-0.1H0.4V46.5z"/>
	</g>
	<g>
		<g>
			<defs>
				<rect id="SVGID_2346_" x="-166.7" y="245" width="126.1" height="25.1"/>
			</defs>
			<clipPath id="SVGID_9_">
				<use xlink:href="#SVGID_2346_"  overflow="visible"/>
			</clipPath>
			
				<rect x="-254.1" y="-189.8" clip-path="url(#SVGID_9_)" fill="none" stroke="#000000" stroke-width="0.1646" width="627.9" height="485.6"/>
			
				<rect x="-277.5" y="-200" clip-path="url(#SVGID_9_)" fill="none" stroke="#FFFFFF" stroke-width="0.6584" width="674.7" height="506"/>
			<path clip-path="url(#SVGID_9_)" fill="#FFFFFF" d="M161.4-10l-23-0.1c-3.9,0-7,3.1-7,7v69.2c0,3.9,3.2,7,7,7l23,0.1
				c3.9,0,7-3.1,7-7V-2.9C168.4-6.8,165.3-9.9,161.4-10"/>
		</g>
		<g>
			<defs>
				<rect id="SVGID_2348_" x="-166.7" y="245" width="126.1" height="25.1"/>
			</defs>
			<clipPath id="SVGID_11_">
				<use xlink:href="#SVGID_2348_"  overflow="visible"/>
			</clipPath>
		</g>
		<g>
			<defs>
				<rect id="SVGID_2355_" x="-166.7" y="245" width="126.1" height="25.1"/>
			</defs>
			<clipPath id="SVGID_13_">
				<use xlink:href="#SVGID_2355_"  overflow="visible"/>
			</clipPath>
		</g>
		<g>
			<defs>
				<rect id="SVGID_2362_" x="-166.7" y="245" width="126.1" height="25.1"/>
			</defs>
			<clipPath id="SVGID_15_">
				<use xlink:href="#SVGID_2362_"  overflow="visible"/>
			</clipPath>
		</g>
		<g>
			<defs>
				<rect id="SVGID_2369_" x="-166.7" y="245" width="126.1" height="25.1"/>
			</defs>
			<clipPath id="SVGID_16_">
				<use xlink:href="#SVGID_2369_"  overflow="visible"/>
			</clipPath>
		</g>
		<g>
			<defs>
				<rect id="SVGID_2376_" x="-166.7" y="245" width="126.1" height="25.1"/>
			</defs>
			<clipPath id="SVGID_18_">
				<use xlink:href="#SVGID_2376_"  overflow="visible"/>
			</clipPath>
		</g>
		<g>
			<defs>
				<rect id="SVGID_2383_" x="-166.7" y="245" width="126.1" height="25.1"/>
			</defs>
			<clipPath id="SVGID_20_">
				<use xlink:href="#SVGID_2383_"  overflow="visible"/>
			</clipPath>
		</g>
		<g>
			<defs>
				<rect id="SVGID_2390_" x="-166.7" y="245" width="126.1" height="25.1"/>
			</defs>
			<clipPath id="SVGID_22_">
				<use xlink:href="#SVGID_2390_"  overflow="visible"/>
			</clipPath>
		</g>
		<g>
			<defs>
				<rect id="SVGID_2397_" x="-166.7" y="245" width="126.1" height="25.1"/>
			</defs>
			<clipPath id="SVGID_23_">
				<use xlink:href="#SVGID_2397_"  overflow="visible"/>
			</clipPath>
		</g>
		<g>
			<defs>
				<rect id="SVGID_2404_" x="-166.7" y="245" width="126.1" height="25.1"/>
			</defs>
			<clipPath id="SVGID_25_">
				<use xlink:href="#SVGID_2404_"  overflow="visible"/>
			</clipPath>
		</g>
		<g>
			<defs>
				<rect id="SVGID_2411_" x="-166.7" y="245" width="126.1" height="25.1"/>
			</defs>
			<clipPath id="SVGID_27_">
				<use xlink:href="#SVGID_2411_"  overflow="visible"/>
			</clipPath>
		</g>
		<g>
			<defs>
				<rect id="SVGID_2418_" x="-166.7" y="245" width="126.1" height="25.1"/>
			</defs>
			<clipPath id="SVGID_29_">
				<use xlink:href="#SVGID_2418_"  overflow="visible"/>
			</clipPath>
		</g>
		<g>
			<defs>
				<rect id="SVGID_2425_" x="-166.7" y="245" width="126.1" height="25.1"/>
			</defs>
			<clipPath id="SVGID_30_">
				<use xlink:href="#SVGID_2425_"  overflow="visible"/>
			</clipPath>
		</g>
		<g>
			<defs>
				<rect id="SVGID_2432_" x="-166.7" y="245" width="126.1" height="25.1"/>
			</defs>
			<clipPath id="SVGID_32_">
				<use xlink:href="#SVGID_2432_"  overflow="visible"/>
			</clipPath>
		</g>
		<g>
			<defs>
				<rect id="SVGID_2439_" x="-166.7" y="245" width="126.1" height="25.1"/>
			</defs>
			<clipPath id="SVGID_34_">
				<use xlink:href="#SVGID_2439_"  overflow="visible"/>
			</clipPath>
		</g>
		<g>
			<defs>
				<rect id="SVGID_2446_" x="-166.7" y="245" width="126.1" height="25.1"/>
			</defs>
			<clipPath id="SVGID_36_">
				<use xlink:href="#SVGID_2446_"  overflow="visible"/>
			</clipPath>
		</g>
		<g>
			<defs>
				<rect id="SVGID_2453_" x="-166.7" y="245" width="126.1" height="25.1"/>
			</defs>
			<clipPath id="SVGID_37_">
				<use xlink:href="#SVGID_2453_"  overflow="visible"/>
			</clipPath>
		</g>
		<g>
			<defs>
				<rect id="SVGID_2460_" x="-166.7" y="245" width="126.1" height="25.1"/>
			</defs>
			<clipPath id="SVGID_39_">
				<use xlink:href="#SVGID_2460_"  overflow="visible"/>
			</clipPath>
		</g>
		<g>
			<defs>
				<rect id="SVGID_2467_" x="-166.7" y="245" width="126.1" height="25.1"/>
			</defs>
			<clipPath id="SVGID_41_">
				<use xlink:href="#SVGID_2467_"  overflow="visible"/>
			</clipPath>
		</g>
		<g>
			<defs>
				<rect id="SVGID_2474_" x="-166.7" y="245" width="126.1" height="25.1"/>
			</defs>
			<clipPath id="SVGID_43_">
				<use xlink:href="#SVGID_2474_"  overflow="visible"/>
			</clipPath>
		</g>
		<g>
			<defs>
				<rect id="SVGID_2481_" x="-166.7" y="245" width="126.1" height="25.1"/>
			</defs>
			<clipPath id="SVGID_44_">
				<use xlink:href="#SVGID_2481_"  overflow="visible"/>
			</clipPath>
		</g>
		<g>
			<defs>
				<rect id="SVGID_2488_" x="-166.7" y="245" width="126.1" height="25.1"/>
			</defs>
			<clipPath id="SVGID_46_">
				<use xlink:href="#SVGID_2488_"  overflow="visible"/>
			</clipPath>
		</g>
		<g>
			<defs>
				<rect id="SVGID_2495_" x="-166.7" y="245" width="126.1" height="25.1"/>
			</defs>
			<clipPath id="SVGID_48_">
				<use xlink:href="#SVGID_2495_"  overflow="visible"/>
			</clipPath>
		</g>
		<g>
			<defs>
				<rect id="SVGID_2502_" x="-166.7" y="245" width="126.1" height="25.1"/>
			</defs>
			<clipPath id="SVGID_50_">
				<use xlink:href="#SVGID_2502_"  overflow="visible"/>
			</clipPath>
		</g>
		<g>
			<defs>
				<rect id="SVGID_2509_" x="-166.7" y="245" width="126.1" height="25.1"/>
			</defs>
			<clipPath id="SVGID_51_">
				<use xlink:href="#SVGID_2509_"  overflow="visible"/>
			</clipPath>
		</g>
		<g>
			<defs>
				<rect id="SVGID_2516_" x="-166.7" y="245" width="126.1" height="25.1"/>
			</defs>
			<clipPath id="SVGID_53_">
				<use xlink:href="#SVGID_2516_"  overflow="visible"/>
			</clipPath>
		</g>
		<g>
			<defs>
				<rect id="SVGID_2518_" x="-166.7" y="245" width="126.1" height="25.1"/>
			</defs>
			<clipPath id="SVGID_55_">
				<use xlink:href="#SVGID_2518_"  overflow="visible"/>
			</clipPath>
		</g>
		<g>
			<defs>
				<rect id="SVGID_2525_" x="-166.7" y="245" width="126.1" height="25.1"/>
			</defs>
			<clipPath id="SVGID_57_">
				<use xlink:href="#SVGID_2525_"  overflow="visible"/>
			</clipPath>
		</g>
		<g>
			<defs>
				<rect id="SVGID_2532_" x="-166.7" y="245" width="126.1" height="25.1"/>
			</defs>
			<clipPath id="SVGID_58_">
				<use xlink:href="#SVGID_2532_"  overflow="visible"/>
			</clipPath>
		</g>
		<g>
			<defs>
				<rect id="SVGID_2539_" x="-166.7" y="245" width="126.1" height="25.1"/>
			</defs>
			<clipPath id="SVGID_60_">
				<use xlink:href="#SVGID_2539_"  overflow="visible"/>
			</clipPath>
		</g>
		<g>
			<defs>
				<rect id="SVGID_2546_" x="-166.7" y="245" width="126.1" height="25.1"/>
			</defs>
			<clipPath id="SVGID_62_">
				<use xlink:href="#SVGID_2546_"  overflow="visible"/>
			</clipPath>
		</g>
		<g>
			<defs>
				<rect id="SVGID_2553_" x="-166.7" y="245" width="126.1" height="25.1"/>
			</defs>
			<clipPath id="SVGID_64_">
				<use xlink:href="#SVGID_2553_"  overflow="visible"/>
			</clipPath>
			<path clip-path="url(#SVGID_64_)" fill="#FFFFFF" d="M5.1,58.1c-4.4,0-8-3.6-8-8V13.6c0-4.4,3.6-8,8-8h81.7c4.4,0,8,3.6,8,8v36.5
				c0,4.4-3.6,8-8,8H5.1z"/>
			<path clip-path="url(#SVGID_64_)" fill="#ED174C" d="M90.5,9.8c-1-1-2.3-1.6-3.8-1.6H64l13.1,21.9l1.2,0.1l0.7,1v0.9l0.9,0.1
				l0.8,1.1v0.9l0.9,0.1c0,0,0.8,0.9,0.8,0.9c0,0,0,2.1,0,2.1s1.8,1.7,3.5,2.3c1.2,0.4,1.3,2.3,2,3.3c0.9,1.4,2.1,2,1.9,2.8
				c-0.6,2.1-2.8,5.8-4.8,6c0,0-5.1,0-8.1,0l0,3.5h10.1c2.9,0,5.3-2.4,5.3-5.3V13.6C92.1,12.2,91.5,10.8,90.5,9.8"/>
			<path clip-path="url(#SVGID_64_)" fill="#004684" d="M56.2,8.4h-51c-1.4,0-2.8,0.6-3.8,1.6c-1,1-1.6,2.3-1.6,3.8v36.5
				c0,1.4,0.6,2.8,1.6,3.8c1,1,2.3,1.6,3.8,1.6h33.2c-0.8-1.4-1.8-3-2.1-3.4l-4,0c0-9.8,3.3-15.3,7.3-16.3c0.5-0.1,0.3-2.8-0.4-3.6
				c0,0-1.9,0.1-2.3-0.1c-0.5-0.1-0.2-0.6-0.2-0.6l1.8-4l-0.2-1.1l-6.9,0c-0.1,0,5.6-4,5.6-4c0.3-10.4,11-11.2,17.4-6.9
				c3.8,2.6,4.1,7.6,3.8,11.1c-0.1,0.2-1,0.1-1,0.1s-0.6,3.8,1.1,3.8l7.5,0c3.1-0.1,6,1.9,6,1.9l0.7-2.6L56.2,8.4z M10.8,48
				c-2,0-3.6-1.6-3.6-3.6c0-2,1.6-3.7,3.6-3.7c2,0,3.6,1.6,3.6,3.6C14.5,46.3,12.8,48,10.8,48"/>
			<path clip-path="url(#SVGID_64_)" fill="#ED174C" d="M91.3,56.9h-0.8v2.3h-0.6v-2.3H89v-0.5h2.2V56.9z M95,59.2h-0.6V57h0
				l-0.8,2.2h-0.5L92.3,57h0v2.2h-0.6v-2.8h1l0.6,1.8h0l0.7-1.8h1V59.2z"/>
		</g>
	</g>
	<g>
		<text transform="matrix(1 0 0 1.0019 55.2245 9.4152)" fill="#000101" font-family="'Times-Roman'" font-size="4.9951"> </text>
		<polygon fill="#919697" points="17.6,31.1 17.6,10.8 22.7,10.8 22.7,26.4 27.8,26.4 27.8,31.1 		"/>
		<polygon fill="#919697" points="22.7,10.6 17.4,10.6 17.4,31.3 28,31.3 28,26.2 22.9,26.2 22.9,10.6 22.7,10.6 22.5,11 22.5,26.6 
			27.6,26.6 27.6,30.9 17.8,30.9 17.8,11 22.5,11 		"/>
		<polygon fill="#919697" points="60.2,31.1 60.2,15.2 57,15.2 57,10.9 68.5,10.9 68.5,15.2 65.3,15.2 65.3,31.1 		"/>
		<polygon fill="#919697" points="68.5,10.7 56.8,10.7 56.8,15.4 60,15.4 60,31.3 65.5,31.3 65.5,15.4 68.7,15.4 68.7,10.7 
			68.5,10.7 68.3,11.1 68.3,15 65.1,15 65.1,30.9 60.4,30.9 60.4,15 57.2,15 57.2,11.1 68.3,11.1 		"/>
		<rect x="70" y="10.8" fill="#919697" width="4.9" height="20.3"/>
		<polygon fill="#919697" points="74.9,10.6 69.8,10.6 69.8,31.3 75.1,31.3 75.1,10.6 74.9,10.6 74.7,11 74.7,30.9 70.2,30.9 
			70.2,11 74.7,11 		"/>
		<polygon fill="#919697" points="81.1,17 81.1,31.1 76.3,31.1 76.3,10.8 83.8,10.8 85.3,22.1 85.4,21.2 87.1,10.8 94.2,10.8 
			94.2,31.1 89.4,31.1 89.4,17 89.2,18 87,31.1 83.2,31.1 		"/>
		<polygon fill="#919697" points="94.2,10.6 86.9,10.6 85.3,20.6 84,10.6 76.1,10.6 76.1,31.3 81.3,31.3 81.3,20 83,31.3 87.2,31.3 
			89.2,19.5 89.2,31.3 94.4,31.3 94.4,10.6 94.2,10.6 94,11 94,30.9 89.6,30.9 89.6,17 89.2,17 89,18 86.8,30.9 83.5,30.9 81.3,17 
			80.9,17 80.9,30.9 76.5,30.9 76.5,11 83.6,11 85.1,22.1 85.4,22.1 85.6,21.2 87.2,11 94,11 		"/>
		<polygon fill="#919697" points="35.8,31.1 35.8,10.9 44.7,10.9 44.7,15.3 40.9,15.3 40.9,18.7 44.5,18.7 44.5,23.2 40.9,23.2 
			40.9,31.1 		"/>
		<polygon fill="#919697" points="44.7,10.7 35.6,10.7 35.6,31.3 41.1,31.3 41.1,23.4 44.7,23.4 44.7,18.5 41.1,18.5 41.1,15.5 
			44.9,15.5 44.9,10.7 44.7,10.7 44.5,11.1 44.5,15.1 40.6,15.1 40.6,18.9 44.3,18.9 44.3,23 40.6,23 40.6,30.9 36,30.9 36,11.1 
			44.5,11.1 		"/>
		<polygon fill="#919697" points="95.7,10.9 104.9,10.9 104.9,15.3 100.5,15.3 100.5,18.7 104.5,18.7 104.5,23.2 100.5,23.2 
			100.5,26.7 104.9,26.7 104.9,31.1 95.7,31.1 		"/>
		<polygon fill="#919697" points="104.9,10.7 95.5,10.7 95.5,31.3 105.1,31.3 105.1,26.5 100.7,26.5 100.7,23.4 104.7,23.4 
			104.7,18.5 100.7,18.5 100.7,15.5 105.1,15.5 105.1,10.7 104.9,10.7 104.7,11.1 104.7,15.1 100.3,15.1 100.3,18.9 104.3,18.9 
			104.3,23 100.3,23 100.3,26.9 104.7,26.9 104.7,30.9 95.9,30.9 95.9,11.1 104.7,11.1 		"/>
		<polygon fill="#919697" points="46.2,10.9 55.5,10.9 55.5,15.3 51.2,15.3 51.2,18.7 55.1,18.7 55.1,23.2 51.2,23.2 51.2,26.7 
			55.5,26.7 55.5,31.1 46.2,31.1 		"/>
		<polygon fill="#919697" points="55.5,10.7 46,10.7 46,31.3 55.7,31.3 55.7,26.5 51.4,26.5 51.4,23.4 55.3,23.4 55.3,18.5 
			51.4,18.5 51.4,15.5 55.7,15.5 55.7,10.7 55.5,10.7 55.3,11.1 55.3,15.1 50.9,15.1 50.9,18.9 54.9,18.9 54.9,23 50.9,23 
			50.9,26.9 55.3,26.9 55.3,30.9 46.4,30.9 46.4,11.1 55.3,11.1 		"/>
		<rect x="29.2" y="10.8" fill="#919697" width="5.1" height="20.3"/>
		<polygon fill="#919697" points="34.3,10.6 28.9,10.6 28.9,31.3 34.5,31.3 34.5,10.6 34.3,10.6 34.1,11 34.1,30.9 29.4,30.9 
			29.4,11 34.1,11 		"/>
		<path fill="#919697" d="M106.4,10.6"/>
		<polygon fill="#7A7D7D" points="105.8,11.7 105.8,11.7 105.9,11.4 106.1,11.1 106.4,10.9 106.8,10.8 107.2,10.9 107.5,11.1 
			107.6,11.4 107.7,11.7 107.6,12.2 107.5,12.5 107.2,12.7 106.8,12.7 106.4,12.7 106.1,12.5 105.9,12.2 105.8,11.7 106.8,12.9 
			107.3,12.8 107.6,12.6 107.8,12.3 107.9,11.7 107.8,11.3 107.6,11 107.3,10.7 106.8,10.6 106.3,10.7 106,11 105.7,11.3 
			105.6,11.7 105.7,12.3 106,12.6 106.3,12.8 106.8,12.9 105.8,11.7 106.5,11.8 106.8,11.8 107.2,12.5 107.4,12.5 107,11.8 
			107.2,11.7 107.3,11.5 107.3,11.3 107.2,11.2 106.9,11.1 106.3,11.1 106.3,12.5 106.5,12.5 106.5,11.8 105.8,11.7 106.5,11.7 
			106.5,11.3 106.9,11.3 107,11.3 107.1,11.4 107.1,11.6 107,11.6 106.8,11.7 		"/>
		<text transform="matrix(1 0 0 1.0019 108.0233 43.797)" fill="#000101" font-family="'Helvetica-Bold'" font-size="4.9951"> </text>
		<path fill="#919697" d="M29.1,36.5v-1.3h-5.8L23,35.3l-0.3,0.2l-0.4,0.2L22.3,36l-0.2,0.3L22,36.6v4.2h1.3v-2.2h5.2v-1.3h-5.2
			v-0.7l0.1-0.1l0.1-0.1h0.2H29.1z M35.1,35.2h-1.3v5.5h1.3V35.2z M48.5,36.5v-1.3h-8.4v1.3h3.6v4.3h1.3v-4.3H48.5z M61.9,39v-3.9
			h-1.3v4.1l-0.1,0.1l-0.1,0.1h-0.3h-0.4l-0.3-0.3l-3.1-3L56,35.7l-0.3-0.3l-0.4-0.2l-0.5-0.1h-0.4l-0.3,0.1l-0.5,0.3L53.3,36
			l-0.1,0.3v4.4h1.3v-4.2l0.4-0.1l0.5,0.4l0.1,0.1l3.1,3.2l0.5,0.3l0.4,0.2l0.3,0.1h0.5h0.4l0.4-0.1l0.3-0.2l0.3-0.2l0.2-0.2
			l0.1-0.4L61.9,39z M74.9,40.7v-1.3h-6.6l-0.2-0.1L68,39.3l-0.1-0.1L67.8,39v-0.4h7.1v-1.3h-7.1v-0.5l0.2-0.2v-0.1l0.2-0.1l0.1-0.1
			h6.7v-1.3h-6.7l-0.3,0.1l-0.4,0.1l-0.3,0.1l-0.2,0.2L66.9,36l-0.1,0.2l-0.1,0.4l-0.1,0.3V39l0.1,0.4l0.1,0.3l0.1,0.4l0.2,0.2
			l0.2,0.2l0.3,0.1l0.4,0.1l0.4,0.1H74.9z M87.9,39.3V39l-0.1-0.3l-0.1-0.4L87.6,38l-0.3-0.2l-0.6-0.4l-0.7-0.1h-4.8H81l-0.1-0.1
			l-0.1-0.1v-0.5l0.1-0.1l0.1-0.1l0.2-0.1h6.3v-1.3h-6.3l-0.3,0.1l-0.4,0.1l-0.3,0.1L80,35.6L79.8,36l-0.1,0.2l-0.1,0.4v0.7l0.1,0.3
			l0.1,0.3L80,38l0.3,0.2l0.3,0.3l0.4,0.1h0.3h4.8h0.2l0.2,0.1l0.1,0.2l0.1,0.1l-0.1,0.2l-0.1,0.1l-0.2,0.1l-0.2,0.1h-6.6v1.3h6.6
			l0.4-0.1l0.3-0.1l0.3-0.1l0.4-0.2l0.2-0.3l0.1-0.4L87.9,39.3z M100.5,39.3V39l-0.1-0.3l-0.1-0.4l-0.2-0.3l-0.3-0.3l-0.5-0.3
			l-0.8-0.1h-4.8h-0.3l-0.1-0.1L93.4,37v-0.3l0.1-0.1l0.1-0.1l0.3-0.1h6.2v-1.3h-6.2l-0.4,0.1l-0.3,0.1l-0.3,0.1l-0.3,0.2L92.4,36
			l-0.1,0.2l-0.1,0.3v0.8l0.1,0.3l0.1,0.3l0.3,0.2l0.3,0.2l0.3,0.3l0.3,0.1h0.4h4.8h0.2l0.3,0.1l0.1,0.2l0.1,0.1l-0.1,0.2l-0.1,0.1
			l-0.3,0.1l-0.2,0.1h-6.6v1.3h6.6l0.5-0.1l0.3-0.1l0.3-0.1l0.3-0.2l0.2-0.3l0.2-0.4L100.5,39.3z M105.1,43.6H17.4V32.3h87.6V43.6z"
			/>
	</g>
</g>
</svg>
