<?xml version="1.0" encoding="utf-8"?>
<!-- Generator: Adobe Illustrator 18.1.1, SVG Export Plug-In . SVG Version: 6.00 Build 0)  -->
<svg version="1.1" id="Layer_1" xmlns="http://www.w3.org/2000/svg" xmlns:xlink="http://www.w3.org/1999/xlink" x="0px" y="0px"
	 viewBox="0 0 131.5 95.9" enable-background="new 0 0 131.5 95.9" xml:space="preserve">
<g>
	<g>
		<defs>
			<rect id="SVGID_1133_" x="2.9" y="22.1" width="98.6" height="51.5"/>
		</defs>
		<clipPath id="SVGID_2_">
			<use xlink:href="#SVGID_1133_"  overflow="visible"/>
		</clipPath>
		<path clip-path="url(#SVGID_2_)" fill="#00000C" d="M62.7,43.8c-1.9-1.7-4.1-0.8-4.1-0.8c-3.4,1.5-2.6,4.7-2.6,4.7
			c-3.4-0.1-5.5-2.3-5.5-2.3c-2-2-1.8-4.5-1.8-4.5c0.2,0.2,0.7,0.8,0.7,0.8c2.5,2.2,6.1,0.2,6.1,0.2c4.1-1.6,4.5-5.7,4.5-5.7
			c0.7-5.3-2.6-7.9-2.6-7.9c-2.2-1.8-4.9-1.8-4.9-1.8c-0.9-0.1-1,0.3-1,0.3c-0.8,2.8,1.6,4.4,1.6,4.4c2.7,1.9,5-0.2,5-0.2
			c1.6,2.8,0.8,5.6,0.8,5.6c-0.8,3.1-3.2,4-3.2,4c0.8-1.3,0.4-2.9,0.4-2.9c-0.6-2.2-3.6-4.2-3.6-4.2c-3.8-2.5-7.5-0.2-7.5-0.2
			c-3.6,1.9-4.5,5.2-4.5,5.2c-1,2.7,0.8,5.7,0.8,5.7c0.3,0.8,0.8,0.6,0.8,0.6c3.3-1,3-3.9,3-3.9c0.1-2.8-2.7-3.8-2.7-3.8
			c2.3-3.3,5.7-3.6,5.7-3.6c2.1-0.2,4.2,1.3,4.2,1.3c-0.4,0-1.6,0.3-1.6,0.3c-2,0.9-2.4,2.9-2.4,2.9c-1.6,4.9,1,7.6,1,7.6
			c3.6,4.3,8.3,3.2,8.3,3.2c3.5-0.4,5.3-4.1,5.3-4.1C63.2,44,62.7,43.8,62.7,43.8 M54,30.5c-1.5-0.8-1.5-2.8-1.5-2.8
			c3.8,0.2,5,2.3,5,2.3C55.9,31.6,54,30.5,54,30.5 M43.9,40.6c0,2.4-1.7,2.9-1.7,2.9c-1.6-3.1-0.4-5.4-0.4-5.4
			C43.8,38.5,43.9,40.6,43.9,40.6 M52.2,35.8c1.6,0,2.9,1.3,2.9,2.9c0,1.6-1.2,2.9-2.8,3c-1.6,0-2.9-1.3-2.9-2.9
			C49.3,37.1,50.6,35.8,52.2,35.8 M57.2,47.6c0,0-0.6-1.8,1-3.1c0,0,1.7-1.3,3.5-0.1C61.7,44.3,60.2,47.2,57.2,47.6"/>
		<path clip-path="url(#SVGID_2_)" fill="#00000C" d="M32.8,51.8c-3.9,0-7,3-7,6.6c0,3.6,3.1,6.6,7,6.6c3.9,0,7-3,7-6.6
			C39.9,54.7,36.7,51.8,32.8,51.8 M32.8,63.2c-2.6,0-4.7-2.2-4.7-4.8c0-2.7,2.1-4.8,4.7-4.8c2.6,0,4.7,2.2,4.7,4.8
			C37.5,61,35.4,63.2,32.8,63.2"/>
		<path clip-path="url(#SVGID_2_)" fill="#00000C" d="M85.6,63.4v-0.2h1v0.2h-0.4v1H86v-1H85.6z M87.2,63.2l0.3,0.9l0.3-0.9h0.3v1.2
			h-0.2v-1l-0.3,1h-0.2l-0.3-1v1h-0.2v-1.2H87.2z"/>
		<path clip-path="url(#SVGID_2_)" fill="#00000C" d="M76.1,62.5h-5.8v-3.6h5.1c0.5,0,0.9-0.4,0.9-0.9c0-0.5-0.4-0.9-0.9-0.9h-5.1
			v-2.9h5.8c0.5,0,0.9-0.4,0.9-0.9c0-0.5-0.4-0.9-0.9-0.9h-7.2v0c-0.5,0-0.9,0.4-0.9,0.9v10.2c0,0.5,0.4,0.9,0.9,0.9h7.2
			c0.5,0,0.9-0.4,0.9-0.9C77,62.9,76.6,62.5,76.1,62.5"/>
		<path clip-path="url(#SVGID_2_)" fill="#00000C" d="M53.4,56.3c0.3,0,0.5-0.2,0.5-0.5c0-0.1,0-0.2,0-0.2c-1.1-2.3-3.6-3.8-6.4-3.8
			c-3.9,0-7,3-7,6.6c0,3.6,3.1,6.6,7,6.6c3,0,5.6-1.8,6.6-4.4c0,0,0-0.1,0-0.2c0-0.3-0.2-0.5-0.5-0.5h-1.5c-0.1,0-0.2,0.1-0.3,0.2
			c0,0,0,0.1,0,0.1c-0.7,1.7-2.4,3-4.3,3c-2.6,0-4.7-2.2-4.7-4.8c0-2.7,2.1-4.8,4.7-4.8c1.8,0,3.3,1,4.1,2.5
			c0.1,0.1,0.2,0.3,0.3,0.3H53.4"/>
		<path clip-path="url(#SVGID_2_)" fill="#00000C" d="M15.6,60c0-0.2-0.2-0.4-0.5-0.4H14c-0.3,0-0.5,0.2-0.5,0.5v0.2
			c0,2.5,2.3,4.6,5.8,4.6c3.2,0,5.9-1.6,5.9-6v-6.2c0-0.3-0.2-0.5-0.5-0.5h-1.4c-0.3,0-0.5,0.2-0.5,0.5V59c0,2.9-1.3,4.2-3.5,4.2
			C17.5,63.2,15.6,61.9,15.6,60L15.6,60z"/>
		<path clip-path="url(#SVGID_2_)" fill="#00000C" d="M88.8,52.3h-1.5c-0.3,0-0.6,0.2-0.8,0.5l-3.3,5l-3-5c-0.2-0.3-0.5-0.5-0.8-0.5
			h-1.3c-0.5,0-0.7,0.4-0.4,0.9l4.4,6.9v3.3c0,0.5,0.4,0.9,0.9,0.9h0.5c0.5,0,0.9-0.4,0.9-0.9v-3.4l4.7-6.8
			C89.5,52.7,89.3,52.3,88.8,52.3"/>
		<path clip-path="url(#SVGID_2_)" fill="#00000C" d="M67.1,63.7l-4.9-7.2l3.4-3.4c0.4-0.4,0.2-0.7-0.1-0.7h-1.7
			c-0.4,0-0.5,0.1-0.9,0.5L57.7,58v-5.2c0-0.3-0.2-0.5-0.5-0.5h-0.8c0,0-1,0-1,1.6l0,10c0,0.3,0.2,0.5,0.5,0.5h0.6
			c0.7,0,1.3-0.6,1.3-1.3v-2l2.9-2.9l3.9,5.7c0.1,0.2,0.4,0.5,0.6,0.5h1.4C67.1,64.4,67.4,64.1,67.1,63.7"/>
	</g>
</g>
</svg>
