<?xml version="1.0" encoding="utf-8"?>
<!-- Generator: Adobe Illustrator 18.1.1, SVG Export Plug-In . SVG Version: 6.00 Build 0)  -->
<svg version="1.1" id="Layer_1" xmlns="http://www.w3.org/2000/svg" xmlns:xlink="http://www.w3.org/1999/xlink" x="0px" y="0px"
	 viewBox="0 0 139.7 80" enable-background="new 0 0 139.7 80" xml:space="preserve">
<g>
	<g>
		<defs>
			<rect id="SVGID_1_" x="-9.5" y="17.8" width="147.9" height="62.2"/>
		</defs>
		<clipPath id="SVGID_2_">
			<use xlink:href="#SVGID_1_"  overflow="visible"/>
		</clipPath>
		
			<rect x="-61.3" y="-13" clip-path="url(#SVGID_2_)" fill="none" stroke="#000000" stroke-width="9.898134e-02" width="378" height="292.3"/>
		
			<rect x="-75.4" y="-19.1" clip-path="url(#SVGID_2_)" fill="none" stroke="#FFFFFF" stroke-width="0.397" width="406.1" height="304.6"/>
	</g>
	<g>
		<defs>
			<rect id="SVGID_3_" x="-9.5" y="17.8" width="147.9" height="62.2"/>
		</defs>
		<clipPath id="SVGID_4_">
			<use xlink:href="#SVGID_3_"  overflow="visible"/>
		</clipPath>
	</g>
	<g>
		<defs>
			<rect id="SVGID_10_" x="-9.5" y="17.8" width="147.9" height="62.2"/>
		</defs>
		<clipPath id="SVGID_6_">
			<use xlink:href="#SVGID_10_"  overflow="visible"/>
		</clipPath>
	</g>
	<g>
		<defs>
			<rect id="SVGID_17_" x="-9.5" y="17.8" width="147.9" height="62.2"/>
		</defs>
		<clipPath id="SVGID_8_">
			<use xlink:href="#SVGID_17_"  overflow="visible"/>
		</clipPath>
	</g>
	<g>
		<defs>
			<rect id="SVGID_24_" x="-9.5" y="17.8" width="147.9" height="62.2"/>
		</defs>
		<clipPath id="SVGID_9_">
			<use xlink:href="#SVGID_24_"  overflow="visible"/>
		</clipPath>
	</g>
	<g>
		<defs>
			<rect id="SVGID_31_" x="-9.5" y="17.8" width="147.9" height="62.2"/>
		</defs>
		<clipPath id="SVGID_11_">
			<use xlink:href="#SVGID_31_"  overflow="visible"/>
		</clipPath>
	</g>
	<g>
		<defs>
			<rect id="SVGID_38_" x="-9.5" y="17.8" width="147.9" height="62.2"/>
		</defs>
		<clipPath id="SVGID_13_">
			<use xlink:href="#SVGID_38_"  overflow="visible"/>
		</clipPath>
	</g>
	<g>
		<defs>
			<rect id="SVGID_45_" x="-9.5" y="17.8" width="147.9" height="62.2"/>
		</defs>
		<clipPath id="SVGID_15_">
			<use xlink:href="#SVGID_45_"  overflow="visible"/>
		</clipPath>
	</g>
	<g>
		<defs>
			<rect id="SVGID_52_" x="-9.5" y="17.8" width="147.9" height="62.2"/>
		</defs>
		<clipPath id="SVGID_16_">
			<use xlink:href="#SVGID_52_"  overflow="visible"/>
		</clipPath>
	</g>
	<g>
		<defs>
			<rect id="SVGID_59_" x="-9.5" y="17.8" width="147.9" height="62.2"/>
		</defs>
		<clipPath id="SVGID_18_">
			<use xlink:href="#SVGID_59_"  overflow="visible"/>
		</clipPath>
	</g>
	<g>
		<defs>
			<rect id="SVGID_66_" x="-9.5" y="17.8" width="147.9" height="62.2"/>
		</defs>
		<clipPath id="SVGID_20_">
			<use xlink:href="#SVGID_66_"  overflow="visible"/>
		</clipPath>
	</g>
	<g>
		<defs>
			<rect id="SVGID_73_" x="-9.5" y="17.8" width="147.9" height="62.2"/>
		</defs>
		<clipPath id="SVGID_22_">
			<use xlink:href="#SVGID_73_"  overflow="visible"/>
		</clipPath>
	</g>
	<g>
		<defs>
			<rect id="SVGID_80_" x="-9.5" y="17.8" width="147.9" height="62.2"/>
		</defs>
		<clipPath id="SVGID_23_">
			<use xlink:href="#SVGID_80_"  overflow="visible"/>
		</clipPath>
	</g>
	<g>
		<defs>
			<rect id="SVGID_87_" x="-9.5" y="17.8" width="147.9" height="62.2"/>
		</defs>
		<clipPath id="SVGID_25_">
			<use xlink:href="#SVGID_87_"  overflow="visible"/>
		</clipPath>
	</g>
	<g>
		<defs>
			<rect id="SVGID_94_" x="-9.5" y="17.8" width="147.9" height="62.2"/>
		</defs>
		<clipPath id="SVGID_27_">
			<use xlink:href="#SVGID_94_"  overflow="visible"/>
		</clipPath>
	</g>
	<g>
		<defs>
			<rect id="SVGID_101_" x="-9.5" y="17.8" width="147.9" height="62.2"/>
		</defs>
		<clipPath id="SVGID_29_">
			<use xlink:href="#SVGID_101_"  overflow="visible"/>
		</clipPath>
	</g>
	<g>
		<defs>
			<rect id="SVGID_108_" x="-9.5" y="17.8" width="147.9" height="62.2"/>
		</defs>
		<clipPath id="SVGID_30_">
			<use xlink:href="#SVGID_108_"  overflow="visible"/>
		</clipPath>
	</g>
	<g>
		<defs>
			<rect id="SVGID_115_" x="-9.5" y="17.8" width="147.9" height="62.2"/>
		</defs>
		<clipPath id="SVGID_32_">
			<use xlink:href="#SVGID_115_"  overflow="visible"/>
		</clipPath>
	</g>
	<g>
		<defs>
			<rect id="SVGID_122_" x="-9.5" y="17.8" width="147.9" height="62.2"/>
		</defs>
		<clipPath id="SVGID_34_">
			<use xlink:href="#SVGID_122_"  overflow="visible"/>
		</clipPath>
	</g>
	<g>
		<defs>
			<rect id="SVGID_129_" x="-9.5" y="17.8" width="147.9" height="62.2"/>
		</defs>
		<clipPath id="SVGID_36_">
			<use xlink:href="#SVGID_129_"  overflow="visible"/>
		</clipPath>
	</g>
	<g>
		<defs>
			<rect id="SVGID_136_" x="-9.5" y="17.8" width="147.9" height="62.2"/>
		</defs>
		<clipPath id="SVGID_37_">
			<use xlink:href="#SVGID_136_"  overflow="visible"/>
		</clipPath>
	</g>
	<g>
		<defs>
			<rect id="SVGID_143_" x="-9.5" y="17.8" width="147.9" height="62.2"/>
		</defs>
		<clipPath id="SVGID_39_">
			<use xlink:href="#SVGID_143_"  overflow="visible"/>
		</clipPath>
	</g>
	<g>
		<defs>
			<rect id="SVGID_150_" x="-9.5" y="17.8" width="147.9" height="62.2"/>
		</defs>
		<clipPath id="SVGID_41_">
			<use xlink:href="#SVGID_150_"  overflow="visible"/>
		</clipPath>
	</g>
	<g>
		<defs>
			<rect id="SVGID_157_" x="-9.5" y="17.8" width="147.9" height="62.2"/>
		</defs>
		<clipPath id="SVGID_43_">
			<use xlink:href="#SVGID_157_"  overflow="visible"/>
		</clipPath>
	</g>
	<g>
		<defs>
			<rect id="SVGID_164_" x="-9.5" y="17.8" width="147.9" height="62.2"/>
		</defs>
		<clipPath id="SVGID_44_">
			<use xlink:href="#SVGID_164_"  overflow="visible"/>
		</clipPath>
	</g>
	<g>
		<defs>
			<rect id="SVGID_171_" x="-9.5" y="17.8" width="147.9" height="62.2"/>
		</defs>
		<clipPath id="SVGID_46_">
			<use xlink:href="#SVGID_171_"  overflow="visible"/>
		</clipPath>
	</g>
	<g>
		<defs>
			<rect id="SVGID_173_" x="-9.5" y="17.8" width="147.9" height="62.2"/>
		</defs>
		<clipPath id="SVGID_48_">
			<use xlink:href="#SVGID_173_"  overflow="visible"/>
		</clipPath>
	</g>
	<g>
		<defs>
			<rect id="SVGID_180_" x="-9.5" y="17.8" width="147.9" height="62.2"/>
		</defs>
		<clipPath id="SVGID_50_">
			<use xlink:href="#SVGID_180_"  overflow="visible"/>
		</clipPath>
	</g>
	<g>
		<defs>
			<rect id="SVGID_187_" x="-9.5" y="17.8" width="147.9" height="62.2"/>
		</defs>
		<clipPath id="SVGID_51_">
			<use xlink:href="#SVGID_187_"  overflow="visible"/>
		</clipPath>
	</g>
	<g>
		<defs>
			<rect id="SVGID_194_" x="-9.5" y="17.8" width="147.9" height="62.2"/>
		</defs>
		<clipPath id="SVGID_53_">
			<use xlink:href="#SVGID_194_"  overflow="visible"/>
		</clipPath>
	</g>
	<g>
		<defs>
			<rect id="SVGID_201_" x="-9.5" y="17.8" width="147.9" height="62.2"/>
		</defs>
		<clipPath id="SVGID_55_">
			<use xlink:href="#SVGID_201_"  overflow="visible"/>
		</clipPath>
	</g>
	<g>
		<defs>
			<rect id="SVGID_208_" x="-8.2" y="17.8" width="147.9" height="62.2"/>
		</defs>
		<clipPath id="SVGID_57_">
			<use xlink:href="#SVGID_208_"  overflow="visible"/>
		</clipPath>
		<path clip-path="url(#SVGID_57_)" fill="#E41E2B" d="M62,60.1c-2.8-2-6.3-2.9-9.5-2.8c-3.2,0.1-4.6,2.5-4.6,2.5
			c-1.4-2.5-4.3-4-8.7-4c-7.1,0.1-14.1,3.4-19.7,3.4c-5.3,0-9.2-3.4-9.1-9.3c0.2-10.5,9.1-19.9,15.7-24.1c3.8-2.4,7-3.2,9.1-2.9
			c1.5,0.2,3.3,1.9,2.2,4.5c-1.7,3.8-4,3.5-3.9,1.7c0-1.2,0.8-1.9,1.4-2.3c0.4-0.3,1-0.3,1.4-0.3c0.3-0.3,0.6-2.3-2.1-1.7
			c-2.7,0.7-6,3.4-9.1,6.8c-3.1,3.4-8,10-9.2,16.8c-0.6,3.2-0.2,9,7.3,8.9c6.4-0.1,15.8-4.3,24.4-4.2c3.4,0,6.3,0.9,8.6,2.3
			C58.4,56.7,61.1,58.7,62,60.1 M64.1,41.1h1.3c0,0-6.5,9.5-10.2,9c-2.1-0.2-1.5-2.8-1.5-2.8s-2.9,3.4-5.6,2.7
			c-2.4-0.6-0.9-4.6-0.9-4.6c-0.3,0.1-5.5,6-9.2,4.6c-3.8-1.5-1.9-6.4-1.1-7.9c0.6-1.3,1.3-2.5,1.3-2.5s-0.6,0.2-1,0.3
			c-0.4,0.1-0.9,0.2-0.9,0.2s-1.8,3-2.9,4.4c-1.1,1.5-5.8,6.6-8.6,5.5c-2.8-1-2.1-4.9-0.5-8c2.5-5,8.6-11.2,12.2-10.3
			c3.7,0.9,0.6,6.9,0.6,6.9s0.7,0.1,2.5-1.1c2.5-1.7,5.8-6.3,9.4-5.8c1.7,0.3,3.3,2,1.1,5.3c-0.7,1.1-1.8,2-2.7,1.1
			c-0.5-0.6-0.1-1.6,0.5-2.4c0.8-1,1.9-0.9,1.9-0.9s0.6-1.4-0.9-1.3c-1.2,0-4.3,2.9-6.1,5.8c-1.6,2.6-4,7.1-1.6,8.1
			c2.2,0.9,6.5-4.1,8.5-6.8c2-2.6,6.4-8.6,10.2-8.9c1.3-0.1,2.1,1.1,2.1,1.1l0.4-0.7h3.8c0,0-7.1,11.8-7.6,12.7
			c-0.4,0.7-1,2.3,0.6,1.4C60.7,45.4,64.1,41.1,64.1,41.1 M34.9,39.9c-0.1,0-1-0.3-1.9-0.9c-0.9-0.6-1.4-1.5-1.4-1.5
			c0-0.1-0.1,0-0.1,0c0,0.1-0.2,0.3-1.6,2.3c-1.3,2-3.3,6-1.5,6.7c1.2,0.4,3.2-1.7,4.3-3c1-1.3,2.2-3.3,2.3-3.4
			C35,40,35,40,34.9,39.9 M36.4,33.7c-1-0.7-3.5,1-3.5,2.8c0,1.8,2.3,2.3,2.6,2.4c0,0,0.3,0.1,0.4-0.1c0.1-0.1,0.4-0.7,0.7-1.6
			C36.9,36.1,37.3,34.4,36.4,33.7 M55.6,43.5c1.5-2.1,5.7-9.4,5.7-9.4s-0.1-0.5-0.6-0.5c-0.6,0-1.5,0.2-3.5,2.6
			c-1.9,2.4-3.4,4.3-4.5,6.3c-1.2,2.2-1.7,3.7-1,4.1c0.2,0.1,0.5,0.1,0.7,0.1c0.4-0.1,1-0.6,1.8-1.5C54.6,44.8,55.1,44.2,55.6,43.5
			 M72.5,32.2h-3.6l-2,3.3h3.6L72.5,32.2z M119.4,56.8c-0.3,0-0.5,0.1-0.7,0.3c-0.2,0.2-0.3,0.5-0.3,0.7c0,0.3,0.1,0.5,0.3,0.8
			c0.2,0.2,0.5,0.3,0.7,0.3c0.3,0,0.5-0.1,0.7-0.3c0.2-0.2,0.3-0.5,0.3-0.8c0-0.3-0.1-0.5-0.3-0.7C119.9,56.9,119.6,56.8,119.4,56.8
			 M120.6,57.9c0,0.3-0.1,0.6-0.4,0.9c-0.2,0.2-0.5,0.4-0.9,0.4c-0.3,0-0.6-0.1-0.9-0.4c-0.2-0.2-0.4-0.5-0.4-0.9
			c0-0.3,0.1-0.6,0.4-0.9c0.2-0.2,0.5-0.4,0.9-0.4c0.3,0,0.6,0.1,0.9,0.4C120.5,57.3,120.6,57.5,120.6,57.9 M119.7,57.6
			c0-0.1,0-0.2-0.1-0.2c-0.1,0-0.2-0.1-0.3-0.1h-0.2v0.5h0.2c0.1,0,0.2,0,0.2,0C119.6,57.8,119.7,57.7,119.7,57.6 M118.9,57.2h0.5
			c0.2,0,0.3,0,0.4,0c0.1,0.1,0.2,0.2,0.2,0.3c0,0.1,0,0.2-0.1,0.3c0,0-0.1,0.1-0.2,0.1c0.1,0,0.2,0.1,0.2,0.1
			c0,0.1,0.1,0.1,0.1,0.2v0.1c0,0,0,0.1,0,0.1c0,0,0,0.1,0,0.1l0,0h-0.2c0,0,0,0,0,0c0,0,0,0,0,0l0,0v-0.1c0-0.2,0-0.3-0.1-0.3
			c-0.1,0-0.1,0-0.3,0h-0.2v0.5h-0.2V57.2z M125.1,26.4c-2.6,1.7-6.3,3.2-9.8,2.9c-0.9,0.9-1.8,2-2.8,3.1c6.1,1.2,11.4-2.6,14.3-5.8
			c1.8-2,2.6-3.8,2.6-3.8S127.7,24.7,125.1,26.4 M114.7,54c-0.5,0.8-1.1,2.4,0.6,1.4c2-1.2,4.9-5.6,4.9-5.6h1.3c0,0-1.7,2.7-4,5.2
			c-2.1,2.3-4.6,4.4-6.3,4.2c-2.1-0.2-1.4-3-1.4-3s-3,3.1-5,2.9c-2.8-0.3-1.9-3.7-1.9-3.7s-3.1,3.8-5.2,3.7
			c-3.3-0.2-2.5-4.3-1.6-7.1c0.5-1.5,1-2.7,1-2.7s-0.3,0.1-1,0.2c-0.4,0.1-1.1,0.1-1.1,0.1s-1.4,2.5-2.5,3.9
			c-1.1,1.5-5.8,6.6-8.6,5.5c-2.6-0.9-1.7-4.9-0.2-8c2.2-4.6,8.3-11.1,11.9-10.3c3.7,0.9,0.1,7.6,0.1,7.6s0,0,0,0c0.1,0,0.3,0,0.7,0
			c0.7-0.1,1.3-0.4,1.3-0.4s3.7-7.7,7.8-12.8s12.2-13.8,15.4-11.7c0.8,0.5,0.4,2.3-0.6,4.5c-0.5,0.1-0.9,0.3-1.4,0.4
			c0.7-1.3,1.2-2.4,1.3-3.1c0.5-2.6-5.6,2.9-10,8.8c-4.4,5.9-7,11.3-7,11.3s0.9-0.5,2.2-1.6c1.4-1.2,3.4-3,5.5-5.2
			c1.4-1.5,3.1-3.4,4.7-5.4c0.5,0,0.9-0.1,1.4-0.1c-1.8,2.4-3.6,4.6-5.2,6.2c-1.7,1.8-3.6,3.7-5.3,5c-2.6,2.2-4.6,3.4-4.6,3.4
			s-3.8,7.7-1.7,8.2c1.2,0.3,3.6-3.4,3.6-3.4s3.1-4.8,5-7c2.6-2.9,4.8-4.6,7-4.7c1.3,0,2.1,1.4,2.1,1.4l0.6-0.9h3.8
			C122.3,41.2,115.3,53.1,114.7,54 M93.6,49.4c-0.1,0-0.9-0.4-1.7-1.1c-0.8-0.7-1.3-1.5-1.3-1.6c0-0.1-0.1,0-0.1,0
			c0,0.1-0.2,0.2-1.5,2.2c-1.3,2-3.4,6-1.5,6.7c1.2,0.4,3.2-1.6,4.3-3c1-1.3,1.9-2.9,2-3C93.7,49.4,93.7,49.4,93.6,49.4 M95.5,46
			c0.3-0.9,0.8-2.7-0.1-3.4c-1-0.7-3.5,1-3.5,2.8c0,1.8,1.8,2.7,2.2,2.8c0.2,0.1,0.3,0.1,0.4-0.1C94.6,47.9,95.1,46.9,95.5,46
			 M117,43.5c0.1-0.1,0.1-0.3,0.1-0.3s-0.1-0.5-0.6-0.5c-0.6,0-1.4,0.1-3.4,2.4c-2.1,2.3-3.3,4.3-4.4,6.3c-1.2,2.2-1.7,3.8-1,4.2
			c0.2,0.1,0.5,0.1,0.7,0.1c0.5-0.1,1-0.5,1.8-1.5c0.4-0.4,0.8-1,1.3-1.7C112.9,50.6,116.4,44.7,117,43.5 M125.1,26.4
			c-2.6,1.7-6.3,3.2-9.8,2.9c-0.9,0.9-1.8,2-2.8,3.1c6.1,1.2,11.4-2.6,14.3-5.8c1.8-2,2.6-3.8,2.6-3.8S127.7,24.7,125.1,26.4
			 M108,30.8c-2.9-1.5-5-3.3-7.2-4.4c-2.1-1.1-3.4-1.5-5.1-1.3c-0.3,0-0.7,0.2-0.7,0.2s0.9,3-2.6,8c-3.5,5.1-6.7,5-7.6,3.6
			c-0.9-1.5,0.3-4.5,2.3-7.1c2.1-2.8,5.9-5.1,5.9-5.1s-1.2-0.7-4.1,0.9c-2.9,1.6-7.8,5.5-12.4,12c-4.6,6.5-5.5,10.1-6.2,12.9
			c-0.7,2.8-0.1,5.8,3.1,5.8c3.1,0,6.8-4.8,7.8-6.4c1.9-3.1,3.2-7.8,0.6-7.2c-1.3,0.3-2.3,1.7-3,3.1c-0.7,1.4-0.9,2.7-0.9,2.7
			s-1.1,0.4-2.5,1.5c-1.5,1.1-2.4,2.1-2.4,2.1s0-2.3,1.8-5.9c1.8-3.7,5.1-5.3,7-5.5c1.7-0.1,3.9,1.3,2,6.6
			c-1.9,5.3-7.3,11.7-13.1,11.8c-5.3,0.1-8.8-6.7-1.4-18.6C77.4,27.5,87,23.5,90.2,23c3.1-0.4,4.1,0.9,4.1,0.9s2.6-1.2,5.9-1
			c3.8,0.3,6.8,3,10.6,4.8C109.8,28.8,108.9,29.8,108,30.8 M93.8,25.6c0,0-2.2,0.9-4.8,3.7c-2.6,2.9-4.1,6.1-3,6.9
			c0.4,0.3,1.4,0.4,3.2-1.2c1.4-1.3,2.8-2.9,3.8-5.3C94.2,27,93.8,25.7,93.8,25.6"/>
	</g>
	<g>
		<defs>
			<rect id="SVGID_220_" x="-9.5" y="17.8" width="147.9" height="62.2"/>
		</defs>
		<clipPath id="SVGID_58_">
			<use xlink:href="#SVGID_220_"  overflow="visible"/>
		</clipPath>
	</g>
	<g>
		<defs>
			<rect id="SVGID_227_" x="-9.5" y="17.8" width="147.9" height="62.2"/>
		</defs>
		<clipPath id="SVGID_60_">
			<use xlink:href="#SVGID_227_"  overflow="visible"/>
		</clipPath>
	</g>
	<g>
		<defs>
			<rect id="SVGID_237_" x="-9.5" y="17.8" width="147.9" height="62.2"/>
		</defs>
		<clipPath id="SVGID_62_">
			<use xlink:href="#SVGID_237_"  overflow="visible"/>
		</clipPath>
	</g>
	<g>
		<defs>
			<rect id="SVGID_303_" x="-9.5" y="17.8" width="147.9" height="62.2"/>
		</defs>
		<clipPath id="SVGID_64_">
			<use xlink:href="#SVGID_303_"  overflow="visible"/>
		</clipPath>
	</g>
	<g>
		<defs>
			<rect id="SVGID_307_" x="-9.5" y="17.8" width="147.9" height="62.2"/>
		</defs>
		<clipPath id="SVGID_65_">
			<use xlink:href="#SVGID_307_"  overflow="visible"/>
		</clipPath>
	</g>
	<g>
		<defs>
			<rect id="SVGID_315_" x="-9.5" y="17.8" width="147.9" height="62.2"/>
		</defs>
		<clipPath id="SVGID_67_">
			<use xlink:href="#SVGID_315_"  overflow="visible"/>
		</clipPath>
	</g>
	<g>
		<defs>
			<rect id="SVGID_323_" x="-9.5" y="17.8" width="147.9" height="62.2"/>
		</defs>
		<clipPath id="SVGID_69_">
			<use xlink:href="#SVGID_323_"  overflow="visible"/>
		</clipPath>
	</g>
	<g>
		<defs>
			<rect id="SVGID_331_" x="-9.5" y="17.8" width="147.9" height="62.2"/>
		</defs>
		<clipPath id="SVGID_71_">
			<use xlink:href="#SVGID_331_"  overflow="visible"/>
		</clipPath>
	</g>
	<g>
		<defs>
			<rect id="SVGID_339_" x="-9.5" y="17.8" width="147.9" height="62.2"/>
		</defs>
		<clipPath id="SVGID_72_">
			<use xlink:href="#SVGID_339_"  overflow="visible"/>
		</clipPath>
	</g>
	<g>
		<defs>
			<rect id="SVGID_347_" x="-9.5" y="17.8" width="147.9" height="62.2"/>
		</defs>
		<clipPath id="SVGID_74_">
			<use xlink:href="#SVGID_347_"  overflow="visible"/>
		</clipPath>
	</g>
	<g>
		<defs>
			<rect id="SVGID_355_" x="-9.5" y="17.8" width="147.9" height="62.2"/>
		</defs>
		<clipPath id="SVGID_76_">
			<use xlink:href="#SVGID_355_"  overflow="visible"/>
		</clipPath>
	</g>
	<g>
		<defs>
			<rect id="SVGID_363_" x="-9.5" y="17.8" width="147.9" height="62.2"/>
		</defs>
		<clipPath id="SVGID_78_">
			<use xlink:href="#SVGID_363_"  overflow="visible"/>
		</clipPath>
	</g>
	<g>
		<defs>
			<rect id="SVGID_371_" x="-9.5" y="17.8" width="147.9" height="62.2"/>
		</defs>
		<clipPath id="SVGID_79_">
			<use xlink:href="#SVGID_371_"  overflow="visible"/>
		</clipPath>
	</g>
	<g>
		<defs>
			<rect id="SVGID_379_" x="-9.5" y="17.8" width="147.9" height="62.2"/>
		</defs>
		<clipPath id="SVGID_81_">
			<use xlink:href="#SVGID_379_"  overflow="visible"/>
		</clipPath>
	</g>
	<g>
		<defs>
			<rect id="SVGID_387_" x="-9.5" y="17.8" width="147.9" height="62.2"/>
		</defs>
		<clipPath id="SVGID_83_">
			<use xlink:href="#SVGID_387_"  overflow="visible"/>
		</clipPath>
	</g>
	<g>
		<defs>
			<rect id="SVGID_395_" x="-9.5" y="17.8" width="147.9" height="62.2"/>
		</defs>
		<clipPath id="SVGID_85_">
			<use xlink:href="#SVGID_395_"  overflow="visible"/>
		</clipPath>
	</g>
	<g>
		<defs>
			<rect id="SVGID_403_" x="-9.5" y="17.8" width="147.9" height="62.2"/>
		</defs>
		<clipPath id="SVGID_86_">
			<use xlink:href="#SVGID_403_"  overflow="visible"/>
		</clipPath>
	</g>
	<g>
		<defs>
			<rect id="SVGID_411_" x="-9.5" y="17.8" width="147.9" height="62.2"/>
		</defs>
		<clipPath id="SVGID_88_">
			<use xlink:href="#SVGID_411_"  overflow="visible"/>
		</clipPath>
	</g>
	<g>
		<defs>
			<rect id="SVGID_419_" x="-9.5" y="17.8" width="147.9" height="62.2"/>
		</defs>
		<clipPath id="SVGID_90_">
			<use xlink:href="#SVGID_419_"  overflow="visible"/>
		</clipPath>
	</g>
	<g>
		<defs>
			<rect id="SVGID_634_" x="373.8" y="133.9" width="52.2" height="72.9"/>
		</defs>
		<clipPath id="SVGID_92_">
			<use xlink:href="#SVGID_634_"  overflow="visible"/>
		</clipPath>
		<path clip-path="url(#SVGID_92_)" fill="#E41E2B" d="M159.8,98.2c-3.9-2.7-8.7-4-13-3.8c-4.4,0.2-6.3,3.4-6.3,3.4
			c-2-3.4-5.9-5.5-11.9-5.5c-9.7,0.1-19.4,4.6-27,4.6c-7.3,0-12.7-4.6-12.5-12.8c0.3-14.3,12.4-27.3,21.5-33.1
			c5.2-3.3,9.6-4.3,12.4-4c2.1,0.2,4.6,2.6,3,6.2c-2.3,5.2-5.5,4.8-5.4,2.3c0.1-1.6,1.1-2.6,1.9-3.2c0.5-0.4,1.4-0.5,1.9-0.5
			c0.5-0.4,0.8-3.2-2.9-2.3c-3.7,0.9-8.2,4.6-12.5,9.3C104.7,63.7,98,72.6,96.4,82c-0.8,4.4-0.3,12.3,10.1,12.2
			c8.7-0.1,21.7-5.8,33.5-5.7c4.6,0,8.6,1.3,11.7,3.2C154.8,93.6,158.5,96.3,159.8,98.2 M162.6,72.2h1.8c0,0-9,13-14.1,12.4
			c-2.8-0.3-2-3.8-2-3.8s-4,4.7-7.6,3.7c-3.3-0.8-1.2-6.4-1.2-6.4c-0.4,0.2-7.6,8.2-12.6,6.3c-5.3-2-2.5-8.8-1.5-10.8
			c0.8-1.7,1.8-3.4,1.8-3.4s-0.8,0.2-1.3,0.3c-0.5,0.1-1.3,0.3-1.3,0.3s-2.5,4.1-4,6.1c-1.5,2-8,9-11.8,7.6c-3.8-1.4-2.9-6.7-0.7-11
			c3.5-6.9,11.7-15.4,16.7-14.1c5,1.3,0.9,9.4,0.9,9.4s1,0.1,3.4-1.5c3.5-2.4,8-8.7,12.9-7.9c2.3,0.3,4.5,2.7,1.5,7.2
			c-0.9,1.4-2.5,2.7-3.7,1.5c-0.8-0.8-0.1-2.2,0.7-3.2c1.1-1.4,2.7-1.2,2.7-1.2s0.8-1.9-1.3-1.8c-1.7,0-5.9,3.9-8.3,7.9
			c-2.2,3.6-5.5,9.8-2.2,11.2c3.1,1.2,8.9-5.7,11.6-9.3c2.7-3.6,8.8-11.9,14-12.2c1.8-0.1,2.8,1.5,2.8,1.5l0.6-0.9h5.2
			c0,0-9.7,16.2-10.5,17.5c-0.6,1-1.4,3.1,0.8,1.9C158,78.1,162.6,72.2,162.6,72.2 M122.6,70.6c-0.1,0-1.4-0.4-2.7-1.2
			c-1.3-0.8-1.9-2-1.9-2.1c0-0.1-0.1,0-0.1,0.1c-0.1,0.1-0.3,0.4-2.2,3.1c-1.8,2.7-4.6,8.2-2,9.2c1.6,0.6,4.4-2.3,5.9-4.2
			c1.4-1.8,3-4.5,3.1-4.6C122.7,70.6,122.6,70.6,122.6,70.6 M124.6,61.9c-1.4-1-4.8,1.4-4.8,3.8c0,2.5,3.1,3.2,3.5,3.2
			c0,0,0.4,0.1,0.5-0.2c0.1-0.2,0.5-1,1-2.2C125.2,65.3,125.9,62.9,124.6,61.9 M150.9,75.5c2.1-2.9,7.8-12.9,7.8-12.9
			s-0.1-0.7-0.8-0.7c-0.8,0-2.1,0.2-4.8,3.5c-2.6,3.3-4.7,5.9-6.2,8.7c-1.6,3-2.3,5.1-1.4,5.7c0.3,0.2,0.7,0.2,1,0.1
			c0.6-0.2,1.4-0.8,2.5-2C149.6,77.2,150.2,76.4,150.9,75.5 M174,60h-4.9l-2.8,4.5h4.9L174,60z M238.4,93.7c-0.4,0-0.7,0.1-1,0.4
			c-0.3,0.3-0.4,0.6-0.4,1c0,0.4,0.1,0.7,0.4,1c0.3,0.3,0.6,0.4,1,0.4c0.4,0,0.7-0.1,1-0.4c0.3-0.3,0.4-0.6,0.4-1
			c0-0.4-0.1-0.7-0.4-1C239.1,93.9,238.8,93.7,238.4,93.7 M240.1,95.2c0,0.5-0.2,0.9-0.5,1.2c-0.3,0.3-0.7,0.5-1.2,0.5
			c-0.5,0-0.9-0.2-1.2-0.5c-0.3-0.3-0.5-0.7-0.5-1.2c0-0.5,0.2-0.9,0.5-1.2c0.3-0.3,0.7-0.5,1.2-0.5c0.5,0,0.9,0.2,1.2,0.5
			C239.9,94.3,240.1,94.7,240.1,95.2 M238.8,94.8c0-0.1,0-0.2-0.1-0.3c-0.1,0-0.2-0.1-0.4-0.1H238v0.7h0.3c0.1,0,0.2,0,0.3,0
			C238.8,95,238.8,94.9,238.8,94.8 M237.7,94.2h0.6c0.2,0,0.4,0,0.5,0.1c0.2,0.1,0.3,0.2,0.3,0.5c0,0.2-0.1,0.3-0.2,0.4
			c-0.1,0-0.2,0.1-0.3,0.1c0.1,0,0.3,0.1,0.3,0.2c0.1,0.1,0.1,0.2,0.1,0.3v0.1c0,0,0,0.1,0,0.1c0,0.1,0,0.1,0,0.1l0,0h-0.3
			c0,0,0,0,0,0c0,0,0,0,0,0l0-0.1v-0.1c0-0.2-0.1-0.4-0.2-0.4c-0.1,0-0.2-0.1-0.4-0.1H238v0.7h-0.3V94.2z M246.3,51.9
			c-3.6,2.3-8.6,4.4-13.5,4c-1.2,1.3-2.5,2.7-3.8,4.3c8.4,1.6,15.7-3.5,19.6-7.9c2.4-2.8,3.6-5.2,3.6-5.2S249.9,49.6,246.3,51.9
			 M232,89.9c-0.7,1.1-1.5,3.2,0.8,1.9c2.8-1.6,6.8-7.6,6.8-7.6h1.8c0,0-2.4,3.7-5.5,7.2c-2.8,3.1-6.3,6-8.7,5.7
			c-2.8-0.3-1.9-4.1-1.9-4.1s-4.1,4.3-6.9,4c-3.8-0.4-2.6-5.1-2.6-5.1s-4.3,5.3-7.2,5.1c-4.6-0.3-3.4-5.9-2.2-9.8
			c0.7-2.1,1.3-3.7,1.3-3.7s-0.5,0.1-1.4,0.3c-0.5,0.1-1.4,0.1-1.4,0.1s-1.9,3.4-3.4,5.4c-1.5,2-8,9-11.8,7.6
			c-3.5-1.3-2.4-6.7-0.3-11c3-6.3,11.4-15.3,16.3-14.1c5,1.2,0.1,10.4,0.1,10.4s0,0,0.1,0.1c0.1,0,0.4,0.1,1-0.1
			c1-0.2,1.8-0.6,1.8-0.6s5.1-10.6,10.7-17.6c5.6-6.9,16.8-18.9,21.1-16c1.1,0.7,0.6,3.2-0.9,6.1c-0.6,0.2-1.3,0.4-2,0.5
			c1-1.8,1.6-3.2,1.8-4.3c0.7-3.6-7.7,4-13.7,12.1c-6,8.1-9.6,15.5-9.6,15.5s1.2-0.7,3.1-2.2c2-1.6,4.7-4.1,7.6-7.1
			c2-2,4.3-4.6,6.5-7.5c0.6,0,1.3-0.1,1.9-0.2c-2.4,3.3-5,6.2-7.1,8.4c-2.4,2.4-5,5-7.2,6.9c-3.6,3-6.3,4.7-6.3,4.7
			s-5.2,10.5-2.4,11.2c1.7,0.4,5-4.7,5-4.7s4.3-6.6,6.9-9.5c3.5-4,6.6-6.4,9.6-6.4c1.8,0,2.8,1.9,2.8,1.9l0.8-1.3h5.2
			C242.4,72.3,232.8,88.7,232,89.9 M203,83.5c-0.1,0-1.2-0.5-2.4-1.5c-1.2-1-1.7-2.1-1.8-2.2c0-0.1-0.1,0-0.1,0.1
			c-0.1,0.1-0.3,0.3-2.1,3c-1.8,2.7-4.7,8.3-2.1,9.2c1.6,0.6,4.4-2.3,5.8-4.2c1.4-1.8,2.7-4,2.7-4.2C203.2,83.5,203.1,83.5,203,83.5
			 M205.6,78.9c0.5-1.2,1.1-3.7-0.2-4.6c-1.3-1-4.8,1.4-4.8,3.8c0,2.5,2.4,3.6,3,3.8c0.3,0.1,0.5,0.1,0.6-0.2
			C204.4,81.5,205.2,80.2,205.6,78.9 M235.2,75.5c0.1-0.2,0.2-0.3,0.2-0.3s-0.1-0.7-0.8-0.7c-0.8,0-1.9,0.1-4.7,3.3
			c-2.8,3.1-4.6,5.9-6,8.6c-1.6,3-2.3,5.2-1.4,5.8c0.3,0.2,0.7,0.2,1,0.1c0.6-0.2,1.4-0.7,2.5-2c0.5-0.6,1.1-1.4,1.8-2.4
			C229.5,85.2,234.3,77.1,235.2,75.5 M246.3,51.9c-3.6,2.3-8.6,4.4-13.5,4c-1.2,1.3-2.5,2.7-3.8,4.3c8.4,1.6,15.7-3.5,19.6-7.9
			c2.4-2.8,3.6-5.2,3.6-5.2S249.9,49.6,246.3,51.9 M222.8,58c-4-2-6.8-4.5-9.8-6c-2.9-1.5-4.7-2.1-7-1.8c-0.4,0.1-1,0.2-1,0.2
			s1.2,4.1-3.6,10.9c-4.8,6.9-9.2,6.9-10.4,5c-1.3-2,0.4-6.1,3.2-9.8c2.9-3.8,8.1-7,8.1-7s-1.6-1-5.7,1.3c-3.9,2.2-10.7,7.5-17,16.5
			c-6.3,9-7.5,13.9-8.4,17.8c-0.9,3.9-0.1,8,4.2,8c4.3,0,9.3-6.6,10.7-8.8c2.6-4.2,4.3-10.8,0.8-9.9c-1.8,0.4-3.2,2.4-4.1,4.3
			c-0.9,1.9-1.3,3.8-1.3,3.8s-1.5,0.5-3.5,2c-2,1.5-3.3,2.9-3.3,2.9s0-3.1,2.5-8.1c2.5-5,7-7.3,9.6-7.5c2.3-0.2,5.3,1.8,2.8,9
			c-2.5,7.3-10.1,16.1-18,16.2c-7.3,0.1-12.1-9.2-1.9-25.5c11.2-18,24.4-23.5,28.7-24.1c4.3-0.6,5.7,1.3,5.7,1.3s3.6-1.7,8.1-1.4
			c5.2,0.4,9.3,4.1,14.6,6.6C225.4,55.3,224,56.7,222.8,58 M203.4,50.9c0,0-3.1,1.2-6.6,5.1c-3.6,3.9-5.6,8.3-4.1,9.5
			c0.6,0.4,1.9,0.5,4.4-1.7c1.9-1.7,3.9-4,5.2-7.2C203.9,52.8,203.4,51,203.4,50.9"/>
	</g>
	<g>
		<defs>
			<rect id="SVGID_636_" x="373.8" y="133.9" width="52.2" height="72.9"/>
		</defs>
		<clipPath id="SVGID_93_">
			<use xlink:href="#SVGID_636_"  overflow="visible"/>
		</clipPath>
	</g>
	<g>
		<g>
			<defs>
				<rect id="SVGID_1135_" x="176" y="153.1" width="119.4" height="34.4"/>
			</defs>
			<clipPath id="SVGID_95_">
				<use xlink:href="#SVGID_1135_"  overflow="visible"/>
			</clipPath>
			<path clip-path="url(#SVGID_95_)" fill="#FFFFFF" d="M45.5,43.8h-6.6L38,46.6h1l-3.3,5.2l-0.5-8h-6.7l-0.8,2.8l1,0l-4.4,6.7
				l-3.6,0c-0.4,0-1.8-0.4-1.8-2.2c0-1.8,1.7-4.5,3.5-4.5l0.7,0c-0.1,0.4-0.4,1.4-0.4,1.4H26l1.2-4.2l-5,0c-3.1,0-5.6,2.2-6.4,4.5
				l1.3-4.5l-4.4,0l-0.8,2.8l1.1,0l-1.2,4.1L9,43.8H4.9l-0.8,2.8h1.1l-2.6,9.4H6c0,0,1.3-4.6,1.6-5.8C8,51.2,10,55.9,10,55.9l3.7,0
				l1.7-5.9c-0.1,0.9-0.2,1.8,0,2.7c0.3,1.9,2.2,3.2,4.3,3.2h6.7l1.2-1.7h4.7l0.1,1.7h4.2l1.1-1.7h4.8l0.2,1.7h3l0.7-1.3L45.5,43.8z
				"/>
			<path clip-path="url(#SVGID_95_)" fill="#0079C1" d="M46.2,58.1c0-0.9,0.7-1.6,1.6-1.6c0.9,0,1.6,0.7,1.6,1.6
				c0,0.9-0.7,1.6-1.6,1.6C46.9,59.7,46.2,59,46.2,58.1 M47.8,60.1c1.1,0,2-0.8,2-2c0-1.1-0.9-2-2-2c-1.1,0-2,0.8-2,2
				C45.8,59.2,46.7,60.1,47.8,60.1 M47.4,58.2h0.4l0.6,1h0.4l-0.6-1c0.3,0,0.6-0.2,0.6-0.6c0-0.4-0.3-0.6-0.8-0.6H47v2.3h0.3V58.2z
				 M47.4,58v-0.7h0.5c0.2,0,0.5,0.1,0.5,0.3c0,0.4-0.3,0.4-0.6,0.4H47.4z"/>
			<path clip-path="url(#SVGID_95_)" fill="#0079C1" d="M29.4,51.3l2.6-3.9l0.1,3.9H29.4z M39.7,51.2l2.6-3.9l0.1,3.9H39.7z"/>
			<path clip-path="url(#SVGID_95_)" fill="#0079C1" d="M42.6,55.9l-0.2-1.7h-4.8l-1.1,1.7h-4.2l-0.1-1.7h-4.7l-1.2,1.7h-6.7
				c-2.1,0-4-1.3-4.3-3.2c-0.2-0.9-0.1-1.8,0-2.7l-1.7,5.9l-3.7,0c0,0-1.9-4.7-2.4-5.8C7.3,51.3,6,55.9,6,55.9H2.7l2.6-9.4H4.1
				l0.8-2.8H9l2.9,6.8l1.2-4.1l-1.1,0l0.8-2.8l4.4,0l-1.3,4.5c0.8-2.3,3.3-4.5,6.4-4.5l5,0L26,48h-3.2c0,0,0.3-0.9,0.4-1.4l-0.7,0
				c-1.8,0-3.5,2.6-3.5,4.5c0,1.8,1.5,2.2,1.8,2.2l3.6,0l4.4-6.7l-1,0l0.8-2.8h6.7l0.5,8l3.3-5.2h-1l0.8-2.8h6.6l0.7,10.8
				c1.5-3.2,2.3-6.8,2.3-10.6c0-14.1-11.5-25.6-25.6-25.6C8.7,18.3-2.7,29.8-2.7,44c0,14.1,11.5,25.6,25.6,25.6
				c9.8,0,18.4-5.5,22.7-13.7H42.6z"/>
		</g>
		<g>
			<defs>
				<rect id="SVGID_1342_" x="176" y="153.1" width="119.4" height="34.4"/>
			</defs>
			<clipPath id="SVGID_97_">
				<use xlink:href="#SVGID_1342_"  overflow="visible"/>
			</clipPath>
		</g>
		<g>
			<defs>
				<rect id="SVGID_1344_" x="176" y="153.1" width="119.4" height="34.4"/>
			</defs>
			<clipPath id="SVGID_99_">
				<use xlink:href="#SVGID_1344_"  overflow="visible"/>
			</clipPath>
			<g clip-path="url(#SVGID_99_)">
				<text transform="matrix(1 0 0 1 76.0755 72.3742)" font-family="'Univers-Condensed'" font-size="5.7073">Multiple NFL Franchises</text>
			</g>
		</g>
	</g>
	<g>
		<defs>
			<rect id="SVGID_1920_" x="28.1" y="129.4" width="82.5" height="82"/>
		</defs>
		<clipPath id="SVGID_100_">
			<use xlink:href="#SVGID_1920_"  overflow="visible"/>
		</clipPath>
		
			<rect x="-430.9" y="-260.7" clip-path="url(#SVGID_100_)" fill="none" stroke="#000000" stroke-width="0.1624" width="617.4" height="477.4"/>
		
			<rect x="-453.9" y="-270.8" clip-path="url(#SVGID_100_)" fill="none" stroke="#FFFFFF" stroke-width="0.6473" width="663.3" height="497.5"/>
		<path clip-path="url(#SVGID_100_)" fill="#FFFFFF" d="M83.6-74.3H48.2c-0.9,1.7-20.9,36.5-7.8,70.8C41.2-1.8,42,0.1,43,1.9
			c0,0,31.2-15.3,39.5-66.3C83.4-70.1,83.6-74.3,83.6-74.3"/>
		<path clip-path="url(#SVGID_100_)" fill="none" stroke="#FFFFFF" stroke-width="5.6553" d="M83.6-74.3H48.2
			c-0.9,1.7-20.9,36.5-7.8,70.8C41.2-1.8,42,0.1,43,1.9c0,0,31.2-15.3,39.5-66.3C83.4-70.1,83.6-74.3,83.6-74.3z"/>
		<path clip-path="url(#SVGID_100_)" fill="#ED174C" d="M66-62.7c0.1,0.1,0.3,0.1,0.4,0.2c0.5,0.4,1.3,1,1.3,1.5
			c0,0.2-0.2,0.3-0.3,0.4c0,0,0,0.8,0,1.1c0,0.4-0.3,0.8-0.3,0.8s0.3,0.6,0.2,0.9c-0.1,0.2-0.5,1.5-0.8,2.4c-0.1,0.3-0.3,1-1.1,0.8
			c-0.3-0.1-0.6-0.2-0.6-0.2c-0.1,0.2-0.2,0.6-0.2,0.6s-0.1,0.4,0.4,0.6c0.1,0.1,0.6,0.3,0.6,0.3l0.1-0.2l1.2,0.4l0,0.2
			c0,0,0.7,0.2,1,0.4c0.8,0.4,1.4,1.1,1.7,1.9c0.4,0.9,0.4,2,0.5,2.5c0,0,2,1.8,2,8.5c0,0.7-4.7,2.3-5.5,2.3
			c0.3,3.2-1.6,7.5-2.8,9.5c-0.9,1.5-1.9,2.9-2.8,4.3l-0.2-0.1c-2.1,3-4.3,5.8-5,6.3c-0.3,0.3-0.5,0.3-0.7,0.5
			c-0.5,0.8-1.3,1.5-1.6,1.9c-0.3,0.3-4.2,3.3-6.9,5.3c0,0.1,0.1,0.3,0,0.3c-0.3,0.2-0.7,0.6-1,0.8c-0.2,0.2-0.1,0.4-0.3,0.5
			c-1.1,0.8-1.6,0.9-1.7,1.2c-0.2,1.2,0.6,2.3,0.6,3.1c0,0.7-0.5,1.1-0.6,1.1c0,0-1.4,0.1-2,0.1c-0.3,0-0.7-0.2-1-0.4
			c0.7,1.6,1.4,3.2,2.2,4.7c0,0,30.5-15,39.2-64.6H66z"/>
	</g>
	<g>
		<defs>
			<rect id="SVGID_1922_" x="28.1" y="129.4" width="82.5" height="82"/>
		</defs>
		<clipPath id="SVGID_102_">
			<use xlink:href="#SVGID_1922_"  overflow="visible"/>
		</clipPath>
	</g>
	<g>
		<defs>
			<rect id="SVGID_1929_" x="28.1" y="129.4" width="82.5" height="82"/>
		</defs>
		<clipPath id="SVGID_104_">
			<use xlink:href="#SVGID_1929_"  overflow="visible"/>
		</clipPath>
	</g>
	<g>
		<defs>
			<rect id="SVGID_1936_" x="28.1" y="129.4" width="82.5" height="82"/>
		</defs>
		<clipPath id="SVGID_106_">
			<use xlink:href="#SVGID_1936_"  overflow="visible"/>
		</clipPath>
	</g>
	<g>
		<defs>
			<rect id="SVGID_1943_" x="28.1" y="129.4" width="82.5" height="82"/>
		</defs>
		<clipPath id="SVGID_107_">
			<use xlink:href="#SVGID_1943_"  overflow="visible"/>
		</clipPath>
	</g>
	<g>
		<defs>
			<rect id="SVGID_1950_" x="28.1" y="129.4" width="82.5" height="82"/>
		</defs>
		<clipPath id="SVGID_109_">
			<use xlink:href="#SVGID_1950_"  overflow="visible"/>
		</clipPath>
	</g>
	<g>
		<defs>
			<rect id="SVGID_1957_" x="28.1" y="129.4" width="82.5" height="82"/>
		</defs>
		<clipPath id="SVGID_111_">
			<use xlink:href="#SVGID_1957_"  overflow="visible"/>
		</clipPath>
	</g>
	<g>
		<defs>
			<rect id="SVGID_1964_" x="28.1" y="129.4" width="82.5" height="82"/>
		</defs>
		<clipPath id="SVGID_113_">
			<use xlink:href="#SVGID_1964_"  overflow="visible"/>
		</clipPath>
	</g>
	<g>
		<defs>
			<rect id="SVGID_1971_" x="28.1" y="129.4" width="82.5" height="82"/>
		</defs>
		<clipPath id="SVGID_114_">
			<use xlink:href="#SVGID_1971_"  overflow="visible"/>
		</clipPath>
	</g>
	<g>
		<defs>
			<rect id="SVGID_1978_" x="28.1" y="129.4" width="82.5" height="82"/>
		</defs>
		<clipPath id="SVGID_116_">
			<use xlink:href="#SVGID_1978_"  overflow="visible"/>
		</clipPath>
	</g>
	<g>
		<defs>
			<rect id="SVGID_1985_" x="28.1" y="129.4" width="82.5" height="82"/>
		</defs>
		<clipPath id="SVGID_118_">
			<use xlink:href="#SVGID_1985_"  overflow="visible"/>
		</clipPath>
	</g>
	<g>
		<defs>
			<rect id="SVGID_1992_" x="28.1" y="129.4" width="82.5" height="82"/>
		</defs>
		<clipPath id="SVGID_120_">
			<use xlink:href="#SVGID_1992_"  overflow="visible"/>
		</clipPath>
	</g>
	<g>
		<defs>
			<rect id="SVGID_1999_" x="28.1" y="129.4" width="82.5" height="82"/>
		</defs>
		<clipPath id="SVGID_121_">
			<use xlink:href="#SVGID_1999_"  overflow="visible"/>
		</clipPath>
	</g>
	<g>
		<defs>
			<rect id="SVGID_2006_" x="28.1" y="129.4" width="82.5" height="82"/>
		</defs>
		<clipPath id="SVGID_123_">
			<use xlink:href="#SVGID_2006_"  overflow="visible"/>
		</clipPath>
	</g>
	<g>
		<defs>
			<rect id="SVGID_2013_" x="28.1" y="129.4" width="82.5" height="82"/>
		</defs>
		<clipPath id="SVGID_125_">
			<use xlink:href="#SVGID_2013_"  overflow="visible"/>
		</clipPath>
	</g>
	<g>
		<defs>
			<rect id="SVGID_2020_" x="28.1" y="129.4" width="82.5" height="82"/>
		</defs>
		<clipPath id="SVGID_127_">
			<use xlink:href="#SVGID_2020_"  overflow="visible"/>
		</clipPath>
	</g>
	<g>
		<defs>
			<rect id="SVGID_2027_" x="28.1" y="129.4" width="82.5" height="82"/>
		</defs>
		<clipPath id="SVGID_128_">
			<use xlink:href="#SVGID_2027_"  overflow="visible"/>
		</clipPath>
	</g>
	<g>
		<defs>
			<rect id="SVGID_2034_" x="28.1" y="129.4" width="82.5" height="82"/>
		</defs>
		<clipPath id="SVGID_130_">
			<use xlink:href="#SVGID_2034_"  overflow="visible"/>
		</clipPath>
	</g>
	<g>
		<defs>
			<rect id="SVGID_2041_" x="28.1" y="129.4" width="82.5" height="82"/>
		</defs>
		<clipPath id="SVGID_132_">
			<use xlink:href="#SVGID_2041_"  overflow="visible"/>
		</clipPath>
	</g>
	<g>
		<defs>
			<rect id="SVGID_2048_" x="28.1" y="129.4" width="82.5" height="82"/>
		</defs>
		<clipPath id="SVGID_134_">
			<use xlink:href="#SVGID_2048_"  overflow="visible"/>
		</clipPath>
	</g>
	<g>
		<defs>
			<rect id="SVGID_2055_" x="28.1" y="129.4" width="82.5" height="82"/>
		</defs>
		<clipPath id="SVGID_135_">
			<use xlink:href="#SVGID_2055_"  overflow="visible"/>
		</clipPath>
	</g>
	<g>
		<defs>
			<rect id="SVGID_2062_" x="28.1" y="129.4" width="82.5" height="82"/>
		</defs>
		<clipPath id="SVGID_137_">
			<use xlink:href="#SVGID_2062_"  overflow="visible"/>
		</clipPath>
	</g>
	<g>
		<defs>
			<rect id="SVGID_2069_" x="28.1" y="129.4" width="82.5" height="82"/>
		</defs>
		<clipPath id="SVGID_139_">
			<use xlink:href="#SVGID_2069_"  overflow="visible"/>
		</clipPath>
	</g>
	<g>
		<defs>
			<rect id="SVGID_2076_" x="28.1" y="129.4" width="82.5" height="82"/>
		</defs>
		<clipPath id="SVGID_141_">
			<use xlink:href="#SVGID_2076_"  overflow="visible"/>
		</clipPath>
	</g>
	<g>
		<defs>
			<rect id="SVGID_2083_" x="28.1" y="129.4" width="82.5" height="82"/>
		</defs>
		<clipPath id="SVGID_142_">
			<use xlink:href="#SVGID_2083_"  overflow="visible"/>
		</clipPath>
	</g>
	<g>
		<defs>
			<rect id="SVGID_2090_" x="28.1" y="129.4" width="82.5" height="82"/>
		</defs>
		<clipPath id="SVGID_144_">
			<use xlink:href="#SVGID_2090_"  overflow="visible"/>
		</clipPath>
	</g>
	<g>
		<defs>
			<rect id="SVGID_2092_" x="28.1" y="129.4" width="82.5" height="82"/>
		</defs>
		<clipPath id="SVGID_146_">
			<use xlink:href="#SVGID_2092_"  overflow="visible"/>
		</clipPath>
	</g>
	<g>
		<defs>
			<rect id="SVGID_2099_" x="28.1" y="129.4" width="82.5" height="82"/>
		</defs>
		<clipPath id="SVGID_148_">
			<use xlink:href="#SVGID_2099_"  overflow="visible"/>
		</clipPath>
	</g>
	<g>
		<defs>
			<rect id="SVGID_2106_" x="28.1" y="129.4" width="82.5" height="82"/>
		</defs>
		<clipPath id="SVGID_149_">
			<use xlink:href="#SVGID_2106_"  overflow="visible"/>
		</clipPath>
	</g>
	<g>
		<defs>
			<rect id="SVGID_2113_" x="28.1" y="129.4" width="82.5" height="82"/>
		</defs>
		<clipPath id="SVGID_151_">
			<use xlink:href="#SVGID_2113_"  overflow="visible"/>
		</clipPath>
	</g>
	<g>
		<defs>
			<rect id="SVGID_2120_" x="28.1" y="129.4" width="82.5" height="82"/>
		</defs>
		<clipPath id="SVGID_153_">
			<use xlink:href="#SVGID_2120_"  overflow="visible"/>
		</clipPath>
	</g>
	<g>
		<defs>
			<rect id="SVGID_2127_" x="28.1" y="129.4" width="82.5" height="82"/>
		</defs>
		<clipPath id="SVGID_155_">
			<use xlink:href="#SVGID_2127_"  overflow="visible"/>
		</clipPath>
	</g>
	<g>
		<defs>
			<rect id="SVGID_2146_" x="24.5" y="129.4" width="82.5" height="82"/>
		</defs>
		<clipPath id="SVGID_156_">
			<use xlink:href="#SVGID_2146_"  overflow="visible"/>
		</clipPath>
		<polygon clip-path="url(#SVGID_156_)" fill="#876912" points="2.2,85.3 2.2,77.5 -10.3,77.5 -10.3,85.3 -13.7,85.3 -13.7,67.1 
			-10.3,67.1 -10.3,74.8 2.2,74.8 2.2,67.1 5.6,67.1 5.6,85.3 		"/>
		<path clip-path="url(#SVGID_156_)" fill="#876912" d="M28.5,85.3l-2.4-4.5H15.4L13,85.3H9.4l9.8-18.2h2.8l10,18.2H28.5z
			 M20.6,70.7l-4,7.6h8.1L20.6,70.7z"/>
		<polygon clip-path="url(#SVGID_156_)" fill="#876912" points="57.8,85.3 57.8,70.9 56.9,72.5 49.3,85.3 47.6,85.3 40.1,72.5 
			39.2,70.9 39.2,85.3 35.9,85.3 35.9,67.1 40.6,67.1 47.8,79.6 48.6,81.1 49.5,79.6 56.6,67.1 61.3,67.1 61.3,85.3 		"/>
		<rect x="65.8" y="67.1" clip-path="url(#SVGID_156_)" fill="#876912" width="3.4" height="18.2"/>
		<rect x="95.4" y="67.1" clip-path="url(#SVGID_156_)" fill="#876912" width="3.4" height="18.2"/>
		<path clip-path="url(#SVGID_156_)" fill="#876912" d="M121.6,85.3l-2.4-4.5h-10.7l-2.3,4.5h-3.6l9.8-18.2h2.8l10,18.2H121.6z
			 M113.7,70.7l-4,7.6h8.1L113.7,70.7z"/>
		<polygon clip-path="url(#SVGID_156_)" fill="#876912" points="73.7,85.3 73.7,67.1 77.2,67.1 77.2,82.5 91.4,82.5 91.4,85.3 		"/>
		<path clip-path="url(#SVGID_156_)" fill="#876912" d="M125.2,68.4c0,0.7-0.6,1.3-1.3,1.3c-0.7,0-1.3-0.6-1.3-1.3
			c0-0.7,0.6-1.3,1.3-1.3C124.6,67.1,125.2,67.7,125.2,68.4 M122.9,68.4c0,0.6,0.5,1.1,1.1,1.1c0.6,0,1.1-0.5,1.1-1.1
			c0-0.6-0.5-1.1-1.1-1.1C123.4,67.3,122.9,67.8,122.9,68.4 M123.5,67.7h0.5c0.2,0,0.5,0,0.5,0.4c0,0.3-0.2,0.3-0.3,0.4
			c0.2,0,0.2,0.1,0.2,0.3c0,0.1,0,0.3,0.1,0.4h-0.3c0-0.1-0.1-0.4-0.1-0.5c0-0.1,0-0.1-0.1-0.1h-0.2v0.6h-0.3V67.7z M123.7,68.3h0.2
			c0.2,0,0.2-0.1,0.2-0.2c0-0.2-0.1-0.2-0.2-0.2h-0.2V68.3z"/>
	</g>
</g>
</svg>
