<?xml version="1.0" encoding="utf-8"?>
<!-- Generator: Adobe Illustrator 18.1.1, SVG Export Plug-In . SVG Version: 6.00 Build 0)  -->
<svg version="1.1" id="Layer_1" xmlns="http://www.w3.org/2000/svg" xmlns:xlink="http://www.w3.org/1999/xlink" x="0px" y="0px"
	 viewBox="0 0 300 200" enable-background="new 0 0 300 200" xml:space="preserve">
<g>
	<path fill="#FFFFFF" d="M202,33h-67.4c-1.6,3.2-39.8,69.5-14.7,134.4c1.6,3.4,2.9,6.8,4.8,10.4c0,0,59.3-29.2,74.9-126
		C201.6,41,202,33,202,33"/>
	<path fill="none" stroke="#FFFFFF" stroke-width="3.7413" d="M202,33h-67.4c-1.6,3.2-39.8,69.5-14.7,134.4
		c1.6,3.4,2.9,6.8,4.8,10.4c0,0,59.3-29.2,74.9-126C201.6,41,202,33,202,33z"/>
	<path fill="#006BB6" d="M172.9,38.2h5.7c3.8,0,6.8,1.6,6.3,3.6c-0.5,1.4-1.6,2.7-3.4,3.4c1.4,0.5,2.9,1.6,2.5,3.6
		c-0.7,2.5-5,4.1-9.3,4.1h-5.4L172.9,38.2z M178.5,48.6c0.2-1.4-0.9-1.8-1.8-1.8h-0.5l-0.9,3.4h0.5
		C176.7,50.2,178.1,49.8,178.5,48.6 M179.6,42.5c0.2-1.4-1.1-1.6-1.8-1.6h-0.2l-0.7,3.2h0.5C177.8,44.1,179.4,43.9,179.6,42.5"/>
	<path fill="#006BB6" d="M149.5,38.2l-0.9,2.3c-1.1,3.2-2.7,6.3-2.7,6.3s-0.5-4.3,0.2-8.6H141c-1.4,4.3-4.1,8.6-4.1,8.6
		s0-3.2,0.2-6.3l0.2-2.3h-5.4c-1.1,6.3,0.7,14.9,0.7,14.9h4.5c1.6-2.7,3.6-6.6,4.3-7.9c0,0.2,0,0.5,0,0.5c0,1.4,0.2,4.8,0.5,7.5h4.5
		c0,0,6.1-8.6,8.1-14.9H149.5z"/>
	<path fill="#006BB6" d="M183.3,53.2h5.7c0.5-1.1,0.7-2.3,1.1-3.2h4.1c0,0.9,0,2-0.2,3.2h5.4l0.2-2.3c0.2-7-2.7-12.7-2.7-12.7h-4.1
		C184.8,47.3,183.3,53.2,183.3,53.2 M191.4,47.3c0.9-1.8,1.8-3.2,2-3.6c0,0,0,0,0-0.2c0.2,0.7,0.5,2,0.5,3.8H191.4z"/>
	<path fill="#ED174C" d="M168.6,55.2c0.2,0,0.5,0.2,0.7,0.5c1.1,0.7,2.5,2,2.5,2.9c0,0.5-0.5,0.7-0.5,0.7s0,1.6,0,2
		c0,0.7-0.7,1.6-0.7,1.6s0.7,1.1,0.5,1.8c-0.2,0.5-0.9,2.9-1.6,4.5c-0.2,0.7-0.5,1.8-2,1.6c-0.7,0-1.1-0.2-1.1-0.2
		c-0.2,0.5-0.5,1.1-0.5,1.1s-0.2,0.7,0.9,1.1c0.2,0.2,1.1,0.7,1.1,0.7l0.2-0.2l2.3,0.9v0.2c0,0,1.4,0.5,1.8,0.7
		c1.6,0.9,2.7,2.3,3.4,3.6c0.7,1.6,0.9,3.8,0.9,4.8c0,0,3.8,3.4,3.8,16.1c0,1.4-9,4.3-10.4,4.3c0.5,6.1-3.2,14.3-5.4,18.1
		c-1.8,2.9-3.6,5.7-5.4,8.1l-0.5-0.2c-3.8,5.7-8.1,11.1-9.5,12c-0.5,0.5-0.9,0.5-1.4,0.9c-0.9,1.4-2.5,2.9-3.2,3.6
		c-0.7,0.7-7.9,6.3-13.1,10.2c0,0.2,0.2,0.5,0,0.7c-0.7,0.5-1.4,1.1-1.8,1.4c-0.5,0.5-0.2,0.7-0.5,0.9c-2,1.6-3.2,1.6-3.2,2.3
		c-0.5,2.3,1.1,4.3,1.1,5.9c0,1.4-0.9,2-1.1,2c0,0-2.7,0.2-3.8,0.2c-0.7,0-1.4-0.5-1.8-0.7c1.4,2.9,2.7,5.9,4.1,9
		c0,0,57.9-28.5,74.4-122.6h-30.3V55.2z"/>
	<path fill="#ED174C" d="M171,86c-0.9,4.8-0.5,5-2,9l0.5,4.1l5-3.2c0-0.2,0-0.5,0-0.5c-1.4-1.6-3.2-7-2.9-9.3L171,86z"/>
	<path fill="#006BB6" d="M124.7,55.2h-0.2c-9.7,25.3-21,68.6-4.8,111.3c0.2-0.9,0.2-2.3,0.5-3.4c0.5-1.1-0.2-3.4,0-3.6
		c3.4-4.8,5.9-4.8,6.1-5c0.5-0.5,1.4-1.4,2-2c0.2-0.2,0.5-0.2,0.7,0c1.8-1.6,3.6-3.6,4.8-5.2c1.8-2.5,2.3-4.5,3.8-5.9
		c2-1.8,2.7-1.6,5.9-2.7c0-0.7,1.1-4.1,2.9-7c1.1-1.8,5.4-10.6,5.4-10.9c0,0-0.5-0.2-0.7-0.2s-10.4,14.5-12,15.8
		c-0.5,0.5-1.1,0.9-2.5,1.4c0,0-0.2,1.1-1.6,1.8c-0.7,0.5-1.8,0.7-2.5,0.7l-1.1,0.9c-0.2,0.2-1.1,2.3-1.6,2.9
		c-0.2,0.5-0.7,1.1-1.1,1.6c-0.5,0.5-1.1,1.4-2.5,1.6s-2.3-0.5-2.5-1.4c-0.5-1.1-0.5-2.7,0.7-5c0.7-1.4,3.2-2.7,4.1-3.4
		c0,0,0.2-1.1,0.5-1.6c0-0.5,0.5-2.3,1.4-2.9c1.1-0.9,2-0.9,2.7-0.9c0,0,0-0.7,0.2-2.3c0.7-3.2,3.6-8.8,4.3-10.9
		c-0.5-0.2-0.7-0.5-0.7-0.5c1.1-2.5,3.4-7.2,4.8-9.5c5.9-10,11.8-12.9,11.8-12.9s-0.2-0.5-0.2-1.8c0-0.9-0.5-4.8-0.5-4.8
		s-1.4-0.5-2-2.5c-0.5-1.8,0-4.8,0-4.8c0.2-1.1,0-2.3,0-2.3l-1.4-0.2c-2,1.8-11.8,5-11.8,5c-2.3,2.3-7.9,4.5-10.2,6.3
		c2.5,1.4,4.3,3.8,4.5,6.8c0,0.5,0,0.7,0,0.9c0,2.7-1.6,5.7-3.8,7c-1.4,0.9-3.2,1.6-5,1.6c-4.8,0-8.6-3.8-8.6-8.6
		c0-4.3,3.2-7.9,7.2-8.6c0.7-0.2,1.1-0.5,1.4-0.5c0.5-0.2,1.4-1.6,2.3-2.3c2.9-2.5,5.7-7.5,11.1-7.5c0.2,0,7.2-4.5,7.2-4.5
		c2-2.3,3.2-2.7,4.8-3.2s4.8-0.9,4.8-0.9v-0.2l2.5-0.2v0.2l3.4-0.9c0.2-0.5,0.7-1.8,0.9-2.7c0.9-2.5-3.2-3.8-4.5-6.1l1.1,0.2
		c-0.9,0.5-1.6-0.7-1.6-0.7c2.5,0.9,4.5-3.4,7.5-5.4c0.2-0.2,0.7-0.5,0.9-0.5H124.7z"/>
	<path fill="#ED174C" d="M133,36.2h68.6c0.2-1.8,0.2-2.9,0.2-2.9h-67.2C134.6,33.5,133.9,34.4,133,36.2"/>
	<path fill="#006BB6" d="M166.1,38.2l-1.8,7c0,0,0,0.2,0,0.5l-3.8-7.5h-4.3l-3.6,14.9h4.8l1.8-7.5l3.8,7.5h4.3l3.6-14.9
		C170.8,38.2,166.1,38.2,166.1,38.2z"/>
	<rect x="98.9" y="17.4" fill="none" width="113.1" height="164.9"/>
	<rect x="98.9" y="17.4" fill="none" width="113.1" height="164.9"/>
	<rect x="98.9" y="17.4" fill="none" width="113.1" height="164.9"/>
	<rect x="98.9" y="17.4" fill="none" width="113.1" height="164.9"/>
	<rect x="98.9" y="17.4" fill="none" width="113.1" height="164.9"/>
	<rect x="98.9" y="17.4" fill="none" width="113.1" height="164.9"/>
	<rect x="98.9" y="17.4" fill="none" width="113.1" height="164.9"/>
	<rect x="98.9" y="17.4" fill="none" width="113.1" height="164.9"/>
	<rect x="98.9" y="17.4" fill="none" width="113.1" height="164.9"/>
	<rect x="98.9" y="17.4" fill="none" width="113.1" height="164.9"/>
	<rect x="98.9" y="17.4" fill="none" width="113.1" height="164.9"/>
	<rect x="98.9" y="17.4" fill="none" width="113.1" height="164.9"/>
	<rect x="98.9" y="17.4" fill="none" width="113.1" height="164.9"/>
	<rect x="98.9" y="17.4" fill="none" width="113.1" height="164.9"/>
	<rect x="98.9" y="17.4" fill="none" width="113.1" height="164.9"/>
	<rect x="98.9" y="17.4" fill="none" width="113.1" height="164.9"/>
	<rect x="98.9" y="17.4" fill="none" width="113.1" height="164.9"/>
	<rect x="98.9" y="17.4" fill="none" width="113.1" height="164.9"/>
	<rect x="98.9" y="17.4" fill="none" width="113.1" height="164.9"/>
	<rect x="98.9" y="17.4" fill="none" width="113.1" height="164.9"/>
	<rect x="98.9" y="17.4" fill="none" width="113.1" height="164.9"/>
	<rect x="98.9" y="17.4" fill="none" width="113.1" height="164.9"/>
	<rect x="98.9" y="17.4" fill="none" width="113.1" height="164.9"/>
	<rect x="98.9" y="17.4" fill="none" width="113.1" height="164.9"/>
	<rect x="98.9" y="17.4" fill="none" width="113.1" height="164.9"/>
	<rect x="98.9" y="17.4" fill="none" width="113.1" height="164.9"/>
	<rect x="98.9" y="17.4" fill="none" width="113.1" height="164.9"/>
	<rect x="98.9" y="17.4" fill="none" width="113.1" height="164.9"/>
	<rect x="98.9" y="17.4" fill="none" width="113.1" height="164.9"/>
	<rect x="98.9" y="17.4" fill="none" width="113.1" height="164.9"/>
	<rect x="98.9" y="17.4" fill="none" width="113.1" height="164.9"/>
	<rect x="98.9" y="17.4" fill="none" width="113.1" height="164.9"/>
	<rect x="98.9" y="17.4" fill="none" width="113.1" height="164.9"/>
	<rect x="98.9" y="17.4" fill="none" width="113.1" height="164.9"/>
	<rect x="98.9" y="17.4" fill="none" width="113.1" height="164.9"/>
	<rect x="98.9" y="17.4" fill="none" width="113.1" height="164.9"/>
	<rect x="98.9" y="17.4" fill="none" width="113.1" height="164.9"/>
</g>
</svg>
