<?xml version="1.0" encoding="utf-8"?>
<!-- Generator: Adobe Illustrator 18.1.1, SVG Export Plug-In . SVG Version: 6.00 Build 0)  -->
<svg version="1.1" id="Layer_1" xmlns="http://www.w3.org/2000/svg" xmlns:xlink="http://www.w3.org/1999/xlink" x="0px" y="0px"
	 viewBox="0 0 132 72.9" enable-background="new 0 0 132 72.9" xml:space="preserve">
<g>
	<g>
		<defs>
			<rect id="SVGID_895_" x="-303.7" y="6" width="63.5" height="60.9"/>
		</defs>
		<clipPath id="SVGID_2_">
			<use xlink:href="#SVGID_895_"  overflow="visible"/>
		</clipPath>
		<path clip-path="url(#SVGID_2_)" fill="#FFFFFF" d="M19.6,6.2H-4.7c-0.6,1.2-14.4,25.1-5.3,48.7c0.5,1.2,1.1,2.5,1.7,3.7
			c0,0,21.5-10.5,27.1-45.6C19.4,9.1,19.6,6.2,19.6,6.2"/>
		<path clip-path="url(#SVGID_2_)" fill="none" stroke="#FFFFFF" stroke-width="3.0629" d="M19.6,6.2H-4.7
			c-0.6,1.2-14.4,25.1-5.3,48.7c0.5,1.2,1.1,2.5,1.7,3.7c0,0,21.5-10.5,27.1-45.6C19.4,9.1,19.6,6.2,19.6,6.2z"/>
		<path clip-path="url(#SVGID_2_)" fill="#006BB6" d="M9.1,8.1h2.1c1.4,0,2.5,0.6,2.3,1.3c-0.1,0.5-0.6,1-1.3,1.3
			c0.5,0.2,1.1,0.6,0.9,1.3c-0.2,0.9-1.8,1.5-3.3,1.5h-2L9.1,8.1z M11.1,11.9c0.1-0.5-0.3-0.6-0.7-0.6h-0.2L10,12.5h0.2
			C10.5,12.5,11,12.3,11.1,11.9 M11.6,9.7c0.1-0.5-0.4-0.6-0.6-0.6h-0.1l-0.3,1.2h0.1C10.9,10.3,11.4,10.1,11.6,9.7"/>
		<path clip-path="url(#SVGID_2_)" fill="#006BB6" d="M0.6,8.1L0.3,8.9c-0.4,1.1-1,2.3-1,2.3s-0.2-1.6,0.1-3.1h-1.9
			c-0.5,1.5-1.5,3.1-1.5,3.1s0-1.2,0.1-2.3l0.1-0.8l-2,0c-0.4,2.3,0.3,5.4,0.3,5.4h1.6c0.6-1,1.3-2.4,1.6-2.9c0,0.1,0,0.2,0,0.2
			c0,0.5,0,1.7,0.2,2.7h1.6c0,0,2.2-3.1,2.9-5.4L0.6,8.1z"/>
		<path clip-path="url(#SVGID_2_)" fill="#006BB6" d="M12.9,13.5l2,0c0.1-0.4,0.3-0.8,0.4-1.1h1.5c0,0.4,0,0.7-0.1,1.1l2,0l0.1-0.8
			c0-2.5-1-4.6-1-4.6h-1.4C13.4,11.4,12.9,13.5,12.9,13.5 M15.8,11.4c0.4-0.7,0.7-1.2,0.8-1.3c0,0,0,0,0,0c0.1,0.3,0.1,0.8,0.2,1.4
			H15.8z"/>
		<path clip-path="url(#SVGID_2_)" fill="#ED174C" d="M7.5,14.3c0.1,0,0.2,0.1,0.3,0.1c0.4,0.2,0.9,0.7,0.9,1c0,0.1-0.1,0.2-0.2,0.3
			c0,0,0,0.6,0,0.7c0,0.3-0.2,0.5-0.2,0.5s0.2,0.4,0.1,0.6c0,0.1-0.3,1-0.6,1.6c-0.1,0.2-0.2,0.7-0.8,0.6c-0.2,0-0.4-0.1-0.4-0.1
			c-0.1,0.2-0.1,0.4-0.1,0.4s-0.1,0.2,0.3,0.4c0.1,0,0.4,0.2,0.4,0.2l0.1-0.1L8.2,21l0,0.1c0,0,0.5,0.1,0.7,0.2
			c0.6,0.3,1,0.8,1.2,1.3c0.2,0.6,0.3,1.4,0.3,1.7c0,0,1.4,1.2,1.4,5.8c0,0.5-3.3,1.6-3.8,1.6C8.2,34,6.9,37,6.1,38.4
			c-0.6,1.1-1.3,2-2,3L4,41.2c-1.4,2.1-2.9,4-3.5,4.3c-0.2,0.2-0.3,0.2-0.5,0.3c-0.3,0.5-0.9,1-1.1,1.3c-0.2,0.2-2.9,2.3-4.7,3.6
			c0,0.1,0.1,0.2,0,0.2c-0.2,0.2-0.5,0.4-0.7,0.5c-0.1,0.1-0.1,0.3-0.2,0.4c-0.8,0.6-1.1,0.6-1.2,0.8c-0.2,0.8,0.4,1.6,0.4,2.1
			c0,0.5-0.3,0.7-0.4,0.8c0,0-1,0.1-1.4,0.1c-0.2,0-0.5-0.1-0.7-0.3c0.5,1.1,1,2.2,1.5,3.3c0,0,21-10.3,26.9-44.4H7.5z"/>
		<path clip-path="url(#SVGID_2_)" fill="#ED174C" d="M8.4,25.4c-0.3,1.7-0.2,1.8-0.7,3.3l0.2,1.4L9.7,29c0,0,0-0.2,0-0.2
			c-0.5-0.6-1.2-2.5-1.1-3.3L8.4,25.4z"/>
		<path clip-path="url(#SVGID_2_)" fill="#006BB6" d="M-8.3,14.3h-0.1C-12,23.4-16,39-10.2,54.6c0-0.4,0.1-0.8,0.2-1.2
			c0.1-0.4-0.1-1.2,0-1.3c1.2-1.7,2.1-1.7,2.2-1.8c0.2-0.1,0.5-0.5,0.7-0.7c0.1-0.1,0.2-0.1,0.2,0c0.6-0.6,1.3-1.3,1.7-1.9
			c0.7-0.9,0.8-1.6,1.4-2.1c0.7-0.6,1-0.6,2.2-1c0-0.2,0.4-1.5,1-2.5c0.4-0.7,2-3.8,2-3.9c0,0-0.1-0.1-0.2-0.1
			c-0.1,0-3.8,5.2-4.3,5.7c-0.2,0.2-0.4,0.3-0.9,0.5c0,0-0.1,0.4-0.6,0.7c-0.2,0.1-0.6,0.2-0.9,0.2L-6,45.6c0,0.1-0.4,0.8-0.5,1
			c-0.1,0.2-0.3,0.4-0.4,0.6c-0.1,0.1-0.4,0.5-0.9,0.6c-0.5,0.1-0.8-0.2-0.9-0.5c-0.1-0.4-0.2-1,0.3-1.8c0.3-0.5,1.2-1,1.5-1.3
			c0,0,0.1-0.4,0.1-0.5c0-0.2,0.2-0.8,0.5-1.1c0.4-0.3,0.7-0.3,0.9-0.3c0,0,0-0.3,0.1-0.8c0.2-1.1,1.3-3.2,1.5-3.9
			C-3.9,37.5-4,37.4-4,37.4c0.4-0.9,1.2-2.6,1.7-3.4c2.1-3.6,4.2-4.6,4.2-4.6s0-0.2-0.1-0.7c0-0.3-0.2-1.7-0.2-1.7s-0.5-0.2-0.7-0.9
			c-0.2-0.6,0-1.7,0-1.7c0.1-0.4,0-0.8,0-0.8l-0.5-0.1c-0.7,0.6-4.3,1.8-4.3,1.8c-0.8,0.8-2.8,1.7-3.7,2.3c0.9,0.5,1.6,1.4,1.7,2.5
			c0,0.1,0,0.2,0,0.3c0,1-0.5,2-1.4,2.6c-0.5,0.4-1.1,0.6-1.8,0.6c-1.7,0-3.1-1.4-3.1-3.1c0-1.6,1.1-2.8,2.6-3.1
			c0.2-0.1,0.4-0.1,0.5-0.2c0.2-0.1,0.5-0.6,0.8-0.8c1-0.9,2-2.7,4-2.7c0.1,0,2.6-1.6,2.6-1.6c0.7-0.8,1.2-1,1.7-1.2
			c0.6-0.2,1.7-0.3,1.7-0.3l0-0.1l0.9-0.1l0,0.1L4,20.2c0.1-0.1,0.2-0.7,0.3-1c0.3-0.9-1.2-1.4-1.6-2.2c0,0,0.4,0.1,0.4,0
			c-0.2-0.3-0.5-0.6-0.5-0.6c0.9,0.3,1.6-1.3,2.7-2c0.1-0.1,0.2-0.1,0.4-0.2H-8.3z"/>
		<path clip-path="url(#SVGID_2_)" fill="#ED174C" d="M-5.3,7.3l24.8,0c0.1-0.7,0.1-1.1,0.1-1.1H-4.7C-4.8,6.4-5,6.7-5.3,7.3"/>
		<path clip-path="url(#SVGID_2_)" fill="#006BB6" d="M6.6,8.1L6,10.7c0,0,0,0.1,0,0.1L4.6,8.1H3l-1.3,5.4h1.8l0.7-2.7l1.4,2.7h1.6
			l1.3-5.4H6.6z"/>
	</g>
	<g>
		<defs>
			<rect id="SVGID_1104_" x="-303.3" y="6" width="63.5" height="60.9"/>
		</defs>
		<clipPath id="SVGID_4_">
			<use xlink:href="#SVGID_1104_"  overflow="visible"/>
		</clipPath>
		<g clip-path="url(#SVGID_4_)">
			<text transform="matrix(1 0 0 1 27.1228 68.537)" font-family="'Univers-Condensed'" font-size="6.0408">Multiple NHL Franchises</text>
		</g>
		<polyline clip-path="url(#SVGID_4_)" fill="none" stroke="#010101" stroke-width="0.5038" points="-34,67.6 14.9,67.6 14.9,58.7 
					"/>
	</g>
	<g>
		<defs>
			<rect id="SVGID_1127_" x="-303.3" y="6" width="63.5" height="60.9"/>
		</defs>
		<clipPath id="SVGID_6_">
			<use xlink:href="#SVGID_1127_"  overflow="visible"/>
		</clipPath>
	</g>
	<g>
		<defs>
			<rect id="SVGID_1494_" x="-133.8" y="-231.4" width="70.1" height="64.3"/>
		</defs>
		<clipPath id="SVGID_8_">
			<use xlink:href="#SVGID_1494_"  overflow="visible"/>
		</clipPath>
		
			<rect x="-348.8" y="-262.8" clip-path="url(#SVGID_8_)" fill="none" stroke="#000000" stroke-width="0.1012" width="386.1" height="298.6"/>
		
			<rect x="-363.1" y="-269.1" clip-path="url(#SVGID_8_)" fill="none" stroke="#FFFFFF" stroke-width="0.4048" width="414.8" height="311.1"/>
	</g>
	<g>
		<defs>
			<rect id="SVGID_1720_" x="-133.8" y="-231.4" width="70.1" height="64.3"/>
		</defs>
		<clipPath id="SVGID_9_">
			<use xlink:href="#SVGID_1720_"  overflow="visible"/>
		</clipPath>
	</g>
	<g>
		<g>
			<defs>
				<rect id="SVGID_2346_" x="-166.7" y="141.5" width="126.1" height="25.1"/>
			</defs>
			<clipPath id="SVGID_11_">
				<use xlink:href="#SVGID_2346_"  overflow="visible"/>
			</clipPath>
			
				<rect x="-254.1" y="-293.3" clip-path="url(#SVGID_11_)" fill="none" stroke="#000000" stroke-width="0.1646" width="627.9" height="485.6"/>
			
				<rect x="-277.5" y="-303.5" clip-path="url(#SVGID_11_)" fill="none" stroke="#FFFFFF" stroke-width="0.6584" width="674.7" height="506"/>
		</g>
		<g>
			<defs>
				<rect id="SVGID_2348_" x="-166.7" y="141.5" width="126.1" height="25.1"/>
			</defs>
			<clipPath id="SVGID_13_">
				<use xlink:href="#SVGID_2348_"  overflow="visible"/>
			</clipPath>
		</g>
		<g>
			<defs>
				<rect id="SVGID_2355_" x="-166.7" y="141.5" width="126.1" height="25.1"/>
			</defs>
			<clipPath id="SVGID_15_">
				<use xlink:href="#SVGID_2355_"  overflow="visible"/>
			</clipPath>
		</g>
		<g>
			<defs>
				<rect id="SVGID_2362_" x="-166.7" y="141.5" width="126.1" height="25.1"/>
			</defs>
			<clipPath id="SVGID_16_">
				<use xlink:href="#SVGID_2362_"  overflow="visible"/>
			</clipPath>
		</g>
		<g>
			<defs>
				<rect id="SVGID_2369_" x="-166.7" y="141.5" width="126.1" height="25.1"/>
			</defs>
			<clipPath id="SVGID_18_">
				<use xlink:href="#SVGID_2369_"  overflow="visible"/>
			</clipPath>
		</g>
		<g>
			<defs>
				<rect id="SVGID_2376_" x="-166.7" y="141.5" width="126.1" height="25.1"/>
			</defs>
			<clipPath id="SVGID_20_">
				<use xlink:href="#SVGID_2376_"  overflow="visible"/>
			</clipPath>
		</g>
		<g>
			<defs>
				<rect id="SVGID_2383_" x="-166.7" y="141.5" width="126.1" height="25.1"/>
			</defs>
			<clipPath id="SVGID_22_">
				<use xlink:href="#SVGID_2383_"  overflow="visible"/>
			</clipPath>
		</g>
		<g>
			<defs>
				<rect id="SVGID_2390_" x="-166.7" y="141.5" width="126.1" height="25.1"/>
			</defs>
			<clipPath id="SVGID_23_">
				<use xlink:href="#SVGID_2390_"  overflow="visible"/>
			</clipPath>
		</g>
		<g>
			<defs>
				<rect id="SVGID_2397_" x="-166.7" y="141.5" width="126.1" height="25.1"/>
			</defs>
			<clipPath id="SVGID_25_">
				<use xlink:href="#SVGID_2397_"  overflow="visible"/>
			</clipPath>
		</g>
		<g>
			<defs>
				<rect id="SVGID_2404_" x="-166.7" y="141.5" width="126.1" height="25.1"/>
			</defs>
			<clipPath id="SVGID_27_">
				<use xlink:href="#SVGID_2404_"  overflow="visible"/>
			</clipPath>
		</g>
		<g>
			<defs>
				<rect id="SVGID_2411_" x="-166.7" y="141.5" width="126.1" height="25.1"/>
			</defs>
			<clipPath id="SVGID_29_">
				<use xlink:href="#SVGID_2411_"  overflow="visible"/>
			</clipPath>
		</g>
		<g>
			<defs>
				<rect id="SVGID_2418_" x="-166.7" y="141.5" width="126.1" height="25.1"/>
			</defs>
			<clipPath id="SVGID_30_">
				<use xlink:href="#SVGID_2418_"  overflow="visible"/>
			</clipPath>
		</g>
		<g>
			<defs>
				<rect id="SVGID_2425_" x="-166.7" y="141.5" width="126.1" height="25.1"/>
			</defs>
			<clipPath id="SVGID_32_">
				<use xlink:href="#SVGID_2425_"  overflow="visible"/>
			</clipPath>
		</g>
		<g>
			<defs>
				<rect id="SVGID_2432_" x="-166.7" y="141.5" width="126.1" height="25.1"/>
			</defs>
			<clipPath id="SVGID_34_">
				<use xlink:href="#SVGID_2432_"  overflow="visible"/>
			</clipPath>
		</g>
		<g>
			<defs>
				<rect id="SVGID_2439_" x="-166.7" y="141.5" width="126.1" height="25.1"/>
			</defs>
			<clipPath id="SVGID_36_">
				<use xlink:href="#SVGID_2439_"  overflow="visible"/>
			</clipPath>
		</g>
		<g>
			<defs>
				<rect id="SVGID_2446_" x="-166.7" y="141.5" width="126.1" height="25.1"/>
			</defs>
			<clipPath id="SVGID_37_">
				<use xlink:href="#SVGID_2446_"  overflow="visible"/>
			</clipPath>
		</g>
		<g>
			<defs>
				<rect id="SVGID_2453_" x="-166.7" y="141.5" width="126.1" height="25.1"/>
			</defs>
			<clipPath id="SVGID_39_">
				<use xlink:href="#SVGID_2453_"  overflow="visible"/>
			</clipPath>
		</g>
		<g>
			<defs>
				<rect id="SVGID_2460_" x="-166.7" y="141.5" width="126.1" height="25.1"/>
			</defs>
			<clipPath id="SVGID_41_">
				<use xlink:href="#SVGID_2460_"  overflow="visible"/>
			</clipPath>
		</g>
		<g>
			<defs>
				<rect id="SVGID_2467_" x="-166.7" y="141.5" width="126.1" height="25.1"/>
			</defs>
			<clipPath id="SVGID_43_">
				<use xlink:href="#SVGID_2467_"  overflow="visible"/>
			</clipPath>
		</g>
		<g>
			<defs>
				<rect id="SVGID_2474_" x="-166.7" y="141.5" width="126.1" height="25.1"/>
			</defs>
			<clipPath id="SVGID_44_">
				<use xlink:href="#SVGID_2474_"  overflow="visible"/>
			</clipPath>
		</g>
		<g>
			<defs>
				<rect id="SVGID_2481_" x="-166.7" y="141.5" width="126.1" height="25.1"/>
			</defs>
			<clipPath id="SVGID_46_">
				<use xlink:href="#SVGID_2481_"  overflow="visible"/>
			</clipPath>
		</g>
		<g>
			<defs>
				<rect id="SVGID_2488_" x="-166.7" y="141.5" width="126.1" height="25.1"/>
			</defs>
			<clipPath id="SVGID_48_">
				<use xlink:href="#SVGID_2488_"  overflow="visible"/>
			</clipPath>
		</g>
		<g>
			<defs>
				<rect id="SVGID_2495_" x="-166.7" y="141.5" width="126.1" height="25.1"/>
			</defs>
			<clipPath id="SVGID_50_">
				<use xlink:href="#SVGID_2495_"  overflow="visible"/>
			</clipPath>
		</g>
		<g>
			<defs>
				<rect id="SVGID_2502_" x="-166.7" y="141.5" width="126.1" height="25.1"/>
			</defs>
			<clipPath id="SVGID_51_">
				<use xlink:href="#SVGID_2502_"  overflow="visible"/>
			</clipPath>
		</g>
		<g>
			<defs>
				<rect id="SVGID_2509_" x="-166.7" y="141.5" width="126.1" height="25.1"/>
			</defs>
			<clipPath id="SVGID_53_">
				<use xlink:href="#SVGID_2509_"  overflow="visible"/>
			</clipPath>
		</g>
		<g>
			<defs>
				<rect id="SVGID_2516_" x="-166.7" y="141.5" width="126.1" height="25.1"/>
			</defs>
			<clipPath id="SVGID_55_">
				<use xlink:href="#SVGID_2516_"  overflow="visible"/>
			</clipPath>
		</g>
		<g>
			<defs>
				<rect id="SVGID_2518_" x="-166.7" y="141.5" width="126.1" height="25.1"/>
			</defs>
			<clipPath id="SVGID_57_">
				<use xlink:href="#SVGID_2518_"  overflow="visible"/>
			</clipPath>
		</g>
		<g>
			<defs>
				<rect id="SVGID_2525_" x="-166.7" y="141.5" width="126.1" height="25.1"/>
			</defs>
			<clipPath id="SVGID_58_">
				<use xlink:href="#SVGID_2525_"  overflow="visible"/>
			</clipPath>
		</g>
		<g>
			<defs>
				<rect id="SVGID_2532_" x="-166.7" y="141.5" width="126.1" height="25.1"/>
			</defs>
			<clipPath id="SVGID_60_">
				<use xlink:href="#SVGID_2532_"  overflow="visible"/>
			</clipPath>
		</g>
		<g>
			<defs>
				<rect id="SVGID_2539_" x="-166.7" y="141.5" width="126.1" height="25.1"/>
			</defs>
			<clipPath id="SVGID_62_">
				<use xlink:href="#SVGID_2539_"  overflow="visible"/>
			</clipPath>
		</g>
		<g>
			<defs>
				<rect id="SVGID_2546_" x="-166.7" y="141.5" width="126.1" height="25.1"/>
			</defs>
			<clipPath id="SVGID_64_">
				<use xlink:href="#SVGID_2546_"  overflow="visible"/>
			</clipPath>
		</g>
		<g>
			<defs>
				<rect id="SVGID_2553_" x="-166.7" y="141.5" width="126.1" height="25.1"/>
			</defs>
			<clipPath id="SVGID_65_">
				<use xlink:href="#SVGID_2553_"  overflow="visible"/>
			</clipPath>
			<path clip-path="url(#SVGID_65_)" fill="#00000C" d="M75.3,46.5c-2.7-2.4-5.8-1.1-5.8-1.1c-4.7,2.1-3.6,6.7-3.6,6.7
				c-4.8-0.1-7.7-3.2-7.7-3.2c-2.8-2.8-2.6-6.3-2.6-6.3c0.2,0.3,0.9,1.1,0.9,1.1c3.6,3.1,8.7,0.3,8.7,0.3c5.8-2.2,6.4-8.1,6.4-8.1
				c1-7.5-3.7-11.2-3.7-11.2c-3.2-2.6-6.9-2.5-6.9-2.5c-1.3-0.1-1.5,0.4-1.5,0.4c-1.1,4,2.2,6.2,2.2,6.2c3.9,2.7,7.1-0.3,7.1-0.3
				c2.2,3.9,1.1,7.9,1.1,7.9c-1.2,4.4-4.5,5.6-4.5,5.6c1.2-1.8,0.5-4.1,0.5-4.1c-0.9-3.2-5.1-6-5.1-6c-5.3-3.5-10.7-0.3-10.7-0.3
				C45,34.3,43.8,39,43.8,39c-1.4,3.9,1.1,8.1,1.1,8.1c0.4,1.1,1.1,0.9,1.1,0.9c4.6-1.4,4.3-5.5,4.3-5.5c0.1-4-3.8-5.4-3.8-5.4
				c3.2-4.6,8.1-5.1,8.1-5.1c3-0.3,5.9,1.8,5.9,1.8c-0.6-0.1-2.3,0.5-2.3,0.5c-2.8,1.3-3.4,4.1-3.4,4.1c-2.2,6.9,1.3,10.7,1.3,10.7
				c5.1,6.1,11.8,4.6,11.8,4.6c5-0.6,7.5-5.8,7.5-5.8C76,46.9,75.3,46.5,75.3,46.5 M63,27.8c-2.2-1.1-2.1-3.9-2.1-3.9
				c5.4,0.3,7.1,3.3,7.1,3.3C65.6,29.4,63,27.8,63,27.8 M48.7,42c0,3.5-2.5,4.1-2.5,4.1c-2.3-4.4-0.6-7.7-0.6-7.7
				C48.5,39.2,48.7,42,48.7,42 M60.4,35.3c2.3,0,4.1,1.8,4.1,4.1c0,2.3-1.8,4.1-4,4.2c-2.3,0-4.1-1.8-4.1-4.1
				C56.3,37.2,58.1,35.3,60.4,35.3 M67.6,52c0,0-0.8-2.5,1.4-4.4c0,0,2.4-1.8,4.9-0.2C73.8,47.4,71.8,51.4,67.6,52"/>
			<path clip-path="url(#SVGID_65_)" fill="#00000C" d="M33.1,57.9c-5.5,0-9.9,4.2-9.9,9.3c0,5.2,4.4,9.3,9.9,9.3
				c5.5,0,9.9-4.2,9.9-9.3C43,62.1,38.6,57.9,33.1,57.9 M33.1,74c-3.7,0-6.6-3.1-6.6-6.8c0-3.8,3-6.8,6.6-6.8c3.7,0,6.6,3.1,6.6,6.8
				C39.7,71,36.8,74,33.1,74"/>
			<path clip-path="url(#SVGID_65_)" fill="#00000C" d="M94.2,73.1H86V68h7.3c0.7,0,1.3-0.6,1.3-1.3c0-0.7-0.6-1.3-1.3-1.3H86v-4.2
				h8.2c0.7,0,1.3-0.6,1.3-1.3c0-0.7-0.6-1.3-1.3-1.3H84v0c-0.7,0-1.3,0.6-1.3,1.3v14.4c0,0.7,0.6,1.3,1.3,1.3h10.2
				c0.7,0,1.3-0.6,1.3-1.3C95.5,73.6,94.9,73.1,94.2,73.1"/>
			<path clip-path="url(#SVGID_65_)" fill="#00000C" d="M62.2,64.3c0.4,0,0.7-0.3,0.7-0.7c0-0.2-0.1-0.3-0.1-0.3
				c-1.6-3.2-5-5.4-9-5.4c-5.5,0-9.9,4.2-9.9,9.3c0,5.1,4.4,9.3,9.9,9.3c4.3,0,8-2.6,9.3-6.2c0,0,0.1-0.1,0.1-0.3
				c0-0.4-0.3-0.7-0.7-0.7h-2.1c-0.2,0-0.3,0.2-0.5,0.3c0,0,0,0.1,0,0.1c-1,2.5-3.4,4.2-6.1,4.2c-3.7,0-6.6-3.1-6.6-6.9
				c0-3.8,3-6.8,6.6-6.8c2.5,0,4.7,1.4,5.8,3.6c0.1,0.2,0.3,0.4,0.5,0.4H62.2"/>
			<path clip-path="url(#SVGID_65_)" fill="#00000C" d="M8.7,69.5C8.6,69.2,8.4,69,8.1,69H6.5c-0.4,0-0.7,0.3-0.7,0.7V70
				c0,3.6,3.2,6.5,8.2,6.5c4.5,0,8.3-2.2,8.3-8.5v-8.8c0-0.4-0.3-0.7-0.7-0.7h-2c-0.4,0-0.7,0.3-0.7,0.7v8.8c0,4.1-1.9,6-4.9,6
				C11.5,74,8.7,72.2,8.7,69.5L8.7,69.5z"/>
			<path clip-path="url(#SVGID_65_)" fill="#00000C" d="M112.2,58.6H110c-0.4,0-0.9,0.3-1.1,0.7l-4.7,7l-4.2-7
				c-0.2-0.4-0.7-0.7-1.1-0.7h-1.9c-0.7,0-1,0.6-0.5,1.3l6.2,9.8v4.7c0,0.7,0.6,1.3,1.3,1.3h0.7c0.7,0,1.3-0.6,1.3-1.3v-4.8l6.6-9.7
				C113.1,59.2,112.9,58.6,112.2,58.6"/>
			<path clip-path="url(#SVGID_65_)" fill="#00000C" d="M81.5,74.7l-6.9-10.2l4.7-4.9c0.5-0.6,0.3-1-0.1-1h-2.4
				c-0.5,0-0.7,0.2-1.2,0.7l-7.4,7.4v-7.4c0-0.4-0.3-0.7-0.7-0.7h-1.2c0,0-1.4,0-1.4,2.3l0,14.1c0,0.4,0.3,0.7,0.7,0.7h0.8
				c1,0,1.8-0.8,1.8-1.8v-2.8l4-4.2l5.5,8c0.2,0.3,0.5,0.7,0.9,0.7h2C81.5,75.7,81.9,75.3,81.5,74.7"/>
		</g>
		<g>
			<defs>
				<rect id="SVGID_2572_" x="-166.7" y="141.5" width="126.1" height="25.1"/>
			</defs>
			<clipPath id="SVGID_67_">
				<use xlink:href="#SVGID_2572_"  overflow="visible"/>
			</clipPath>
		</g>
	</g>
	<g>
		<rect x="12.8" y="17" fill="#FFFCFA" width="101.2" height="39"/>
		<path fill="#D9B042" d="M114.5,16.5H114H12.8h-0.4V17v39v0.4h0.4H114h0.4V56V17V16.5z M114,56H12.8V17H114V56z"/>
		<rect x="14.1" y="18.1" fill="#C2120F" width="98.8" height="36.8"/>
		<path fill="#D9B042" d="M113.3,17.7h-0.4H14.1h-0.4v0.4v36.8v0.4h0.4h98.8h0.4v-0.4V18.1V17.7z M112.8,54.9H14.1V18.1h98.8V54.9z"
			/>
		<path fill="#FFFFFF" d="M38.1,24.8c0,0.4-0.4,1-1,1.5c-1.3,1.1-3.2,3.6-9,4.4c0,0,5.6-7.2,9.6-6.5C37.7,24.2,38.1,24.4,38.1,24.8
			 M36.8,22.8c-0.6,0-8.2,1.2-13.5,7.8c0,0-1.6-0.3-1.5-2c0.1-1.7,1.9-2.1,2.7-2l0.1-0.7c0,0-4.6-0.8-4.6,2.7c0,2.4,2.3,3.1,2.3,3.1
			s-3.7,4.8-3.6,9.5c0,4.5,4.1,5,5.3,5.2c2.7,0.3,7.5-3.3,7.4-8.7c0-3.2-1.5-2.9-1.7-2.9c-0.2,0-3.7,0.2-3.7,6.2
			c0,0,0.9-4.2,3.1-4.2c2.2,0-1.6,8.1-4.6,8.1c-2.9,0-3.3-7,3.1-13.1c0,0,10.7-0.7,12.1-6.8C40,22.6,37.4,22.8,36.8,22.8"/>
		<path fill="#FFFFFF" d="M35.1,43.5c-1.3-2.7,4.1-8.7,4.7-8.1C41.3,37.6,36.1,44.3,35.1,43.5 M40.9,43.6c-0.9,0-0.2-1.5-0.2-1.5
			l3.6-7.7h-3c0,0,0.1,0.3,0,0.4c-0.2,0.1-0.3,0-0.3,0s-1.7-2.1-4.4,0.3c-2.7,2.4-5.8,6.5-4.8,10c0.3,0.7,1.5,1,2.2,0.9
			c1.9-0.1,3.3-2.3,3.3-2.3c0,2.8,2.5,2.7,3.6,1.7c1-1,5.6-7.3,6.3-9.1C47.1,36.3,42,43.7,40.9,43.6"/>
		<path fill="#FFFFFF" d="M42.5,45.2l5-11.4h2.8l0.1,0.6l0.6,0c0,0,0.4-1,1.8-1c1.4,0,1.6,1.2,1.6,1.2h0.6c0,0,1.4-1.1,2.4-1.2
			c1-0.1,1.5,0.1,1.5,0.8c0,0.7-0.2,2.1-2.6,7.7c-0.5,0.9,0,4,3.6-2.1c0,0-1.1,4.7-3.4,5.4c-1.8,0.6-4,0.2-3.5-1.4
			c0.5-1.6,1.7-4.6,2.3-6.2c0.6-1.6,0.6-1.8-0.1-1.9c-0.7-0.1-0.9,0.4-1.7,1.9c-0.7,1.4-3.2,7.3-3.2,7.3L47.3,45c0,0,3-7.1,3.4-8
			c0.4-0.9-0.8-1.6-1.3-0.4c-0.6,1.2-4,8.6-4,8.6L42.5,45.2z"/>
		<path fill="#FFFFFF" d="M62.5,43.3c-1.3,0.3,0.4-3.6,1.4-6c1.1-2.4,2.7-2.4,2.7-2.4C68.3,35.8,64.8,42.7,62.5,43.3 M65.1,34.7
			l0.9-2.6h-2.7l-8.1,18h2.9l3.2-6.8c0.1,1.8,0.9,2.1,1.3,2.2c0.4,0.1,1.1,0.3,3.2-1.7c2.7-2.4,3.3-5.6,3.6-8.3
			C69.7,32.8,66.5,32.8,65.1,34.7"/>
		<path fill="#FFFFFF" d="M76.5,34.9c1.2,0.6,0.5,2.2,0.2,3.1c-0.3,0.9-2.5,5.1-3.8,5.1c-1.3,0-0.5-2.7,0.6-5.1
			C74.5,35.5,76.5,34.9,76.5,34.9 M82.1,25.9c1.8,1.4-4.8,6.1-4.8,6.1S81.2,25.4,82.1,25.9 M79.5,31.8c4.3-3.6,5.3-4.5,4.8-6.5
			c-0.8-1.6-3-0.5-3.4-0.2c-0.5,0.2-4.7,3.3-8.4,9.7L69.1,36l0.1,0.6c0,0,1.2-0.3,2.6-0.7c-0.5,0.9-0.9,1.8-1.3,2.8
			c0,0-2.8,6.8,1,6.7c3.8-0.2,6.1-4.3,6.5-5.1c0.4-0.7,3.6-4.4,1.4-6.8c-0.6-0.6-2.8,0-3.4,0.8l0.1-0.2
			C77.2,33.5,78.4,32.7,79.5,31.8"/>
		<path fill="#FFFFFF" d="M84.1,35.8c-0.3-0.7,2.6-3,2.9-2.2C87.5,34.9,84.1,35.8,84.1,35.8 M86,36.5c0.3,0,2.8-0.6,2.9-2.6
			c0.1-1.9-2.5-1.3-2.5-1.3s-5.2,0.5-5.3,4.1l-1.4,0.4l-0.5,0.7c0,0,1.1-0.1,2.3-0.3c0,0,0.6,0.7,1.6,0.7c0,0-3.8,2.1-4.4,3.5
			c-0.7,1.4-0.9,4.8,2.9,3.7c3.8-1.1,4-2.4,4-2.4l2.7-3.8l-0.6-0.2c0,0-3.2,3.9-5.2,3.8c-2.1-0.1-0.2-2.6,0.9-3.1s3.3-0.9,3.3-0.9
			l0.2-1.2c0,0-2,0.1-2-0.4C84.7,36.8,85.7,36.5,86,36.5"/>
		<path fill="#FFFFFF" d="M95.1,25.4c0,0-7.6,13.1-9,16.2c-1.5,3.2,0.4,3.8,1.6,3.9c1.1,0.1,3.9-1.6,6.2-4.8l-0.8,0.2
			c0,0-2.4,1.8-2.9,1.8c-0.6-0.1-1.1-0.4-0.5-1.6c0.6-1.2,8.5-15.6,8.5-15.6H95.1z"/>
		<path fill="#FFFFFF" d="M100.9,25.4l-9,15.7c-1.5,2.6,0.5,4.6,1.8,4.4s2.5-0.8,3.8-3.2c0,0-3.3,1.2-2.5-0.3c0.8-1.6,9-16.6,9-16.6
			H100.9z"/>
		<path fill="#FFFCFA" d="M104.6,28.4c0,0-1-3,1.1-2.6C107.9,26.2,104.6,28.4,104.6,28.4"/>
		<path fill="#FFFFFF" d="M102.3,41c-0.2,1.4-0.7,1.9-1.4,1.9S98,42.6,98,42.6l4.3-5.1C102.3,37.5,102.5,39.2,102.3,41 M104.3,43.6
			c1.9-3.7,1.4-10.1,1.4-10.1l-2.6,0.1c-2.8,5.3-7.6,9.2-7.6,9.2l0.2,1.7l0.9-0.2c0.8,1.2,3.5,1.4,4.4,1.3c0.9-0.1,1.2-0.7,1.7-0.7
			c0.5,0,0.8,0.7,2.4,0.7c3,0.2,3.1-2.2,3.1-2.2C105.7,43.9,104.3,43.6,104.3,43.6"/>
	</g>
</g>
</svg>
