<?xml version="1.0" encoding="utf-8"?>
<!-- Generator: Adobe Illustrator 18.1.1, SVG Export Plug-In . SVG Version: 6.00 Build 0)  -->
<svg version="1.1" id="Layer_1" xmlns="http://www.w3.org/2000/svg" xmlns:xlink="http://www.w3.org/1999/xlink" x="0px" y="0px"
	 viewBox="0 0 66.9 45.4" enable-background="new 0 0 66.9 45.4" xml:space="preserve">
<g>
	<g>
		<g>
			<defs>
				<rect id="SVGID_2346_" x="-349.9" y="10.5" width="126.1" height="25.1"/>
			</defs>
			<clipPath id="SVGID_2_">
				<use xlink:href="#SVGID_2346_"  overflow="visible"/>
			</clipPath>
			
				<rect x="-437.3" y="-424.3" clip-path="url(#SVGID_2_)" fill="none" stroke="#000000" stroke-width="0.1646" width="627.9" height="485.6"/>
			
				<rect x="-460.7" y="-434.5" clip-path="url(#SVGID_2_)" fill="none" stroke="#FFFFFF" stroke-width="0.6584" width="674.7" height="506"/>
		</g>
		<g>
			<defs>
				<rect id="SVGID_2348_" x="-349.9" y="10.5" width="126.1" height="25.1"/>
			</defs>
			<clipPath id="SVGID_4_">
				<use xlink:href="#SVGID_2348_"  overflow="visible"/>
			</clipPath>
		</g>
		<g>
			<defs>
				<rect id="SVGID_2355_" x="-349.9" y="10.5" width="126.1" height="25.1"/>
			</defs>
			<clipPath id="SVGID_6_">
				<use xlink:href="#SVGID_2355_"  overflow="visible"/>
			</clipPath>
		</g>
		<g>
			<defs>
				<rect id="SVGID_2362_" x="-349.9" y="10.5" width="126.1" height="25.1"/>
			</defs>
			<clipPath id="SVGID_8_">
				<use xlink:href="#SVGID_2362_"  overflow="visible"/>
			</clipPath>
		</g>
		<g>
			<defs>
				<rect id="SVGID_2369_" x="-349.9" y="10.5" width="126.1" height="25.1"/>
			</defs>
			<clipPath id="SVGID_9_">
				<use xlink:href="#SVGID_2369_"  overflow="visible"/>
			</clipPath>
		</g>
		<g>
			<defs>
				<rect id="SVGID_2376_" x="-349.9" y="10.5" width="126.1" height="25.1"/>
			</defs>
			<clipPath id="SVGID_11_">
				<use xlink:href="#SVGID_2376_"  overflow="visible"/>
			</clipPath>
		</g>
		<g>
			<defs>
				<rect id="SVGID_2383_" x="-349.9" y="10.5" width="126.1" height="25.1"/>
			</defs>
			<clipPath id="SVGID_13_">
				<use xlink:href="#SVGID_2383_"  overflow="visible"/>
			</clipPath>
		</g>
		<g>
			<defs>
				<rect id="SVGID_2390_" x="-349.9" y="10.5" width="126.1" height="25.1"/>
			</defs>
			<clipPath id="SVGID_15_">
				<use xlink:href="#SVGID_2390_"  overflow="visible"/>
			</clipPath>
		</g>
		<g>
			<defs>
				<rect id="SVGID_2397_" x="-349.9" y="10.5" width="126.1" height="25.1"/>
			</defs>
			<clipPath id="SVGID_16_">
				<use xlink:href="#SVGID_2397_"  overflow="visible"/>
			</clipPath>
		</g>
		<g>
			<defs>
				<rect id="SVGID_2404_" x="-349.9" y="10.5" width="126.1" height="25.1"/>
			</defs>
			<clipPath id="SVGID_18_">
				<use xlink:href="#SVGID_2404_"  overflow="visible"/>
			</clipPath>
		</g>
		<g>
			<defs>
				<rect id="SVGID_2411_" x="-349.9" y="10.5" width="126.1" height="25.1"/>
			</defs>
			<clipPath id="SVGID_20_">
				<use xlink:href="#SVGID_2411_"  overflow="visible"/>
			</clipPath>
		</g>
		<g>
			<defs>
				<rect id="SVGID_2418_" x="-349.9" y="10.5" width="126.1" height="25.1"/>
			</defs>
			<clipPath id="SVGID_22_">
				<use xlink:href="#SVGID_2418_"  overflow="visible"/>
			</clipPath>
		</g>
		<g>
			<defs>
				<rect id="SVGID_2425_" x="-349.9" y="10.5" width="126.1" height="25.1"/>
			</defs>
			<clipPath id="SVGID_23_">
				<use xlink:href="#SVGID_2425_"  overflow="visible"/>
			</clipPath>
		</g>
		<g>
			<defs>
				<rect id="SVGID_2432_" x="-349.9" y="10.5" width="126.1" height="25.1"/>
			</defs>
			<clipPath id="SVGID_25_">
				<use xlink:href="#SVGID_2432_"  overflow="visible"/>
			</clipPath>
		</g>
		<g>
			<defs>
				<rect id="SVGID_2439_" x="-349.9" y="10.5" width="126.1" height="25.1"/>
			</defs>
			<clipPath id="SVGID_27_">
				<use xlink:href="#SVGID_2439_"  overflow="visible"/>
			</clipPath>
		</g>
		<g>
			<defs>
				<rect id="SVGID_2446_" x="-349.9" y="10.5" width="126.1" height="25.1"/>
			</defs>
			<clipPath id="SVGID_29_">
				<use xlink:href="#SVGID_2446_"  overflow="visible"/>
			</clipPath>
		</g>
		<g>
			<defs>
				<rect id="SVGID_2453_" x="-349.9" y="10.5" width="126.1" height="25.1"/>
			</defs>
			<clipPath id="SVGID_30_">
				<use xlink:href="#SVGID_2453_"  overflow="visible"/>
			</clipPath>
		</g>
		<g>
			<defs>
				<rect id="SVGID_2460_" x="-349.9" y="10.5" width="126.1" height="25.1"/>
			</defs>
			<clipPath id="SVGID_32_">
				<use xlink:href="#SVGID_2460_"  overflow="visible"/>
			</clipPath>
		</g>
		<g>
			<defs>
				<rect id="SVGID_2467_" x="-349.9" y="10.5" width="126.1" height="25.1"/>
			</defs>
			<clipPath id="SVGID_34_">
				<use xlink:href="#SVGID_2467_"  overflow="visible"/>
			</clipPath>
		</g>
		<g>
			<defs>
				<rect id="SVGID_2474_" x="-349.9" y="10.5" width="126.1" height="25.1"/>
			</defs>
			<clipPath id="SVGID_36_">
				<use xlink:href="#SVGID_2474_"  overflow="visible"/>
			</clipPath>
		</g>
		<g>
			<defs>
				<rect id="SVGID_2481_" x="-349.9" y="10.5" width="126.1" height="25.1"/>
			</defs>
			<clipPath id="SVGID_37_">
				<use xlink:href="#SVGID_2481_"  overflow="visible"/>
			</clipPath>
		</g>
		<g>
			<defs>
				<rect id="SVGID_2488_" x="-349.9" y="10.5" width="126.1" height="25.1"/>
			</defs>
			<clipPath id="SVGID_39_">
				<use xlink:href="#SVGID_2488_"  overflow="visible"/>
			</clipPath>
		</g>
		<g>
			<defs>
				<rect id="SVGID_2495_" x="-349.9" y="10.5" width="126.1" height="25.1"/>
			</defs>
			<clipPath id="SVGID_41_">
				<use xlink:href="#SVGID_2495_"  overflow="visible"/>
			</clipPath>
		</g>
		<g>
			<defs>
				<rect id="SVGID_2502_" x="-349.9" y="10.5" width="126.1" height="25.1"/>
			</defs>
			<clipPath id="SVGID_43_">
				<use xlink:href="#SVGID_2502_"  overflow="visible"/>
			</clipPath>
		</g>
		<g>
			<defs>
				<rect id="SVGID_2509_" x="-349.9" y="10.5" width="126.1" height="25.1"/>
			</defs>
			<clipPath id="SVGID_44_">
				<use xlink:href="#SVGID_2509_"  overflow="visible"/>
			</clipPath>
		</g>
		<g>
			<defs>
				<rect id="SVGID_2516_" x="-349.9" y="10.5" width="126.1" height="25.1"/>
			</defs>
			<clipPath id="SVGID_46_">
				<use xlink:href="#SVGID_2516_"  overflow="visible"/>
			</clipPath>
		</g>
		<g>
			<defs>
				<rect id="SVGID_2518_" x="-349.9" y="10.5" width="126.1" height="25.1"/>
			</defs>
			<clipPath id="SVGID_48_">
				<use xlink:href="#SVGID_2518_"  overflow="visible"/>
			</clipPath>
		</g>
		<g>
			<defs>
				<rect id="SVGID_2525_" x="-349.9" y="10.5" width="126.1" height="25.1"/>
			</defs>
			<clipPath id="SVGID_50_">
				<use xlink:href="#SVGID_2525_"  overflow="visible"/>
			</clipPath>
		</g>
		<g>
			<defs>
				<rect id="SVGID_2532_" x="-349.9" y="10.5" width="126.1" height="25.1"/>
			</defs>
			<clipPath id="SVGID_51_">
				<use xlink:href="#SVGID_2532_"  overflow="visible"/>
			</clipPath>
		</g>
		<g>
			<defs>
				<rect id="SVGID_2539_" x="-349.9" y="10.5" width="126.1" height="25.1"/>
			</defs>
			<clipPath id="SVGID_53_">
				<use xlink:href="#SVGID_2539_"  overflow="visible"/>
			</clipPath>
		</g>
		<g>
			<defs>
				<rect id="SVGID_2546_" x="-349.9" y="10.5" width="126.1" height="25.1"/>
			</defs>
			<clipPath id="SVGID_55_">
				<use xlink:href="#SVGID_2546_"  overflow="visible"/>
			</clipPath>
		</g>
		<g>
			<defs>
				<rect id="SVGID_2553_" x="-349.9" y="10.5" width="126.1" height="25.1"/>
			</defs>
			<clipPath id="SVGID_57_">
				<use xlink:href="#SVGID_2553_"  overflow="visible"/>
			</clipPath>
		</g>
		<g>
			<defs>
				<rect id="SVGID_2572_" x="-349.9" y="10.5" width="126.1" height="25.1"/>
			</defs>
			<clipPath id="SVGID_58_">
				<use xlink:href="#SVGID_2572_"  overflow="visible"/>
			</clipPath>
			<path clip-path="url(#SVGID_58_)" fill="#FFFFFF" d="M67.9,43.4c0,0,2.2-3,3-3.4c0.9-0.4,1.6-0.5,3.2-0.8c1.4-0.3,3.1-0.5,5-1
				C85.2,36.7,89.9,33,92.3,28c1.1-2.2,1.6-4.6,1.6-7c0-2.5-0.6-4.9-1.7-7.3c-1.2-2.4-1.6-4.7-1.6-6.8c0-4.9,2.4-8.2,2.6-8.4l2.2-3
				c0,0-11.1,2.6-10.5-10.1c-2.4,3-5.8,7-9.9,6.3c-6-1-7-6.7-7-6.7h0c0,0-1,5.6-7,6.7c-4.1,0.7-7.6-3.3-9.9-6.3
				C51.6-1.9,40.5-4.6,40.5-4.6l2.2,3c0.1,0.2,2.6,3.5,2.6,8.4c0,2-0.4,4.3-1.6,6.8C42.6,16,42,18.5,42,20.9c0,2.4,0.5,4.8,1.6,7
				c2.4,5,7.1,8.7,13.1,10.2c1.9,0.5,3.5,0.8,5,1c1.6,0.3,2.4,0.3,3.2,0.8C65.7,40.5,68,43.4,67.9,43.4"/>
			<path clip-path="url(#SVGID_58_)" d="M68,40.3c1.1-1.4,1.3-1.6,1.8-1.9c1.8-0.8,4.8-1,9-2c10.7-2.7,16.1-12.8,11.8-22
				C86,4.8,91.7-2.7,91.7-2.7c-7.7,0-8.1-8-8.1-8C76.7-2.4,69-8.5,68-10.7c-1.1,2.3-8.8,8.3-15.7,0c0,0-0.4,8-8.1,8
				c0,0,5.7,7.5,1.2,17.1c-4.3,9.2,1.1,19.3,11.8,22c4.2,1,7.3,1.2,9,2C66.7,38.6,66.9,39,68,40.3"/>
			<polygon clip-path="url(#SVGID_58_)" fill="#F99D1C" points="54.9,0.1 54.9,10.7 57,12.2 57,4.9 60.2,14.4 63.1,16.5 63.1,6 
				61,4.5 61,11.7 57.8,2.2 			"/>
			<polygon clip-path="url(#SVGID_58_)" fill="#F99D1C" points="70.6,21.8 70.6,17.7 67.3,15.4 67.3,19.5 65.2,18 65.2,7.5 
				67.3,8.9 67.3,12.9 70.6,15.2 70.6,11.2 72.6,12.7 72.6,23.2 			"/>
			<path clip-path="url(#SVGID_58_)" fill="#F99D1C" d="M88.9,15.2c-1.4-3-1.9-5.8-1.9-8.3c0-3.4,0.9-6.2,1.8-8.1
				c-3.4-0.9-5.3-3.4-6.2-5.9c-3,2.4-5.9,2.7-8.1,2.4c-2.7-0.3-5-1.7-6.6-3.1c-1.5,1.4-3.8,2.8-6.6,3.1c-2.1,0.3-5,0-8.1-2.4
				c-0.9,2.4-2.8,4.9-6.2,5.9C48,0.6,49,3.5,49,6.9c0,2.5-0.5,5.3-1.9,8.3c-0.9,1.9-1.3,3.8-1.3,5.7c0,1.9,0.4,3.7,1.2,5.4
				c1.9,4,5.8,7,10.6,8.2c1.8,0.4,3.3,0.7,4.7,1c1.9,0.3,3.4,0.6,4.6,1.2c0,0,0.7,0.6,1,0.9c0.3-0.3,1-0.9,1-0.9
				c1.2-0.6,2.7-0.8,4.6-1.2c1.4-0.2,3-0.5,4.7-1c4.9-1.2,8.7-4.2,10.6-8.2c0.8-1.7,1.2-3.6,1.2-5.4C90.2,19,89.7,17.1,88.9,15.2
				 M57-3.2c1.8,0.5,3.4,0.5,4.6,0.3c2.8-0.3,4.9-1.5,6.3-2.6c1.4,1.1,3.6,2.2,6.3,2.6c1.9,0.2,4.6,0.1,7.6-1.5
				c1.1,1.8,2.6,3.3,4.5,4.2c-0.7,1.9-1.3,4.3-1.3,7.1c0,3.1,0.7,6.2,2.1,9.1c0.4,0.9,0.8,1.9,0.9,2.9L57-3.2z M78.8,32.5
				c-0.3,0.1-0.6,0.2-1,0.3c-1.7,0.4-3.3,0.7-4.6,0.9c-1.8,0.3-3.3,0.6-4.6,1.1c-0.2,0.1-0.7,0.5-0.7,0.5c0,0-0.5-0.5-0.6-0.5
				c-1.3-0.5-2.8-0.8-4.7-1.1c-1.4-0.2-2.9-0.5-4.6-0.9c-4.3-1.1-7.8-3.7-9.4-7.2c-0.7-1.5-1.1-3-1.1-4.6c0-1.7,0.4-3.3,1.1-5
				c0.6-1.3,1.1-2.5,1.4-3.8L78.8,32.5z M88.3,21.4c-0.1,1.4-0.4,2.8-1,4.2c-1.2,2.6-3.4,4.7-6.2,6L50.6,10.1
				c0.2-1.1,0.3-2.1,0.3-3.2c0-2.8-0.6-5.2-1.3-7.1C51-0.9,52.3-2,53.3-3.4L88.3,21.4z"/>
		</g>
	</g>
	<path d="M34.3,27.8v-9.5c0-1.1-0.8-2.1-2-2.1c-1,0-1.9,1-1.9,2.1v9.5c0,1,0.9,1.9,1.9,1.9C33.5,29.8,34.3,29,34.3,27.8 M61.8,34.9
		l-7.2-12.3l6.5-11.4H54l-2.9,5.1l-3-5.1h-7.4l6.6,11.4l-7,12.2h7.2l3.4-5.9l3.5,5.9H61.8z M6.4,35V11.1h14.3l0.4,6.5h-8v3.1h6.5
		v6.4h-6.5V35H6.4z M21,23.1c0-6.4,5.1-11.5,11.4-11.5c6.3,0,11.3,5.2,11.3,11.5c0,6.4-5.1,11.5-11.3,11.5
		C26.1,34.6,21,29.5,21,23.1"/>
</g>
</svg>
