<?xml version="1.0" encoding="utf-8"?>
<!-- Generator: Adobe Illustrator 18.1.1, SVG Export Plug-In . SVG Version: 6.00 Build 0)  -->
<svg version="1.1" id="Layer_1" xmlns="http://www.w3.org/2000/svg" xmlns:xlink="http://www.w3.org/1999/xlink" x="0px" y="0px"
	 viewBox="0 0 146.3 95.6" enable-background="new 0 0 146.3 95.6" xml:space="preserve">
<g>
	<g>
		<defs>
			<rect id="SVGID_1133_" x="17.7" y="140" width="98.6" height="51.5"/>
		</defs>
		<clipPath id="SVGID_2_">
			<use xlink:href="#SVGID_1133_"  overflow="visible"/>
		</clipPath>
	</g>
	<g>
		<path fill="#A80533" d="M32.2,42.2c-0.4,1.1-2.8,2.2-8.8,0.9l0.8,3.5c6,1.1,9.5,0.2,11.5-1.9c1.5-1.6,1.8-3.6,0.6-5.2
			c-1.3-1.6-4.2-2.8-7.8-2.8c-5.2,0-8.9,1.5-11,7.2l-2.8,7.6h4.8l2.7-7.7c1.1-3.2,3.5-3.7,6.1-3.7C31.3,40.1,32.6,41.2,32.2,42.2"/>
		<path fill="#A80533" d="M88.9,43.8c-1.1-0.6-3-1.1-4.9-1.2c-3.8-0.2-8.2,1.1-9,4.2c-0.5,1.8,1.2,4.2,5.7,4.8
			c2.2,0.3,5.8,0.3,8.4-0.6l1-2.6c-5.2,1.8-12,1.3-11.7-1.4c2.5,1.6,6.2,1.5,8.9,1C91.9,47.3,91.8,45.3,88.9,43.8 M80.1,45.6
			l-0.2-0.1c1.1-0.4,2.3-0.7,3.4-0.7c0.7,0,2.3,0.1,2.9,0.5c0.2,0.1,0.3,0.2,0.2,0.4C86.2,46.4,81.9,46.4,80.1,45.6"/>
		<path fill="#A80533" d="M105.7,43.8c-1.1-0.6-3-1.1-4.9-1.2c-3.8-0.2-8.2,1.1-9,4.2c-0.5,1.8,1.2,4.2,5.7,4.8
			c2.2,0.3,5.8,0.3,8.4-0.6l1-2.6c-5.2,1.8-12,1.3-11.7-1.4c2.5,1.6,6.2,1.5,8.9,1C108.6,47.3,108.5,45.3,105.7,43.8 M96.9,45.6
			l-0.2-0.1c1.1-0.4,2.3-0.7,3.4-0.7c0.7,0,2.3,0.1,2.9,0.5c0.2,0.1,0.3,0.2,0.2,0.4C103,46.4,98.7,46.4,96.9,45.6"/>
		<path fill="#A80533" d="M109.2,46.1l-1.9,5.4h4.4l1.5-4.2c0.4-1.1,0.7-1.8,2-1.8h3.1l0.9-2.5h-5.7C111.5,43,110,43.9,109.2,46.1"
			/>
		<polygon fill="#A80533" points="35.1,51.5 39.7,51.5 42.8,43 38.2,43 		"/>
		<path fill="#A80533" d="M64.8,46.9c0.4-1.2,1.7-1.7,2.8-1.7c1.1,0,2.2,0.7,1.8,1.8l-1.6,4.5h4.4l1.7-4.6c0.9-2.4-1-4.3-5.2-4.3
			c-4.7,0-7.3,1.5-8.3,4.3l-1.7,4.6h4.4L64.8,46.9z"/>
		<path fill="#A80533" d="M51.8,42.6c-4.6-0.2-8.7,1.8-9.3,4.3c-0.5,2.5,2.6,4.8,7.2,4.9c4.6,0.2,8.7-1.8,9.3-4.3
			C59.5,45.1,56.4,42.8,51.8,42.6 M51.2,45.3c1.8,0.1,3.2,1,3,2.1c-0.2,1.1-2,1.9-3.8,1.8c-1.8-0.1-3.2-1-3-2.1
			C47.6,46,49.3,45.2,51.2,45.3"/>
	</g>
</g>
</svg>
