<?xml version="1.0" encoding="utf-8"?>
<!-- Generator: Adobe Illustrator 18.1.1, SVG Export Plug-In . SVG Version: 6.00 Build 0)  -->
<svg version="1.1" id="Layer_1" xmlns="http://www.w3.org/2000/svg" xmlns:xlink="http://www.w3.org/1999/xlink" x="0px" y="0px"
	 viewBox="0 0 300 200" enable-background="new 0 0 300 200" xml:space="preserve">
<g>
	<g>
		<defs>
			<path id="SVGID_1_" d="M97.6,47.3l-2.9,1.6C67.3,64,54,80.4,54,99.1c0,18.7,13.3,35.1,40.7,50.2l2.9,1.6
				c19.1,10.5,40.5,22.2,51.9,40.6c11.4-18.4,32.9-30.1,51.9-40.6l2.9-1.6c27.4-15.1,40.7-31.5,40.7-50.2
				c0-18.7-13.3-35.1-40.7-50.2l-2.9-1.6c-19.1-10.5-40.5-22.2-51.9-40.6C138,25.2,116.6,36.9,97.6,47.3"/>
		</defs>
		<clipPath id="SVGID_2_">
			<use xlink:href="#SVGID_1_"  overflow="visible"/>
		</clipPath>
		
			<radialGradient id="SVGID_3_" cx="-146.2435" cy="519.6836" r="0.9933" gradientTransform="matrix(95.4953 0 0 -95.6564 14110.1191 49826.6836)" gradientUnits="userSpaceOnUse">
			<stop  offset="0" style="stop-color:#FFFFFF"/>
			<stop  offset="0.1924" style="stop-color:#F7F0E5"/>
			<stop  offset="0.6012" style="stop-color:#E3CBA2"/>
			<stop  offset="0.9388" style="stop-color:#D1AA67"/>
			<stop  offset="1" style="stop-color:#D1AA67"/>
		</radialGradient>
		<rect x="54" y="6.8" clip-path="url(#SVGID_2_)" fill="url(#SVGID_3_)" width="191" height="184.7"/>
	</g>
	<g>
		<defs>
			<path id="SVGID_4_" d="M98.6,150.6l-2.9-1.6c-27.1-14.9-40.2-31.1-40.2-49.6c0-18.5,13.2-34.7,40.2-49.6l2.8-1.6
				c5.4-3,16.1-9.8,15.8-9.9C127.9,30,141,20.4,149,7.5c11.3,18.2,32.5,29.8,51.3,40.1l2.9,1.6c27.1,14.9,40.3,31.1,40.3,49.6
				c0,18.5-13.2,34.7-40.3,49.6l-2.8,1.6c-5.5,3-16.1,9.8-15.8,9.9c-13.6,8.2-26.6,17.8-34.7,30.7
				C138.6,172.5,117.4,160.9,98.6,150.6 M93.2,46.5C66.7,61.1,51.3,77.9,51.3,98.9c0,20.9,15.4,37.8,41.9,52.3
				c5.9,3.2,12.1,6.6,18.1,10.2c0,0,0,0,0,0c15.8,9.3,31,20.3,38.5,35.9c10.3-21.3,34.7-33.9,55.8-45.5
				c26.5-14.6,41.9-31.4,41.9-52.3c0-20.9-15.4-37.8-41.9-52.3c-5.9-3.2-12.1-6.6-18.1-10.2c0,0,0,0,0,0
				c-15.8-9.3-31-20.3-38.5-35.9C138.7,22.3,114.3,35,93.2,46.5"/>
		</defs>
		<clipPath id="SVGID_5_">
			<use xlink:href="#SVGID_4_"  overflow="visible"/>
		</clipPath>
		
			<linearGradient id="SVGID_6_" gradientUnits="userSpaceOnUse" x1="-147.0263" y1="520.0005" x2="-146.1827" y2="520.0005" gradientTransform="matrix(232.5791 0 0 -232.5791 34248.5195 121040.3594)">
			<stop  offset="0" style="stop-color:#EDD088"/>
			<stop  offset="0.1155" style="stop-color:#FFFFFF"/>
			<stop  offset="0.2037" style="stop-color:#F8EEDB"/>
			<stop  offset="0.3061" style="stop-color:#F1DEB8"/>
			<stop  offset="0.4102" style="stop-color:#EBD29D"/>
			<stop  offset="0.5154" style="stop-color:#E7C989"/>
			<stop  offset="0.6223" style="stop-color:#E5C47E"/>
			<stop  offset="0.7333" style="stop-color:#E4C27A"/>
			<stop  offset="0.8699" style="stop-color:#FFFFFF"/>
			<stop  offset="1" style="stop-color:#C88426"/>
		</linearGradient>
		<rect x="51.3" y="1" clip-path="url(#SVGID_5_)" fill="url(#SVGID_6_)" width="196.2" height="196.2"/>
	</g>
	<g>
		<g>
			<g>
				<path fill="#512C1D" d="M151.5,69.8c-0.9-2.7-6.5-3.7-6-8.7C146.2,65.9,151.1,66.5,151.5,69.8 M141.2,68.2c0.9-1,1.4-1.7,1.7-2
					c0.2-0.3,0.3-0.8-0.2-1.1c-0.4-0.3-1.9-0.6-1.8,0.3c0.1,1.1-0.5,2-0.5,2.6C140.3,68.5,140.7,68.8,141.2,68.2 M141.6,62.3
					c-0.9,0.3-2.9,0.1-4.5,1.5c-1,0.9-2,3.6-2.6,5.4c-0.7,2.4-1.3,6.3-1.9,9.4c-0.4-4.2,0.4-7.4,0.9-9.2c0.5-2,1.6-5.4,3-6.5
					c1.4-1.1,3.1-1,4.8-1.5c1.3-0.3,2.9-0.7,3.8-1.1c1.1-0.5,1.4-1,1.7-2.2c0.2-0.7,0.4-2.2,0.2-3.3c-0.2-0.3-0.9-0.9-1-1.3
					c-0.1,0.5-0.4,1.5-0.5,1.8c-0.2-0.4-0.5-1.4-0.8-2.2c0.1-0.2,0.3-0.5,0.4-0.8c0-0.3,0-0.4,0-0.8c-0.4-0.2-0.5-0.5-0.6-1.1
					c-0.1-0.6-0.3-1.5-0.3-1.9c0.3,0.7,0.5,1.4,0.6,1.7c0.1,0.6,0.4,0.8,1,0.8c0.2,1.6,1.1,2.4,2,3.6c0,0.3,0.3,4.1-1.1,5.5
					C146,60.9,144.2,61.5,141.6,62.3 M145.6,53.1l-0.5,0.1l0.4,1.3L145.6,53.1z M149.5,69.1c-0.1,0-0.1,0-0.2-0.1
					c0.2,0.4,0.6,0.8,1.5,0.2c-0.6-1.4-3.2-2.5-3.8-3.7c-0.1,0.4,0.1,1.3,1.1,1.8v0c0-0.1,0.1-0.2,0.2-0.2c0.2,0,0.3,0.2,0.3,0.4
					c0,0.2-0.2,0.4-0.3,0.4c-0.1,0-0.2-0.1-0.2-0.1c0.1,0.4,0.3,0.8,1.1,0.5c0.1-0.1,0.2-0.2,0.3-0.2c0.2,0,0.4,0.2,0.4,0.5
					C149.9,68.9,149.8,69.1,149.5,69.1 M150.8,37c-0.1,0.2-0.3,0.5-0.5,0.6c-0.1,0.1-0.2,0.1-0.3,0.2c0.5,0,1,0,1.5,0
					c-0.1-0.1-0.2-0.1-0.2-0.2C151.1,37.5,150.8,37.2,150.8,37 M154.6,67.2c0.2,0.8-0.3,1.4-0.9,1.1c-0.1-0.2-0.2-0.3-0.4-0.3
					c-0.2,0-0.4,0.2-0.4,0.5c0,0.3,0.2,0.5,0.4,0.5c0.1,0,0.2-0.1,0.3-0.2c-0.1,0.6-1.1,0.9-1.3,0.5c0.8-1.9,1.9-1.9,3.4-4.2
					C155.6,66.1,155.1,66.8,154.6,67.2 M154.4,67.6c0-0.2-0.1-0.4-0.3-0.4c-0.2,0-0.3,0.2-0.3,0.4c0,0.2,0.1,0.4,0.3,0.4
					C154.3,68,154.4,67.8,154.4,67.6 M164.2,74.8c-1.3,2.4-1.3,3.4-2,4.7c0.2-1.5-0.1-3.2-0.5-4.8c-0.2-0.8-0.9-3.6-1.3-7.1
					c0.2,3.9-1.7,8.5-5.4,9.2c1.5-0.8,3.8-3.2,3.9-8.2c-2.4,8.4-12,6.2-16.1,9.4c1.7-4.2,9.2-2.2,13.3-7c-5.3,3.1-11.8,0.5-14.9,2.5
					c-0.7,0.5-1.6,1.5-2.1,3.5c0-2,0.6-2.6,0.6-3.2c0.1-1.3,0.5-2.7,0.8-3.1c0.6-0.7,0.1,0.6,0.6,1c3.1-0.9,6.7,0.2,9.4-0.1
					c0.1,0.4,0.3,0.6,0.6,0.7c-0.5-0.8-0.1-1.9,0.3-2.3c0,1,0.5,1.6,0.6,1.6c0.2,0,0.4-1-0.3-1.7c0.6-0.1,0.8,0.8,0.9,1.4
					c0.1,0,0.1,0,0.3-0.1c2-0.6,3.6-2,4-4.9c0.1-0.8-0.2-2-0.7-2.4c-0.2-0.1-0.3-0.2-0.3-0.4c-0.9,2.8-3.5,3.7-4.2,6.1
					c0.1-2.9,3.2-4.1,4.3-7c-0.7-1-1.5-1.2-1.8-4.4c-0.1-1.1-0.1-3.7-0.1-3.7s-3.3,2.7-5.3,0.3c0.5,0.4,1.1,0.5,1.6,0.5
					c1.1,0,2.8-0.7,4-2.5c0.5-0.7,0.8-2.7,0.8-3c0-0.3-0.4,0.1-0.6,0.3c0.2-0.9,0.9-1.1,0.9-4c0-0.4-0.1-0.8-0.3-1.4
					c-0.5-1.4-0.3-2.5-1.3-3.3c-0.4-0.3-0.8-0.6-1.3-0.8c0.3-0.4,0.5-1.3-0.3-1.7c0.5,0.6,0.1,1.2-0.2,1.4c0.2-0.4,0.1-1.5-1-1.5
					c0.7,0.3,0.6,1.1,0.5,1.4c-0.3-0.1-0.7-0.1-1.1-0.1c-0.4,0-0.7,0-1,0.1c0.1-0.2,0.2-0.6-0.4-0.7c0.3,0.2,0.2,0.6,0,0.8
					c-2.2,0.5-2.9,1.9-3.2,2.9c-0.2,0.7-0.2,1.9-0.3,2.8c0.3,0.1,0.7-0.4,1.1-0.4c1.6-0.2,1.9,0.6,2.2,1c0,0.1,0.1,0.3-0.2,0.2
					c0-0.2-0.1-0.1-0.3-0.2c-0.1-0.1-0.3-0.2-0.4-0.3c0.1,0.3,0,0.5-0.1,0.6c-0.3,0-0.6,0-0.8,0c-0.1-0.1-0.2-0.4,0-0.7
					c-0.4,0.1-0.7,0.4-0.8,0.6c-0.3,0-0.6-0.1-0.7-0.4c0.1,0.1,0.3,0.1,0.5,0c-0.2,0-0.4-0.1-0.5-0.3c0,0.2-0.1,0.4-0.1,0.5
					c-0.2,1-0.1,2.2,0.2,2.9c-0.7-0.4-0.4-1.9-1-2.4c-0.2-1-0.1-1.1-0.2-1.9c0-0.8,0.2-1.1,0.7-1.7c-0.6,0.2-1,0.9-1,1.3
					c-0.2-1.2,0.4-1.8,1.1-2.4c-0.5,0.1-1.1,0.5-1.2,0.8c0.1-0.7,0.5-1.4,1.4-1.8c-0.9,0-1.3,0.7-1.5,1c0.1-1,0.5-2.4,1.3-3
					c-0.7-0.7-0.8-2.4-0.1-3.8c-0.1,0.5,0,1.1,0.5,1.6c-0.3-1.3-0.3-2.2,0.9-3c-0.4,0.5-0.6,1.6,0.1,2.1c-0.2-1.4,0.1-2.4,1.4-2.9
					c-0.5,0.5-0.8,1.1-0.3,2.1c-0.4-2.4,2.2-2.7,3.2-2.8h0c1-0.1,1.9,0.1,2.7,0.3c4.6,1.2,5.9,5.2,4.3,8.2c0.5,1.2,0.6,2.6,0.1,3.8
					c-0.1,0.6,0,1.5-0.3,2.2c0.3,0.2,0.7,0.6,0.5,1.1c-0.4,0.9-0.7,2.4-1.1,2.5c0,0.3-0.1,0.8-0.1,1.1c0.1,0.4,0.3,1,0.3,1
					s-0.3,1-0.6,2c-0.2-0.6-0.5-1.4-0.6-1.9c0-0.2,0.1-0.5,0.1-0.5s-0.5,0.5-0.6,0.7c-0.2,0.3-0.4,0.6-0.5,1.1
					c-0.1,0.8-0.4,2.2,0.3,5.4c0.5,2.2,2.9,3.4,4.2,4.2c1.2,0.7,1.8,2,2.2,4.1c0.1,0.7,1.1,1,1.7,0.5c0.6-0.5,0.7-1.4,0.4-1.9
					c-0.6-0.9-1.4-1.2-2.2-1.7c1.5,0.5,3.7,1,3.9,4C165.8,71.3,165,73.3,164.2,74.8 M147.5,46.5c0,0.1,0.1,0.1,0.2,0.1
					c0.1,0,0.2-0.1,0.2-0.1c0-0.1-0.1-0.1-0.2-0.1C147.6,46.4,147.5,46.5,147.5,46.5 M156.3,53.1l0.3,1.1l0.1-1.2L156.3,53.1z
					 M156.2,40.7c0-0.5-0.1-0.6-0.2-0.8c-0.1-0.7-0.1-1.3-0.3-1.8c-0.2-0.4-1-0.4-1.1,0.2c-0.4-0.3-0.2-1.1-0.8-1.4
					c-0.3-0.2-0.8-0.1-1,0.1c0.1-0.3,0-0.6-0.2-0.8c-0.3-0.2-0.7-0.3-1-0.2c0-0.9-0.5-0.9-0.7-0.9c-0.2,0-0.7,0.1-0.7,0.9
					c-0.4-0.1-0.8-0.1-1.1,0.1c-0.2,0.2-0.4,0.5-0.2,0.8c-0.2-0.2-0.6-0.2-0.9-0.1c-0.6,0.3-0.5,1.1-0.9,1.4
					c-0.1-0.5-0.8-0.5-1.1-0.1c-0.3,0.5-0.1,1.2-0.2,2c-0.1,0.1-0.2,0.4-0.1,0.5c1-1.5,2.4-2.3,4.4-2.4
					C152.7,37.9,155.2,38.8,156.2,40.7 M150.8,36.7c0-0.1,0.1-0.5,0.4-0.6c-0.1-0.6-0.7-0.4-0.7,0.1
					C150.6,36.2,150.7,36.4,150.8,36.7 M149.8,36.2c-0.4-0.1-0.8,0.2-0.7,0.6c0,0.2,0.4,0.3,0.5,0.2c-0.1,0-0.2-0.1-0.2-0.2
					c0-0.1,0.1-0.2,0.2-0.2c0.2,0,0.3,0.3,0.2,0.5c-0.1,0.2-0.3,0.5-0.9,0.7C150.3,37.6,150.5,36.4,149.8,36.2 M151.7,37.1
					c-0.1-0.2,0-0.5,0.2-0.5c0.1,0,0.2,0.1,0.2,0.2c0,0.1-0.1,0.2-0.2,0.2c0.2,0.1,0.5,0,0.5-0.2c0.1-0.4-0.3-0.6-0.7-0.6
					c-0.7,0.1-0.5,1.4,0.9,1.6C152,37.6,151.8,37.3,151.7,37.1 M148,37.1c-0.3,0.1-0.3,0.8-0.7,1.3c0.4-0.2,1.2-0.5,1.3-1
					C148.5,37.2,148.3,37,148,37.1 M146.2,38.5c-0.2,0.3-0.1,0.5-0.1,0.9c0.3-0.2,0.6-0.5,0.6-0.9C146.5,38.4,146.3,38.2,146.2,38.5
					 M153.6,37.1c-0.3-0.1-0.5,0.1-0.5,0.3c0.1,0.5,0.8,0.8,1.3,1C153.9,37.9,153.9,37.2,153.6,37.1 M155.4,38.5
					c-0.2-0.3-0.4-0.1-0.4,0c0,0.4,0.3,0.7,0.5,0.9C155.4,39,155.6,38.8,155.4,38.5 M153.1,44.5c-1,0.3-1.4,0.4-1.8,0.8
					c-0.1,0.1-0.2,0.1-0.2,0.2c0,0.1,0.2,0.5,0.6,0.2c0,0,0,0,0.1,0c0.3-0.3,0.7-0.5,1.1-0.6c0.1,0,0.2-0.1,0.3-0.1
					c0.6-0.1,1.3,0,1.8,0.3C154.5,44.6,153.6,44.4,153.1,44.5 M154.4,46.7c0.2,0.1,0.5,0.1,0.6,0.1c-0.4,0.3-1.1,0.3-1.1,0.3
					s-0.1-0.4-0.6-0.5c0,0-0.1,0-0.1,0c0.2,0.2,0.2,0.4,0,0.6c-0.3,0.1-0.6,0.1-0.9,0.1c-0.2-0.1-0.2-0.4-0.1-0.6c0,0-0.1,0-0.1,0
					c-0.2,0.1-0.4,0.2-0.5,0.3c-0.1,0-0.1,0.1-0.2,0.2v0l0,0c0,0,0,0,0,0c-0.3,0.2-0.3-0.4-0.3-0.4c0-0.3,0.1-0.4,0.2-0.3
					c0,0,0.1,0,0.1,0.1c0.1-0.1,0.2-0.2,0.3-0.3c0.2-0.1,0.4-0.2,0.6-0.3c0.1,0,0.1,0,0.2,0c0.2,0,0.4-0.1,0.7-0.1
					c0.2,0,0.4,0.1,0.5,0.1c0.2,0,0.3,0.1,0.4,0.2c0.1,0.1,0.2,0.1,0.4,0.1c0.1,0,0.2,0,0.2,0c0,0,0.1,0,0.1,0c0,0,0.1,0,0.1,0
					C154.9,46.5,154.5,46.7,154.4,46.7 M153.1,46.5c0-0.1-0.1-0.1-0.2-0.1c-0.1,0-0.2,0.1-0.2,0.1c0,0.1,0.1,0.1,0.2,0.1
					C153.1,46.6,153.1,46.6,153.1,46.5 M148.6,45c-0.7-0.3-1.2-0.6-1.7-0.5c-0.2,0.1-0.7,0.3-1,0.9c1.2-0.9,1.9-0.1,2.7,0.1
					C149.1,45.7,149.1,45.2,148.6,45 M150.8,49.2c-0.2,0.1-0.4,0.3-1,0c-0.3-0.1-0.5,0-0.5,0.3c0,0.1,0.4,0.1,0.7,0.4
					c0.4,0.4,0.8-0.1,1.2-0.2C151.3,49.7,151.1,49.1,150.8,49.2 M148.3,51.6c-0.1,0.3,0.2,0.4,0.5,0.4c0.2,0,0.4-0.3,0.9-0.3
					c0.2,0,0.4,0,0.6,0c0.3,0,0.4-0.1,0.6,0c0.4,0.1,0.2,0.4,0,0.5c-0.2,0.1-0.7,0.1-1,0.2c-0.2,0.1-0.4,0.3,0.7,0.4
					c0.9,0,1.1-0.6,1.7-0.9c0.3-0.1,0.4-0.3,0.3-0.4c-0.6,0.2-0.8-0.3-1.9-0.5c-0.3,0.1-0.5,0.1-0.8,0
					C148.9,51.2,148.9,51.7,148.3,51.6"/>
				<path fill="#512C1D" d="M155.8,80.7v34.5h-5.7V86.5C150.1,84.5,151.5,80.7,155.8,80.7 M146,80.7L146,80.7v34.5h-5.7V90.5
					L130,106.8h-0.2l-10.2-16.2v24.6H114V80.7h0.2c1,0,6.4,0.5,10.7,7.9l0,0l5.1,8.4l5.1-8.4c0,0,0,0,0,0c4.3-7.4,9.7-7.9,10.7-7.9
					H146z M98.9,80.6c-1.3,0-5.6,1-9.7,10.7l-9.9,24h5.9l3.3-8.3h4.8c5.4,0,7.5-5.4,7.5-5.4H90.7l1.6-4.1l1.7-4.1
					c1-2.2,1.9-3.5,2.8-4.3l5.1,12.5l2.1,5.4l3.2,8.3h6.1L98.9,80.6z M205.3,80.6c-1.3,0-5.6,1-9.7,10.7l-9.9,24h5.9l3.2-8.3h4.8
					c5.4,0,7.5-5.4,7.5-5.4H197l1.6-4.1l1.7-4.1c1-2.2,1.9-3.5,2.8-4.3l5.1,12.5l2.1,5.4l3.2,8.3h6.1L205.3,80.6z M176.3,102.2
					c4.6-1.4,7.7-4.8,7.7-10.5v-0.1c0-3-1-5.6-2.7-7.5c-2.1-2.2-5.3-3.5-9.4-3.5c-3.2,0-5.9,0.3-7.9,0.6c-2.4,0.8-3.5,3-3.8,4.7
					v29.3h5.7V86.8c1.6-0.6,5.5-0.5,5.5-0.5c4.2,0,6.7,2,6.7,5.7v0.1c0,3.5-3.8,5.8-7.9,5.8h-3l8.8,14.1c1.9,2.8,5.5,3.2,7.4,3.3
					h1.5L176.3,102.2z"/>
			</g>
			<g>
				<path fill="#512C1D" d="M106.7,125.1h-0.9v-4.5c0-0.2,0.1-0.4,0.2-0.6c0.2-0.2,0.4-0.3,0.6-0.3h2v0.1c0,0.2-0.1,0.4-0.3,0.6
					c-0.2,0.2-0.4,0.2-0.7,0.2h-1v1.5h1.7v0.1c0,0.2-0.1,0.4-0.3,0.6c-0.2,0.2-0.4,0.2-0.7,0.2h-0.7V125.1z"/>
				<path fill="#512C1D" d="M113.2,125.1h-1l-1.6-4c-0.1,0-0.2,0.2-0.4,0.6l-0.5,1.3h1.5c0,0.3-0.1,0.5-0.3,0.7
					c-0.2,0.1-0.4,0.2-0.7,0.2h-0.9l-0.5,1.3h-1l1.5-3.8c0.3-0.7,0.6-1.1,0.9-1.4c0.2-0.2,0.4-0.3,0.6-0.3L113.2,125.1z"/>
				<path fill="#512C1D" d="M118.7,119.7v5.4h-0.9v-3.9l-1.6,2.6h0l-1.6-2.6v3.9h-0.9v-5.4h0c0.2,0,0.4,0.1,0.6,0.2
					c0.4,0.2,0.7,0.6,1,1.1l0.8,1.3l0.8-1.3c0.3-0.5,0.6-0.8,1-1.1C118.3,119.7,118.5,119.7,118.7,119.7L118.7,119.7z"/>
				<path fill="#512C1D" d="M120.4,120.6v4.4h-0.9v-4.4c0-0.3,0.1-0.5,0.2-0.7c0.2-0.2,0.3-0.3,0.6-0.3h0.1V120.6z"/>
				<path fill="#512C1D" d="M124.1,124.2v0.9h-2.9v-4.5c0-0.2,0.1-0.4,0.2-0.6c0.2-0.2,0.4-0.4,0.7-0.4v4.5H124.1z"/>
				<path fill="#512C1D" d="M126.1,120.3c0.1-0.2,0.3-0.4,0.6-0.5c0.2-0.1,0.4-0.2,0.5-0.2l0.2,0l-1.8,3.5v1.9h-0.9v-1.9l-1.8-3.5
					l0.2,0c0.2,0,0.3,0.1,0.5,0.2c0.2,0.1,0.4,0.3,0.6,0.5l0.9,1.8L126.1,120.3z"/>
				<path fill="#512C1D" d="M132.4,125.2c-0.8,0-1.4-0.3-1.9-0.8c-0.5-0.5-0.8-1.2-0.8-2c0-0.8,0.3-1.4,0.8-2
					c0.5-0.5,1.2-0.8,1.9-0.8c0.8,0,1.4,0.3,1.9,0.8c0.5,0.5,0.8,1.2,0.8,2c0,0.8-0.3,1.4-0.8,2
					C133.8,124.9,133.1,125.2,132.4,125.2z M132.4,120.5c-0.5,0-0.9,0.2-1.3,0.6c-0.4,0.4-0.5,0.8-0.5,1.4c0,0.5,0.2,1,0.5,1.4
					c0.4,0.4,0.8,0.6,1.3,0.6c0.5,0,1-0.2,1.3-0.6c0.4-0.4,0.5-0.8,0.5-1.4c0-0.5-0.2-1-0.5-1.4
					C133.3,120.6,132.9,120.5,132.4,120.5z"/>
				<path fill="#512C1D" d="M140.2,125.1h-0.8l-0.9-3h0l-0.9,3h-0.8l-1.6-5.4l0.2,0.1c0.5,0.2,0.8,0.4,1,0.8l0.8,2.8l0.9-3.2h0.7
					l0.9,3.2l0.8-2.8c0.1-0.4,0.4-0.7,1-0.8l0.2-0.1L140.2,125.1z"/>
				<path fill="#512C1D" d="M146.7,119.7v5.5h0c-0.2,0-0.4-0.1-0.6-0.2c-0.4-0.2-0.7-0.6-1-1.1l-1.6-2.6v3.9h-0.9v-5.4h0
					c0.3,0,0.6,0.1,0.9,0.3c0.3,0.2,0.5,0.5,0.7,0.9h0l1.6,2.7v-3c0-0.1,0-0.2,0.1-0.4C146,119.9,146.3,119.7,146.7,119.7
					L146.7,119.7z"/>
				<path fill="#512C1D" d="M148.3,124.2h2v0.9h-2.9v-4.5c0-0.2,0.1-0.4,0.2-0.6c0.2-0.2,0.4-0.3,0.6-0.3h2v0.1
					c0,0.2-0.1,0.4-0.3,0.6c-0.2,0.2-0.4,0.2-0.7,0.2h-1v1.5h1.7v0.1c0,0.2-0.1,0.4-0.3,0.6c-0.2,0.2-0.4,0.2-0.7,0.2h-0.7
					C148.3,123.7,148.3,124.2,148.3,124.2z"/>
				<path fill="#512C1D" d="M155.4,122.4c0,0.4,0,0.8-0.1,1.1c-0.2,0.7-0.7,1.2-1.4,1.5c-0.3,0.1-0.7,0.2-1.1,0.2H151v-4.5
					c0-0.2,0.1-0.5,0.3-0.6c0.2-0.2,0.4-0.3,0.6-0.3h0.9c0.8,0,1.4,0.2,1.9,0.7C155.2,120.9,155.4,121.6,155.4,122.4z M154.1,123.8
					c0.3-0.3,0.4-0.7,0.4-1.4c0-0.6-0.2-1-0.5-1.3c-0.3-0.3-0.7-0.5-1.3-0.5h-0.9v3.6h0.9C153.4,124.2,153.8,124.1,154.1,123.8z"/>
				<path fill="#512C1D" d="M161.2,122.3c0.4,0.3,0.6,0.7,0.6,1.2c0,0.5-0.2,1-0.6,1.3c-0.3,0.3-0.7,0.4-1.2,0.4
					c-0.4,0-0.8-0.1-1.1-0.4c-0.4-0.3-0.7-0.7-0.7-1.2h0c0,0,0,0,0.1,0c0.1,0,0.1,0,0.1,0c0.4,0,0.7,0.1,0.9,0.4h0
					c0.1,0.2,0.4,0.3,0.7,0.3c0.2,0,0.4-0.1,0.6-0.2c0.2-0.1,0.2-0.3,0.2-0.5c0-0.3-0.1-0.5-0.3-0.6c-0.1-0.1-0.4-0.2-0.7-0.3
					l-0.2-0.1c-0.4-0.1-0.6-0.3-0.8-0.4c-0.3-0.3-0.4-0.6-0.4-1.1c0-0.4,0.2-0.8,0.5-1.1c0.3-0.3,0.7-0.4,1.1-0.4
					c0.4,0,0.7,0.1,1,0.3c0.4,0.3,0.6,0.6,0.6,1.1c0,0-0.1,0-0.1,0c-0.4,0-0.7-0.1-1-0.3c-0.2-0.2-0.4-0.3-0.7-0.3
					c-0.2,0-0.3,0-0.4,0.1c-0.1,0.1-0.2,0.3-0.2,0.5c0,0.2,0.1,0.4,0.3,0.5c0.1,0.1,0.3,0.2,0.7,0.3l0.1,0
					C160.7,122,161,122.1,161.2,122.3z"/>
				<path fill="#512C1D" d="M163.5,120.6v4.4h-0.9v-4.4c0-0.3,0.1-0.5,0.2-0.7c0.2-0.2,0.3-0.3,0.6-0.3h0.1V120.6z"/>
				<path fill="#512C1D" d="M168.5,119.7v5.5h0c-0.2,0-0.4-0.1-0.6-0.2c-0.4-0.2-0.7-0.6-1-1.1l-1.6-2.6v3.9h-0.9v-5.4h0
					c0.3,0,0.6,0.1,0.9,0.3c0.3,0.2,0.5,0.5,0.7,0.9h0l1.6,2.7v-3c0-0.1,0-0.2,0.1-0.4C167.8,119.9,168.1,119.7,168.5,119.7
					L168.5,119.7z"/>
				<path fill="#512C1D" d="M174.5,123.6c-0.2,0.4-0.4,0.7-0.8,1c-0.5,0.4-1,0.6-1.6,0.6c-0.8,0-1.4-0.3-2-0.8
					c-0.5-0.5-0.8-1.2-0.8-1.9c0,0,0,0,0,0c0,0,0,0,0,0c0-0.7,0.3-1.4,0.8-1.9c0.5-0.5,1.2-0.8,2-0.8c0.6,0,1.2,0.2,1.7,0.6l0,0
					c0.3,0.2,0.6,0.6,0.7,0.9c-0.1,0.1-0.3,0.2-0.5,0.2c-0.2,0-0.4-0.1-0.5-0.2l0,0c-0.3-0.2-0.4-0.4-0.5-0.4
					c-0.2-0.1-0.5-0.2-0.9-0.2c-0.4,0-0.8,0.1-1.1,0.4c-0.5,0.4-0.7,0.9-0.7,1.5c0,0.5,0.2,0.9,0.6,1.3c0.4,0.4,0.8,0.6,1.3,0.6
					c0.3,0,0.7-0.1,0.9-0.3c0.1-0.1,0.3-0.2,0.4-0.3c0.2-0.2,0.4-0.4,0.6-0.4C174.2,123.4,174.3,123.5,174.5,123.6z"/>
				<path fill="#512C1D" d="M175.9,124.2h2v0.9H175v-4.5c0-0.2,0.1-0.4,0.2-0.6c0.2-0.2,0.4-0.3,0.6-0.3h2v0.1
					c0,0.2-0.1,0.4-0.3,0.6c-0.2,0.2-0.4,0.2-0.7,0.2h-1v1.5h1.7v0.1c0,0.2-0.1,0.4-0.3,0.6c-0.2,0.2-0.4,0.2-0.7,0.2h-0.7
					C175.9,123.7,175.9,124.2,175.9,124.2z"/>
				<path fill="#512C1D" d="M182.5,119.7v5.4h-0.8v-4.5h0c-0.2,0-0.4-0.1-0.6-0.2c-0.2-0.2-0.3-0.4-0.3-0.7H182.5z"/>
				<path fill="#512C1D" d="M187,125.1c-0.4,0-0.7-0.2-0.9-0.8l0-1.6v-1.1c0-0.3-0.1-0.6-0.1-0.8c-0.1-0.3-0.4-0.5-0.8-0.5
					c-0.6,0.1-1,0.4-0.9,1c0,0.6,0.3,0.9,0.9,0.9c0.2,0,0.3,0,0.5-0.1c0.1,0,0.1-0.1,0.2-0.1c0,0,0,0.1,0,0.2c0,0.4-0.2,0.6-0.6,0.7
					c-0.1,0-0.2,0-0.3,0c-0.2,0-0.4,0-0.6-0.1c-0.3-0.1-0.5-0.3-0.7-0.5c-0.3-0.3-0.4-0.7-0.4-1.1c0-0.4,0.1-0.8,0.4-1.1
					c0.3-0.4,0.8-0.7,1.5-0.7c0.4,0,0.8,0.1,1.2,0.4c0.4,0.4,0.7,0.9,0.7,1.5V125.1z"/>
				<path fill="#512C1D" d="M189.2,119.7v5.4h-0.8v-4.5h0c-0.2,0-0.4-0.1-0.6-0.2c-0.2-0.2-0.3-0.4-0.3-0.7H189.2z"/>
				<path fill="#512C1D" d="M192.5,122.1c0.4,0.3,0.5,0.8,0.5,1.3c0,0.5-0.2,0.9-0.5,1.2c-0.4,0.4-0.8,0.6-1.5,0.6
					c-0.4,0-0.7-0.1-1-0.2l0,0c0-0.3,0.2-0.4,0.5-0.5c0.1,0,0.3-0.1,0.4-0.1c0.3,0,0.5-0.1,0.8-0.2c0.2-0.2,0.3-0.4,0.3-0.8
					c0-0.3-0.1-0.6-0.4-0.8c-0.2-0.2-0.5-0.3-0.9-0.3c-0.5,0-0.8-0.2-0.8-0.5l0.1-2.2h2.6c0,0.3-0.1,0.5-0.3,0.6
					c-0.2,0.1-0.3,0.2-0.5,0.2h-0.7h-0.3l0,1.2c0.1,0,0.1,0,0.2,0C191.7,121.6,192.2,121.7,192.5,122.1z"/>
			</g>
		</g>
		<path fill="#512C1D" d="M211.5,80.4c0.2,0.2,0.4,0.3,0.6,0.4c0.2,0.1,0.5,0.2,0.8,0.2c0.3,0,0.6-0.1,0.8-0.2
			c0.2-0.1,0.4-0.3,0.6-0.4c0.2-0.2,0.3-0.4,0.4-0.6c0.1-0.2,0.1-0.5,0.1-0.8c0-0.3,0-0.5-0.1-0.8c-0.1-0.2-0.2-0.5-0.4-0.6
			c-0.2-0.2-0.4-0.3-0.6-0.4c-0.2-0.1-0.5-0.2-0.8-0.2c-0.3,0-0.6,0.1-0.8,0.2c-0.2,0.1-0.4,0.3-0.6,0.4c-0.2,0.2-0.3,0.4-0.4,0.6
			c-0.1,0.2-0.1,0.5-0.1,0.8c0,0.3,0,0.5,0.1,0.8C211.2,80,211.3,80.2,211.5,80.4z M211.5,78.3c0.1-0.2,0.2-0.4,0.3-0.6
			c0.1-0.2,0.3-0.3,0.5-0.4c0.2-0.1,0.4-0.1,0.7-0.1c0.2,0,0.5,0,0.7,0.1c0.2,0.1,0.4,0.2,0.5,0.4c0.1,0.2,0.2,0.3,0.3,0.6
			c0.1,0.2,0.1,0.4,0.1,0.6c0,0.2,0,0.4-0.1,0.7c-0.1,0.2-0.2,0.4-0.3,0.6c-0.1,0.2-0.3,0.3-0.5,0.4c-0.2,0.1-0.4,0.1-0.7,0.1
			c-0.3,0-0.5,0-0.7-0.1c-0.2-0.1-0.4-0.2-0.5-0.4c-0.1-0.2-0.2-0.3-0.3-0.6c-0.1-0.2-0.1-0.4-0.1-0.7
			C211.3,78.8,211.4,78.5,211.5,78.3z M212.7,79.2h0.2l0.5,0.7c0,0.1,0.1,0.1,0.2,0.1c0.1,0,0.1,0,0.2,0c0.1,0,0.2,0,0.3-0.1
			l-0.6-0.9c0.1,0,0.1-0.1,0.2-0.1c0.1,0,0.1-0.1,0.2-0.1c0-0.1,0.1-0.1,0.1-0.2c0-0.1,0-0.2,0-0.3c0-0.2-0.1-0.4-0.2-0.5
			c-0.1-0.1-0.4-0.2-0.7-0.2c-0.1,0-0.2,0-0.4,0c-0.1,0-0.3,0-0.4,0v2.4h0.5V79.2z M212.7,78.1C212.7,78.1,212.7,78.1,212.7,78.1
			c0.1,0,0.2,0,0.2,0c0.3,0,0.4,0.1,0.4,0.4c0,0.1,0,0.2-0.1,0.3c-0.1,0.1-0.2,0.1-0.3,0.1h-0.3V78.1z"/>
	</g>
</g>
</svg>
