<?xml version="1.0" encoding="utf-8"?>
<!-- Generator: Adobe Illustrator 18.1.1, SVG Export Plug-In . SVG Version: 6.00 Build 0)  -->
<svg version="1.1" id="Layer_1" xmlns="http://www.w3.org/2000/svg" xmlns:xlink="http://www.w3.org/1999/xlink" x="0px" y="0px"
	 viewBox="0 0 60 60" enable-background="new 0 0 60 60" xml:space="preserve">
<path fill="#F78E1E" d="M41.3,57.5c-3.5,1.4-7.3,2.2-11.3,2.2c-2.2,0-4.4-0.2-6.5-0.7l14-12L41.3,57.5z"/>
<path fill="#F78E1E" d="M59.9,28c0,0.6,0.1,1.2,0.1,1.8c0,8.1-3.2,15.4-8.4,20.8l-4.2-12L59.9,28z"/>
<path fill="#F78E1E" d="M58.2,19.7C54.4,9.2,44.9,1.3,33.4,0l11.2,31.3L58.2,19.7z"/>
<path fill="#F78E1E" d="M21,1.2C8.8,5,0,16.3,0,29.8C0,41.1,6.3,50.9,15.5,56l19.3-16.4L21,1.2z"/>
</svg>
