<?xml version="1.0" encoding="utf-8"?>
<!-- Generator: Adobe Illustrator 18.1.1, SVG Export Plug-In . SVG Version: 6.00 Build 0)  -->
<svg version="1.1" id="Layer_1" xmlns="http://www.w3.org/2000/svg" xmlns:xlink="http://www.w3.org/1999/xlink" x="0px" y="0px"
	 viewBox="0 0 408.2 263" enable-background="new 0 0 408.2 263" xml:space="preserve">
<g>
	<g>
		<path fill="#FFFFFF" d="M407.9,25.1c-23.6,8.8-47.8,26.2-61.2,49.6c-0.7,0.2-1-0.3-1.5-0.5c-0.7-4.8,1.1-9.8,2.2-14.4
			c0.7-5.7,3.1-13-1.2-17.6c-7.5-1.8-12.6,5.2-18.1,9.5l-0.4-0.5c1.5-12,3.2-23.9,6.8-35.1c1.8-5.3,4-10.9,5.3-16.1
			c-4.5,2.2-8.2,5.8-12.1,9.3c-4.1,4.3-11,8.4-10.7,14.9L305.9,79c-2.4,9.3-4.4,18.8-9.3,27.1c-2.1,2.9-4.7,6.2-7.9,8.2
			c-2.2,1.3-4.5,1.9-7.2,1.5c-1-0.3-1.7-0.9-2.4-1.5c-0.6-0.7-1.1-1.4-1.7-2.1c-4-10.7-4.7-25,4.2-33.4c5.6-0.7,4.8,5.9,6.5,9.2
			c2.7,0.8,4.2-2.8,5.9-4.5c2.3-3.9,5.7-7.7,5.6-12.3c-4.8-2.4-2.7-9.7-8-12.4c-2.4-0.2-5.2,0.1-6.9,1.9
			c-12.2,14.6-17.9,31.9-21.6,50.1c-0.3,1.1-0.6,2.2-0.8,3.5c-0.8,4.8-1.2,10.3-6.4,12.5c-4.8-2.2-4.6-7.9-5-12.5
			c-0.1-0.6-0.1-1.1-0.2-1.6c-0.8-12.9,3.1-24,4.7-35.6c-5,4.2-8.1,10.1-12.1,15.2c-1.2,7.4-2.5,14.6-4,22
			c-1.9,8.8-4.1,17.6-6.6,26.2c-1,1.2-1.7,3.4-3.9,2.6c-3.5-2.6-2.7-7.3-3.3-11.4c-0.2-5.9,0.3-11.8,0.9-17.4
			c0.8-7.3,1.8-14.4,2.2-21.6h-1c-6,4.9-9.3,11.4-13.8,17.1c0.2,1.5,0.2,3-0.2,4.5c-0.5,2-1.6,3.8-3.6,5c-4.1,0.5-5.5-2.1-6.6-5
			c-0.9-2.3-1.6-4.8-3.2-6.3c-2.3-0.1-4.2,0.8-5.4,2.9c-0.9,1.1-1.7,2.3-2.4,3.5c-13.8,20.3-16.3,45.5-20.1,70.1
			c-1.4,4.7-1.8,10-5.4,13.7c-0.9,1-2.2,0.2-2.9-0.7c-5.3-14.8-2.8-33.4-3.1-49.7l5.4-5.2c6-7.9,12.2-15.8,13.3-25.8
			c0-0.5-0.6-0.9-1.2-0.7c-4,4.6-9.2,7.6-14.4,9.9c-0.8,0.4-2.2,0.5-2.4-0.7l-0.3-11l-0.2-9.9c0.1-8.3-0.8-16.1-2.9-23.5
			c-11.4,2.7-5,13.6-6.3,21.3c-0.2,4.1-0.2,8-0.4,12.1c-0.3,3.8-0.7,7.8-1.6,11.5c-5.4-2-10.3-6.3-13.4-11.5
			c-2-3.3-3.4-6.8-3.9-10.4c6.2-11.4,12.1-24.3,8.6-38.2c-0.6-2.1-2.7-3.2-4.7-3.4c-2.9,0.8-5.3,4.1-6.9,6.2
			C121,82,117,97.4,116.4,114.3c-0.1,1.4-0.1,2.8-0.1,4.1c-3.3,6.3-6.6,12.8-10.9,18.5c0.2-7.6,0.8-15.2,1.5-22.6
			c2.9-29.5,8.6-58,9.2-88.2c0-1-0.7-2-1.9-1.7c-3.8,4.2-8.8,8.3-9.8,13.7l-2.4,31.2c-0.7,15.8-3.5,30.6-7.8,45
			c-3.7,12.2-8.8,24-14.7,35.4c-1.5,2.1-3.6,4.9-6.4,4.7c-1.6-0.4-2-2.1-2.6-3.3c-1.1-12.2-0.9-24.6-0.1-36.9
			c0.6-8.4,1.4-16.7,2.3-24.8l-0.8-1c-5,3.3-8.5,8.7-12.1,13.4c-0.1,4.2-0.3,8.3-0.5,12.5c-0.9,17.7-2.3,34.8-4.2,52.3
			c-0.3,6-1,12.9,3.6,17.1c2.2,1.2,4.8,0.4,6.9-0.5c14.4-10.9,18.7-27.5,26.8-41.8c0.1,7.2-1.1,14.5-1.7,21.7l-5.8,10.4
			c-6.3,14.3-13.5,30.2-9.5,47.1c0.9,2.3,2.9,4.3,5.6,4.4c2.1-0.3,4-1.5,5.4-3.2c12.4-19.1,14-42.5,16.8-65.6l14-26.6h0.5
			c3.8,9.9,10.9,22.5,22.7,24.2c2.7,0.8,5.6-0.5,8.1,0.3c-0.2,18.2-2.9,37.8-0.5,56.4c1.2,6.4,0.7,13.9,6.6,18
			c3.5,1.2,6.1-1.3,8.3-3.8c7.8-10.7,10.4-23.5,14.4-35.9c1.5,3.3,1.9,7.5,5.9,9.1c5.4,0.9,8.5-5.2,10.7-9.1
			c8.1-16.4,10.9-35.1,11.7-54.6c3.8-3.7,6.3-7.9,8.5-12.3c0.4-0.5,1-0.2,1.2,0.2c0.5,12.4,0.3,25.3-0.7,37.5
			c0.5,5.3-1.5,12.2,3.6,15.2c2.2,0.8,4.3-0.4,5.9-1.7c7.5-9.7,10-21.5,13.1-33c1.6,5.1,0.7,11.3,5,15c2.6,1,4.8-0.8,6.8-2.2
			c7.4-7.7,10.3-17.4,15.2-25.9c1,4.4,1.3,9,5.2,12.2c3.5,1.9,8.1,1.7,11.4-0.7c7.9-7.4,14.3-15.6,19.6-24.3
			c5.5-8.9,10.1-18.2,14.3-27.5c4.7-9.3,7.1-19.6,12.6-28.7c0.8,0,1.7-0.2,2.2,0.7c-0.7,14.6-4.7,29.6-2.2,44.6
			c0.3,1.6,2,2.9,3.5,2.7c8.5-3.4,14-11.7,20-18.5c13-16.7,20-39.1,40.6-49.4c6.9,2.9,10.4-5.9,14.9-9.5
			C407.2,27.6,408.8,26.3,407.9,25.1z M133.9,75.7c1.3-1.3,1.2-3.7,3.2-3.9c1.2,8.1-2.4,15.3-5.9,22
			C128.8,87.9,131.5,81.1,133.9,75.7z M83.7,209.5c-0.4,0.9-1.5,2-2.3,1.5c-1.9-4.2,0.5-8.3,0.8-12.4c1.9-7.7,4.3-15.1,8-22
			C90.6,188,87.3,199.1,83.7,209.5z M196.5,157.6c-1.1,4.2-0.4,9.4-3.5,12.6c-3.1-3.6-2.9-8.9-3.8-13.5c-0.4-7.1-0.5-14.7,1.9-20.9
			c1.9,0.4,1.3,2.8,2.7,3.8C200.3,142.5,195.9,151.6,196.5,157.6z"/>
		<path fill="#FFFFFF" d="M67.1,55.6c0.7-1.1,1-3.2-0.2-4.1c-5.3-1.4-3.9-8.8-9-10.2c-2.2,1-3.4,3.3-5.1,5
			c-3.6,5.9-9.2,10.9-10.7,17.8c3.1,4.4,7.8,11.1,13.5,10C61.1,68.5,64.2,62,67.1,55.6z"/>
		<path fill="#FFFFFF" d="M18.3,192.2l-0.2-0.2c3.3-42.9,9.1-85.4,3.7-129.6c-0.2-0.9-0.3-2.7-1.9-2.4c-4.7,5.6-9.7,9.9-14.9,14.7
			c5.2,39.8,4.1,78.2,0.9,118.6L0.5,246L0,260.8l0.5,0.7c3.9-1.5,7.3-4.9,10-8.3c3.7-30,16.4-56.3,35.1-80
			c1.5-11.8,3.4-23.6,6.6-34.4h-0.7C35.5,154.3,26.2,173.1,18.3,192.2z"/>
	</g>
	<path fill="#FFFFFF" d="M397.7,52.4c0,3.7-2.9,6.6-6.4,6.6c-3.6,0-6.5-2.9-6.5-6.6c0-3.7,2.9-6.6,6.5-6.6
		C394.8,45.8,397.7,48.8,397.7,52.4z M399.1,52.4c0-4.4-3.5-7.9-7.8-7.9c-4.4,0-7.9,3.5-7.9,7.9c0,4.4,3.5,7.9,7.9,7.9
		C395.6,60.3,399.1,56.8,399.1,52.4z M395.2,57l-1.7-4c1.1-0.5,1.7-1.2,1.7-2.3c0-1.8-1.2-2.8-3.5-2.8h-4.2V57h1.9v-3.7h2.2l1.5,3.7
		H395.2z M393.2,50.5c0,0.8-0.6,1.3-1.7,1.3h-2v-2.6h2.1C392.6,49.3,393.2,49.8,393.2,50.5z"/>
</g>
</svg>
