<?xml version="1.0" encoding="utf-8"?>
<!-- Generator: Adobe Illustrator 18.1.1, SVG Export Plug-In . SVG Version: 6.00 Build 0)  -->
<svg version="1.1" xmlns="http://www.w3.org/2000/svg" xmlns:xlink="http://www.w3.org/1999/xlink" x="0px" y="0px"
	 viewBox="0 0 60 60" enable-background="new 0 0 60 60" xml:space="preserve">
<g id="Layer_1" display="none">
	<g display="inline">
		<path fill="#FFFFFF" d="M17.4,36.6V18H6c-3.3,0-6,2.7-6,6v18c0,3.3,2.7,6,6,6h3v9l9-9h15c3.3,0,6-2.7,6-6v-5.5
			c-0.2,0-0.4,0.1-0.6,0.1H17.4z M54,3H27c-3.3,0-6,2.7-6,6v24h21l9,9v-9h3c3.3,0,6-2.7,6-6V9C60,5.7,57.3,3,54,3z"/>
	</g>
</g>
<g id="Layer_2" display="none">
	<g display="inline">
		<path fill="#FFFFFF" d="M30,24c-4.9,0-9,4-9,9c0,4.9,4,9,9,9c4.9,0,9-4,9-9C38.9,28,34.9,24,30,24z M53.8,15.1h-7.2
			c-1,0-2-0.8-2.4-1.7l-1.9-5.6c-0.3-0.9-1.4-1.7-2.4-1.7H19.8c-1,0-2,0.8-2.4,1.7l-1.9,5.6c-0.3,0.9-1.4,1.7-2.4,1.7H6.1
			c-3.3,0-6,2.7-6,6v26.9c0,3.3,2.7,6,6,6h47.7c3.3,0,6-2.7,6-6V21C59.8,17.7,57.1,15.1,53.8,15.1z M30,47.9
			c-8.2,0-14.9-6.7-14.9-14.9C15.1,24.7,21.7,18,30,18c8.2,0,14.9,6.7,14.9,14.9C44.9,41.2,38.2,47.9,30,47.9z M51.8,25.2
			c-1.2,0-2.1-0.9-2.1-2.1c0-1.2,0.9-2.1,2.1-2.1c1.2,0,2.1,0.9,2.1,2.1C53.8,24.3,52.9,25.2,51.8,25.2z"/>
	</g>
</g>
<g id="Layer_3" display="none">
	<path display="inline" fill="#2A3D52" d="M46.7,10.4h-9.5c-1.1,0-2.4,1.5-2.4,3.4v6.8h11.8v9.7H34.9v29.3H23.7V30.4H13.5v-9.7h10.1
		V15C23.7,6.7,29.4,0,37.2,0h9.5V10.4z"/>
</g>
<g id="Layer_4">
	<path fill="#2A3D52" d="M59.9,11.6c-2.2,1-4.6,1.6-7.1,1.9c2.5-1.5,4.5-3.9,5.4-6.8c-2.4,1.4-5,2.4-7.8,3c-2.2-2.4-5.4-3.9-9-3.9
		c-6.8,0-12.3,5.5-12.3,12.3c0,1,0.1,1.9,0.3,2.8C19.3,20.4,10.2,15.5,4.2,8.1C3.1,9.9,2.5,12,2.5,14.2c0,4.3,2.2,8,5.5,10.2
		c-2-0.1-3.9-0.6-5.6-1.5c0,0.1,0,0.1,0,0.2c0,6,4.2,10.9,9.9,12c-1,0.3-2.1,0.4-3.2,0.4c-0.8,0-1.6-0.1-2.3-0.2
		c1.6,4.9,6.1,8.4,11.5,8.5C14,47.2,8.7,49.1,3,49.1c-1,0-2-0.1-2.9-0.2c5.4,3.5,11.9,5.5,18.8,5.5c22.6,0,35-18.7,35-35
		c0-0.5,0-1.1,0-1.6C56.2,16.2,58.3,14,59.9,11.6z"/>
</g>
</svg>
