<?xml version="1.0" encoding="utf-8"?>
<!-- Generator: Adobe Illustrator 18.1.1, SVG Export Plug-In . SVG Version: 6.00 Build 0)  -->
<svg version="1.1" xmlns="http://www.w3.org/2000/svg" xmlns:xlink="http://www.w3.org/1999/xlink" x="0px" y="0px"
	 viewBox="0 0 69.4 69.4" enable-background="new 0 0 69.4 69.4" xml:space="preserve">
<g id="Layer_1" display="none">
	<path display="inline" fill="#F78E1E" d="M0,0v69.4h69.4V0H0z M21.7,58.2h-9.8V26.8h9.8V58.2z M22.3,18.1c-0.5,2.1-2.2,3.8-4.4,4.3
		c-3.7,0.7-6.8-2-6.8-5.6c0-3.1,2.5-5.7,5.7-5.7C20.3,11.1,23.1,14.4,22.3,18.1z M58.3,58.2h-9.8V42.9c0-3.6-0.1-8.3-5.1-8.3
		c-5.1,0-5.9,4-5.9,8.1v15.6h-9.8V26.8h9.4v4.3h0.1c1.3-2.5,4.5-5.1,9.3-5.1c9.9,0,11.7,6.5,11.7,15V58.2z"/>
</g>
<g id="Layer_2" display="none">
	<path display="inline" fill="#F78E1E" d="M0,0v69.4h69.4V0H0z M53.1,25.2c0,0.4,0,0.8,0,1.2c0,12.5-9.5,27-27,27
		c-5.4,0-10.3-1.6-14.5-4.3c0.7,0.1,1.5,0.1,2.3,0.1c4.4,0,8.5-1.5,11.8-4.1c-4.2-0.1-7.7-2.8-8.9-6.6c0.6,0.1,1.2,0.2,1.8,0.2
		c0.9,0,1.7-0.1,2.5-0.3c-4.3-0.9-7.6-4.7-7.6-9.3v-0.1c1.3,0.7,2.7,1.1,4.3,1.2c-2.5-1.7-4.2-4.6-4.2-7.9c0-1.7,0.5-3.4,1.3-4.8
		c4.7,5.7,11.7,9.5,19.6,9.9c-0.2-0.7-0.2-1.4-0.2-2.2c0-5.2,4.2-9.5,9.5-9.5c2.7,0,5.2,1.2,6.9,3c2.2-0.4,4.2-1.2,6-2.3
		c-0.7,2.2-2.2,4.1-4.2,5.2c1.9-0.2,3.7-0.7,5.4-1.5C56.5,22.2,54.9,23.9,53.1,25.2z"/>
</g>
<g id="Layer_3">
	<path fill="#F78E1E" d="M0,0v69.4h40.4V41.5h-9.2V30.9h9.2v-7.8C40.4,14,45.9,9,54,9c3.9,0,7.2,0.3,8.2,0.4V19l-5.6,0
		c-4.4,0-5.3,2.1-5.3,5.2v6.8h10.5l-1.4,10.6h-9.1v27.8h18V0H0z"/>
</g>
<g id="Layer_4" display="none">
	<g display="inline">
		<ellipse fill="#F78E1E" cx="34.7" cy="34.6" rx="9.2" ry="8.9"/>
		<path fill="#F78E1E" d="M45.1,25.9h5.2c1.1,0,2.1-0.9,2.1-2.1V19c0-1.1-0.9-2.1-2.1-2.1h-5.2c-1.1,0-2.1,0.9-2.1,2.1v4.9
			C43.1,25,44,25.9,45.1,25.9z"/>
		<path fill="#F78E1E" d="M48.9,35.1c0,7.6-6.4,13.8-14.2,13.8c-7.8,0-14.2-6.2-14.2-13.8c0-1.4,0.2-2.7,0.6-3.9h-4.2v19.3
			c0,1,0.8,1.8,1.8,1.8h31.8c1,0,1.8-0.8,1.8-1.8V31.2h-4C48.7,32.4,48.9,33.7,48.9,35.1z"/>
		<path fill="#F78E1E" d="M0,0v69.4h69.4V0H0z M57.5,51.7c0,3.2-2.6,5.9-5.9,5.9h-34c-3.2,0-5.9-2.6-5.9-5.9v-34
			c0-3.2,2.6-5.9,5.9-5.9h34c3.2,0,5.9,2.6,5.9,5.9V51.7z"/>
	</g>
</g>
<g id="Layer_5" display="none">
	<path display="inline" fill="#F78E1E" d="M0.2,0.2v69h69v-69H0.2z M61.7,22.1c-0.2,5.3-3.9,12.5-11,21.6C43.3,53.3,37.1,58,32,58
		c-3.1,0-5.8-2.9-8-8.7c-1.5-5.3-2.9-10.7-4.4-16c-1.6-5.8-3.3-8.7-5.2-8.7c-0.4,0-1.8,0.9-4.2,2.5l-2.5-3.3c2.7-2.3,5.3-4.7,7.9-7
		c3.6-3.1,6.2-4.7,8-4.8c4.2-0.4,6.8,2.5,7.8,8.6c1,6.6,1.8,10.8,2.2,12.4c1.2,5.5,2.5,8.3,4,8.3c1.1,0,2.8-1.8,5.1-5.4
		c2.3-3.6,3.5-6.3,3.6-8.2c0.3-3.1-0.9-4.6-3.6-4.6c-1.3,0-2.6,0.3-4,0.9c2.7-8.7,7.7-12.9,15.2-12.7C59.4,11.5,62,15.1,61.7,22.1z"
		/>
</g>
</svg>
