<?xml version="1.0" encoding="utf-8"?>
<!-- Generator: Adobe Illustrator 18.1.1, SVG Export Plug-In . SVG Version: 6.00 Build 0)  -->
<svg version="1.1" xmlns="http://www.w3.org/2000/svg" xmlns:xlink="http://www.w3.org/1999/xlink" x="0px" y="0px"
	 viewBox="0 0 60 60" enable-background="new 0 0 60 60" xml:space="preserve">
<g id="Layer_1" display="none">
	<g display="inline">
		<path fill="#FFFFFF" d="M17.4,36.6V18H6c-3.3,0-6,2.7-6,6v18c0,3.3,2.7,6,6,6h3v9l9-9h15c3.3,0,6-2.7,6-6v-5.5
			c-0.2,0-0.4,0.1-0.6,0.1H17.4z M54,3H27c-3.3,0-6,2.7-6,6v24h21l9,9v-9h3c3.3,0,6-2.7,6-6V9C60,5.7,57.3,3,54,3z"/>
	</g>
</g>
<g id="Layer_2" display="none">
	<g display="inline">
		<path fill="#FFFFFF" d="M30,24c-4.9,0-9,4-9,9c0,4.9,4,9,9,9c4.9,0,9-4,9-9C38.9,28,34.9,24,30,24z M53.8,15.1h-7.2
			c-1,0-2-0.8-2.4-1.7l-1.9-5.6c-0.3-0.9-1.4-1.7-2.4-1.7H19.8c-1,0-2,0.8-2.4,1.7l-1.9,5.6c-0.3,0.9-1.4,1.7-2.4,1.7H6.1
			c-3.3,0-6,2.7-6,6v26.9c0,3.3,2.7,6,6,6h47.7c3.3,0,6-2.7,6-6V21C59.8,17.7,57.1,15.1,53.8,15.1z M30,47.9
			c-8.2,0-14.9-6.7-14.9-14.9C15.1,24.7,21.7,18,30,18c8.2,0,14.9,6.7,14.9,14.9C44.9,41.2,38.2,47.9,30,47.9z M51.8,25.2
			c-1.2,0-2.1-0.9-2.1-2.1c0-1.2,0.9-2.1,2.1-2.1c1.2,0,2.1,0.9,2.1,2.1C53.8,24.3,52.9,25.2,51.8,25.2z"/>
	</g>
</g>
<g id="Layer_3" display="none">
	<path display="inline" fill="#2A3D52" d="M46.7,10.4h-9.5c-1.1,0-2.4,1.5-2.4,3.4v6.8h11.8v9.7H34.9v29.3H23.7V30.4H13.5v-9.7h10.1
		V15C23.7,6.7,29.4,0,37.2,0h9.5V10.4z"/>
</g>
<g id="Layer_4" display="none">
	<path display="inline" fill="#2A3D52" d="M59.9,11.6c-2.2,1-4.6,1.6-7.1,1.9c2.5-1.5,4.5-3.9,5.4-6.8c-2.4,1.4-5,2.4-7.8,3
		c-2.2-2.4-5.4-3.9-9-3.9c-6.8,0-12.3,5.5-12.3,12.3c0,1,0.1,1.9,0.3,2.8C19.3,20.4,10.2,15.5,4.2,8.1C3.1,9.9,2.5,12,2.5,14.2
		c0,4.3,2.2,8,5.5,10.2c-2-0.1-3.9-0.6-5.6-1.5c0,0.1,0,0.1,0,0.2c0,6,4.2,10.9,9.9,12c-1,0.3-2.1,0.4-3.2,0.4
		c-0.8,0-1.6-0.1-2.3-0.2c1.6,4.9,6.1,8.4,11.5,8.5C14,47.2,8.7,49.1,3,49.1c-1,0-2-0.1-2.9-0.2c5.4,3.5,11.9,5.5,18.8,5.5
		c22.6,0,35-18.7,35-35c0-0.5,0-1.1,0-1.6C56.2,16.2,58.3,14,59.9,11.6z"/>
</g>
<g id="Layer_5" display="none">
	<g display="inline">
		<rect y="8.2" fill="#FE0000" width="60" height="43.6"/>
		<rect x="13.6" y="8.2" fill="#FFFFFF" width="32.7" height="43.6"/>
		<g id="Shape_5_1_">
			<g>
				<path fill-rule="evenodd" clip-rule="evenodd" fill="#FE0000" d="M40.8,29.4c-0.3-0.1-0.6-0.4-0.7-0.5c-0.1-0.1,0.2-1.6,0.4-2.4
					l0-0.2c0.2-0.8-0.3-1.3-1.1-1.1l-0.2,0c-0.8,0.2-1.6,0.3-1.8,0.2c-0.1,0-0.4-0.6-0.5-1c-0.1-0.4-0.7-0.2-1.2,0.4l-0.5,0.6
					c-0.5,0.6-1.2,1.2-1.5,1.4c-0.3,0.1-0.2-1.5,0-2.3l0.5-2.8c0.1-0.8-0.1-1.3-0.4-1.1c-0.4,0.2-0.9,0.4-1.1,0.5
					c-0.2,0.1-0.9-0.9-1.3-1.6l-0.6-1.1c-0.4-0.7-1-0.7-1.4,0l-0.6,1.1c-0.4,0.7-0.8,1.4-1,1.5c-0.2,0.1-1-0.2-1.4-0.4
					c-0.4-0.2-0.6,0.3-0.4,1.1l0.5,2.8c0.2,0.8,0.2,1.7,0,2c-0.1,0.3-1.1-0.4-1.6-1.1L24.3,25c-0.5-0.6-1.1-0.8-1.2-0.4
					c-0.1,0.4-0.3,0.8-0.3,0.9c-0.1,0.1-1.1,0-1.9-0.2l-0.2,0c-0.8-0.2-1.3,0.3-1.1,1.1l0,0.2c0.2,0.8,0.5,1.7,0.5,1.9
					c0.1,0.3-0.6,0.8-0.9,0.9c-0.3,0.1,0,0.7,0.6,1.2l3.1,2.6c0.6,0.5,1.2,1.1,1.3,1.2c0.1,0.1,0,0.9-0.2,1.3
					c-0.1,0.4,0.4,0.7,1.3,0.6l2.4-0.3c0.8-0.1,1.6-0.1,1.7-0.1c0.1,0,0.2,0.9,0.2,1.8l-0.1,2.8c0,0.8,0.1,1.5,0.4,1.5
					c0.3,0,0.4-0.7,0.4-1.5l-0.1-2.8c0-0.8,0-1.6,0.1-1.7c0.1-0.1,1-0.1,1.8,0l2.4,0.3c0.8,0.1,1.4-0.2,1.3-0.6
					c-0.1-0.4-0.2-0.9-0.2-1.1c0-0.2,0.8-0.9,1.4-1.4l3.1-2.6C40.8,30.1,41.1,29.6,40.8,29.4z"/>
			</g>
		</g>
	</g>
</g>
<g id="Layer_6">
	<path fill="#2A3D52" d="M48.1,30c0,10-8.1,18.1-18.1,18.1C20,48.1,11.9,40,11.9,30c0-1.2,0.1-2.4,0.3-3.5H0v24.1
		c0,5.2,4.2,9.4,9.4,9.4h41.2c5.2,0,9.4-4.2,9.4-9.4V26.5H47.8C48,27.6,48.1,28.8,48.1,30z M50.6,0H9.4C4.2,0,0,4.2,0,9.4v10.1h15.2
		c3.3-4.6,8.7-7.7,14.8-7.7c6.1,0,11.5,3,14.8,7.7h15.2V9.4C59.9,4.2,55.7,0,50.6,0z M55.2,11.6c0,0.9-0.8,1.7-1.7,1.7h-5
		c-0.9,0-1.7-0.8-1.7-1.7v-5c0-0.9,0.8-1.7,1.7-1.7h5c0.9,0,1.7,0.8,1.7,1.7V11.6z M41.1,30c0-6.2-5-11.1-11.1-11.1
		c-6.2,0-11.1,5-11.1,11.1s5,11.1,11.1,11.1C36.1,41.1,41.1,36.1,41.1,30z"/>
</g>
<g id="Layer_7" display="none">
	<path display="inline" fill="#FFFFFF" d="M25.7,39.6c-1.6,8.2-3.5,16.1-9.2,20.3c-1.8-12.5,2.6-21.8,4.6-31.7
		c-3.4-5.8,0.4-17.4,7.6-14.5c8.9,3.5-7.7,21.5,3.4,23.7c11.6,2.3,16.4-20.2,9.2-27.5C31-0.8,11.1,9.6,13.5,24.7
		c0.6,3.7,4.4,4.8,1.5,9.9c-6.7-1.5-8.7-6.7-8.4-13.8C7,9.4,17,1.4,26.9,0.2c12.6-1.4,24.4,4.6,26,16.4c1.8,13.4-5.7,27.8-19.1,26.8
		C30.1,43.2,28.6,41.4,25.7,39.6z"/>
</g>
</svg>
