<?xml version="1.0" encoding="utf-8"?>
<!-- Generator: Adobe Illustrator 18.1.1, SVG Export Plug-In . SVG Version: 6.00 Build 0)  -->
<svg version="1.1" id="Layer_1" xmlns="http://www.w3.org/2000/svg" xmlns:xlink="http://www.w3.org/1999/xlink" x="0px" y="0px"
	 viewBox="-233.6 351.5 59.8 59.8" enable-background="new -233.6 351.5 59.8 59.8" xml:space="preserve">
<path fill="#FFFFFF" d="M-220.4,371.8c-3,5.2-7.8,8.8-13.2,10.3c-0.1-5.3,1.1-10.7,4-15.7c2.9-4.9,6.9-8.8,11.6-11.3
	C-216.7,360.6-217.3,366.6-220.4,371.8z"/>
<path fill="#FFFFFF" d="M-193.5,387.3c-4.2,7.3-5,15.6-2.9,23.1c-7.3,1.8-15.3,1-22.3-3.1c-7-4-11.8-10.5-13.8-17.7
	c7.6-1.9,14.4-6.8,18.6-14c4.2-7.3,5-15.6,2.9-23.1c7.3-1.8,15.3-1,22.3,3.1c7,4,11.8,10.5,13.8,17.7
	C-182.5,375.2-189.3,380-193.5,387.3z"/>
<path fill="#FFFFFF" d="M-177.8,396.4c-2.9,4.9-6.9,8.8-11.6,11.3c-1.4-5.4-0.7-11.4,2.3-16.6c3-5.2,7.8-8.8,13.2-10.3
	C-173.7,386-175,391.5-177.8,396.4z"/>
</svg>
