<?xml version="1.0" encoding="utf-8"?>
<!-- Generator: Adobe Illustrator 18.1.1, SVG Export Plug-In . SVG Version: 6.00 Build 0)  -->
<svg version="1.1" id="Layer_1" xmlns="http://www.w3.org/2000/svg" xmlns:xlink="http://www.w3.org/1999/xlink" x="0px" y="0px"
	 viewBox="0 0 60 60" enable-background="new 0 0 60 60" xml:space="preserve">
<g>
	<path fill="#FFFFFF" d="M17.4,36.6V18H6c-3.3,0-6,2.7-6,6v18c0,3.3,2.7,6,6,6h3v9l9-9h15c3.3,0,6-2.7,6-6v-5.5
		c-0.2,0-0.4,0.1-0.6,0.1H17.4z M54,3H27c-3.3,0-6,2.7-6,6v24h21l9,9v-9h3c3.3,0,6-2.7,6-6V9C60,5.7,57.3,3,54,3z"/>
</g>
</svg>
