<?xml version="1.0" encoding="utf-8"?>
<!-- Generator: Adobe Illustrator 18.1.1, SVG Export Plug-In . SVG Version: 6.00 Build 0)  -->
<svg version="1.1" xmlns="http://www.w3.org/2000/svg" xmlns:xlink="http://www.w3.org/1999/xlink" x="0px" y="0px"
	 viewBox="0 0 60 60" enable-background="new 0 0 60 60" xml:space="preserve">
<g id="Layer_1" display="none">
	<g display="inline">
		<path fill="#FFFFFF" d="M17.4,36.6V18H6c-3.3,0-6,2.7-6,6v18c0,3.3,2.7,6,6,6h3v9l9-9h15c3.3,0,6-2.7,6-6v-5.5
			c-0.2,0-0.4,0.1-0.6,0.1H17.4z M54,3H27c-3.3,0-6,2.7-6,6v24h21l9,9v-9h3c3.3,0,6-2.7,6-6V9C60,5.7,57.3,3,54,3z"/>
	</g>
</g>
<g id="Layer_2" display="none">
	<g display="inline">
		<path fill="#FFFFFF" d="M30,24c-4.9,0-9,4-9,9c0,4.9,4,9,9,9c4.9,0,9-4,9-9C38.9,28,34.9,24,30,24z M53.8,15.1h-7.2
			c-1,0-2-0.8-2.4-1.7l-1.9-5.6c-0.3-0.9-1.4-1.7-2.4-1.7H19.8c-1,0-2,0.8-2.4,1.7l-1.9,5.6c-0.3,0.9-1.4,1.7-2.4,1.7H6.1
			c-3.3,0-6,2.7-6,6v26.9c0,3.3,2.7,6,6,6h47.7c3.3,0,6-2.7,6-6V21C59.8,17.7,57.1,15.1,53.8,15.1z M30,47.9
			c-8.2,0-14.9-6.7-14.9-14.9C15.1,24.7,21.7,18,30,18c8.2,0,14.9,6.7,14.9,14.9C44.9,41.2,38.2,47.9,30,47.9z M51.8,25.2
			c-1.2,0-2.1-0.9-2.1-2.1c0-1.2,0.9-2.1,2.1-2.1c1.2,0,2.1,0.9,2.1,2.1C53.8,24.3,52.9,25.2,51.8,25.2z"/>
	</g>
</g>
<g id="Layer_3">
	<path fill="#FFFFFF" d="M46.7,10.4h-9.5c-1.1,0-2.4,1.5-2.4,3.4v6.8h11.8v9.7H34.9v29.3H23.7V30.4H13.5v-9.7h10.1V15
		C23.7,6.7,29.4,0,37.2,0h9.5V10.4z"/>
</g>
</svg>
